<svg xmlns="http://www.w3.org/2000/svg" width="427.768" height="143.679" viewBox="0 0 427.768 143.679">
  <g id="Group_2133" data-name="Group 2133" transform="translate(-2567.7 -4985.871)">
    <path id="Path_948" data-name="Path 948" d="M2829.45,5005.391c-.617-9.627-5.754-16.41-15.763-18.585-.419-.088-11.229-.125-11.523-.073-10.229,1.639-15.814,9.487-16.41,18.394a148.882,148.882,0,0,0-.139,20.481,25.214,25.214,0,0,0,3.432,10.633c4.644,7.907,15.182,11.061,25.669,8.275,7.349-1.955,12.765-6.525,13.816-14.006A123.732,123.732,0,0,0,2829.45,5005.391Zm-6.695,21.921c-.875,8.6-7.746,13.412-16.314,12.772s-14.2-6.606-14.477-15.439c-.088-2.933-.155-17.7.86-21.907,1.874-7.8,7.51-11.449,15.829-11.126,7.562.3,13.2,4.623,14.006,12.368A114.614,114.614,0,0,1,2822.755,5027.312Z" transform="translate(-57.698 -0.222)" fill="#293213"/>
    <path id="Path_949" data-name="Path 949" d="M3038.869,5033.292a16.078,16.078,0,0,1-5.247,7.974c-8.076,6.378-24.412,4.924-31.21-2.308a15.438,15.438,0,0,1-4.042-10.259c5.129-1.234,5.247-1.176,6.864,3.285,1.83,5.042,7.422,8.165,14.411,7.841a25.672,25.672,0,0,0,6.1-1.014c4.7-1.418,6.871-4.049,7.143-8.208.345-5.35-1.058-8.209-5.842-10.267-4.475-1.918-9.171-3.321-13.764-4.967a47.493,47.493,0,0,1-4.777-1.823c-6.761-3.27-8.458-6.5-7.944-14.814.3-4.88,4.189-9.385,9.708-11.3,1.426-.492,2.829-1.043,4.248-1.565H3024.8a61.4,61.4,0,0,1,7.451,3.351c4.71,2.9,6.959,7.312,7,12.927-3.322.544-5.82.962-7.1-3.63-1.7-6.122-10.009-8.745-17.835-6.489-3.594,1.028-6.621,2.763-7.128,6.886-.654,5.379.434,7.539,5.659,9.722,4.938,2.065,10.126,3.52,15.19,5.291C3037.495,5017.242,3041.382,5023.753,3038.869,5033.292Z" transform="translate(-114.183)" fill="#293213"/>
    <path id="Path_950" data-name="Path 950" d="M3054.377,5120.345c-.963-9.634-6.577-16.2-16.035-17.358-8.246-1.007-16.718-.205-25.272-.205v56.555c6.606,0,12.86.316,19.07-.066,13.147-.8,21.319-8.055,22.428-20.253A97.876,97.876,0,0,0,3054.377,5120.345ZM3044.1,5137.8c-.243,7.9-5.423,12.941-13.264,13.088-2.315.044-4.63.007-7.3.007V5110.52c3.373,0,6.43-.184,9.458.037,6.606.485,10.884,5.181,11.1,12.206Q3044.335,5130.27,3044.1,5137.8Z" transform="translate(-118.081 -30.916)" fill="#293213"/>
    <path id="Path_951" data-name="Path 951" d="M2833.335,5121.5a25.42,25.42,0,0,0-.26-2.938c-1.69-11.141-8.885-17.35-21.877-17.982-12.4-.6-23.266,4.938-24.464,20.378a131.178,131.178,0,0,0-.353,15.006c.544,15.131,7.275,22.722,21.723,23.825,7.6.58,14.648-1.251,19.345-6.081,2.9-2.98,3.957-6.155,4.883-8.9C2834.127,5139.5,2833.863,5133.5,2833.335,5121.5Zm-10.659,17.373c-.287,7.173-4.924,12.324-11.243,12.618-8.289.382-13.338-3.417-13.97-11.479a133.57,133.57,0,0,1,.015-20.069c.5-6.864,5.519-11,12.272-11.074,6.981-.074,11.64,3.637,12.566,10.626C2822.794,5123.084,2822.787,5136.062,2822.677,5138.869Z" transform="translate(-57.958 -30.4)" fill="#293213"/>
    <path id="Path_952" data-name="Path 952" d="M2689.163,5102.131v57.114c-2.667,0-5.1.015-7.532-.015a7.185,7.185,0,0,1-1.47-.353c-.2-1.235-.375-2.4-.551-3.491-3.682,1.551-7.077,3.667-10.751,4.417-13.331,2.7-22.222-4.335-23.487-18.129-.081-.853-.037-1.712-.037-2.564V5102.2H2656c0,1.491-.015,2.932,0,4.372.1,11.736.36,23.472.25,35.208-.066,7.18,5.409,11.919,14.337,9.686,5.835-1.463,8.179-4.733,8.179-10.678v-38.654Z" transform="translate(-20.58 -30.824)" fill="#293213"/>
    <path id="Path_953" data-name="Path 953" d="M2980.42,5157.869q-8.675-27.161-17.446-54.3a3.073,3.073,0,0,0-2.278-1.624c-4.13-.161-8.267-.073-12.4-.073-5.85,19.136-11.611,38.008-17.512,57.305,3.3,0,6.217.162,9.09-.1a3.539,3.539,0,0,0,2.271-2.131c1.168-3.454,1.889-7.062,3.145-10.479a4.252,4.252,0,0,1,3.013-2.234c3.52-.286,7.084-.11,10.634-.11,6.416,0,6.416,0,8.142,5.967,2.807,9.751,2.807,9.751,12.956,8.98a1.54,1.54,0,0,0,.4-.191A3.351,3.351,0,0,0,2980.42,5157.869Zm-32.062-22.384c2.219-8.069,4.387-15.925,6.555-23.788.272-.037.544-.073.823-.1,2.249,7.863,4.5,15.719,6.827,23.891Z" transform="translate(-96.263 -30.749)" fill="#293213"/>
    <path id="Path_954" data-name="Path 954" d="M2599.446,5102.041H2585.2c-5.776,18.886-11.545,37.735-17.5,57.195,3.1,0,5.666-.11,8.208.037,1.889.1,2.866-.441,3.314-2.418.772-3.329,2.006-6.547,2.749-9.884.5-2.263,1.646-2.9,3.829-2.836,4.52.132,9.053.132,13.573.007,2.094-.066,3.057.72,3.586,2.711.9,3.41,1.977,6.783,3.2,10.09.338.912,1.418,2.109,2.249,2.183,2.983.265,6,.1,9.421.1C2611.608,5139.865,2605.538,5120.979,2599.446,5102.041Zm-14.176,33.458c2.219-8.032,4.409-15.961,6.6-23.891.257-.015.514-.029.771-.037,2.241,7.863,4.49,15.733,6.827,23.927Z" transform="translate(0 -30.8)" fill="#293213"/>
    <path id="Path_955" data-name="Path 955" d="M2907.522,5142.042c.052,8-4.1,13.867-11.471,16.358a27.313,27.313,0,0,1-16.549.441,19.08,19.08,0,0,1-14.154-18.35c-.1-6.731-.059-13.456-.015-20.187.073-10.1,6.9-18.107,16.968-19.408,7.679-.985,15.168-.529,20.988,5.71a15.867,15.867,0,0,1,4.2,11.56h-9.524c-2.256-7.2-4.292-9.127-9.84-9.311-6.68-.221-11.3,3.175-11.773,9.833a152.009,152.009,0,0,0-.044,22.7c.647,8.282,8.1,12.338,15.844,9.3,3.858-1.514,5.21-4.828,5.769-8.642Z" transform="translate(-78.9 -30.39)" fill="#293213"/>
    <path id="Path_956" data-name="Path 956" d="M2906.182,5006.9c-.867-11.574-7.29-18.026-18.857-19.062-6.533-.581-13.162-.1-20.025-.1v56.57c6.82,0,13.323.463,19.746-.1,10.009-.875,17.181-7.312,18.673-17.262A90.437,90.437,0,0,0,2906.182,5006.9Zm-6.621,18.173c-.911,8.488-6.672,13.463-15.167,14.087-3.388.25-6.8.044-10.509.044v-46.238c4.387,0,8.554-.316,12.647.074,7.084.661,12.309,5.475,13.022,12.7A94.957,94.957,0,0,1,2899.561,5025.073Z" transform="translate(-79.433 -0.445)" fill="#293213"/>
    <path id="Path_957" data-name="Path 957" d="M2761.532,5102.251v8h-15.5V5159h-10.692v-48.391H2719.63v-8.355Z" transform="translate(-40.281 -30.856)" fill="#293213"/>
    <path id="Path_958" data-name="Path 958" d="M2687.327,4987.712v56.835H2681.8c-.11-1.9-.206-3.674-.338-5.937-1,.721-1.844,1.249-2.587,1.889-5.533,4.711-12.03,5.776-18.937,4.74a15.352,15.352,0,0,1-13.411-14.83c-.485-14.161-.133-28.352-.133-42.747h6c.059,1.337.162,2.631.169,3.932q.011,16.346.007,32.694a35.882,35.882,0,0,0,.11,3.667c1.021,9.781,7.746,14.359,17.277,11.794,7.43-1.992,11.258-7.011,11.258-14.742v-37.295Z" transform="translate(-20.831 -0.475)" fill="#293213"/>
    <path id="Path_959" data-name="Path 959" d="M3109.3,5044.515c-2.484-1.139-4.652-3.5-6.312-5.791-4.931-6.8-9.539-13.837-15.006-21.848-2.7,4.77-5.93,8.62-7.069,13.008-1.161,4.453-.257,9.443-.257,14.492h-6.077V4987.6h6.144v29.255l.771.22q7.485-9.358,14.955-18.709a82.168,82.168,0,0,0,6.085-7.8c2.352-3.821,5.563-3.586,9.6-2.792-5.71,7.275-11,14.418-16.762,21.165-2.462,2.888-2.491,4.843-.294,7.774,4.468,5.96,8.605,12.17,12.831,18.306,1.977,2.874,3.917,5.71,8.032,4.946C3116.431,5044.978,3114.13,5046.741,3109.3,5044.515Z" transform="translate(-134.389 -0.376)" fill="#293213"/>
    <path id="Path_960" data-name="Path 960" d="M2615.806,5042.971q-9.072-26.885-18.136-53.777c-1.1-3.278-3.667-1.573-5.57-1.808-1.639-.2-3.638-.758-4.431,1.925-1.624,5.5-3.534,10.92-5.32,16.373-4.174,12.735-8.341,25.478-12.618,38.537,6.305.9,6.32.911,8.01-4.248,1.146-3.477,2.05-7.048,3.439-10.42a4.549,4.549,0,0,1,3.2-2.433c5.5-.257,11.023-.037,16.527-.162,2.043-.044,3.108.617,3.674,2.6,1.014,3.52,2.234,6.981,3.388,10.457,1.741,5.21,2.4,5.548,7.892,4A3.8,3.8,0,0,0,2615.806,5042.971Zm-32.062-21.686c2.91-9.318,5.725-18.328,8.892-28.455,3.263,10.068,6.2,19.151,9.215,28.455Z" transform="translate(-0.538 -0.339)" fill="#293213"/>
    <path id="Path_961" data-name="Path 961" d="M2948.252,4992.905v19.474h22.3v5.475h-22.267v21.385h24.038v5.277H2941.55V4987.65h30.791v5.255Z" transform="translate(-99.119 -0.471)" fill="#293213"/>
    <path id="Path_962" data-name="Path 962" d="M2759.63,4987.711v5.137h-16.66v51.735h-6.555v-51.72H2719.55v-5.151Z" transform="translate(-40.26 -0.488)" fill="#293213"/>
    <path id="Path_963" data-name="Path 963" d="M3148.995,4994.661a6,6,0,0,1,.169.978A5.3,5.3,0,0,0,3148.995,4994.661Zm-1.47,5.886a.293.293,0,0,1-.044.052c.022-.015.037-.029.059-.044C3147.532,5000.555,3147.532,5000.547,3147.525,5000.547Zm-.125.11c.007.008.015.015.015.022.022-.029.044-.052.066-.081A.561.561,0,0,1,3147.4,5000.657Z" transform="translate(-153.696 -2.331)" fill="#293213"/>
    <path id="Path_970" data-name="Path 970" d="M2600.715,4994.879c3.259,10.067,6.2,19.153,9.213,28.456C2609.928,5023.334,2597.55,5005,2600.715,4994.879Z" transform="translate(-8.616 -2.388)" fill="#293213"/>
    <path id="Path_971" data-name="Path 971" d="M3147.482,5002.626c.007,0,.007.007.015.007-.022.015-.037.029-.059.044s-.044.051-.066.08c0-.007-.007-.015-.015-.022a1.756,1.756,0,0,0-.117-.235C3147.321,5002.545,3147.4,5002.582,3147.482,5002.626Z" transform="translate(-153.653 -4.409)" fill="#293213"/>
    <path id="Path_972" data-name="Path 972" d="M3149.739,4995.639a5.975,5.975,0,0,0-.169-.978A5.284,5.284,0,0,1,3149.739,4995.639Z" transform="translate(-154.271 -2.331)" fill="#293213"/>
    <path id="Path_973" data-name="Path 973" d="M3147.5,5002.633l-.125.125c0-.007-.007-.015-.015-.022a1.756,1.756,0,0,0-.117-.235c.081.044.162.081.242.125C3147.49,5002.626,3147.49,5002.633,3147.5,5002.633Z" transform="translate(-153.653 -4.409)" fill="#293213"/>
  </g>
</svg>
