<svg xmlns="http://www.w3.org/2000/svg" width="810.034" height="631.195" viewBox="0 0 810.034 631.195">
  <path id="Path_839" data-name="Path 839" d="M8663.055,4409.992c-16.75-24.05-39.652-41-64.98-54.663-15.836-8.545-32.588-15.375-48.941-22.958a24.774,24.774,0,0,0-2.768-.89c-13.7,43.787-27.336,87.388-41.045,131.224-43.884-16.306-88.925-19.349-135.075-14.736a14.456,14.456,0,0,1,.267-2.606q19.689-61.553,39.426-123.083h-4.855c-8.739,1.505-17.576,2.6-26.211,4.572-38.324,8.756-72.984,25.887-105.83,47.008-14.922,9.6-14.809,9.67-19.98,26.664q-15.656,51.406-31.56,102.739a8.729,8.729,0,0,1-3.446,4.556c-44.565,26.931-92.616,43.828-144.4,49.88a16.787,16.787,0,0,1-2.015.105,8.935,8.935,0,0,1-1.44-.316c12.478-41.538,24.932-83.035,37.58-125.139-22.318,4.4-43.973,5.94-65.838,3.391-21.881-2.549-42.735-8.375-62.448-19.316-13.87,43.747-27.643,87.21-41.545,131.086,42.533,15.99,85.907,18.92,130.835,11.733-1.958,5.924-3.739,11.362-5.56,16.784q-18.062,54.04-36.116,108.08c-.72,2.152-1.416,3.69-4.216,3.973-25.264,2.581-50.544,4.111-75.9,1.562-13.587-1.368-26.963-3.771-39.393-9.808-2.169-1.052-4.176-2.436-6.636-3.893-1.643,4.564-3.285,9.072-4.888,13.587q-20.283,57.111-40.566,114.23a35.626,35.626,0,0,1-1.513,3.245v.81c21.38,7.761,43.633,10.439,66.178,11.191a418.581,418.581,0,0,0,65.321-2.954,26.1,26.1,0,0,1,2.824-.016c-15.116,45.527-30.111,90.69-45.2,136.136,1.068.445,2.1.874,3.131,1.3h17.8c8.076-1.319,16.217-2.363,24.228-4.014,35.833-7.372,69.707-20.465,102.844-35.622a6.886,6.886,0,0,0,3.172-3.293c20.376-47.412,36.715-96.071,45.3-147.125a6.311,6.311,0,0,1,2.549-4.054c37.427-20.821,75.914-39.191,117.888-49.023,7.834-1.837,15.941-2.541,23.937-3.69a33.232,33.232,0,0,1,4.5-.024c-20.441,44.151-30.645,91.118-42.468,138.5a230.541,230.541,0,0,1,68.694-5.236,250.828,250.828,0,0,1,66.551,13.935c6.781-34.764,29.133-103.832,41.716-128.626,42.023,12.931,78.632,33.672,104.132,71.616a29.687,29.687,0,0,0,1.352-2.767q22.8-61.141,45.623-122.266c1.109-2.961.575-4.791-1.488-7.073-19.615-21.565-41.1-40.866-66.615-55.286-12.041-6.806-24.715-11.977-38.527-13.951-.785-.113-1.555-.348-2.775-.623,13.586-43.212,27.093-86.183,40.793-129.767,43.875,15.723,82.855,38.462,115.119,73.033.867-4.305,1.578-8.295,2.477-12.236,7.332-32.029,19.139-62.545,31.617-92.818,2.913-7.073,6.23-13.975,9.362-20.959v-1.619C8663.7,4410.332,8663.24,4410.259,8663.055,4409.992Zm-484.1,232.563c-12.114,34.861-24.729,69.553-36,104.681-2.946,9.161-7.348,14.7-15.553,19.082-31.568,16.856-64.989,28.7-99.39,38.01-11.038,2.994-22.245,5.365-33.388,7.995-1.02.243-2.08.324-3.933.6,3.641-12.8,7.1-24.956,10.568-37.1q11.835-41.586,23.637-83.172c.81-2.9,1.975-4.3,5.244-4.9,42.1-7.761,83.415-18.3,122.548-36.067,9.412-4.272,18.442-9.4,28.081-14.339C8180.133,4639.165,8179.535,4640.864,8178.952,4642.555Zm72.862-42.905a510.871,510.871,0,0,0-63.944,31.916c-1.343.785-2.687,1.554-4.9,2.84,2.29-7.623,4.264-14.291,6.295-20.935q15.841-51.722,31.787-103.419c.7-2.241,2.314-4.912,4.256-5.947,11.508-6.126,22.934-12.559,34.943-17.528,33.882-14.016,68.945-24.633,104.105-34.9.51-.146,1.053-.21,2.129-.421a34.471,34.471,0,0,1-.647,3.479q-17.322,59.5-34.627,119c-.825,2.832-2.022,4.022-5.106,4.442C8300.295,4581.653,8275.8,4589.834,8251.814,4599.65Zm209.605.955c-12.705,39.911-25.207,79.878-37.773,119.83-.316,1-.746,1.951-1.23,3.2-15.837-8.812-32.911-13.044-50.432-15.707-25.012-3.8-50.187-4.395-75.428-3.253-1.724.081-3.439.186-5.745.308,2.411-7.663,4.646-14.809,6.919-21.954q16.034-50.423,32.054-100.87c.728-2.3,1.528-3.561,4.321-3.593,29.828-.38,59.591.186,89.1,5.042,12.244,2.015,24.31,4.742,35.509,10.447C8461.7,4595.58,8462.529,4597.125,8461.42,4600.6Z" transform="translate(-7854 -4322.28)" fill="#fff" opacity="0.1"/>
</svg>
