<svg xmlns="http://www.w3.org/2000/svg" width="340.92" height="287.448" viewBox="0 0 340.92 287.448">
  <g id="Group_2360" data-name="Group 2360" transform="translate(-2747.16 -9541.689)">
    <path id="Path_1677" data-name="Path 1677" d="M3026.6,9806.4c-23.814-2.7-47.162-10.163-71.564-7.1,11.992-1.658,24.077-3.021,35.914-1.921,14.564,1.348,28.88,5.268,43.367,7.7,2.99.51,8.1.479,9.048-1.147,3.563-6.15,5.81-13.062,9.125-21.071-5.7,0-8.785-.016-11.853.017-15.215.092-30.445.045-45.675.37-6.151.124-10.814-1.27-13.96-7.156-11.992-22.482-25.208-44.375-36.1-67.367a157.9,157.9,0,0,1-14.8-64.422c-.372-15.99,1.859-31.529,9.792-45.846.681,27.857.511,55.653.821,83.433a55.839,55.839,0,0,0,3.006,18.1c9.3,25.378,22.993,48.386,39.493,69.7,1.425,1.845,4.013,3.873,6.12,3.936,12.225.372,24.449.171,36.859.171-3.1-6.2-6.74-12.969-9.931-19.94-20.328-44.42-40.16-88.979-31.514-140.371-14.053,5.128-27.966,10.226-42.747,15.633v-70.186c-8.118-3.61-14.936-6.817-21.908-9.684-3.733-1.534-8.32-4.322-11.48-3.316-13.572,4.37-25.859-.309-38.672-3.129a52.119,52.119,0,0,0-20.374-.218c-10.35,1.969-20.39,5.578-29.05,8.057,7.3,2.991,15.974-.325,24.991-2.727,6.539-1.735,13.79-3.129,20.3-2.061,11.573,1.89,22.806,5.78,34.458,8.894-10.66,2.617-20.157-2.5-30-4.477a62.657,62.657,0,0,0-31.3,1.688c-9.513,2.881-19.166,5.313-28.756,7.963.17.666.325,1.348.48,2.014,8.227-1.735,16.718-2.68,24.62-5.391,14.052-4.834,27.439-4.648,41.6.062,8.011,2.665,17.121,1.89,25.626,3.3a51.155,51.155,0,0,1,14.44,4.571c7.081,3.578,13.758,7.963,20.5,12.192,1.286.807,2.789,2.386,2.9,3.719.356,4.509.139,9.063.139,13.386-36.41,7.175-66.08,23.148-87.135,53.206a64.18,64.18,0,0,1-9.962,11.666c-7.112,6.182-15.029,11.466-22.141,17.647-12.859,11.171-25.394,22.729-38.021,34.148-11.759,10.645-23.488,21.334-36.1,32.8,23.938-2.093,23.938-2.093,61.463,17.413-4.524-14.888-5.407-29.482-.078-46.216,0,13.634-.387,25.13.263,36.564.155,2.82,3.285,5.9,5.764,8.042,3.424,2.958,7.514,5.128,11.326,7.638-.31.526-.62,1.053-.914,1.579-22.884-4.539-45.752-9.095-70.124-13.927,11.4,6.3,21.831,11.015,31.034,17.476,9.42,6.616,17.554,15.044,26.448,22.436,1.208,1.006,3.688,1.177,5.376.821a123.547,123.547,0,0,1,72.866,7.575c-36.565-7.9-72.928-14.16-105.232,12.782,25.6-9.467,50.075-8.148,73.424,7.918-2.944-11.791.062-15.68,11.9-15.2a74.431,74.431,0,0,1,17.415,3.1c16.795,4.865,33.265,11.047,50.261,14.982,16.841,3.889,34.117,4.276,52.151-1.286-5.98-.837-11.14-.619-15.385-2.463-3.486-1.5-8.072-5.408-8.181-8.383-.109-3.144,3.951-7.344,7.235-9.42,3.006-1.89,7.5-2.339,11.186-2a195.343,195.343,0,0,1,21.288,3.61c14.874,3.054,29.624,7.02,44.622,9.251a60.414,60.414,0,0,0,36.813-6.368C3068.047,9808.364,3047.162,9808.736,3026.6,9806.4Zm-86.33-25.55c-8.862-.573-17.771-.789-26.587-1.78-26.106-2.944-52.2-6.028-78.227-9.592-2.541-.34-5.826-3.936-6.678-6.677-8.211-26.649-3.424-52.477,5.872-77.887,1.41-3.858,3.129-7.623,4.756-11.388a4.145,4.145,0,0,1,1.859-1.782c-9.342,32.862-6.151,65.167,3.378,97.826,37.247-16.346,72.556-5.841,107.835,4.618-3.7-.559-7.422-1.115-11.481-1.736C2940.768,9775.224,2940.566,9777.486,2940.271,9780.848Zm35.2.729h-26.664C2957.7,9775.751,2966.456,9776.185,2975.473,9781.576Z" transform="translate(0)" fill="#403347"/>
  </g>
</svg>
