<svg xmlns="http://www.w3.org/2000/svg" width="214.959" height="236.426" viewBox="0 0 214.959 236.426">
  <g id="Group_1889" data-name="Group 1889" transform="matrix(0.819, -0.574, 0.574, 0.819, -8662.021, 693.857)">
    <path id="Path_319" data-name="Path 319" d="M7583.605,4511.409q-17.111-12.153-34.168-24.385a1.8,1.8,0,0,0-2.435-.049c-4.682,3.373-9.477,6.586-14.056,10.086a121.058,121.058,0,0,0-15.339,14.05c-12.381,13.386-22.309,28.451-30.722,44.571a3.216,3.216,0,0,1-1.791,1.558q-11.459,2.722-22.972,5.242a3.145,3.145,0,0,0-2.235,1.57q-8.546,14.3-17.154,28.555c-1.351,2.247-2.721,4.493-4.126,6.818.5.4.875.725,1.278,1.017,2.6,1.863,5.241,3.658,7.774,5.6,1.078.827,1.752.663,2.7-.177,5.491-4.876,11.074-9.661,16.546-14.566,1.558-1.395,3.408-1.51,5.418-2.058-.792,2.355-1.456,4.48-2.228,6.556a1.39,1.39,0,0,0,.589,1.911q16.92,12.035,33.8,24.124a1.437,1.437,0,0,0,2.1-.085c1.686-1.412,3.458-2.721,5.5-4.31.066,2.252.5,4.029-.28,5.9-2.9,6.915-5.722,13.867-8.51,20.825a1.773,1.773,0,0,0,.28,1.632c3.123,2.325,6.325,4.553,9.8,7.024a10.169,10.169,0,0,1,.59-.882q13.057-15.55,26.091-31.112a3.021,3.021,0,0,0,.564-2.045c-.8-7.872-1.692-15.724-2.482-23.595a2.981,2.981,0,0,1,.67-2.106,231.239,231.239,0,0,0,23.271-28.659,155.571,155.571,0,0,0,18.292-36.256c1.65-4.724,2.727-9.648,4.1-14.47A1.817,1.817,0,0,0,7583.605,4511.409Zm-40.93,32.877a12.33,12.33,0,0,1,.255-24.653,12.284,12.284,0,0,1,12.564,12.461C7555.445,4539.094,7549.9,4544.372,7542.675,4544.287Z" transform="translate(-0.001 -8.184)" fill="#5e1822"/>
    <path id="Path_320" data-name="Path 320" d="M7499.643,4713.656a20.866,20.866,0,0,1-17.988,14.695c-.292.031-.59.006-1.12.006a7.934,7.934,0,0,1,2.246-5.624,10.872,10.872,0,0,0,1.7-2.113,3.091,3.091,0,0,0-.992-4.042,2.76,2.76,0,0,0-3.834.53,12.843,12.843,0,0,0-1.967,4.017c-.706,2.375-.956,4.895-1.747,7.232a6.291,6.291,0,0,1-2.447,3.3,25.414,25.414,0,0,1-7.633,3.2c-4.523.828-7.347,3.348-9.259,7.262-.11.225-.238.445-.366.664-.018.037-.079.049-.486.268-.4-1.82-.907-3.519-1.121-5.26a19.191,19.191,0,0,1,2.648-13,18.962,18.962,0,0,1,3.713-4.34c2.758-2.307,5.717-4.371,8.6-6.519a6.706,6.706,0,0,0,2.77-4.56,5.985,5.985,0,0,0-.633-3.33c-1.181-2.271-3.816-2.173-5.017.085a10.822,10.822,0,0,0-.742,1.984c-1.364,4.639-7.3,8.839-12.187,9.454a38.125,38.125,0,0,0,3.506-5.613,24.363,24.363,0,0,0,1.479-6.458c.986-8.1,5.15-13.982,12.576-17.148,7.475-3.178,14.737-2.24,21.214,2.8A20.667,20.667,0,0,1,7499.643,4713.656Z" transform="translate(-5.94 -86.434)" fill="#5e1822"/>
    <path id="Path_321" data-name="Path 321" d="M7658.534,4499.561a8.156,8.156,0,0,1-.359,1.1c-11.286-8.054-22.437-16-34-24.257,3.926-1.8,7.371-3.513,10.914-4.986a77.879,77.879,0,0,1,20.746-5.7c2.063-.25,2.081-.255,2.495,1.777C7660.5,4478.176,7660.177,4488.865,7658.534,4499.561Z" transform="translate(-72.61)" fill="#5e1822"/>
  </g>
</svg>
