<svg id="Group_2283" data-name="Group 2283" xmlns="http://www.w3.org/2000/svg" width="200.484" height="132.874" viewBox="0 0 200.484 132.874">
  <path id="Path_1341" data-name="Path 1341" d="M4788.883,4641.093c-.047-.814-.1-1.308-.1-1.8-.012-2.65,0-5.307-.012-7.963-.071-14.155-10.667-24.834-24.828-24.846q-53.155-.054-106.316.005A24.354,24.354,0,0,0,4633,4631.234q-.035,41.513.006,83.026a28.553,28.553,0,0,0,.5,5.473,24.405,24.405,0,0,0,24.151,19.57c15.623.047,31.252.018,46.876.018,19.86-.006,39.728.036,59.588-.023a24.155,24.155,0,0,0,24.342-20.913c.529-3.66.22-7.44.309-11.16.019-.743.071-1.48.131-2.538,14.958,8.646,29.654,17.139,44.564,25.756V4615.331C4818.561,4623.942,4803.841,4632.452,4788.883,4641.093Zm-29.1,72.08q-24.826.009-49.64,0-24.514.009-49.028.012a5.937,5.937,0,0,1-4.386-1.42,5.293,5.293,0,0,1,2.8-9.128,12.938,12.938,0,0,1,1.984-.1h96.825c.511,0,1.022,0,1.533.012,3.316.095,5.628,2.359,5.563,5.443C4765.373,4711.027,4763.062,4713.172,4759.787,4713.172Zm1.242-74.077a7.921,7.921,0,1,1,7.921-7.868A7.918,7.918,0,0,1,4761.029,4639.1Z" transform="translate(-4632.981 -4606.456)" fill="#232323"/>
</svg>
