<svg xmlns="http://www.w3.org/2000/svg" width="145.392" height="215.426" viewBox="0 0 145.392 215.426">
  <g id="Group_2045" data-name="Group 2045" transform="translate(-1114.098 -5088.987)">
    <path id="Path_594" data-name="Path 594" d="M1256.745,5143.628h0a3.466,3.466,0,0,1-.235-2.152c.784-6.961-1.1-12.317-5.759-16.375a4.124,4.124,0,0,1-1.289-2.159c-1.183-6.584-4.962-11.225-11.551-14.187a4.2,4.2,0,0,1-2.031-1.831c-1.6-3.8-4.629-6.063-9.547-7.116a4.69,4.69,0,0,1-2.338-.933c-4.55-5.346-10.69-6.272-15.531-6.482a9.02,9.02,0,0,1-3.81-.965,15.172,15.172,0,0,0-11.621-1.411,5.825,5.825,0,0,1-2.96.176c-8.915-2.584-17.733-1.036-27.751,4.872a21.79,21.79,0,0,1-3.114,1.411c-.453.178-.92.361-1.378.555-7.673-.5-16.213,4.174-22.316,12.223a16.874,16.874,0,0,1-4.212,3.833c-5.653,3.694-8.265,7.789-8.467,13.275a4.815,4.815,0,0,1-1.522,2.694c-3.16,3.344-4.825,6.684-5.239,10.511a58.436,58.436,0,0,1-1.253,7.385,21.963,21.963,0,0,0,1.776,15.85,7.08,7.08,0,0,1,.529,4.01c-1.294,8.376.689,14.2,6.238,18.32a2.7,2.7,0,0,1,1.094,1.665c-.071,4.1,1.351,7.866,4.612,12.228,11.452,15.3,18.177,30.987,20.56,47.958.509,3.608,2.076,6.148,4.793,7.767a2.741,2.741,0,0,1,1.134,1.715c.282,2.056.431,4.169.576,6.214.04.568.08,1.136.123,1.7.1,1.3.185,2.632.269,3.917.138,2.113.28,4.3.48,6.444.092.969.119,1.979.144,2.955.1,3.906.208,7.946,4.378,10.88,2.775,1.956,5.43,4.2,8,6.361,1.316,1.11,2.677,2.259,4.042,3.358.566.456,1.133.964,1.682,1.457a16.078,16.078,0,0,0,4.653,3.286,20.464,20.464,0,0,0,7.438,1.374,25.256,25.256,0,0,0,7.6-1.236,13.278,13.278,0,0,0,3.96-2.406l.091-.071c2.931-2.282,5.579-4.443,8.1-6.61.744-.641,1.522-1.283,2.273-1.9a44.683,44.683,0,0,0,6.783-6.447c1.208-1.517,1.417-3.777,1.619-5.964.046-.5.09-.971.145-1.431.288-2.377.416-4.809.541-7.159.05-.944.1-1.92.163-2.877q.1-1.609.2-3.218c.166-2.784.339-5.663.609-8.48a2.734,2.734,0,0,1,1.2-1.685,11.283,11.283,0,0,0,4.759-7.358c.424-1.734.841-3.5,1.245-5.208,1.3-5.508,2.648-11.2,4.412-16.651,2.545-7.856,7.119-14.8,11.543-21.514,2.24-3.4,4.557-6.916,6.589-10.517a121.951,121.951,0,0,0,8.709-19.529,20.033,20.033,0,0,0,.6-7.35c-.043-1.1-.087-2.228-.053-3.3.016-.471,0-.949-.008-1.411a10.592,10.592,0,0,1,.155-2.7C1259.724,5154.593,1260.407,5148.98,1256.745,5143.628Zm-62.173,154.6a12.135,12.135,0,0,1-6.517,1.681c-3.13.08-6-.577-7.635-1.681Zm58.322-142.08c-.715.461-1.977.224-3.651-.685a11.247,11.247,0,0,0-3.554-1.382c-3.573-.561-5.808-1.547-6.665-4.922l-.93.151c.486,6.522.156,13.242-5.494,18.208h0c-4.873,4.285-10.861,6-18.305,5.25l-3.834-.387,3.627,1.3c5.572,2,11.036,1.355,17.2-2.036a11.021,11.021,0,0,1,3.288-.967c.39-.074.789-.149,1.185-.237.1.45.225.9.345,1.342a8.758,8.758,0,0,1,.5,3.613c-1.671,9.826-8.426,15.194-18.539,14.729-.491-.021-.984-.049-1.716-.09l-3.953-.217,2.362,1.046c.89.394,1.573.7,2.207.979l1.292.574c-.118.306-.227.606-.333.9a12.156,12.156,0,0,1-1.011,2.3c-1.637,2.622-5.108,4.872-9.286,6.02s-8.32,1-11.1-.4c-4.181-2.093-5.621-6-4.669-12.662l.632-4.423-1.544,4.193c-.194.527-.377,1.066-.554,1.588a27.669,27.669,0,0,1-1.377,3.524l-.117.237c-.56,1.131-1.326,2.682-2.2,2.965-7.781,2.537-14.119,1.628-19.376-2.779a16.912,16.912,0,0,1-2.507-2.88,26.809,26.809,0,0,0-2-2.456l-2.138-2.248,1.371,2.783c.208.422.408.865.6,1.292a19.848,19.848,0,0,0,1.5,2.883c2.148,3.238,1.953,4.383-1.094,6.451-.5.337-1.028.624-1.588.927a12.722,12.722,0,0,0-2.871,1.923l-1.911,1.825,2.426-1.049c.778-.336,1.585-.658,2.365-.968a40.437,40.437,0,0,0,5.078-2.3c2.254-1.275,4.394-1.537,6.189-.756s3.127,2.615,3.737,5.159c.547,2.294,2.1,4.3,3.779,6.315l1.832,2.2-1.026-2.673c-.259-.675-.544-1.351-.819-2.006a27.894,27.894,0,0,1-1.654-4.684,2.019,2.019,0,0,1,.208-1.594,3.327,3.327,0,0,1,2.227-1.187c5.22-1,9.726-1.027,14.752,2.083,5.672,3.515,12.311,2.48,19.732-3.077a16.927,16.927,0,0,0,2.178-2.075,15.1,15.1,0,0,1,2.165-2.043,35.171,35.171,0,0,1,7.4-4.455,3.755,3.755,0,0,1,3.392,0c1.005.6,1.646,1.887,1.852,3.707a12.557,12.557,0,0,1-3.829,10.808l-.389.393.448.323c.291.209.581.419.879.623l.383.262.269-.378c.387-.545.813-1.091,1.224-1.618a20.283,20.283,0,0,0,2.644-4.008c.476-1.052,1.534-3.753,1.069-6.093-1.058-5.433.576-10.191,2.306-15.229q.274-.8.545-1.6c1.689-5.022,4.005-7.641,8-9.041l-.266-.906c-.489.115-1,.219-1.485.318a21.894,21.894,0,0,0-3.392.883c-1.086.413-1.943.429-2.412.045a2.189,2.189,0,0,1-.428-2.08,67.092,67.092,0,0,1,2.708-10.518,3.7,3.7,0,0,1,2.565-.928c6.3.192,10.559,4.856,10.368,11.343-.2,7.134-3.058,11.4-8.983,13.439l-1.985.681,2.085.236c2.072.235,3.275.732,3.675,1.52.365.719.124,1.8-.738,3.315-3.132,5.48-7.029,12.3-11.292,18.45a86.753,86.753,0,0,0-14.043,34.829,53.023,53.023,0,0,1-1.511,6.082,8.129,8.129,0,0,1-6.232,6.021c-12.135,3.055-25.42,3.8-40.616,2.28a94.951,94.951,0,0,1-9.511-1.61c-1.271-.26-2.585-.529-3.882-.771a7.653,7.653,0,0,1-6.451-6.124c-.6-2.41-1.163-4.875-1.709-7.257-.527-2.3-1.071-4.675-1.646-7a70.141,70.141,0,0,0-9.474-22.106c-3.293-5-6.176-9.495-8.814-13.756a25.671,25.671,0,0,1-2.224-4.72l-.009-.026c-.725-1.957-1.41-3.806.543-5.154a4.653,4.653,0,0,1,2.665-.912,5.42,5.42,0,0,1,3.306,1.317l1.153.894-.409-1.4c-.932-3.2-3.706-3.765-6.021-3.9-4.747-.271-7.891-2.739-9.346-7.336-1.193-3.76-.756-6.594,1.375-8.92,2.154-2.357,4.967-2.942,9.118-1.9a18.709,18.709,0,0,1,3.866,1.643c.6.307,1.214.624,1.846.915l.671.309v-.738c0-.846-.014-1.713-.027-2.551-.029-1.814-.058-3.69.046-5.527.428-7.225,4.967-11.717,11.844-11.724h.018c5.717,0,8.9,2.988,9.22,8.641.09,1.667.043,3.378,0,5.034-.042,1.518-.085,3.088-.024,4.636.292,7.327,3.341,10.764,10.525,11.863a3.577,3.577,0,0,1,3.4,3.112c.952,3.958,3.108,6.745,6.068,7.851l1.116.417-.526-1.069c-.349-.708-.72-1.417-1.112-2.169a43.932,43.932,0,0,1-2.813-6.133,3.874,3.874,0,0,1,1.367-3.223c5.277-3.075,8.414-7.979,9.591-14.994.338-2.044,1.058-2.784,2.853-2.934a21.622,21.622,0,0,0,11.58-4.477c.808-.608,2.958-.172,3.663-.028a13.807,13.807,0,0,0,14.911-6.532l1.03-1.754-1.7,1.119c-8.238,5.432-13.171,6.082-16.494,2.173-3.24-3.806-2.173-8.731,3.172-14.64l1.678-1.855-2.24,1.114c-4.038,2.009-6.115,4.761-6.535,8.659a33.62,33.62,0,0,0-.02,5.271c.024.488.047.975.065,1.46a7.1,7.1,0,0,1-3.156,6.039,6.818,6.818,0,0,1-6.492.856c-1.1-.447-2.014-2.274-2.315-2.874-.425-.849-.823-1.737-1.209-2.6a42.159,42.159,0,0,0-2.3-4.608l-.829.454a24.417,24.417,0,0,1,1.518,17.746c-1.67,6.247-6.583,10.54-12.225,10.683-5.906.141-9.535-2.947-10.2-8.7a40.693,40.693,0,0,1-.142-5.432c.019-1.042.039-2.119.012-3.179-.1-4.089-.943-8.5-6.133-10.682,5.893-2.612,8.638-7.351,10.544-11.7.255-.579,1.127-1.015,1.969-1.437.222-.111.448-.225.669-.343.043.217.092.433.139.645a4.333,4.333,0,0,1,.146,2.325c-2.322,5.788-.96,11.059.858,15.894a48.384,48.384,0,0,1,1.778,6.593c.273,1.225.554,2.492.9,3.873l.932,3.733v-3.849c0-.9.037-1.7.073-2.476a15.2,15.2,0,0,0-.159-4.108,45.1,45.1,0,0,0-1.616-5.05c-.416-1.144-.847-2.328-1.2-3.5-1.141-3.819-1.062-6.723.243-8.875,1.3-2.136,3.8-3.536,7.66-4.279,4.064-.783,8.409-2.329,9.812-7.852l.888-3.495-1.759,3.147c-2.566,4.591-6.67,6.76-12.2,6.442a14.729,14.729,0,0,1-11.511-6.106h.29l-.745-.718c-.182-.727-.319-1.318-.43-1.86-.053-.237-.1-.468-.145-.7-.095-.467-.169-.927-.23-1.315a15.245,15.245,0,0,1-.166-4.229,8.466,8.466,0,0,1,.245-1.2c.021-.07.045-.14.068-.207s.039-.117.052-.157a6.177,6.177,0,0,1,.428-.943,5.561,5.561,0,0,1,.591-.845,6.51,6.51,0,0,1,1.09-1.058,10.534,10.534,0,0,1,.922-.629c.386-.23.812-.456,1.3-.687.313-.147.648-.292.995-.429a40.282,40.282,0,0,1,5.112-1.558,29.493,29.493,0,0,0,8.332-3.349l2.575-1.558-2.929.692c-.948.223-1.909.462-2.839.693-2.04.507-4.149,1.03-6.236,1.428-2.5.475-6.236-1.8-6.775-4.126a2.958,2.958,0,0,1,.8-1.9c4.322-5.4,16.7-8.042,22.837-4.874,3.35,1.731,4.539,5.983,2.958,10.58-1.456,4.236-5.073,6.411-8.653,8.275l-2.223,1.158,2.492-.268a12.669,12.669,0,0,0,9.591-5.967,14.965,14.965,0,0,0,1.231-12.835c1.99-1.584,4.122-1.474,7.062.343a6.062,6.062,0,0,1,2.677,7.259,21.514,21.514,0,0,1-3.772,6.012c-3.4,3.859-4.162,7.82-2.414,12.467,1.373,3.669.672,7.447-2.206,11.887l-.308.476.523.218.469.192c.164.066.329.133.493.2l.423.176.19-.417c.319-.7.674-1.41,1.017-2.1a28.056,28.056,0,0,0,2.069-4.876,4.743,4.743,0,0,1,3.778-3.838,23.952,23.952,0,0,0,2.653-.857c.688-.252,1.4-.514,2.108-.711,2.971-.825,5.317-.91,7.115,1.362a7.368,7.368,0,0,1,.389,8.54c-.281.457-.6.89-.931,1.349a15.6,15.6,0,0,0-1.518,2.381l-.832,1.713,1.537-1.125c.166-.121.337-.237.508-.353a8.093,8.093,0,0,0,1.168-.9c2.778-2.729,5.484-3.277,8.515-1.727a9.6,9.6,0,0,1,5.277,9.08,12.029,12.029,0,0,1-4.746,9.12c-.727.549-1.427,1.151-2.1,1.734a27.939,27.939,0,0,1-3.068,2.4,4.485,4.485,0,0,1-2.917.413c-9.843-1.712-18.421,2.889-21.854,11.723-2.863,7.359-2.863,7.359-10.689,9.227l.161.931c.686-.074,1.394-.127,2.079-.178a27.647,27.647,0,0,0,4.83-.649c1.884-.48,2.964-.065,4.281,1.642a20.7,20.7,0,0,0,5.227,4.748c3.338,2.11,3.654,2.472,2.13,6.349l-.017.045a3.127,3.127,0,0,0-.211,1.97l.335,1.624.572-1.556c1.715-4.668,5.267-7.577,10.858-8.891l.651-.153-1.054-1.645-.341.1q-.272.081-.544.16c-.445.13-.9.264-1.352.413-5.215,1.7-9.11,1.025-12.257-2.11-2.952-2.946-3.581-6.763-1.98-12.01a14.263,14.263,0,0,1,14.145-9.691c3.765.2,5.08,1.526,5.631,5.678l.45,3.394.487-3.388c.664-4.613,3.568-6.911,6.485-8.87,6.331-4.256,8.493-9.294,6.8-15.855a11.132,11.132,0,0,0-7.607-8.346,6.541,6.541,0,0,1-4.94-5c-.817-2.878-2.112-4.775-3.957-5.8-1.9-1.054-4.307-1.136-7.36-.254a12.408,12.408,0,0,0-1.289.472,5.37,5.37,0,0,1-2.065.566c-.2,0-.4,0-.616,0-1.6,0-3.781-.011-4.363-.79-.951-1.269-1-3.862-.442-5.4a14.825,14.825,0,0,1,3.35-4.609c.24-.257.478-.512.711-.767,1.952-2.139,4-4.725,3.535-8.351-.219-1.73.722-2.281,2.654-2.741a8.988,8.988,0,0,1,7.836,1.767,9.2,9.2,0,0,1,3.337,7.514c-.032.975-.154,1.975-.271,2.942a28.3,28.3,0,0,0-.284,3.722c.047,3.513,1.359,6.266,3.693,7.75,2.4,1.525,5.563,1.532,8.91.019l.66-.3-.538-.484a1.294,1.294,0,0,1-.092-.1.8.8,0,0,0-.676-.359c-3.625.447-6.1-.009-7.555-1.394-1.483-1.409-2.074-3.927-1.806-7.7l.025-.372c.065-.975.132-1.982.157-2.983.041-1.78.586-3.056,1.5-3.5.821-.4,1.951-.116,3.181.8a16.006,16.006,0,0,1,3.582,4.536c.58.931,1.18,1.893,1.889,2.884l.124.173.212.022c6.669.693,10.417,5.59,9.782,12.78-.411,4.631-3.4,6.653-9.4,6.372l-1.851-.087,1.583.964c4.1,2.5,8.045,1.186,12.035-4.02,4.279,1.918,5.931,5.813,5.041,11.885l-1.58-.309c-1.678-.329-3.283-.643-4.615-.9l-2.491-.481,2.151,1.346c.614.385,1.286.733,2,1.1a12.507,12.507,0,0,1,4.3,3.033c1.726,2.271,2.205,5.637,2.337,7.439C1253.87,5154.55,1253.576,5155.708,1252.894,5156.147Zm-38.354,100.747-.017.018a1.494,1.494,0,0,1-.165.159,3.048,3.048,0,0,1-.278.22l-.122.08a4.134,4.134,0,0,1-.7.375,7.124,7.124,0,0,1-.789.294l-.364.111c-1.483.451-3.016.918-4.531,1.35-1.042.292-2.16.6-3.272.87l-.294.068c-.453.1-.9.207-1.353.3-.542.111-1.1.218-1.654.319s-1.1.185-1.648.257a98.275,98.275,0,0,1-21.372.646c-.795-.062-1.613-.145-2.505-.252-1.09-.12-2.276-.283-3.623-.5-.642-.106-1.293-.22-1.934-.339a3.01,3.01,0,0,0-1.91.3l-.079.043-.6.621.752.22c.437.127.881.249,1.323.369s.874.242,1.317.356c.38.1.765.194,1.146.287l.171.042c1.312.321,2.643.606,3.957.848l.251.046c.357.065.711.129,1.065.188.776.131,1.588.253,2.632.4.38.054.77.1,1.154.142.1.012.2.021.293.031l.23.023h.018l.221.024q.441.047.881.089l.28.029c.125.014.251.027.376.038l.136.008c.264.021.528.04.789.057l.135.01.175.014.042,0c.059.006.119.012.177.015h.031a.425.425,0,0,1,.06,0l.04,0c.232.013.47.026.7.034.127.013.259.02.393.021.115.006.231.01.346.013l.263.009.423.015.941.024c.682.014,1.368.012,2.053,0l.092.087.216-.092.2-.008.238-.008q.649-.017,1.3-.045c.07,0,.139,0,.209-.007.091,0,.181-.005.253-.009h.025c.1-.005.2-.013.293-.021l.231-.016q.644-.039,1.289-.09c.072-.006.145-.01.217-.015.088-.006.176-.011.264-.019l.027,0c.112-.009.224-.021.335-.034l.241-.025q.571-.056,1.141-.12l.249-.026c.116-.011.232-.022.348-.037.357-.042.709-.091,1.065-.141l.1-.014c.517-.074,1.034-.154,1.546-.235,1.025-.167,2.065-.365,3.088-.585.959-.2,1.97-.441,3.092-.734a72.656,72.656,0,0,0,7.383-2.387c1.376,1.707,1.291,2.465.7,3.109a3.067,3.067,0,0,1-.311.287,8.131,8.131,0,0,1-1.843,1.056c-.716.319-1.449.62-2.241.918-.668.254-1.385.5-2.19.758l-.075.021c-.978.307-2.006.589-3.052.839-.782.181-1.568.349-2.335.5a68.832,68.832,0,0,1-10.253,1.1l-.8.027-.809.026c-1,.031-2.04.046-3.187.046-2.2.007-4.593-.091-7.516-.306-.837-.06-1.679-.127-2.507-.2-1.268-.106-2.544-.22-3.849-.34-.765-.065-1.535-.135-2.31-.205l-.316-.028c-1.275-.11-2.638-.226-4.049-.329h-3.106l2.9.923c1.268.4,2.444.751,3.6,1.062.128.035.255.067.383.1l.257.066c1.083.284,2.041.518,2.931.715,1.012.223,1.94.412,2.836.579.933.173,1.882.329,2.819.464,1.438.207,2.851.367,4.2.478,1,.086,1.908.143,2.788.175a65.577,65.577,0,0,0,26.939-4.556,3.38,3.38,0,0,1,1.22,2.334,1.573,1.573,0,0,1-.822,1.129,3.859,3.859,0,0,1-.423.241,4.318,4.318,0,0,1-.507.219c-.207.08-.408.147-.618.208-6.335,1.878-12.53,3.6-18.668,3.992a157.027,157.027,0,0,1-17.4-.166l-.472-.022c-1.9-.093-4.4-.208-6.873-.274h-3.032l2.86.923c.373.121.793.256,1.211.377l.3.118.022-.021c.358.112.7.21.982.287l1.257.341c.925.246,1.75.447,2.518.613.789.177,1.615.345,2.524.512.93.171,1.759.306,2.53.41.7.1,1.4.19,2.09.263.6.065,1.228.121,1.955.176v0h.018l.158.01h.011l.141.008c.536.039,1.021.069,1.486.092l.405.016c.511.022,1.033.038,1.552.047l.591.009c.393.007.787,0,1.179,0l.579-.008c.083,0,.165,0,.249,0,.448-.007.9-.027,1.316-.047h.041c.277-.012.553-.03.835-.049l.143-.005c.131-.008.262-.019.393-.03l.271-.021.032,0,.087-.006.3-.023.363-.03.031,0,.182-.014.23-.018c.244-.02.482-.046.739-.075l.526-.057h0l.192-.02c.157-.016.315-.032.476-.051.38-.049.765-.1,1.143-.157l.1-.013-.064-.469h0l.089.465c.232-.029.461-.064.667-.1l.234-.039.182-.031c.4-.063.795-.128,1.191-.2.291-.052.582-.108.873-.165l.081-.016c.341-.067.682-.134,1.025-.207l.127-.025.156-.032c.232-.047.464-.1.684-.154l.127-.03.086-.02c.249-.059.5-.116.748-.177l.182-.042c.042-.009.084-.018.131-.033.539-.132,1.025-.256,1.489-.381.483-.134.966-.268,1.454-.411l1.123-.343c.166-.053.332-.106.5-.166.136-.037.272-.079.385-.122l.056-.019c.217-.072.435-.146.652-.22l.209-.07c.056-.018.112-.037.169-.057l.082-.026.429-.154.431-.154c.153-.055.306-.109.459-.165.53-.194.99-.368,1.419-.535q.118.171.226.35a4.027,4.027,0,0,1,.416.868,1.692,1.692,0,0,1-.391,1.933,4.839,4.839,0,0,1-1.888,1.046c-1.729.592-3.479,1.141-5.2,1.629-.887.249-1.7.463-2.493.658-1.2.3-2.445.576-3.695.817-.587.119-1.182.226-1.781.319-.29.053-.587.1-.881.144a76.59,76.59,0,0,1-29-1.176.937.937,0,0,0-.415.012l-.032.008c-.067.02-.147.047-.247.083l-.161.057-.079.029c-.027.009-.055.021-.087.029l-.033.01c-.13.045-.281.1-.463.156l-1.391.447,1.389.453c1.162.38,2.119.677,3.009.934,1.009.291,2.015.563,2.99.807l.062.013c.861.215,1.777.426,2.878.66l.063.013c1.045.208,2,.384,2.915.537l.087.013c1.1.175,2,.3,2.855.4l.069.007c1.08.122,1.982.207,2.832.268a.786.786,0,0,0,.117.009c.936.067,1.881.114,2.825.141l.014,0,.083.009c.88.019,1.793.021,2.791.007h.031l.035-.006h.032a.246.246,0,0,0,.033,0c.913-.02,1.84-.061,2.754-.121l.036,0a.854.854,0,0,1,.093-.009h.035c1.011-.075,1.894-.159,2.689-.254.047,0,.092-.011.136-.017.025,0,.05-.008.084-.011.828-.1,1.693-.225,2.644-.376l.033-.007c.07-.016.139-.026.209-.037l.025,0c.849-.147,1.712-.317,2.548-.5.122-.021.244-.05.359-.077.884-.194,1.745-.415,2.491-.611.148-.041.3-.081.427-.124.877-.242,1.645-.471,2.34-.7.2-.061.393-.123.6-.19.691-.23,1.4-.481,2.172-.767l.386-.146c.125-.048.25-.1.383-.145.659-.256,1.3-.52,1.893-.769,0,.039.009.078.013.119a4.4,4.4,0,0,1,.036.549,2.715,2.715,0,0,1-.062.624,1.648,1.648,0,0,1-.12.353,1.846,1.846,0,0,1-.442.609,3.892,3.892,0,0,1-.632.449,3.792,3.792,0,0,1-.465.239l-.1.04c-.2.09-.437.179-.707.272-2.869.952-6.653,2.166-10.482,3.1-2.26.553-4.351.972-6.393,1.281-7.436,1.118-15.457.5-25.244-1.936l-1.386-.346a4.881,4.881,0,0,0-.386-.453,3.176,3.176,0,0,0-.354-.319,17.592,17.592,0,0,1-1.664-1.384c-.162-.156-.324-.312-.473-.467a10.807,10.807,0,0,1-.816-.943,8.574,8.574,0,0,1-1.154-1.977,7.518,7.518,0,0,1-.311-.921h0c-.01-.045-.021-.091-.032-.135h0a9.078,9.078,0,0,1-.189-1.01c-.006-.047-.013-.094-.02-.141-.009-.064-.019-.128-.025-.2s-.011-.167-.015-.251l-.011-.213c-.008-.143-.016-.285-.017-.432,0-.22,0-.451.018-.709.005-.105.015-.214.024-.324l.007-.08c.012-.141.025-.284.042-.427s.032-.271.05-.406c.015-.1.032-.208.05-.312l.034-.2c.016-.1.033-.2.052-.3.022-.12.049-.246.075-.373l.043-.207.012-.058.008-.036c.017-.079.033-.159.051-.238.012-.054.024-.109.038-.164l.009-.036.024-.065.013-.04a.857.857,0,0,0,.06-.383l-.63-5.286q-.307-2.574-.62-5.148a2.949,2.949,0,0,0-.187-.651,2.707,2.707,0,0,1-.116-.356c1.4-2.278.641-4.313-.1-6.281-.158-.422-.321-.858-.453-1.273a1.574,1.574,0,0,1,.067-.419c0-.01.005-.021.008-.032,1.039.243,2.073.468,3.078.673,1.78.37,3.577.7,5.338.985,1.717.286,3.512.539,5.335.752l.032,0a120.626,120.626,0,0,0,19.282.728,1.618,1.618,0,0,0,.184-.008l1.265-.059.421-.026.348-.022q.43-.025.86-.053l.225-.014.317-.02c.135-.007.271-.021.394-.034l.635-.05c1.981-.159,3.922-.362,5.77-.6,1.263-.163,2.391-.323,3.448-.491,2.75-.43,5.508-.955,8.2-1.561.016.065.029.125.038.184a2.2,2.2,0,0,1-.19,1.5A2.168,2.168,0,0,1,1214.54,5256.894Zm-21.357,36.514c-.667.084-1.352.158-2.035.217-.069,0-.134.007-.207.015l-1.062.08h-.026c-.443.027-.861.052-1.289.058h-.031c-.152.012-.308.019-.479.019-.411.013-.834.02-1.254.02-1.07,0-2.042-.03-2.972-.093-.886-.053-1.781-.139-2.658-.258l-.039,0a36.68,36.68,0,0,1-3.879-.721l-.1-.024-.7-.177c-.479-.121-.983-.267-1.547-.447-.257-.079-.514-.165-.769-.25a18.6,18.6,0,0,1-4.455-2.5c6.81,3.237,14.466,4.319,23.9,3.4,1.43-.142,2.873-.356,4.269-.564.736-.11,1.475-.219,2.214-.319.264-.035.531-.069.8-.1a43.368,43.368,0,0,1-5.522,1.343C1194.492,5293.236,1193.807,5293.333,1193.183,5293.408Zm-62.725-139.457,2.164-.063-1.993-.845c-6.969-2.957-9.908-7.075-9.251-12.958a10.969,10.969,0,0,1,8.595-9.788c-.087.375-.178.745-.267,1.108a24.487,24.487,0,0,0-.756,4.021,14.855,14.855,0,0,0,.818,5.682l.807,2.458.115-2.584c.03-.671.031-1.355.032-2.016a20.646,20.646,0,0,1,.292-4.215,13.617,13.617,0,0,1,13.245-10.692,3.234,3.234,0,0,1,2.514.637,2.986,2.986,0,0,1,.436,2.337,11.028,11.028,0,0,0,1.5,6.278l1.131,2.117-.244-2.388c-.042-.415-.094-.829-.147-1.242a23.3,23.3,0,0,1-.232-2.638c-.065-5.781,2.564-9.52,8.037-11.431,1.6-.561,2.46-.673,2.973-.388s.864,1.063,1.241,2.766a18.45,18.45,0,0,0,1.073,3.054l.473,1.324c.028.079.054.158.081.237l0,.183h.06a14.633,14.633,0,0,1-2.068,13.956,12.708,12.708,0,0,1-14.259,4.755c-4.3-1.531-6.166-4.725-5.881-10.055l-.931-.142c-1.278,5,.214,8.813,4.434,11.355-.6.655-1.234,1.3-1.852,1.928a25.431,25.431,0,0,0-4.669,5.762,24.255,24.255,0,0,0-2,7.04c-.149.835-.29,1.631-.458,2.383-.718-.023-1.458-.044-2.213-.064-2.563-.072-5.214-.146-7.9-.324a4.5,4.5,0,0,1-2.338-1.062c-3.755-3.09-4.9-7.859-3.287-13.514C1122.276,5151.849,1125.7,5154.088,1130.458,5153.951Zm22.967-44.493c-.058-.169-.117-.338-.169-.506l-.129-.417-.426.095c-3,.666-5.993,1.332-9.258,2.055a14.99,14.99,0,0,1,8.638-7.983c3.92-1.555,7.885-1.548,10.6.017a4.937,4.937,0,0,1,2.7,3.256,4.242,4.242,0,0,1-1.215,3.455,29.743,29.743,0,0,1-5.148,4.344c-.376.273-.752.544-1.123.818-2.822,2.083-5.484,3.9-8.138,5.567a6.7,6.7,0,0,1-3.124.964,23.976,23.976,0,0,0-12.64,4.324c-1.194.808-3.536,1.327-4.469.755-1.66-1-.866-2.619.344-4.625l0,0c2.313-3.824,6.129-5.561,9.907-6.868,3.165-1.088,6.382-2.211,9.493-3.3l3.861-1.347.446-.155Z" fill="#04040d"/>
    <path id="Path_595" data-name="Path 595" d="M1208.293,5393.073c1.8-4.752,1.757-8.442-.139-11.967l-1.482-2.754.6,3.069a13.888,13.888,0,0,1-4.239,13.392c-3.373,2.842-8,3.447-12.691,1.66l-2.007-.765,1.5,1.537c2.845,2.915,6.17,3.373,11.476,1.581,2.125-.716,3.505-.789,4.345-.231.744.5,1.165,1.574,1.288,3.3a21.928,21.928,0,0,1-1.928,9.892c-1.294,3.021-4.249,4.974-8.32,5.5l-2.114.271,2.03.647a4.311,4.311,0,0,0,1.937.251c2.886-.422,4.393.649,4.885,3.476a11.46,11.46,0,0,0,1.019,2.816c.181.388.367.79.525,1.182l.134.333.357-.04c.165-.018.327-.038.489-.059l.4-.048.7-.081-.343-.619c-2.639-4.76-1.386-8.81,1.305-13.426,2.955-5.079,2.984-10.15.086-15.072C1207.608,5396.056,1207.821,5394.332,1208.293,5393.073Z" transform="translate(-56.679 -220.924)" fill="#04040d"/>
  </g>
</svg>
