<svg xmlns="http://www.w3.org/2000/svg" width="382.869" height="377.5" viewBox="0 0 382.869 377.5">
  <g id="Group_2237" data-name="Group 2237" transform="translate(-8003.857 -6099.085)">
    <path id="Path_1215" data-name="Path 1215" d="M8306.4,6457.554c-60.143,82.732-169.41,88.345-237.761,34.563-81.527-64.147-82.806-176.52-22.28-243.351,66.965-73.937,174.5-70.763,238.011-11.239q-11.5,11.371-23.024,22.774c-30.771-26.665-66.522-38.689-107.254-33.64-37.682,4.675-68.268,22.645-90.978,53.01a134.5,134.5,0,1,0,211.748-4.971q11.309-11.5,22.613-23.005C8340.28,6298.182,8358.089,6386.453,8306.4,6457.554Z" transform="translate(0 -50.559)" fill="#432a00"/>
    <path id="Path_1216" data-name="Path 1216" d="M8313.041,6512.047a105.13,105.13,0,0,1-142.265-154.8c42.949-40.283,105.007-35.376,141.193-2.564-8.592,8.51-17.185,17.019-25.5,25.246-5.155-2.952-10.312-6.522-15.942-9a66.51,66.51,0,0,0-48.8-2.477c-16.843,5.46-29.561,16.039-38.477,31.159A65,65,0,0,0,8174.8,6425c-1.867,15.332.8,29.769,8.583,43.04,10.148,17.314,25.153,28.462,44.786,32.786,16.252,3.576,32.07,1.612,46.773-6.32,16.77-9.045,28.259-22.7,33.682-41.114,5.872-19.938,3.076-38.758-7.729-56.433-.665-1.085-1.062-1.852.069-2.975,7.987-7.895,15.91-15.854,23.855-23.795.269-.269.568-.5.984-.874C8358.188,6410.1,8356.248,6473.229,8313.041,6512.047Z" transform="translate(-72.003 -123.461)" fill="#432a00"/>
    <path id="Path_1217" data-name="Path 1217" d="M8505.049,6151.5a21.041,21.041,0,0,1-4.223,6.957q-28.126,28.4-56.483,56.571-16.214,16.194-32.467,32.342-30.829,30.843-61.606,61.732c2.129,5.451,4.435,10.306,5.932,15.4,3.021,10.288,1.783,20.4-2.536,30.124a46.069,46.069,0,0,1-55.2,25.413c-13.166-3.977-22.812-12.2-28.679-24.562a44.829,44.829,0,0,1-1.548-35.825,44,44,0,0,1,19.467-23.5c13.572-7.923,27.889-9.147,42.39-2.578,3.931,1.779,7.451,4.49,11.068,6.911,1.063.707,1.71.711,2.563-.152q10.562-10.636,21.154-21.236,8.065-8.073,16.145-16.118,16.465-16.457,32.925-32.919,13.686-13.679,27.371-27.366c8.9-8.921,17.739-17.892,26.654-26.794,8.639-8.629,17.292-17.245,26.055-25.745a15.778,15.778,0,0,1,5.6-3.483,5.6,5.6,0,0,1,4.643.522C8505.164,6147.922,8505.534,6150.292,8505.049,6151.5Z" transform="translate(-140.631 -25.458)" fill="#432a00"/>
    <path id="Path_1218" data-name="Path 1218" d="M8755.135,6183c-3.03,3.081-5.84,5.978-8.686,8.832q-10.746,10.762-21.526,21.5c-2.015,2-4.02,4.024-6.062,6a1.952,1.952,0,0,1-1.187.559q-14.385.042-28.775.023c-.105-.3-.212-.6-.318-.91,2.744-2.67,5.507-5.326,8.228-8.024q13.166-13.048,26.3-26.133c2.02-2,3.979-4.065,6.057-6a2.906,2.906,0,0,1,2.134-.809c7.6,1.483,15.181,3.077,22.761,4.647C8754.331,6182.731,8754.59,6182.833,8755.135,6183Z" transform="translate(-368.409 -42.463)" fill="#432a00"/>
    <path id="Path_1219" data-name="Path 1219" d="M8703.979,6124.867q-16.852,16.879-33.764,33.686c-2.219,2.213-4.426,4.431-6.645,6.644-.193-.079-.388-.162-.581-.245q0-7.927,0-15.859c-.01-4-.1-8-.01-12a4.162,4.162,0,0,1,1.026-2.61q17.476-17.539,35.054-34.975a4.154,4.154,0,0,1,.748-.42c1.7,8.034,3.4,15.942,5,23.874A2.621,2.621,0,0,1,8703.979,6124.867Z" transform="translate(-354.612)" fill="#432a00"/>
  </g>
</svg>
