<svg xmlns="http://www.w3.org/2000/svg" width="460.409" height="132.848" viewBox="0 0 460.409 132.848">
  <path id="Path_1960" data-name="Path 1960" d="M7278.41,4448.18v132.848h460.234c.044-.46.109-.875.175-1.334Q7509.1,4514.1,7278.41,4448.18Zm7.124,10.381q6.687,1.9,13.287,3.78,6.621,1.868,13.177,3.737,18.391,5.21,36.387,10.313,10.326,2.918,20.563,5.835c-21.021,20.936-41.806,41.632-62.609,62.349q-10.392,10.392-20.8,20.738Zm88.834,114.249h-79.415l.022-.021q4.852-4.885,9.768-9.77l19.734-19.733,9.943-9.943q19.931-19.9,39.947-39.927Zm7.5.2v-80.945q39.894,40.288,80.137,80.945Zm90.081-17.7c-.022,3.846-.022,7.714-.022,11.582-3.256-3.257-6.469-6.491-9.7-9.726v-.021q-19.308-19.506-38.331-38.615-14.26-14.392-28.366-28.607c5.813,1.64,11.648,3.3,17.548,4.983,2.93.83,5.9,1.66,8.852,2.513q11.114,3.18,22.334,6.4c4.48,1.289,8.982,2.578,13.462,3.912,2.994.9,5.988,1.771,8.981,2.666a.164.164,0,0,0,.11.022c.021,0,.043,0,.087.043a2.91,2.91,0,0,1,.393.153,4.757,4.757,0,0,1,.656.35c.2.131.393.262.568.393a5.888,5.888,0,0,1,.7.59c.218.2.437.415.655.656.153.176.328.372.459.547a4.647,4.647,0,0,1,.415.567c.132.175.219.328.328.5.109.219.219.438.306.656a2.64,2.64,0,0,1,.2.546c.022.088.044.174.066.284a2.186,2.186,0,0,1,.044.371q.163,7.147.219,14.292C7471.989,4538.675,7471.967,4546.979,7471.945,4555.306Zm6.512,10.293v-51.989c1.792.523,3.584,1.026,5.354,1.529,1.793.5,3.541,1,5.289,1.507,6.993,1.989,13.789,3.912,20.477,5.836,3.344.918,6.666,1.88,9.986,2.819v.021h-.021q-13.276,13.046-26.006,25.481-5.082,5.014-10.1,9.9C7481.779,4562.342,7480.118,4563.981,7478.457,4565.6Zm46.154,7.474h-37.675c12.609-12.369,25.307-24.825,37.675-36.889Zm44.734-.656h-36.8v-37.981l.174.176q6.949,7.178,13.769,14.227,6.949,7.146,13.746,14.183,4.554,4.689,9.09,9.375h.022Zm9.682-7.518c-1.29-1.268-2.6-2.557-3.891-3.846-3.934-3.868-7.955-7.823-12-11.823-2.71-2.644-5.42-5.332-8.13-8l-8.151-8.021c4.131,1.181,8.414,2.4,12.806,3.649,3.234.919,6.535,1.857,9.878,2.819,3.146.875,6.316,1.793,9.485,2.688Zm7.232-20.346c6.01,1.683,11.583,3.278,18.619,5.246-6.773,6.992-12,12.391-18.619,19.187Zm7.911,27.907c6.054-5.879,12.348-11.976,19.21-18.663,5.594,5.421,11.539,11.212,19.209,18.663Zm48.059-.758-14.4-15.3q13.333,3.772,26.687,7.567,18.321,5.206,36.58,10.436Q7666.66,4573.049,7642.229,4571.7Z" transform="translate(-7278.41 -4448.179)" fill="#293213"/>
</svg>
