<svg id="Group_2282" data-name="Group 2282" xmlns="http://www.w3.org/2000/svg" width="396.442" height="168.153" viewBox="0 0 396.442 168.153">
  <path id="Path_1340" data-name="Path 1340" d="M4226.292,5004.225c2.438-8.66,1.12-16.69-3.59-24.334-2.96-4.793-6.331-9.368-7.683-15.075-.663-2.8-3.475-3.887-6.119-3.668-2.245.187-4.484,1.126-5,4-.367,2.059,2.2,5.585,5.16,7,1.087.521,2.451,1.178,2.921,2.143a55.371,55.371,0,0,1,4.156,10.076c1.847,7.013,4.742,14.258-1.621,20.719-1.711-2.49-3.358-5.064-2.2-8.635.611-1.879-.148-3.526-2.291-4.3-1.39-.5-3.2-.933-3.918-2.007-1.705-2.567-3.578-4.511-6.756-5.013-.431-.07-.823-1.036-1.055-1.647-1.66-4.33.688-7.823,2.844-11.523-2.007-1.164-3.732-2.187-5.482-3.165-2.091-1.178-4.543-1.223-5.843.579-.978,1.358-1.042,3.771-.727,5.572.393,2.264,1.557,4.407,2.439,6.583,1.029,2.548.5,4.124-2.13,5.591-2.9,1.615-4.948,4.214-4.047,8.062.694,2.947,1.229,5.933,1.866,9.073-1.7-.457-3.1-.959-4.549-1.2-2.065-.341-5.533-4.626-5.147-6.691,1.95-10.32,1.5-20.628.2-30.981-.437-3.506-2.767-4.62-7.1-4.645-2.316-.013-3.513,2.329-3.1,5.668.218,1.8.784,3.564.971,5.366a32.6,32.6,0,0,1-.251,4.594c-4.556-5.8-9.632-5.321-14.677-3.282-1-2.792-1.9-5.334-2.792-7.817-5.179.386-6.717,2.014-4.979,6.544,1.5,3.905.373,6.769-1.583,9.825-1.9,2.979-3.584,6.113-5.643,8.976-1.2,1.667-2.947,2.941-5.025,4.942a13.434,13.434,0,0,1,.013-2.021q4.112-15.52,8.268-31.02a8.78,8.78,0,0,1,1.313-2.483c2.445-3.629,4.929-7.226,7.631-11.177-1.583.8-2.908,1.486-4.414,2.246.5-2.5.939-4.729,1.377-6.962-.251-.045-.5-.09-.753-.142-.521.914-1.042,1.821-1.737,3.037.3-2.014.541-3.667.778-5.321-.264-.071-.534-.142-.8-.219-1.036,1.975-2.078,3.951-3.307,6.286-.187-2.162-.328-3.828-.527-6.189-2.419,3.712-.579,8.068-3.951,10.642-.958-1.6-1.769-2.966-2.586-4.33a7.285,7.285,0,0,0,.077,3.989c.656,2.664,2.419,5.585,1.827,7.921-1.718,6.743-4.375,13.248-6.872,20.435-3.905-11.819-11.453-11.369-19.405-6.846,1.924-8.873,4.176-17.521.527-26.464l-5.906,1.126c-.837-2.252-1.782-4.8-2.735-7.348-.412.1-.823.212-1.235.321.367,2.574.727,5.154,1.107,7.856l-4.362-3.867c-.3.283-.6.572-.908.862,2.632,3.41,5.2,6.885,7.94,10.211,1.178,1.435,2.715,2.638,1.763,4.723-2.29,5.019-4.665,10-7.071,15.14-3.545-8.12-6.376-15.988-10.333-23.24-3.043-5.585-4.7-10.835-2.188-16.974-.264-.18-.528-.354-.791-.534l-4.311,4.465c-1.686-2.593-3.23-4.961-4.768-7.335-.174.058-.347.115-.514.18.283,1.5.573,3,.927,4.877l-4.092-3.906c-.174.167-.347.335-.521.5.4,1.12.8,2.246,1.287,3.623l-2.406-1.261c-.135.142-.264.283-.392.431,1.216,1.635,2.438,3.262,4.015,5.379h-5a7.216,7.216,0,0,0,2.735,1.255,13.57,13.57,0,0,1,8.474,6.942c2.3,4.826,4.1,9.883,6.087,14.856a24.641,24.641,0,0,1,.7,2.567c-2.664,0-4.91-.013-7.155.007a47.814,47.814,0,0,1-6.5.013c-.9-.116-2.342-1.352-2.342-2.085,0-2.187.785-4.369.882-6.562a16.1,16.1,0,0,0-.753-4.852c-.29-1.068-1.229-1.969-1.486-3.037-1.21-4.967-4.658-7.271-9.368-8-4.51-.7-7.772,1.544-10.295,4.98-2.368,3.21-1.216,11.755,1.866,15.449,1.995,2.387,3.893,4.857,5.926,7.405a8.217,8.217,0,0,1-1.6.8,29.871,29.871,0,0,0-12.914,6.177c-1.023.85-2.889.695-4.362,1-.232-.238-.463-.482-.689-.721,3.115-3.037,4.9-6.177,4.671-10.829-.251-5.308-1.57-9.182-5.958-10.391-5.482-1.506-10.668.714-12.418,5.733-1.409,4.066-3.359,8.242-.882,12.663.155.27-.109.772-.225,1.441-1.364-.084-2.619-.251-3.861-.213-1.531.039-3.352-.225-4.523.489-2.072,1.268-3.5.74-5.1-.45,2.284-5.482,4.658-10.758,6.672-16.169,1.86-4.975,5.611-7.605,10.288-9.33,1-.367,2.04-.663,3.056-.991-.058-.284-.123-.573-.18-.856-1.776.077-3.545.154-6.01.264l4.9-5.958c-.251-.206-.5-.412-.747-.618-1.042.8-2.091,1.6-3.609,2.754.8-1.937,1.357-3.281,1.911-4.62-.3-.154-.592-.315-.888-.47q-1.824,2.6-3.648,5.2c-.174-.083-.347-.16-.521-.244.521-1.981,1.049-3.963,1.75-6.621-3.391,2.452-2.805,7.445-7.026,7.953-.952-1.557-1.853-3.024-2.754-4.484l-.733.482c1.6,10.726-.56,17.861-8.693,28.536-1.216-2.664-2.052-5.521-3.687-7.8-1.544-2.149-3.642-4.62-5.99-5.334-8.075-2.464-13.641,1.21-15.385,9.465-.27,1.248-.386,2.535-.56,3.809-.251,1.911.109,4.317-.927,5.579-.855,1.049-3.436.521-5.115,1.087a41.916,41.916,0,0,0-5.759,2.7,11.19,11.19,0,0,0-1.744,1.319c-3.075-4.073-1.8-7.586.888-10.945.4-.5.8-1,1.19-1.519,2.593-3.461,1.872-7.148,1.081-11.272-2.246.984-4.047,1.769-6.286,2.747.425-1.133.7-1.885.991-2.631q7.393-19.11,14.792-38.226l-.644-.47c-1.319,1.106-2.638,2.22-4.523,3.809.714-2.561,1.255-4.51,1.8-6.466l-.521-.29c-.817,1.017-1.634,2.027-2.953,3.655v-4.967c-.238-.019-.482-.045-.721-.064-.676,1.84-1.351,3.68-2.142,5.842-.335-1.724-.592-3.03-.843-4.336-.277.013-.547.019-.817.032-.219,1.757-.45,3.513-.65,5.276-.135,1.165.225,2.786-.418,3.423-2.825,2.806-.939,5.456-.206,8.229a4.43,4.43,0,0,1-.064,3.043c-2.329,3.976-4.806,7.863-7.374,11.685-.476.714-1.6,1-2.612,1.589-.167,1.164-.386,2.657-.6,4.144-.283.025-.573.058-.856.084q-1.226-2.52-2.445-5.045c-.257.1-.515.187-.766.283.154,1.422.315,2.844.5,4.529-.688-1.106-1.235-1.988-1.782-2.869-.264.109-.534.219-.8.321.792,2.587,1.583,5.167,2.477,8.095-2.04-1.158-3.571-2.021-5.1-2.889l-.5.752a26.469,26.469,0,0,1,3.41,3.262,4.191,4.191,0,0,1,.779,3.037c-1.435,5.938-5,10.455-9.954,13.91a26.934,26.934,0,0,1-3.564,1.782c.592-2.464,1.242-4.465,1.531-6.511a33.39,33.39,0,0,0,.264-6.312,6.036,6.036,0,0,0-1.107-3.2,12.01,12.01,0,0,0-14.426-3.674c-6.775,3.166-7.959,5.54-6.286,12.945.47,2.053-.006,4.543,2.625,5.727.425.193.379,1.428.669,2.7-2.091-1.338-3.938-2.11-5.212-3.436-2.419-2.5-5.456-4.285-6.428-8.312-1.563-6.493-4.137-12.747-6.241-19.11-1.409-4.266-2.908-8.519-4.009-12.868a6.552,6.552,0,0,1,.985-4.24c1.229-2.194,2.844-4.163,4.317-6.267-3.732-2.117-3.822-2.464-3.41-6.44a26.923,26.923,0,0,0-.277-4.639c-.418.006-.836.006-1.255.006-.257,2.162-.515,4.324-.83,7.007-1.879-2.632-1.165-6.081-4.472-8.056.418,2.979.734,5.256,1.146,8.19-2.22-1.782-1.248-5.244-4.755-5.141.785,2.143,1.486,4.054,2.188,5.958l-.618.366c-1.293-1.01-2.593-2.014-4.665-3.628,1.145,2.567,2.207,4.2,2.612,5.984,1.255,5.508,2.1,11.112,3.4,16.613,3.359,14.284,6.865,28.536,10.308,42.8a4.306,4.306,0,0,1,.206,1.57c-.843,5.45-1.731,10.894-2.722,17.051-1.023-1.306-2.136-2.065-2.175-2.876-.347-7-2.844-13.879-1.03-21.008a9.719,9.719,0,0,0,.077-5.077c-.457-1.455-1.744-3.474-2.96-3.707-5.34-1.01-8.757,2.581-8.139,8.275-.438-.232-.785-.406-1.126-.592-9.188-4.916-17.926-.85-19.991,9.284a6.351,6.351,0,0,1-.7,2.117c-1.2,1.892-3.931,2.021-4.69-.019-1.345-3.629-3.2-7.336-1.634-11.421,1-2.625-.058-4.105-1.8-6.332-2.94-3.744-4.6-8.5-6.711-12.875-.148-.3.5-.92.6-1.428.894-4.176,1.75-8.358,2.612-12.54-.264-.187-.534-.374-.8-.554-1.39,1.859-2.78,3.719-4.292,5.746-3.976-2.875-1.4-8.229-4.774-12.18v9.079l-.695.115q-1.834-4.188-3.655-8.377c-.315.1-.63.2-.946.3.193,1.608.38,3.217.631,5.372-1.074-1.39-1.724-2.232-2.374-3.082-.3.161-.6.315-.9.477,1.03,2.85,2.059,5.707,3.211,8.892-2.49-1.094-4.53-1.989-6.569-2.882-.141.244-.283.5-.425.74a7.923,7.923,0,0,0,1.171,1.313c7.4,5.392,11.749,12.74,13.878,21.522a4.647,4.647,0,0,1,.264,2.465c-1.519,3.815-3.088,7.625-4.864,11.324-2.072,4.343-4.51,8.519-6.543,12.881-2.561,5.482-3.5,11.2-1.8,17.179a62.7,62.7,0,0,1,2.168,8.712c.553,4.092,3.423,7.958,1.184,12.4-.354.7.257,2.084.746,2.966a28.58,28.58,0,0,0,3.352,5.1c2.11,2.394,2.484,5.051,2.168,8.056-1,9.51-1.9,19.02-2.9,29.025,1.062,0,2.226.006,3.391-.006q79.459-.724,158.906-1.447,107.6-.946,215.2-1.9c2.265-.02,4.53-.914,7.509-1.557a42.006,42.006,0,0,0-3.134-5.064c-2.959-3.4-2.889-4.465.136-6.466-1.352-10.1-2.754-19.805-3.867-29.54a11.2,11.2,0,0,1,.978-6.351c2.252-4.047,5.1-7.747,3.719-12.811a3.288,3.288,0,0,1,.225-1.557C4224.047,5012.583,4225.115,5008.388,4226.292,5004.225Zm-375.374,2.008c-1.737,1.062-2.947,2.368-2.291,4.4,1.171,3.655-.6,6.364-2.786,9.561-1.435-3.262-2.78-6.247-4.047-9.265a2.854,2.854,0,0,1-.161-1.854q3.291-9.68,6.73-19.315a12.73,12.73,0,0,1,1.506-2.387c1.017,5.63,2.065,11.009,2.85,16.426C3852.823,5004.527,3851.742,5005.724,3850.919,5006.232Zm36.92,4.214c-2.207-1.435-3.88-2.529-5.707-3.719,2.278-4.2,4.472-8.249,6.666-12.3.322.116.637.231.952.341C3889.132,4999.85,3888.508,5004.933,3887.839,5010.447Zm216.872-20.718c1.049-2.973,1.9-5.385,2.908-8.242l2.947,7.65C4108.688,4989.323,4107.092,4989.49,4104.711,4989.729Zm15.365,2.136c2.039-.573,4.008-1.12,6.479-1.814C4124.026,4994.091,4123.119,4994.3,4120.076,4991.865Zm7.161,18.363c-.714-2.708-2.58-5.7,2.381-7.515C4128.691,5005.646,4127.964,5007.938,4127.237,5010.228Zm81.116-.708c-1.254-.76-2.516-1.519-4.176-2.516.354-1.023.8-2.316,1.519-4.388,1.384,2.7,2.381,4.626,3.372,6.55C4208.83,5009.282,4208.592,5009.4,4208.354,5009.521Z" transform="translate(-3831.05 -4915.311)" fill="#232323"/>
</svg>
