<svg xmlns="http://www.w3.org/2000/svg" width="785.351" height="580.689" viewBox="0 0 785.351 580.689">
  <g id="Group_2042" data-name="Group 2042" transform="translate(8541.188 -4970.461) rotate(90)" opacity="0.03">
    <path id="Path_572" data-name="Path 572" d="M5214.14,8513.28c1.48-4.55.12-8.66-3.94-10.771-3.43-1.79-3.56-4.12-3.56-7.24.05-124.819-.16-249.64.37-374.459.05-13.35-2.2-23.98-13.37-31.75-12.52-8.71-15.63-20.49-15.29-35.56.3-13.42,2.33-24.23,13.6-32.34,1.62-1.17,2.61-4.19,2.67-6.39.27-9.99.15-19.99.07-29.99-.02-2.5.37-4.17,3.01-5.51a8.97,8.97,0,0,0,4.57-11.01c-1.46-4.5-4.71-6.96-9.33-6.89a8.944,8.944,0,0,0-9.11,7.13c-1.22,4.59.6,7.98,4.27,10.82,1.44,1.12,3.06,3.1,3.11,4.74.29,9.99.21,19.99.09,29.99a7.7,7.7,0,0,1-1.4,4.53c-2.96,3.57-6.25,6.86-10.16,11.07a19.48,19.48,0,0,1-.8-2.92c-.03-21.17-.1-42.33.08-63.5.02-1.83,1.39-4.03,2.77-5.42,16.76-16.94,33.65-33.75,50.48-50.62,5.06-5.07,11.93-9.42,14.5-15.56,2.57-6.12.77-14.06.88-21.2.02-1.17-.31-2.45.07-3.47.73-1.97,1.45-4.21,2.89-5.59,3.58-3.45,4.24-8.06,1.11-11.53a7.643,7.643,0,0,0-11.49.02c-3.1,3.46-2.43,8.18,1.12,11.54a9.139,9.139,0,0,1,2.82,5.53,173.531,173.531,0,0,1-.01,19.48,11.534,11.534,0,0,1-2.86,6.88c-19.42,19.7-39.02,39.23-58.59,58.78-.94.94-2.06,1.69-3.32,2.71-1.48-6.1.24-10.02,4.32-13.93,13.23-12.68,25.94-25.9,39.04-38.73a11.056,11.056,0,0,0,3.59-8.76c-.12-24.5-.03-48.99-.13-73.49-.02-3.09.53-5.1,3.63-6.73,4.2-2.2,5.19-6.41,3.95-10.82-1.22-4.34-4.53-6.64-8.92-6.71a8.969,8.969,0,0,0-9.37,6.83c-1.29,4.44-.01,8.51,4.13,10.76,2.79,1.52,3.54,3.26,3.52,6.26-.12,24.5,0,49-.18,73.49a10.289,10.289,0,0,1-2.56,6.51c-12.56,12.88-25.34,25.56-38.08,38.27a35.45,35.45,0,0,1-3.43,2.55,97.044,97.044,0,0,0-.07-9.93c-.52-4.72,1.12-8.11,4.64-11.33,6.51-5.95,12.46-12.51,18.87-18.59a11.394,11.394,0,0,0,3.87-9.11c-.14-31.83-.08-63.67-.09-95.5,0-2.67-.15-4.94,3.12-6.46,4.51-2.1,5.6-6.39,4.51-11.06a9.383,9.383,0,0,0-9.38-6.86c-4.4.26-7.7,2.53-8.93,6.8-1.34,4.63-.02,8.87,4.42,11.08,2.84,1.42,3.18,3.25,3.18,5.93-.05,31.83.04,63.66-.17,95.49a11.874,11.874,0,0,1-3.09,7.28c-6.59,7.06-13.48,13.86-20.46,20.53a10.936,10.936,0,0,0-3.67,8.72q.165,68,.06,135.99v6.26c-.46.21-.93.43-1.4.65-4.47-4.62-9.13-9.08-13.32-13.94a11.6,11.6,0,0,1-2.87-6.88q-.24-80.985-.15-161.98c0-2.58.19-4.53,2.88-6.2,3.97-2.46,4.32-8.07,1.37-11.37a7.769,7.769,0,0,0-11.53-.02c-3.01,3.3-2.3,8.31,1.13,11.56,1.45,1.37,2.92,3.63,2.93,5.49q.24,68.49.1,136.99a25.966,25.966,0,0,1-.46,3.48c-.48.26-.96.52-1.45.77-1.78-2.17-3.31-4.64-5.42-6.45-3.58-3.07-4.96-6.56-4.68-11.33.42-6.97.21-13.99.06-20.99-.07-3.19.14-5.41,3.89-6.86,4.15-1.61,5.07-6.98,2.7-10.72a7.753,7.753,0,0,0-10.95-2.2c-3.65,2.56-4.82,7.74-1.63,10.91,2.79,2.76,2.97,5.66,2.92,9.02-.07,5,.55,10.08-.14,14.98-1.42,10.01,1.48,17.92,9.79,23.66,7.99,5.52,4.9,13.31,4.6,20.76a293.826,293.826,0,0,1-21.16-20.7,12,12,0,0,1-3.05-7.28c-.23-24.5-.1-49-.18-73.49-.01-2.87.51-4.8,3.18-6.58,3.77-2.53,3.91-7.74.99-11.02a7.75,7.75,0,0,0-11.52-.07c-3,3.27-2.95,8.46.84,11.01,2.86,1.94,3.2,4.15,3.19,7.1-.06,24.66-.12,49.32.11,73.99a12.263,12.263,0,0,0,3.16,7.73c22.82,23.13,45.64,46.28,68.98,68.88,6.04,5.85,4.46,11.84,4.49,19.27-1.85-1.66-2.86-2.48-3.78-3.41q-41.19-41.175-82.42-82.31a10.6,10.6,0,0,1-3.3-8.35q.15-53.25,0-106.49c-.01-3.26.55-5.38,3.75-7.17,4.03-2.26,5.2-6.36,3.66-10.86a8.921,8.921,0,0,0-9.13-6.44c-4.68.03-7.87,2.54-9.16,7.07-1.25,4.36.06,8.35,3.96,10.33,3.43,1.75,3.64,4.04,3.63,7.2-.06,35.83.02,71.66-.13,107.49a11.683,11.683,0,0,0,3.88,9.11c28.35,28.2,56.48,56.63,85,84.67,4.99,4.91,4.5,9.88,3.75,16.23-1.51-1.37-2.5-2.2-3.41-3.11q-27.06-27.03-54.12-54.05c-2.07-2.06-3.47-3.79-2.76-7.23.88-4.29-3.07-8.1-7.44-8.19a7.784,7.784,0,0,0-7.88,8.4c.36,4.34,4.44,8.06,8.65,6.89,3.47-.96,5.16.43,7.25,2.52,17.75,17.84,35.13,36.08,53.56,53.18,7.71,7.16,6.85,14.73,6.27,23.75a19.289,19.289,0,0,1-2.04-1.47q-43.68-43.635-87.38-87.25c-1.96-1.96-1.63-3.4-.71-5.61a9.246,9.246,0,0,0-3.42-11.45c-3.95-2.56-8-2.44-11.58.56a8.986,8.986,0,0,0-2.81,10.81c1.64,4.26,5.68,6.38,10.36,6.23a8.7,8.7,0,0,1,5.87,1.93q44.715,44.37,89.08,89.08a10.781,10.781,0,0,1,2.89,6.86q.209,164.73.18,329.47c0,2.92-.55,4.75-3.42,6.3-4.07,2.21-5.52,6.17-4.11,10.72,1.38,4.5,4.57,6.87,9.32,6.811A8.9,8.9,0,0,0,5214.14,8513.28Zm-27.32-542.24c-.07-3.91,2.32-5.96,6.16-6.4,3.83.37,6.25,2.33,6.28,6.26.03,3.91-2.22,6.23-6.14,6.28S5186.89,7974.9,5186.82,7971.04Zm31.64-165.82c-.03-3.79,2.23-6.28,6.18-6.31s5.82,2.54,6.52,6.05c-.59,3.88-2.43,6.38-6.41,6.43C5220.75,7811.44,5218.49,7809.01,5218.46,7805.22Zm-20.22-23.93a6.214,6.214,0,0,1,6.12-6.47c3.93.03,6.17,2.26,6.56,6.05.34,3.37-2.66,6.37-6.6,6.5C5200.87,7787.22,5198.65,7785.07,5198.24,7781.29Zm-92.49,120.89c.04-3.88,2.38-6.25,6.25-6.23s6.18,2.39,6.2,6.28c.02,3.95-2.47,5.87-6.22,6.33C5108.14,7908.1,5105.71,7906.11,5105.75,7902.18Zm-1.78,163.09c-3.9-.01-6.22-2.28-6.22-6.18s2.28-6.22,6.18-6.26c3.94-.04,5.89,2.41,6.37,6.2C5109.84,8062.81,5107.94,8065.28,5103.97,8065.27Zm101.04,451.45a6.166,6.166,0,0,1-6.27-6.319c.19-3.87,2.4-6.12,6.26-6.351,3.34-.2,6.29,2.92,6.3,6.771C5211.01,8514.29,5208.8,8516.45,5205.01,8516.72Z" fill="#fff"/>
    <path id="Path_573" data-name="Path 573" d="M5548.84,7914.79a8.928,8.928,0,0,0-10.79-2.88c-4.43,1.72-6.88,5.22-5.93,9.79.8,3.82-.83,5.81-3.16,8.12q-36.465,36.36-72.84,72.8c-1.12,1.12-2.36,2.11-4.47,3.97,0-6.2-.32-11.31.14-16.36a12.811,12.811,0,0,1,2.96-7.33c11-11.39,22.29-22.49,33.47-33.7,1.88-1.89,3.41-3.38,6.79-2.57,4.64,1.11,8.66-2.76,8.73-7.31a7.924,7.924,0,0,0-7.94-7.95c-4.58.12-8.54,4.2-7.37,8.7.87,3.39-.62,4.92-2.51,6.81q-15.24,15.18-30.44,30.36c-.95.95-2.07,1.75-3.83,3.22,0-18.09.09-35.07-.07-52.05a10.516,10.516,0,0,1,3.53-8.26q29.46-29.22,58.68-58.68c2.03-2.05,3.82-2.99,6.91-2.52,4.93.76,8.49-2.76,8.45-7.52a7.42,7.42,0,0,0-7.6-7.58c-4.79-.04-8.35,3.51-7.5,8.43.6,3.42-.83,5.18-2.9,7.24-19.47,19.4-38.81,38.96-58.43,58.22-3.42,3.36-4.56,6.7-4.55,11.33q.195,98.235.05,196.48c0,2.1.24,4.79-.88,6.2-3.66,4.61-7.91,8.75-11.92,13.07-.49-.31-.98-.62-1.46-.93v-5.29q0-136.74-.02-273.47c0-3.18-.07-5.85,3.42-7.98,3.73-2.27,3.61-7.93.62-11.01a7.979,7.979,0,0,0-11.23.01c-2.92,3.1-2.98,8.81.69,11.05,3.48,2.11,3.44,4.8,3.43,7.99q-.03,53.745-.01,107.49,0,85.23-.05,170.48c0,2.09.11,4.71-1.01,6.18-3.29,4.3-7.18,8.14-10.84,12.16-.44-.3-.88-.6-1.32-.91-.13-1.42-.37-2.85-.37-4.27q-.03-75.494.11-150.99a8.723,8.723,0,0,1,2.72-5.61c3.74-3.48,4.45-8.5,1.15-11.9a7.749,7.749,0,0,0-11.17.05c-3.24,3.42-2.53,8.48,1.23,11.88a8.018,8.018,0,0,1,2.65,5.12q.21,78.5.01,156.99a9.506,9.506,0,0,1-2.56,6c-12.24,12.51-24.66,24.82-37.06,37.17a41.959,41.959,0,0,1-3.48,2.739c0-11.7-.1-22.52.11-33.33.04-1.54,1.29-3.34,2.47-4.54,8.99-9.16,18.22-18.08,27.08-27.36a11.7,11.7,0,0,0,3.01-7.28c.2-32.32.14-64.65.12-96.98,0-3.18,0-5.83,3.41-8,3.76-2.41,3.53-7.8.4-10.99a7.83,7.83,0,0,0-11.18.15c-3.01,3.29-3.03,8.56.73,11.02,3.1,2.03,3.33,4.4,3.32,7.5-.06,27.5-.73,55.02.28,82.48.47,12.89-2.51,22.62-12.82,30.57-5.82,4.48-10.55,10.38-15.76,15.64-1.18-2.78-.87-5.08-1.24-7.27-2.24-13.5,1.89-24.2,13.12-32.35,1.83-1.34,2.99-4.75,3.03-7.23.26-16.49.18-32.99.1-49.49-.01-2.71.44-4.52,3.25-5.91,4.5-2.23,5.66-6.49,4.36-11.1a8.813,8.813,0,0,0-8.93-6.71c-4.65-.05-8.09,2.29-9.34,6.83-1.28,4.65.06,8.81,4.49,11.07,2.55,1.29,3.17,2.83,3.15,5.44-.09,16.33-.01,32.66-.09,48.99-.01,1.57-.24,3.51-1.15,4.63-3.23,3.96-6.81,7.63-10.26,11.41-.46-.34-.92-.69-1.38-1.03a8.087,8.087,0,0,1-.26-1.44q-.03-63.735.06-127.48a8.316,8.316,0,0,1,2.19-5.19q11.28-11.685,22.98-22.96a6.544,6.544,0,0,1,4.66-1.37c5.23.49,9.22-2.34,9.51-7.13a7.629,7.629,0,0,0-7.51-8.23c-4.87-.09-7.88,3.68-7.87,8.9a9.968,9.968,0,0,1-2.29,6.29q-10.291,10.905-21.16,21.25a11.494,11.494,0,0,0-3.87,9.13q.15,212.97,0,425.95c0,4.14,1.47,6.9,4.02,10.109,5.65,7.11,12.46,9.8,21.26,8.54,2.61-.38,5.33,0,7.99-.08,3.37-.109,6.22-.12,8.44,3.53,2.18,3.57,7.47,3.55,10.63.83a7.775,7.775,0,0,0,.64-11.16c-2.79-3.02-8.52-3.76-10.63-.39-2.98,4.75-7.01,4.08-11.21,4.069-4.17,0-8.33.021-12.5,0-6.36-.029-15.37-9.05-15.37-15.439q-.015-106.485-.09-212.97a12.3,12.3,0,0,1,4.06-9.561c24.49-24.29,48.81-48.76,73.3-73.05a11.182,11.182,0,0,0,3.61-8.74q-.2-55.485.03-110.98a11.565,11.565,0,0,1,2.85-7.38c25.55-25.83,51.31-51.44,76.93-77.19,2.22-2.23,3.97-3.14,7.21-1.88,4.39,1.7,8.3,0,10.78-3.95A9.006,9.006,0,0,0,5548.84,7914.79ZM5379.26,8056.2c-.03-3.81,2.41-5.97,6.3-6.41,3.77.45,6.29,2.52,6.27,6.35-.01,3.77-2.29,6.25-6.26,6.26S5379.29,8059.98,5379.26,8056.2Zm161.67-129.02c-3.3-.4-5.6-2.46-5.84-6.31a6.157,6.157,0,0,1,6.32-6.25c3.95.14,6.09,2.44,6.36,6.25C5548.01,7924.18,5544.81,7927.19,5540.93,7927.18Z" fill="#fff"/>
    <path id="Path_574" data-name="Path 574" d="M5175.69,8484.94c-4.66-3.051-4.06-7.051-4.06-11.271q0-146,.1-292a12.849,12.849,0,0,0-4.24-9.98q-49.816-49.53-99.32-99.36a11.52,11.52,0,0,1-3.27-7.2c-.19-45.33-.13-90.66-.17-136-.01-2.67.37-4.48,3.19-5.92,4.31-2.21,5.75-6.76,4.29-11.09-1.43-4.28-4.54-6.65-8.95-6.68-4.62-.04-7.91,2.3-9.34,6.84-1.37,4.33.49,8.31,4.36,11.27a8.014,8.014,0,0,1,3.01,5.29c.27,10.99.15,22,.11,33a41.569,41.569,0,0,1-.63,4.62c-7.83-7.9-15.09-14.97-21.99-22.37a11.3,11.3,0,0,1-2.8-6.89c-.23-16.66-.08-33.33-.16-50-.01-2.67.52-4.49,3-6.17a7.434,7.434,0,0,0,1.06-11.37,7.706,7.706,0,0,0-11.17-.09c-3.24,3.3-3.2,8.79.83,11.35,3.05,1.93,3.16,4.24,3.16,7.13-.04,16.83-.15,33.66.11,50.49a11.983,11.983,0,0,0,3.02,7.33c7.42,7.88,15.26,15.37,22.84,23.11,1.2,1.22,2.48,2.95,2.6,4.52.34,4.62.12,9.27.12,15.21-2.12-1.89-3.25-2.81-4.28-3.83-13.67-13.67-27.42-27.26-40.89-41.12a12.271,12.271,0,0,1-3.1-7.77c-.2-35.83-.11-71.66-.18-107.5,0-3.02.38-5.13,3.55-6.73,4.23-2.14,5.32-6.32,4.09-10.76-1.2-4.32-4.4-6.58-8.85-6.83a9.213,9.213,0,0,0-9.44,6.7c-1.11,4.44-.28,8.69,3.98,10.82,3.41,1.71,3.68,4.02,3.67,7.2-.07,36,.01,72-.11,108a11.674,11.674,0,0,0,3.7,9.2q22.65,22.245,44.87,44.91a11.365,11.365,0,0,1,2.88,6.88c.35,7.82.16,15.66.11,23.49a34.049,34.049,0,0,1-.62,4.16c-21-20.99-41.43-41.33-61.7-61.82-1.18-1.2-1.59-3.6-1.6-5.44-.11-22.33-.07-44.67-.11-67-.01-2.45.26-4.21,2.96-5.53,4.43-2.17,5.86-6.28,4.58-11-1.23-4.57-4.5-6.87-9.23-6.85-4.53.01-7.56,2.34-9.06,6.54a8.993,8.993,0,0,0,4.32,11.12c2.81,1.42,3.26,3.19,3.25,5.89-.06,20.83-.03,41.66-.05,62.49-.01,1.2-.29,2.4-.63,5.1-3.72-4-6.33-7.29-9.43-10-3.31-2.89-4.27-6.15-4.26-10.47q.195-80.745.06-161.5c0-3.18-.01-5.82,3.44-7.95,3.73-2.3,3.57-7.89.53-11.02a7.973,7.973,0,0,0-11.21.1c-2.96,3.21-3.05,8.83.72,11,3.66,2.1,3.39,4.88,3.39,8q0,81.99-.08,163.99a11.193,11.193,0,0,0,3.64,8.73q39,38.774,77.72,77.83a12.608,12.608,0,0,1,3.24,7.71c.38,9.99.32,20,.07,29.99-.1,3.69,1.16,6.16,3.71,8.7q49.965,49.725,99.67,99.72c1.77,1.79,3.38,4.73,3.39,7.14q.27,100,.13,200a47.807,47.807,0,0,1-.65,4.9c-3.56-3.8-6.07-6.96-9.07-9.551-3.35-2.88-4.3-6.18-4.28-10.489.14-41.67.09-83.341.06-125,0-3.04.06-5.511,3.27-7.551,3.95-2.51,3.9-8.17.64-11.38a7.977,7.977,0,0,0-11.21.33c-2.92,3.221-2.79,8.57.93,11.03,2.86,1.89,3.27,4.05,3.26,7.03-.06,37.66.68,75.35-.4,112.989-.42,14.511,2.5,25.74,14.32,34.45,1.84,1.351,3,4.771,3.02,7.25.21,27.17.11,54.33.17,81.5.01,3.1-.21,5.48-3.32,7.51-3.75,2.471-3.71,7.78-.7,11.03a7.854,7.854,0,0,0,10.83.5C5178.21,8492.8,5179.07,8487.15,5175.69,8484.94ZM5005.08,7813.78c-.22-3.34,2.93-6.35,6.32-6.37a6.6,6.6,0,0,1,6.42,6.33,6.76,6.76,0,0,1-6.83,6.37A6.271,6.271,0,0,1,5005.08,7813.78Zm-15.56,63.7c.1-3.93,2.39-5.95,6.2-6.54,3.73.5,6.25,2.44,6.31,6.35s-2.41,6.09-6.17,6.43A6.134,6.134,0,0,1,4989.52,7877.48Zm67.35,37.4c.08-3.92,2.56-5.84,6.38-6.21,3.8.52,6.14,2.57,6.04,6.49-.1,3.89-2.41,6.18-6.34,6.07C5059.08,7921.12,5056.79,7918.79,5056.87,7914.88Z" fill="#fff"/>
    <path id="Path_575" data-name="Path 575" d="M5265.69,8510.55c-3.4-1.72-3.77-3.91-3.77-7.109q.12-48.5.05-97,0-132.24.11-264.48c0-2.55.83-5.83,2.53-7.54,26.71-27.02,53.65-53.82,80.48-80.73,1.8-1.81,3.25-2.62,5.98-1.6,4.43,1.66,8.3-.01,10.8-3.91a8.983,8.983,0,0,0-.91-11.55c-3.11-3.48-7.08-4.22-11.37-2.23a8.921,8.921,0,0,0-5.02,10.8c1.02,3.1-.21,4.6-2.04,6.43q-38.369,38.34-76.72,76.7c-.94.93-2.09,1.66-3.84,3.05,0-7.13-.29-13.14.14-19.1a12.518,12.518,0,0,1,3.02-7.32c14.68-15.02,29.17-30.26,44.62-44.45,7.8-7.17,11.93-14.59,10.13-25.07-.73-4.28,1.03-7.4,4.13-10.48,23.93-23.67,47.65-47.57,71.54-71.28a10.494,10.494,0,0,0,3.42-8.28c-.16-18-.06-36-.1-53.99-.01-2.42.11-4.3,2.84-5.6,4.48-2.14,6.06-6.22,4.84-10.91-1.18-4.48-4.41-6.99-9.18-7.02a8.94,8.94,0,0,0-9.14,6.39c-1.61,4.51.34,8.6,4.42,11.68a7.891,7.891,0,0,1,2.96,5.34q.345,26.745.03,53.5a10.271,10.271,0,0,1-2.65,6.5q-34.635,35-69.58,69.7c-.85.86-1.89,1.53-3.55,2.85,0-3.42.1-5.89-.03-8.36-.18-3.57.13-6.46,3.69-8.85,3.62-2.43,3.24-8,.07-11.01a7.761,7.761,0,0,0-10.83.13c-3.09,3.1-3.31,8.58.39,11.03,3.48,2.3,3.6,5.07,3.56,8.48-.09,9.5-.17,19,.05,28.49a10.267,10.267,0,0,1-3.51,8.3c-6.84,6.58-13.46,13.4-20.19,20.1-.97.96-2.1,1.75-3.93,3.27,0-14.37-.09-27.66.13-40.94.03-1.3,1.74-2.9,3.06-3.78,4.16-2.79,5.64-6.61,4.36-11.24-1.25-4.56-4.68-6.77-9.37-6.72-4.55.05-7.54,2.49-8.94,6.69a8.881,8.881,0,0,0,4.48,11.06c2.88,1.42,3.21,3.28,3.18,5.93-.08,8-.85,16.1.15,23.97,1.7,13.41-1.92,24.02-13.15,31.84a36.431,36.431,0,0,0-3.9,3.86c-2.06,1.98-4.15,3.93-6.82,6.45-.18-1.91-.32-2.7-.32-3.5-.01-28.16-.07-56.33.11-84.49a9.687,9.687,0,0,1,2.72-5.94c8.21-8.51,16.55-16.92,25.11-25.07a11.365,11.365,0,0,1,6.92-2.73c9.16-.31,18.33.04,27.49-.25a10.547,10.547,0,0,0,6.45-2.67c10.07-9.73,19.84-19.76,29.86-29.53a7.194,7.194,0,0,1,5-1.8c5.44.44,9.2-2.08,9.55-6.98a7.522,7.522,0,0,0-7.8-8.37c-4.83.13-7.6,3.87-7.44,9.27a8.3,8.3,0,0,1-1.89,5.49c-9.39,9.69-18.99,19.19-28.59,28.67-1.12,1.11-2.67,2.49-4.05,2.53-9.27.22-18.54.11-27.81.11-.28-.55-.57-1.11-.85-1.67a47.237,47.237,0,0,0,4.29-3.42c21.47-21.41,42.81-42.97,64.45-64.22,3.87-3.81,5.61-7.52,5.47-12.97-.37-13.66-.08-27.33-.16-41-.02-2.97.22-5.16,3.45-6.79,4.18-2.12,5.47-6.25,4.2-10.72-1.28-4.53-4.7-6.91-9.33-6.87-4.39.04-7.72,2.24-8.96,6.63-1.31,4.65-.16,8.88,4.29,11.12,2.82,1.43,3.24,3.27,3.23,5.94-.06,14.34.13,28.67-.18,43a12.363,12.363,0,0,1-3.2,7.74q-50.34,50.76-101.07,101.14a13.869,13.869,0,0,0-4.46,10.87q.165,243.24.12,486.47c0,3.359.22,6.2-3.83,8.109-4.28,2.021-5.06,6.53-3.7,10.87,1.33,4.24,4.58,6.48,9.09,6.45s7.71-2.32,9.03-6.55C5270.87,8517.02,5269.88,8512.67,5265.69,8510.55Zm88-473.76c3.97-.12,5.84,2.42,6.56,5.86-.48,3.97-2.31,6.53-6.27,6.59-3.91.06-6.25-2.21-6.34-6.09S5349.77,8036.9,5353.69,8036.79Zm-72.53-14.34a6.49,6.49,0,0,1,6.17-6.53c3.93.05,6.15,2.33,6.56,6.1.35,3.3-2.74,6.42-6.13,6.55A6.564,6.564,0,0,1,5281.16,8022.45Zm81.83-183.51c.14-3.86,2.68-5.82,6.48-6.15,3.85.57,6.17,2.75,6.02,6.61s-2.55,6.16-6.48,6C5365.12,7845.24,5362.84,7842.8,5362.99,7838.94Zm-102.66,685.87a6.7,6.7,0,0,1-6.32-6.47,6.791,6.791,0,0,1,6.48-6.34,6.405,6.405,0,0,1-.16,12.81Z" fill="#fff"/>
    <path id="Path_576" data-name="Path 576" d="M5237.43,8461.69c-2.89-1.9-3.23-4.1-3.23-7.061q.06-234.195-.03-468.4a11.163,11.163,0,0,1,3.6-8.75c18.02-17.8,35.78-35.86,53.86-53.59a14.291,14.291,0,0,0,4.59-11.34c-.17-36.66-.08-73.32-.13-109.98,0-3.07.08-5.53,3.27-7.55,3.85-2.45,3.86-8.26.71-11.41a7.738,7.738,0,0,0-11.18.27c-2.91,3.16-2.86,8.69.84,11.03,3.17,2,3.35,4.4,3.35,7.51q-.09,54.99.04,109.97a11.637,11.637,0,0,1-3.88,9.12c-18.12,17.93-36.04,36.07-54.18,53.98a12.066,12.066,0,0,0-4.05,9.52c.18,27.99.09,55.99.1,83.98v5.6c-.5.18-.99.35-1.49.52-5.2-5.36-10.6-10.55-15.49-16.19a13.166,13.166,0,0,1-3.2-7.73c-.27-20.16-.04-40.33-.24-60.49a12.093,12.093,0,0,1,3.93-9.6q28.98-28.635,57.58-57.64a11.567,11.567,0,0,0,3.03-7.29c.22-22.82.06-45.65.26-68.48a9.615,9.615,0,0,1,2.87-6.06c3.53-3.46,4.29-8.08,1.23-11.54a7.8,7.8,0,0,0-11.52-.06c-3.11,3.4-2.86,8.77,1.18,11.35,2.64,1.67,2.94,3.56,2.94,6.17-.05,22.33.08,44.66-.17,66.99a12.461,12.461,0,0,1-3.26,7.72c-10.28,10.69-20.9,21.05-31.37,31.55q-12.66,12.69-25.25,25.44c-.45-.22-.9-.44-1.36-.66a58.4,58.4,0,0,0-.05-7.37c-.66-5.06,1.14-8.69,4.85-12.23,10.49-10,20.53-20.47,30.92-30.58a7.924,7.924,0,0,1,5.44-1.82c4.96.32,8.79-2.33,9.18-6.97a7.542,7.542,0,0,0-7.68-8.47c-4.68.07-8.18,3.73-7.36,8.63.52,3.16-.59,4.91-2.59,6.89-10.91,10.77-21.67,21.69-32.62,32.42a10.553,10.553,0,0,0-3.52,8.28c.11,28.49-.03,56.99.17,85.48a12.071,12.071,0,0,0,3.14,7.26c5.26,5.79,10.82,11.33,16.56,16.65,2.94,2.74,3.97,5.62,3.96,9.6q-.15,183.96-.05,367.93c0,3.07-.11,5.479-3.28,7.51-3.9,2.51-3.8,8.2-.53,11.38a8.018,8.018,0,0,0,10.86-.1C5241.38,8469.85,5241.33,8464.26,5237.43,8461.69Z" fill="#fff"/>
    <path id="Path_577" data-name="Path 577" d="M5058.2,8199.92a10.813,10.813,0,0,1,3.08,6.79q.24,112.726.02,225.46a10.438,10.438,0,0,1-2.6,6.5c-5.66,6.11-11.76,11.811-17.56,17.78-1.77,1.819-3.27,2.45-5.97,1.77a7.46,7.46,0,0,0-9.67,6.721,7.614,7.614,0,0,0,7.5,8.229c4.75.14,7.69-3.16,8.03-8.24a10.3,10.3,0,0,1,2.37-5.939c5.68-6.08,11.56-12.01,17.64-17.69a11.312,11.312,0,0,0,3.8-9.13c-.1-85.82-.41-171.65.26-257.46.1-13.9-2.18-24.97-13.87-33.04a1,1,0,0,1-.35-.36c-.8-1.89-2.25-3.77-2.28-5.68q-.33-19.23-.03-38.49c.02-1.51,1.42-3.49,2.76-4.41,4.06-2.78,5.89-6.32,4.7-11.1-1.16-4.65-4.54-7.04-9.12-7.13-4.63-.09-7.87,2.44-9.34,6.9-1.37,4.19.56,8.41,4.53,11.18,1.28.89,2.91,2.51,2.94,3.83.22,12.48.13,24.96.13,37.44-.44.28-.88.56-1.33.84a117.12,117.12,0,0,0-8.19-8.48c-3.05-2.64-4-5.6-3.97-9.59.19-20.66.11-41.33.06-61.99,0-2.91.24-5.14,3.2-7.07,3.95-2.57,3.88-8.1.58-11.36a7.789,7.789,0,0,0-10.83.01c-3.33,3.26-3.39,8.74.57,11.36,2.93,1.94,3.19,4.15,3.18,7.07-.05,21.33.04,42.67-.09,63.99a10.471,10.471,0,0,0,3.37,8.34q13.649,13.214,26.83,26.89a10.558,10.558,0,0,1,2.74,6.44c.27,10.99.13,21.99.09,32.99a34.92,34.92,0,0,1-.55,4.02c-1.15-.97-1.81-1.46-2.39-2.029-15.68-15.66-31.43-31.25-46.93-47.09-1.58-1.61-2.31-4.71-2.32-7.12-.14-40.99-.08-81.98-.17-122.98-.01-3.25.49-5.41,3.79-7.12,4.22-2.2,5.11-6.52,3.82-10.88-1.27-4.29-4.66-6.58-9.04-6.6a8.957,8.957,0,0,0-9.1,6.53c-1.37,4.37-.52,8.74,3.71,10.87,3.63,1.82,3.84,4.29,3.84,7.6q-.09,58.74-.04,117.48v5.24c-.43.21-.86.42-1.3.63-4.95-5.04-10.07-9.93-14.76-15.22a11.442,11.442,0,0,1-2.89-6.85c-.22-21.49-.11-42.99-.17-64.49-.01-2.66.47-4.49,2.99-6.16a7.514,7.514,0,0,0,1.16-11.38,7.719,7.719,0,0,0-11.18-.18c-3.16,3.22-3.1,8.87.77,11.4,2.93,1.92,3.22,4.16,3.21,7.1-.05,21.33.06,42.66-.11,63.99a11.649,11.649,0,0,0,3.79,9.17Q5023,8164.425,5058.2,8199.92Zm-17.6-115.99c.1-3.87,2.48-6.18,6.37-6.08,3.87.11,6.17,2.53,6.1,6.39-.07,3.9-2.58,5.82-6.2,6.18C5042.82,8089.94,5040.49,8087.82,5040.6,8083.93Zm-39.4-80.7c-.3-3.29,2.85-6.49,6.22-6.41,3.91.1,6.33,2.34,6.42,6.15.09,3.84-2.3,6.01-6.06,6.44C5003.74,8009.2,5001.54,8007.03,5001.2,8003.23Z" fill="#fff"/>
    <path id="Path_578" data-name="Path 578" d="M5189.44,8463.08c-4.29-2.37-4.4-5.4-4.4-9.36q.09-143.714.14-287.44a12.769,12.769,0,0,0-4.19-9.99q-43.635-43.335-86.94-86.97c-1.68-1.69-3.22-4.45-3.23-6.72q-.27-89.985-.05-179.96a9.606,9.606,0,0,1,2.54-6.03c7.47-7.83,15.25-15.37,22.84-23.1,2.06-2.09,3.84-3.39,7.24-2.75,4.75.9,8.51-2.91,8.45-7.56a7.814,7.814,0,0,0-8.12-7.7c-4.58.28-8.27,4.38-7.12,8.95.78,3.13-.52,4.57-2.34,6.38-7.93,7.86-15.94,15.64-23.58,23.78a12.51,12.51,0,0,0-3.26,7.71c-.17,59.98-.1,119.97-.19,179.96a11.1,11.1,0,0,0,3.51,8.72c29.2,29,58.23,58.18,87.43,87.18a12.272,12.272,0,0,1,3.92,9.61q-.195,71.73-.08,143.47,0,71.73.05,143.471c0,3.51-.36,5.979-4.03,7.989-4.91,2.681-5.42,9.761-1.77,13.971a9.722,9.722,0,0,0,14.22.4C5194.33,8473.09,5194.25,8465.73,5189.44,8463.08Zm-6.09,13.7c-3.43-.3-5.76-2.351-6.14-6.181-.33-3.29,2.78-6.46,6.12-6.58a6.384,6.384,0,1,1,.02,12.761Z" fill="#fff"/>
    <path id="Path_579" data-name="Path 579" d="M5255.45,8486.05c1.64-3.189.18-6.3-2.54-8.91-1.44-1.38-2.88-3.64-2.88-5.5q-.195-237.974.01-475.959a10.8,10.8,0,0,1,2.91-6.85c24.97-25.23,50.11-50.28,75.17-75.42,1.87-1.87,3.46-2.89,6.46-2.27,4.78.99,8.53-2.55,8.64-7.3a7.48,7.48,0,0,0-7.34-7.84c-4.77-.15-8.57,3.39-7.77,8.2.6,3.58-.81,5.48-3.04,7.7-24.09,23.99-48,48.15-72.24,71.98a18.7,18.7,0,0,0-6.19,14.72q.27,235.23.15,470.459c0,3.45.16,6.48-3.51,9.03-1.78,1.25-2.48,5.83-1.76,8.351.64,2.25,3.91,3.75,6.94,6.38C5251.35,8490.13,5254.19,8488.5,5255.45,8486.05Z" fill="#fff"/>
    <path id="Path_580" data-name="Path 580" d="M5337.45,8458.65c-3.56,4.159-7.41,4.52-11.17.81-7.13-7.01-14.23-14.04-21.16-21.25a8.684,8.684,0,0,1-2.2-5.19c-.76-16.22-.69-16.22,10.75-27.659a88.781,88.781,0,0,1,6.41-6.311c2.96-2.42,3.87-5.26,3.86-9.08-.13-42.989-.07-85.979-.11-128.97-.01-2.95.17-5.17,3.44-6.8,4.18-2.08,5.46-6.25,4.22-10.71-1.26-4.54-4.69-6.92-9.31-6.9a8.917,8.917,0,0,0-9.01,6.6c-1.43,4.39.39,8.479,4.13,11.359,1.54,1.19,3.21,3.44,3.22,5.21q.27,65.235.09,130.471c0,1.56-.28,3.539-1.24,4.6-4.9,5.41-10.05,10.57-15.9,16.63a25.457,25.457,0,0,1-.61-2.97q-.03-118.711.07-237.44a8.183,8.183,0,0,1,2.28-5.13q19.29-19.59,38.9-38.85a7.238,7.238,0,0,1,5.48-1.44c4.83.78,8.72-.31,11.14-4.6a9.019,9.019,0,0,0-1.53-11.48c-3.17-3.23-7.08-3.57-11.07-1.81a8.7,8.7,0,0,0-4.84,10.85c1.08,3.35-.36,4.85-2.31,6.78-12.76,12.69-25.54,25.35-38.09,38.25a11.6,11.6,0,0,0-3.17,7.27q-.24,131.22.01,262.44a11.9,11.9,0,0,0,3.16,7.29c6.71,7.17,13.66,14.14,20.86,20.83a15.525,15.525,0,0,0,7.67,3.319c2.53.44,4.43.561,6.09,3.131a7.437,7.437,0,0,0,11.37,1.08,7.732,7.732,0,1,0-11.43-10.33Zm8.63-342.541c.37-3.83,2.66-6.03,6.54-6.13,3.34-.08,6.32,3.21,6.2,6.52a6.68,6.68,0,0,1-6.6,6.18C5348.86,8122.55,5345.77,8119.41,5346.08,8116.11Z" fill="#fff"/>
    <path id="Path_581" data-name="Path 581" d="M5133.82,8508.59c-4.23-2.22-4.12-5.28-4.12-8.979q.06-158.985.1-317.98a10.6,10.6,0,0,0-3.41-8.31c-14.01-13.8-27.84-27.78-41.79-41.64-2.09-2.07-3.36-3.9-2.79-7.25.83-4.84-2.83-8.43-7.59-8.39a7.55,7.55,0,0,0-7.56,8.15c.23,4.46,3.94,7.95,8.47,7.03,3.19-.64,4.9.47,6.9,2.48,13.38,13.49,26.74,26.99,40.35,40.25,3.04,2.96,4.05,5.96,4.04,10.06q-.18,79-.07,157.99,0,79.5.04,158.99c0,3.149-.25,5.43-3.63,7.2-3.85,2.01-5.18,5.96-3.93,10.34,1.29,4.569,4.53,7.029,9.16,7.069a9.014,9.014,0,0,0,9.11-6.47C5138.61,8514.82,5137.62,8510.57,5133.82,8508.59Zm-5.85,13.641c-3.89-.051-6.19-2.381-6.14-6.29.05-3.881,2.37-6.181,6.28-6.15,3.93.03,5.89,2.46,6.26,6.28C5133.94,8519.92,5131.88,8522.27,5127.97,8522.23Z" fill="#fff"/>
    <path id="Path_582" data-name="Path 582" d="M5283.53,8157.7c10.55-10.88,21.37-21.5,32.03-32.27,1.95-1.97,3.59-3.22,6.84-2.62,4.88.9,8.54-2.66,8.61-7.36a7.582,7.582,0,0,0-7.92-7.79c-4.69.17-8.17,3.94-7.23,8.77.59,3.01-.47,4.6-2.34,6.45-10.88,10.79-21.63,21.71-32.59,32.42a11.063,11.063,0,0,0-3.64,8.72q.18,80.7.08,161.41,0,80.956.05,161.92c0,3.16-.27,5.41-3.64,7.19-4.08,2.15-5.3,6.32-3.8,10.82a8.884,8.884,0,0,0,9.03,6.529c4.73,0,7.93-2.39,9.25-6.9,1.33-4.561-.15-8.5-4.21-10.69-2.66-1.439-3.36-3.03-3.36-5.819q.09-162.166.16-324.331A10.236,10.236,0,0,1,5283.53,8157.7Zm1.83,344.5c-.23,3.96-2.36,6.37-6.18,6.43-3.79.07-6.3-2.2-6.35-6.14-.05-3.88,2.25-6.33,6.1-6.41S5284.95,8498.35,5285.36,8502.2Z" fill="#fff"/>
    <path id="Path_583" data-name="Path 583" d="M5223.8,8528.08c-3.64-2.38-3.69-5.33-3.69-8.89q.06-209.745.03-419.49c0-1.5.32-3.09-.07-4.48-.63-2.26-1.2-4.85-2.69-6.49-4.94-5.41-10.25-10.49-15.48-15.62-1.77-1.73-2.87-3.01-1.43-5.87,2.16-4.32,1.07-8.62-2.9-11.56a9.111,9.111,0,0,0-11.61.08,8.9,8.9,0,0,0-3.2,10.69c1.57,4.54,5.35,6.77,12.4,6.25a13.7,13.7,0,0,1,3.74,2.17c4.96,4.7,9.59,9.75,14.61,14.37,2.7,2.49,3.58,5.15,3.58,8.77q-.12,210.75-.06,421.49c0,3.33.16,6.18-3.5,8.43-3.69,2.261-3.48,7.95-.46,11.03a7.943,7.943,0,0,0,10.85.17C5227.02,8536.17,5227.37,8530.42,5223.8,8528.08Zm-31.89-458.35c-3.85-.45-6.3-2.42-6.31-6.36,0-3.91,2.35-6.29,6.19-6.31s6.24,2.33,6.28,6.23C5198.12,8067.23,5195.63,8069.19,5191.91,8069.73Z" fill="#fff"/>
    <path id="Path_584" data-name="Path 584" d="M5383.53,8495.04c-4.44-2.23-4.61-5.41-4.4-9.36a35.264,35.264,0,0,0-.09-8.47c-.53-2.71-1.38-5.85-3.2-7.75-9.79-10.22-20.04-20.01-29.82-30.229a12.338,12.338,0,0,1-3.17-7.74q-.24-125.19-.16-250.38c0-2.79.28-4.8,3.06-6.61,3.98-2.59,4.04-8.09.83-11.38a7.955,7.955,0,0,0-11.21.11c-3.03,3.25-3.07,8.53.68,11.03,3.08,2.05,3.32,4.41,3.32,7.52q-.075,125.191-.11,250.38a11.48,11.48,0,0,0,3.82,9.149c7.94,7.6,15.18,15.98,23.5,23.11,7.48,6.4,11.03,13.51,9.6,23.33-.42,2.94-.56,5.03-3.69,6.64-4.18,2.15-5.33,6.36-4.01,10.78,1.34,4.45,4.64,6.75,9.55,6.78a8.894,8.894,0,0,0,8.57-6.28C5387.98,8501.59,5387.53,8497.05,5383.53,8495.04Zm-5.61,13.65c-3.31.35-6.5-2.7-6.66-6.051a6.379,6.379,0,1,1,12.75-.13A6.286,6.286,0,0,1,5377.92,8508.69Z" fill="#fff"/>
    <path id="Path_585" data-name="Path 585" d="M5115.25,8187.81c-6.86-7.27-13.98-14.3-21.13-21.28-1.77-1.73-2.38-3.05-1.24-5.54,2.09-4.54.66-8.66-3.29-11.43a9.03,9.03,0,0,0-11.59.44,8.926,8.926,0,0,0-2.67,11.26c2.02,4.53,5.79,5.96,10.65,5.68a8.059,8.059,0,0,1,5.46,1.73c6.78,6.41,13.18,13.21,19.94,19.65a10.933,10.933,0,0,1,3.65,8.72q-.179,69.735-.08,139.47V8474.98c0,1.34.09,2.68-.04,4-.41,4.27-6,8.55-9.95,7.68-4.61-1.021-8.34.43-10.69,4.45a9.579,9.579,0,0,0,12.37,13.51c4.28-2.021,6.48-5.87,5.12-10.26-1.25-4.03.49-5.94,2.79-8.53,1.7-1.91,3.36-4.72,3.37-7.14q.255-142.216.03-284.44A10.359,10.359,0,0,0,5115.25,8187.81Zm-31.19-24.14c-3.8-.03-6.23-2.4-6.2-6.31s2.43-6.26,6.26-6.25,5.94,2.43,6.29,6.26C5090.06,8161.32,5087.89,8163.7,5084.06,8163.67Zm18.09,338.6c-3.33-.289-5.85-2.35-5.92-6.159s2.25-6.28,6.16-6.38c3.93-.1,6.12,2.31,6.47,6.1C5109.17,8499.16,5106.06,8502.19,5102.15,8502.27Z" fill="#fff"/>
    <path id="Path_586" data-name="Path 586" d="M5097.57,8399.36c3.77-2.641,4.57-6.261,4.55-10.8-.16-51.31-.1-102.619-.13-153.939,0-3.05-.06-5.53,3.58-7.23,4.26-2,5.34-6.34,4.06-10.75-1.3-4.47-4.62-6.81-9.38-6.72-4.52.09-7.7,2.4-8.91,6.67-1.24,4.391-.23,8.74,4.01,10.79,3.56,1.71,3.63,4.11,3.63,7.22-.04,49.15-.24,98.3.18,147.44.07,8.22-1.62,14.55-8.28,19.34-2.99,2.15-3.8,5.04-3.66,8.69.28,6.819.08,13.66.08,20.489a35.158,35.158,0,0,0,.05,5.99c2.54,14.47-2.22,25.771-14.14,34.38-3.39,2.45-5.54,6.12-10.9,5.21-3.93-.68-7.07,3.44-7.01,7.471a7.694,7.694,0,0,0,7.74,7.54c4.36.02,8.56-3.351,7.57-7.36-1.3-5.24,1.78-7.521,4.64-10.37,4.25-4.229,8.67-8.31,12.63-12.8a10.927,10.927,0,0,0,2.66-6.47c.25-12.66.54-25.341-.04-37.98C5090.18,8409.08,5091.67,8403.49,5097.57,8399.36Zm-3.47-180.141a6.393,6.393,0,1,1,6.19,6.59A6.72,6.72,0,0,1,5094.1,8219.22Z" fill="#fff"/>
    <path id="Path_587" data-name="Path 587" d="M5078.99,8432.47q-.166-78.464-.1-156.92c0-3.06.09-5.5,3.28-7.51,3.72-2.35,3.79-7.85.9-11.04a7.85,7.85,0,0,0-11.18-.33c-3.24,3.15-3.3,8.86.61,11.39,3.17,2.061,3.28,4.49,3.27,7.57q-.075,38.73-.03,77.46c0,25.82-.08,51.641.08,77.46a12.032,12.032,0,0,1-4.06,9.58c-9.47,9.13-19.2,18.08-27.81,27.99-6.82,7.83-14.23,11.729-24.61,10.149-3.12-.47-5.69-.1-7.63-3.81-2.64-5.07-9.54-5.69-13.9-2.12a9.737,9.737,0,0,0-.75,14.22c3.85,3.94,11.34,4.061,14.04-.659,2.51-4.36,5.69-4.75,9.81-4.53a51.882,51.882,0,0,0,9.97-.08c2.41-.35,5.24-1.2,6.9-2.82,12.65-12.319,24.99-24.95,37.61-37.3A11.012,11.012,0,0,0,5078.99,8432.47Zm-75.19,53.58c-3.8-.13-6.18-2.439-6.06-6.4.11-3.91,2.47-6.131,6.36-6.07,3.96.06,5.79,2.61,6.22,6.22C5009.78,8483.78,5007.67,8486.17,5003.8,8486.05Z" fill="#fff"/>
  </g>
</svg>
