<svg xmlns="http://www.w3.org/2000/svg" width="259.182" height="215.837" viewBox="0 0 259.182 215.837">
  <g id="Group_2047" data-name="Group 2047" transform="translate(1166.53 -5169.184)">
    <g id="Group_2028" data-name="Group 2028" transform="translate(-1166.53 5169.184)">
      <g id="Group_2027" data-name="Group 2027" transform="translate(0)">
        <path id="Path_621" data-name="Path 621" d="M-1005.679,5193.615c-27.9-24.711-66.515-31.075-100.947-17.268-37.7,15.113-62.694,52.62-59.655,93.95a91.493,91.493,0,0,0,20.586,52.015c3.046,3.761,6.5,7.2,9.883,10.92-.3.457-.622.952-.959,1.438q-8.161,11.685-16.325,23.373c-2.171,3.107-2.32,6.229-.437,8.882,1.941,2.738,4.929,3.629,8.642,2.567q24.283-6.946,48.576-13.866a7.355,7.355,0,0,1,3.441-.1c26.308,5.793,51.269,2.352,74.117-12.031,27.387-17.246,42.938-42.248,44.824-74.713C-972.187,5238.776-983.246,5213.485-1005.679,5193.615ZM-1128.262,5349.8c-.408.117-.823.2-1.756.418l5.985-8.594c1.141-1.637,2.294-3.27,3.432-4.909,2.936-4.242,2.433-7.914-1.6-11.18a79.684,79.684,0,0,1-23.881-31.571c-13.182-31.506-4.455-67.694,21.727-90.237a83.378,83.378,0,0,1,109.378.791,78.686,78.686,0,0,1-6.627,123.658c-21.231,15.067-44.726,19.024-69.962,12.77a11.188,11.188,0,0,0-6.043.055C-1107.815,5343.984-1118.042,5346.88-1128.262,5349.8Z" transform="translate(1166.53 -5169.185)"/>
      </g>
    </g>
    <g id="Group_2029" data-name="Group 2029" transform="translate(-1027.273 5211.883)">
      <path id="Path_622" data-name="Path 622" d="M-642.048,5438.548c-1.306,1.264-1.38,2.116-.544,3.632,3.769,6.86,7.417,13.785,11.1,20.69,1.743,3.266,1.552,6.357-.528,8.749-2.145,2.466-5.013,3.108-8.564,1.854-12.621-4.459-25.229-8.95-37.867-13.36a6.349,6.349,0,0,0-3.26-.168,94.749,94.749,0,0,1-37.322.729c-4.653-.872-9.135-2.888-13.548-4.735a6.925,6.925,0,0,1-3.461-9.533,7.326,7.326,0,0,1,9.484-3.5c3.613,1.39,7.207,3.159,10.969,3.778a78.511,78.511,0,0,0,32.766-1.367,10.967,10.967,0,0,1,6.8.311c7.2,2.631,14.439,5.142,21.665,7.692.441.155.9.266,1.717.5-2.184-4.1-4.177-7.807-6.131-11.53-2.061-3.92-1.351-7.209,2.106-10.036,14.721-12.031,23.4-27.439,25.148-46.4,2.988-32.274-17.265-61.405-46.687-70.361-.671-.2-1.351-.392-2.006-.639a7.121,7.121,0,0,1-4.345-8.95,7.1,7.1,0,0,1,8.635-4.695,77.349,77.349,0,0,1,36.671,22.173c15.424,16.539,23,36.25,22.358,58.832C-617.516,5404.346-626.154,5423.143-642.048,5438.548Z" transform="translate(736.77 -5300.959)"/>
    </g>
    <g id="Group_2030" data-name="Group 2030" transform="translate(-1080.661 5279.245)">
      <path id="Path_623" data-name="Path 623" d="M-901.527,5512.88c0,.428,0,.856,0,1.28,0-.428.006-.852.006-1.28,0-.308,0-.612,0-.919C-901.524,5512.269-901.527,5512.573-901.527,5512.88Zm.01-1.334c.01-.9.023-1.805.023-2.706C-901.494,5509.741-901.51,5510.645-901.517,5511.546Z" transform="translate(901.53 -5508.84)" fill="#fff"/>
      <path id="Path_624" data-name="Path 624" d="M-901.527,5512.88c0,.428,0,.856,0,1.28,0-.428.006-.852.006-1.28,0-.308,0-.612,0-.919C-901.524,5512.269-901.527,5512.573-901.527,5512.88Zm.01-1.334c.01-.9.023-1.805.023-2.706C-901.494,5509.741-901.51,5510.645-901.517,5511.546Z" transform="translate(901.53 -5508.84)"/>
    </g>
    <g id="Group_2031" data-name="Group 2031" transform="translate(-1101.697 5205.152)">
      <path id="Path_625" data-name="Path 625" d="M-901.52,5518.47c0,.308,0,.612,0,.92,0,.428,0,.853-.006,1.28,0-.424,0-.852,0-1.28C-901.527,5519.082-901.524,5518.778-901.52,5518.47Z" transform="translate(922.566 -5441.257)"/>
      <path id="Path_626" data-name="Path 626" d="M-901.467,5508.84c0,.9-.013,1.8-.023,2.706C-901.483,5510.645-901.467,5509.741-901.467,5508.84Z" transform="translate(922.539 -5434.749)"/>
      <path id="Path_627" data-name="Path 627" d="M-901.527,5512.88c0,.428,0,.856,0,1.28,0-.428.006-.852.006-1.28,0-.308,0-.612,0-.919C-901.524,5512.269-901.527,5512.573-901.527,5512.88Zm.01-1.334c.01-.9.023-1.805.023-2.706C-901.494,5509.741-901.51,5510.645-901.517,5511.546Z" transform="translate(922.566 -5434.749)"/>
      <path id="Path_628" data-name="Path 628" d="M-925.22,5351.1a37.671,37.671,0,0,1-4.352.336c-1.141.013-1.478.458-1.468,1.559.039,4.64.074,9.287-.026,13.927a7.006,7.006,0,0,1-5.544,6.727,7.013,7.013,0,0,1-7.906-3.665,9.374,9.374,0,0,1-.852-3.568c-.107-2.268-.062-4.54-.045-6.817,0-.428.007-.852.007-1.28,0-.308,0-.612,0-.919,0-.14,0-.272,0-.412v0c.01-.9.023-1.805.023-2.706,0-.813-.01-1.627-.049-2.437-.376-8.156,5.253-13.023,11.821-14.352,1.837-.373,3.749-.389,5.622-.606,11.241-1.292,19.653-10.92,19.086-21.827a21.507,21.507,0,0,0-20.913-20.34,21.408,21.408,0,0,0-22.157,19.3c-.075.807-.11,1.617-.175,2.424a7.179,7.179,0,0,1-7.258,6.639,7.089,7.089,0,0,1-7.048-7.031,33.728,33.728,0,0,1,10.563-25.285c10.4-9.967,22.828-13,36.5-8.623,13.438,4.3,21.7,13.817,24.325,27.747C-891.384,5329.4-905.512,5348.552-925.22,5351.1Z" transform="translate(966.45 -5280.186)"/>
    </g>
    <g id="Group_2032" data-name="Group 2032" transform="translate(-1080.69 5305.948)">
      <path id="Path_629" data-name="Path 629" d="M-887.249,5598.417a7.164,7.164,0,0,1-7.19,7.21,7.2,7.2,0,0,1-7.181-7.229,7.243,7.243,0,0,1,7.113-7.148A7.232,7.232,0,0,1-887.249,5598.417Z" transform="translate(901.62 -5591.249)"/>
    </g>
  </g>
</svg>
