<svg xmlns="http://www.w3.org/2000/svg" width="164" height="288" viewBox="0 0 164 288">
  <g id="Group_2206" data-name="Group 2206" transform="translate(-2959.192 -6879.065)">
    <path id="Path_1094" data-name="Path 1094" d="M3107.832,7060.9q.06-.3.15-.6c.06-.2.13-.39.2-.58s.17-.38.26-.57c.05-.09.09-.18.15-.27a6.788,6.788,0,0,1,.78-1.14c.23-.28.49-.56.77-.84a15.691,15.691,0,0,1,1.46-1.23c.18-.14.37-.27.56-.41.27-.18.53-.37.78-.56.51-.39,1.01-.8,1.49-1.23.24-.2.47-.41.69-.62l.04-.04c.23-.22.47-.45.7-.68.32-.32.64-.64.95-.97.55-.58,1.09-1.17,1.63-1.77,1.58-1.78,3.12-3.62,4.75-5.32v-3q-4.932-7.48-9.853-14.959a.747.747,0,0,0,.088.062l-.027-.025.032.022c-1.02-3.31-1.72-6.77-3.17-9.88-.93-1.99-2.84-3.62-4.54-5.13-5.38-4.76-11.69-8.44-15.36-15.12-1.3-2.36-4.52-3.65-6.85-5.41,10.92-7.62,12.41-9.56,17.31-22.53,9.73-.8,15.27-8.32,12.43-16.99-.45-1.38-1.13-3.37-2.18-3.75-6.01-2.14-4.27-7.03-4.77-11.42-1.3-11.53-2.75-23.09-8.96-33.3a26.317,26.317,0,0,0-2.96-3.49c.01.01.02.01.03.02-6.17-10.5-16.07-15.55-27.39-18.03-14.28-3.12-28.09-.29-41.62,4.42-1.39.48-2.77.97-4.34,1.52-1.01-2.83-1.94-5.42-2.87-8.01h-3c-.87,3.14-1.75,6.29-2.65,9.54-1.65.69-4.48,1.02-5.38,2.51-.78,1.3.63,3.92,1.32,7.07-8.39,13.77-9.62,29.66-4.42,46.45-5.55,3.44-7.18,8.51-5.34,14.58,1.81,5.96,6.06,8.91,12.2,8.78,5.16,12.82,5.16,12.82,18.7,23.65-3.35,1.63-5.79.69-8.64-1.77-4.89-4.22-10.44-7.66-15.67-11.49a10.812,10.812,0,0,1-2.02-2.19q-2.625-3.33-5.18-6.71c-11.97-15.8-12.06-15.79-14.77-35.13-.61-4.36-1.66-6.81-6.87-5.5-5.66,1.44-11.51,2.17-17.28,3.21v4c.61,2.98,1.39,5.94,1.8,8.95.63,4.78,2.39,8.2,7.92,8.3,4.94.1,7.8,2.79,10.09,7.19.18.34.36.68.55,1.02.14.26.28.51.42.76.43.75.88,1.5,1.34,2.24.27.44.55.88.83,1.31.25.39.5.77.76,1.16.89,1.34,1.81,2.66,2.73,3.98q.96,1.365,1.89,2.73c.54.78,1.08,1.56,1.59,2.35.01.01.02.01.02.02-4.11-7.34-7.94-14.86-12.55-21.86-1.08-1.64-4.78-1.9-7.34-2.13-4.22-.38-6.23-2.66-6.83-6.54-.55-3.6-1.1-7.21-1.39-10.83-.07-.91.75-2.61,1.39-2.73a111.515,111.515,0,0,1,12.76-1.59c.67-.05,1.47,1.69,2.74,3.28-4.34.37-7.66.65-11.84,1.01,1.04.79,1.22,1.04,1.38,1.03,2.97-.12,6.58-1.34,8.68-.07,1.63.99,1.37,5.1,2.05,8.32h-10.37c-.01.37-.02.74-.03,1.1,2.18,0,4.45-.34,6.54.11,1.59.35,2.95,1.72,4.42,2.63-1.41.75-2.77,1.58-4.24,2.19-.72.3-1.62.19-2.48.81,1.41.1,2.83.21,4.25.3,3.5.24,4.19-1.49,3.69-4.67-.83-5.3-1.3-10.65-2.05-17.11,1.7,1.01,3.1,1.38,3.22,2,1.08,5.33,1.88,10.72,2.87,16.07.43,2.31.62,4.88,1.77,6.82,2.71,4.57,5.86,8.88,8.98,13.19,3.02,4.16,6.22,8.19,9.29,12.21-1.63,2.84-3.18,5.54-4.98,8.67-3.41-4.17-6.73-8.25-10.06-12.32.08.14.16.29.23.44.15.24.28.5.41.75.21.4.42.8.63,1.21.27.55.55,1.1.84,1.64.13.27.28.53.43.8s.3.52.46.78.32.51.49.76c.09.14.19.28.29.41.15.2.3.4.46.59a3.018,3.018,0,0,0,.24.28,3.327,3.327,0,0,0,.25.28c4.32,4.55,5.41,9.61,3.94,15.46-1.15,4.55-.04,7.77,4.88,9.17a13.33,13.33,0,0,1,4.89,2.41c1.18.97,2.7,2.79,2.5,3.96q-6.525,37.8-13.51,75.52a24.262,24.262,0,0,1-3.09,7.31c-3.6,6.32-1.5,16.13,4.47,20.53,4.17,3.08,4.18-2.24,6.33-1.93,7.81.63,15.62,1.26,23.98,1.94.43,2.96,2.28,6.74-.92,10.36a1.81,1.81,0,0,0-.27,1.44c1.73,6.46-1.58,11.3-4.56,16.63-5.35,9.61-3.38,15.04,6.65,20.36h10.39c1.08-.91,2.19-1.83,3.29-2.75q1.74-1.455,3.5-2.92c2.34-1.96,4.69-3.96,7-5.99.23-.2.44-.4.65-.61a8.006,8.006,0,0,0,1.84-2.6,4.569,4.569,0,0,0,.25-.71,7.056,7.056,0,0,0,.16-.8,6.49,6.49,0,0,0-.15-2.33,6.262,6.262,0,0,0-.25-.86q-.15-.435-.36-.9c-1.16-2.58-.88-5.8-1.3-9.2a12.226,12.226,0,0,1,1.29.32,7.608,7.608,0,0,1,1.06.41,6.481,6.481,0,0,1,.83.48,3.908,3.908,0,0,1,.6.53.123.123,0,0,1,.05.05,3.088,3.088,0,0,1,.4.51,1.293,1.293,0,0,1,.11.2.552.552,0,0,1,.09.17,1.582,1.582,0,0,1,.1.23.078.078,0,0,1,.02.05.552.552,0,0,1,.04.12,3.947,3.947,0,0,1,.12.49c.02.11.04.22.05.34.01.14.02.28.02.42a11.215,11.215,0,0,1-.92,3.72c-.05.15-.1.3-.15.44s-.09.29-.13.43a4.578,4.578,0,0,0-.16.58c-.04.15-.08.31-.11.46-.04.18-.07.36-.1.54a4.5,4.5,0,0,0-.08.63,8.5,8.5,0,0,0-.06,1,3.162,3.162,0,0,0,.02.43,1.338,1.338,0,0,0,.01.2,2.183,2.183,0,0,0,.03.36.87.87,0,0,0,.02.16c.01.1.03.21.05.31a1.591,1.591,0,0,0,.06.3,7.458,7.458,0,0,0,.56,1.67,3.022,3.022,0,0,0,.18.36c.08.16.17.32.26.47s.21.33.32.49.23.32.35.48.25.31.38.46a10.18,10.18,0,0,0,.85.9c.15.15.31.29.47.44.12.11.24.21.36.31s.24.21.37.31q2.445,1.98,4.89,3.92c.47.38.94.76,1.4,1.12,2.05,1.63,4.08,3.25,6.11,4.86h9.48a1.724,1.724,0,0,1,.2-.08c.23-.09.46-.18.68-.28.28-.12.56-.24.82-.36.19-.09.37-.17.54-.26s.36-.17.53-.26.35-.18.52-.27c.33-.18.65-.36.95-.55s.61-.39.89-.59.56-.41.83-.62.51-.43.75-.65.46-.45.68-.68.42-.47.62-.72a7.567,7.567,0,0,0,.52-.74,9.945,9.945,0,0,0,1.39-6.88c-.02-.19-.05-.37-.08-.56-.62-3.58-2.65-7.03-4.49-10.28-.11-.2-.23-.4-.35-.59-.35-.59-.72-1.17-1.09-1.74-.24-.38-.48-.76-.72-1.15v-.01c-.23-.38-.46-.77-.68-1.16-.11-.19-.21-.39-.31-.59-.19-.39-.38-.79-.54-1.2a9.535,9.535,0,0,1-.39-1.25c-.06-.21-.1-.42-.14-.64v-.01a4.188,4.188,0,0,1-.07-.62,5.843,5.843,0,0,1-.04-.73,3.912,3.912,0,0,1,.03-.68,9.487,9.487,0,0,1,.24-1.43,3.091,3.091,0,0,1,.11-.37,3.314,3.314,0,0,1,.12-.38,1.7,1.7,0,0,0-.06-1.06c-.05-.14-.1-.29-.15-.44-.04-.12-.09-.23-.14-.35-.14-.34-.29-.69-.41-1.04-.04-.12-.07-.24-.1-.36-.07-.31-.14-.63-.2-.94-.13-.61-.26-1.22-.38-1.81-.25-1.2-.47-2.32-.66-3.28-.04-.24-.09-.47-.13-.69v-.01c1.63-.33,3.22-.64,4.78-.95.52-.1,1.04-.2,1.55-.31,1.03-.21,2.05-.41,3.06-.61,2.31-.46,4.57-.91,6.84-1.37,1.71-.34,3.41-.68,5.13-1.02q1.5-.3,3.03-.6h.01c.16.2.36.45.59.74.7.87,1.68,2.1,2.65,3.31,6.75-3.89,9.27-9.57,8.53-16.11a22.127,22.127,0,0,0-.37-2.21c-.06-.27-.12-.55-.2-.83-.05-.2-.1-.41-.16-.61-.17-.64-.37-1.28-.61-1.93-.09-.26-.19-.52-.29-.79a.061.061,0,0,0-.01-.04c-.05-.13-.09-.26-.14-.39-1.13-2.85-2.08-5.77-2.95-8.73-.64-2.19-1.22-4.41-1.78-6.64-.17-.65-.33-1.31-.49-1.96-.51-2.1-1.02-4.22-1.54-6.32-.2-.83-.41-1.65-.62-2.47-.42-1.65-.85-3.29-1.32-4.92a16.317,16.317,0,0,1-.4-1.73,2.9,2.9,0,0,1-.06-.41.047.047,0,0,1-.01-.06.76.76,0,0,1-.03-.21.019.019,0,0,1,0-.03c-.02-.17-.04-.34-.05-.51a8.322,8.322,0,0,1,.12-2.14Zm-12.99-25.89c.32-.09.65-.19.98-.29.2-.05.41-.11.61-.16a10.946,10.946,0,0,1,1.8-.35,5.21,5.21,0,0,1,.55-.03,2.039,2.039,0,0,1,.25.01,1.6,1.6,0,0,1,.23.02l.24.03a.8.8,0,0,1,.21.05,2.285,2.285,0,0,1,.46.16,1.84,1.84,0,0,1,.46.28c.07.06.14.12.2.18a1.368,1.368,0,0,1,.19.22,1.511,1.511,0,0,1,.27.42,3.508,3.508,0,0,1,.31.83c.9,3.56.28,7.57-.05,11.36-.14,1.52-1.23,2.95-1.89,4.43,2.44-3.11,4.87-6.21,7.41-9.46.62-.79,1.24-1.58,1.87-2.39-2.7-2.39-5.27-4.66-7.81-6.9,3.32-2.77,6.56-5.46,9.8-8.16-.43-.49-.86-.99-1.29-1.49q1.825,1.152,3.661,2.324l0,.009h.006c2.23,3.939,4.439,7.888,6.659,11.817,2.08,3.69,1.6,7.1-1.56,9.81-5.26,4.53-10.72,8.83-16.09,13.23-1,.83-2.75,1.6-2.86,2.54-.82,7.45-6.88,8.48-12.24,10.41-1.97-3.86-4-7.7-5.88-11.61a3.351,3.351,0,0,1-.1-2.68c1.75-2.88,6.86-1.61,7.54-5.96,2.06.93,4.12,1.85,6.17,2.78.44.2.86.43,1.84.92.67-1.52,1.3-2.93,1.93-4.35a6.61,6.61,0,0,1-3.66,1.51,1.763,1.763,0,0,1-.4-.04h-.02a2.6,2.6,0,0,1-.4-.1,2.305,2.305,0,0,1-.49-.26,2.331,2.331,0,0,1-.54-.5c-.06-.08-.12-.16-.18-.25a3.107,3.107,0,0,1-.2-.36,6.3,6.3,0,0,1-.55-1.94q-.03-.285-.06-.6c-.41-5.29-.67-10.59-1.02-16.18C3092.712,7034.615,3093.912,7035.275,3094.842,7035Zm-8.76,40.7c-.41.25-.74.51-.74.76,0,.13,0,.26-.01.39s0,.23-.01.34c-.01.22-.03.43-.05.63a5.852,5.852,0,0,1-.38,1.63,3,3,0,0,1-.17.36,2.66,2.66,0,0,1-.37.52,1.929,1.929,0,0,1-.45.37c-.09.05-.18.1-.27.14a1.068,1.068,0,0,1-.25.08,2.592,2.592,0,0,1-.42.09,1.67,1.67,0,0,1-.22.02,4.379,4.379,0,0,1-1.01-.06c-.11-.01-.22-.04-.34-.06-.01,0-.01,0-.02-.01a3.376,3.376,0,0,1-.41-.09,2.225,2.225,0,0,1-.25-.06c-.2-.05-.4-.11-.6-.17q-.42-.12-.84-.27c-.34-.11-.67-.22-1.01-.33-.18-.66-.36-1.31-.55-1.97-1.33-4.84-2.67-9.7-4.06-14.78.57-.25,1.1-.46,1.6-.63a8.235,8.235,0,0,1,.95-.28,6.136,6.136,0,0,1,1.29-.16,3.117,3.117,0,0,1,.69.07,1.989,1.989,0,0,1,.35.09,2.291,2.291,0,0,1,.6.27,1.632,1.632,0,0,1,.22.14,3.316,3.316,0,0,1,.63.57,2.091,2.091,0,0,1,.23.28,9.122,9.122,0,0,1,1.22,2.45,3.828,3.828,0,0,0,.17.43c.05.12.11.25.17.38a9.257,9.257,0,0,0,.74,1.34c.16.25.33.5.51.74.15.2.3.41.46.61,1.16,1.48,2.54,2.89,3.7,4.38-.01.01-.01.01-.02.01v.01l.03.54c.02.18.03.36.04.54l-.01.01c-.15.1-.32.2-.49.3-.11.06-.22.12-.33.19a.245.245,0,0,0-.07.04C3086.242,7075.6,3086.162,7075.655,3086.082,7075.705Zm-1.09-35.66v-.01c-.09-.26-.18-.53-.27-.8-.11-.34-.2-.67-.3-1.01a21.631,21.631,0,0,1-.61-3.13c-.03-.29-.05-.59-.07-.89,0-.019,0-.038,0-.057.017.317.035.633.071.947-.035-.345-.056-.694-.071-1.044-.016-.451-.027-.907-.009-1.366a4.708,4.708,0,0,1,.03-.53c.01-.17.03-.35.05-.53.04-.3.08-.6.13-.91a1.576,1.576,0,0,1,.04-.23c.03-.23.09-.46.14-.69.11-.49.25-.99.41-1.49.08-.26.17-.51.27-.77,2.09,2.4,4.84,4.09,5.03,6.03.05.56.1,1.12.14,1.68s.07,1.12.09,1.69c.01.12.02.24.02.36.01.3.02.6.02.9.03.9.03,1.79.02,2.7,0,.43-.01.86-.02,1.29-.01.57-.03,1.15-.06,1.72-.01.2-.02.4-.02.6-.12,2.48-.32,4.96-.56,7.45,0-.01,0-.01-.01-.02v-.01a10.646,10.646,0,0,0-.27-1.12c-.11-.39-.22-.77-.34-1.15-.33-1.04-.73-2.07-1.17-3.1-.11-.29-.23-.57-.35-.85-.4-.93-.82-1.87-1.21-2.82-.15-.37-.31-.74-.47-1.12v-.01C3085.422,7041.185,3085.2,7040.615,3084.992,7040.045Zm5.76-41.22q-15.36,1.185-30.85,2.38c-.06-.73-.13-1.46-.2-2.19a39.808,39.808,0,0,1,22.45-6.2C3086.5,6992.985,3089.132,6996,3090.752,6998.825Zm-18.27,10.28c-.78-2.05-2.39-4.64-1.73-6.12.64-1.42,3.75-1.71,6.81-2.9-.73,6.35-1.33,11.54-1.92,16.61C3074.462,7013.885,3073.392,7011.525,3072.482,7009.1Zm.85,4.25c-8.58,1.97-14.8-3.06-13.2-11.13C3066.992,7003.415,3070.6,7007.845,3073.332,7013.355Zm39.1-58.11c-.09,6.73-4.4,11.04-11.8,10.7.96-4.3,1.88-8.43,3.07-13.81,1.49,2.17,2.02,2.93,2.91,4.24-.41-3.61-.74-6.55-1.08-9.49C3109.962,6946.755,3112.5,6949.835,3112.432,6955.245Zm-7.47-22.37c.84,9.34-1.33,18.08-5.01,26.5l-1.61-.33q2.67-13.215,5.33-26.43C3104.1,6932.705,3104.532,6932.785,3104.962,6932.875Zm-104.04,27.94c-2.35-4.1-2.05-9.92,1.05-12.52,1.67-1.39,4.27-1.67,6.45-2.45.21.66.43,1.31.65,1.96-1.16.49-2.32.99-3.41,1.45,8.06,3.81,3.4,11.1,5.54,16.54C3005.792,6967.165,3003.022,6964.475,3000.922,6960.815Zm10.6-14.7c-6.58-.44-7.32-5.37-8.23-10.22-2.65-14.09.16-27.09,7.74-38.95-1-1.74-1.91-3.34-2.83-4.95l6.11-1.58c.43-2.83.92-6.13,1.42-9.44l1.68-.12c.78,2.7,1.55,5.39,2.15,7.47,9.29-2.19,18.53-5.11,28-6.45,17.55-2.48,32.99,2.12,44.88,16.09a6.334,6.334,0,0,0,1.851,1.135l0,.008.008,0c.879,1.858,1.7,3.735,2.647,5.563,5.74,11.01,8.12,22.38,4.27,33.53a56.175,56.175,0,0,0-6.03-4.49,9.445,9.445,0,0,0-5.26-1.36c-9.2,1.07-16.32-3.65-23.99-7.58-12.81-6.55-26.8-8.34-41.22-8.33-.65,4.52-1.04,8.79-1.96,12.95-.31,1.42-1.84,3.52-2.99,3.65-6.37.66-8.45,4.23-7.91,10.12A14.292,14.292,0,0,1,3011.522,6946.115Zm50.02-9.07c-.41.13-.83.26-1.26.38-.38.1-.77.2-1.17.28a13.458,13.458,0,0,1-2.8.32,8.479,8.479,0,0,1-1.52-.14c-2.55-.47-5.1-.97-7.65-1.48-7.65-1.54-15.3-3.21-23.09-4.85.25-1.82.53-3.88.84-6.13.16-1.13.32-2.3.48-3.52s.34-2.49.52-3.79c17.7-.38,34.21,3.33,49.56,13.71-4.59,1.75-8.44,3.35-12.27,4.68C3062.632,6936.685,3062.092,6936.865,3061.542,6937.045Zm-14.21,19.02c-5.07,4.38-11.07,6.72-17.88,5.92-6.55-.77-12.74-11.36-9.32-16.87,1.57-2.51,5.76-3.38,8.91-5.08,6.19,1.96,11.83,3.27,17.04,5.54C3050.762,6947.615,3051.232,6952.685,3047.332,6956.065Zm19.98-10.23c4.46-2.02,9.31-3.16,13.99-4.68,4,.89,10.36,6.88,10.5,10.54.19,4.79-5.87,10.81-11.19,9.85a42.175,42.175,0,0,1-14.16-5.46C3061.992,6953.365,3062.562,6947.985,3067.312,6945.835Zm-54.87,14.99c5.23,8.44,11.8,10.7,23.89,7.92a89.772,89.772,0,0,0,15.89-5.58c4.29-1.89,7.68-1.77,12.14.28a79.028,79.028,0,0,0,19.84,5.68c5.97.99,11.81-.19,13.72-7.91.44.2.87.4,1.31.59-.16,2.42.1,4.96-.55,7.24-3.56,12.68-12.09,19.73-24.79,23.17-12.93,3.51-25.5,3.88-38.19-.24C3020.792,6987.125,3011.942,6975.5,3012.442,6960.825Zm45.43,43.81c-.37,1.35-2.99,2.08-4.6,3.1-.38-.53-.77-1.06-1.15-1.59.1-.8-.05-1.78.35-2.38,1.29-1.87,2.79-3.6,4.21-5.39C3057.162,7000.485,3058.372,7002.795,3057.872,7004.635Zm-5.38-4.93c-6.01,3.87-20.82.67-26.39-6C3036.052,6993.025,3044.392,6994.915,3052.492,6999.705Zm12.01,31.89c-5.91.3-11.84.34-17.75.06-1.14-.06-2.2-1.92-3.29-2.94,1.25-.54,2.48-1.43,3.77-1.54,2.79-.24,5.61-.07,8.42-.07v-.03c2.81,0,5.63-.17,8.42.08,1.25.11,2.42,1.05,3.63,1.62C3066.642,7029.755,3065.612,7031.535,3064.5,7031.6Zm3.34,1.63c.22,10.06-3.68,14.87-12.43,14.67-6.67-.16-12.67-3.1-11.37-14.67Zm-31.13-18.83c2.97-5.77,6.72-10.38,14.11-11.37C3050.022,7012.255,3045.322,7015.965,3036.712,7014.4Zm-.14-3.56c-.27-3.56-.48-6.3-.75-9.73,2.74.65,4.86,1.15,7.68,1.83C3041.092,7005.675,3039.212,7007.825,3036.572,7010.835Zm-36.26,107.11c-7.93-6.09-8.42-12.17-5.33-20.64a218.628,218.628,0,0,0,9.09-34.01c3.14-16.43,5.22-33.07,7.75-49.62,8.19,1.27,8.26,1.46,7.78,9.41-.87,14.26-1.13,28.57-2.55,42.77a129.57,129.57,0,0,1-12.07,43.93C3003.632,7112.585,3001.9,7115.195,3000.312,7117.945Zm4.55-4.58c15.61-30.5,15.36-63.44,16.39-96.21,4.29.32,5.96,1.88,6.04,5.97.12,6.43,1.88,12.88-1.08,19.14-.34.73-.27,1.75-.76,2.32-4.88,5.769-3.74,11.609-.4,17.529l0,0c.05,0,.1-.01.15-.01h0c-.07.8-.149,1.6-.249,2.407-.07.63-.15,1.27-.22,1.91s-.15,1.28-.21,1.91c-.03.3-.06.6-.08.9-.03.25-.04.5-.06.75-.02.3-.04.6-.05.9q-.03.631-.03,1.26c0,.61.02,1.22.07,1.83,1.07,13.72,2.54,27.41,3.91,41.54C3020.122,7116.515,3012.512,7117.675,3004.862,7113.365Zm19.609-63.716c-.022.047-.048.1-.069.143v-.007C3024.422,7049.741,3024.45,7049.693,3024.471,7049.649Zm-.19.407c-.052.117-.093.229-.14.343.025-.062.046-.121.071-.184v-.01C3024.237,7050.157,3024.257,7050.1,3024.281,7050.056Zm-.365.931c-.05.144-.093.286-.134.427a.015.015,0,0,1,0-.019c.04-.13.08-.25.12-.37C3023.906,7051.012,3023.912,7051,3023.916,7050.987Zm-.22.707c-.066.254-.12.5-.16.749.019-.09.04-.183.056-.278v-.02c.03-.11.05-.23.08-.35v-.02C3023.681,7051.748,3023.688,7051.721,3023.7,7051.694Zm-.165.773c-.033.209-.051.415-.066.62l.017-.182a.019.019,0,0,1,0-.03c.01-.11.03-.22.04-.34v-.02Zm10.7,26.6c-.43.22-.85.47-1.28.71l-.48.27c-.16.09-.32.17-.48.25-.12.06-.24.12-.37.18a1.075,1.075,0,0,0-.13.05c-.17.06-.33.12-.5.17a2.976,2.976,0,0,1-.49.13c-2.28.43-4.25.15-4.35-3.07-.04-1.32-.1-2.63-.17-3.95-.05-.89-.1-1.77-.16-2.66-.09-1.51-.19-3.02-.3-4.52s-.21-3.01-.3-4.52c1.19-.06,2.38-.12,3.54-.19.75-.04,1.49-.07,2.21-.11,1.14-.06,2.23-.12,3.25-.18,0,6.02,0,11.73.01,17.43Zm-7.41,3.53v-.01c.57-.04,1.15-.09,1.72-.13q1.455,20.445,2.91,40.91h-.01l-1.24.09Q3028.507,7103.025,3026.822,7082.6Zm27.49,66.78a.01.01,0,0,1,.01-.01,4.534,4.534,0,0,0-.01.57,7.581,7.581,0,0,1-.09,1.68,2.365,2.365,0,0,1-.18.55,1.273,1.273,0,0,1-.31.41c-5,4.28-9.73,9.37-15.54,12.04-8.63,3.97-17.08-1.84-16.72-10.22a4.188,4.188,0,0,0,.52.5c.1.08.22.17.34.25l.18.12a1.687,1.687,0,0,0,.2.13c.21.13.44.27.69.41s.49.25.75.37.54.25.82.37.54.23.83.34.57.22.87.32.59.21.9.31c.52.16,1.06.32,1.6.48h.01a35.862,35.862,0,0,0,3.51.78c.25.04.5.08.74.11a9.939,9.939,0,0,0,1.05.12c.19.02.38.03.57.04a10.257,10.257,0,0,0,1.94-.03l.41-.06a4.153,4.153,0,0,0,1.03-.33c2.74-1.39,5.39-2.92,8.02-4.5.66-.39,1.32-.79,1.97-1.19,1.06-.65,2.12-1.29,3.18-1.94C3052.5,7150.455,3053.412,7149.9,3054.312,7149.375Zm-23.81-12.23c.05-.01.11-.03.16-.04a1.681,1.681,0,0,1,.32-.06l.26-.03a1.181,1.181,0,0,1,.19-.01,1.977,1.977,0,0,1,.24-.01c.15,0,.29.01.44.02l.32.03a3.5,3.5,0,0,1,.43.06c.13.02.26.04.4.07.25.05.5.1.75.16.17.04.33.09.5.12.32.08.65.16.97.25a9.317,9.317,0,0,1,1.38.47c.22.09.43.19.63.29a6.934,6.934,0,0,1,1.11.69,4.942,4.942,0,0,1,.44.36,1.056,1.056,0,0,1,.23.2,3.882,3.882,0,0,1,.29.28,3.8,3.8,0,0,1,.33.37q.165.195.3.39c.07.09.13.18.19.27a6.4,6.4,0,0,1,.53.96c.07.14.14.29.2.44s.12.29.17.44a8.057,8.057,0,0,1,.29.99c.04.15.07.29.1.45a9.744,9.744,0,0,1,.18,1.12l-1.29-.66c-.43-.22-.86-.43-1.28-.65-.84-.42-1.67-.84-2.49-1.27-2.06-1.04-4.08-2.07-6.12-3.11-.68-.34-1.36-.69-2.05-1.04a3.711,3.711,0,0,1,.29-.44,3.124,3.124,0,0,1,.58-.6,2.717,2.717,0,0,1,.56-.34c.1-.05.19-.08.29-.12A1.369,1.369,0,0,1,3030.5,7137.145Zm24.44-4.2c-.01.16-.03.32-.05.48l-.03.21c-.02.16-.05.31-.08.46a6.343,6.343,0,0,1-.18.66c-.05.14-.1.28-.16.41-.05.11-.1.22-.15.32a3.306,3.306,0,0,1-.33.53,4.778,4.778,0,0,1-.36.43,3.42,3.42,0,0,1-.53.47,10.615,10.615,0,0,1-2.01,1.14c-.37.15-.75.3-1.13.42-.2.06-.39.12-.59.18-.01.01-.01.01-.02.01q-.42.12-.84.21a17.233,17.233,0,0,1-2.3.39,24.627,24.627,0,0,1-2.57.14c-.41,0-.82-.01-1.22-.03s-.79-.06-1.17-.1a11.985,11.985,0,0,1-1.57-.29,3.242,3.242,0,0,1-.51-.14c-.01.01-.01.01-.02,0-.35-.11-.69-.23-1.02-.35-.17-.06-.34-.13-.51-.2-.62-.25-1.25-.55-1.87-.86-.34-.17-.67-.34-1-.52-.56-.29-1.13-.59-1.69-.89-.34-.18-.67-.36-1.01-.53s-.67-.34-1.01-.51c-.22-.12-.44-.22-.67-.32l-.01.01-1.03.94-.15-.6c-.15-.59-.33-1.19-.5-1.78a9.288,9.288,0,0,1-.37-2.43c0-.21.01-.41.02-.61.01-.08.01-.16.02-.25a3.547,3.547,0,0,1,.06-.47c.04-.2.09-.39.14-.57a3.318,3.318,0,0,1,.21-.5,1.215,1.215,0,0,1,.13-.21,1.642,1.642,0,0,1,.78-.62.57.57,0,0,1,.22-.07,2.348,2.348,0,0,1,.97-.05,4.134,4.134,0,0,1,.44.08,3.267,3.267,0,0,1,.47.12c.17.05.34.11.52.18.37.14.73.28,1.1.4.32.11.63.21.95.3.13.04.25.07.38.11.19.06.39.11.58.15.28.07.56.14.84.2a.276.276,0,0,0,.13.03c.3.06.61.12.91.17a.848.848,0,0,0,.22.04c.19.03.37.06.56.08a.3.3,0,0,0,.16.02c.25.04.49.07.73.09a1.747,1.747,0,0,0,.22.02.03.03,0,0,0,.04,0,.045.045,0,0,0,.05,0c.3.03.61.05.91.06a21.171,21.171,0,0,0,2.52-.03q.51-.03,1.02-.09c.32-.04.64-.08.97-.13.64-.1,1.28-.22,1.93-.38.27-.06.53-.13.79-.2.14-.03.27-.07.4-.11.46-.13.92-.28,1.38-.43a.01.01,0,0,0,.01-.01q.81-.27,1.62-.6c.55-.22,1.09-.46,1.64-.72s1.1-.54,1.65-.83a.01.01,0,0,1,.01-.01l.18.78c.06.26.12.53.18.79a27.882,27.882,0,0,1,.54,3.16A13.212,13.212,0,0,1,3054.942,7132.945Zm1.35-34.51c-.09-.88-.18-1.77-.28-2.66-.07-.66-.14-1.33-.22-1.99q-.165-1.47-.36-2.94c-.57,9.36-1.4,18.72-1.6,28.1-.01.34-.02.66-.05.97a10.373,10.373,0,0,1-.17,1.19c-.04.23-.09.45-.14.66s-.12.42-.19.62c-.02.06-.05.13-.07.19a3.6,3.6,0,0,1-.14.35,2.529,2.529,0,0,1-.13.29,5.657,5.657,0,0,1-.37.69c-.1.17-.22.33-.33.49a5.949,5.949,0,0,1-.46.54,9.885,9.885,0,0,1-5.51,2.63,25.28,25.28,0,0,1-3.45.47c-1.59.08-2.94.12-4.07.08-.16,0-.31-.01-.46-.02l-.44-.03c-.24-.03-.47-.05-.69-.08a4.8,4.8,0,0,1-.7-.13,2.868,2.868,0,0,1-.31-.07c-.1-.03-.2-.06-.29-.09a2.967,2.967,0,0,1-.45-.16,2.468,2.468,0,0,1-.23-.11,1.128,1.128,0,0,1-.19-.1,2.672,2.672,0,0,1-.28-.17c-.09-.06-.17-.12-.26-.19s-.16-.15-.23-.22a2.925,2.925,0,0,1-.37-.42,1.445,1.445,0,0,1-.14-.2,4.8,4.8,0,0,1-.49-.96c-.07-.18-.13-.36-.19-.56-.01-.05-.02-.09-.03-.13q-.105-.345-.18-.72c-.04-.18-.07-.37-.1-.56-.05-.3-.1-.61-.14-.94-.02-.18-.04-.37-.06-.56-.1-.96-.17-2.05-.23-3.3-.22-4.46-.57-8.91-.92-13.36-.21-2.67-.41-5.35-.58-8.02-.18-2.84-.67-5.75-.61-8.55,0-.14.01-.29.01-.43l.03-.48c.02-.35.05-.69.1-1.03.01-.13.03-.25.05-.37.07-.44.15-.87.26-1.29a5.617,5.617,0,0,1,.15-.55c.06-.21.14-.42.22-.63s.16-.42.26-.63a9.922,9.922,0,0,1,.53-1.02,7.262,7.262,0,0,1,.46-.72c.08-.12.17-.24.26-.36a7.956,7.956,0,0,1,.6-.73c.1-.12.21-.23.33-.35s.23-.23.35-.35a3.15,3.15,0,0,1,.27-.25c.05-.04.1-.09.16-.13l.01-.01.15-.15c-.04.02-.09.04-.13.06.23-1.18.48-2.35.72-3.53.09-.42.18-.85.26-1.27.03-.14.06-.28.08-.42.08-.39.15-.77.22-1.16q.075-.39.15-.78c.07-.41.13-.81.19-1.22s.12-.81.17-1.22c.05-.46.09-.92.11-1.39.09-2.04-.06-4.25-.06-7.18-.06-.02-.15-.04-.24-.06-.12-.03-.26-.07-.43-.12a1.1,1.1,0,0,1-.15-.04,14.009,14.009,0,0,0-2.29-.46c-.2-.02-.4-.04-.6-.04-2.85-.08-6,1.48-7.82-2.33-.13-.29-.26-.57-.37-.84s-.22-.54-.31-.81a10.528,10.528,0,0,1-.28-1.03,2.791,2.791,0,0,1-.07-.38c-.02-.13-.04-.26-.05-.38s-.02-.26-.03-.38-.01-.25-.01-.38c0-.09,0-.181.007-.27-.008.217-.01.434,0,.65a7.83,7.83,0,0,1,.5-3.1c.032-.089.068-.179.1-.267.154-.4.341-.82.557-1.253.091-.179.178-.356.278-.539.056-.1.12-.215.18-.322.133-.237.267-.474.42-.724s.312-.515.488-.787c.23.31.44.61.66.92.38.53.77,1.08,1.2,1.67.31.42.64.87.99,1.36v.01c.23-.2.46-.41.67-.63s.42-.43.62-.65c.17-.18.33-.37.48-.56a6.434,6.434,0,0,0,.39-.52c.08-.1.15-.2.22-.3.13-.18.24-.35.35-.53s.22-.36.32-.54c.13-.22.25-.45.36-.68a3.368,3.368,0,0,0,.21-.43,17.283,17.283,0,0,0,1-2.74c.04-.13.08-.27.11-.41q.165-.63.3-1.26c.01-.03.01-.05.02-.08.08-.39.15-.8.22-1.2s.13-.79.19-1.18c.2-1.37.36-2.76.56-4.12.06-.45.13-.9.2-1.33.04-.24.08-.47.12-.7.03-.18.07-.36.11-.55.08-.42.17-.83.27-1.24.08-.32.16-.63.25-.94.11-.38.23-.75.37-1.12.07-.19.14-.38.22-.57a14.3,14.3,0,0,1,.86-1.81v-.01l.53.09c.44.08.9.15,1.37.23.28.04.56.09.85.14l1.7.27h.01c.11,1.09.19,2.17.28,3.23s.17,2.13.26,3.17c.04.52.09,1.05.14,1.57q.15,1.56.36,3.09v.01c.08.51.15,1.01.24,1.52a13.87,13.87,0,0,0,.35,1.51c.07.24.15.47.24.71a.161.161,0,0,0,.03.09,5.864,5.864,0,0,0,.24.58,9.94,9.94,0,0,0,.94,1.62,5.745,5.745,0,0,0,.44.56.026.026,0,0,0,.03.03c.08.09.15.18.23.26a.1.1,0,0,0,.04.05c0,.01.02.03.04.04.01.03.04.05.08.08a2.031,2.031,0,0,0,.25.26c.01.02.03.03.06.05.05.05.1.1.16.15a.357.357,0,0,0,.12.1,2.748,2.748,0,0,0,.33.28,2.264,2.264,0,0,0,.26.2c.17.13.34.25.53.37a2.338,2.338,0,0,0,.21.13c.2.12.4.24.62.35.05.03.11.06.17.09.27.13.54.25.83.37a.031.031,0,0,1,.02.01c.26.1.52.2.8.29.13.04.26.08.39.11.18.06.36.1.54.15l.39.09c.23.05.48.1.72.13a1.207,1.207,0,0,0,.2.04c.24.04.48.07.73.09a2.189,2.189,0,0,0,.25.03.677.677,0,0,0,.14.01c.35.04.71.06,1.08.07a34.519,34.519,0,0,0,3.57-.06,16.725,16.725,0,0,0,1.67-.19c.32-.04.63-.1.93-.16a10.079,10.079,0,0,0,1.02-.25,7.164,7.164,0,0,0,.7-.23c.23-.08.46-.17.67-.26a9.109,9.109,0,0,0,1.57-.87c.24-.17.46-.35.68-.54s.41-.39.61-.61v-.01a7.333,7.333,0,0,0,.54-.68q.255-.36.48-.75c.15-.27.28-.54.41-.83s.25-.6.36-.91.21-.65.3-.99c.05-.17.1-.35.14-.53.08-.34.15-.69.21-1.04a1.4,1.4,0,0,0,.06-.28c.04-.18.08-.37.11-.56,0-.014,0-.03,0-.047.035-.2.065-.406.1-.609s.068-.4.1-.6c.05-.35.1-.71.14-1.06.03-.27.07-.55.09-.83s.06-.56.09-.83c.05-.51.09-1.03.12-1.55.04-.59.08-1.19.1-1.78.04-.71.06-1.41.08-2.12v-.22a5.481,5.481,0,0,0-.03-.58,3.5,3.5,0,0,0-.06-.48,3.861,3.861,0,0,0-.39-1.23,2.954,2.954,0,0,0-.74-.94,1.558,1.558,0,0,0-.24-.19c-.05-.04-.11-.07-.16-.11-.12-.07-.24-.14-.37-.2a4.122,4.122,0,0,0-.64-.25c-.12-.04-.25-.07-.38-.1a8.289,8.289,0,0,0-2.13-.17c-1.22.04-2.44.07-3.67.09-.41,0-.81.01-1.23.01-2.96.04-5.95.02-9.02-.01-1.96-.02-3.94-.03-5.97-.03.36-1.44.69-2.74.97-3.85h20.8c.11.2.22.4.34.6s.23.4.35.59.25.38.38.57.26.37.4.54a7.325,7.325,0,0,0,.58.64,3.958,3.958,0,0,0,3.2,1.34c.12-.01.24-.03.37-.05.1-.02.2-.04.31-.07s.23-.07.35-.11c.14-.05.28-.1.43-.17a4.776,4.776,0,0,0,.46-.22,12.381,12.381,0,0,0,2.73-2.14v.01c1.81,8,3.42,15.34,5.2,22.65a1.742,1.742,0,0,0,.1.3c.04.1.08.19.13.29a4.233,4.233,0,0,0,.26.42c.1.14.2.28.31.42.21.27.45.53.68.8.21.23.41.47.59.71v.01c.06-.06.12-.11.19-.17.75-.61,1.51-1.24,2.29-1.87.13.19.24.38.35.57a5.7,5.7,0,0,1,.33.65,1.945,1.945,0,0,1,.13.3,3.114,3.114,0,0,1,.15.39c.05.16.1.31.14.46a5.672,5.672,0,0,1,.17,1.39c-.01.17-.02.34-.04.49a3.778,3.778,0,0,1-.1.57,2.54,2.54,0,0,1-.07.26c-.04.12-.08.25-.13.37a1.011,1.011,0,0,1-.09.22c-.03.07-.07.14-.1.22-.09.19-.2.38-.31.57-.1.15-.2.29-.31.44-.09.12-.18.24-.28.36a7.08,7.08,0,0,1-.53.58c-.11.11-.22.22-.34.33a12.7,12.7,0,0,1-1.54,1.22,5.518,5.518,0,0,0-.48.36c-1.07.84-2.01,1.89-3.05,2.81-.15.13-.3.26-.46.39a9.847,9.847,0,0,1-1.07.76c-.12.07-.24.13-.36.2s-.26.13-.39.19a5.176,5.176,0,0,1-.89.31l-.24.06a2.7,2.7,0,0,1-.41.07c-.11.02-.22.03-.34.04-.16.01-.33.02-.5.02h-.03l-.035,0c.191,0,.381,0,.565-.017-.2.014-.419.016-.638.012-.255-.012-.51-.027-.782-.062a.036.036,0,0,0-.03.01c-.24,0-.65.34-.99.75-.08.1-.16.21-.23.31a1.52,1.52,0,0,0-.21.33,2.352,2.352,0,0,0-.13.29.609.609,0,0,0-.04.34q.75,2.94,1.57,5.86c.17.65.36,1.3.55,1.95.74,2.59,1.52,5.17,2.3,7.75a.871.871,0,0,0,.25.37c.05.04.1.09.16.13s.13.1.2.15c.24.16.5.3.73.46q.1.33.24.66l.18.45a.853.853,0,0,0,.09.22l.27.66a21.2,21.2,0,0,1,.86,2.28,4.427,4.427,0,0,1,.13.49c.03.13.06.26.08.39a2.542,2.542,0,0,1,.07.47v.04a.974.974,0,0,1,.01.17,3.374,3.374,0,0,1,.01.45q-.36,9.48-.89,18.95c-.17,3.16-.36,6.31-.57,9.47s-.41,6.31-.64,9.46a2.409,2.409,0,0,1-.34,1.02c-.08.13-.16.27-.25.4s-.19.27-.29.4a5.667,5.667,0,0,1-.53.56c-.08.08-.17.16-.25.24-.11.09-.22.17-.33.25-.07.06-.15.11-.22.16s-.15.1-.23.14a2.028,2.028,0,0,1-.2.11c-.07.04-.14.07-.2.1-.09.03-.18.06-.26.09a20.051,20.051,0,0,1-6.93.37c-.69-.05-1.33-.11-1.93-.18q-.6-.075-1.14-.18c-.36-.06-.71-.14-1.03-.22-.17-.05-.33-.09-.48-.14-.31-.09-.6-.2-.88-.31a6.324,6.324,0,0,1-1.48-.81,6.024,6.024,0,0,1-.61-.51,4.949,4.949,0,0,1-.53-.59,6.984,6.984,0,0,1-.84-1.45,4.075,4.075,0,0,1-.17-.42,11.783,11.783,0,0,1-.42-1.41,14.46,14.46,0,0,1-.31-1.66c-.04-.29-.07-.6-.11-.91s-.06-.65-.09-.99c-.28-3.42-.53-6.83-.8-10.25-.18-2.28-.36-4.56-.57-6.84C3056.462,7100.215,3056.382,7099.325,3056.292,7098.435Zm12.206-59.287,0-.026Zm16.7,118.417c.45-.16.88-.33,1.31-.5s.84-.35,1.23-.54q.72-.345,1.35-.69a11.753,11.753,0,0,0,2.1-1.42c.09-.08.17-.16.25-.24a3.909,3.909,0,0,0,.4-.46c-.36,8.69-6.22,13.32-15.01,11.62a20.021,20.021,0,0,1-3.98-1.2c-.24-.1-.49-.21-.73-.32s-.49-.23-.72-.35c-.34-.17-.67-.35-1-.54a2,2,0,0,1-.32-.18c-.28-.17-.56-.34-.84-.52-.34-.22-.68-.45-1.02-.7s-.66-.49-.99-.74c-.84-.66-1.65-1.38-2.44-2.14-.21-.19-.42-.39-.62-.6s-.42-.41-.61-.62c-.65-.68-1.29-1.38-1.93-2.09-.24-.27-.49-.56-.73-.83-.07-.09-.15-.17-.21-.26-.62-.73-1.23-1.46-1.84-2.2a1.865,1.865,0,0,1-.25-.41,1.636,1.636,0,0,0,.18.315c-.024-.032-.05-.065-.07-.1a1.518,1.518,0,0,1-.11-.22.844.844,0,0,1-.08-.24,4.258,4.258,0,0,1-.11-.49.193.193,0,0,0-.01-.08,5.115,5.115,0,0,1-.03-.86,1.478,1.478,0,0,1,.01-.21,2.98,2.98,0,0,0,.01-.4v-.01c.7.4,1.39.81,2.08,1.22,1.82,1.08,3.62,2.17,5.41,3.23.6.35,1.2.71,1.8,1.05,2.39,1.4,4.8,2.73,7.27,3.92a6.657,6.657,0,0,0,3.14.41l.72-.06c.23-.02.46-.05.69-.08.45-.06.91-.14,1.37-.24.21-.04.43-.09.64-.14.28-.06.57-.13.85-.21A28.214,28.214,0,0,0,3085.2,7157.565Zm-2.24-28.23a.078.078,0,0,1,.02.04.307.307,0,0,1,.02.08c.01.01.01.01.01.02-.02.2-.05.41-.08.62-.06.49-.12,1.01-.2,1.53a4.541,4.541,0,0,1-.09.53.5.5,0,0,1-.02.12,6.592,6.592,0,0,1-.14.67c-.03.14-.07.28-.11.42a2.9,2.9,0,0,1-.12.39c-.04.12-.08.24-.13.36s-.11.25-.17.37a1.987,1.987,0,0,1-.18.32,2.465,2.465,0,0,1-.68.75q-1.065.75-2.22,1.41c-.11.07-.23.13-.34.19a3.678,3.678,0,0,1-.44.24c.16-.05.33-.1.49-.14.13-.04.25-.07.38-.11l.24-.06c.13-.04.26-.06.39-.09a2.8,2.8,0,0,1,.28-.05.759.759,0,0,1,.21-.03c.17-.02.34-.04.5-.05a5.149,5.149,0,0,1,1.24.02,1.583,1.583,0,0,1,.23.05c.04.01.07.01.11.02a.553.553,0,0,1,.12.04.953.953,0,0,1,.23.06,2.832,2.832,0,0,1,.32.14c.02.01.03.02.05.03.09.04.17.09.26.14s.19.13.29.2a.821.821,0,0,1,.09.09,1.28,1.28,0,0,1,.18.16,4.641,4.641,0,0,0,.33.39,3.764,3.764,0,0,1,.28.48.01.01,0,0,0-.01.01c-4.37,2.22-8.58,4.35-12.85,6.52a6.61,6.61,0,0,1-.1-1.14,5.2,5.2,0,0,1,.14-1.2.108.108,0,0,1,.02-.08,3.172,3.172,0,0,1,.12-.44,5.086,5.086,0,0,1,.34-.77.33.33,0,0,1,.07-.13.384.384,0,0,1,.06-.11c.06-.1.12-.18.18-.27,0-.01.01-.02.02-.03a3.186,3.186,0,0,1,.22-.29,4.836,4.836,0,0,1,.42-.48,4.994,4.994,0,0,1,.41-.39,2.747,2.747,0,0,1,.26-.22,8.451,8.451,0,0,1,1.02-.72,22.289,22.289,0,0,1-3.58.96c-3.1.53-6.53-.39-9.73-1.06a4.921,4.921,0,0,1-.58-.15,5.414,5.414,0,0,1-1.85-.9c-.12-.1-.23-.2-.34-.3a4.621,4.621,0,0,1-.57-.67,3.853,3.853,0,0,1-.42-.77,6.172,6.172,0,0,1-.28-.86c-.05-.23-.09-.46-.12-.7l-.03-.24c0-.021,0-.043-.006-.064a7.287,7.287,0,0,0,.156,1,8.037,8.037,0,0,1-.165-1.12l0-.021a10.678,10.678,0,0,1-.023-1.209,9.742,9.742,0,0,0,.014,1.1c0-.06-.011-.117-.014-.179,0-.14-.01-.28-.01-.42,0-.17,0-.33.01-.5a1.632,1.632,0,0,1,.01-.31c.01-.1.01-.2.02-.3.01-.21.03-.42.06-.64.18-1.55-.15-3.16-.31-5.91,8.15,4.28,15.45,4.98,23.05,2.06a.729.729,0,0,1,.23-.04,1.134,1.134,0,0,1,.25.03c.08.02.17.04.27.07s.2.07.3.11a.788.788,0,0,1,.16.07,8.452,8.452,0,0,1,.78.42c.11.07.21.14.31.21.07.05.14.1.21.16A2.007,2.007,0,0,1,3082.962,7129.335Zm-1.86-3.85h-.01c-.31-.03-.62-.05-.92-.07s-.62-.05-.92-.08q1.485-21.5,2.99-43.01v-.01l2.4.21Zm23.44-11.7a21.186,21.186,0,0,1-3.56,2c-.39.17-.78.33-1.18.48a24.658,24.658,0,0,1-2.43.77c-.41.11-.83.21-1.25.3-.24.05-.48.11-.71.14a1.96,1.96,0,0,1-.33.06q-1.035.179-2.1.3a50.088,50.088,0,0,1-9.64-.02c.03-.44.07-.88.11-1.32.15-1.84.32-3.64.46-5.43.04-.44.08-.88.11-1.31.06-.74.12-1.48.17-2.22.68-9.62,1.29-19.25,2.02-28.86a4.992,4.992,0,0,1,.16-.94c.06-.24.13-.47.21-.7q.135-.405.3-.81c.15-.39.3-.79.42-1.18l.01-.01c.27-.06.54-.11.81-.17.2-.05.4-.09.6-.13.65-.14,1.28-.28,1.88-.41.17-.04.33-.07.49-.11.4-.09.78-.17,1.14-.25v.01c.51,1.64,1.01,3.28,1.52,4.92l2.1,6.78q1.995,6.465,4.02,13c1.55,4.98,3.1,10,4.68,15.1A.01.01,0,0,0,3104.542,7113.785Zm3.71-40.88c.86,3.95,1.78,7.89,2.86,11.79a106.278,106.278,0,0,0,6.07,15.68,6.9,6.9,0,0,1,.37.99c.06.19.12.38.17.58.04.15.07.3.1.45a7.666,7.666,0,0,1,.16,1.07,4.911,4.911,0,0,1,.04.55,10.214,10.214,0,0,1-.02,1.46c-.03.31-.06.62-.1.92s-.1.62-.17.93a11.223,11.223,0,0,1-.28,1.11,7.632,7.632,0,0,1-.25.77,5.327,5.327,0,0,1-.21.56c-.07.19-.14.38-.23.57a7.883,7.883,0,0,1-.34.73c-.14.3-.29.6-.46.89a.872.872,0,0,1-.1.16,7.069,7.069,0,0,1-.47.78c-.17.28-.35.55-.55.82a.766.766,0,0,1-.08.11c-.2.28-.41.55-.64.82q-.345.435-.72.84c-.25.28-.51.55-.79.81-.25.25-.52.49-.79.73a18.788,18.788,0,0,1-1.9,1.47c-.71-1.52-1.44-3.03-2.17-4.54s-1.46-2.99-2.18-4.49c-1.42-2.99-2.79-5.99-3.95-9.07a181.767,181.767,0,0,1-5.3-18.16c-.22-.84-.45-1.67-.65-2.5-.07-.27-.13-.55-.19-.82s-.12-.55-.16-.82c-.04-.22-.08-.44-.1-.65a5.922,5.922,0,0,1-.08-.71c-.01-.12-.03-.24-.03-.37a8.14,8.14,0,0,1-.03-.85c0-.15.01-.29.02-.43.01-.19.03-.38.05-.56.02-.16.04-.32.07-.47.04-.23.1-.46.16-.69a8.072,8.072,0,0,1,.32-.9c.07-.17.15-.33.24-.5s.17-.32.27-.48a8.521,8.521,0,0,1,.9-1.2,5.076,5.076,0,0,1,.4-.42,3.178,3.178,0,0,1,.33-.31c.11-.11.23-.21.35-.31.24-.21.51-.42.79-.62a3.916,3.916,0,0,0,.45-.36c.15-.13.29-.27.43-.41a12.131,12.131,0,0,0,1.73-2.34c.1-.17.2-.35.29-.52.09-.15.17-.31.25-.46.3-.56.59-1.14.89-1.71l.45-.87c.15-.29.3-.57.46-.85s.32-.55.48-.82c.43.25.86.5,1.28.74v.01C3106.572,7064.975,3107.392,7068.955,3108.252,7072.9Z" fill="#1e2639"/>
    <path id="Path_1095" data-name="Path 1095" d="M3077.812,7137.5a1.758,1.758,0,0,0-.21.08,3.694,3.694,0,0,0-.47.16c-.19.07-.38.15-.56.23-.37.16-.73.32-1.08.5-.27.14-.54.29-.8.45.27-.09.53-.19.8-.3s.54-.22.8-.34c.42-.19.85-.39,1.26-.6a1.908,1.908,0,0,0,.28-.15.755.755,0,0,0,.18-.09c-.04.01-.08.02-.11.03A.244.244,0,0,0,3077.812,7137.5Z" fill="#1e2639"/>
    <path id="Path_1096" data-name="Path 1096" d="M3099.642,7052.195c-.31.27-.61.54-.92.81.3-.27.61-.53.92-.8Z" fill="#1e2639"/>
  </g>
</svg>
