<svg id="Group_2331" data-name="Group 2331" xmlns="http://www.w3.org/2000/svg" width="419.359" height="265.412" viewBox="0 0 419.359 265.412">
  <path id="Path_1420" data-name="Path 1420" d="M2371.558,4784.574q-46.767,36.559-105.092,25.887c-2.46-.444-4.649-.93-5.391-4.016-4.327-18.079-17.2-28.733-32.732-36.814a154.264,154.264,0,0,0-17.353-7.38c-2.345-.88-3.333-1.975-2.295-4.146,1.876-3.893,3.315-8.3,6.178-11.323a54.476,54.476,0,0,1,13.84-10.771c8.929-4.682,18.383-8.352,28-12.605,7.907,13.486,15.214,25.952,22.85,38.977,4.122-6.13,7.915-11.757,11.89-17.657-5.415-5.826-10.7-11.726-16.243-17.371-2.3-2.328-3.571-4.714-3.053-7.981a5,5,0,0,0-3.045-5.907c-7.7-3.851-12.1-10.005-12.482-18.818a20.841,20.841,0,0,0-.9-4.838,24.11,24.11,0,0,0-4.542-9.1c-6.714-8.278-9.471-18.431-10.014-29.037a3.819,3.819,0,0,1,4.237-4.345c2.386-10.375,4.123-20.637,7.142-30.51,4.583-14.975,16.425-23.738,32.066-24.4a90.514,90.514,0,0,1,19.238.75c13.585,2.379,22.825,10.549,26.685,23.813,2.847,9.792,4.641,19.9,6.994,30.264,3.827.814,4.459,1.867,4.056,6.763-.724,8.92-2.756,17.732-8.376,24.538-4.92,5.965-6.566,12.557-7.824,19.566-1.259,7.059-5.99,11.2-11.693,14.523-2.181,1.275-3.224,2.748-2.789,5.241.749,4.3-1.02,7.463-4.057,10.466-5.25,5.176-10.137,10.722-15.346,16.292,3.925,5.859,7.718,11.52,11.849,17.69.988-1.579,1.786-2.789,2.526-4.032,6.008-10.129,12.079-20.224,17.938-30.444,1.4-2.436,2.592-3.2,5.456-2.222,11.2,3.834,22.043,8.286,31.555,15.511,7.826,5.94,12.87,13.28,12.746,23.6a60.686,60.686,0,0,0,1.186,12.26C2375.441,4780.493,2374.216,4782.493,2371.558,4784.574Z" transform="translate(-1955.585 -4592.248)" fill="#611735"/>
  <path id="Path_1421" data-name="Path 1421" d="M2170.49,4762.406c-7.578,3.119-15.239,6.229-22.339,10.269-13.116,7.472-23.451,17.593-27.137,32.971-.683,2.847-2.3,4.229-5.233,4.764-39.051,7.109-74.219-1.357-105.536-25.845-2.665-2.089-3.809-4.114-3.192-7.594a96.063,96.063,0,0,0,1.309-13.905,24.8,24.8,0,0,1,8.031-17.873c10.671-10.285,24.01-15.577,37.809-19.9.865-.271,2.814,1.184,3.488,2.295,6.188,10.187,12.2,20.481,18.284,30.733.683,1.152,1.423,2.278,2.493,3.974,4.024-5.981,7.8-11.593,11.857-17.625-5.02-5.373-9.858-10.935-15.116-16.07-3.176-3.094-5.044-6.335-4.271-10.8.437-2.525-.69-4.015-2.871-5.2-7.052-3.859-11.52-9.553-12.285-17.806a24.928,24.928,0,0,0-1-4.4,26.188,26.188,0,0,0-4.887-9.866c-6.6-8.178-9.422-18.208-9.727-28.675-.049-1.8,2.7-3.678,4.387-5.809,2.073-9.133,3.768-19.138,6.665-28.782,4.682-15.551,16.671-24.389,32.979-24.883a91.381,91.381,0,0,1,19.221.979c12.2,2.263,21.155,9.512,25.031,21.336,3.423,10.45,5.405,21.369,8.154,32.6,3.669.731,4.3,1.885,3.81,7.068-.814,8.764-2.766,17.485-8.352,24.125-5.34,6.344-6.526,13.437-7.653,20.884-1.012,6.7-5.578,10.574-10.935,13.56-3.078,1.711-4.419,3.744-3.811,7.15.511,2.838-.757,4.879-2.7,6.879-5.529,5.71-10.885,11.594-16.6,17.725,3.818,5.693,7.653,11.421,11.874,17.723,7.628-13.026,14.935-25.492,22.4-38.221,14.5,4.4,28.371,9.635,39.808,19.79,4.163,3.7,7.348,8.063,8.7,13.65C2173.782,4760.267,2173.115,4761.319,2170.49,4762.406Z" transform="translate(-2006.889 -4592.237)" fill="#611735"/>
  <path id="Path_1422" data-name="Path 1422" d="M2266.791,4795.39c-46.556,35.942-113.221,35.062-158.386-2.329-2.115-1.745-3.029-3.456-2.691-6.261.782-6.393.717-12.919,1.959-19.2a28.454,28.454,0,0,1,5.208-10.911,35.086,35.086,0,0,1,8.738-7.99,106.293,106.293,0,0,1,14.623-8.285c5.808-2.682,11.922-4.707,18.274-7.16,7.678,12.952,14.993,25.3,22.521,38.015,4.024-5.917,7.842-11.536,11.973-17.608,4.08,6.032,7.874,11.65,11.922,17.633,6.837-11.693,13.6-22.948,20.027-34.4,1.753-3.127,3.406-3.745,6.739-2.568,11.281,3.958,22.341,8.312,31.943,15.634,7.364,5.62,12.82,12.334,12.762,22.266a29.386,29.386,0,0,0,.765,8.171C2275.16,4787.286,2272.14,4791.259,2266.791,4795.39Z" transform="translate(-1981.731 -4556.327)" fill="#611735"/>
  <path id="Path_1423" data-name="Path 1423" d="M2232.324,4690.368c-.864,9.019-3.069,17.956-8.9,24.784-4.756,5.554-5.94,11.66-6.706,18.161-.89,7.487-5.3,12.161-11.446,15.5-2.789,1.514-4.139,3.325-3.587,6.476.551,3.135-.865,5.407-3,7.611-5.439,5.613-10.689,11.4-16.391,17.52-6.279-6.714-12.441-12.945-18.1-19.608-1.325-1.565-1.276-4.584-1.251-6.929.025-2.633-.691-4.3-3.094-5.595-7.084-3.827-11.428-9.636-12.193-17.856a18.809,18.809,0,0,0-.8-3.6c-1.128-3.793-2.305-7.216-5.069-10.615-6.615-8.129-9.545-18.151-9.619-28.667-.016-1.876,2.725-3.777,4.436-5.965,1.875-8.509,3.579-17.915,6.055-27.122,4.255-15.782,15.033-24.569,31.111-26.158a77.355,77.355,0,0,1,21.261.683c12.8,2.354,21.962,10.1,25.846,22.646,3.094,10,4.962,20.38,7.521,31.242C2232.415,4684.155,2232.868,4684.74,2232.324,4690.368Z" transform="translate(-1974.977 -4583.171)" fill="#611735"/>
</svg>
