<svg id="Group_2327" data-name="Group 2327" xmlns="http://www.w3.org/2000/svg" width="244.607" height="287.099" viewBox="0 0 244.607 287.099">
  <path id="Path_1349" data-name="Path 1349" d="M1619.2,3103.277v69.739h-2.16c-10.735,0-21.475.179-32.206-.04-18.818-.386-33.057-8.826-42.5-25.11a45.065,45.065,0,0,1-5.986-22.374c-.084-6.627.032-13.257-.1-19.88-.036-1.973.629-2.4,2.494-2.386,11.463.083,22.931.04,34.394.04l43.662.012Z" transform="translate(-1386.809 -2885.986)" fill="#611735"/>
  <path id="Path_1350" data-name="Path 1350" d="M1273.834,3128.677c-1.185,15.405-8.528,27.485-21.236,36.2a47.225,47.225,0,0,1-27.346,8.2q-15.9-.006-31.809,0h-2.2v-69.5a7.738,7.738,0,0,1,1.368-.231c6.356.044,12.712.159,19.072.155,8.464-.008,16.929-.139,25.393-.155,4.435-.008,8.87.179,13.3.171,7.02-.016,14.041-.127,21.057-.187,2.685-.024,2.713-.012,2.693,2.689C1274.077,3113.578,1274.415,3121.164,1273.834,3128.677Z" transform="translate(-1179.031 -2886.052)" fill="#611735"/>
  <path id="Path_1351" data-name="Path 1351" d="M1540.619,2624.563a4.566,4.566,0,0,0-1.678,4.1,92.049,92.049,0,0,0,4.646,21.077c.231.692.493,1.373.708,2.069.529,1.734.358,3.313-1.273,4.4-1.535,1.022-2.943.656-4.383-.394q-12.995-9.5-26.077-18.866a5.927,5.927,0,0,0-3.135-.569c-5.127-.107-10.25-.131-15.377-.187-.012-.255-.024-.51-.032-.768,14.94-8.588,25.588-20.341,25.588-38.511s-10.628-29.919-25.588-38.885c2.645-.243,5.286-.6,7.935-.712,13.074-.533,25.3,2.351,36.168,9.8,8.91,6.106,15.194,14.184,16.845,25.17a29.539,29.539,0,0,1-5.76,23.241A82.57,82.57,0,0,1,1540.619,2624.563Z" transform="translate(-1361.372 -2557.181)" fill="#611735"/>
  <path id="Path_1352" data-name="Path 1352" d="M1627.326,2955.184a3.882,3.882,0,0,1-4.017,4.208c-2.327-.043-3.823-1.71-3.83-4.359-.016-6.825,0-13.651-.012-20.48a4.007,4.007,0,0,0-.151-1.75c-.267-.509-.935-1.177-1.36-1.134a2.386,2.386,0,0,0-1.551,1.178,4.5,4.5,0,0,0-.127,1.953q-.006,11.139,0,22.27v2.235H1586v-2.347q.006-11.032,0-22.067c0-.466.008-.931-.012-1.392-.052-1.137-.569-2.124-1.762-1.842a2.563,2.563,0,0,0-1.46,1.877c-.159,2.7-.052,5.429-.048,8.146,0,4.507.012,9.013-.008,13.52-.008,1.73-.668,3.313-2.367,3.751a5.5,5.5,0,0,1-3.854-.422,4.234,4.234,0,0,1-1.563-3.134c-.115-9.475-.167-18.953-.024-28.428a12.358,12.358,0,0,1,12.33-12.052q13.717-.083,27.437,0a12.528,12.528,0,0,1,12.633,12.434C1627.426,2936.625,1627.358,2945.9,1627.326,2955.184Z" transform="translate(-1410.034 -2772.552)" fill="#611735"/>
  <path id="Path_1353" data-name="Path 1353" d="M1613.024,3053.554a8.97,8.97,0,0,1-9.081,7.1c-9.8.008-19.605-.064-29.41-.06-10.33,0-20.663.052-30.993.067q-14.11.024-28.221,0a9.073,9.073,0,0,1-9.232-7.9,8.9,8.9,0,0,1,6.782-9.662,14.482,14.482,0,0,1,3.353-.246q21.766-.018,43.526-.008c14.773,0,29.545-.024,44.318.012A8.808,8.808,0,0,1,1613.024,3053.554Z" transform="translate(-1368.609 -2849.623)" fill="#611735"/>
  <path id="Path_1354" data-name="Path 1354" d="M1264.177,3058.687a12.093,12.093,0,0,1-6.082,1.9c-16.559.127-33.113.02-49.672.016-12.848,0-25.7.068-38.543.072a8.9,8.9,0,0,1-8.778-5.906,8.7,8.7,0,0,1,2.5-9.737,8.966,8.966,0,0,1,6.217-2.176q22.159.03,44.318.012,22.362,0,44.72.008a8.674,8.674,0,0,1,8.448,6.3A8.344,8.344,0,0,1,1264.177,3058.687Z" transform="translate(-1160.532 -2849.628)" fill="#611735"/>
  <path id="Path_1355" data-name="Path 1355" d="M1384.508,2579.914c-5.286-9.005-13.4-14.709-22.931-18.459a62.084,62.084,0,0,0-36.279-2.956c-10.891,2.307-20.588,6.977-28.133,15.318-8.981,9.924-11.893,21.363-7.327,34.215,2.506,7.052,7.215,12.565,13.094,17.087a2.568,2.568,0,0,1,1.245,2.637c-.374,2.621-.442,5.306-1.058,7.864-1.3,5.393-2.86,10.728-4.344,16.077-.481,1.75-.378,3.313,1.249,4.415a3.378,3.378,0,0,0,4.224-.227c7.78-5.624,15.676-11.1,23.332-16.892,2.562-1.933,4.9-3.4,8.21-2.546a11.3,11.3,0,0,0,2.772.036l.012.143c2.375-.171,4.761-.254,7.128-.533,13.3-1.575,25.1-6.376,34.374-16.388C1390.59,2608.362,1392.324,2593.231,1384.508,2579.914Zm-11.459,38.706c-10.382,9.272-22.954,12.442-36.586,12.152-1.85-.04-3.691-.418-5.537-.426a4.434,4.434,0,0,0-2.474.808c-6.973,5.048-13.893,10.159-20.834,15.25-.259.187-.557.322-1.086.625.9-4.387,1.854-8.432,2.53-12.521.517-3.126.64-6.316,1.014-9.47a2.718,2.718,0,0,0-1.512-2.88,33.241,33.241,0,0,1-12.7-14.4c-4.721-10.795-2.637-20.639,4.833-29.378,6.905-8.078,16.041-12.478,26.323-14.418,14.156-2.677,27.708-.955,40.181,6.638,7.474,4.547,13.225,10.7,15.508,19.363C1385.765,2601.544,1381.6,2610.983,1373.049,2618.62Z" transform="translate(-1237.121 -2557.062)" fill="#611735"/>
  <path id="Path_1356" data-name="Path 1356" d="M1632.474,2836.1a16.619,16.619,0,1,1-16.583-16.773A16.657,16.657,0,0,1,1632.474,2836.1Z" transform="translate(-1424.74 -2715.008)" fill="#611735"/>
  <path id="Path_1357" data-name="Path 1357" d="M1279.707,2834.591a15.25,15.25,0,1,1-15.174-15.246A15.236,15.236,0,0,1,1279.707,2834.591Z" transform="translate(-1213.936 -2715.021)" fill="#611735"/>
  <path id="Path_1358" data-name="Path 1358" d="M1264.448,2851.373a55.042,55.042,0,0,1-17.593,20.9,19.54,19.54,0,0,0-8.464,16.436c-.032,8.083-.012,16.165-.012,24.247v2.275h-33.515v-26.475c-1.527,1.213-2.717,2-3.711,2.979-4.928,4.841-8.93,10.227-10.644,17.127-.477,1.925-1.913,3.616-2.907,5.41a5.545,5.545,0,0,1-6.452.234,6.42,6.42,0,0,1-3.035-6.77,9.447,9.447,0,0,1,.975-2.14,19.865,19.865,0,0,1,.493-3.393c4.666-14.522,14.661-24.048,28.623-29.354,7.263-2.761,14.884-4.622,22.406-6.659a27.028,27.028,0,0,0,10.405-5.545,48.981,48.981,0,0,0,12.525-15.48c2.741-5.4,8.985-3.679,10.9-.076A6.674,6.674,0,0,1,1264.448,2851.373Z" transform="translate(-1171.056 -2728.496)" fill="#611735"/>
  <path id="Path_1360" data-name="Path 1360" d="M1347.973,2646.644a6.911,6.911,0,1,1-6.516-6.926A6.866,6.866,0,0,1,1347.973,2646.644Z" transform="translate(-1265.092 -2606.837)" fill="#611735"/>
  <path id="Path_1361" data-name="Path 1361" d="M1411.963,2646.784a6.864,6.864,0,0,1-7.126,6.721,6.9,6.9,0,0,1,.369-13.792A6.819,6.819,0,0,1,1411.963,2646.784Z" transform="translate(-1303.628 -2606.839)" fill="#611735"/>
  <path id="Path_1362" data-name="Path 1362" d="M1475.972,2646.632a6.9,6.9,0,0,1-7,6.872,7.008,7.008,0,0,1-6.867-6.849,6.921,6.921,0,0,1,6.946-6.947A6.834,6.834,0,0,1,1475.972,2646.632Z" transform="translate(-1342.155 -2606.836)" fill="#611735"/>
</svg>
