<svg xmlns="http://www.w3.org/2000/svg" width="174.18" height="545.748" viewBox="0 0 174.18 545.748">
  <g id="Group_2432" data-name="Group 2432" transform="translate(-7344.65 -3696.492)">
    <path id="Path_2002" data-name="Path 2002" d="M7516.87,3860.4c-4.35,3.51-5.21.96-7.22-1.44-2.61-3.12-6.31-6.46-10.06-7.24-8-1.67-16.34-1.76-24.54-2.49-.09.4-.19.79-.28,1.19,9.46,2.43,19.48,3.89,25.14,12.7-7.54,3.52-14.76,6.52-21.61,10.2-7.33,3.93-14.27,8.57-21.44,12.79-9.22,5.44-18.74,10.29-29.51,11.67a16.555,16.555,0,0,1-8.52-1.24,66.272,66.272,0,0,1-24.71-19.85c-6.72-8.55-13-17.47-24.63-20.24.08-.59.16-1.19.24-1.78,16.89-2.87,33.78-5.74,50.5-8.59-1.96-3.05-4.55-7.08-6.76-10.53-3.24,2.27-5.82,5.02-8.98,6.11-10.8,3.74-21.68,7.37-32.76,10.08-6.43,1.58-11.66,3.61-14.16,10.16-3.64,9.56-6.38,19.21-4.92,29.67a314.244,314.244,0,0,0,20.55,76.99c3.57,8.63,7.85,16.97,11.8,25.45.63-.22,1.26-.45,1.89-.67-15.66-34.29-28.59-69.32-31.13-108.63,5.2,3.78,9.34,6.77,13.46,9.78a9.159,9.159,0,0,1,3.97,8.56c-.31,5.82-.66,11.74.05,17.48.94,7.64,3.17,14.8,10.67,19.21,11.2,6.59,23.3,8.14,35.92,7.61a26.852,26.852,0,0,1,2.83.18c-13.05,3.44-25.54,2.8-37.5-4.88.51,7.97,1.62,15.52,2.63,23.08.8,5.92,2.59,11.99,1.91,17.76-.72,6.21,2.53,14.23-5.69,18.3-.25.13-.16.95-.23,1.44.9-.83,1.79-1.67,2.68-2.5.37.32.74.64,1.11.95q-7.725,9.48-15.45,18.94c-.23-.19-.47-.38-.7-.57q4.965-7.155,9.94-14.3c-7.18,6.7-14.44,13.32-21.52,20.13-8.33,8.01-13.77,17.78-14.65,29.31-.66,8.72-.99,17.8.67,26.31,3.28,16.79,8.24,33.25,12.16,49.93,7.81,33.2,15.39,66.47,23.1,99.69.55,2.4,1.44,4.72,2.17,7.08.17-.06.35-.11.52-.16q-9.045-40.305-18.1-80.59c.81-.19,1.62-.37,2.43-.55q9.39,40.215,18.76,80.41c25.17-7.43,39.32-8.72,44.87-3.91-6.21,0-12.37-.59-18.38.14-8.04.98-15.97,2.89-23.9,4.65-.95.22-1.56,2-2.33,3.05,27.74-7.86,54.19-2.59,80.77,1a10.484,10.484,0,0,0-4.2-2.55q-11.22-3.435-22.49-6.67c-10.29-2.94-10.05-2.89-9.52-13.39q1.95-39.18,3.4-78.38a16.441,16.441,0,0,0-2.49-8.35c-4.9-8.29-10.01-16.46-15.39-24.44-5.28-7.84-10.88-15.46-16.53-23.03-5.39-7.21-11.03-14.24-16.56-21.35.32-.34.64-.69.96-1.03q17.385,12.99,34.86,26.04c-1.81-4.61-3.62-9.2-5.85-14.9,2.69,1.19,3.91,1.73,5.95,2.63-1.94-3.92-3.44-6.95-4.93-9.98.4-.32.81-.64,1.21-.97,3.58,4.05,7.15,8.09,10.11,11.45-2.69-13.24-5.46-26.91-8.44-41.57,9.53,2.78,13.67,9.82,19.79,16.64-3.41-11.1-12.12-18.19-13.45-29.7,2.46,1.74,4.01,2.83,5.56,3.92a5.161,5.161,0,0,0-.98-3.37c-5.56-7.59-5.24-11.07,1.79-17.51,1.71-1.57,3.5-3.08,5.34-4.51a23.278,23.278,0,0,0,9.21-16.53c.85-7.61,1.89-15.2,2.68-22.81.75-7.21,3.6-12.25,10.69-15.7,13.3-6.46,21.94-17.08,21.55-32.58-.19-7.42,2.38-12.35,7.64-17.12,6.71-6.06,12.96-12.52,22.09-14.9.98-.25,1.91-.72,3.87-1.48-14.61-3.78-23.04,5.33-32.7,11.96a82.291,82.291,0,0,1,9.88-13.53c9.39-9.94,13.32-10.58,26.1-5.35.23.1.6-.13,1.75-.43C7518.24,3869.05,7517.64,3865.28,7516.87,3860.4ZM7352.8,4103.1c-6.22-21.42-8.54-53.58,3.01-64.14C7347.7,4060.21,7350.9,4081.71,7352.8,4103.1Zm67.47-188.43c13.51,4.7,23.97-2.53,35.12-8.23a15.346,15.346,0,0,1-1.3,1.76,2.057,2.057,0,0,1-.23.19l-1.32.96c-.89.62-1.79,1.23-2.69,1.82a52.332,52.332,0,0,1-19.28,7.87c-9.98,1.77-17.26-3.57-23.76-9.77-6.59-6.27-12.44-13.31-18.96-19.94,1.41,1.17,2.83,2.32,4.24,3.48s2.82,2.33,4.2,3.54c1.33,1.17,2.67,2.34,4,3.51q4,3.51,7.97,7.07,1.98,1.785,3.94,3.59c4.2,3.86,7.63,2.62,12.11-.2,15.76-9.94,31.89-19.31,48.45-27.98A543.823,543.823,0,0,1,7420.27,3914.67Z" fill="#1b3837"/>
    <path id="Path_2003" data-name="Path 2003" d="M7387.62,3722.46c6.83,10.84,12.53,21.78,15.32,34.5,1.82,8.3,12.53,13.38,20.72,11.47,1.07-.25,1.8-1.95,3.17-3.53,10.73,9.49,21.93,19.17,32.86,29.14a136.821,136.821,0,0,0,34.5,22.61c3.32,1.55,7.02,3.14,10.3.19,3.25-2.91,3.12-6.86,1.82-10.66a48.94,48.94,0,0,0-3.91-9.13,145.093,145.093,0,0,0-9.91-14.96,26.975,26.975,0,0,1-5.52-13.03c-3.81-25.1-15.93-42.84-42.31-48.73a65.525,65.525,0,0,1-26.68-12.99,65.732,65.732,0,0,0-14.15-8.3,31.843,31.843,0,0,0-11.53-2.54c-5.72-.2-9.83,3.75-9.21,9.39C7383.72,3711.55,7384.69,3717.8,7387.62,3722.46Zm29.345,39.088-.095,0c.13-.009.261-.015.392-.019a.737.737,0,0,0-.112.007C7417.088,3761.54,7417.027,3761.547,7416.965,3761.548Zm.677-.02c.134,0,.268.011.4.02-.064-.005-.127-.008-.194-.008S7417.71,3761.532,7417.642,3761.528Zm1.855.246c.091.024.183.053.274.08-.064-.019-.127-.04-.191-.054A.457.457,0,0,0,7419.5,3761.774Zm3.3,1.753c.021.018.043.04.065.058l-.065-.055Zm-1.76-12.087q1.44,1.575,2.91,3.12c.52.55,1.04,1.09,1.56,1.63s1.03,1.06,1.55,1.59c1.18,1.21,2.38,2.42,3.59,3.61l2.94,2.88c.26.25.53.5.79.75.52.5,1.05,1,1.58,1.5,1.3,1.23,2.6,2.45,3.92,3.65q1.755,1.605,3.53,3.19c.59.53,1.19,1.06,1.79,1.59q2.07,1.845,4.19,3.65c1.61,1.38,3.22,2.75,4.85,4.11s3.26,2.7,4.9,4.04q1.845,1.5,3.71,2.99t3.74,2.96q1.71,1.365,3.44,2.7c6.38,4.96,12.86,9.82,19.36,14.63l5.13,3.78c-.03-.02-.05-.03-.08-.05h-.01q-5.446-3.33-10.78-6.77-7.6-4.92-14.94-10.19-3.675-2.655-7.26-5.39c-.88-.67-1.75-1.35-2.62-2.04-.7-.54-1.41-1.1-2.11-1.67-.92-.73-1.83-1.47-2.74-2.22-.59-.48-1.19-.97-1.78-1.48-1.08-.91-2.16-1.82-3.23-2.75-.82-.7-1.63-1.42-2.44-2.15-.54-.48-1.08-.96-1.62-1.45-.57-.51-1.14-1.04-1.72-1.57q-2.325-2.16-4.61-4.39c-.76-.74-1.51-1.49-2.26-2.25q-5.865-5.91-11.29-12.35c-.65-.77-1.3-1.55-1.94-2.34-.31-.38-.63-.77-.93-1.17-.52-.63-1.02-1.28-1.52-1.92a2.114,2.114,0,0,1-.19-.24c-.75-.96-1.48-1.92-2.21-2.9-.24-.32-.48-.64-.71-.96Q7419.27,3749.525,7421.04,3751.44Zm-12.43-.75,1.3-.36c.72.66,1.45,1.31,2.18,1.99,1.24,1.12,2.51,2.28,3.92,3.56-.25.21-.5.41-.73.61l-.34.28c-.1.09-.21.17-.31.25-.19.16-.37.3-.52.43,0,.01,0,.01-.01.01q-.225.18-.36.3c1.63.69,3.31,1.39,5,2.1.85.36,1.7.71,2.56,1.07s1.71.71,2.57,1.07v.01c-.13.7-.27,1.39-.41,2.1a4.329,4.329,0,0,0-.33-.3c-.041-.038-.083-.07-.124-.1-.068-.059-.137-.127-.206-.184h0c-.09-.07-.18-.15-.28-.22a.084.084,0,0,0-.039-.023l-.011-.009v-.008c-.11-.08-.21-.16-.32-.24a8.04,8.04,0,0,0-1.31-.76c-.249-.116-.5-.212-.748-.3a7.657,7.657,0,0,1,.748.3,7.963,7.963,0,0,0-.758-.307c-.027-.01-.055-.023-.082-.033l-.19-.054c-.112-.035-.224-.07-.336-.1l-.024-.007a1.481,1.481,0,0,0-.2-.05.2.2,0,0,0-.062-.008l-.018,0v-.008c-.057-.008-.119-.022-.179-.033-.083-.015-.165-.025-.248-.038a1.939,1.939,0,0,0-.223-.039c-.06-.01-.12-.01-.18-.02l-.056,0c-.234-.022-.467-.032-.7-.034-.023,0-.049,0-.073,0-.052,0-.1,0-.15.008-.193,0-.385.012-.578.027-.037,0-.074,0-.112.005s-.06.009-.09.012c-.25.025-.5.056-.75.1.232-.038.463-.067.695-.091-.231.025-.463.05-.695.091a10.652,10.652,0,0,0-1.12.23l-.56.15c-.18.05-.37.1-.55.16-.93.28-1.85.61-2.78.91-.37.12-.74.25-1.1.36s-.74.22-1.11.32Z" fill="#1b3837"/>
    <path id="Path_2004" data-name="Path 2004" d="M7454.24,3840.344c.23,6.44,4.98,6.22,8.3,7.2-10.14-15.28-10.41-31.69-5.51-48.9-5.88,4.12-11.93,8.38-18.66,13.1C7451.02,3817.1,7453.83,3828.214,7454.24,3840.344Z" fill="#1b3837"/>
    <path id="Path_2005" data-name="Path 2005" d="M7423.49,3793.874h19.85C7437.81,3787.534,7427.16,3787.3,7423.49,3793.874Z" fill="#1b3837"/>
    <path id="Path_2006" data-name="Path 2006" d="M7428.02,3808.744l-14.38-12.65c2.14,6.04,4.09,11.52,6.04,17,.14-.03.28-.05.42-.08-.38-2.9-.75-5.81-1.16-8.92,3.02,1.93,5.8,3.7,8.57,5.47C7427.68,3809.294,7427.85,3809.014,7428.02,3808.744Z" fill="#1b3837"/>
  </g>
</svg>
