<svg xmlns="http://www.w3.org/2000/svg" width="713.548" height="694.81" viewBox="0 0 713.548 694.81">
  <g id="Group_2234" data-name="Group 2234" transform="translate(-3932.76 -6078.44)" opacity="0.2">
    <path id="Path_1097" data-name="Path 1097" d="M4424.741,7005.952c-3.764,3.882-6.161,9.6-13.158,9.15-2.884-.187-3.171,1.423-2.334,3.558,1.691,4.319,2.229,8.632.193,12.977-.63,1.348-1.4,2.627-2.1,3.932-.319-.031-.637-.062-.949-.087-.8-3.327-1.642-6.635-2.391-9.974a30.86,30.86,0,0,1-.4-3.4c-.8-7.171-2.571-9.805-9.755-10.7-7.465-.93-15.086-.743-22.638-.774-12.146-.056-23.2-3.227-31.5-12.383-4.395-4.843-7.771-10.7-11.066-16.421-2.223-3.851-.774-5.955,3.688-6,9.73-.093,19.474-1.223,29.173.905a33.142,33.142,0,0,1,13.994,7.171c7.852,6.441,15.473,13.188,22.981,20.036a12.192,12.192,0,0,0,10.236,3.383c3.808-.475,7.571-1.3,11.359-1.948,1.374-.231,2.772-.355,4.157-.531C4424.41,7005.215,4424.572,7005.583,4424.741,7005.952Z" transform="translate(-148.405 -337.13)" fill="#fff"/>
    <path id="Path_1098" data-name="Path 1098" d="M4223.786,6930.881c-1.928,5.2-9.056,8.058-17.214,6.959.562,6.916,1.1,13.988-5.493,18.457-.424-.044-.843-.082-1.267-.119,0-3.452-.287-6.928.05-10.349,1.043-10.517-.306-13.208-10.361-16.734a114.218,114.218,0,0,0-16.022-3.907c-22.576-4.394-32.969-18.057-37.812-37.768-1.03-4.2.562-5.717,4.793-4.843q10.074,2.078,20.08,4.438a34.994,34.994,0,0,1,20.091,12.871c6.311,8.1,12.465,16.34,18.532,24.629a12.684,12.684,0,0,0,9.181,5.212c3.708.443,7.465.437,11.2.668C4220.865,6930.481,4222.176,6930.693,4223.786,6930.881Z" transform="translate(-76.147 -302.137)" fill="#fff"/>
    <path id="Path_1099" data-name="Path 1099" d="M4163.813,6662.6c-.225.28-.449.567-.674.849-6.379-.661-12.658-1.535-15.448-9.618-4.4,5.124-8.514,9.438-15.124,9.256-.861-.024-1.716-.174-2.571-.262-.131-.294-.269-.587-.4-.88,3.1-2.766,6.03-5.762,9.344-8.239,6.229-4.65,7.621-7.228,4.881-14.587a105.429,105.429,0,0,0-8.482-16.921c-7.271-12.215-10.261-25.01-5.5-38.729a86.878,86.878,0,0,1,7.633-15.279c2.3-3.9,4.675-3.72,6.959.138,3.227,5.449,6.3,10.991,9.437,16.49,5.418,9.463,5.7,19.605,3.726,29.953-1.6,8.458-3.433,16.871-5.336,25.267a11.427,11.427,0,0,0,1.71,9.493c2.44,3.483,5.168,6.76,7.758,10.143C4162.446,6660.627,4163.114,6661.619,4163.813,6662.6Z" transform="translate(-73.203 -182.998)" fill="#fff"/>
    <path id="Path_1100" data-name="Path 1100" d="M4886.462,6479.017a92.6,92.6,0,0,1-3.739,11.853c-1.173,3-3.464,3.482-5.542,1.129-5.979-6.766-12.127-13.444-17.42-20.722a26.682,26.682,0,0,1-4.812-12.6c-1.067-11.341-1.517-22.77-1.492-34.167.013-5.074-1.436-8.919-5.049-12.1-2.809-2.472-5.811-4.719-8.707-7.084-.768-.63-1.473-1.336-2.209-2.01.15-.337.293-.68.443-1.017,6.323-.643,12.664-1.354,16.933,5.836,2.3-3.283,3.87-6.41,6.254-8.682,2.428-2.309,5.711-3.614,10.249-3.645-2.478,3.632-4.257,6.872-6.628,9.587-6.741,7.721-7.234,10.773-1.192,19.081,3.645,5,7.927,9.543,12.046,14.181C4885.957,6450.318,4890.207,6463.619,4886.462,6479.017Z" transform="translate(-340.033 -119.28)" fill="#fff"/>
    <path id="Path_1101" data-name="Path 1101" d="M4846.222,6813.975c-3.652-.287-7.353-.225-10.9-.93-9.774-1.941-12.758-.849-17.077,8.177a101.459,101.459,0,0,0-5.611,15.167c-6.666,22.626-21.028,31.383-40.82,34.528-5.343.849-6.641-.718-5.043-5.754,1.822-5.743,3.826-11.429,5.686-17.159,3.358-10.367,10.542-17.514,19.555-23q11.16-6.807,22.632-13.107c4.662-2.565,6.073-6.847,6.959-11.522.555-2.958.886-5.96,1.361-8.937.168-1.073.474-2.128.817-3.626,4.363,3.383,6.834,10.062,5.661,14.218-1.161,4.12-.762,4.744,3.564,4.288,5.336-.562,9.169,1.96,12.608,5.524a3.6,3.6,0,0,1,.6,1.073A4.115,4.115,0,0,1,4846.222,6813.975Z" transform="translate(-313.211 -266.609)" fill="#fff"/>
    <path id="Path_1102" data-name="Path 1102" d="M4488.01,6185.022c-6.7,3.507-13.507,6.816-20.373,9.987-8.3,3.838-16.927,2.69-25.391.773-8.589-1.947-17.1-4.294-25.56-6.753a12.525,12.525,0,0,0-10.691,1.623c-3.427,2.153-6.647,4.619-9.968,6.94-.824.581-1.66,1.136-2.5,1.7-.274-.212-.556-.424-.83-.63.755-6.4,2.078-12.471,10.273-15-5.5-5.187-9.793-10.379-7.746-18.837,2.359,2.572,4.388,4.656,6.26,6.872a45.99,45.99,0,0,1,2.784,4.126c3.695,5.53,6.16,6.947,12.6,4.924a119.071,119.071,0,0,0,18.856-7.926c12.87-6.667,25.978-8.645,39.547-2.791a84.116,84.116,0,0,1,13.22,7.552C4492.841,6180.49,4492.685,6182.569,4488.01,6185.022Z" transform="translate(-172.863 -32.469)" fill="#fff"/>
    <path id="Path_1103" data-name="Path 1103" d="M4055.171,6656.148c-1.124.28-2.3.924-3.364.78-7.259-1-8.176-1.6-12.87-7.771-1.642,1.735-3.165,3.277-4.606,4.894-2.421,2.733-5.742,3.177-9.05,3.452a3.7,3.7,0,0,1-2.571-1.23c-.225-.249.437-1.679,1.011-2.247a74.522,74.522,0,0,1,7.964-7.364c3.958-2.9,5.324-6.566,3.445-10.842a127.169,127.169,0,0,0-8.682-16.8c-5.149-8.139-8.233-16.728-8.033-26.4.193-9.5,4.076-17.739,9.069-25.491,2.16-3.352,4.7-3.271,6.841.125,3.982,6.316,7.765,12.771,11.4,19.3,4.1,7.371,3.9,15.43,2.765,23.412-1.2,8.414-3.133,16.728-4.257,25.154a12.938,12.938,0,0,0,1.61,7.889c2.247,3.677,5.461,6.76,8.158,10.187A11.178,11.178,0,0,1,4055.171,6656.148Z" transform="translate(-32.189 -182.739)" fill="#fff"/>
    <path id="Path_1104" data-name="Path 1104" d="M4634.365,6974.476a8.929,8.929,0,0,1-2.035-.992c-3.083-2.609-6.16-5.23-9.144-7.952a8.072,8.072,0,0,0-8.6-1.929c-6.6,2.141-11.9,6.329-17.033,10.723-6.628,5.673-14.012,9.625-22.707,10.954-10.117,1.548-19.374-1.342-28.243-5.754-3.3-1.642-3.37-3.614-.512-5.979,3.683-3.052,7.534-5.892,11.241-8.913,8.064-6.554,17.177-10.062,27.644-9.525,8.713.45,17.426.949,26.122,1.623a11.5,11.5,0,0,0,9.237-3.6c2.684-2.6,5.131-5.443,7.777-8.089a10.555,10.555,0,0,1,2.484-1.411,11.9,11.9,0,0,1,.655,2.858c-.1,5.143-.88,10.024-6.884,12.808a38.6,38.6,0,0,0,3.807,2.634c4.145,2.084,5.667,5.879,6.61,10.018A7.039,7.039,0,0,1,4634.365,6974.476Z" transform="translate(-229.74 -325.172)" fill="#fff"/>
    <path id="Path_1105" data-name="Path 1105" d="M4962.893,6790.535c-.043.387-.087.779-.125,1.167-3.67,0-7.347.144-11-.031-6.7-.324-8.944.58-11.191,6.9a114.884,114.884,0,0,0-4.269,17.171c-2.709,14.393-9.855,25.153-23.993,30.471a77.787,77.787,0,0,1-8.476,3c-2.953.736-4.282-.512-3.72-3.482,1.379-7.234,2.84-14.462,4.581-21.614a24.917,24.917,0,0,1,8.514-13.151c7.309-6.123,14.818-12.016,22.352-17.857,3.208-2.484,4.256-5.792,4.4-9.519.15-3.9.038-7.809.038-11.709.506-.075,1.018-.144,1.523-.219,3.814,3.944,7.265,8.026,4.819,14.886C4952.75,6785.854,4958.786,6785.154,4962.893,6790.535Z" transform="translate(-363.522 -260.539)" fill="#fff"/>
    <path id="Path_1106" data-name="Path 1106" d="M4802.592,6330.823c-8.083-2.6-16.234-5.106-24-8.477-3.214-1.4-6.023-4.531-8.126-7.5-5.037-7.1-9.706-14.487-14.206-21.952-2.241-3.726-5.449-5.193-9.406-5.736-3.545-.487-7.1-.93-10.654-1.386-.05-.461-.1-.924-.15-1.379,4.12-3.389,8.364-6.4,14.78-3.626,0-1.754.106-2.952-.019-4.12-.437-4,1.473-7.021,4.007-9.755a6.279,6.279,0,0,1,2.123-.98,6.925,6.925,0,0,1,.581,2.147c-.287,3.72-.593,7.439-1.08,11.135-.387,2.921.512,5.437,3.021,6.629a136.7,136.7,0,0,0,16.559,6.878c5.692,1.829,11.173,3.826,15.966,7.5,9.075,6.935,12.577,16.753,14.244,27.476C4806.611,6330.137,4805.026,6331.609,4802.592,6330.823Z" transform="translate(-301.907 -70.459)" fill="#fff"/>
    <path id="Path_1107" data-name="Path 1107" d="M4237.722,6503.972a10.3,10.3,0,0,0-1.473,8.607c.836,3.314,1.935,6.566,2.9,9.856a5.885,5.885,0,0,1,.206,2.765c-5.043-2.266-9.718-4.719-9.325-12.184-5.779,3.108-11.091,5.168-17.345,1,3.988-1.429,7.2-2.8,10.536-3.727,6.354-1.753,8.458-3.869,8.346-10.454a110.5,110.5,0,0,0-1.511-16.4c-2.747-16.39,4.469-32.094,18.831-40.271,2.771-1.579,4.525-1.155,4.868,1.61.986,8.008,2.26,16.047,2.253,24.074,0,4.219-1.791,8.794-3.913,12.571C4247.714,6489.173,4242.646,6496.538,4237.722,6503.972Z" transform="translate(-105.205 -136.733)" fill="#fff"/>
    <path id="Path_1108" data-name="Path 1108" d="M4248.855,6794.007v1.049c-4.419,2.652-8.863,5.137-14.774,1.148-.555,6.223-1.691,11.684-8.775,14.361,1.111-4.612,1.791-8.451,2.99-12.127,1.136-3.5.886-6.6-2.216-8.582a133.509,133.509,0,0,0-15.829-9.095c-10.686-4.931-18.557-12.239-21.49-23.887a72.9,72.9,0,0,1-1.66-13.251c-.193-3.183,1.442-4.169,4.375-2.927,4.107,1.747,8.121,3.714,12.208,5.518a34.193,34.193,0,0,1,18.126,18.007c2.765,6.267,5.886,12.4,8.32,18.787,1.473,3.864,3.77,6.36,7.552,7.59,2.765.905,5.586,1.616,8.376,2.44C4247,6793.32,4247.925,6793.682,4248.855,6794.007Z" transform="translate(-95.585 -248.707)" fill="#fff"/>
    <path id="Path_1109" data-name="Path 1109" d="M4567.805,7101.6c3.914,3.29,6.435,6.554,6.235,11.085a16.165,16.165,0,0,1-1.011,3.627,16.973,16.973,0,0,1-2.49-2,61.007,61.007,0,0,1-4.681-5.8c-3.3-4.875-5.362-5.9-10.992-4a78.981,78.981,0,0,0-12.552,5.424c-14.855,8.1-28.749,6.229-42.013-3.558-4.125-3.039-3.951-5.174.519-7.465,3.046-1.561,6.186-2.965,9.188-4.606a35.635,35.635,0,0,1,27.463-3.052c6.3,1.729,12.64,3.364,18.9,5.23a8.591,8.591,0,0,0,7.472-.787c2.8-1.778,5.468-3.782,8.27-5.567a13.914,13.914,0,0,1,3.052-1.055,11.69,11.69,0,0,1,.218,3.452C4574.4,7096.508,4573.229,7100.446,4567.805,7101.6Z" transform="translate(-212.189 -379.838)" fill="#fff"/>
    <path id="Path_1110" data-name="Path 1110" d="M4732.492,7094.577a12.632,12.632,0,0,1-3.077-.587,80.276,80.276,0,0,1-7.7-4c-2.584-1.566-5.224-2.085-7.49-.006a91.661,91.661,0,0,0-10.817,11.041c-6.017,7.765-13.063,13.994-23.057,15.062-5.767.611-11.747-.257-17.577-.942-2.965-.35-3.751-2.69-1.816-5.062,4.45-5.461,8.944-10.929,13.844-15.979,4.625-4.774,11.16-5.8,17.333-7.115,5.773-1.236,11.641-2.054,17.489-2.858a9.668,9.668,0,0,0,7.159-4.937c1.579-2.565,2.959-5.249,4.531-7.814a7.641,7.641,0,0,1,1.767-1.517c.543.687,1.448,1.311,1.561,2.06.605,4.082,1.816,8.332-2.74,11.972,4.594,1.485,8.326,3.114,9.987,7.271A16.982,16.982,0,0,1,4732.492,7094.577Z" transform="translate(-273.29 -372.614)" fill="#fff"/>
    <path id="Path_1111" data-name="Path 1111" d="M4212.608,6296.736c-1.966,7.515-3.608,15.242-6.753,22.27-1.873,4.195-6,7.646-9.731,10.667-5.474,4.431-11.64,8-17.22,12.3a12.955,12.955,0,0,0-4.17,6.191c-.917,3.027-.811,6.36-1.148,9.556-.105.986-.237,1.966-.355,2.946-.356.063-.712.125-1.067.193-3.32-3.707-6.179-7.577-3.839-13.388a37.447,37.447,0,0,0-4.712.031c-3.57.493-6.167-1.423-8.745-3.371-.418-.306-.53-1.011-.786-1.535a6.033,6.033,0,0,1,1.8-.562,85.343,85.343,0,0,1,9.287.35c3.677.456,6.672-.649,7.989-3.969a125.16,125.16,0,0,0,5.655-17.052c4.469-18.7,16.434-24.929,30.146-28.156C4211.9,6292.511,4213.369,6293.834,4212.608,6296.736Z" transform="translate(-83.181 -80.65)" fill="#fff"/>
    <path id="Path_1112" data-name="Path 1112" d="M4703.846,6881.957c-3.514-1.492-6.579-2.584-9.449-4.051-5.449-2.784-7.3-2.915-11.635,1.442a65.544,65.544,0,0,0-8.9,11.16c-9.032,14.312-22.121,19.018-38.292,16.853-4.226-.568-4.956-2.185-2.578-5.768,2.64-3.976,5.405-7.877,8.208-11.747a29.8,29.8,0,0,1,16.908-11.547c7.115-1.91,14.243-3.808,21.446-5.343a10.046,10.046,0,0,0,7.178-4.887c1.448-2.515,2.615-5.193,3.951-7.777.549-1.067,1.21-2.084,1.891-3.252a11.48,11.48,0,0,1-.28,14.381C4697.218,6873.35,4702.741,6874.691,4703.846,6881.957Z" transform="translate(-262.669 -292.628)" fill="#fff"/>
    <path id="Path_1113" data-name="Path 1113" d="M4960.054,6545.366a71.044,71.044,0,0,1-4.65,9.145c-1.448,2.359-3.414,2.515-4.693.387-3.845-6.392-7.715-12.8-11.042-19.468-2.553-5.112-1.723-10.842-1.03-16.278.874-6.891,2.578-13.675,3.327-20.578a14.341,14.341,0,0,0-1.941-7.8c-1.4-2.6-3.782-4.656-5.7-6.972-.618-.749-1.143-1.586-2.11-2.94,5.861.075,10.736.368,13.2,6.7,3.789-4.481,7.427-8.463,14.505-6.828-2.921,2.778-5.211,5.23-7.783,7.353-4.457,3.677-5.474,5.418-3.152,10.692,2.571,5.848,6.092,11.285,9.156,16.927C4963.343,6525.293,4964.4,6535.187,4960.054,6545.366Z" transform="translate(-375.632 -151.057)" fill="#fff"/>
    <path id="Path_1114" data-name="Path 1114" d="M4575.824,6243.421c-3.833,1.847-7.746,3.539-11.584,5.38a31.412,31.412,0,0,1-22.751,1.917q-10.635-2.978-21.184-6.279a9.924,9.924,0,0,0-8.62,1.217c-3.221,2-6.385,4.1-9.668,6.224-1.236-4.382,1.3-8.7,7.34-12.577-3.919-3.745-7-7.915-4.925-14.611a86.256,86.256,0,0,1,5.537,6.984c4.388,6.928,6.522,7.908,14.331,5.262a98.616,98.616,0,0,0,11.142-4.781c15.947-7.721,28.874-4.544,41.188,5.336C4579.731,6239.982,4579.438,6241.686,4575.824,6243.421Z" transform="translate(-213.834 -54.967)" fill="#fff"/>
    <path id="Path_1115" data-name="Path 1115" d="M4130.782,6465.34c-2.1,3.239-2.1,6.4-1.092,9.793.961,3.233,2.066,6.417,3.108,9.625-.281.163-.562.331-.843.5-4.375-2.134-8.607-4.4-8.395-11.054-5.162,2.946-9.868,4.888-15.71,1.211,3.651-1.392,6.622-2.733,9.718-3.657,5.424-1.629,7.2-3.333,7.165-9.013a75.2,75.2,0,0,0-1.373-14.206c-3.233-15.979,2.179-28.3,15.167-37.656,3.677-2.647,5.087-2.2,5.736,2.147.937,6.248,2.147,12.533,2.209,18.813a27.255,27.255,0,0,1-2.909,12.177C4139.782,6451.378,4135.276,6458.375,4130.782,6465.34Z" transform="translate(-65.806 -124.328)" fill="#fff"/>
    <path id="Path_1116" data-name="Path 1116" d="M3959.5,6756.393c-.231.262-.462.518-.693.78-4.918-.487-9.4-1.735-11.435-7.571-4.02,4.15-7.883,7.49-14.612,6.067,3.127-2.591,5.511-4.832,8.158-6.7,4.6-3.252,5.648-5.057,3.92-10.5a58.1,58.1,0,0,0-5.349-12.2c-8.607-14.374-7.777-28.155,1.823-41.656,2.634-3.707,4.057-3.714,6.21.182,1.76,3.183,3.383,6.435,5.168,9.6,4.688,8.313,5.4,17.1,3.2,26.227-1.454,6.048-2.827,12.121-4.519,18.107-1.379,4.874,1.011,8.438,3.558,12.009C3956.335,6752.7,3957.97,6754.514,3959.5,6756.393Z" transform="translate(0 -226.784)" fill="#fff"/>
    <path id="Path_1117" data-name="Path 1117" d="M4753.858,6209.413c-3.82-.412-7.64-.849-11.466-1.192a33.693,33.693,0,0,1-22.271-11.21c-4.163-4.487-8.538-8.813-12.3-13.619a11.694,11.694,0,0,0-10.474-4.818c-3.165.138-6.335.337-10.037.537,2.522-4.769,5.661-6.348,12.7-6.654-.711-5.012-2.1-10.342,3.4-14.736.375,4.157,1,7.721.937,11.266-.068,3.944,1.648,6.6,5.144,7.559a84.217,84.217,0,0,0,15.491,3.083c19.237,1.486,27.307,11.76,32.538,25.167C4758.982,6208.533,4757.821,6209.831,4753.858,6209.413Z" transform="translate(-283.589 -29.797)" fill="#fff"/>
    <path id="Path_1118" data-name="Path 1118" d="M4915.212,6625.086a72.236,72.236,0,0,0,2.2,13.5c3.951,15.191-.219,27.662-12.053,37.742a30.968,30.968,0,0,1-2.6,1.691c-2.3,1.573-3.558.287-4.163-1.754-4.17-14.043-5.811-27.9,2.9-41.088,2.453-3.721,4.226-7.9,6.779-11.548a11.066,11.066,0,0,0,1.354-11.172q-1.8-4.607-3.577-9.226l.768-.617c4.395,1.8,8.639,3.751,8.888,10.062,2.872-1.23,5.206-2.722,7.721-3.152,2.315-.4,4.831.35,7.259.587.025.437.05.867.075,1.3-2.9,1.279-5.73,2.708-8.688,3.807C4916.3,6617.347,4914.832,6618.944,4915.212,6625.086Z" transform="translate(-361.724 -197.004)" fill="#fff"/>
    <path id="Path_1119" data-name="Path 1119" d="M4233.777,6659.605c-.181.263-.355.531-.537.793-4.775-.593-9.425-1.417-11.491-7.752-3.857,4.413-7.8,7.689-14.5,6.186,2.921-2.44,5.274-4.656,7.877-6.522,4.862-3.483,5.93-5.412,3.976-11.029a91.942,91.942,0,0,0-6.192-13.544c-9-16.565-4.987-28.712,3.171-40.546,2.066-3,3.72-2.821,5.511.375,1.935,3.438,3.689,6.972,5.611,10.417a32.924,32.924,0,0,1,3.333,24.117c-1.548,6.772-3.1,13.557-4.956,20.254-.886,3.184.031,5.762,1.66,8.215C4229.3,6653.664,4231.586,6656.6,4233.777,6659.605Z" transform="translate(-103.164 -190.403)" fill="#fff"/>
    <path id="Path_1120" data-name="Path 1120" d="M4858.269,6897.539c-.125.256-.25.512-.368.768-3.589,0-7.2.219-10.767-.062s-6.335.843-7.615,4.088a83.668,83.668,0,0,0-4.487,13.838c-1.748,8.589-4.769,16.31-11.572,22.2-5.18,4.488-11.378,6.772-17.882,8.352-2.859.693-4.157-.48-3.514-3.3a197.4,197.4,0,0,1,5.075-19.574,20.2,20.2,0,0,1,5.648-8.389A224.512,224.512,0,0,1,4832.6,6899.9c3.676-2.534,5.43-5.486,5.711-9.687a67.772,67.772,0,0,1,1.136-9.638c4.038,3.233,6.641,6.99,4.993,11.828,4.026,1.036,7.746,1.9,11.391,3.015C4856.771,6895.71,4857.463,6896.809,4858.269,6897.539Z" transform="translate(-326.657 -301.475)" fill="#fff"/>
    <path id="Path_1121" data-name="Path 1121" d="M4214.464,6213.632c-2.927,5.948-5.717,12-9.181,17.633-3.651,5.929-10.217,8.32-16.122,11.272-4.713,2.36-9.681,4.232-14.606,6.148-3.9,1.517-5.149,4.875-6.242,8.37-.88,2.834-1.6,5.718-2.39,8.582l-1.2-.056c-2.384-4.076-4.369-8.221-1.211-13.488-5.374-.867-10.7-1.5-13.063-8.164,3.976.936,7.29,1.561,10.511,2.509,4.669,1.38,7.2.943,9.912-3.183a74.386,74.386,0,0,0,6.772-12.564c6.079-14.886,17.352-21.921,33.031-22.645C4215.631,6207.814,4216.637,6209.219,4214.464,6213.632Z" transform="translate(-81.816 -48.702)" fill="#fff"/>
    <path id="Path_1122" data-name="Path 1122" d="M4331.21,6236.894c-3.613,6.628-7.078,13.414-11.465,19.518-3.938,5.474-10.667,7.359-16.678,9.875-4.781,2-9.712,3.645-14.624,5.286-3.483,1.167-4.9,3.982-6.061,7.016-1.167,3.052-2.159,6.179-3.227,9.275-.375-.031-.743-.068-1.117-.1-2.135-4.226-4.113-8.47-.35-13.731-5.586-.792-10.536-2.1-12.989-8.532,3.358.83,6.167,1.261,8.782,2.209,7.3,2.653,8.9,2.459,13.376-3.863a108.484,108.484,0,0,0,6.972-12.115c8.17-15.354,20.522-19.361,35.052-18.737C4331.7,6233.118,4332.565,6234.4,4331.21,6236.894Z" transform="translate(-124.756 -58.064)" fill="#fff"/>
    <path id="Path_1123" data-name="Path 1123" d="M5043.543,6859.49c-.031.4-.062.806-.1,1.205-3.233,0-6.466.112-9.693-.024-5.461-.237-7.44.6-9.269,5.816a76.087,76.087,0,0,0-3.39,14.182c-2.266,15.922-11.547,25.459-26.564,29.953-4.176,1.248-5.312.337-4.669-3.895.787-5.125,1.779-10.224,2.809-15.312,1.367-6.716,5.268-11.915,10.386-16.209,5.405-4.531,10.885-8.981,16.5-13.245,3.221-2.446,3.832-5.761,3.97-9.343.112-3.065.019-6.136.019-9.207.393-.1.78-.206,1.173-.312,3.57,3.333,6.454,6.978,4.625,13.007C5035,6855.115,5040.048,6854.872,5043.543,6859.49Z" transform="translate(-397.236 -287.389)" fill="#fff"/>
    <path id="Path_1124" data-name="Path 1124" d="M4809.524,6457.647c-.949,3.47-2.7,3.963-5.387,1.592-3.739-3.3-7.34-6.748-11.016-10.118-7.153-6.542-8.532-15.43-9.75-24.324-.692-5.031-1.048-10.118-1.367-15.192-.2-3.152-2.022-5.174-4.275-6.891-2.142-1.629-4.488-3-6.729-4.5-.824-.555-1.591-1.186-2.39-1.779.112-.344.218-.693.324-1.036,4.575-.718,9.244-2.041,13.288,3.221,2.223-5.355,4.676-9.855,11.622-10.38-1.8,3.189-3.07,5.954-4.8,8.389-3.789,5.343-4.02,7.684.281,12.7a107.986,107.986,0,0,0,9.937,9.843C4812.3,6430.9,4813.4,6443.354,4809.524,6457.647Z" transform="translate(-314.145 -116.435)" fill="#fff"/>
    <path id="Path_1125" data-name="Path 1125" d="M4847.243,6719.16c-4.138.162-7.458.523-10.754.361-4.937-.249-7.4.637-8.914,5.374a138.121,138.121,0,0,0-4.113,17.521c-2.441,13.357-13.488,24.767-26.789,27.3-3.389.644-4.569-.274-3.988-3.745a144.037,144.037,0,0,1,3.651-17.981,23.543,23.543,0,0,1,5.667-9.812,205.115,205.115,0,0,1,19.1-16.4,12.035,12.035,0,0,0,5.274-9.943c.063-2.284-.006-4.575.056-6.859.025-.961.237-1.923.468-3.683,4.213,4.045,7.253,7.608,5.218,13.694C4837.905,6713.854,4842.836,6713.836,4847.243,6719.16Z" transform="translate(-323.14 -234.091)" fill="#fff"/>
    <path id="Path_1126" data-name="Path 1126" d="M4473.773,6945.337c2.434,5.08,4.356,9.874.312,15.529-1.3-3.583-2.565-6.473-3.389-9.487-1.6-5.9-3.433-7.708-9.587-7.665a90,90,0,0,0-13.638,1.186c-15.61,2.553-27.4-3.277-36.164-16.016-2.671-3.889-1.922-5.443,2.815-6,5.255-.618,10.511-1.292,15.785-1.772a23.728,23.728,0,0,1,14.924,3.545c6.616,4.1,13.238,8.208,19.624,12.658,2.809,1.953,5.518,2.765,8.738,1.91,2.609-.687,5.187-1.51,7.79-2.228,1.055-.293,2.141-.475,3.214-.705.163.3.325.593.487.892C4482.437,6941.367,4480.009,6945.35,4473.773,6945.337Z" transform="translate(-179.281 -316.668)" fill="#fff"/>
    <path id="Path_1127" data-name="Path 1127" d="M4325.516,6901.626c-3.67,4.426-7.134,7.515-13.195,6.048,1.223,5.6,1.679,10.61-3.577,14.35a87.808,87.808,0,0,1-.724-9.368c.125-4.726-1.018-7.453-5.555-8.9a64.256,64.256,0,0,0-13.657-2.759c-9.543-.836-18.481-3.258-24.66-10.872-3.651-4.488-6.073-10.037-8.62-15.323-1.242-2.578.075-4.095,2.94-3.758,6.385.749,12.764,1.592,19.093,2.7,6.26,1.086,10.754,5.306,14.961,9.612,4.625,4.75,8.988,9.768,13.282,14.823,2.521,2.965,5.717,3.477,9.237,3.458C4318.288,6901.607,4321.533,6901.626,4325.516,6901.626Z" transform="translate(-121.133 -297.873)" fill="#fff"/>
    <path id="Path_1128" data-name="Path 1128" d="M4560.289,7053.934c-2.241-2.684-4.263-4.531-5.586-6.791-3.439-5.9-6.466-7.409-13.033-5.081a92.152,92.152,0,0,0-11.815,5.511c-15.4,8.077-28.062,5.324-40.439-3.994-2.946-2.216-2.784-3.876.431-5.524q6.094-3.127,12.3-6.055c6.092-2.865,12.427-4.082,19.093-2.415,7.034,1.76,14.175,3.208,21.034,5.511a11.517,11.517,0,0,0,10.592-1.2c2.952-1.848,5.83-3.826,9.431-6.2-.093,6.111-2.521,9.712-8.158,12C4558.8,7043.329,4561.937,7047.162,4560.289,7053.934Z" transform="translate(-208.423 -356.769)" fill="#fff"/>
    <path id="Path_1129" data-name="Path 1129" d="M4199.377,7004.665a8.305,8.305,0,0,1-1.542,2.141c-3.089,2.216-6.3,4.176-9.73,2.641-1.2,3.727-2.122,7.128-3.464,10.361-.4.955-1.991,1.41-3.04,2.1a14.926,14.926,0,0,1-.586-3.133,55.2,55.2,0,0,1,.536-7.74c.512-3.127-.58-5.536-3.264-6.722-4.338-1.916-8.763-3.914-13.363-4.888-15.429-3.264-24.192-12.758-27.344-27.9-.887-4.264.387-5.73,4.443-4.625,5.992,1.642,11.978,3.37,17.839,5.436,5.455,1.917,8.782,6.523,12.053,10.942a139.006,139.006,0,0,1,9.2,13.675c2.01,3.527,4.644,5.437,8.545,5.854,2.478.263,4.968.438,7.427.793A8.859,8.859,0,0,1,4199.377,7004.665Z" transform="translate(-76.878 -333.784)" fill="#fff"/>
    <path id="Path_1130" data-name="Path 1130" d="M4088.684,6908.159c-5.424,2.066-9.781,3.252-13.364.007-2.409,2.84-4.637,5.523-6.959,8.126a3.523,3.523,0,0,1-1.9.98,2.63,2.63,0,0,1-1.9-.362c-.262-.2-.181-1.167.044-1.654,1.167-2.527,2.341-5.068,3.695-7.509,2.222-3.988,2.4-5.929-.78-9.269a85.677,85.677,0,0,0-10.517-9.193c-5.611-4.226-10.042-9.226-12.558-15.866-2.622-6.9-1.935-13.9-.724-20.885.524-3.046,2.759-3.751,5.324-1.835,3.995,2.977,7.939,6.029,11.759,9.219a23.463,23.463,0,0,1,8.339,12.833c1.71,7.477,3.09,15.029,4.981,22.457a12.843,12.843,0,0,0,3.689,6.092c2.122,1.885,4.975,2.946,7.477,4.419C4086.206,6906.262,4087.036,6906.967,4088.684,6908.159Z" transform="translate(-41.296 -289.845)" fill="#fff"/>
    <path id="Path_1131" data-name="Path 1131" d="M4430.089,7092.869c-1.929,3.327-3.727,6.91-9.294,6.685,3.121,4.139,4.231,7.815,2.934,11.891a10.38,10.38,0,0,1-1.43,2.229,8.364,8.364,0,0,1-1.71-1.86c-1.267-2.715-2.5-5.461-3.526-8.276-.88-2.409-2.422-4.125-4.931-4.063a73.06,73.06,0,0,0-13.538,1.143c-8.308,1.811-16.44,2.447-24.4-1.148-6.022-2.722-10.6-7.24-14.492-12.452-1.729-2.315-1.186-4.394,1.223-4.881,6.191-1.255,12.42-2.409,18.681-3.264,7.359-1.006,13.488,2.727,19.655,5.885a96.1,96.1,0,0,1,12.04,7.141,9.475,9.475,0,0,0,9.394,1.155c2.447-.868,4.831-1.9,7.291-2.728a7.165,7.165,0,0,1,2.34-.013C4430.263,7091.172,4430.476,7092.2,4430.089,7092.869Z" transform="translate(-160.082 -375.938)" fill="#fff"/>
    <path id="Path_1132" data-name="Path 1132" d="M4189,6827.037c-4.519,2.871-8.863,4.294-13.65.274-1.217,5.374-2.515,10.324-9.006,12.3,1.111-3.271,1.866-6.1,3.027-8.763,2.671-6.111,2.546-8.164-2.659-12.458a91.665,91.665,0,0,0-11.89-7.939c-14.905-8.782-18.12-21.071-16.99-35.3.243-3.083,1.66-4.007,4.02-2.571q8.249,5,16.247,10.4c4.02,2.728,6.36,6.841,7.945,11.3,2.44,6.835,4.975,13.663,6.841,20.666a12.082,12.082,0,0,0,7.945,8.757C4183.574,6824.765,4186.283,6825.919,4189,6827.037Z" transform="translate(-76.998 -260.634)" fill="#fff"/>
    <path id="Path_1133" data-name="Path 1133" d="M4065.667,6468.051c-3.626,4.544-7.159,9.175-10.948,13.576a8.854,8.854,0,0,0-2.01,8.1c.624,3.1,1.186,6.21,1.772,9.313l-1.13.431c-3.888-2.035-7.153-4.569-7.034-10.2-4.669,2.234-9.05,2.728-13.257-1.629,2.784-.8,5.518-1.835,8.352-2.359,5.405-1.012,6.759-2.022,7.321-7.565a58.749,58.749,0,0,0,.05-11.185c-1.33-14.355,4.6-24.723,16.921-31.732,3.97-2.26,5.468-1.5,5.8,2.958.237,3.214.375,6.435.549,9.65A29.33,29.33,0,0,1,4065.667,6468.051Z" transform="translate(-37.697 -133.468)" fill="#fff"/>
    <path id="Path_1134" data-name="Path 1134" d="M4214.289,6397.842a24.6,24.6,0,0,1-5.131,15.1c-4.182,5.293-8.313,10.654-12.839,15.642-2.553,2.815-3.67,5.687-3.034,9.325.418,2.353.912,4.693,1.3,7.053a23.474,23.474,0,0,1,.019,3.09c-4.288-3.09-7.921-5.562-7.016-11.4-4.918,1.816-9.394,2.971-14.187-1.273,3.165-.8,5.649-1.654,8.2-2.028,6.329-.937,7.9-2.11,8.719-8.477a63.27,63.27,0,0,0,.269-11.815c-.9-14.729,6.055-24.76,18.563-31.526,3.239-1.747,4.85-.823,4.993,2.909C4214.327,6388.9,4214.389,6393.379,4214.289,6397.842Z" transform="translate(-90.442 -113.591)" fill="#fff"/>
    <path id="Path_1135" data-name="Path 1135" d="M4696.662,6237.442c-4.25.031-8.513.037-12.764-.081-5.106-.138-9.9-1.442-13.856-4.825-5.274-4.513-10.6-9-15.573-13.837a9.48,9.48,0,0,0-8.695-2.909q-4.391.693-8.782,1.373c-.137-.331-.275-.655-.412-.986,2.472-3.54,5.093-6.847,10.717-5.955-1.467-4.956-2.515-9.462,1.948-14.013.662,4,1.379,7.284,1.7,10.6.281,2.846,1.523,4.962,4.244,5.437,4.457.768,9.025,1.641,13.495,1.429,16.678-.8,25.3,6.979,31.071,19.188C4701.318,6236.15,4700.394,6237.411,4696.662,6237.442Z" transform="translate(-264.523 -44.263)" fill="#fff"/>
    <path id="Path_1136" data-name="Path 1136" d="M4857.132,6312.786a58.424,58.424,0,0,0-5.929-1.879c-13.313-2.739-19.674-12.957-25.647-23.624a11.1,11.1,0,0,1-1.155-2.2c-2.072-7.315-7.652-9.5-14.437-9.98a15.814,15.814,0,0,1-2.147-.356c-.394-.081-.768-.25-1.948-.649,3.932-3.445,7.577-5.187,12.5-2.953.125-4.906.181-9.468,5.755-12.4-.331,3.258-.418,5.961-.911,8.595-1.074,5.724-.424,7.708,4.806,10.28a89.008,89.008,0,0,0,11.584,4.488c14.555,4.774,20.154,14.468,21.97,27.032C4862.169,6313.329,4861.133,6314.072,4857.132,6312.786Z" transform="translate(-328.149 -67.764)" fill="#fff"/>
    <path id="Path_1137" data-name="Path 1137" d="M4512.386,6873.146c.193.725-.468,1.673-.736,2.522a9.376,9.376,0,0,1-2.01-1.486,51.7,51.7,0,0,1-3.558-5.067c-2.372-3.927-4.013-4.919-8.482-3.646-4.169,1.186-8.17,2.978-12.214,4.575-7.465,2.946-15.018,3.439-22.376.063a52.528,52.528,0,0,1-9.625-6.254c-2.509-1.916-2.135-3.9.73-5.193,3.021-1.373,6.116-2.578,9.163-3.895a26.624,26.624,0,0,1,20.017-.9c4.8,1.661,9.8,2.79,14.475,4.725a9.378,9.378,0,0,0,9.4-.748c2.309-1.474,4.693-2.828,7.04-4.232.25.281.493.568.743.85-.637,4-1.535,7.833-5.555,9.081C4510.47,6866.9,4511.549,6869.994,4512.386,6873.146Z" transform="translate(-195.042 -290.858)" fill="#fff"/>
    <path id="Path_1138" data-name="Path 1138" d="M4119.1,6708.892c-5.811.774-7.9.7-11.859-3.795-2.3,3.857-5.124,7.021-11.022,6.816,2.016-2.528,3.47-4.681,5.249-6.522,3.889-4.032,4.388-5.768,1.61-10.686a55.1,55.1,0,0,0-6.1-8.632c-9.007-10.474-10.087-21.9-4.482-34.229,1.8-3.957,3.183-4.088,5.83-.612,2.708,3.552,5.873,6.854,7.958,10.742a28.969,28.969,0,0,1,3.708,11.653c.375,7.122-.237,14.312-.736,21.453-.244,3.451,1.4,5.717,3.583,7.864C4114.739,6704.816,4116.7,6706.62,4119.1,6708.892Z" transform="translate(-58.744 -214.342)" fill="#fff"/>
    <path id="Path_1139" data-name="Path 1139" d="M4621.513,6798.51c-3.1-1.567-5.736-2.534-7.939-4.1-2.884-2.041-5.518-1.941-7.884.325a77.5,77.5,0,0,0-8.2,8.913c-7.846,10.33-18.145,13.232-30.415,10.53-3.489-.768-4-2.372-1.779-5.262,1.268-1.648,2.634-3.221,3.857-4.9,4.788-6.579,10.936-10.985,19.125-12.3,4.613-.737,9.181-1.848,13.819-2.322a8.617,8.617,0,0,0,7.016-4.444q2.191-3.623,4.356-7.252c2.378,3.988,3.1,7.621-.125,11.384C4617.493,6790.664,4621.163,6792.6,4621.513,6798.51Z" transform="translate(-237.228 -262.81)" fill="#fff"/>
    <path id="Path_1140" data-name="Path 1140" d="M4969.368,6428.489c-.743,2.341-2.272,2.465-4.007.861-2.665-2.472-5.312-4.956-7.971-7.428a25.98,25.98,0,0,1-8.308-16.952c-.53-5.149-1.161-10.311-1.254-15.473a9.827,9.827,0,0,0-4.519-8.346c-2.247-1.61-4.544-3.146-7.608-5.255,4.962-1.211,8.757-1.542,12.009,2.621,1.916-4.213,3.813-8.058,9.481-8.538-1.335,2.371-2.278,4.381-3.52,6.186-3.926,5.692-3.445,9.231,1.635,14.012,3.988,3.758,8.2,7.434,11.435,11.8C4972.756,6410.107,4972.295,6419.289,4969.368,6428.489Z" transform="translate(-376.944 -109.573)" fill="#fff"/>
    <path id="Path_1141" data-name="Path 1141" d="M4828.162,7015.24c-3.651-.78-6.6-1.18-9.394-2.079-2.44-.78-4.519-.474-5.8,1.567a128.666,128.666,0,0,0-6.791,12.165c-3.1,6.4-7.253,11.8-14.1,14.2a56.129,56.129,0,0,1-12.158,2.4c-3.077.35-3.976-1.111-2.771-4.044,1.417-3.458,3.015-6.841,4.625-10.218a21.632,21.632,0,0,1,10.181-10.573c5.037-2.459,10.011-5.093,15.21-7.159a9.164,9.164,0,0,0,6.08-6.841c.58-2.366,1.311-4.694,1.972-7.041h1.155c2.2,3.14,3.764,6.41,1.5,10.8C4822.295,7008.786,4826.165,7009.81,4828.162,7015.24Z" transform="translate(-317.16 -345.464)" fill="#fff"/>
    <path id="Path_1142" data-name="Path 1142" d="M4433.827,6344.747c-2.728,3.664-5.286,7.553-8.551,10.686a26.151,26.151,0,0,1-9.543,6.092,133.358,133.358,0,0,1-19.105,4.325,9.41,9.41,0,0,0-7.178,4.775c-1.373,2.384-2.646,4.831-4.356,7.971-1.729-4.694-2.2-8.339,1.217-11.916-4.363-1.417-7.946-3.208-9.3-8.5,2.828,1.311,5.237,2.271,7.49,3.507,4.419,2.422,6.248,2.4,9.918-1.223a57.3,57.3,0,0,0,6.841-8.058c7.621-11,18.125-14.237,30.821-11.859C4435.182,6341.127,4435.681,6342.251,4433.827,6344.747Z" transform="translate(-166.966 -98.233)" fill="#fff"/>
    <path id="Path_1143" data-name="Path 1143" d="M4466.053,6112.191c-3.058,2.147-6.217,4.157-9.332,6.229-5.474,3.639-11.541,4.463-17.907,3.751a146.071,146.071,0,0,1-14.524-1.873,9.277,9.277,0,0,0-8.826,2.5c-1.885,1.7-3.72,3.464-6.179,5.755-.331-4.981.343-8.482,4.694-10.717-3.314-2.846-6.91-5.33-5.736-10.892,2.166,2.1,4.138,3.838,5.9,5.773,2.909,3.2,4.557,3.945,8.477,2.128a72.321,72.321,0,0,0,10.717-6.26c10.43-7.234,21.689-7.652,32.443-.949C4468.469,6109.32,4468.587,6110.418,4466.053,6112.191Z" transform="translate(-178.62 -9.184)" fill="#fff"/>
    <path id="Path_1144" data-name="Path 1144" d="M4699.786,7052.7c-2.765-1.566-5.18-2.8-7.453-4.25-3.477-2.209-5.218-2.472-8.476.162a51.415,51.415,0,0,0-7.915,7.89c-8.145,10.236-18.469,13.588-31.064,10.548-4.113-.992-4.544-2.11-1.8-5.293,2.44-2.833,4.937-5.624,7.409-8.426,4.9-5.555,11.665-6.922,18.456-8.083a96.957,96.957,0,0,1,11.759-1.367,8.962,8.962,0,0,0,7.758-4.363c1.473-2.315,2.971-4.619,4.943-7.684,1.2,4.719,1.636,8.333-1.879,11.753C4695.342,7045.543,4699.442,7047.06,4699.786,7052.7Z" transform="translate(-266.311 -358.321)" fill="#fff"/>
    <path id="Path_1145" data-name="Path 1145" d="M4393.513,6867.681c-2.677,4.1-4.837,7.128-9.955,6.1,1.117,4.425,2.7,8.47-1.049,12.7-.674-2.854-1.4-5.156-1.742-7.516-.724-5.062-2.353-6.99-7.5-7.478a76.106,76.106,0,0,0-11.185-.193,28.214,28.214,0,0,1-27.757-16.884c-1.167-2.608-.58-3.819,2.272-3.845a151.037,151.037,0,0,1,15.854.35,16.84,16.84,0,0,1,7.777,2.809,156.978,156.978,0,0,1,15.6,12.353c2.939,2.689,5.848,3.676,9.587,2.965C4387.814,6868.586,4390.229,6868.23,4393.513,6867.681Z" transform="translate(-150.713 -290.18)" fill="#fff"/>
    <path id="Path_1146" data-name="Path 1146" d="M4319.107,7027.337c-2.64,4.213-5.424,6.485-10.267,5.749,1.229,4.325,2.259,8.357-1.717,12.339-.512-3.289-1.13-5.967-1.311-8.669-.212-3.208-1.567-5.5-4.694-6.123a56.537,56.537,0,0,0-11.6-1.517c-15.254.162-23.193-6.879-28.511-18.531-1.2-2.628-.418-3.752,2.453-3.658,4.669.15,9.332.4,13.988.78,5.8.48,10.28,3.758,14.393,7.472,3.826,3.464,7.178,7.471,11.154,10.748a12.531,12.531,0,0,0,6.772,2.266C4312.591,7028.4,4315.481,7027.718,4319.107,7027.337Z" transform="translate(-123.163 -348.959)" fill="#fff"/>
    <path id="Path_1147" data-name="Path 1147" d="M4736.792,6444.651c.013,2.69-1,3.57-3.458,2.522-4.862-2.084-9.855-4.02-14.343-6.766a22.11,22.11,0,0,1-6.978-7.315,132.983,132.983,0,0,1-8.433-16.646,9.755,9.755,0,0,0-7.084-6.273c-2.472-.624-4.931-1.292-7.4-1.935,3.408-2.983,6.847-4.351,11.142-1.86.193-4.656.886-8.595,5.835-10.947-.549,2.921-.83,5.33-1.479,7.633-1.379,4.924-1.03,6.735,3.371,9.475a73.386,73.386,0,0,0,10.6,5.193C4730.139,6422.557,4736.749,6432.219,4736.792,6444.651Z" transform="translate(-284.262 -119.138)" fill="#fff"/>
    <path id="Path_1148" data-name="Path 1148" d="M4759.248,6682.037c-3.077.137-5.548.412-8.008.318-5.118-.187-6.685.587-8.395,5.468a48.166,48.166,0,0,0-2.391,9.637c-1.741,13.238-9.119,21.439-21.8,25.116-3.57,1.036-4.418.361-3.857-3.276.443-2.872,1.048-5.718,1.485-8.595,1.143-7.484,5.056-13.289,10.854-17.939,3.645-2.914,7.2-5.991,11.085-8.551a9.39,9.39,0,0,0,4.531-8.3,43.242,43.242,0,0,1,.506-7.483c3.245,2.553,5.686,5.343,3.757,10.592C4751.889,6677.843,4755.7,6678,4759.248,6682.037Z" transform="translate(-293.859 -221.742)" fill="#fff"/>
    <path id="Path_1149" data-name="Path 1149" d="M4622.407,6312.72c-16.122,2.915-28.112-4.5-38.854-15.086a9.078,9.078,0,0,0-8.751-2.666c-2.59.5-5.174,1.03-8.682,1.729,2.653-4.188,4.925-7.178,10.062-6.554-1.654-4.351-2.965-8.189.612-12.384.8,2.965,1.591,5.387,2.084,7.865.9,4.506,2.216,6.1,6.816,6.654a45.818,45.818,0,0,0,9.912.206c13.226-1.342,23.007,3.732,29.573,15.223C4627.194,6311.234,4626.427,6312,4622.407,6312.72Z" transform="translate(-238.041 -74.912)" fill="#fff"/>
    <path id="Path_1150" data-name="Path 1150" d="M4195.046,7104.809c-2.359,2.952-4.812,5.768-9.843,4.831,1.249,4.426,2.166,8.464-1.672,12.415-.543-3.046-1.161-5.518-1.4-8.021-.424-4.588-1.392-6.2-5.874-7.172a47.094,47.094,0,0,0-10.486-1.124c-13.014.15-22.326-5.474-27.806-17.276-.574-1.229-1.161-3.1-.624-4.014.461-.78,2.528-.88,3.87-.843,4.044.106,8.089.369,12.127.669a19.188,19.188,0,0,1,11.316,4.749c4.625,4.008,9.344,7.958,13.557,12.378a10.3,10.3,0,0,0,9.437,3.451c2.347-.287,4.688-.6,7.034-.905C4194.8,7104.234,4194.928,7104.521,4195.046,7104.809Z" transform="translate(-76.81 -377.778)" fill="#fff"/>
    <path id="Path_1151" data-name="Path 1151" d="M4830.767,6548.391c5.705,11.771,4.095,22.545-4.076,32.531-2.309,2.815-3.608,2.646-5.137-.605a4.668,4.668,0,0,0-.255-.568c-8.539-13.525-6.242-27.226-.406-40.833,1.785-4.163,1.2-7.59-1.286-11.073-1.249-1.735-2.31-3.607-3.87-6.073,4.762.68,8.139,1.916,9.693,6.622,3.371-2.64,6.466-5.667,11.715-3.688-2.353,1.716-4.219,3.295-6.285,4.55-4.238,2.584-5.262,4.444-3.889,9.275A60.968,60.968,0,0,0,4830.767,6548.391Z" transform="translate(-331.837 -166.621)" fill="#fff"/>
    <path id="Path_1152" data-name="Path 1152" d="M4723.418,6356.636c-4.106-.624-8.195-1.4-12.271-2.2-6.267-1.242-10.755-5.212-14.662-9.937-3.3-4-6.192-8.37-9.793-12.059-1.691-1.729-4.544-2.627-7.028-3.165-2.434-.53-5.068-.118-7.615-.118q-.075-.5-.15-.993c2.59-2.809,5.468-4.937,10.062-3.5-.087-4.288-1.086-8.639,3.764-12.09,0,3.208.075,5.743-.019,8.27-.168,4.656.581,6.311,4.956,7.852a57.187,57.187,0,0,0,11.16,2.7c12.783,1.76,21.571,9.4,24.711,21.853C4727.27,6356.161,4726.5,6357.1,4723.418,6356.636Z" transform="translate(-277.797 -87.995)" fill="#fff"/>
    <path id="Path_1153" data-name="Path 1153" d="M4931.539,6728.356a96.4,96.4,0,0,1-9.837,2.228c-2.646.325-4.107,1.735-4.369,4.026a63.64,63.64,0,0,0-.692,12.633c1.286,15.042-4.819,23.7-16.41,30.11-2.1,1.167-3.514.5-3.508-1.979.025-6.4-.3-12.87.5-19.193.381-3.034,2.721-5.961,4.619-8.626,3.17-4.457,6.553-8.782,10.124-12.933,2.771-3.214,3.108-6.566,1.866-10.4-.586-1.811-.893-3.708-1.473-6.2,4.375,2.122,6.991,4.557,6.548,9.581C4923.15,6726.147,4927.107,6724.792,4931.539,6728.356Z" transform="translate(-362.278 -240.379)" fill="#fff"/>
    <path id="Path_1154" data-name="Path 1154" d="M4337.761,6182.086c-6.485,13.263-18.051,18.712-31.658,20.748-5.367.8-8.42,3.389-10.173,8.207a44.446,44.446,0,0,1-2.123,4.363l-.979-.206c-1.448-3.452-2.359-6.91.649-10.711-4.226-1.129-7.939-2.584-8.857-8.12,3.177,1.342,5.867,2.278,8.352,3.589,2.453,1.292,4.675,1.28,6.522-.705,2.521-2.728,5.224-5.424,7.121-8.576,6.61-10.991,16.278-15.18,28.737-13.807C4339.378,6177.318,4339.553,6178.423,4337.761,6182.086Z" transform="translate(-132.243 -36.898)" fill="#fff"/>
    <path id="Path_1155" data-name="Path 1155" d="M4611.814,6164.3c-11.459,4.213-22.769,5.548-33.761-1.573a38.927,38.927,0,0,0-9.157-4.55c-1.953-.625-4.444-.156-6.535.4a52.689,52.689,0,0,0-7.065,2.965c-.194-.25-.394-.493-.587-.736.937-3.7,2.64-6.766,7.365-7.69-2.659-3.552-4.194-7.115-1.536-11.965a84.258,84.258,0,0,1,3.751,7.583c1.2,3.19,3.277,4.844,6.616,4.351,3.863-.562,7.714-1.292,11.5-2.228,6.928-1.716,13.875-2.372,20.248,1.335,3.614,2.1,6.7,5.168,9.849,8.008C4614.068,6161.61,4614.261,6163.4,4611.814,6164.3Z" transform="translate(-233.753 -23.569)" fill="#fff"/>
    <path id="Path_1156" data-name="Path 1156" d="M4982.25,6667.371a57.189,57.189,0,0,0,2.316,10.592c4.038,11.953,1.18,22.045-7.708,30.678-3,2.915-3.9,2.422-5.53-1.379-5.648-13.12-3.271-25.341,3.552-37.207a33.677,33.677,0,0,1,1.71-2.958c2.128-2.959,1.954-5.986.493-9.132-1.067-2.309-2.066-4.65-3.376-7.615,4.45,1.2,7.571,2.777,8.426,7.59,3.589-2.178,7.022-4.476,11.984-2.1-2.8,1.467-4.975,2.746-7.259,3.782C4982.912,6661.417,4981.664,6663.07,4982.25,6667.371Z" transform="translate(-389.147 -214.946)" fill="#fff"/>
    <path id="Path_1157" data-name="Path 1157" d="M4430.259,6244.562c-8.988,10.424-20.528,13.875-33.848,12.652-1.448-.131-2.927-.031-4.357-.243-3.258-.5-5.636.892-7.621,3.271q-2.369,2.818-4.744,5.63c-.312-.113-.625-.231-.937-.35-.705-3.695-.524-7.184,3.083-10.086-3.732-2.072-6.753-4.425-6.385-9.887,2.634,1.96,4.937,3.333,6.8,5.156,2.3,2.259,4.774,2.74,7.3,1.042a109.856,109.856,0,0,0,10.1-7.709c10.268-8.8,20.079-8.214,30.215-3.981C4432.369,6241.1,4432.275,6242.228,4430.259,6244.562Z" transform="translate(-166.37 -59.621)" fill="#fff"/>
    <path id="Path_1158" data-name="Path 1158" d="M4304.693,6088.964c-2.2,2.054-4.569,3.933-6.766,5.992-6.036,5.661-13.563,6.272-21.247,6.335a92.917,92.917,0,0,1-9.961-.237,7.984,7.984,0,0,0-7.359,3.152c-1.679,2-3.4,3.982-5.636,6.6-.874-4.837-.893-8.376,2.815-11.191-3.52-2.191-6.7-4.388-6.354-9.831,2.465,1.772,4.556,3.108,6.447,4.687,3.508,2.934,5.068,3.321,8.863.824a69.346,69.346,0,0,0,8.526-6.76c8.957-8.139,18.98-9.044,29.847-4.693C4307.189,6085.169,4307.389,6086.461,4304.693,6088.964Z" transform="translate(-119.291 -1.062)" fill="#fff"/>
    <path id="Path_1159" data-name="Path 1159" d="M4288.177,6323.686c-2.5,12.083-9.269,20.784-20.366,25.8-7.2,3.252-11.771,7.8-11.51,16.11.013.355-.287.718-.743,1.791-2.934-3.37-4.663-6.422-2.721-10.86-4.432.087-8.308-.243-10.767-5.012,3.14.274,5.824.174,8.314.817,3.471.893,5.792-.362,7.215-3.239a56.3,56.3,0,0,0,3.926-9.78c3.2-11.5,10.592-18.195,22.276-20.335C4288.62,6318.087,4289.157,6318.929,4288.177,6323.686Z" transform="translate(-116.251 -90.285)" fill="#fff"/>
    <path id="Path_1160" data-name="Path 1160" d="M4363.729,6804.922c.038,4.119-.281,7.952-4.182,9.806-.343-.112-.693-.231-1.042-.344a69.292,69.292,0,0,1,.912-7.833c.636-2.814-.288-4.912-2.634-5.985-4.032-1.848-8.22-3.353-12.408-4.818-6.885-2.4-12.358-6.417-15.186-13.308a45.459,45.459,0,0,1-2.559-8.919c-.581-3.127.718-3.964,3.67-2.983,2.653.873,5.362,1.561,8.052,2.315a23.362,23.362,0,0,1,13.763,10.043,125.076,125.076,0,0,1,7.483,12.189,8.686,8.686,0,0,0,7.215,5.062c2.216.331,4.438.631,6.654.949.05.355.1.712.144,1.067C4371,6804.729,4368.067,6806.395,4363.729,6804.922Z" transform="translate(-147.98 -259.971)" fill="#fff"/>
    <path id="Path_1161" data-name="Path 1161" d="M4776.821,6570.048a77.1,77.1,0,0,0,2.166,10.03c2.909,10.786-.162,19.661-8.426,26.914-2.653,2.328-3.982,1.879-5-1.554a6.075,6.075,0,0,0-.168-.6c-5.505-12.771-1.642-24.23,5.187-35.109a8.926,8.926,0,0,0,.518-9.637c-.868-1.735-1.517-3.583-2.416-5.742,4.25.006,6.685,1.916,8.32,6.247,3.152-2.29,6.485-3.545,10.967-.93-2.665,1.38-4.744,2.628-6.947,3.558C4777.246,6564.823,4776.278,6565.947,4776.821,6570.048Z" transform="translate(-311.951 -178.866)" fill="#fff"/>
    <path id="Path_1162" data-name="Path 1162" d="M4092.728,6804.72c-4.5,1.011-7.8,1.036-10.536-2.3-1.985,3.376-4.263,6.061-8.357,5.792-.244-.262-.48-.53-.718-.8,1.617-2.078,3.127-4.25,4.875-6.21,1.7-1.9,2.116-3.938.743-5.961a92.28,92.28,0,0,0-7.084-9.412c-8.713-9.868-7.446-19.405-3.857-28.131.967-2.359,2.534-2.59,4.294-.668,2.515,2.759,4.887,5.655,7.284,8.52,4.894,5.848,4.282,13.007,4.65,19.911a39.377,39.377,0,0,1-.3,6.529,8.063,8.063,0,0,0,3.4,7.858C4088.87,6801.193,4090.461,6802.741,4092.728,6804.72Z" transform="translate(-49.722 -254.557)" fill="#fff"/>
    <path id="Path_1163" data-name="Path 1163" d="M5054.16,6647.194c4.244,10.561,2.416,19.9-5.243,28.212-2.634,2.865-3.751,2.428-5.5-1.011-5.673-11.154-4.656-22.021.749-32.85a7.147,7.147,0,0,1,.35-.868c3.358-4.787,2.459-9.319-.761-13.763a30.957,30.957,0,0,1-1.823-3.545c4.613.549,7.534,1.935,8.919,5.948,3.089-2.434,6.192-4.088,10.873-1.929-2.546,1.654-4.425,3.227-6.572,4.188-3.239,1.442-4.338,3.745-3.552,6.991A62.911,62.911,0,0,0,5054.16,6647.194Z" transform="translate(-415.998 -204.806)" fill="#fff"/>
    <path id="Path_1164" data-name="Path 1164" d="M4756.18,6951.495c-2.94-.917-5.387-1.354-7.521-2.416-2.971-1.473-5.312-.868-7.134,1.561a80.66,80.66,0,0,0-5.836,8.794c-5.424,9.637-14.219,14.337-25.129,13.22-3.009-.306-3.77-1.461-2.347-4.069,1.891-3.464,3.639-7.1,6.142-10.087a26.857,26.857,0,0,1,8.313-6.722,78.118,78.118,0,0,1,14.574-5.355,8.945,8.945,0,0,0,6.685-6.186c.706-1.966,1.485-3.9,2.228-5.855.35.075.7.15,1.055.219,1.717,3.058,2.7,6.2.55,9.812C4751.555,6945.291,4754.894,6946.489,4756.18,6951.495Z" transform="translate(-291.185 -321.695)" fill="#fff"/>
    <path id="Path_1165" data-name="Path 1165" d="M4887.021,6582.528A24.77,24.77,0,0,1,4880.8,6610c-2.24,2.116-3.583,1.81-4.75-1.173-.942-2.422-1.785-4.875-2.678-7.309a22.624,22.624,0,0,1-.281-16.166c1.591-4.276,2.978-8.664,4.962-12.758a8.478,8.478,0,0,0-.162-8.545c-1.092-1.935-2.172-3.882-3.533-6.322,4.594.063,6.672,1.448,9.131,5.542,2.853-2.559,5.973-3.895,10.648-1.754-2.5,1.592-4.369,2.953-6.385,4.02-3.583,1.891-4.625,3.526-3.708,7.49A73.5,73.5,0,0,0,4887.021,6582.528Z" transform="translate(-352.901 -180.136)" fill="#fff"/>
    <path id="Path_1166" data-name="Path 1166" d="M4924.662,6912.873c-3.271,0-5.73.206-8.139-.056-2.858-.306-4.75.861-5.6,3.37a55.515,55.515,0,0,0-2.56,9.594c-1.635,10.985-7.87,17.77-18.35,20.916-3.676,1.1-4.744.324-4.151-3.39.537-3.383,1.249-6.747,2.041-10.08a18.326,18.326,0,0,1,6.248-10.174c3.614-2.959,7.028-6.242,10.929-8.77a9.1,9.1,0,0,0,4.575-8.52c-.031-1.823-.006-3.646-.006-6.3,4.051,2.516,5.511,5.306,4.925,9.344C4918.389,6908.423,4921.909,6908.38,4924.662,6912.873Z" transform="translate(-358.153 -308.571)" fill="#fff"/>
    <path id="Path_1167" data-name="Path 1167" d="M4118.865,6343.656c-.562,3.377-1.224,6.741-2.01,10.067a18.269,18.269,0,0,1-6.1,10.255c-3.92,3.227-7.7,6.666-11.84,9.575a8.142,8.142,0,0,0-3.864,7.265c.006,2.122-.218,4.25-.38,7.166-3.433-2.766-5.287-5.306-4.375-9.594-3.995.649-7.334.418-9.587-2.759.038-.405.069-.805.1-1.211a48.209,48.209,0,0,1,6.847.063c3.426.487,5.455-1.023,6.4-4.02a67.439,67.439,0,0,0,2.384-9.631c1.785-11.022,8.4-17.471,18.862-20.36C4118.478,6339.6,4119.4,6340.41,4118.865,6343.656Z" transform="translate(-55.605 -98.359)" fill="#fff"/>
    <path id="Path_1168" data-name="Path 1168" d="M4601.056,6095.611c-2.521.923-5.081,1.753-7.59,2.721-6.323,2.453-12.452,1.336-18.494-.986-3.776-1.454-7.409-3.37-11.278-4.431a13.189,13.189,0,0,0-6.766.505c-2.172.631-4.113,2.041-6.8,3.445.961-4.182,2.354-6.972,6.41-8.058-2.209-3.021-4.481-5.854-2.59-10.367a59.525,59.525,0,0,1,3.838,6.092c1.4,2.971,3.545,4.375,6.7,3.688a55.173,55.173,0,0,0,9.543-2.684c10.442-4.356,19.661-2.509,28.018,4.862C4605.068,6093.052,4604.9,6094.2,4601.056,6095.611Z" transform="translate(-232.032 0)" fill="#fff"/>
    <path id="Path_1169" data-name="Path 1169" d="M4860.113,6223.073q-4.682-1.17-9.3-2.565a19.306,19.306,0,0,1-10.8-7.446c-2.94-4.27-6.092-8.408-8.757-12.845a8.727,8.727,0,0,0-7.2-4.644c-2.109-.194-4.213-.487-6.834-.793,2.884-3.221,5.842-4.319,9.693-3.14.087-3.826-.231-7.459,3.969-9.881a53.1,53.1,0,0,1-.518,7.172c-.692,3.3.462,5.617,3.358,6.854a64,64,0,0,0,10.242,3.57c11.091,2.627,17.208,9.774,19.443,20.647C4864.032,6223.042,4863.2,6223.841,4860.113,6223.073Z" transform="translate(-332.414 -38.832)" fill="#fff"/>
    <path id="Path_1170" data-name="Path 1170" d="M4741.274,6804.56c-2.921-.911-5.38-1.5-7.689-2.452-2.354-.98-4.388-.743-5.861,1.235a75.348,75.348,0,0,0-6,9.031c-5.162,9.557-13.576,14.294-24.374,13.414-2.833-.226-3.383-1.211-2.128-3.814.405-.836.893-1.647,1.223-2.515,4.381-11.335,13.975-16.091,24.71-18.844,5.031-1.292,7.752-3.889,8.988-8.645a33.644,33.644,0,0,1,1.779-4.2c2.191,3.589,3.1,6.554,1.1,10.062C4736.581,6798.78,4740.063,6799.642,4741.274,6804.56Z" transform="translate(-286.322 -266.594)" fill="#fff"/>
    <path id="Path_1171" data-name="Path 1171" d="M4491.28,6286.476c-10.486,7.3-21.627,7.259-32.943,2.858-4.937-1.916-8.788-1.267-12.521,2.179a29.662,29.662,0,0,1-3.676,2.428c.068-4.356,1.11-7.271,4.718-9.05-2.833-2.616-4.481-5.443-3.233-10.131,1.829,2.216,3.376,3.876,4.675,5.711,2.322,3.29,3.52,3.951,7.334,2.653a57.9,57.9,0,0,0,8.8-3.876,23.991,23.991,0,0,1,27.388,2.484C4494.326,6283.773,4493.989,6284.59,4491.28,6286.476Z" transform="translate(-191.445 -73.785)" fill="#fff"/>
    <path id="Path_1172" data-name="Path 1172" d="M4575.4,6927.927c-1.835-2.178-3.264-3.645-4.425-5.3-2.453-3.514-3.814-4.257-7.84-2.858a53.118,53.118,0,0,0-8.382,4.007c-9.562,5.361-18.675,4.426-27.469-1.723-2.7-1.879-2.634-3.146.125-4.763a5.619,5.619,0,0,0,.549-.293c10.96-8.22,22.794-6.865,34.691-2.84a8.088,8.088,0,0,0,8.32-1.511c1.617-1.254,3.283-2.446,4.981-3.707,1.192,3.07-.019,5.911-3.77,9.088C4574.933,6920.412,4576.761,6923.189,4575.4,6927.927Z" transform="translate(-222.699 -312.135)" fill="#fff"/>
    <path id="Path_1173" data-name="Path 1173" d="M4510.434,7171.178c1.679,1.7,4.008,4.351,2.591,9.132-1.86-2.135-3.464-3.764-4.825-5.574-2.334-3.108-3.8-3.789-7.446-2.378a58.636,58.636,0,0,0-8.395,4.044c-9.513,5.561-18.619,4.619-27.488-1.411-2.7-1.841-2.659-3.227.125-4.831,2.334-1.342,4.781-2.5,7.109-3.87,6.647-3.9,13.606-2.8,20.591-1.367a34.477,34.477,0,0,1,6.641,1.617c3.907,1.679,7.022.636,9.993-1.972,1.279-1.124,2.728-2.048,4.1-3.059.437.318.868.636,1.3.955C4513.4,7165.155,4512.075,7167.846,4510.434,7171.178Z" transform="translate(-199.238 -407.06)" fill="#fff"/>
    <path id="Path_1174" data-name="Path 1174" d="M4657.589,6373.1c-4.457-.006-8.981.256-13.351-.412a20.534,20.534,0,0,1-8.108-3.626,81.124,81.124,0,0,1-10.58-8.688,8.147,8.147,0,0,0-7.908-2.353c-1.9.362-3.808.643-6.473,1.092,1.673-4.095,4.057-5.873,7.746-6.279-1.036-3.37-1.579-6.579,1.672-9.974a51.687,51.687,0,0,1,1.679,6.822c.318,3.015,1.654,4.974,4.688,5.281a94.966,94.966,0,0,0,10.23.5c12.39-.1,18.032,5.736,22.507,14.193C4660.854,6371.846,4659.979,6373.107,4657.589,6373.1Z" transform="translate(-254.973 -99.38)" fill="#fff"/>
    <path id="Path_1175" data-name="Path 1175" d="M4349.016,6443.543c-.443,1.386-1.036,2.728-1.4,4.132a22.955,22.955,0,0,1-11.341,14.93c-2.8,1.573-5.455,3.489-8.389,4.75a8.446,8.446,0,0,0-5.6,7.5c-.163,1.617-.562,3.208-.855,4.807-.486.068-.967.137-1.448.2-.7-2.7-1.4-5.405-2.253-8.7-2.178-.156-5.6.113-7.552-4.057a46.2,46.2,0,0,1,6.316.712c2.952.761,5.224.037,6.547-2.653a57.253,57.253,0,0,0,3.7-8.869c2.858-9.668,9.438-14.824,19.143-16.366C4349.409,6439.361,4350.089,6440.191,4349.016,6443.543Z" transform="translate(-141.849 -135.799)" fill="#fff"/>
    <path id="Path_1176" data-name="Path 1176" d="M4680.287,6468.213c-2.659-.861-5.3-1.8-7.92-2.784a18.171,18.171,0,0,1-9.581-7.571c-2.359-3.9-5-7.689-6.878-11.815a8.494,8.494,0,0,0-7.053-5.255c-1.673-.269-3.333-.655-4.993-.992-.044-.425-.087-.855-.131-1.28,2.7-.692,5.412-1.392,8.72-2.247.268-2.166.225-5.536,4.232-7.458a47.416,47.416,0,0,1-.8,6.473c-.843,3.151.212,5.349,2.958,6.7a60.61,60.61,0,0,0,8.289,3.495c9.943,3.165,15.13,10.049,16.291,20.223C4683.739,6468.507,4683.021,6469.1,4680.287,6468.213Z" transform="translate(-267.21 -131.683)" fill="#fff"/>
    <path id="Path_1177" data-name="Path 1177" d="M4318.7,6696.047c-.062.424-.119.849-.181,1.267h-8.395c-1.3,1.686-3.027,3.926-4.75,6.161-.406-.244-.806-.487-1.211-.737.718-1.984,1.292-4.038,2.2-5.936.974-2.035,1.036-3.938-.593-5.443a53.237,53.237,0,0,0-7.671-6.267c-8.745-5.424-12.278-13.169-11.142-23.25.4-3.545,1.336-4.025,4.313-2.1a5.162,5.162,0,0,0,.512.35c10.973,5.25,14.942,15.1,16.765,26.115.687,4.151,2.634,6.566,6.341,8C4316.2,6694.712,4317.434,6695.423,4318.7,6696.047Z" transform="translate(-133.043 -218.057)" fill="#fff"/>
    <path id="Path_1178" data-name="Path 1178" d="M4181.145,6533.977a8.385,8.385,0,0,0-.418,8.52c.711,1.592,1.436,3.184,2.153,4.775-.331.318-.667.63-1,.948l-6.716-5.86c-2.041,1.148-4.894,2.646-8.776.68a59.82,59.82,0,0,1,6.379-3.208c2.572-.936,3.739-2.709,3.464-5.211a49.094,49.094,0,0,0-1.71-9.138c-3.083-9.956-.474-18.176,7.109-25.042,2.185-1.979,3.258-1.717,4.1,1.18s1.517,5.817,2.216,8.744a17.553,17.553,0,0,1-1.13,11.859C4184.978,6526.168,4183.4,6530.281,4181.145,6533.977Z" transform="translate(-87.807 -158.124)" fill="#fff"/>
    <path id="Path_1179" data-name="Path 1179" d="M4090.91,6585.952a38.442,38.442,0,0,1,1.6,3.776c-3.839-.868-6.142-2.409-6.916-5.992-2.952,1.374-5.692,3.471-9.618,1.086,2.091-1.067,3.726-2.035,5.455-2.765,3.833-1.617,4.856-3.065,4.219-7.2a75.132,75.132,0,0,0-1.953-8.482c-2.665-9.644.075-17.583,7.465-24.08,2.2-1.936,2.921-1.479,4.094,1.335,4.637,11.147,2.247,21.421-3.963,31.046C4088.75,6578.612,4088.688,6582.088,4090.91,6585.952Z" transform="translate(-53.828 -173.891)" fill="#fff"/>
    <path id="Path_1180" data-name="Path 1180" d="M3996.917,6433.692c-2.272,3.807-1.673,7.028.087,10.529.518,1.03.961,2.1,1.573,3.445-3.97-.824-4.244-1.08-7.034-6.329-2.753,2.072-5.418,3.938-9.462,1.617,1.972-.937,3.439-1.811,5.018-2.366,3.757-1.3,4.912-2.584,4.762-6.572a25.674,25.674,0,0,0-1.167-7.646c-4.119-11.541-.318-19.468,6.042-25.466,2.765-2.6,3.733-2.3,4.787,1.242,1.76,5.91,3.564,11.908,1.486,17.994A71.659,71.659,0,0,1,3996.917,6433.692Z" transform="translate(-18.536 -120.549)" fill="#fff"/>
    <path id="Path_1181" data-name="Path 1181" d="M4683.593,6285.923c-2.078-.019-4.156-.1-6.235-.144a19.461,19.461,0,0,1-13.083-5.024c-2.234-2.022-4.844-3.714-6.729-6.011-2.9-3.533-6.229-4.507-10.474-3.3a15.132,15.132,0,0,1-3.027.25c-.2-.412-.394-.818-.587-1.229l6.86-4.924c-.331-2.066-1.236-5.193,2.2-7.814a42.591,42.591,0,0,1,1.161,6.073c.119,2.877,1.492,4.544,4.2,4.925a61.013,61.013,0,0,0,8.058.562c9.313.05,16.141,4.02,20.235,12.489C4687.7,6284.925,4687.076,6285.967,4683.593,6285.923Z" transform="translate(-267.109 -67.385)" fill="#fff"/>
    <path id="Path_1182" data-name="Path 1182" d="M5018.322,6573.464c-1.561,2.6-2.521,2.378-4.55-.037-7.5-8.907-7.434-18.994-4.582-29.386.98-3.551-.043-5.992-2.266-8.426-.986-1.086-1.816-2.3-2.715-3.464.269-.368.537-.743.806-1.111,2.39,1,4.774,1.991,7.677,3.2,1.517-1.411,3.614-3.907,7.971-1.779-1.566,1.249-3.052,2.609-4.706,3.732-2.272,1.536-2.878,3.521-1.773,5.9a55.691,55.691,0,0,0,3.914,7.39C5023.4,6557.479,5023.11,6565.438,5018.322,6573.464Z" transform="translate(-402.692 -170.105)" fill="#fff"/>
    <path id="Path_1183" data-name="Path 1183" d="M4645.958,6838.611a61.53,61.53,0,0,1-6.179-2.621c-2.285-1.279-4.238-1.012-5.861.861a58.209,58.209,0,0,0-5.118,6.622c-5.218,8.2-12.633,11.316-22.1,9.931-2.765-.406-3.027-1.248-1.786-3.738,4.819-9.662,12.908-14.737,23.275-16.079,5.187-.668,8.015-3.245,9.537-7.89a7.23,7.23,0,0,1,.668-1.4c.087-.163.318-.237.486-.35.406-.019.806-.031,1.211-.05.144,2.665.281,5.324.449,8.488A7.011,7.011,0,0,1,4645.958,6838.611Z" transform="translate(-252.354 -280.173)" fill="#fff"/>
    <path id="Path_1184" data-name="Path 1184" d="M4091.148,6261.677c-1.523,10.985-8.295,17.9-17.676,22.532-4.013,1.985-5.7,4.812-5.786,9.032a28.166,28.166,0,0,1-.637,3.732c-2.828-2.472-4.045-4.844-3.083-8.239-3.165-.031-6.2-.262-8.326-4.113,2.64.144,4.706-.019,6.628.425,2.952.68,4.65-.643,5.686-3.046a45.925,45.925,0,0,0,2.715-7.615c2.172-9.144,8.108-14.181,17.033-16.109C4090.843,6257.6,4091.58,6258.557,4091.148,6261.677Z" transform="translate(-46.183 -67.511)" fill="#fff"/>
    <path id="Path_1185" data-name="Path 1185" d="M4828.557,6644.065a59.7,59.7,0,0,1-6.373,1.41c-2.571.269-4.119,1.542-4.419,4a57.1,57.1,0,0,0-.556,8.676c.269,8.851-3.264,15.5-11.072,19.73-1.18.636-2.828,1.223-3.938.861-.68-.226-.9-2.285-1.074-3.552-1.367-10.187,2.8-18.351,9.949-25.017,3.758-3.5,5.024-7.109,3.477-11.878a6.17,6.17,0,0,1-.156-1.835c0-.169.206-.343,1-1.522,1.848,2.615,3.426,4.855,5.162,7.309A6.627,6.627,0,0,1,4828.557,6644.065Z" transform="translate(-326.268 -209.155)" fill="#fff"/>
    <path id="Path_1186" data-name="Path 1186" d="M4602.855,6204.845c-10.036,4.438-19.536,2.784-28.437-2.771-3.995-2.49-7.421-2.5-11.21-.144a18.546,18.546,0,0,1-2.734,1.155c-.337-.362-.674-.718-1-1.08,1.622-2.047,3.245-4.1,4.861-6.136-.324-2.209-.718-4.881-1.117-7.552l1.4-.487c.649,1.143,1.385,2.241,1.922,3.433,2.141,4.788,3.776,5.68,8.963,4.531,2.229-.487,4.419-1.155,6.61-1.785,8.738-2.528,15.91.2,21.9,6.641C4606.008,6202.791,4605.533,6203.665,4602.855,6204.845Z" transform="translate(-235.542 -41.113)" fill="#fff"/>
    <path id="Path_1187" data-name="Path 1187" d="M4381.9,6305.68c-4.525,10.2-12.9,15.08-23.356,16.946-4.045.724-6.554,2.677-7.7,6.6a19.326,19.326,0,0,1-1.654,3.24c-.456-.043-.912-.081-1.367-.119-.181-2.584-.362-5.168-.574-8.22-2.041-.643-4.994-1.5-5.618-5.773,2.041.643,3.8,1.042,5.43,1.742,3.645,1.554,4.981,1.41,7.5-1.729a56.9,56.9,0,0,0,4.319-6.447c4.813-8.052,12.04-11.022,21.1-10.162C4382.887,6302.028,4383.118,6302.927,4381.9,6305.68Z" transform="translate(-153.669 -83.876)" fill="#fff"/>
    <path id="Path_1188" data-name="Path 1188" d="M4314.434,6383.287c-1.536,11.248-8.788,17.932-18.15,22.75-3.527,1.816-5.075,4.27-5.237,8.008a37,37,0,0,1-.537,3.857l-1.448.262c-.9-2.459-1.81-4.918-2.877-7.814-2.172-.237-5.3-.212-7.134-4.175a45.85,45.85,0,0,1,6.055.437c2.9.612,4.956-.3,6.061-2.946a65.974,65.974,0,0,0,2.852-8.2c2.4-8.888,8.283-13.851,17.127-15.585C4314.4,6379.242,4314.883,6380.041,4314.434,6383.287Z" transform="translate(-130.149 -113.217)" fill="#fff"/>
    <path id="Path_1189" data-name="Path 1189" d="M4029.037,6775.934c-.256.475-.518.949-.78,1.417-2.447-.8-4.893-1.6-7.852-2.559a8.109,8.109,0,0,1-7.783,3.251c1.667-1.991,2.721-3.7,4.194-4.906,2.472-2.01,2.834-4.244,1.3-6.81s-3.227-5.062-4.956-7.515a21.14,21.14,0,0,1-.73-23.425c1.167-1.816,2.384-1.167,3.551-.006,6.966,6.972,9.537,15.311,7.84,25a26.025,26.025,0,0,0-.774,6.142,10.774,10.774,0,0,0,1.8,4.993A33.17,33.17,0,0,0,4029.037,6775.934Z" transform="translate(-28.743 -246.482)" fill="#fff"/>
    <path id="Path_1190" data-name="Path 1190" d="M4909.411,6408.638c-.761,2.341-1.916,2.391-3.633.961-1.667-1.385-3.4-2.7-5.112-4.038-3.439-2.7-6.073-5.979-6.972-10.367a105.774,105.774,0,0,1-2.253-12.552,7.319,7.319,0,0,0-3.889-6.223c-1.561-.937-3.077-1.923-4.613-2.89.125-.475.25-.943.381-1.417,2.622.181,5.249.368,8.289.574.936-2.06,2.3-4.738,6.709-4.906a45,45,0,0,1-2.946,5.648c-1.828,2.516-1.423,4.719.556,6.7,2.2,2.2,4.538,4.27,6.928,6.248C4909.049,6391.5,4911.882,6401.079,4909.411,6408.638Z" transform="translate(-357.114 -108.746)" fill="#fff"/>
    <path id="Path_1191" data-name="Path 1191" d="M4283.5,6764.111q-.093.44-.187.88h-8.139c-.462,2.571-1.916,5.105-6.385,5.93,1.067-2.428,1.6-4.538,2.8-6.148,1.735-2.315,1.523-4.294-.356-6.073a48.712,48.712,0,0,0-7.19-5.892c-8.919-5.662-10.049-14.187-8.626-22.239.5-2.79,2.066-2.047,3.882-1.036,9.887,5.511,14.256,14.437,15.423,25.172.431,3.914,2.035,6.36,5.673,7.671A21.167,21.167,0,0,1,4283.5,6764.111Z" transform="translate(-121.076 -244.364)" fill="#fff"/>
    <path id="Path_1192" data-name="Path 1192" d="M4553.913,6350.114c-10.286,4.625-19.748,2.11-28.755-3.2-3.82-2.253-7.1-2.315-10.724-.112a27.2,27.2,0,0,1-2.971,1.348c-.306-.35-.618-.706-.924-1.061,1.792-1.948,3.589-3.9,5.63-6.123-1.392-1.916-2.827-4.507-1.1-8.221a59.062,59.062,0,0,1,3.071,5.786c.942,2.384,2.553,3.589,5.018,3.221a53.574,53.574,0,0,0,8.789-1.848c8.782-2.846,16.34-1.011,22.907,5.393C4557.564,6347.942,4557.24,6348.616,4553.913,6350.114Z" transform="translate(-217.152 -95.58)" fill="#fff"/>
    <path id="Path_1193" data-name="Path 1193" d="M4337.78,7119.313c.568,2.054,1.254,4.882-1.822,7.809a36.87,36.87,0,0,1-1.367-5.93c-.175-3.114-1.9-4.537-4.675-4.818a71.283,71.283,0,0,0-8.4-.312c-8.72.138-14.8-3.976-18.844-11.465-1.566-2.9-.923-3.651,2.278-4.1,10.867-1.522,19.23,3.046,26.246,10.655,2.64,2.864,5.474,3.37,8.951,2.564,1.167-.269,2.378-.343,3.57-.512.218.438.437.874.655,1.3Z" transform="translate(-138.722 -384.018)" fill="#fff"/>
    <path id="Path_1194" data-name="Path 1194" d="M4275.976,7066.248a7.181,7.181,0,0,1-1.947,7.921c-.543-2.734-1.148-4.862-1.342-7.021-.181-2.061-1.011-3.427-3.033-3.7a36.226,36.226,0,0,0-7.671-.594c-9.362.749-17.408-3.8-21.166-12.258-1.129-2.547-.586-3.146,2.172-3.526,10.4-1.417,18.762,2.509,25.516,10.018,3.314,3.688,6.772,5.143,11.472,3.345a5.991,5.991,0,0,1,2.035-.03c.206.387.412.78.618,1.167C4280.508,7063.065,4278.385,7064.557,4275.976,7066.248Z" transform="translate(-115.572 -363.941)" fill="#fff"/>
    <path id="Path_1195" data-name="Path 1195" d="M4684.006,6698.165l-.149,1.367a29.458,29.458,0,0,1-4.987.368c-2.266-.206-3.714.68-4.275,2.715-.787,2.89-1.4,5.836-1.923,8.782a17.466,17.466,0,0,1-13.082,13.975c-2.017.462-2.666-.381-2.5-2.3.587-7.141,2.284-13.75,8.613-18.169.337-.237.605-.574.942-.812,4.513-3.14,8.539-6.529,6.311-13.227.524-.093,1.049-.181,1.573-.268,1.061,1.991,2.128,3.988,3.139,5.879C4679.581,6696.985,4681.8,6697.572,4684.006,6698.165Z" transform="translate(-272.221 -230.074)" fill="#fff"/>
    <path id="Path_1196" data-name="Path 1196" d="M4467.609,6812.281c.6,1.791,1.323,3.945,2.041,6.092-.456.162-.9.318-1.36.48a22.008,22.008,0,0,1-2.678-3.326c-1.492-2.8-3.646-3.146-6.286-2.054a58.89,58.89,0,0,0-5.368,2.472c-6.978,3.757-13.569,3.046-19.867-1.561-2.372-1.741-2.235-2.391.174-4.007,7.484-5.024,15.4-5.162,23.469-1.973,3.833,1.517,6.991,1.255,9.943-1.635a8,8,0,0,1,1.829-1.03c.293.175.586.35.886.524C4469.457,6808.274,4468.527,6810.29,4467.609,6812.281Z" transform="translate(-187.779 -273.348)" fill="#fff"/>
    <path id="Path_1197" data-name="Path 1197" d="M4734.9,6559.437c-1.454,3.1-2.241,3.059-4.5.605-5.779-6.254-7.3-13.632-5.648-21.652.942-4.581.131-8.133-3.651-10.923a2.523,2.523,0,0,1-.605-.7,9.9,9.9,0,0,1-.343-1.654l6.822,2.1c1.76-.949,3.783-2.035,5.8-3.121.275.362.549.73.824,1.093a38.23,38.23,0,0,1-3.339,3.738c-1.892,1.642-2.179,3.452-.968,5.505a51.2,51.2,0,0,0,3.552,5.468C4737.6,6546.011,4738.145,6552.508,4734.9,6559.437Z" transform="translate(-295.932 -167.492)" fill="#fff"/>
    <path id="Path_1198" data-name="Path 1198" d="M4945.858,6998.861c-.013.368-.019.736-.031,1.1a32.5,32.5,0,0,1-3.414.718c-4.75.493-6.342,2.185-6.878,7.034a37.306,37.306,0,0,1-1.43,7.621c-1.929,5.823-6.4,9.013-12.078,10.7-2.041.6-2.7-.168-2.6-2.391.4-9.269,4.787-16.222,12.458-20.935,3.258-2,3.945-4.469,3.8-7.746-.044-1-.007-2.016-.007-3.021l1.217-.506c1.086,1.935,2.166,3.87,3.383,6.042C4941.751,6997.85,4943.8,6998.356,4945.858,6998.861Z" transform="translate(-370.824 -343.141)" fill="#fff"/>
    <path id="Path_1199" data-name="Path 1199" d="M4675.688,6134.307c-5.692,1.242-11.347,3.2-17.121.293a49.08,49.08,0,0,1-8.333-4.8,7.616,7.616,0,0,0-8.626-1.124,15.7,15.7,0,0,1-2.565.7l-.543-.824c1.573-1.411,3.152-2.821,4.638-4.151-.237-1.829-.506-3.919-.774-6.01l1.136-.281a26.316,26.316,0,0,1,1.592,3.757c.68,2.653,2.334,3.876,4.968,3.651,2.466-.206,4.931-.562,7.371-.979,7.44-1.248,13.183,1.46,17.6,7.377a4.072,4.072,0,0,1,.562,1.1A6.659,6.659,0,0,1,4675.688,6134.307Z" transform="translate(-265.244 -14.91)" fill="#fff"/>
    <path id="Path_1200" data-name="Path 1200" d="M4305.611,6149.831c-4.182,5.817-8.576,10.967-16.4,11.41a49.75,49.75,0,0,0-8.9,1.3,10.066,10.066,0,0,0-4.051,2.509,16.323,16.323,0,0,0-2.229,3.308c-.312-.087-.624-.175-.942-.262.381-1.91.768-3.814,1.192-5.948-1.192-1.036-2.74-2.378-4.288-3.727.156-.23.306-.455.462-.687a18.031,18.031,0,0,1,2.434.961c3.932,2.209,6.248,1.928,9.487-1.286a15.142,15.142,0,0,0,1.81-2.135c5.823-8.433,12.5-7.69,20.4-6.279C4304.925,6149.057,4305.2,6149.481,4305.611,6149.831Z" transform="translate(-126.744 -26.189)" fill="#fff"/>
  </g>
</svg>
