<svg id="Group_2090" data-name="Group 2090" xmlns="http://www.w3.org/2000/svg" width="263.444" height="261.854" viewBox="0 0 263.444 261.854">
  <path id="Path_822" data-name="Path 822" d="M4578.032,5779.412c-5.976,9.216-12.075,18.212-21.5,24.494-4.594,3.065-8.484,7.175-12.895,10.555-2.918,2.223-6.253,2.7-10.02,1.755-22.476-5.632-43.913-3.621-63.792,9.12-.395.256-.819.461-1.455.819-3.1-2.677-5.551-5.588-5.741-10.408,3.54,4.842,3.62,4.989,8.7,2.253,4.279-2.3,8.294-5.083,12.521-7.482a127.708,127.708,0,0,1,11.936-6.231c8.1-3.533,16.171-2.553,24.085.855,2.457,1.061,4.893,2.15,7.329,3.269a10.427,10.427,0,0,0,10.444-.548,3.986,3.986,0,0,1,1.616-.82c7.241-.41,10.664-5.353,14.32-10.832,3.043-4.571,7.446-8.308,11.527-12.119,6.714-6.275,6.056-11.052-2.29-14.767-.409-.183-.774-.447-1.733-1,2.341-.314,4.074-.5,5.793-.79,6.041-1.023,8.63.4,11.469,5.851A5.343,5.343,0,0,1,4578.032,5779.412Z" transform="translate(-4435.412 -5611.959)" fill="#474747"/>
  <path id="Path_823" data-name="Path 823" d="M4955.086,5813.928c-2.889,1.895-6.063,3.972-9.237,6.049-.205-.219-.41-.439-.607-.658a3.844,3.844,0,0,1,.556-1.046c5.223-4.944,5.09-10.81,3.343-17.2-2.824-10.3-5.924-20.588-7.782-31.083-1.141-6.458-.227-13.282-.176-19.937.015-1.938.461-3.9.3-5.814-.373-4.345-2.384-5.844-6.436-7.08a167.135,167.135,0,0,1-17.319-6.473c-3.1-1.331-5.866-3.445-8.776-5.208-4.235-2.56-8.543-4.776-14.035-3.386,2.633-2.794,5.215-5.646,7.957-8.331a2.863,2.863,0,0,1,2.538-.431c14,5.924,28.15,11.5,38.932,23.024,4.425,4.732,6.538,9.53,4.169,15.8-2.3,6.122-.856,12.163.094,18.336,1.778,11.541,2.97,23.163,4.52,34.741C4953.5,5807.975,4954.341,5810.659,4955.086,5813.928Z" transform="translate(-4729.221 -5575.231)" fill="#474747"/>
  <path id="Path_824" data-name="Path 824" d="M4739.822,5382.832c-1.689,2.267-3.4,4.6-5.148,6.911-1.888,2.5-3.526,5.3-5.786,7.409-5.01,4.681-7.051,10.122-5.31,16.778,3.541,13.5,3.124,27.01.191,40.525a41.409,41.409,0,0,1-1.646,5.215,24.568,24.568,0,0,1-1.411,2.743c-.987-10.364-2.37-20.347-2.75-30.367a91.252,91.252,0,0,1,1.653-19.944c.862-4.638,3.306-8.982,4.915-13.1-4.512,3.438-9.339,7.533-14.605,10.948-2.509,1.624-5.807,2.246-8.842,2.78-2.977.526-6.085.242-9.106.556-3.8.4-4.513,1.565-3.312,5.032,2.962,8.608,5.968,17.194,8.938,25.8a22.667,22.667,0,0,1,1.207,4.2c.417,2.962,1.324,5.413,5.12,6.034-7.021-.629-6.561,5.112-9.084,8.667.607-2.436.724-5.164,1.931-7.248a8.883,8.883,0,0,0,.264-9.032,133.938,133.938,0,0,0-6.9-12.017,35.641,35.641,0,0,1-5.749-21.869c.109-1.843,1.529-4.563,3.043-5.192,7.5-3.1,15.1-7.219,22.921-7.877,6.436-.534,11.643-3.979,17.78-4.418a1.816,1.816,0,0,0,1.171-.724c1.923-2.743,3.781-5.521,5.675-8.286C4736.3,5384.411,4737.379,5381.983,4739.822,5382.832Z" transform="translate(-4586.078 -5350.574)" fill="#474747"/>
  <path id="Path_825" data-name="Path 825" d="M4843.768,5463.3c-2.07,17.758-4.3,35.5-6.51,53.245a7.486,7.486,0,0,1-.629,1.433c-10.634-2.055-17.67-11.292-27.836-14.577,2.933,0,5.873-.124,8.8.022a13.083,13.083,0,0,0,12.573-6.619,67.046,67.046,0,0,0,5.836-12.1,141.176,141.176,0,0,0,4.256-15.842c.227-1.017-.606-2.413-1.236-3.467-1.6-2.662-3.371-5.229-5.068-7.84-.109-.527-.212-1.061-.314-1.587q-.965-6.6-1.937-13.208c.321-.1.644-.205.965-.315.395.607.827,1.192,1.185,1.822,2.859,4.914,5.755,9.8,8.513,14.773C4843.08,5460.339,4843.921,5461.949,4843.768,5463.3Z" transform="translate(-4670.686 -5391.213)" fill="#474747"/>
  <path id="Path_826" data-name="Path 826" d="M4789.063,5687.622c-1.879,7.248-3.5,13.809-5.339,20.3a7.27,7.27,0,0,1-2.384,3.541c-4.2,3.21-8.564,6.2-13,9.383-1.016-1.718-2.121-3.729-3.364-5.653-2.516-3.9-4.667-4.813-9.23-3.8-6.253,1.375-12.324,1.946-17.729-3.613,7.921-1.916,15.666-3.964,23.528-1.39,4.41,1.448,8.448,1.17,11.659-1.661,4.958-4.38,9.354-9.413,13.947-14.2A21.714,21.714,0,0,0,4789.063,5687.622Z" transform="translate(-4622.579 -5557.85)" fill="#474747"/>
  <path id="Path_827" data-name="Path 827" d="M5095.132,6044.345c-1.938,1.375-3.694,3.182-5.836,4.037-6.253,2.494-12.521,4.14-19.477,1.8-3.394-1.148-7.417-.57-11.146-.512-4.381.066-8.806,1.053-13-1.367,10.928-1.207,21.861-2.407,33.264-3.665-2.765-1.009-5.289-2.268-7.958-2.823-4.168-.863-7.833-2.07-8.652-7.329-3.985,3.518-7.942,4.9-13.428,2.925,2.669-.468,4.578-.548,6.282-1.17a26.321,26.321,0,0,0,4.439-2.6l-.46-1.119c-2.567.614-5.127,1.236-7.76,1.864,2.385-1.953,4.666-3.949,7.109-5.719a2.731,2.731,0,0,1,2.494.044c3.387,2.333,6.685,4.8,9.955,7.3,4.586,3.511,9.552,5.559,15.513,5.354,2.815-.095,5.675.966,8.513,1.5C5095.037,6043.357,5095.081,6043.848,5095.132,6044.345Z" transform="translate(-4831.688 -5789.456)" fill="#474747"/>
  <path id="Path_828" data-name="Path 828" d="M4399.593,5898.469c.731-1.361,1.543-2.868,2.415-4.483-2.326-1.675-4.1-.761-5.149,1.28a20.317,20.317,0,0,0-2.048,6.173,19.053,19.053,0,0,1-9.508,13.962c-4.03,2.472-5.229,10.473-1.689,13.479.746.629,3.159-.716,4.746-1.133a29.174,29.174,0,0,1-1.616,4.454c-.608,1.163-1.682,2.78-2.685,2.874-1.118.109-2.742-.995-3.518-2.033a14.337,14.337,0,0,1-2.37-12.5,44.184,44.184,0,0,1,4.769-10.48c2.977-5.112,6.575-9.873,9.479-15.022,3.042-5.412,4.022-6.122,10.086-4.345,2.377.7,5.609-.19,6.795,3.373C4405.935,5895.6,4402.855,5896.992,4399.593,5898.469Z" transform="translate(-4377.652 -5695.281)" fill="#474747"/>
  <path id="Path_829" data-name="Path 829" d="M4875.679,5293.614c-.359.373-.709.746-1.068,1.119a27.423,27.423,0,0,0-3.393-3.138,10.61,10.61,0,0,0-3.613-1.309c-1.931-.409-3.913-.556-5.851-.921-2.509-.468-5.1-1.785-7.467-1.448-10.524,1.5-11.5,3.138-10.349,13.786a95.965,95.965,0,0,1,.058,10.254l-1.39.131c-1.1-5.112-2.72-10.188-3.174-15.359-.607-6.963,7.226-14.913,14.108-14.181a76.868,76.868,0,0,1,16.171,3.942C4872.834,5287.536,4874.735,5290.417,4875.679,5293.614Z" transform="translate(-4691.487 -5282.501)" fill="#474747"/>
  <path id="Path_830" data-name="Path 830" d="M4903.73,5411.582c-.293.314-.585.622-.878.937q-6.462-5.858-12.916-11.725c-.168-.153-.38-.424-.351-.621.841-6.567-5.317-7.914-8.528-11.446-1.74-1.9-3.453-3.847-5.317-5.617a5.561,5.561,0,0,0-2.6-1.061c-1.514-.329-3.072-.482-4.608-.709-.007-.205-.022-.417-.029-.629,2.779-.14,5.565-.322,8.352-.424,7.387-.257,14.986,6.6,16,14a14.227,14.227,0,0,0,2.6,5.522C4898.1,5403.808,4900.959,5407.669,4903.73,5411.582Z" transform="translate(-4711.267 -5348.959)" fill="#474747"/>
  <path id="Path_831" data-name="Path 831" d="M4784.894,5646.86c-17.085-3.327-21.364,9.61-27.405,20.574.673-4.894,1.061-9.852,2.129-14.649a20.622,20.622,0,0,1,3.657-7.818c4.629-6.063,9.888-6.692,16.149-2.407A49.068,49.068,0,0,1,4784.894,5646.86Z" transform="translate(-4635.815 -5525.346)" fill="#474747"/>
  <path id="Path_832" data-name="Path 832" d="M4860.26,5420.192c-.644-.468-1.573-.8-1.887-1.441-3.218-6.626-6.443-13.252-9.427-19.988a14.237,14.237,0,0,1-1.419-6.582c.256-2.955,2.531-4.433,6.247-4.71-3.328,3.459-2.926,7.014-1.675,10.62q3.324,9.6,6.743,19.169c.183.512.724.9,1.1,1.346C4860.048,5419.132,4860.151,5419.666,4860.26,5420.192Z" transform="translate(-4696.993 -5353.846)" fill="#474747"/>
  <path id="Path_833" data-name="Path 833" d="M4948.553,5488.4c-.9,2.494-1.36,5.288-2.786,7.431-5.587,8.382-13.78,8.374-20.142-.168a9.055,9.055,0,0,0,2.457,1.864c1.661.527,3.635,1.288,5.135.827,2.713-.834,5.024-2.582,8.272-1.5.694.234,2.45-2.428,3.569-3.868,1.192-1.528,2.208-3.188,3.3-4.783Z" transform="translate(-4750.093 -5422.313)" fill="#474747"/>
  <path id="Path_834" data-name="Path 834" d="M4976.735,5455.229l-.2-.2c1.675-7.979-5.229-10.62-9.449-15.513.849,0,1.814-.307,2.268.051,3.232,2.553,6.831,4.856,9.405,7.979C4981.68,5451.1,4980.933,5452.625,4976.735,5455.229Z" transform="translate(-4778.274 -5389.138)" fill="#474747"/>
  <path id="Path_835" data-name="Path 835" d="M4736.844,5617.9a12.837,12.837,0,0,0-1.865,3.005c-1.565,2.721-3.627,3.2-6.692,1.339,1.6-.417,2.75-.717,4.029-1.053-2.413-1.77-2.413-3.679.286-4.264,4.563-1,5.6-3.958,5.529-8.419C4740.479,5613.394,4740.172,5614.761,4736.844,5617.9Z" transform="translate(-4615.968 -5504.078)" fill="#474747"/>
  <path id="Path_836" data-name="Path 836" d="M4941.329,5345.031c1.221-.915,1.718-1.28,2.041-1.521-.8-2.538-1.559-4.974-2.334-7.446h2.436c.088-1.266.176-2.545.264-3.826.336.044.665.081,1,.118-.3,1.9-.68,3.8-.863,5.7a6.365,6.365,0,0,0,.351,2.692,42.914,42.914,0,0,0,1.974,3.986C4944.452,5344.841,4943.333,5344.906,4941.329,5345.031Z" transform="translate(-4760.567 -5316.306)" fill="#474747"/>
  <path id="Path_837" data-name="Path 837" d="M4902.308,5701.787c-2.662,2.136-5.134,4.132-7.986,6.429,1.521-3.488,2.838-6.487,4.272-9.771C4899.764,5699.5,4900.97,5700.58,4902.308,5701.787Z" transform="translate(-4728.817 -5565.206)" fill="#474747"/>
</svg>
