<svg xmlns="http://www.w3.org/2000/svg" width="1179.314" height="452.677" viewBox="0 0 1179.314 452.677">
  <g id="Group_1896" data-name="Group 1896" transform="translate(-6716.275 -1676.951)" opacity="0.03">
    <path id="Path_286" data-name="Path 286" d="M7052.663,1988.843c3.852-7.2,7.257-14.65,10.43-22.176,1.278-3.021,2.629-4.076,5.936-3.531,7.044,1.171,14.149,2.038,21.265,2.708,1.26.116,3.6-1.064,3.87-2.065,2.047-7.615,3.646-15.347,5.523-23.007.707-2.869-.106-4.3-2.994-5.184-6.972-2.127-13.81-4.693-20.79-6.784-2.387-.715-2.9-1.779-2.8-4.085.349-8.92.652-17.841.6-26.761-.009-2.726,1.037-3.638,3.308-4.281,6.73-1.913,13.371-4.138,20.146-5.837,3.513-.885,4.031-2.807,3.433-5.81-1.421-7.15-2.914-14.292-4.121-21.479-.474-2.824-1.546-3.683-4.433-3.352-7.24.822-14.534,1.18-21.783,2.02-2.637.3-3.619-.625-4.523-2.932-3.047-7.741-6.006-15.562-9.7-23-1.868-3.754-.85-5.479,1.958-7.731,6.006-4.844,11.78-9.975,18.046-15.32-5.192-7.5-10.181-14.543-14.972-21.711-1.68-2.521-3.2-2.762-5.783-1.216q-9.385,5.617-19.093,10.655c-1.171.608-3.593.518-4.46-.3-7.364-6.874-14.507-13.989-21.988-21.309,3.854-8.116,7.893-16.643,12.085-25.492-8.769-5.274-17.125-10.306-25.912-15.588-4.746,6.436-9.475,12.523-13.819,18.869-2.046,2.976-3.816,4.254-7.605,2.78-7.885-3.084-15.947-5.712-24.01-8.322-2.242-.724-3.083-1.752-2.994-4.1.3-7.437.385-14.883.653-22.319.071-2.226-.251-3.611-2.95-3.9-7.981-.858-15.945-1.913-23.91-3.012-2.431-.34-3.378.42-3.87,2.887-1.438,7.142-3.36,14.194-4.755,21.345-.563,2.9-1.7,3.736-4.63,3.879-8.312.411-16.644,1.019-24.9,2.1-3.361.438-4.782-.411-5.953-3.423-2.959-7.58-6.222-15.034-9.475-22.811-9.787,3.012-19.235,5.917-28.754,8.849,1.68,8.715,3.084,16.777,4.853,24.75.617,2.771-.187,3.9-2.573,5.122-7.125,3.647-14.338,7.222-21.006,11.593-3.826,2.512-5.917,2.136-8.9-.983-5.3-5.542-11.057-10.646-16.795-16.089-7.884,6.829-15.267,13.22-22.838,19.781,5.077,7.169,9.806,14.015,14.74,20.71,1.466,1.984,1.8,3.245-.01,5.327-4.2,4.818-8.205,9.823-12,14.963-6.7,9.072-6.579,9.072-17.323,4.979-5.21-1.993-10.537-3.683-15.954-5.56-4.022,8.527-7.714,16.473-11.53,24.357-1.064,2.19-.716,3.4,1.475,4.63,6.489,3.638,12.907,7.4,19.19,11.361,1.152.733,2.449,2.833,2.19,3.96-2.271,9.832-4.881,19.584-7.526,29.89-7.6.625-15.731,1.466-23.883,1.895-3.3.17-4.317,1.332-4.291,4.55.045,7.446-.125,14.891-.465,22.328-.134,2.95,1.047,3.933,3.764,4.2,7.258.724,14.516,1.493,21.729,2.556,1.341.2,3.325,1.662,3.558,2.824,1.931,9.9,3.53,19.843,5.31,30.248-6.883,3.727-14.168,7.732-21.515,11.6-2.342,1.234-3.281,2.4-2,5.211,3.137,6.9,6,13.935,8.759,21.005,1.1,2.815,2.45,3.513,5.381,2.485,6.874-2.4,13.917-4.335,20.8-6.74,2.593-.9,3.584,0,4.934,2.038,4.764,7.186,9.636,14.31,14.82,21.193,1.814,2.413,1.823,3.906.018,6.141-4.577,5.667-9.054,11.423-13.3,17.34-.726,1.01-.752,3.656.017,4.416,5.81,5.748,11.933,11.182,17.877,16.8,1.9,1.8,3.262,1.117,4.9-.358,5.29-4.791,10.733-9.412,15.979-14.248,2.065-1.9,3.62-2.11,6.123-.483,6.838,4.469,13.8,8.768,20.961,12.683,3.191,1.743,4.2,3.379,3.209,6.963-2.137,7.687-3.816,15.5-5.748,23.5,8.876,3.128,17.395,6.239,26.011,9.01.992.322,3.263-.93,3.8-2.011,3.3-6.668,6.186-13.532,9.421-20.227.591-1.216,2.279-2.9,3.254-2.771,10.3,1.332,20.549,2.985,31.222,4.612.724,4.12,1.474,8.652,2.323,13.166.876,4.648,1.843,9.269,2.852,14.328,8.974-.724,17.538-1.573,26.127-2.038,3.227-.17,3.95-1.546,3.933-4.416-.062-7.151.161-14.3.17-21.443,0-2.315.4-3.79,3.1-4.5,8.179-2.154,16.357-4.416,24.349-7.159,3.53-1.207,5.354-.465,7.239,2.493,3.745,5.9,7.866,11.549,11.648,17.43,1.429,2.217,2.814,2.109,4.8.983,6.6-3.727,13.192-7.508,19.933-10.985,2.932-1.51,3.315-3.137,2-5.98-3-6.48-5.872-13.023-8.519-19.646-.491-1.242-.25-3.638.626-4.424q10.418-9.412,21.309-18.288a4.892,4.892,0,0,1,4.38-.25c4.827,2.637,9.448,5.649,14.149,8.518,7.634,4.666,7.714,4.728,13.363-2.387,4.316-5.443,8.393-11.074,12.755-16.849-6.248-5.613-12.085-10.9-17.966-16.134C7051.8,1993.991,7050.893,1992.15,7052.663,1988.843Zm-54.631-156.117c-3.254,2.261-6.5,4.5-10.056,6.981-10.3-10.869-21.668-19.968-35.263-26.136a107.269,107.269,0,0,0-42.681-9.6c-.447-4.031-.866-7.821-1.277-11.531C6930.154,1785.862,6979.556,1808.154,6998.032,1832.726Zm-182.924,129.347a59.359,59.359,0,0,0-5.747,4.058c-16.24-12.7-22.132-73.008-9.341-97.168,3.012,1.412,6.266,2.53,8.974,4.433.939.653,1.073,3.432.617,4.952a100.325,100.325,0,0,0-4.022,38.354,103.638,103.638,0,0,0,11.227,38.712C6818.522,1958.72,6818.21,1960.365,6815.108,1962.072Zm-7.187-112.051c18.852-30.73,45.076-49.527,80.418-56.768.26,2.342.475,4.192.671,6.042.2,1.913.385,3.834.644,6.427-29.631,7.267-53.872,22.382-70.14,49.742Zm101.191,174.029c-23.2,5.14-76.119-19.253-88.258-40.946,3.164-2.235,6.364-4.5,9.037-6.382,7.661,6.23,14.569,12.576,22.186,17.9,15.757,11.012,33.6,16.3,52.726,17.153,3.344.152,4.516,1.073,4.292,4.38a59.162,59.162,0,0,0,.4,7.106C6909.515,2023.523,6909.247,2023.792,6909.113,2024.051Zm-.7-70.184c-26.332-1.073-45.639-21.8-44.736-48.017.868-24.92,21.954-44.307,47.3-43.476,25.662.081,45.309,23.606,44.1,47.909C6953.885,1934.444,6932.415,1954.841,6908.415,1953.867Zm22.061,68.083a9.376,9.376,0,0,1-.563-1.582c-1.778-9.618-1.726-9.475,7.428-12.228,25.957-7.8,46.471-22.855,60.764-46.077a12.951,12.951,0,0,1,1.26-1.421c3.441,1.627,6.989,3.289,10.477,4.934C7002.867,1988.771,6955.038,2022.594,6930.476,2021.95Zm88.427-75.171c-11.218-3.754-11.11-3.727-8.491-14.507,6.149-25.206,2.574-49.259-8.858-72.338-.456-.921-.912-1.841-1.636-3.307q4.707-3.446,9.439-6.927C7025,1870.731,7032.122,1914.5,7018.9,1946.779Z" transform="translate(0 -4.061)"/>
    <path id="Path_287" data-name="Path 287" d="M7703.289,1979.534c2.352-9.028,4.38-18.145,6.57-27.584-8.17-2.735-15.875-5.39-23.642-7.857-2.7-.867-3.611-2.208-3.459-5.166.43-8.76.616-17.546.5-26.314-.036-2.86,1.2-3.513,3.441-4.129,6.884-1.9,13.686-4.13,20.594-5.9,3.12-.8,3.594-2.369,3-5.175-1.529-7.276-2.985-14.578-4.237-21.908-.51-3-1.8-3.915-4.781-3.548-7.1.885-14.239,1.359-21.327,2.261-2.709.349-3.942-.3-4.862-3-2.012-5.908-4.4-11.7-6.811-17.457-1.422-3.37-3.191-6.6-4.783-9.841,6.722-5.658,13.148-10.949,19.387-16.456.93-.822,1.806-3.182,1.323-3.906-5.147-7.785-10.573-15.374-16-23.141-7.759,4.335-15.187,8.411-22.524,12.63-2,1.153-3.155,1.028-4.9-.751-5.622-5.72-11.173-11.638-17.52-16.491-4.147-3.164-3.951-5.676-1.931-9.555,3.425-6.57,6.589-13.282,10.065-20.362-8.839-5.3-17.4-10.431-26.046-15.606-6.053,8.089-11.639,15.562-16.858,22.542-9.94-3.128-19.45-6-28.835-9.233-1.252-.438-2.61-2.726-2.638-4.174-.116-7.142.046-14.3.43-21.434.17-3.146-.624-4.6-3.951-4.916q-10.885-1.032-21.729-2.619c-3.128-.456-4.55.313-5.174,3.575q-2.039,10.713-4.817,21.264a4.931,4.931,0,0,1-3.469,2.816c-9.153,1.019-18.323,1.859-27.513,2.386-1.287.072-3.324-1.6-3.933-2.958-2.869-6.364-5.471-12.853-7.929-19.387-1.1-2.914-2.324-3.906-5.6-2.771-6.883,2.369-13.89,4.46-20.95,6.221-3.55.876-4.05,2.672-3.4,5.729,1.5,6.981,2.753,14.024,4.425,20.96.652,2.717-.456,3.665-2.547,4.755-7.769,4.067-15.535,8.152-23.106,12.576-2.323,1.359-3.575,1.09-5.327-.617-5.228-5.095-10.718-9.921-15.848-15.1-2.1-2.127-3.441-1.993-5.516-.125q-8.606,7.763-17.527,15.186c-2.172,1.8-1.948,3.164-.438,5.193,3.826,5.131,7.293,10.529,11.244,15.562,2.754,3.522,3.147,6.078-.17,9.779a171.01,171.01,0,0,0-14.326,18.761c-1.825,2.708-3.21,2.664-5.767,1.68q-10-3.848-20.164-7.2c-1.189-.393-3.639-.062-4,.679-4.184,8.321-8.062,16.795-12.12,25.438,7.5,4.46,14.489,8.7,21.586,12.764,2.458,1.4,3.093,2.887,2.315,5.747-2.155,8.035-4.191,16.125-5.694,24.3-.661,3.62-2.164,4.532-5.516,4.657-6.989.277-13.97.876-20.924,1.573-1.145.116-3.094,1.358-3.111,2.118-.214,9.332-.143,18.663-.143,28.334,7.965.93,16.062,1.993,24.2,2.753,2.887.268,4,1.359,4.461,4.255a240.051,240.051,0,0,0,4.639,24.089c1.046,3.969.044,5.56-3.263,7.222-7.017,3.522-13.854,7.383-21.122,11.3,3.773,8.9,7.284,17.4,11.058,25.8.348.76,2.5,1.35,3.549,1.055,7.016-1.958,14.023-4.022,20.915-6.391,3.209-1.108,4.676-.054,6.383,2.583,4.433,6.865,9.045,13.631,13.987,20.129,1.886,2.494,2.136,3.844.063,6.364-5.254,6.373-10.108,13.086-15.23,19.817,7.607,7.1,14.758,13.756,22.068,20.585,6.588-5.819,12.889-11.236,18.993-16.858,2.048-1.877,3.291-1.806,5.659-.259,7.2,4.719,14.615,9.18,22.185,13.282,2.71,1.466,3.245,2.744,2.493,5.533q-2.84,10.565-5.13,21.264c-.251,1.18.475,3.531,1.3,3.834,8.618,3.2,17.341,6.078,26.377,9.162,3.575-7.776,7.106-15.133,10.342-22.623,1.136-2.637,2.36-3.388,5.327-2.932,8.527,1.3,17.109,2.261,25.7,3.066,2.512.241,3.728.957,4.147,3.513,1.135,6.9,2.735,13.738,3.629,20.665.519,4.022,2.3,4.729,5.9,4.291,6.65-.8,13.336-1.475,20.03-1.689,4.3-.134,5.631-1.9,5.524-5.971-.2-7.722-.054-15.445-.054-22.775,10.162-3.3,19.727-6.5,29.389-9.385,1.126-.34,3.316.688,4.094,1.752,4.979,6.838,9.69,13.872,14.7,21.139,7.864-4.335,15.328-8.635,22.987-12.55,2.969-1.519,3.361-2.994,2-5.89-2.987-6.319-5.524-12.844-8.5-19.173-1.376-2.905-.473-4.4,1.879-6.221,5.521-4.282,10.877-8.787,16.089-13.443,6.086-5.426,5.934-5.444,12.879-1.028,5.711,3.629,11.575,7.017,17.492,10.574,6.266-8.331,12.12-16.116,18.127-24.116-6.487-5.926-12.6-11.369-18.5-17.019-1.028-.983-2.082-3.262-1.636-4.255,4.255-9.3,8.84-18.449,13.56-28.12,7.883,1.046,16.115,2.217,24.384,3.155C7700.662,1980.964,7703.092,1980.285,7703.289,1979.534ZM7518.571,1806.6c.588-.027,1.17-.045,1.76-.063s1.18-.018,1.762-.018q1.044,0,2.091.027c.385.009.769.018,1.152.036l1.162.054c.617.027,1.226.063,1.833.107l1.278.107c.6.045,1.188.107,1.787.17.216.027.439.045.652.072.608.063,1.216.143,1.824.223.3.036.608.081.911.125s.6.081.9.134c.6.089,1.2.188,1.8.286l1.779.322a.031.031,0,0,1,.025.009c.393.072.8.152,1.188.232,1.038.206,2.074.429,3.1.662.705.161,1.412.331,2.11.51q2.117.523,4.209,1.117c.778.223,1.565.447,2.332.688.976.3,1.939.59,2.905.9q2.615.844,5.211,1.77c12.818,4.55,24.152,11.718,34.654,20.156.75.6,1.475,1.234,2.189,1.886.349.34.7.67,1.038,1s.688.688,1.027,1.037c.269.286.536.563.8.849.124.125.241.25.348.375s.233.25.34.375c.822.9,1.627,1.823,2.413,2.744q1.261,1.488,2.494,2.977a2.953,2.953,0,0,1,.233,2.038v.018c-.027.143-.054.286-.081.42v.009c-.036.143-.072.286-.116.42a4.788,4.788,0,0,1-.3.733,1.906,1.906,0,0,1-.393.518,51.676,51.676,0,0,1-7.026,4.514c-6.973-5.765-13.408-11.736-20.5-16.8-15.356-10.967-32.715-16.679-51.494-18.109l-.8-.053-.456-.027c-.1-.009-.2-.009-.286-.018-.474-.027-.9-.044-1.295-.062l-.672-.027c-.2-.009-.4-.027-.59-.045-.25-.018-.473-.036-.679-.071-.135-.018-.251-.045-.367-.072a2.626,2.626,0,0,1-.284-.072l-.162-.054a1.317,1.317,0,0,1-.2-.089,1.18,1.18,0,0,1-.216-.125,1.322,1.322,0,0,1-.18-.134,1.737,1.737,0,0,1-.384-.5,1.618,1.618,0,0,1-.115-.241,4.645,4.645,0,0,1-.261-.921c-.017-.089-.034-.17-.044-.259a2.233,2.233,0,0,1-.044-.3c-.036-.241-.062-.509-.09-.8-.055-.491-.089-1.046-.135-1.68s-.09-1.35-.134-2.154c-.018-.259-.018-.527-.026-.8C7518.525,1809.545,7518.571,1808.258,7518.571,1806.6Zm77.78,121.159c0,.107-.01.215-.018.313-.009.17-.019.339-.036.509,0,.073-.012.147-.017.219.036-.483.061-.969.09-1.455l-.02.324Zm.14-5.866c-.006-.568-.007-1.136-.025-1.7.007.228.014.454.02.684v.322C7596.491,1921.432,7596.489,1921.666,7596.491,1921.9Zm-.038-2.087c-.033-.84-.086-1.676-.146-2.51,0,.035.006.07.008.1.01.205.026.4.036.608.027.393.044.787.072,1.18.008.134.018.277.018.411a.443.443,0,0,1,.009.107C7596.452,1919.743,7596.452,1919.777,7596.453,1919.81Zm-.229-3.587c-.043-.5-.1-1.005-.15-1.508.011.091.022.181.028.275s.026.206.036.3a1.67,1.67,0,0,1,.026.295,5.245,5.245,0,0,1,.054.536C7596.221,1916.158,7596.222,1916.191,7596.223,1916.223Zm-.187-1.871c-.015-.135-.025-.271-.041-.4l.026.2a.735.735,0,0,0,.009.143C7596.034,1914.312,7596.032,1914.333,7596.036,1914.352Zm-.189-1.572q-.114-.872-.249-1.738c.01.065.021.129.03.194.044.241.081.492.106.733.018.116.036.232.054.357C7595.81,1912.478,7595.825,1912.629,7595.846,1912.78Zm-.5-3.277c-.116-.653-.232-1.3-.362-1.952l0,.03c.071.3.125.608.179.9s.116.616.161.92Zm-1.211-5.646c-.166-.65-.346-1.293-.529-1.936.063.219.133.436.193.654C7593.917,1903,7594.024,1903.43,7594.13,1903.857ZM7425.2,1976.79c-.9.536-1.777,1.09-2.671,1.663-.447.286-.887.572-1.333.867-.752.491-1.512.992-2.288,1.5q-.456.308-.939.617v-.009c-1.09-1.805-2.117-3.638-3.092-5.479-.232-.438-.466-.867-.671-1.3-.349-.679-.688-1.367-1.019-2.056s-.653-1.376-.966-2.074c-.419-.92-.822-1.85-1.216-2.78-.2-.465-.393-.929-.571-1.4-.2-.465-.383-.93-.555-1.4q-.992-2.548-1.84-5.131c-.189-.572-.376-1.153-.556-1.725-.1-.286-.187-.581-.268-.876-.179-.581-.349-1.162-.519-1.752s-.331-1.171-.491-1.761c-.072-.277-.144-.545-.215-.813s-.144-.545-.215-.823c-.134-.483-.25-.965-.358-1.457-.124-.483-.231-.974-.348-1.457-.232-.974-.438-1.958-.635-2.941s-.394-1.967-.563-2.958q-.536-2.963-.93-5.98c-.071-.5-.134-1-.2-1.51-.062-.528-.125-1.055-.17-1.582-.062-.456-.107-.912-.142-1.367-.055-.608-.108-1.207-.152-1.8-.046-.661-.089-1.323-.126-1.993-.044-.8-.08-1.591-.107-2.378-.018-.527-.036-1.063-.043-1.591-.011-.635-.02-1.278-.02-1.922s.009-1.3.02-1.948c.007-.456.025-.9.034-1.35.019-.545.036-1.082.063-1.627l.08-1.618c.082-1.305.18-2.61.3-3.915q.123-1.167.242-2.306c.152-1.314.322-2.619.519-3.933.125-.84.259-1.689.4-2.529.109-.662.233-1.323.358-1.984.1-.581.215-1.162.331-1.743q.079-.4.16-.8.819-3.982,1.878-7.937c.188-.7.375-1.394.571-2.092.08-.268.152-.527.215-.769s.134-.447.2-.653c.09-.313.179-.59.269-.849s.17-.491.25-.7a5.484,5.484,0,0,1,.3-.652,2.459,2.459,0,0,1,.134-.232,2.1,2.1,0,0,1,.178-.25,1.874,1.874,0,0,1,.17-.188.562.562,0,0,1,.144-.116.65.65,0,0,1,.09-.063.338.338,0,0,1,.089-.053,1.266,1.266,0,0,1,.2-.089.76.76,0,0,1,.216-.054.667.667,0,0,1,.142-.018,1.95,1.95,0,0,1,.555.018,3.2,3.2,0,0,1,.688.152c.107.036.216.063.34.107a2.112,2.112,0,0,1,.358.125c.151.053.312.116.483.188.518.206,1.116.465,1.806.769a38.2,38.2,0,0,0,3.682,1.609c.144.045.286.1.421.152a2.425,2.425,0,0,1,.375.161,3.882,3.882,0,0,1,.571.331,2.193,2.193,0,0,1,.277.232,3.112,3.112,0,0,1,.286.322,2.081,2.081,0,0,1,.187.313c.01.018.01.027.019.036a1.981,1.981,0,0,1,.107.295,1.939,1.939,0,0,1,.072.393,2.358,2.358,0,0,1,.026.357,6.254,6.254,0,0,1-.349,1.859c-.232.742-.455,1.475-.671,2.217-.331,1.108-.635,2.217-.921,3.325-.1.367-.187.742-.276,1.108-.179.742-.357,1.475-.519,2.217s-.322,1.475-.473,2.217c-.046.206-.089.42-.126.625q-.161.8-.3,1.609c-.1.545-.2,1.09-.276,1.635q-.63,3.875-.93,7.759c-.054.652-.1,1.314-.143,1.967a.441.441,0,0,0-.009.107c-.072,1.278-.126,2.556-.152,3.834-.026,1.51-.026,3.03.018,4.55.009.4.026.8.045,1.207.054,1.537.151,3.075.295,4.621.036.42.071.84.116,1.26.036.438.08.867.134,1.305.215,1.922.482,3.852.823,5.783.089.536.188,1.073.285,1.609.2,1.028.4,2.047.626,3.075s.456,2.047.716,3.066c.053.206.115.411.168.617.028.1.046.2.082.295.188.715.384,1.421.59,2.127.268.876.536,1.752.831,2.628.2.59.4,1.189.608,1.779.3.858.616,1.707.938,2.556q.376,1.006.778,2.011c.384.983.786,1.967,1.188,2.95.93,2.27,1.9,4.523,2.869,6.775l.857,2.011C7427.792,1973.671,7427.765,1975.262,7425.2,1976.79Zm.179-107.814c-2.4-1.439-5-2.574-7.989-4.094,18.752-30.623,45.058-49.384,80.363-56.624.044.465.1.921.143,1.377.063.572.125,1.126.188,1.68s.126,1.1.18,1.627c.026.215.054.429.071.644.045.411.089.813.116,1.207.019.107.019.206.026.3.027.295.054.59.063.876a3.715,3.715,0,0,1,.026.429.256.256,0,0,1,.009.116c.018.241.035.474.035.706.026.519.036,1.037.026,1.555a1.585,1.585,0,0,1-.267.787.718.718,0,0,1-.134.215,4.073,4.073,0,0,1-.733.84c-.1.089-.2.17-.3.25a3.927,3.927,0,0,1-.33.241,2.176,2.176,0,0,1-.437.25,2.125,2.125,0,0,1-.412.152c-16.419,3.709-31.436,10.592-43.843,21.872l-1.1,1.019c-.242.232-.475.447-.716.679q-.993.952-1.949,1.931c-.474.474-.929.948-1.385,1.43-.527.554-1.046,1.117-1.564,1.68s-1.037,1.126-1.547,1.7-1.01,1.153-1.51,1.725-1,1.162-1.493,1.752c-.769.9-1.528,1.814-2.279,2.726-1.7,2.065-3.378,4.138-5.06,6.212-.84,1.028-1.68,2.065-2.528,3.093C7429.214,1869.575,7428.025,1870.558,7425.378,1868.976Zm93.237,170.535c-35.656-.6-64.894-14.292-88.9-41.036,3.511-2.521,6.6-4.746,10.107-7.258,2.763,2.655,5.461,5.327,8.259,7.893.483.447.976.885,1.467,1.314.339.3.689.608,1.036.9.8.7,1.592,1.368,2.4,2.02.224.188.446.366.68.554q1.7,1.381,3.432,2.664,1.852,1.381,3.728,2.664c2.521,1.707,5.1,3.307,7.715,4.773,1.313.742,2.627,1.439,3.959,2.109.67.331,1.35.661,2.029.983q2.011.966,4.076,1.823c1.376.572,2.771,1.117,4.173,1.636s2.809,1,4.237,1.448h.01c1.42.456,2.859.867,4.308,1.251.536.143,1.063.277,1.6.4.4.107.813.206,1.226.295a.159.159,0,0,0,.063.018c.357.089.724.17,1.09.25a1.064,1.064,0,0,0,.18.036,6.279,6.279,0,0,0,.616.134c.617.134,1.243.268,1.867.384.7.134,1.4.268,2.092.385l.636.107c.464.081.92.152,1.394.223.992.152,1.984.286,2.994.411.661.08,1.332.152,2,.223q1.165.121,2.332.215c.688.063,1.386.107,2.085.152q1.311.08,2.635.134c.205.009.394.018.581.036l.5.054.162.027a.7.7,0,0,1,.134.018,1.351,1.351,0,0,1,.149.028c-.293-.054-.6-.1-.945-.126a9.192,9.192,0,0,1,1.008.137l.028.005.014,0a5.474,5.474,0,0,1,.854.24,4.894,4.894,0,0,0-.831-.236.078.078,0,0,1,.026,0c.134.027.269.063.394.1a3.222,3.222,0,0,1,.411.134,3.684,3.684,0,0,1,.411.179.675.675,0,0,1,.134.08c.009,0,.009,0,.019.018a3.613,3.613,0,0,1,.393.277.161.161,0,0,1,.054.054.776.776,0,0,1,.151.152c.036.045.072.081.108.125a.3.3,0,0,1,.089.125,1.508,1.508,0,0,1,.135.214,2.686,2.686,0,0,1,.15.286l.01.018a.986.986,0,0,1,.09.223,2.146,2.146,0,0,1,.116.411,1.575,1.575,0,0,1,.054.286,1.748,1.748,0,0,1,.036.2,7.329,7.329,0,0,1,.062,1.287C7518.561,2033.611,7518.616,2036.257,7518.616,2039.511Zm-1.565-38.927a74.422,74.422,0,0,1-34.556-8.661c-1.09-.572-2.172-1.18-3.227-1.806q-3.192-1.877-6.177-4.067-1.165-.845-2.288-1.743a78.645,78.645,0,0,1-23.8-31.4v-.009c-.724-1.734-1.395-3.513-1.984-5.309a78.147,78.147,0,0,1-4.014-25.116,77.062,77.062,0,0,1,22.964-54.783c1.322-1.3,2.7-2.565,4.111-3.781a78.482,78.482,0,0,1,51.673-18.743,76.838,76.838,0,0,1,55.452,24.4c.85.894,1.672,1.814,2.476,2.753,0,0,.01,0,.01.009.626.724,1.242,1.475,1.841,2.226.34.42.671.849,1,1.287q1.449,1.89,2.78,3.879c.009,0,.009,0,.009.009q1.556,2.32,2.95,4.746l.008.009c.618,1.073,1.208,2.172,1.771,3.28.008,0,.008,0,.008.009.563,1.108,1.1,2.235,1.619,3.37.008,0,.008,0,.008.009q1.542,3.419,2.753,7c.161.483.322.974.482,1.466.076.236.14.478.213.716-.225-.73-.449-1.46-.7-2.182.26.764.5,1.537.733,2.311.129.425.256.851.378,1.279.23.8.456,1.607.661,2.419.013.054.022.109.037.163a76.5,76.5,0,0,1,1.671,9.012c.013.1.026.2.037.293.113.941.206,1.888.285,2.838.015.144.023.283.032.42,0,.031,0,.063.009.095.155,2.056.234,4.131.224,6.225q-.007,1.52-.071,3.025v.023l0,.06c-.039.919-.1,1.835-.167,2.745-.008.07-.01.137-.018.208s-.01.123-.015.185q-.239,2.906-.674,5.741c.285-1.821.5-3.667.658-5.531,0,.059-.008.119-.014.177-.062.813-.152,1.609-.242,2.413-.116.983-.249,1.967-.4,2.941q-.308,1.944-.7,3.861c-.134.635-.267,1.27-.42,1.9-.125.528-.25,1.055-.384,1.582-.014.049-.026.1-.04.147q.461-1.8.844-3.634-.388,1.877-.866,3.715c-.006.022-.012.044-.019.066s-.013.051-.019.077q-.478,1.833-1.036,3.633c.368-1.169.7-2.35,1.014-3.541l-.039.153c-.134.518-.277,1.028-.42,1.546h-.01c-.025.1-.054.2-.08.295-.151.518-.3,1.028-.465,1.546q-.577,1.823-1.232,3.62c-.446,1.189-.912,2.368-1.4,3.531a76.315,76.315,0,0,1-9.4,16.187q-2.253,2.963-4.792,5.7c-.429.456-.858.912-1.286,1.35C7560.438,1991.69,7540.04,2000.682,7517.05,2000.584Zm79.444-76.676c0,.275,0,.55-.01.825-.012.341-.023.677-.035,1.014C7596.473,1925.136,7596.487,1924.523,7596.495,1923.908Zm22.2,58.683c-.125.34-.25.688-.394,1.037-.124.3-.249.59-.384.894-.08.179-.161.358-.25.545-.232.51-.492,1.028-.77,1.546-.116.232-.24.456-.374.688-.152.3-.322.581-.492.876-.2.34-.412.688-.625,1.037-.181.295-.367.581-.564.876s-.384.59-.589.894c-.3.438-.6.867-.913,1.305-.33.456-.67.921-1.018,1.376-.52.688-1.074,1.385-1.645,2.074-.187.232-.376.465-.573.7-.384.465-.786.921-1.2,1.385q-.429.5-.885.992c-.813.9-1.672,1.814-2.565,2.717-.3.3-.589.6-.894.9-.366.366-.742.742-1.126,1.108-.556.536-1.118,1.081-1.7,1.609-.322.295-.645.6-.976.894-.644.6-1.3,1.18-1.966,1.761-.68.59-1.367,1.18-2.065,1.761s-1.4,1.171-2.117,1.743-1.439,1.144-2.172,1.716c-.466.358-.922.706-1.386,1.055s-.938.706-1.413,1.055c-.975.724-1.966,1.439-2.976,2.136-.5.349-1,.7-1.511,1.046s-1.011.688-1.52,1.028q-.858.563-1.716,1.126t-1.735,1.1c-.58.366-1.161.724-1.742,1.082q-2.039,1.247-4.121,2.413c-.7.4-1.421.8-2.136,1.189-2.092,1.135-4.191,2.208-6.284,3.191-.687.322-1.367.644-2.056.947q-1.071.483-2.146.938c-1.332.572-2.654,1.1-3.959,1.591-.446.17-.895.331-1.341.492s-.884.313-1.323.465c-1,.34-2.012.661-2.994.956-.491.152-.983.295-1.475.42-.491.143-.975.268-1.457.384s-.965.241-1.439.34c-.481.116-.965.215-1.447.313-.456.089-.912.179-1.359.25-.465.08-.92.152-1.376.215-.43.072-.858.125-1.278.17a1,1,0,0,0-.161.018c-.41.054-.822.09-1.232.116-.439.044-.876.071-1.306.089-.09-1.126-.206-2.261-.312-3.4-.063-.59-.116-1.18-.161-1.761-.045-.51-.09-1.01-.116-1.52-.01-.081-.01-.161-.017-.241a33.27,33.27,0,0,1-.046-3.433.844.844,0,0,1,.106-.357,1.779,1.779,0,0,1,.26-.366,2.735,2.735,0,0,1,.276-.277,5.693,5.693,0,0,1,.707-.545c.135-.089.269-.17.411-.25a1.514,1.514,0,0,1,.205-.116,1.241,1.241,0,0,1,.215-.107.729.729,0,0,1,.144-.071c.188-.09.374-.17.554-.241a5.009,5.009,0,0,1,.527-.17c1.117-.286,2.226-.581,3.325-.9.009.009.009.009.009,0,.7-.188,1.387-.393,2.064-.6s1.368-.42,2.047-.643q1.223-.389,2.432-.8c.563-.2,1.126-.393,1.689-.6.742-.259,1.475-.536,2.2-.823.589-.223,1.17-.456,1.752-.688.4-.161.794-.322,1.2-.492q.551-.214,1.073-.456c.519-.223,1.036-.447,1.546-.679.3-.134.608-.268.9-.411.725-.331,1.438-.67,2.154-1.019.34-.152.67-.322,1-.491.312-.152.624-.313.938-.474.858-.438,1.708-.885,2.548-1.35.635-.349,1.27-.706,1.9-1.073q.855-.5,1.716-1.019,2.225-1.341,4.388-2.816c.331-.223.661-.456.993-.688s.66-.456.982-.7c.465-.322.921-.661,1.367-1q2.722-2.025,5.319-4.272.965-.845,1.93-1.716c.162-.143.322-.286.474-.438l.475-.447c.321-.295.634-.59.948-.894,5.416-5.229,9.947-11.4,14.8-17.2,1.511-1.8,2.753-3.816,4.272-5.944,3.943,1.788,7.3,3.316,10.6,4.827C7619.171,1981.179,7618.956,1981.885,7618.7,1982.591Zm9.233-20.558c-3.494-1.708-7.016-3.433-10.7-5.229q.669-2.078,1.261-4.156c.205-.688.394-1.376.571-2.073.152-.545.286-1.082.42-1.627.1-.376.188-.751.278-1.126.241-1.01.474-2.011.678-3.021.055-.25.109-.5.152-.751.081-.385.161-.76.224-1.144s.144-.769.216-1.153c.134-.724.258-1.457.375-2.19a.627.627,0,0,0,.025-.179c.144-.9.27-1.806.394-2.708.054-.438.108-.867.162-1.3a4.262,4.262,0,0,0,.054-.456c.044-.4.089-.813.134-1.216.07-.679.134-1.359.187-2.038.054-.661.1-1.332.144-2,.045-.688.08-1.385.108-2.073a101.354,101.354,0,0,0-.135-10.655c-.027-.447-.063-.9-.09-1.359-.018-.259-.035-.519-.063-.769-.052-.653-.106-1.3-.168-1.949q-.27-2.708-.644-5.381c-.082-.554-.162-1.108-.251-1.662s-.179-1.108-.277-1.663c-.088-.5-.178-1-.277-1.493-.106-.608-.232-1.207-.356-1.815-.116-.545-.232-1.09-.358-1.636s-.25-1.09-.384-1.636-.268-1.082-.411-1.627-.286-1.082-.437-1.618c-.144-.482-.277-.965-.421-1.448s-.3-.956-.447-1.439-.3-.956-.465-1.43-.321-.957-.49-1.43c-.224-.634-.457-1.269-.7-1.895-.32-.84-.651-1.672-1-2.5-.26-.625-.527-1.251-.8-1.868s-.555-1.233-.849-1.85-.6-1.225-.9-1.833-.625-1.207-.947-1.814c-.215-.411-.437-.813-.661-1.216-.09-.161-.169-.313-.25-.465a8.538,8.538,0,0,1-.42-.876l-.108-.295c-.035-.1-.071-.188-.1-.286s-.062-.205-.09-.3a4.784,4.784,0,0,1-.134-.661,3.289,3.289,0,0,1-.026-.42,2.928,2.928,0,0,1,.026-.4c.018-.107.037-.215.063-.322a.762.762,0,0,1,.071-.223c.027-.081.054-.152.09-.232a3.376,3.376,0,0,1,.188-.349c.036-.062.08-.116.125-.179a3.314,3.314,0,0,1,.224-.277c.08-.089.171-.179.268-.268a4,4,0,0,1,.662-.519c.063-.045.124-.089.2-.134.126-.081.27-.17.411-.25s.295-.161.457-.241a17.326,17.326,0,0,0,1.625-.938c.528-.331,1.038-.688,1.548-1.055s1.01-.742,1.51-1.108,1.01-.733,1.51-1.081C7635.126,1880.14,7640.757,1940.1,7627.93,1962.033Z" transform="translate(-64.764 -5.666)"/>
    <path id="Path_288" data-name="Path 288" d="M8004.02,1968.88c-1.332-8.384-2.323-16.813-3.228-25.251-.339-3.218-1.617-4.192-4.862-4.022-10.108.554-20.245.679-30.354,1.189-2.958.143-4.415-.563-5.514-3.584a96.436,96.436,0,0,0-7.214-15.776c-1.681-2.878-1.466-4.657.395-7.062,7.266-9.421,14.407-18.931,22.031-28.987-7.374-6.766-14.6-13.166-21.532-19.87-2.333-2.27-3.683-1.931-5.828.072-7.284,6.8-14.8,13.345-22.095,20.129-2.521,2.342-4.577,2.807-7.776.938a120.16,120.16,0,0,0-15.294-7.24c-2.547-1.028-3.771-2.181-3.816-5.068-.081-5.953-.536-11.9-.884-17.85-.367-6.2-.788-12.406-1.189-18.788-10.431-.527-20.38-1.135-30.337-1.385-1-.027-2.771,1.958-2.977,3.209q-2.427,14.99-4.3,30.069c-.421,3.387-1.467,5.113-5.229,5.72a81.079,81.079,0,0,0-16.339,4.326c-3.058,1.18-4.6.474-6.5-1.591q-10.109-11.021-20.4-21.881c-4.38-4.621-4.56-4.693-9.645-.956-7.044,5.167-13.9,10.583-20.916,15.955.742,1.359,1.2,2.279,1.734,3.146,5.211,8.322,10.306,16.724,15.723,24.92,2.3,3.477,2.287,5.926-.645,9.18a78.2,78.2,0,0,0-9.232,13.095c-1.431,2.476-2.673,3.352-5.524,2.95-9.572-1.377-19.19-2.521-28.8-3.674-7.821-.948-7.821-.894-9.511,6.74-1.787,8.089-3.593,16.187-5.47,24.616,11.19,3.629,21.925,7.124,32.669,10.574,2.181.7,3.986,1.225,4.085,4.308.215,6.382,1.162,12.737,1.395,19.119a6.759,6.759,0,0,1-2.288,4.961c-4.925,3.584-10.181,6.713-15.285,10.056-5.184,3.387-10.332,6.82-15.687,10.368,4.737,9.162,9.287,17.841,13.7,26.592,1.181,2.342,2.494,2.27,4.649,1.376,9.626-3.986,19.368-7.7,28.969-11.736,2.851-1.2,4.469-.635,6.462,1.663a121.386,121.386,0,0,0,12.478,12.7c2.342,2,2.378,3.548,1.573,6.078-3.325,10.493-6.552,21.023-9.573,31.606-.349,1.216.34,3.745,1.225,4.138,9.207,4.085,18.547,7.857,27.905,11.727.546-.849.895-1.323,1.171-1.833,4.979-9.314,9.984-18.618,14.893-27.977,1.412-2.7,2.7-4.362,6.452-3.566a72.149,72.149,0,0,0,16.384,1.627c4.112-.089,5.658,1.591,7.044,4.988,4.3,10.529,8.885,20.925,13.577,31.883,10.484-3.084,20.827-6.132,31.419-9.251-.3-1.931-.464-3.387-.769-4.809-2.065-9.761-4.076-19.53-6.3-29.255-.626-2.726-.1-4.228,2.413-5.756a131.467,131.467,0,0,0,14.641-10.172c2.4-1.958,4-2.074,6.642-.679,10.628,5.613,21.381,10.976,32.535,16.67,5.31-8.393,10.359-16.6,15.669-24.634,1.851-2.789,1.233-4.219-1.287-6.1-7.981-5.953-15.7-12.255-23.687-18.217-2.735-2.047-3.11-3.879-1.913-7.115a116.494,116.494,0,0,0,4.595-16.76c.536-2.628,1.457-3.736,4.049-4.29,10.628-2.261,21.193-4.773,31.8-7.133C8002.563,1972.76,8004.592,1972.474,8004.02,1968.88Zm-89.3-33.3-.111.086v-.006Zm-.2.153-.068.052.021-.017C7914.491,1935.754,7914.508,1935.741,7914.523,1935.729Zm-2.113-16.921.55.464c-.3-.247-.594-.489-.892-.73.11.091.223.173.333.266Zm-50-12.808c.01-.09.019-.179.027-.26a1.19,1.19,0,0,1,.036-.2,1.65,1.65,0,0,1,.063-.232,1.905,1.905,0,0,1,.285-.572c.054-.071.117-.134.18-.206.018-.018.026-.036.044-.045a1.416,1.416,0,0,1,.179-.143.625.625,0,0,1,.125-.08,1.385,1.385,0,0,1,.152-.089c.107-.054.214-.1.33-.143.019-.009.046-.018.072-.027a3.247,3.247,0,0,1,.349-.1,4.379,4.379,0,0,1,.563-.125c.162-.027.34-.045.537-.072.224-.027.464-.045.724-.062l.357-.027c1.127-.053,2.539-.045,4.281-.036.51,0,1.011.009,1.521.027s1.011.027,1.5.054,1,.053,1.493.08c.018,0,.035.009.054,0,.481.036.956.072,1.43.125.349.027.688.063,1.027.1l.215.027c.135.009.269.027.4.044.429.045.858.1,1.278.161.349.045.7.089,1.037.152.16.018.313.044.465.072.465.072.92.143,1.385.232.992.179,1.976.384,2.95.608.43.1.858.2,1.278.313.563.143,1.126.295,1.68.456.421.116.832.232,1.243.358.385.125.769.241,1.152.366,1.842.6,3.639,1.287,5.408,2.056.545.241,1.081.483,1.617.733.386.179.77.358,1.145.545.725.358,1.439.724,2.154,1.117q.536.282,1.072.59c.349.2.688.393,1.037.6.3.17.607.349.9.536.322.2.644.393.966.6s.626.393.931.6c.338.223.687.456,1.026.688.233.152.456.313.688.474.357.241.715.492,1.063.751.492.358.975.724,1.457,1.091.117.08.233.17.34.259.06.044.114.093.172.137-.651-.507-1.307-1.009-1.969-1.487.719.523,1.428,1.066,2.133,1.618.221.171.44.349.657.525.652.523,1.3,1.05,1.948,1.6h.008c-.356.367-.706.733-1.055,1.1-1.608,1.68-3.1,3.3-4.629,4.818-.3.3-.6.6-.9.894s-.607.59-.921.876-.616.563-.93.84a3.89,3.89,0,0,1-3.7-.089c-9.832-7.669-21.059-10.744-33.322-10.368-2.654.08-3.834-.9-4.272-3.289-.135-.724-.26-1.457-.42-2.181-.116-.519-.224-1.01-.321-1.466-.107-.51-.206-.974-.295-1.4-.063-.331-.125-.644-.18-.938-.026-.152-.054-.3-.071-.447-.062-.331-.1-.644-.125-.929l-.027-.322c-.008-.081-.008-.161-.008-.232A5.128,5.128,0,0,1,7862.409,1906Zm-50.895,34.725c.269-.545.545-1.09.831-1.627s.564-1.073.858-1.6.581-1.046.885-1.555.6-1.019.921-1.519q.362-.59.751-1.18a2.18,2.18,0,0,1,.17-.259c.151-.241.313-.483.474-.715s.3-.465.474-.7c.151-.232.313-.465.482-.688.188-.277.385-.545.581-.813.25-.349.5-.688.769-1.028.045-.063.09-.125.143-.188q.283-.376.591-.751c.285-.366.582-.724.876-1.082.5-.617,1.028-1.224,1.563-1.823.269-.3.546-.617.831-.912.313-.34.626-.67.948-1,.715-.733,1.447-1.457,2.2-2.154.411-.384.832-.769,1.261-1.135.876-.778,1.779-1.529,2.7-2.252.376-.3.751-.59,1.136-.867.349-.259.7-.518,1.055-.769.259-.2.528-.384.795-.563.331-.232.663-.456.992-.679s.661-.438,1-.653c.277-.179.555-.357.831-.527.4-.25.8-.492,1.216-.733.5-.3,1.011-.6,1.528-.876,1.028-.572,2.074-1.126,3.146-1.654.456-.232.911-.447,1.376-.662.573-.268,1.145-.527,1.726-.778.456-.205.913-.4,1.377-.59.384-.17.769-.331,1.171-.474.93-.385,1.877-.742,2.842-1.082.188.831.376,1.645.555,2.44s.375,1.591.555,2.369c.115.519.231,1.028.348,1.538.232,1.028.447,2.029.635,3.039s.358,2.011.491,3.012a.715.715,0,0,1-.008.208,1.238,1.238,0,0,1-.054.195,1.068,1.068,0,0,0,.054-.176v.006a.806.806,0,0,1-.054.17,1.641,1.641,0,0,1-.206.349,6.312,6.312,0,0,1-1.386,1.314c-.1.072-.2.143-.295.206-.205.134-.4.259-.589.358-.089.053-.18.1-.27.143-.59.286-1.16.572-1.733.876-.2.1-.394.205-.59.313a.172.172,0,0,0-.071.036c-.482.25-.947.51-1.412.778-.063.036-.116.063-.18.1-.519.3-1.036.608-1.536.921a.816.816,0,0,0-.117.072c-.1.063-.2.125-.286.179-.562.349-1.126.715-1.679,1.09-.162.107-.332.224-.493.34-.51.349-1.019.715-1.511,1.082-.536.4-1.072.813-1.591,1.225l-.017.018c-.483.384-.948.778-1.413,1.171l-.43.375c-.4.349-.786.706-1.171,1.064-.134.116-.26.241-.384.367-.322.295-.636.608-.947.929a2.4,2.4,0,0,0-.215.215c-.125.116-.241.241-.367.366l-.106.107c-.421.438-.841.885-1.242,1.341-.456.51-.912,1.028-1.351,1.555-.035.044-.08.1-.115.143-.447.545-.877,1.091-1.314,1.654v.009c-.438.581-.867,1.171-1.287,1.779-.384.536-.751,1.091-1.108,1.654a4.926,4.926,0,0,0-.295.465c-.349.536-.68,1.082-1,1.636-.385.644-.751,1.3-1.107,1.975a1.848,1.848,0,0,1-.153.232,1.493,1.493,0,0,1-.187.232,2.509,2.509,0,0,1-.224.232,3.286,3.286,0,0,1-2.351,1.046c-3.852-.894-7.606-2.19-11.861-3.486C7810.452,1942.95,7810.97,1941.824,7811.515,1940.725Zm7.813,67.413a3.841,3.841,0,0,1-.366-.295,2.361,2.361,0,0,1-.385-.3,7.322,7.322,0,0,1-.742-.67c-.116-.116-.241-.232-.366-.358a3.559,3.559,0,0,1-.357-.375,23.393,23.393,0,0,1-1.77-2.118c-.125-.152-.231-.313-.34-.474s-.224-.322-.339-.483c-.233-.331-.447-.661-.662-1-.43-.7-.85-1.421-1.27-2.181-.4-.76-.8-1.546-1.189-2.36a6.726,6.726,0,0,1-.286-.617c-.231-.518-.465-1.046-.7-1.582s-.447-1.091-.662-1.636c-.179-.447-.339-.894-.5-1.341-.08-.233-.161-.456-.242-.688-.16-.456-.321-.912-.465-1.376-.295-.938-.589-1.886-.857-2.851-.143-.474-.269-.956-.394-1.439-.054-.241-.115-.492-.179-.742-.106-.384-.2-.769-.286-1.153-.089-.4-.178-.813-.268-1.224-.1-.438-.187-.867-.269-1.305-.115-.617-.231-1.233-.34-1.859-.062-.367-.125-.742-.187-1.117-.044-.25-.08-.492-.116-.742-.053-.358-.1-.706-.143-1.064-.054-.393-.1-.778-.144-1.162s-.08-.742-.125-1.108c-.07-.742-.125-1.475-.179-2.2-.026-.366-.044-.733-.062-1.09-.018-.42-.035-.84-.045-1.251-.008-.295-.018-.6-.018-.894-.009-.232-.009-.474-.009-.706,0-.519.009-1.037.026-1.546s.036-1.019.063-1.52c.026-.438.063-.867.1-1.287.019-.179.036-.357.055-.536.035-.375.08-.751.124-1.117.063-.429.125-.858.2-1.278.063-.375.135-.742.206-1.1.054-.25.108-.51.161-.76.071-.313.152-.617.232-.92a23.334,23.334,0,0,1,.85-2.574c.455.134.92.277,1.385.411,1.851.554,3.728,1.108,5.6,1.7q2.1.657,4.183,1.395c.045.018.09.036.125.053.01-.009.01-.009.01,0a1.046,1.046,0,0,1,.241.179.49.49,0,0,1,.125.116c.063.063.116.134.179.205s.107.143.17.224a4.643,4.643,0,0,1,.384.8c.019.063.045.125.063.188a.96.96,0,0,1,.036.143,1.715,1.715,0,0,1,.044.206,2.288,2.288,0,0,1,.035.241c.071,1.037.116,2.083.144,3.129.018.518.036,1.046.044,1.564s.019,1.046.027,1.573c.019.831.026,1.671.045,2.512a68.087,68.087,0,0,0,.616,8.679c.117.813.269,1.618.447,2.422.17.778.375,1.546.617,2.315a56.553,56.553,0,0,0,2.646,6.82c.34.751.688,1.51,1.046,2.27s.706,1.52,1.063,2.288.715,1.537,1.063,2.315c.161.34.313.679.455,1.028.019.009.019.018.011.027a.531.531,0,0,1,.079.178.368.368,0,0,1,.054.125c.019.009.019.018.01.027.142.322.286.644.42.965-2.825,2.583-5.971,5.452-9.108,8.3Zm48.884,26c-.349-.009-.7-.027-1.056-.045-.625-.027-1.26-.072-1.895-.134-.331-.027-.67-.062-1.01-.1-.447-.045-.9-.1-1.35-.161s-.876-.116-1.313-.179c-.492-.08-.992-.161-1.493-.25-.438-.08-.885-.161-1.323-.25a1.252,1.252,0,0,1-.179-.036c-.465-.089-.93-.188-1.385-.295-.357-.071-.716-.152-1.063-.241s-.707-.17-1.055-.259a2.552,2.552,0,0,1-.286-.072c-.438-.107-.876-.223-1.306-.348-.259-.072-.519-.143-.769-.215-.187-.054-.366-.107-.555-.161-.643-.187-1.277-.384-1.912-.59l-1.5-.51c-.742-.259-1.483-.527-2.217-.8-.491-.188-.974-.385-1.456-.581-.313-.125-.627-.259-.939-.384-.644-.277-1.278-.563-1.9-.849-.93-.429-1.833-.876-2.727-1.341a49.571,49.571,0,0,1-4.7-2.753c-.295-.188-.581-.384-.867-.581s-.563-.393-.84-.6c-.823-.6-1.6-1.216-2.323-1.85-.322-.277-.636-.563-.94-.849s-.6-.572-.876-.858c-.151-.143-.285-.295-.41-.438s-.268-.295-.4-.438c-.259-.3-.51-.59-.742-.894h.009c2.834-2.664,5.507-5.157,8.089-7.571.366-.34.733-.688,1.1-1.028,2.673,1.376,5.221,2.923,7.776,4.326a42.771,42.771,0,0,0,7.83,3.513c.4.125.8.241,1.207.357.295.089.581.17.876.241.3.089.617.161.921.241.375.1.741.188,1.117.277.465.107.93.215,1.395.313.616.134,1.242.259,1.867.384.8.143,1.582.286,2.378.411.357.063.725.116,1.082.17.429.072.866.134,1.3.2q1.408.2,2.815.375c1.689.215,3.388.4,5.068.581l.518.054c.331.045.653.089.939.143a5.658,5.658,0,0,1,.589.134c.117.027.233.063.34.1a3.182,3.182,0,0,1,.563.232,1.388,1.388,0,0,1,.161.089,2.126,2.126,0,0,1,.376.25,1.43,1.43,0,0,1,.17.143.937.937,0,0,1,.187.188,2.562,2.562,0,0,1,.358.5,1.447,1.447,0,0,1,.115.206,4.521,4.521,0,0,1,.35,1.019,2.5,2.5,0,0,1,.062.286,4.04,4.04,0,0,1,.072.4c.393,2.681,1.063,5.327,1.653,7.946.08.375.161.742.241,1.117A28.088,28.088,0,0,1,7868.211,2034.139Zm19.467-49.072a.1.1,0,0,1-.044.045c-.2.223-.421.447-.635.653-.269.268-.546.527-.822.769s-.563.492-.858.724a4.113,4.113,0,0,1-.384.3.139.139,0,0,1-.063.045h-.008c-.277.224-.563.429-.858.635-.161.125-.331.232-.5.349-.187.134-.384.25-.58.366-.2.134-.412.259-.626.375-.242.143-.483.286-.743.411-.33.179-.66.349-1,.5a.048.048,0,0,1-.036.018c-.33.161-.67.313-1.028.447-.348.152-.706.286-1.072.411s-.724.259-1.1.366-.741.214-1.116.3c-.323.08-.645.161-.975.223a1.867,1.867,0,0,1-.215.045c-.366.08-.741.134-1.126.2s-.787.107-1.189.143-.794.072-1.2.089c-.545.027-1.09.036-1.644.027-.358-.009-.707-.018-1.056-.045-.152-.009-.3-.018-.466-.036a5.276,5.276,0,0,1-.66-.062,3.859,3.859,0,0,1-.438-.054q-.349-.04-.7-.107c-.126-.018-.259-.036-.395-.062-.241-.036-.482-.089-.715-.143a.033.033,0,0,1-.026-.009c-.135-.027-.269-.053-.4-.089-.3-.072-.608-.143-.912-.232-.366-.107-.732-.215-1.1-.34a22.752,22.752,0,0,1-2.127-.831c-.241-.107-.491-.223-.732-.348a5.1,5.1,0,0,1-.492-.241,23.343,23.343,0,0,1-3.629-2.324c-.295-.223-.59-.465-.876-.715a22.616,22.616,0,0,1-2.056-1.975c-.277-.295-.545-.6-.8-.9-.144-.161-.277-.331-.41-.5-.206-.259-.4-.527-.6-.8s-.394-.536-.572-.813a2.338,2.338,0,0,1-.169-.25q-.2-.3-.376-.59c-.117-.188-.224-.376-.331-.563-.259-.438-.5-.894-.724-1.35-.09-.17-.17-.34-.251-.519-.1-.214-.2-.429-.286-.643a3.392,3.392,0,0,1-.161-.394c-.268-.644-.509-1.3-.715-1.957-.223-.724-.42-1.475-.571-2.226a23.32,23.32,0,0,1-.483-4.889c0-.4.019-.8.045-1.2a22.68,22.68,0,0,1,.751-4.63c.107-.366.215-.733.331-1.1a19.921,19.921,0,0,1,.813-2.136,21.568,21.568,0,0,1,1.019-2.029c.179-.331.366-.653.581-.974.188-.322.4-.635.617-.938s.438-.608.67-.912.465-.59.715-.876.52-.59.787-.876.554-.563.84-.84c.331-.322.671-.625,1.019-.92.251-.215.51-.429.779-.635q.428-.335.857-.644a22.808,22.808,0,0,1,1.983-1.278c.2-.116.4-.232.608-.331a2.3,2.3,0,0,1,.331-.17c.242-.134.482-.259.732-.366a3.045,3.045,0,0,1,.384-.179c.17-.08.331-.161.5-.223H7861a5.473,5.473,0,0,1,.528-.215.238.238,0,0,1,.1-.045c.2-.089.411-.161.624-.232a.419.419,0,0,1,.144-.054c.331-.125.652-.232.992-.331.054-.018.107-.036.17-.054.224-.071.465-.134.706-.187a.5.5,0,0,1,.152-.045c.117-.036.231-.062.348-.089.278-.072.563-.134.841-.188.295-.062.581-.116.876-.161a3.851,3.851,0,0,1,.482-.081c.349-.054.706-.1,1.064-.134l.294-.027a8.039,8.039,0,0,1,.813-.062c.135-.009.269-.018.4-.018.473-.027.956-.036,1.439-.027.366.009.732.018,1.1.045a2.662,2.662,0,0,1,.269.018c.376.027.742.063,1.108.1.349.045.689.08,1.02.152a.594.594,0,0,1,.169.027c.3.054.591.107.876.17.108.018.206.036.313.063.323.072.652.143.965.241.376.1.742.205,1.109.322a23.775,23.775,0,0,1,4.138,1.806c.332.179.652.366.966.572a20.926,20.926,0,0,1,2.708,1.966c.572.483,1.108.983,1.627,1.511.268.268.527.545.76.822.491.554.965,1.135,1.4,1.734s.84,1.216,1.225,1.859c.143.241.276.474.4.715.072.134.152.277.224.42q.229.429.43.858a6.35,6.35,0,0,1,.313.706.1.1,0,0,1,.027.072c.106.241.205.483.294.724.188.483.358.974.519,1.484.081.25.152.5.224.76s.134.51.2.769a.171.171,0,0,1,.017.089,4.485,4.485,0,0,1,.126.563.335.335,0,0,1,.025.125c.019.1.036.206.063.3.01.009.019.018.01.036.044.2.08.384.107.59a.179.179,0,0,1,.009.072c.055.34.1.7.143,1.037.027.2.045.393.063.59a.1.1,0,0,1,.01.053,4.623,4.623,0,0,1,.035.492c.009.018.009.027,0,.036v.009c.018.2.027.385.036.581a1.823,1.823,0,0,1,.009.223.1.1,0,0,1,0,.072c.009.366.019.742.009,1.117q-.013,1.166-.134,2.306c-.009.081-.019.17-.027.259-.026.268-.071.536-.106.8-.01.027-.01.054-.019.089-.054.34-.116.67-.187,1a4.912,4.912,0,0,1-.107.519c-.134.6-.286,1.2-.474,1.779-.053.143-.1.295-.143.447a.3.3,0,0,1-.036.116c-.054.188-.125.384-.2.572a.07.07,0,0,1-.019.045c-.142.384-.295.769-.456,1.144-.071.17-.143.34-.224.5-.1.241-.214.474-.33.706-.143.3-.3.6-.465.894-.008.009-.008.018-.019.027-.151.286-.312.563-.491.84a2.2,2.2,0,0,1-.143.232c-.161.259-.322.518-.5.769a1.659,1.659,0,0,1-.116.161c-.187.286-.393.563-.6.831-.187.259-.394.51-.607.76-.2.241-.4.474-.617.706C7887.893,1984.835,7887.786,1984.951,7887.678,1985.068Zm42.153,9.26a16.956,16.956,0,0,1-.455,1.958,25.421,25.421,0,0,1-1.145,3.066v.009q-.214.483-.456.965a.62.62,0,0,1-.08.161c-.161.322-.331.652-.51.983-.152.277-.3.554-.474.84a2.232,2.232,0,0,1-.134.232v.009c-.206.357-.429.724-.653,1.082q-.683,1.073-1.447,2.172c-.17.241-.34.483-.519.733q-.536.724-1.1,1.448c0,.009,0,.009-.008.009-.563.724-1.153,1.448-1.771,2.163-.313.357-.626.724-.946,1.082s-.646.706-.976,1.063c-.411.447-.831.885-1.26,1.323s-.867.867-1.314,1.3-.894.858-1.35,1.278-.911.84-1.377,1.243c-.331.295-.662.581-1,.867a1.53,1.53,0,0,1-.125.107c-.51.429-1.01.849-1.528,1.269s-1.037.813-1.556,1.216l-.107.081c-.429.331-.866.653-1.3.965-.491.358-.983.706-1.474,1.037-.332.232-.663.456-1,.67-.4.259-.8.518-1.2.769-.33.214-.67.42-1.01.625-.546.331-1.081.644-1.617.938-.323.179-.645.358-.966.527q-.6.322-1.207.617c-.4.206-.8.4-1.207.581-.32.152-.635.295-.955.429-.2.089-.386.17-.573.241-.169.071-.339.143-.5.206-.34.134-.679.259-1.01.384-.85.313-1.681.581-2.5.8-.126.036-.251.072-.376.1-.321.09-.624.161-.938.224q-.523.12-1.046.214c-.831-3.825-1.8-7.669-2.413-11.566-.125-.751.886-2.083,1.707-2.521,1.886-1,3.6-1.94,5.166-2.842q.483-.268.939-.536c1.823-1.073,3.441-2.092,4.907-3.12.2-.134.393-.277.59-.42a38.915,38.915,0,0,0,7.49-6.909c.456-.545.911-1.117,1.368-1.707,1.358-1.779,2.707-3.781,4.146-6.114.956-1.555,1.958-3.262,3.039-5.14h.009q3.057.979,6.159,1.966h.008q3.1.979,6.186,1.976c-.018.161-.035.313-.053.465S7929.858,1994.176,7929.831,1994.328Zm4.139-12.576a4.263,4.263,0,0,1-1.216-.018c-3.673-1.153-8.545-1.332-10.646-3.835-1.832-2.181-.625-6.99-.6-10.636a41.48,41.48,0,0,0-.537-6.954c-.18-1.091-.393-2.154-.645-3.218-.1-.42-.205-.831-.321-1.242a.517.517,0,0,0-.035-.125c-.054-.17-.1-.358-.152-.528-.116-.456-.259-.912-.411-1.358-.143-.474-.3-.939-.465-1.395a.154.154,0,0,1-.018-.045c-.188-.519-.375-1.028-.58-1.529-.145-.384-.3-.76-.475-1.135s-.322-.751-.491-1.126-.349-.742-.528-1.117a55.992,55.992,0,0,0-3-5.443c-.975-1.573-1.4-2.78-1.153-3.888a1.1,1.1,0,0,1,.045-.161,2.756,2.756,0,0,1,.367-.8,3.324,3.324,0,0,1,.214-.3,4.8,4.8,0,0,1,.556-.617c.114-.109.242-.217.371-.325.035-.028.063-.055.1-.086l.023-.02c.161-.131.334-.264.521-.4a23.076,23.076,0,0,0,1.806-1.439c1.761-1.5,3.388-3.191,5.086-4.728C7932.853,1940.09,7939.314,1968.255,7933.97,1981.752Z" transform="translate(-108.526 -16.92)"/>
    <path id="Path_289" data-name="Path 289" d="M7139.178,1785.341a150.212,150.212,0,0,0-.868,16.018c.036,2.9-.965,4.2-3.468,5.327-8.937,4.058-17.742,8.393-26.663,12.487-2.539,1.162-3.154,2.485-2.109,5.176,2.708,6.927,5.283,13.917,7.589,20.987.965,2.959,2.012,4.013,5.327,3.084,9.019-2.539,18.181-4.559,27.235-6.99,2.467-.67,3.7-.062,5.077,2.029a78.525,78.525,0,0,0,8.563,11.352c2.959,3.084,3.289,5.7,1.439,9.457-4.577,9.3-8.778,18.788-13.238,28.424,7.795,4.594,15.248,8.894,22.587,13.381,2.521,1.537,4.041,1.358,5.811-1.189,5.327-7.714,10.977-15.2,16.339-22.882,1.448-2.083,2.8-2.449,5.166-1.707,3.969,1.242,8.036,2.673,12.121,2.887,5.962.313,8.339,3.128,9.574,8.715,2.081,9.385,4.951,18.592,7.577,28.2,8.653-1.439,16.841-2.958,25.063-4.112,3.674-.519,5.006-1.815,4.56-5.756-1.01-8.867-1.386-17.814-2.235-26.7-.276-2.9.77-4.156,3.353-5.274a105.681,105.681,0,0,0,13.46-6.927c2.888-1.779,4.943-1.5,7.563.393,7.829,5.676,15.892,11.03,23.723,16.7,2.181,1.573,3.352,1.51,5.077-.626,4.763-5.9,9.672-11.691,14.757-17.313,2.226-2.458,2.012-4.085-.25-6.311-6.354-6.275-12.434-12.826-18.833-19.056-2.476-2.413-2.529-4.433-1.01-7.374a84.344,84.344,0,0,0,5.55-13.113c.966-3.021,2.253-4.291,5.488-4.541,10.815-.858,21.595-2.064,32.858-3.191,0-8.715-.162-17.179.07-25.635.1-3.441-1.082-4.746-4.425-5.014-8.9-.706-17.777-1.752-26.68-2.422-2.825-.214-4.111-1.09-4.8-4a131.553,131.553,0,0,0-4.89-15.749c-.911-2.413-.474-3.817,1.243-5.443,3.244-3.075,6.338-6.3,9.465-9.484,4.657-4.737,9.288-9.484,14.124-14.436-5.766-6.918-11.28-13.336-16.537-19.968-1.993-2.511-3.539-2.851-6.211-.947-7.132,5.113-14.542,9.832-21.65,14.972-2.8,2.011-4.754,2.44-7.73.072a90.765,90.765,0,0,0-13.112-8.4c-2.262-1.251-2.771-2.717-2.557-4.988q.751-7.776,1.35-15.571c.447-5.89.814-11.781,1.233-17.9-8.759-1.627-17.135-2.994-25.412-4.791-3.227-.706-4.559.116-5.381,3.209-2.332,8.777-5.112,17.43-7.258,26.243-.776,3.2-2.288,3.888-5.176,4.112a95.849,95.849,0,0,0-15.007,1.975c-3.288.787-4.871-.206-6.587-2.717q-8.3-12.147-16.966-24.044c-.724-.983-2.949-2.074-3.691-1.663-8.08,4.4-15.99,9.081-24.428,13.962,4.425,9.868,8.536,19.271,12.889,28.549,1.2,2.565,1.027,4.183-1.046,6.2-3.906,3.826-7.348,8.125-11.263,11.942a6.193,6.193,0,0,1-4.809,1.663c-9.841-2.315-19.583-5.077-29.415-7.446-1.278-.313-3.844.394-4.2,1.278-3.433,8.509-6.525,17.153-9.8,25.992,9.84,4.747,19.154,9.35,28.574,13.7C7138.767,1781.3,7139.428,1782.713,7139.178,1785.341Zm86.165,71.855a2.706,2.706,0,0,1-.126.563,2.014,2.014,0,0,1-.214.474,1.731,1.731,0,0,1-.3.375,1.766,1.766,0,0,1-.394.286,2.871,2.871,0,0,1-.956.295,2.151,2.151,0,0,1-.26.036c-.188.018-.385.027-.6.027-.2,0-.4,0-.617-.018-1.081-.08-2.145-.179-3.208-.313-1.056-.116-2.1-.259-3.138-.438a59.366,59.366,0,0,1-7.553-1.7c-.976-.277-1.948-.581-2.905-.921-1.439-.483-2.852-1.037-4.245-1.645-.394-.161-.788-.34-1.18-.527-.108-.045-.215-.1-.321-.143-.3-.134-.609-.286-.913-.438-.161-.072-.321-.152-.474-.232-.4-.188-.787-.393-1.18-.6q-1.033-.536-2.038-1.126c-.35-.2-.7-.4-1.037-.608-.187-.107-.366-.214-.545-.331-.322-.2-.644-.4-.957-.608-1.1-.7-2.172-1.439-3.226-2.217-.4-.286-.8-.59-1.2-.9-.116-.089-.233-.179-.35-.277-.294-.214-.58-.447-.866-.688-.831-.679-1.663-1.385-2.476-2.1-.787-.706-1.573-1.448-2.342-2.208-1.163-1.135-2.3-2.333-3.415-3.584h.01c4.746-3.37,8.894-6.516,13.272-9.278.974-.617,3.048-.357,4.158.3,4.834,2.842,9.294,6.4,14.309,8.849a11.324,11.324,0,0,0,1.18.5c.4.152.823.277,1.242.393a58.639,58.639,0,0,0,7.956,1.162,8.773,8.773,0,0,1,1.832.384.27.27,0,0,1,.08.027,2.805,2.805,0,0,1,.475.206,2.738,2.738,0,0,1,.563.384,3.714,3.714,0,0,1,1.019,3.075,98.754,98.754,0,0,0,.93,12A6.088,6.088,0,0,1,7225.343,1857.2Zm-39.016-40.812a3.744,3.744,0,0,0-.018-.411c.006.048.012.1.017.151v.054C7186.333,1816.245,7186.327,1816.317,7186.328,1816.385Zm0,.386c0-.015,0-.03,0-.045C7186.329,1816.74,7186.327,1816.756,7186.326,1816.771Zm90.332,14.915c-.232.358-.464.706-.705,1.046-.17.241-.34.483-.52.724-.312.438-.625.858-.938,1.278-.376.51-.759,1-1.153,1.484-.259.322-.519.643-.786.965-.412.492-.822.974-1.242,1.448a2.652,2.652,0,0,1-.215.241c-.215.232-.421.465-.635.7s-.411.456-.634.679q-.7.738-1.421,1.448c-.868.849-1.744,1.663-2.638,2.449-.312.268-.617.536-.931.786-.41.349-.821.688-1.241,1.01-.322.259-.645.509-.966.742-.286.224-.58.438-.876.653q-1,.737-2.038,1.421c-.437.295-.884.59-1.34.867a58.635,58.635,0,0,1-5.381,3c-.2.1-.394.2-.59.286s-.367.188-.555.268a.218.218,0,0,1-.09.045c-.008.009-.008.009-.018,0-.366.179-.732.349-1.108.51-.634.295-1.277.563-1.921.831l-.672.268c-.34.134-.678.268-1.018.393s-.662.25-1,.366c-.483.179-.967.349-1.457.51s-.983.322-1.484.483c-.537.17-1.081.331-1.636.491-.76.223-1.52.429-2.3.626-.394.1-.778.205-1.17.295s-.788.188-1.182.277c-.518-3.5-1.063-6.918-1.546-10.306-.071-.536-.143-1.073-.224-1.6-.143-1.064-.276-2.136-.4-3.2-.082-.706-.153-1.421-.225-2.127a.514.514,0,0,1,.018-.2.23.23,0,0,1,.027-.107.71.71,0,0,1,.044-.134,1.856,1.856,0,0,1,.242-.411c.044-.062.088-.116.134-.179a2.808,2.808,0,0,1,.313-.348c.062-.063.125-.134.2-.2a5.01,5.01,0,0,1,1.823-1.126c.5-.143.992-.286,1.476-.447q.817-.255,1.609-.536c.178-.063.356-.125.536-.2q.71-.255,1.394-.536c.519-.214,1.028-.429,1.529-.661.393-.179.786-.366,1.17-.563.252-.116.492-.241.733-.375s.5-.259.751-.4c.224-.116.438-.241.652-.366a2.126,2.126,0,0,0,.277-.161c.33-.188.652-.375.974-.581.474-.295.948-.608,1.412-.93s.912-.652,1.368-.992.885-.7,1.313-1.054.857-.742,1.279-1.126.83-.787,1.224-1.189.8-.831,1.182-1.26c.194-.215.383-.429.57-.653.232-.277.466-.563.7-.849a1.119,1.119,0,0,0,.161-.2c.089-.107.171-.214.25-.322.116-.143.233-.3.331-.438.205-.277.42-.563.626-.849s.4-.59.606-.885a5.414,5.414,0,0,1,.368-.5c.133-.17.268-.331.411-.483l.213-.215a4.048,4.048,0,0,1,.527-.438c.082-.054.153-.1.233-.143a1.38,1.38,0,0,1,.3-.152.433.433,0,0,1,.089-.045,2.69,2.69,0,0,1,.35-.116,1.437,1.437,0,0,1,.187-.045,1.84,1.84,0,0,1,.216-.035,2.64,2.64,0,0,1,.384-.027,3.047,3.047,0,0,1,.4.027,4.585,4.585,0,0,1,1.322.375c.2.1.42.2.634.322,1.09.608,2.2,1.2,3.308,1.788,2.082,1.108,4.2,2.2,6.392,3.334.438.224.875.456,1.313.679.886.456,1.788.921,2.7,1.4q-.845,1.408-1.734,2.762C7276.854,1831.409,7276.756,1831.552,7276.658,1831.686Zm-.269-63.176c.064-.018.125-.036.2-.054a1.1,1.1,0,0,1,.178-.036.319.319,0,0,1,.09-.009,1.6,1.6,0,0,1,.206-.018,4.868,4.868,0,0,1,.626,0,6.177,6.177,0,0,1,1.09.179h.01c.07.018.143.045.205.063a2.149,2.149,0,0,1,.259.089,3.332,3.332,0,0,1,.313.143c.036.027.082.044.116.071a1.1,1.1,0,0,1,.152.116,1.173,1.173,0,0,1,.1.1l.019.018a.526.526,0,0,1,.053.09c7.821,15.588,8.956,31.713,3.575,48.955-5.47-2.3-10.3-4.121-14.918-6.4-.061-.036-.134-.072-.2-.116a1.188,1.188,0,0,1-.2-.143,1.118,1.118,0,0,1-.2-.17,5.713,5.713,0,0,1-1.287-1.957,5.072,5.072,0,0,1-.188-.545c-.035-.152-.062-.3-.08-.447a.476.476,0,0,1-.018-.152.155.155,0,0,0-.009-.063c.009-.009.009-.009,0-.018.009-.009.009-.009,0-.018.009-.009.009-.009,0-.018a2.015,2.015,0,0,1,.026-.331,70.22,70.22,0,0,0,1.153-11.888c0-.42-.008-.849-.018-1.269v-.125c-.009-.384-.026-.778-.054-1.153-.026-.51-.062-1.01-.107-1.52-.026-.34-.062-.679-.1-1.019-.08-.67-.178-1.341-.286-2.011-.053-.34-.116-.679-.178-1.019a36.537,36.537,0,0,0-2.538-8,2.39,2.39,0,0,1-.107-1.242,5.2,5.2,0,0,1,.258-1.117c.054-.152.108-.295.17-.429a2.039,2.039,0,0,1,.127-.259c.035-.072.079-.143.115-.206a2.469,2.469,0,0,1,.563-.688,89.924,89.924,0,0,1,10.654-7.285A1.32,1.32,0,0,1,7276.389,1768.51Zm-4.076-10.887c-4.164,2.968-7.954,5.8-11.834,8.393-.554.385-1.107.751-1.671,1.108a1.515,1.515,0,0,1-.295.143,3.366,3.366,0,0,1-.8.17,1.4,1.4,0,0,1-.2.009,3.721,3.721,0,0,1-2.458-.635c-7.179-6.865-15.812-10.324-25.466-11.9a4.794,4.794,0,0,1-3.057-3.245c-.7-4.836-.876-9.751-1.322-15.6C7244.364,1736.466,7259.568,1743.644,7272.313,1757.623Zm-15.833,37.247q0-.378-.022-.756c0,.085.015.17.018.255C7256.48,1794.534,7256.478,1794.7,7256.48,1794.87Zm-39.611-26.816c.376-.107.76-.215,1.146-.3.33-.089.66-.161,1-.232s.688-.143,1.038-.2c.187-.036.374-.062.554-.09.294-.053.6-.1.9-.125.394-.054.787-.089,1.18-.125s.787-.053,1.189-.071.786-.027,1.181-.027h.392a28.144,28.144,0,0,1,3.683.232c.232.027.475.063.716.1.965.143,1.922.34,2.86.572.224.054.438.116.661.179s.465.125.688.2c.5.143.991.3,1.483.474l.563.214c.25.089.5.188.742.286.2.08.4.161.6.25.662.277,1.314.581,1.949.9.215.107.429.214.636.331a33.753,33.753,0,0,1,5.316,3.495c.153.116.3.232.447.366a29.314,29.314,0,0,1,2.262,2.065l.51.509c.009,0,.009,0,.009.009.25.259.5.527.733.787s.482.545.706.813c.5.59.974,1.2,1.413,1.814.114.152.224.313.33.465a28.366,28.366,0,0,1,1.832,3.012c.214.411.42.822.607,1.242a23.1,23.1,0,0,1,1.036,2.565c.09.268.18.545.26.822.17.545.313,1.1.438,1.654.062.277.116.554.17.831.062.34.125.679.17,1.019.035.25.062.5.1.751.016.14.019.28.03.42-.036-.391-.069-.783-.128-1.171.063.442.1.888.139,1.335.013.165.026.33.034.494.026.465.046.93.041,1.4,0,.295-.009.581-.018.867a.735.735,0,0,1,0,.2c-.009.545-.036,1.073-.08,1.6a.961.961,0,0,1-.019.277c-.026.51-.071,1.01-.124,1.5-.01.116-.019.224-.036.34-.063.572-.135,1.135-.233,1.689-.044.3-.09.59-.143.876-.045.313-.107.617-.17.921-.062.268-.116.536-.17.8-.062.286-.125.563-.205.84-.062.277-.135.554-.215.831-.063.277-.144.554-.233.831s-.16.528-.25.8a.622.622,0,0,1-.044.143c-.1.3-.2.6-.3.894-.1.277-.2.545-.312.813-.134.384-.286.751-.447,1.117-.062.152-.125.295-.2.438-.144.331-.295.652-.448.965-.1.2-.2.394-.3.581-.134.295-.294.581-.456.867a3.228,3.228,0,0,1-.187.34c-.224.393-.457.787-.707,1.162-.25.4-.509.787-.777,1.171a2.693,2.693,0,0,1-.251.348c-.2.277-.4.545-.607.813-.133.17-.268.34-.41.51-.169.223-.358.438-.537.644-.133.152-.268.3-.4.447-.27.313-.563.617-.859.912-.205.215-.41.42-.625.617s-.428.4-.651.6-.439.384-.67.572c-.171.143-.341.286-.52.429-.51.4-1.046.786-1.592,1.162-.25.17-.491.331-.741.492s-.5.313-.759.465c-.511.3-1.029.59-1.564.858a.4.4,0,0,1-.081.045c-.241.116-.483.241-.733.357a30.323,30.323,0,0,1-4.281,1.636c-.51.152-1.02.295-1.538.42s-1.045.241-1.573.349c-.268.045-.536.1-.8.143-.546.1-1.09.179-1.645.241-.277.036-.555.063-.831.09s-.563.053-.85.071c-.322.027-.652.054-.982.072q-.792.04-1.609.054c-.59.009-1.18-.009-1.77-.045-.732-.036-1.458-.1-2.182-.2s-1.438-.205-2.146-.357c-.232-.054-.465-.1-.706-.152-.473-.107-.938-.224-1.395-.357a30.393,30.393,0,0,1-5.988-2.378,6.315,6.315,0,0,1-.635-.339c-.214-.107-.42-.224-.625-.349-.616-.349-1.226-.724-1.815-1.126q-.294-.187-.589-.4c-.385-.268-.77-.554-1.146-.84-.187-.134-.374-.286-.562-.438s-.368-.295-.546-.447c-.322-.259-.626-.527-.93-.8a32.581,32.581,0,0,1-3.514-3.674c-.446-.536-.866-1.091-1.26-1.645-.124-.188-.259-.384-.394-.581-.259-.375-.509-.76-.74-1.144-.036-.072-.082-.134-.118-.206-.142-.223-.276-.456-.4-.688-.17-.3-.33-.6-.492-.9-.366-.7-.7-1.412-1-2.136-.134-.313-.26-.626-.376-.948s-.232-.635-.33-.947-.206-.644-.3-.966c-.126-.429-.232-.858-.332-1.287-.08-.331-.151-.67-.214-1s-.107-.644-.15-.957c-.056-.331-.092-.661-.127-.992s-.062-.661-.08-.992a35.734,35.734,0,0,1,.617-9.189c.106-.554.232-1.1.366-1.636a31.306,31.306,0,0,1,8.446-14.757c.357-.349.724-.688,1.092-1.019.224-.206.454-.393.678-.59.152-.125.3-.241.446-.358a29.771,29.771,0,0,1,3.031-2.163c.42-.259.84-.509,1.27-.751.75-.42,1.52-.8,2.3-1.162.33-.143.67-.295,1.01-.438.678-.277,1.357-.536,2.055-.76C7216.109,1768.278,7216.485,1768.161,7216.869,1768.054Zm-43.922-1.9q.267-.644.59-1.287a31.5,31.5,0,0,1,2.493-4.2q.335-.483.7-.965c.321-.429.651-.849.991-1.278.286-.348.581-.7.876-1.046.242-.286.492-.563.75-.849.188-.215.376-.42.573-.625.169-.188.349-.367.519-.554.124-.125.241-.25.376-.375.25-.268.5-.518.76-.769s.518-.509.786-.76c.42-.4.857-.8,1.3-1.2.108-.1.216-.2.332-.3.34-.295.678-.59,1.018-.876s.688-.572,1.038-.858c.116-.1.231-.188.357-.286.375-.295.76-.6,1.145-.894.1-.072.2-.143.285-.215.482-.366.975-.724,1.475-1.082.751-.527,1.511-1.046,2.271-1.546.374-.25.768-.492,1.151-.733.779-.482,1.556-.947,2.344-1.4.392-.214.794-.438,1.188-.652s.8-.42,1.2-.635c.394-.2.8-.4,1.2-.6q.8-.389,1.609-.751c.536-.241,1.072-.474,1.608-.688.216-.1.43-.179.635-.259.858-.34,1.717-.652,2.565-.938.268-.089.537-.179.795-.259s.52-.161.778-.232c.528-.161,1.063-.3,1.591-.438.393-.09.778-.179,1.162-.268s.778-.161,1.162-.232l.956-.161c.313-.045.626-.089.939-.125.616-.072,1.233-.125,1.84-.152.52,5.6,1.128,10.9,1.386,16.214.045.885-1.232,2.279-2.207,2.69-13.952,5.81-15.08,6.588-24.812,18.3-5.291-2.431-10.754-4.934-16.205-7.437h-.01C7172.6,1767,7172.768,1766.579,7172.947,1766.15Zm13.36,49.807c0-.022-.012-.036-.014-.056h.007C7186.3,1815.919,7186.305,1815.938,7186.307,1815.958Zm-18.546-38.715c.618.286,1.234.572,1.852.849q2.774,1.274,5.55,2.556c1.233.572,2.459,1.162,3.683,1.761s2.44,1.207,3.639,1.841a2.047,2.047,0,0,1,.769,1.019,2.966,2.966,0,0,1,.16.429c.036.107.072.215.1.322.035.143.063.286.09.429.009.1.027.188.035.286a1.4,1.4,0,0,1,.026.277c.01.1.02.188.02.277a2.71,2.71,0,0,1-.063.617,44.314,44.314,0,0,0-.75,4.5c-.027.214-.054.429-.072.652-.071.67-.125,1.35-.161,2.02-.009.143-.017.286-.017.429s-.019.286-.019.429c-.045,1.26-.036,2.521.026,3.772.009.125.009.25.019.375a.07.07,0,0,0,0,.063c.008.259.026.527.054.8a42.928,42.928,0,0,0,.58,4.514c.063.366.134.733.216,1.108s.15.742.24,1.108q.51,2.225,1.233,4.425c.242.733.492,1.466.769,2.2q.215.55.43,1.1a1.672,1.672,0,0,1,.071.223v.009a1.1,1.1,0,0,1,.044.2.144.144,0,0,1,.009.061,2.239,2.239,0,0,0-.124-.49,3.088,3.088,0,0,1,.162,1.129c0,.044,0,.087,0,.132a5.329,5.329,0,0,1-.059.6c0,.011,0,.024,0,.037l0,.033a5.112,5.112,0,0,1-.156.667,4.673,4.673,0,0,0,.148-.605,1.4,1.4,0,0,1-.051.239c-.026.125-.062.25-.1.367a3.066,3.066,0,0,1-.277.643,1.841,1.841,0,0,1-.17.25,1.3,1.3,0,0,1-.2.188c-.582.447-1.172.885-1.762,1.314q-1.956,1.448-3.941,2.824-.993.7-1.984,1.368c-.67.465-1.331.921-2,1.377-1.09.75-2.172,1.483-3.243,2.234v-.009C7163.23,1817.787,7160.737,1791.213,7167.761,1777.243Z" transform="translate(-41.332 0)"/>
    <path id="Path_290" data-name="Path 290" d="M7284.682,2047.5a152.1,152.1,0,0,0-3.37-25.492c-.866-4-.643-6.534,2.235-9.457,7.714-7.857,15.088-16.035,22.668-24.026,2.484-2.619,3.083-4.836.25-7.812-5.72-6.007-11.111-12.317-16.741-18.627-1.234.787-2.253,1.358-3.2,2.047-9.153,6.641-18.314,13.247-27.4,19.977-2.029,1.5-3.414,1.922-5.827.277a65.448,65.448,0,0,0-26.2-10.806c-3.379-.563-4.577-2.244-5.453-5.274-3.611-12.406-7.49-24.732-11.378-37.434-8.85,1.77-17.395,3.647-26.011,5.131-3.228.563-3.683,2-3.343,4.88,1.34,11.227,2.4,22.489,3.727,33.715.286,2.44-.349,3.629-2.547,4.889a141.672,141.672,0,0,0-14.543,9.457c-4.29,3.218-7.723,9-12.326,10-4.987,1.091-10.886-2.083-16.4-3.325-8.214-1.85-16.429-3.647-24.893-5.524-2.888,8.616-5.453,16.84-8.448,24.911-1.1,2.976-.5,4.138,2.315,5.327,10.262,4.353,20.4,9.037,30.65,13.417,2.726,1.162,3.78,2.574,3.548,5.685a61.22,61.22,0,0,0,3.736,27.208c1.323,3.37.42,5.3-1.931,7.732-8.956,9.287-17.653,18.824-26.707,28.549,6.668,7.526,13.156,14.855,20.084,22.677,9.761-7.124,19.36-13.631,28.36-20.9,4.828-3.9,5.114-3.146,10.825-.241a150.827,150.827,0,0,0,15.223,6.847c6.087,2.306,13.854,2.136,14.774,11.208a13.749,13.749,0,0,0,.581,2.6c3.155,10.341,6.328,20.674,9.635,31.463l29.363-5.935c0-1.332.071-2.065-.009-2.78q-1.8-17.1-3.639-34.189c-.241-2.271-.625-4.327,2.163-5.578a63.9,63.9,0,0,0,22.883-17.43c2.226-2.628,4.4-2.708,7.392-1.984,11.423,2.78,22.883,5.39,34.358,7.9,1.314.286,3.889-.09,4.139-.8,3.228-8.876,6.123-17.877,9.189-27.074-11.388-4.979-22.238-9.841-33.206-14.435C7285.951,2052.919,7284.844,2051.4,7284.682,2047.5ZM7219.5,1993.6c.93.1,1.841.223,2.743.366s1.8.313,2.673.51,1.743.411,2.592.652a42.7,42.7,0,0,1,5,1.716c.4.161.813.331,1.208.518.338.143.66.286.981.447a48.449,48.449,0,0,1,6.793,3.888c.161.107.331.224.493.34.437.3.866.617,1.3.938s.866.652,1.3.992c.571.447,1.134.912,1.7,1.385.285.232.563.483.849.733.215.188.439.384.652.59s.446.4.661.608c.519.474,1.028.965,1.538,1.466.25.259.5.509.76.769s.51.509.76.778.5.527.75.8c-2.163,1.52-4.219,2.959-6.373,4.469-.866.608-1.742,1.224-2.636,1.85-.457.313-.912.635-1.377.965-.385-.4-.777-.8-1.171-1.18s-.787-.76-1.189-1.117c-.339-.313-.687-.617-1.036-.912-.465-.4-.938-.787-1.412-1.153-.349-.268-.7-.527-1.046-.787-.277-.205-.563-.4-.841-.6-.205-.143-.419-.286-.626-.42-.455-.3-.9-.59-1.357-.867-.438-.268-.886-.527-1.332-.778-.966-.536-1.939-1.028-2.94-1.475-.5-.223-1.01-.438-1.521-.644s-1.027-.4-1.546-.581c-1.037-.366-2.092-.7-3.173-.983-.268-.072-.537-.143-.813-.205s-.536-.125-.813-.188c-.491-.116-.992-.214-1.492-.3-.251-.054-.5-.09-.76-.134s-.51-.089-.76-.125c-.223-.035-.447-.071-.68-.1s-.456-.062-.688-.089a1.3,1.3,0,0,1-.5-.179,1.86,1.86,0,0,1-.341-.223,2.638,2.638,0,0,1-.33-.3,2.669,2.669,0,0,1-.312-.331.655.655,0,0,1-.144-.179,3.486,3.486,0,0,1-.349-.554,2.259,2.259,0,0,1-.134-.358,1.484,1.484,0,0,1-.036-.17c-.447-3.191-.5-6.427-.742-10.154A54.025,54.025,0,0,1,7219.5,1993.6Zm-49.813,24.706c.26-.42.51-.84.776-1.251.52-.822,1.056-1.618,1.61-2.4.268-.384.545-.769.83-1.144s.564-.751.85-1.117.581-.724.876-1.082c.215-.268.438-.536.67-.786.726-.849,1.466-1.654,2.235-2.431.25-.268.519-.527.786-.778.528-.527,1.073-1.028,1.627-1.511.242-.223.492-.438.742-.643.295-.259.6-.51.9-.751s.59-.474.895-.706c.231-.188.473-.366.706-.536s.474-.349.715-.519c.474-.349.965-.679,1.457-1,.134-.081.259-.17.384-.25.42-.268.85-.536,1.278-.8.447-.268.894-.536,1.358-.787.34-.2.68-.384,1.028-.563s.7-.366,1.055-.545c.706-.358,1.43-.7,2.163-1.028q1.235-.55,2.521-1.046a.009.009,0,0,1,.009-.009c.858-.322,1.726-.644,2.61-.938.555-.188,1.117-.366,1.688-.545s1.146-.349,1.726-.5c1.163-.313,2.351-.617,3.558-.885.09,1.144.17,2.243.241,3.289s.152,2.047.215,2.985c.143,1.9.26,3.575.366,5.032v.009c-1.153.679-2.3,1.359-3.414,2.011-4.854,2.86-9.386,5.524-13.882,8.232a5.884,5.884,0,0,0-.624.447c-.2.17-.395.34-.582.527s-.366.375-.546.563-.357.385-.535.572c-.072.08-.153.161-.224.241-.089.107-.188.215-.277.322-.116.134-.224.268-.34.411-.17.215-.34.429-.51.653a.009.009,0,0,1-.009.009l-.51.67c-.51.67-1.019,1.341-1.511,1.886-.054.063-.115.116-.17.179a3.035,3.035,0,0,1-.24.241,4.443,4.443,0,0,1-.475.4,1.753,1.753,0,0,1-.232.161,1.913,1.913,0,0,1-.3.152,1.094,1.094,0,0,1-.232.063.446.446,0,0,1-.107.018.879.879,0,0,1-.215,0c-.223-.027-.455-.062-.679-.107a12.145,12.145,0,0,1-1.341-.331l-.661-.214c-.447-.152-.885-.322-1.332-.519s-.894-.393-1.34-.608-.895-.429-1.351-.661-.912-.465-1.376-.7-.93-.474-1.4-.706-.967-.456-1.458-.679Zm-.26,50.4h-.009c-.277-.51-.555-1.01-.8-1.52-.536-1.01-1.027-2.029-1.475-3.048-.232-.51-.447-1.01-.652-1.52s-.411-1.019-.6-1.529-.385-1.019-.554-1.529-.34-1.019-.5-1.528c-.313-1.028-.591-2.047-.832-3.075-.071-.286-.143-.59-.2-.885-.027-.1-.045-.206-.062-.3-.036-.152-.071-.313-.1-.465-.018-.072-.035-.143-.044-.206-.072-.34-.125-.688-.188-1.028a.012.012,0,0,1,0-.018c-.018-.107-.045-.224-.053-.331-.152-.885-.278-1.77-.367-2.664-.054-.519-.1-1.046-.134-1.564-.018-.188-.027-.366-.036-.554-.036-.34-.044-.679-.054-1.019-.009-.188-.018-.366-.018-.545q-.026-.657-.026-1.314c0-.447.009-.894.018-1.341s.036-.9.063-1.358c.018-.358.045-.715.072-1.073.035-.554.089-1.117.151-1.671.08-.724.169-1.448.286-2.181l.134-.831c.045-.277.1-.554.152-.831l.16-.831c.054-.277.107-.563.17-.84.071-.349.144-.7.232-1.046.1-.4.2-.8.295-1.2q.564-2.253,1.332-4.541h.009c.456.223.894.438,1.332.644l1.43.688c.465.215.922.438,1.368.652,1.887.894,3.61,1.752,5.246,2.735a1.293,1.293,0,0,1,.26.206l.063.063a1.1,1.1,0,0,1,.1.107,4.3,4.3,0,0,1,.438.625.009.009,0,0,1,.009.009,5.814,5.814,0,0,1,.277.59c.036.1.071.206.107.3a1.909,1.909,0,0,1,.063.223.268.268,0,0,1,.019.081,2.06,2.06,0,0,1,.018.929c-.206.769-.385,1.538-.528,2.306s-.276,1.529-.375,2.3-.17,1.51-.224,2.271c-.062,1.028-.08,2.047-.054,3.066,0,.179.01.367.018.554.01.322.028.644.046.965s.044.644.071.965c.045.519.106,1.037.179,1.546.026.241.063.483.1.715.046.322.107.644.161.974.072.42.152.84.251,1.251.063.357.143.706.232,1.055.1.42.2.84.313,1.251.143.581.313,1.153.491,1.725.162.527.331,1.046.51,1.573.2.581.411,1.162.635,1.734.089.232.178.465.268.688s.18.465.277.7a3.237,3.237,0,0,1-.67,2.959C7175.554,2064.816,7172.658,2066.568,7169.422,2068.7Zm43.333,22.945c-.009.134-.027.259-.045.384a1.9,1.9,0,0,1-.053.331c-.027.107-.045.223-.071.322a2.811,2.811,0,0,1-.09.277,2,2,0,0,1-.188.4,1.4,1.4,0,0,1-.187.269,1.754,1.754,0,0,1-.224.214,1.3,1.3,0,0,1-.483.277,3.8,3.8,0,0,1-1.6.206,2.4,2.4,0,0,0-.259-.009,13.935,13.935,0,0,1-1.734-.188c-.027,0-.054-.009-.081-.009-.42-.053-.858-.134-1.34-.215-.519-.08-1.064-.178-1.663-.286-.519-.09-1.028-.2-1.537-.3-.716-.152-1.422-.313-2.11-.483q-1.8-.442-3.539-1.019c-.49-.161-.983-.331-1.465-.51s-.975-.357-1.449-.554c-.293-.107-.59-.223-.876-.349-.885-.366-1.751-.76-2.609-1.18-.286-.134-.571-.277-.858-.429-.33-.161-.652-.331-.974-.51-.161-.089-.322-.179-.492-.268q-.59-.321-1.18-.67c-.438-.25-.866-.519-1.287-.787a.191.191,0,0,1-.054-.036c-.1-.062-.206-.125-.3-.2a1.8,1.8,0,0,1-.241-.152c-.4-.25-.8-.509-1.18-.786-.5-.34-1-.7-1.493-1.064-.42-.3-.832-.626-1.242-.948-.313-.25-.626-.5-.939-.76-.178-.143-.356-.295-.536-.447s-.357-.3-.527-.456c-.357-.3-.706-.607-1.054-.929-.17-.161-.34-.322-.51-.492-.34-.331-.661-.679-.983-1.037s-.652-.751-.992-1.153-.7-.813-1.064-1.234c-.035-.045-.079-.1-.125-.152-.151-.161-.3-.34-.456-.509,3.656-2.521,6.7-4.622,10.048-6.927.974.778,2,1.546,2.958,2.4.483.429.965.849,1.466,1.251.34.286.688.572,1.046.84.295.232.6.465.9.688.7.528,1.4,1.019,2.127,1.493q1.16.758,2.359,1.418v0h.006c.4.219.8.431,1.21.633v0a.311.311,0,0,1,.045.019q.589.292,1.188.562c.832.375,1.681.706,2.548,1.01.429.152.867.295,1.3.42s.894.259,1.341.366q.6.148,1.206.268c.162.036.313.062.475.089.223.045.438.081.662.116s.446.072.671.1c.383.063.768.107,1.16.143a10.309,10.309,0,0,1,2.307.456,3.537,3.537,0,0,1,.465.179c.116.053.223.107.321.161.071.045.144.081.206.125a2.844,2.844,0,0,1,.34.241,1.448,1.448,0,0,1,.224.188.813.813,0,0,1,.124.125,2.948,2.948,0,0,1,.439.554.759.759,0,0,1,.106.179,2.818,2.818,0,0,1,.17.322,4.248,4.248,0,0,1,.188.474,8.74,8.74,0,0,1,.4,2.387A43.523,43.523,0,0,1,7212.755,2091.649Zm7.759-25.582c-.429.134-.858.268-1.3.375-.375.1-.751.188-1.127.259-.312.072-.625.125-.947.179-.134.018-.268.045-.4.063-.322.045-.644.089-.966.116-.259.027-.509.053-.76.063a.782.782,0,0,1-.144.009,3.262,3.262,0,0,1-.419.027c-.4.018-.8.027-1.2.027a23.591,23.591,0,0,1-23.275-23.383c0-.385.009-.76.026-1.135,0-.125.009-.25.018-.375.019-.268.036-.527.063-.786.019-.179.036-.357.063-.536a.057.057,0,0,1,.01-.053,5.832,5.832,0,0,1,.09-.7c.044-.331.1-.653.169-.974.027-.143.054-.286.09-.42.054-.286.125-.563.2-.831.09-.358.2-.715.3-1.064a.516.516,0,0,1,.035-.107c.08-.277.179-.563.277-.831a1.459,1.459,0,0,1,.054-.161c.089-.232.17-.465.268-.679a.182.182,0,0,1,.036-.081,5.98,5.98,0,0,1,.242-.572,21.272,21.272,0,0,1,1.366-2.664c.063-.107.134-.215.206-.331.1-.17.205-.331.322-.5.1-.152.205-.3.3-.456.295-.429.6-.849.93-1.251.188-.241.375-.465.572-.7.142-.179.294-.349.455-.519.2-.223.4-.438.608-.652a21.382,21.382,0,0,1,1.617-1.511,23.279,23.279,0,0,1,2.672-1.966,20.469,20.469,0,0,1,1.922-1.09c.394-.2.8-.385,1.2-.554.276-.134.564-.241.841-.349.34-.143.688-.268,1.036-.385h.009c.357-.116.706-.232,1.072-.322.358-.107.725-.2,1.091-.277a18.47,18.47,0,0,1,2.234-.375c.225-.027.438-.054.662-.062a2.074,2.074,0,0,1,.34-.027.985.985,0,0,1,.232-.018.464.464,0,0,1,.116-.009c.313-.018.625-.036.946-.036,13.479-.161,24.116,10.074,24.162,23.267,0,.393-.01.778-.028,1.162a1.172,1.172,0,0,1-.008.17,21.423,21.423,0,0,1-.215,2.136c-.019.152-.045.3-.071.447a19.3,19.3,0,0,1-.412,1.922,3.5,3.5,0,0,1-.089.34,14.842,14.842,0,0,1-.474,1.5,5.417,5.417,0,0,1-.188.545c-.25.67-.535,1.323-.84,1.966-.161.34-.34.679-.526,1.01-.17.331-.358.653-.564.974a20.689,20.689,0,0,1-1.341,1.958c-.205.277-.41.536-.625.8a.041.041,0,0,0-.017.027c-.233.286-.476.554-.726.823s-.509.554-.777.813a20.715,20.715,0,0,1-1.672,1.52,22.42,22.42,0,0,1-1.886,1.4c-.277.2-.571.375-.866.554-.323.2-.645.385-.984.563-.276.161-.562.3-.849.447-.394.188-.8.375-1.2.545-.35.152-.706.295-1.062.42C7221.121,2065.871,7220.817,2065.969,7220.514,2066.067Zm34.949,5.774c-.394.581-.8,1.153-1.216,1.716v0q-.615.842-1.251,1.651.634-.8,1.251-1.645h0c-.411.563-.822,1.109-1.251,1.645-.215.277-.43.537-.645.8s-.437.527-.661.787q-.658.777-1.341,1.528-.615.67-1.26,1.314-.174.188-.376.375c-.394.393-.786.778-1.187,1.153s-.814.733-1.226,1.091c-.17.152-.331.295-.5.429-.375.322-.76.635-1.143.938-.055.044-.108.08-.153.125-.644.51-1.3,1-1.984,1.466-.777.545-1.572,1.064-2.387,1.564-.356.223-.724.447-1.1.652-.769.438-1.556.858-2.351,1.261-.4.214-.806.411-1.217.59-.454.214-.911.42-1.376.616-.376.17-.741.322-1.126.465-.42.17-.85.34-1.287.492-.429.17-.867.322-1.314.465q-1.327.456-2.708.831c-.8.224-1.618.438-2.449.626-.357.089-.724.17-1.081.241-.725.161-1.457.295-2.2.429-.1-1.841-.241-3.54-.34-5.14-.045-.635-.071-1.26-.1-1.877-.01-.313-.019-.617-.027-.921-.009-.554-.009-1.09,0-1.627q0-.429.027-.858a.445.445,0,0,1,.036-.188.36.36,0,0,1,.035-.134c0-.009,0-.009.009-.018.018-.053.036-.107.054-.152a1.3,1.3,0,0,1,.071-.161,1.645,1.645,0,0,1,.135-.241,2.615,2.615,0,0,1,.16-.233c.063-.08.125-.161.188-.241a2.739,2.739,0,0,1,.215-.232,5.156,5.156,0,0,1,.394-.375c.143-.116.286-.223.429-.322a3.723,3.723,0,0,1,.429-.259,3.137,3.137,0,0,1,.422-.17c.428-.134.848-.268,1.259-.42l.617-.215c.205-.071.411-.152.617-.232.224-.08.455-.17.679-.26.393-.161.787-.322,1.171-.491.1-.044.205-.089.3-.134.286-.116.572-.25.849-.384.242-.116.492-.232.733-.357.17-.081.34-.17.51-.259.241-.116.473-.242.715-.375s.5-.268.742-.411c.143-.081.286-.161.429-.25a28.671,28.671,0,0,0,2.44-1.564q.6-.415,1.18-.858a1.184,1.184,0,0,0,.179-.134c.33-.25.652-.5.965-.769.394-.313.77-.644,1.145-.983.3-.268.6-.545.894-.823l.206-.205a37.388,37.388,0,0,0,4.031-4.684c.116-.161.241-.322.366-.465a4.077,4.077,0,0,1,.357-.4,4.3,4.3,0,0,1,.358-.349,3.889,3.889,0,0,1,.724-.5,3.066,3.066,0,0,1,.446-.179,2.063,2.063,0,0,1,.322-.072,2.038,2.038,0,0,1,.4-.036h.009a2.65,2.65,0,0,1,.367.027,3.8,3.8,0,0,1,.946.25,2.42,2.42,0,0,1,.286.125c.063.027.134.063.215.107.125.063.25.134.384.206,2.548,1.475,5.229,2.735,8.116,4.228C7256.518,2070.259,7256,2071.064,7255.463,2071.842Zm5.131-11.325a2.619,2.619,0,0,0-.277-.062c-.1-.027-.2-.045-.3-.062-.2-.045-.4-.089-.607-.143a3.061,3.061,0,0,1-.394-.134c-1.537-.661-2.788-1.207-3.8-1.716a16.6,16.6,0,0,1-1.7-.956,2.551,2.551,0,0,1-.295-.206,3.993,3.993,0,0,1-.366-.277,4.109,4.109,0,0,1-.455-.42,3.425,3.425,0,0,1-.3-.34,3.993,3.993,0,0,1-.51-.849,5.379,5.379,0,0,1-.295-.876,6.145,6.145,0,0,1-.106-.625,3.018,3.018,0,0,1-.062-.519c-.028-.277-.046-.581-.056-.912-.009-.1-.009-.187-.009-.295-.035-1.189.019-2.646.054-4.5,0-.206.011-.42.011-.635.008-.563.008-1.135,0-1.7a62.681,62.681,0,0,0-.582-6.7c-.054-.438-.116-.867-.187-1.305-.16-1.054-.322-2.127-.5-3.209-.116-.706-.241-1.421-.357-2.145q-.135-.777-.269-1.582c-.143-.867-.286-1.752-.42-2.646-.143-.956-.286-1.939-.42-2.931.134-.09.277-.188.42-.286.286-.2.581-.393.894-.608.777-.536,1.646-1.126,2.547-1.743.725-.491,1.476-1.01,2.244-1.529s1.548-1.055,2.324-1.591C7264.651,2028.285,7266.563,2050.121,7260.594,2060.517Z" transform="translate(-41.266 -26.958)"/>
    <path id="Path_291" data-name="Path 291" d="M7905.868,1966.985a23.3,23.3,0,0,1,2.628,3.593A22.956,22.956,0,0,0,7905.868,1966.985Z" transform="translate(-126.296 -30.792)"/>
  </g>
</svg>
