<svg xmlns="http://www.w3.org/2000/svg" width="296.741" height="97.732" viewBox="0 0 296.741 97.732">
  <g id="Group_2043" data-name="Group 2043" transform="translate(-5036.168 -9296.676)">
    <path id="Path_588" data-name="Path 588" d="M5329.516,9302.164a405.969,405.969,0,0,0-67.821-4.943,158.852,158.852,0,0,0-43.7,6.089c-7.518,2.183-15.083,4.208-22.6,6.391a43.335,43.335,0,0,1-26.085-.5c-6.686-2.171-13.377-4.365-20.178-6.114-36.972-9.494-74.065-7.336-111.153-.692a3.053,3.053,0,0,0-1.809,2.32c.211,4.51.651,9.014,1.164,13.5a2.87,2.87,0,0,0,1.387,1.982c5.269,2.388,7.915,6.632,8.759,12.136,1.073,6.944,2.128,13.9,3.014,20.864,3.111,24.512,22.794,38.764,41.723,40.692a96.013,96.013,0,0,0,36.375-3.177c15.355-4.371,26.773-13.6,33.651-27.984,3.582-7.494,6.312-15.4,9.483-23.089a100.484,100.484,0,0,1,4.34-9.567,6.1,6.1,0,0,1,3.352-2.737c7.421-2.02,12.859.549,15.825,7.693,2.46,5.925,4.323,12.1,6.668,18.072,5.257,13.377,12.485,25.494,25.832,32.09a86.751,86.751,0,0,0,53.039,8.078c12.527-2,22.9-7.9,29.66-19.092,4.1-6.8,6.324-14.295,7.734-22.04,1.254-6.915,2.273-13.872,3.629-20.763.922-4.684,2.893-8.783,7.854-10.621a2.239,2.239,0,0,0,1.152-1.52c.742-5.354,1.387-10.713,2.1-16.392C5331.475,9302.551,5330.5,9302.327,5329.516,9302.164Zm-286.661,9.4c2.858-3.237,11.829-4.009,14.951-1.284C5054.924,9313.5,5046.008,9314.264,5042.854,9311.563Zm117.043,22.782a81.22,81.22,0,0,1-6.854,26.393,41.929,41.929,0,0,1-23.445,22.588c-12.033,4.848-24.445,6.571-37.184,3.9-14.293-3.009-24.283-11.521-29.932-24.982a69.267,69.267,0,0,1-5.244-29.437c.416-12.557,8.53-22.77,20.87-24.988,9.64-1.729,19.5-2.212,29.262-3.249,3.035.2,22.986,1.574,34.35,5.1a26.252,26.252,0,0,1,7.338,3.433,26.848,26.848,0,0,1,8.023,8.854A20.407,20.407,0,0,1,5159.9,9334.345Zm142.3,35.664c-8.055,12.081-19.871,17.675-34.188,18.3a68.052,68.052,0,0,1-27.737-4.545,42.449,42.449,0,0,1-24.626-23.391,88.786,88.786,0,0,1-6.679-25.524c-1.344-11.405,8.06-22.245,16.042-24.318a164.4,164.4,0,0,1,23.6-4.474c5.6-.72,10.222-1.194,13.311-1.489,9.658,1.05,19.43,1.5,28.949,3.291,12.4,2.34,20.279,12.2,20.683,24.766C5311.973,9345.92,5309.711,9358.735,5302.195,9370.009Zm8.8-59.586c2.918-2.815,11.925-2.194,14.981,1.025C5322.751,9314.191,5313.769,9313.576,5311,9310.423Z" fill="#04040d"/>
  </g>
</svg>
