<svg id="Group_2284" data-name="Group 2284" xmlns="http://www.w3.org/2000/svg" width="371.931" height="258.58" viewBox="0 0 371.931 258.58">
  <path id="Path_1342" data-name="Path 1342" d="M5317.6,5141.92q-24.2-.012-48.4,0h-2.5c6.167-10.706,12.088-20.992,18.151-31.514-.96-.052-1.418-.092-1.877-.1-4.979-.088-9.96-.14-14.936-.295a6.3,6.3,0,0,1-2.02-.86,6.836,6.836,0,0,1,1.96-.605c5.51.027,11.02.167,16.525.147a2.714,2.714,0,0,0,1.964-1.168c3.391-5.7,6.654-11.478,10.024-17.191a2.46,2.46,0,0,0-.083-2.88c-4.825-8.243-9.578-16.526-14.343-24.805-.275-.478-.474-1-.821-1.745h11.634c.346-1.251-.02-1.681-1.2-1.669-3.383.044-6.773.072-10.155-.04a2.809,2.809,0,0,1-2.017-1.071c-2.9-4.793-5.7-9.649-8.5-14.5-1.04-1.8-2.016-3.642-3.167-5.718,3.605,0,6.841,0,10.08,0q12.053.006,24.1.028c1.2,0,2.051-.155,1.3-1.765h-1.952c-10.821,0-21.646-.032-32.467.04a3.242,3.242,0,0,1-3.263-1.884q-11.163-19.524-22.446-38.976c-.912-1.582-1.8-3.18-2.9-5.116h35.379V4984.5h-2.458c-11.55,0-23.1-.02-34.658.032-1.446.008-2.251-.438-2.515-2.2h55.7c0-.227.008-.454.012-.685h-2.231c-17.463,0-34.925-.02-52.387.032a2.781,2.781,0,0,1-2.817-1.622c-2.267-4.052-4.761-7.977-6.928-12.08-.813-1.534-1.781-1.789-3.295-1.785q-28.751.048-57.5.012-27.287,0-54.578.012c-8.431,0-16.864-.02-25.3.036-.828.008-2.159.279-2.39.809-.856,1.952-2.326,2.063-4.06,1.944-.963-.064-1.932-.012-2.876-.012v4.594c.976.116,1.785.215,2.817.338-2.088,3.622-3.992,7.032-6.032,10.359a2.639,2.639,0,0,1-1.933.888c-3.518.088-7.036.044-10.558.044H5057.4v5.8h12.94c-1.474,2.566-2.677,4.833-4.076,6.972a3.068,3.068,0,0,1-2.116,1.255c-5.84.111-11.681.08-17.518.092h-2.375v6.1h17.777c-.944,1.638-1.761,2.845-2.358,4.147a2.887,2.887,0,0,1-3.108,1.8c-9.23-.08-18.462-.036-27.689-.036h-2.6v6.646h28.5c-.925,1.6-1.753,2.8-2.347,4.119a2.812,2.812,0,0,1-3.044,1.837c-7.7-.1-15.406-.04-23.108-.044-3.238,0-3.238,0-3.011,3.307a4.213,4.213,0,0,0,.207.729h25.4c-.287.649-.43,1.076-.649,1.454-1.789,3.1-3.578,6.207-5.4,9.295-1.107,1.88-1.864,4.442-3.526,5.391s-4.255.287-6.438.295c-3.024.02-6.044.008-9.016.008v5.769h12.339c-1.454,2.538-2.789,4.729-3.984,7a2.411,2.411,0,0,1-2.5,1.431c-9.893-.052-19.789-.028-29.681-.028h-2.367v5.757h30.367c-1.219,2.131-2.295,3.944-3.3,5.793-.865,1.594-1.526,3.395-4.12,2.574,0,1.339.024,2.387,0,3.435a4.583,4.583,0,0,1-4.833,4.836h-8.681v3.618h9.231a20.366,20.366,0,0,1-1.514,2.677,2.5,2.5,0,0,0-.08,3.367c1.51,2.338,2.833,4.8,4.22,7.215,1.175,2.052,2.326,4.116,3.677,6.5h-8.7v3.53c3.076,0,6.052.088,9.017-.04a2.574,2.574,0,0,1,2.685,1.5c2.737,4.849,5.542,9.666,8.311,14.5,1.036,1.805,2.044,3.63,3.263,5.8h-26.817v5.718c.772,0,1.422,0,2.072,0,8.7,0,17.4.048,26.1-.04a3.017,3.017,0,0,1,3.1,1.816c1.945,3.546,4.048,7.008,6.064,10.519,1.275,2.219,2.506,4.462,3.96,7.056h-4.873v3.494c1.992,0,3.849-.04,5.7.028.53.02,1.3.191,1.534.566,1.462,2.338,2.8,4.753,4.482,7.657h-32.729c0,.2-.008.406-.012.605a13.7,13.7,0,0,0,1.446.151c10.024.012,20.052.032,30.076-.008a2.451,2.451,0,0,1,2.514,1.4c1.952,3.466,4.051,6.849,6.068,10.275.653,1.112,1.239,2.259,2.067,3.785h-17.713a27.753,27.753,0,0,0,.059,3.992,1.981,1.981,0,0,0,1.259,1.362,46.206,46.206,0,0,0,5.753.283c4.239-.02,8.475-.155,12.709-.144a2.327,2.327,0,0,1,1.689.94c1.829,2.992,3.618,6.012,5.243,9.111a2.069,2.069,0,0,0,2.108,1.327q17.528.215,35.051.494c2.391.04,4.778.1,7.164.243.354.024.678.542,1.02.829a5.932,5.932,0,0,1-1.071.578,3.435,3.435,0,0,1-.988,0c-9.291-.147-18.582-.319-27.876-.438-4.487-.056-8.972-.008-13.642-.008.633,1.223,1.219,2.351,1.976,3.809h-20.952v3.534H5062c6.243,0,12.486.043,18.725-.028,1.482-.02,2.618.215,3.119,1.745.431,1.323,1.387,1.474,2.634,1.47q40.3-.048,80.61-.02c17.729,0,35.458-.187,53.18.107,4.506.076,7.55-.793,9.159-5.215a3.017,3.017,0,0,1,2.3-1.263c2.646-.167,5.307-.056,7.965-.091a14.885,14.885,0,0,0,1.856-.255c-.021-.231-.044-.458-.068-.685h-10.825c1.243-2.187,2.267-3.988,3.466-6.1l-36.14-.617v-4.423c.809,0,1.462-.008,2.119,0,11.415.2,22.833.379,34.252.63a3.4,3.4,0,0,0,3.6-2.044c1.566-3.068,3.474-5.96,5.084-9.012a3.17,3.17,0,0,1,3.259-1.888c13.278.063,26.562.04,39.841.027a17.289,17.289,0,0,0,2.06-.234c-.02-.2-.044-.4-.063-.6h-43.458c1.92-3.331,3.693-6.259,5.311-9.271a2.742,2.742,0,0,1,2.825-1.6q13.345.089,26.689-.008c.542,0,1.075-.546,1.614-.841-.542-.291-1.083-.829-1.634-.836-3.98-.068-7.968-.028-11.953-.024h-15.569c1.191-2.092,2.139-3.98,3.314-5.705a3.1,3.1,0,0,1,2.136-1.228c4.912-.1,9.825-.048,14.737-.06.841,0,1.677-.088,2.562-.136v-5.6h-15.387c1.865-3.278,3.586-6.179,5.176-9.151a3.174,3.174,0,0,1,3.235-1.92c15.732.071,31.47.04,47.207.04h4.534C5320.07,5141.566,5318.64,5141.92,5317.6,5141.92Zm-56.782-51.49q-8.157,14.02-16.215,28.1a2.49,2.49,0,0,1-2.51,1.426c-11.021-.048-22.044-.023-33.064-.02H5206.9c-.654,1.637.135,1.844,1.342,1.84,6.505-.024,13.012-.012,19.518-.012h14.9c-1.609,2.825-3.064,5.395-4.538,7.953-6.96,12.064-13.948,24.108-20.856,36.2a2.75,2.75,0,0,1-2.845,1.565c-4.633-.076-9.267-.052-13.9.02-.55.008-1.088.562-1.63.865.546.287,1.088.813,1.642.82,4.765.068,9.534.04,14.677.04-.968,1.741-1.789,3.287-2.673,4.793-1.307,2.227-2.167,5.263-4.127,6.41-1.944,1.136-5.008.418-7.582.422q-48.281.024-96.559.072c-2.566.008-2.618-1.876-3.773-3.582h42.733c0-.255.013-.506.021-.761-.737-.04-1.478-.111-2.215-.111-13.012-.008-26.025-.028-39.037.02-1.474.008-2.566-.211-3.076-1.757-1.016-3.076-3.112-4.08-6.351-3.845a109.521,109.521,0,0,1-11.144-.1,4.633,4.633,0,0,1-1.558-.7c.546-.279,1.091-.789,1.646-.8,4.633-.063,9.271-.036,14.2-.036-1.526-2.673-3.008-5.291-4.511-7.893-7.278-12.614-14.589-25.2-21.816-37.845a2.843,2.843,0,0,0-2.94-1.717c-3.235.107-6.479.036-9.853.036v-4.379h9.239c-1.893-3.3-3.582-6.247-5.51-9.613h10.482c0-.243,0-.486-.008-.733-2.856,0-5.717-.119-8.562.044a3.309,3.309,0,0,1-3.546-2.056c-2.673-4.885-5.442-9.729-8.383-14.458-1.012-1.622-.366-2.777.319-4,.741-1.322,1.609-2.334,3.521-2.307,9.821.151,19.646.128,29.467.16a.954.954,0,0,0,.916-.558H5052.3c3.929-6.785,7.55-13.044,11.14-19.243-.753-1.343-3.741.865-3.351-2.243a3.539,3.539,0,0,1,1.1-.164c2.924.638,4.318-.952,5.653-3.318,6.55-11.594,13.259-23.1,19.9-34.642.228-.395.419-.809.741-1.442h-10.733v-4.618c3.964,0,7.869-.044,11.769.028a2.436,2.436,0,0,0,2.518-1.4c3.459-6.12,7.028-12.18,10.506-18.287a2.653,2.653,0,0,1,2.65-1.55q50.886.066,101.77-.012a3.931,3.931,0,0,1,4.008,2.347c2.8,5.111,5.772,10.131,8.86,15.5h-15.18c-.267,1.749-.267,1.8,1.124,1.8,4.519.023,9.032.052,13.546-.008a2.308,2.308,0,0,1,2.358,1.339c2.032,3.649,4.279,7.188,6.184,10.9a4.038,4.038,0,0,0,4.215,2.446c4.844-.06,9.689.048,14.534.155a5.9,5.9,0,0,1,1.8.7c-.071.227-.143.45-.215.677h-17.921c3.155,5.5,6.224,10.84,9.482,16.522h-7.729v3.546c2.785,0,5.554.048,8.319-.028a1.936,1.936,0,0,1,2.179,1.251c.248.606.738,1.116.984,1.722.614,1.514,1.151,3.056,1.766,4.709a10.97,10.97,0,0,1,2.171,2.159c4.833,8.239,9.554,16.546,14.383,24.789A2.446,2.446,0,0,1,5260.814,5090.43Z" transform="translate(-4947.681 -4957.473)" fill="#232323"/>
  <path id="Path_1343" data-name="Path 1343" d="M4986.926,5157.766v.474h-50.749c0-.159.008-.319.012-.474Z" transform="translate(-4910.694 -5072.726)" fill="#232323"/>
  <path id="Path_1344" data-name="Path 1344" d="M5297.727,4944.316v.4h-72.073c0-.135-.007-.267-.007-.4Z" transform="translate(-5084.837 -4944.316)" fill="#232323"/>
  <path id="Path_1345" data-name="Path 1345" d="M5458.394,5592.166c0,.155,0,.311-.008.47h-57.929v-.47Z" transform="translate(-5190 -5334.056)" fill="#232323"/>
  <path id="Path_1346" data-name="Path 1346" d="M4955.029,5405.336c0,.147-.008.295-.012.446h-50.686c0-.151,0-.3,0-.446Z" transform="translate(-4891.534 -5221.661)" fill="#232323"/>
  <path id="Path_1347" data-name="Path 1347" d="M4916.715,5068.536v.45h-44.5c.008-.147.012-.3.02-.45Z" transform="translate(-4872.217 -5019.045)" fill="#232323"/>
  <path id="Path_1348" data-name="Path 1348" d="M5556.368,5311.012h-44.757c0-.143,0-.286,0-.426h44.757C5556.368,5310.726,5556.368,5310.869,5556.368,5311.012Z" transform="translate(-5256.868 -5164.66)" fill="#232323"/>
</svg>
