<svg xmlns="http://www.w3.org/2000/svg" width="392.466" height="312.485" viewBox="0 0 392.466 312.485">
  <g id="Group_2239" data-name="Group 2239" transform="translate(-7581.18 -8205.33)">
    <path id="Path_1250" data-name="Path 1250" d="M7940.089,8207.063v-1.733H7798.66v100.626c8.419-4.007,15.626-.729,19.8,4.412a23.2,23.2,0,0,1,4.073,22.9c-4.1,12.353-8.759,24.517-13.268,36.734a4.07,4.07,0,0,0,.347,4.219,37.581,37.581,0,0,1,2.776,5.273,48.862,48.862,0,0,1,4.247,16.568H7905.4V8361.3h14.738c-.185-.594-.285-.949-.4-1.3a59.653,59.653,0,0,1-2.864-28.276c2.316-15.665,9.747-28.369,21.931-38.36a3.112,3.112,0,0,0,1.313-2.729Q7940.06,8248.852,7940.089,8207.063Zm-41.344,160.147h-69.407v-5.775h69.407Zm-47.543-18.425v-5.675h24.242v5.675Zm47.616-18.179H7851.2v-5.729h47.62Zm20.8-27.076H7816.637V8226.5h5.736v71.148h97.248Zm-37.244-16.733-21.12-27.7c-7.658,8.477-15.205,16.83-22.883,25.327l-4.389-3.937,27.67-30.589c6.945,9.114,13.828,18.139,20.9,27.419,11.584-14.059,23.084-28.01,34.727-42.143,1.5,1.224,2.957,2.421,4.54,3.722Z" transform="translate(-133.527)" fill="#432a00"/>
    <path id="Path_1251" data-name="Path 1251" d="M7668.994,8537.9a3.242,3.242,0,0,0,.378,3.351c11.307,16.264,10.3,35.762-2.47,50.952a87.652,87.652,0,0,1-15.407,14.225c-.459.34-.915.684-1.513,1.131,1.1,1.626,2.157,3.2,3.3,4.884.687-.494,1.193-.861,1.98-1.429-2.9,24.139-5.771,47.941-8.646,71.828h-65.432c.807-5.192,1.594-10.311,2.4-15.425q3.208-20.452,6.431-40.9c1.459-9.257,2.98-18.506,4.37-27.774a49.117,49.117,0,0,0,.3-6.536c.178-10.48.316-20.961.482-31.441.178-11.569.4-23.143.533-34.712a6.322,6.322,0,0,1,1.949-4.442,46.908,46.908,0,0,1,13.993-9.794c8.42-4.1,17.013-7.845,25.575-11.639,4.038-1.791,8.18-3.343,12.708-5.181-.317.907-.444,1.413-.66,1.876-3.243,6.906-6.516,13.8-9.74,20.715-2.22,4.763-4.1,9.716-6.647,14.294-1.752,3.154-4.362,5.833-6.67,8.659a1.775,1.775,0,0,1-1.556.192c-2.856-1.026-5.678-2.15-8.855-3.373-.849.9-2.1,2.246-3.439,3.67,2.458,2.688,5.612,3.992,9.133,5.107-2.463,2.927-4.8,5.71-7.223,8.582,1.452,1.231,2.861,2.428,4.451,3.783,1.926-2.239,3.8-4.4,5.655-6.582,3.451-4.068,6.748-8.28,10.369-12.19,3.567-3.853,5.1-8.729,7.265-13.272,4.7-9.844,9.211-19.779,13.8-29.674.158-.348.37-.668.71-1.266a17.405,17.405,0,0,0,16.209-.537c3.911-2.123,6.266-5.608,8.308-9.5l-5.011-3.072c-2.077,4.029-4.555,7.6-9.265,8.646a12.569,12.569,0,0,1-8.049-1.03c1.729-4.493,3.826-8.7,7.944-11.477,5.1-3.433,11.407-1.9,14.809,3.613a18.541,18.541,0,0,1,1.775,16.479C7678.622,8511.77,7673.8,8524.828,7668.994,8537.9Z" transform="translate(0 -166.628)" fill="#432a00"/>
    <path id="Path_1252" data-name="Path 1252" d="M8434.557,8679.406c-18.332-16.851-36.3-33.361-54.487-50.076-3.811,14.858-7.535,29.373-11.257,43.884-.1.012-.193.02-.289.031-.359-2.761-.733-5.517-1.069-8.28q-1.888-15.595-3.749-31.187c-.949-7.971-1.845-15.947-2.884-23.906a5.292,5.292,0,0,0-1.548-2.9,88.862,88.862,0,0,1-14.26-16.649c-9.581-15.1-9.686-30.287-.486-45.578a10.94,10.94,0,0,1,1.336-2.115c1.953-1.965,1.71-3.957.795-6.4-3.613-9.666-7.021-19.41-10.465-29.138-1.409-3.976-3.135-7.909-3.949-12.013a16.694,16.694,0,0,1,3.56-14.311c4.111-4.991,10.249-5.478,15.136-1.255,3.208,2.769,5.022,6.428,6.594,10.415-6.973,3.089-11.373,1.186-17.426-7.458-1.605.97-3.227,1.95-4.833,2.919,3.8,8.516,12.5,14.831,24.536,10.229.22.413.479.83.684,1.271,5.809,12.515,11.558,25.061,17.479,37.521a30.281,30.281,0,0,0,4.316,6.08c4.968,5.979,10.036,11.878,15.225,18,1.49-1.273,2.926-2.5,4.455-3.813l-6.926-8.241c3.042-1.652,5.979-3.251,9.223-5.012-1.66-1.795-2.907-3.146-3.841-4.161-2.868,1.162-5.509,2.212-8.13,3.3-1.332.552-2.115.046-3.123-.935-5.119-4.991-7.663-11.465-10.566-17.753q-5.854-12.675-11.766-25.319c-.178-.383-.336-.772-.684-1.591,3.838,1.486,7.3,2.783,10.732,4.157,11.932,4.764,23.748,9.782,34.638,16.711.923.588,1.772,1.286,2.694,1.865,4.667,2.949,6.543,6.906,6.539,12.673-.03,22.116.352,44.235.9,66.343.127,5.215,1.489,10.4,2.3,15.6q3.195,20.358,6.407,40.711C8431.728,8661.637,8433.105,8670.249,8434.557,8679.406Z" transform="translate(-460.91 -166.586)" fill="#432a00"/>
    <path id="Path_1253" data-name="Path 1253" d="M8203.9,8483.449c-2.115-5.84-3.957-11.789-6.308-17.529-2.235-5.455-3.228-10.979-2.069-16.738,1.571-7.828,5.624-13.715,13.681-16.094a33.359,33.359,0,0,1,3.374-.629c-.282-.425-.37-.594-.49-.733-.34-.386-.683-.772-1.046-1.135-11.709-11.589-25.794-16.974-42.231-15.947a51.59,51.59,0,0,0-34.473,15.665c-18.49,18.758-21.011,46.509-6.5,68.447,16.321,24.682,50.952,31.256,75.209,14.244a5.448,5.448,0,0,0,1.563-1.85c1.629-2.979,3.1-6.053,4.8-8.99a3.165,3.165,0,0,0,.309-3.026Q8206.754,8491.316,8203.9,8483.449Zm-17.68,7.937a15.792,15.792,0,0,1-8.558,4.9c-1.853.358-2.509,1.127-2.2,2.9a7.351,7.351,0,0,1,.007,1.1h-5.736c-.059-1.077-.116-2.192-.182-3.374-8.593-1.957-14.245-6.609-14.866-16.082h5.794c1.784,8.423,8.9,12.4,16.912,9.512,4.192-1.513,7.026-5.127,7.042-8.982a9.591,9.591,0,0,0-7.149-9.037c-2.737-.78-5.682-.822-8.52-1.277-8.74-1.405-14.739-8.948-13.816-17.313.671-6.084,5.929-11.628,12.477-13.145.687-.158,1.374-.31,2.212-.5v-3.335h5.751c.054,1.123.112,2.188.167,3.23,10.113,3.135,15.421,8.944,14.626,16.2h-5.57a26.965,26.965,0,0,0-.506-2.833c-1.3-4.524-6.663-7.94-11.758-7.616-3.3.209-6.331,1.073-8.751,3.455a8.852,8.852,0,0,0,1.548,14.183,14.038,14.038,0,0,0,7.481,2.166,18.473,18.473,0,0,1,14.893,7.2C8192.251,8478.693,8190.745,8486.6,8186.221,8491.386Z" transform="translate(-329.888 -128.437)" fill="#432a00"/>
    <path id="Path_1254" data-name="Path 1254" d="M8048.656,8894.99c-6.778,9.852-13.41,19.49-20.15,29.28-1.008-.68-1.945-1.309-3.119-2.1,4.026-5.82,8-11.569,12.113-17.518-44.362,26.539-90.793,31.338-140,15.024,7.6,6.427,14.831,12.542,22.139,18.726-.838.98-1.575,1.846-2.428,2.846l-30.767-25.991c11.971-2.174,23.478-4.266,35.109-6.382.239,1.217.456,2.32.707,3.613-7.1,1.32-14.063,2.613-21.093,3.923,8.636,6.253,48.813,10.585,70.2,7.844a156.341,156.341,0,0,0,66.493-24.667l-28.782,2.386c-.143-1.212-.278-2.324-.444-3.722C8021.978,8897.167,8035.18,8896.09,8048.656,8894.99Z" transform="translate(-187.421 -423.432)" fill="#432a00"/>
    <path id="Path_1255" data-name="Path 1255" d="M8274.811,8694.949c.224,2.718-.946,4.22-3.166,5.641-6.049,3.871-11.9,8.045-17.877,12.036-3.331,2.228-6.8,2.544-10.271.271a10.352,10.352,0,0,1-4.621-10.3c.664-3.5,2.85-5.153,6.493-5.1a58.57,58.57,0,0,0,28.508-6.763c.452-.235.907-.456,1.54-.772A24.81,24.81,0,0,0,8274.811,8694.949Z" transform="translate(-403.712 -297.556)" fill="#432a00"/>
    <path id="Path_1256" data-name="Path 1256" d="M7849.19,8743.8c-2.95,4.1-7.925,5.4-12.052,2.884-3.605-2.2-7.029-4.7-10.658-7.146a49.086,49.086,0,0,0,6.891-18.614c5.115,3.556,10.168,6.752,14.854,10.416C7852.135,8734.393,7852.3,8739.469,7849.19,8743.8Z" transform="translate(-150.607 -316.558)" fill="#432a00"/>
    <path id="Path_1257" data-name="Path 1257" d="M7894.138,8727.066c-2.83,2.725-6.813,3.732-10.1,1.7-6.9-4.27-13.554-8.94-20.309-13.449.046-.132.093-.267.135-.4h8.967c7.2,0,14.4.046,21.606-.035a2.214,2.214,0,0,1,2.4,1.641A9.8,9.8,0,0,1,7894.138,8727.066Z" transform="translate(-173.478 -312.849)" fill="#432a00"/>
    <path id="Path_1258" data-name="Path 1258" d="M8319.615,8748.066c-3.111,1.667-5.891,3.59-8.964,4.7-3.722,1.344-7.987-.953-10.122-4.8-2.242-4.03-1.791-8.233,1.24-11.137a18.18,18.18,0,0,1,2.262-1.8c2.687-1.849,5.4-3.659,8.33-5.644C8313.477,8736.072,8316.025,8741.963,8319.615,8748.066Z" transform="translate(-440.796 -321.758)" fill="#432a00"/>
    <path id="Path_1259" data-name="Path 1259" d="M8344.7,8290.373c-1.035.578-2.012,1.123-3.235,1.81a157.6,157.6,0,0,0-46.157-53.491l2.192-3.062A160.9,160.9,0,0,1,8344.7,8290.373Z" transform="translate(-438.456 -18.603)" fill="#432a00"/>
    <path id="Path_1260" data-name="Path 1260" d="M8106.754,8632.687q-8.071,8.13-16.194,16.294v-24.064c3.745,0,7.435-.016,11.129.031.267,0,.6.4.783.694C8103.951,8628.043,8105.4,8630.459,8106.754,8632.687Z" transform="translate(-312.745 -257.612)" fill="#432a00"/>
  </g>
</svg>
