<svg id="Group_2334" data-name="Group 2334" xmlns="http://www.w3.org/2000/svg" width="303.794" height="220.306" viewBox="0 0 303.794 220.306">
  <path id="Path_1444" data-name="Path 1444" d="M7484.843,6081.05c.018-2.417.832-3.245,3.223-3.245q17.793-.026,35.581,0c2.283,0,3.12.833,3.128,3.1q.048,12.308.009,24.615c-.009,2.529-.792,3.245-3.41,3.25q-10.187.02-20.367,0c-.8,0-1.594,0-2.444,0v8.585H7602.4v-40.331h-4.288c-1.656,10.8-3.317,21.477-4.9,32.162-.309,2.081-1.3,3.04-3.383,3.012-2.981-.04-5.967-.009-8.953-.009-4.114,0-4.723-.751-4.069-4.789.613-3.8,1.15-7.615,1.759-11.661h-39.4c-.6,0-1.2.036-1.791-.022-1.478-.139-2.569-1.043-2.292-2.435.184-.913,1.3-1.75,2.18-2.368.457-.318,1.3-.094,1.974-.094q18.8-.007,37.6,0h2.5c.72-4.7,1.4-9.18,2.13-13.93-2.368,0-4.6.081-6.817-.013-9.919-.421-17.712-4.785-21.777-13.846-1.867-4.153-4.083-4.986-7.945-4.6a50.825,50.825,0,0,1-7.377-.018,2.357,2.357,0,0,1-2.529-2.552,2.269,2.269,0,0,1,2.511-2.292c1.119-.027,2.238-.018,3.357-.018h9.077c.054-.734.095-1.1.1-1.468.357-14.4,10.993-24.821,25.349-24.83q12.308-.006,24.619,0h2.354v-52.327H7474.641v119.586h10.192C7484.833,6089.841,7484.807,6085.445,7484.843,6081.05Zm41.946-13.33c0,3.071-.744,3.8-3.832,3.8q-8.607.013-17.215,0c-5.734,0-11.473,0-17.211,0-2.9-.009-3.693-.8-3.7-3.715q-.013-11.851,0-23.7c0-2.973.694-3.635,3.715-3.639q17.1-.008,34.2-.005c3.483.005,4.043.568,4.047,4Q7526.793,6056.093,7526.789,6067.72Zm8.321-50c.022-.059.049-.116.076-.17a2.318,2.318,0,0,1,.148-.255,1.557,1.557,0,0,1,.1-.126l.068-.08a2.423,2.423,0,0,1,.442-.38c.094-.063.193-.121.3-.175a3.515,3.515,0,0,1,.7-.272,3.818,3.818,0,0,1,.608-.112,15.879,15.879,0,0,1,1.607-.014q12.173-.006,24.355,0h24.355c.519,0,1.043-.018,1.562.014a4.606,4.606,0,0,1,.815.12c.085.023.17.05.25.077a2,2,0,0,1,.233.089,2.353,2.353,0,0,1,.416.229,2.065,2.065,0,0,1,.882,1.356,2.866,2.866,0,0,1,.054.568,3.054,3.054,0,0,1-.054.586v0a2.315,2.315,0,0,1-.147.506,2,2,0,0,1-.967,1.034,2.406,2.406,0,0,1-.479.192,4.124,4.124,0,0,1-1.151.148q-10.165-.021-20.335,0h-5.582c-8.344,0-16.683-.013-25.026.013-1.177,0-2.283-.125-2.9-1.016a2.545,2.545,0,0,1-.336-.735A2.508,2.508,0,0,1,7535.11,6017.716Zm-50.272-11.249c0-2.542.81-3.366,3.33-3.37q17.659-.021,35.317,0c2.439.005,3.281.8,3.29,3.174q.053,12.294.009,24.592c-.009,2.439-.8,3.2-3.214,3.213-5.962.023-11.924.009-17.887.009v-.009c-5.81,0-11.625.014-17.435,0-2.722-.009-3.4-.7-3.411-3.469Q7484.812,6018.536,7484.838,6006.467Z" transform="translate(-7421.853 -5974.937)" fill="#611735"/>
  <path id="Path_1445" data-name="Path 1445" d="M7674.3,6224.732c-.358-5.689-2.932-10.1-8.228-13.285v2.816c0,6.486.036,12.977-.021,19.462a26.459,26.459,0,0,1-.493,5.555c-1.9,8.451-9.028,13.854-18.177,13.854q-55.937.013-111.875,0h-3V6280.8c.662.037,1.172.094,1.679.094,38.262,0,76.525.067,114.788-.036,14.047-.035,26.58-10.756,27.972-24.7.9-9.055.17-18.28.17-27.56C7674.989,6228.38,7674.438,6226.876,7674.3,6224.732Zm-35.058,40.161a3.36,3.36,0,0,1-2.184,2.26,57.621,57.621,0,0,1-9.557,0,3.34,3.34,0,0,1-2.188-2.242c-.273-1.361.779-2.355,2.274-2.422,1.633-.076,3.268-.018,4.9-.018,1.485,0,2.977-.058,4.458.013S7639.506,6263.532,7639.246,6264.893Z" transform="translate(-7453.819 -6105.58)" fill="#611735"/>
  <path id="Path_1446" data-name="Path 1446" d="M7773.8,6061a9.408,9.408,0,0,0-.4,1.048c-1.76,7.059-6.339,11.642-12.82,14.507a37.925,37.925,0,0,1-15.21,3.191c-11.105.063-22.211-.04-33.316-.071-2.529-.009-5.054,0-7.713,0v39.771c12.122,0,24.047-.1,35.967.049a79.792,79.792,0,0,1,13.755,1.115c7,1.325,13.156,4.468,16.974,10.868a56.178,56.178,0,0,1,2.945,6.678C7794.583,6122.708,7793.871,6075.409,7773.8,6061Z" transform="translate(-7548.732 -6022.479)" fill="#611735"/>
  <path id="Path_1447" data-name="Path 1447" d="M7356.71,6309.664h73.5v-55.877h-73.5Zm24.047-45.228a3.876,3.876,0,0,1,1.347-2.936,3.817,3.817,0,0,1,3.165.572c8.394,5.663,16.719,11.428,25.044,17.193,2.333,1.611,2.315,3.259-.04,4.888q-12.489,8.642-25.022,17.225a14.7,14.7,0,0,1-1.768.932c-2.27-.161-2.8-1.428-2.793-3.232.027-6.705.009-13.411,0-20.116C7380.694,6274.122,7380.618,6269.275,7380.757,6264.436Z" transform="translate(-7356.71 -6128.968)" fill="#611735"/>
  <path id="Path_1448" data-name="Path 1448" d="M7378.274,6117.707h11.356v-2.842q0-33.766,0-67.537c0-11.249,7.538-18.769,18.8-18.8,2.583,0,5.166,0,7.842,0v-11.477c-3.294,0-6.343-.058-9.387.009a29.1,29.1,0,0,0-28.612,29.229q-.02,34.438,0,68.88Z" transform="translate(-7368.62 -5998.189)" fill="#611735"/>
  <path id="Path_1449" data-name="Path 1449" d="M7602.733,6444.334q-35.889-.007-71.781,0a8.692,8.692,0,0,0-2.439.166c-.739.22-1.9.7-1.974,1.2a22.666,22.666,0,0,0-.309,6.911c.358,2.015,2.516,1.916,4.274,1.916q10.864-.013,21.732-.009h14.49q6.822-.006,13.644,0h0q11.736,0,23.478.009c1.567,0,2.981-.21,3.787-1.786C7609.877,6448.341,7607.545,6444.334,7602.733,6444.334Z" transform="translate(-7450.256 -6234.218)" fill="#611735"/>
  <rect id="Rectangle_2021" data-name="Rectangle 2021" width="44.901" height="14.27" transform="translate(94.098 180.372)" fill="#611735"/>
  <path id="Path_1450" data-name="Path 1450" d="M7519.231,6230.873c.049,1.982.013,3.966.013,5.935h21.378v-20.944h-31.835v11.861c2.556,0,4.942-.04,7.323.009C7518.39,6227.779,7519.178,6228.581,7519.231,6230.873Z" transform="translate(-7440.715 -6108.021)" fill="#611735"/>
  <path id="Path_1451" data-name="Path 1451" d="M7671.193,6142.685v-39.1c-9.521.694-17.4,9.718-17.3,19.615C7654,6133.167,7661.779,6142.025,7671.193,6142.685Z" transform="translate(-7520.87 -6045.999)" fill="#611735"/>
  <path id="Path_1452" data-name="Path 1452" d="M7780.907,6028.517a17.141,17.141,0,0,1,12.01,5.179c3.438,3.42,5.058,7.628,5.255,12.82a15.818,15.818,0,0,0,7.91-11.021,5.727,5.727,0,0,0-.859-4.62c-8.563-13.115-20.457-14.834-33.594-13.594V6028.5C7774.824,6028.5,7777.868,6028.441,7780.907,6028.517Z" transform="translate(-7585.902 -5998.142)" fill="#611735"/>
  <path id="Path_1453" data-name="Path 1453" d="M7900.428,6109.205a78.637,78.637,0,0,1,.072,33.849c7.771.26,15.219-7.2,15.671-15.523C7916.69,6117.884,7910.029,6109.971,7900.428,6109.205Z" transform="translate(-7657.048 -6049.104)" fill="#611735"/>
  <rect id="Rectangle_2022" data-name="Rectangle 2022" width="44.923" height="5.322" transform="translate(94.121 199.826)" fill="#611735"/>
  <path id="Path_1454" data-name="Path 1454" d="M7725.417,6202.915h-6.759c-1.535,10.111-3.049,20.071-4.57,30.129h6.746C7722.369,6222.946,7723.886,6213,7725.417,6202.915Z" transform="translate(-7554.118 -6100.867)" fill="#611735"/>
  <path id="Path_1455" data-name="Path 1455" d="M7993.843,6144.093c-.139-2.063-1.553-2.413-3.3-2.408-9.006.031-18.008.009-27.009.018-2.386,0-3.434.8-3.339,2.556.116,2.086,1.535,2.439,3.281,2.426,4.463-.027,8.926-.009,13.393-.009,4.539,0,9.078.009,13.617,0C7992.782,6146.667,7993.959,6145.785,7993.843,6144.093Z" transform="translate(-7690.057 -6067.045)" fill="#611735"/>
  <path id="Path_1456" data-name="Path 1456" d="M7954.168,6095c6.513-4.835,13.035-9.65,19.512-14.53a12.474,12.474,0,0,0,1.857-2.359c-.7-.877-1.146-1.983-1.759-2.082a4.7,4.7,0,0,0-3.218.56c-6.521,4.691-12.941,9.526-19.4,14.3-1.455,1.079-2.171,2.4-.945,3.971C7951.362,6096.331,7952.821,6096,7954.168,6095Z" transform="translate(-7684.205 -6030.742)" fill="#611735"/>
  <path id="Path_1457" data-name="Path 1457" d="M7973.379,6189.206q-9.447-7.117-18.979-14.118c-1.812-1.343-3.411-1.316-4.27.094-1.047,1.714-.206,2.932,1.2,3.97,3.6,2.641,7.175,5.309,10.761,7.968,2.927,2.17,5.806,4.413,8.823,6.45a3.864,3.864,0,0,0,2.874.358c.658-.184,1.079-1.213,1.817-2.126A17.019,17.019,0,0,0,7973.379,6189.206Z" transform="translate(-7684.244 -6084.951)" fill="#611735"/>
  <rect id="Rectangle_2023" data-name="Rectangle 2023" width="31.956" height="20.868" transform="translate(67.97 33.266)" fill="#611735"/>
  <rect id="Rectangle_2024" data-name="Rectangle 2024" width="31.875" height="21.069" transform="translate(68.051 70.472)" fill="#611735"/>
  <path id="Path_1458" data-name="Path 1458" d="M7421.538,6286.094v26.9c6.589-4.539,12.927-8.9,19.539-13.452C7434.479,6295,7428.123,6290.624,7421.538,6286.094Z" transform="translate(-7392.52 -6146.813)" fill="#611735"/>
</svg>
