<svg id="Group_2333" data-name="Group 2333" xmlns="http://www.w3.org/2000/svg" width="362.286" height="268.77" viewBox="0 0 362.286 268.77">
  <path id="Path_1436" data-name="Path 1436" d="M2665.076,5341.29v67.661h-37.139v-34.11H2607.5c0,7.764-.564,19.442-.564,19.442s.436,13.93-10.007,13.93-10.557-13.93-10.557-13.93V5375.12c-1.528-.051-3.029-.075-4.531-.126,0,5.854-.385,19.289-.385,19.289s-1.3,13.93-10.47,13.93-10.284-13.93-10.284-13.93-.372-13.027-.372-19.773h-24.132c-11.2-33.856-23.7-44.98-48.442-43.987-22.375.916-35.766,14.28-42.766,43.07h-14.459c0-23.521-.076-47.066.153-70.64a5.8,5.8,0,0,1,3.258-4.4c1.247-.355,4.582,1.578,4.556,2.47-.2,8.272,5.676,6.8,10.513,6.8,67.865.051,135.73.025,204.537.025.636-1.526,1.1-3.436,2.164-4.888a42.349,42.349,0,0,1,4.633-4.684c1.578,2.036,4.429,4.047,4.48,6.136C2665.28,5316.7,2665.051,5328.994,2665.076,5341.29Z" transform="translate(-2366.252 -5140.75)" fill="#611735"/>
  <path id="Path_1437" data-name="Path 1437" d="M2714.564,5236.39v48.925h-21.713v-44.14h-22.961v43.836h-23.317v-44.294h-22.426v44.241H2600.8v-44.216h-22.859v44.649h-22.859v-44.624h-22.936v44.573h-22.961v-44.573h-22.91v44.624h-22.859v-44.6h-22.91v44.547H2418.26V5236.39Z" transform="translate(-2385.193 -5236.39)" fill="#611735"/>
  <rect id="Rectangle_2018" data-name="Rectangle 2018" width="54.476" height="123.053" transform="translate(307.811 60.686)" fill="#611735"/>
  <rect id="Rectangle_2019" data-name="Rectangle 2019" width="54.042" height="123.079" transform="translate(0 61.094)" fill="#611735"/>
  <path id="Path_1438" data-name="Path 1438" d="M2510.9,5349.915c-.1,19.423-16.572,35.563-35.867,35.13a35.8,35.8,0,0,1-35-34.95c-.306-18.94,16.444-35.919,35.485-36C2494.66,5314.049,2510.977,5330.544,2510.9,5349.915Z" transform="translate(-2351.549 -5116.283)" fill="#611735"/>
  <path id="Path_1439" data-name="Path 1439" d="M2523.061,5279.176c-.025,10.487-10.029,20.263-20.492,19.932-10.055-.279-19.372-9.6-19.626-19.575-.229-10.666,9.139-20.313,19.881-20.441C2513.54,5258.964,2523.086,5268.407,2523.061,5279.176Z" transform="translate(-2285.228 -5201.307)" fill="#611735"/>
  <path id="Path_1440" data-name="Path 1440" d="M2575.645,5301.043c-2.6,1.374-5.193,3.92-7.815,3.944q-41.123.46-82.248,0c-2.571-.051-5.117-2.57-7.662-3.92,2.545-1.832,5.04-5.167,7.662-5.269,13.466-.535,26.983-.255,40.475-.255v.075c13.924,0,27.848-.279,41.747.255C2570.477,5295.977,2573.048,5299.236,2575.645,5301.043Z" transform="translate(-2292.984 -5145.076)" fill="#611735"/>
  <path id="Path_1441" data-name="Path 1441" d="M2535.493,5299.743c-2.75,1.808-5.5,5.116-8.273,5.167-29.58.382-59.16.229-88.739.229-.662-1.323-1.324-2.621-2.011-3.944,2.876-1.884,5.728-5.4,8.629-5.422,29.172-.408,58.319-.255,87.491-.255C2533.558,5296.917,2534.525,5298.342,2535.493,5299.743Z" transform="translate(-2357.048 -5145.049)" fill="#611735"/>
  <path id="Path_1442" data-name="Path 1442" d="M2502.031,5314.462c-.05,1.477-2.24,2.9-3.436,4.379-1.5-1.579-3.793-2.928-4.353-4.785-.764-2.572-.178-5.5-.178-8.3-6.873,6.391-7.051,19.143-20.67,12.244-.611-15.834,11.379-34.187,28.791-41.11C2502.184,5289.922,2502.311,5302.192,2502.031,5314.462Z" transform="translate(-2300.015 -5173.794)" fill="#611735"/>
  <path id="Path_1443" data-name="Path 1443" d="M2526.668,5316.345c-13.364,6.949-14.535-5.447-20.568-15.757-.789,7.993-1.222,12.4-1.68,16.954-8.018-2.674-8.935-8.834-6.517-40.093C2511.675,5279.51,2525.319,5297.917,2526.668,5316.345Z" transform="translate(-2263.914 -5172.928)" fill="#611735"/>
  <rect id="Rectangle_2020" data-name="Rectangle 2020" width="19.601" height="14.204" transform="translate(207.846 104.189)" fill="#611735"/>
</svg>
