<svg xmlns="http://www.w3.org/2000/svg" width="443.634" height="436.906" viewBox="0 0 443.634 436.906">
  <g id="Group_2400" data-name="Group 2400" transform="translate(-4132.227 -3777.998)">
    <path id="Path_1946" data-name="Path 1946" d="M4566.6,4059.16a3.75,3.75,0,0,1-.96-.63V3795.2c1.33-.3,2.46-.5,3.55-.82,4.41-1.28,7.03-4.78,6.63-8.77-.43-4.22-3.85-7.25-8.56-7.55-.99-.06-2-.02-3-.02H4143.28a19.641,19.641,0,0,0-3.99.12c-3.99.85-6.65,3.32-7.02,7.41s1.66,7.04,5.57,8.5c1.5.56,3.08.89,4.46,1.28V4058.9c-1.64.38-2.96.59-4.21.99-3.98,1.31-6.11,4.22-5.82,8.3.29,4.29,2.96,6.93,7.25,7.71a20.261,20.261,0,0,0,3.49.08q98.25.015,196.49.02h5.6c.8,8.2.9,15.09-5.09,22.03-27.41,31.81-54.15,64.19-81.12,96.37-2.04,2.42-4.21,4.75-6.05,7.32a7.788,7.788,0,0,0,.99,10.82,8.167,8.167,0,0,0,11.33.15,32.69,32.69,0,0,0,3.34-3.71q35.355-42.12,70.69-84.25c1.75-2.08,3.54-4.13,5.31-6.19l1.05.45v5.33q0,39.256.01,78.5a25,25,0,0,0,.41,5.95c1.04,4.07,4.04,6.1,8.1,6.1,3.84,0,6.8-1.92,7.87-5.74a24.162,24.162,0,0,0,.56-6.43q.045-38.745.03-77.5c0-1.85.16-3.71.3-6.68,2.07,2.38,3.27,3.73,4.42,5.1q36.48,43.47,72.95,86.92c4.12,4.89,8.97,5.68,13.04,2.32,3.92-3.24,3.86-8.29-.26-13.19-27.95-33.32-55.63-66.87-84.09-99.76-6.43-7.44-6.93-14.8-5.95-23.93h5.98q98,0,195.99,0c6.67,0,10.53-2.75,10.92-7.69C4576.2,4063.6,4573.21,4060.65,4566.6,4059.16Zm-18.51-.09H4160.08V3795.1h388.01Z" fill="#611735"/>
    <path id="Path_1947" data-name="Path 1947" d="M4481.53,4021.56c.01,4.14-1.54,5.56-5.61,5.49q-16.485-.27-32.98.01c-4.31.08-5.86-1.41-5.84-5.79.15-25.15.07-50.3.07-75.45q.015-37.215.01-74.45c0-6.45.18-6.62,6.8-6.63,10.65-.02,21.32.11,31.97-.07,4.05-.06,5.61,1.32,5.61,5.49Q4481.41,3945.865,4481.53,4021.56Z" fill="#611735"/>
    <path id="Path_1948" data-name="Path 1948" d="M4435.72,3823.6c-1.41,13.24-2.83,26.48-4.61,39.68-.28,2.07-2.13,5.09-3.81,5.51-2.01.51-4.94-.81-6.88-2.18-2.39-1.69-4.17-4.25-6.57-6.81-51.8,50.3-112.71,82.25-182.36,97.99,60.17-31.08,117.51-65.95,162.4-120.16-2.93-2.42-6.14-4.43-8.44-7.19-1.48-1.78-2.6-4.94-2.04-6.98.45-1.66,3.55-3.47,5.62-3.67,13.42-1.3,26.88-2.26,40.34-3.13C4433.76,3816.38,4436.2,3819.15,4435.72,3823.6Z" fill="#611735"/>
    <path id="Path_1949" data-name="Path 1949" d="M4411.23,4021.19c.05,4.26-1.19,5.99-5.66,5.89q-16.485-.345-32.99-.01c-4.51.1-5.64-1.68-5.63-5.91q.195-49.74,0-99.49c-.02-4.3,1.2-5.94,5.65-5.84q16.5.36,33-.01c4.52-.11,5.67,1.67,5.63,5.88-.17,16.66-.07,33.33-.07,50C4411.15,3988.2,4411.04,4004.7,4411.23,4021.19Z" fill="#611735"/>
    <path id="Path_1950" data-name="Path 1950" d="M4341.02,4022.1c.02,3.75-1.51,4.97-5.06,4.93-11.31-.11-22.62-.14-33.93.02-3.86.05-5.32-1.29-5.25-5.22.19-10.64.07-21.28.07-31.93h-.02c0-10.47.12-20.95-.06-31.43-.07-3.95,1.51-5.31,5.29-5.28,11.3.12,22.61.09,33.92.04,3.48-.01,5.07,1.24,5.05,5.01Q4340.835,3990.175,4341.02,4022.1Z" fill="#611735"/>
    <path id="Path_1951" data-name="Path 1951" d="M4270.86,4021.91c.04,3.58-1.27,5.17-4.95,5.13-11.49-.1-22.99-.14-34.48,0-3.72.04-5.06-1.47-4.98-5.05.13-6.16.03-12.33.03-18.49-.01-6,.08-11.99-.04-17.99-.07-3.34,1.22-4.88,4.67-4.85q17.49.12,34.98.01c3.32-.01,4.8,1.29,4.77,4.76Q4270.7,4003.67,4270.86,4021.91Z" fill="#611735"/>
  </g>
</svg>
