<svg xmlns="http://www.w3.org/2000/svg" width="424.264" height="126.24" viewBox="0 0 424.264 126.24">
  <g id="Group_1966" data-name="Group 1966" transform="translate(4313.291 -3389.001)">
    <path id="Path_343" data-name="Path 343" d="M-1534.619,3978.919c1.151-4.27-.809-7.654-5.042-8.926a15.077,15.077,0,0,0-4.363-.524q-24.215-.015-48.43-.039a1.583,1.583,0,0,0-1.541,1.017q-16.8,29.154-33.615,58.3c-.185.322-.354.652-.649,1.2h1.344q23.988-.005,47.977-.021a21.855,21.855,0,0,0,3.6-.258,28.877,28.877,0,0,0,16.116-8.525,21.153,21.153,0,0,0,3.16-4.11q10.071-17.3,20.007-34.68A14.643,14.643,0,0,0-1534.619,3978.919Zm-24.024,9.39a5.513,5.513,0,0,1-.562,1.347q-5.975,10.384-11.98,20.75a6.752,6.752,0,0,1-1.116,1.447c-.094.091-.19.179-.289.263a5.77,5.77,0,0,1-3.805,1.367q-2.254.014-4.51.021-2.691.007-5.38.007-3.208,0-6.415-.006h-.06q-3.237-.005-6.474-.007c-.112,0-.224-.026-.519-.063.221-.433.371-.766.553-1.081q7.367-12.776,14.726-25.558a1.585,1.585,0,0,1,1.587-.926c7.161.034,14.322.016,21.483.028l.2,0a5.918,5.918,0,0,1,.788.065,4.015,4.015,0,0,1,.57.13,2.1,2.1,0,0,1,.668.339,1.73,1.73,0,0,1,.155.136A1.735,1.735,0,0,1-1558.642,3988.31Z" transform="translate(-2381.195 -514.748)" fill="#052b05"/>
    <path id="Path_344" data-name="Path 344" d="M-2497.816,3449.649q24.268-.005,48.537-.016a17.836,17.836,0,0,0,2.705-.16,29.417,29.417,0,0,0,16.336-8.352,20.932,20.932,0,0,0,3.51-4.555q9.88-17.147,19.76-34.3a18.408,18.408,0,0,0,1.349-2.979,7.8,7.8,0,0,0,.278-4.675,6.748,6.748,0,0,0-4.733-4.755,15.508,15.508,0,0,0-5.133-.672q-23.928.005-47.857,0h-1.171l-34.875,60.458Zm43.053-44.008h1.064q10.685,0,21.371,0a8.116,8.116,0,0,1,1.128.045,1.864,1.864,0,0,1,1.7,2.5,4.511,4.511,0,0,1-.488,1.136c-4,6.955-8,13.917-12.045,20.845a6.081,6.081,0,0,1-5.561,3.086c-6.143.016-12.288.006-18.431.006h-4.676Z" transform="translate(-1608.889 -0.168)" fill="#052b05"/>
    <path id="Path_345" data-name="Path 345" d="M-3997.55,4021.151a22.378,22.378,0,0,0,2.992-3.956c2.128-3.514,4.162-7.085,6.174-10.667a16.187,16.187,0,0,0,1.424-3.309c1.345-4.567-.8-8.27-5.423-9.344a17.77,17.77,0,0,0-3.92-.416c-9.655-.034-19.308-.018-28.962-.018h-1.556a40.449,40.449,0,0,1,2.6-4.126,8.144,8.144,0,0,1,6.69-3.165c9.238.061,18.478.014,27.718.04a3.907,3.907,0,0,0,2.3-.709q11.109-7.4,22.25-14.745c.337-.223.664-.462,1-.693l-.072-.271h-1.33c-16.668,0-33.337.041-50.005-.042a27.574,27.574,0,0,0-14.316,3.891,26.4,26.4,0,0,0-10.257,10.269c-1.651,3.047-3.469,6.005-5.166,9.029a15.5,15.5,0,0,0-1.444,3.179,10.671,10.671,0,0,0-.466,3.44,6.31,6.31,0,0,0,3.953,5.61,13.086,13.086,0,0,0,5.736,1.047q5.488.01,10.974,0,9.106,0,18.214,0c.424,0,.849.042,1.448.075-.845,1.455-1.595,2.71-2.308,3.984a6.472,6.472,0,0,1-6.115,3.516c-9.691-.027-19.383-.006-29.075-.02a3.222,3.222,0,0,0-1.9.539q-11.344,7.553-22.715,15.066c-.268.178-.521.378-1.006.73.629.033.986.067,1.343.067q25.682,0,51.363-.006a19.951,19.951,0,0,0,3.157-.19A29.255,29.255,0,0,0-3997.55,4021.151Z" transform="translate(-215.662 -515.014)" fill="#052b05"/>
    <path id="Path_346" data-name="Path 346" d="M-4273.614,3413.686l.252.051,6.377,35.689c.44.021.774.053,1.108.053,5.621,0,11.24-.016,16.86.021a1.583,1.583,0,0,0,1.574-.955q16.827-29.205,33.688-58.388c.182-.315.335-.644.588-1.134h-1.372c-5.393,0-10.787.026-16.18-.022a1.986,1.986,0,0,0-2.037,1.145q-10.18,17.76-20.443,35.473c-.2.347-.423.681-.788,1.266-2.286-12.783-4.522-25.289-6.761-37.815h-17.672l-34.873,60.411h1.455c5.431,0,10.863-.021,16.293.021a1.837,1.837,0,0,0,1.858-1.062q9.687-16.871,19.438-33.7C-4274.042,3414.382-4273.826,3414.036-4273.614,3413.686Z" transform="translate(0 0)" fill="#052b05"/>
    <path id="Path_347" data-name="Path 347" d="M-2760.344,4013.613a1.551,1.551,0,0,0-.222-.054l-44.687-.035a1.152,1.152,0,0,1-.222-.032.187.187,0,0,1-.1-.045c-.023-.026-.025-.071-.058-.175.091-.184.2-.421.323-.645,1.123-1.963,2.272-3.912,3.36-5.894a1.469,1.469,0,0,1,1.5-.886c4.186.043,8.371.007,12.559.031a3.353,3.353,0,0,0,2-.579q8.467-5.654,16.962-11.26c.3-.2.6-.426.893-.639-.031-.085-.06-.169-.089-.253h-25.952l4.189-7.229h1.461q15.443,0,30.887.016a3.573,3.573,0,0,0,2.094-.646q11.252-7.488,22.53-14.937c.3-.2.6-.424.893-.638l-.034-.227h-1.187q-32.527,0-65.054-.021a1.92,1.92,0,0,0-1.947,1.111q-7.124,12.471-14.333,24.893-9.6,16.655-19.205,33.309c-.195.338-.367.689-.636,1.2h1.557l52.156-.011c3.395,0,6.789-.016,10.182.015a1.336,1.336,0,0,0,1.34-.778c2.823-4.941,5.678-9.866,8.517-14.8A6.452,6.452,0,0,0-2760.344,4013.613Z" transform="translate(-1311.522 -514.778)" fill="#052b05"/>
    <path id="Path_348" data-name="Path 348" d="M-2155.376,4013.5h-45.488c.2-.409.307-.677.45-.927,1.12-1.965,2.279-3.909,3.354-5.9a1.463,1.463,0,0,1,1.521-.845c4.224.033,8.448.013,12.672.02a2.666,2.666,0,0,0,1.6-.407q8.748-5.841,17.527-11.637a9.3,9.3,0,0,0,.741-.647h-18.78c-1.208,0-2.414.009-3.621,0s-2.427.051-3.792-.051c1.463-2.527,2.819-4.867,4.175-7.207h1.435q15.5,0,31,.01a3.229,3.229,0,0,0,1.892-.558q11.3-7.519,22.621-15c.308-.2.6-.427.9-.64a2.618,2.618,0,0,0-1.225-.239q-32.526,0-65.056-.025a1.93,1.93,0,0,0-1.936,1.13q-10.385,18.1-20.831,36.16-6.328,10.972-12.649,21.948c-.209.362-.581.693-.452,1.273h1.262q10.183-.005,20.366-.01,20.874,0,41.749.021a1.749,1.749,0,0,0,1.77-1.026c2.714-4.789,5.481-9.544,8.228-14.314C-2155.763,4014.312-2155.616,4013.979-2155.376,4013.5Z" transform="translate(-1848.128 -514.76)" fill="#052b05"/>
    <path id="Path_349" data-name="Path 349" d="M-3640.612,3449.786c3.112-5.4,6.21-10.773,9.418-16.339h-36.494c-1.509,0-3.017.01-4.525,0-1.478-.012-2.96.06-4.55-.051.239-.457.384-.76.55-1.05,1.066-1.866,2.17-3.712,3.189-5.6a1.627,1.627,0,0,1,1.672-.979c4.223.042,8.447.011,12.671.029a2.682,2.682,0,0,0,1.58-.469q8.662-5.768,17.342-11.508c.234-.155.445-.344.667-.517-.016-.065-.033-.132-.05-.2h-17.252c-1.434,0-2.867.006-4.3,0-1.4-.008-2.812.039-4.352-.038.265-.5.431-.827.615-1.149.958-1.667,1.97-3.3,2.861-5.006a1.868,1.868,0,0,1,1.954-1.1c10.372.038,20.743.023,31.115.029a2.865,2.865,0,0,0,1.708-.422q11.631-7.737,23.284-15.442a5.118,5.118,0,0,0,.591-.568h-67.694q-17.367,30.1-34.828,60.383Z" transform="translate(-539.066 -0.357)" fill="#052b05"/>
    <path id="Path_350" data-name="Path 350" d="M-3101.175,3448.334c-.184.318-.349.646-.606,1.126.5.023.8.048,1.093.048q31.346,0,62.689.011a1.493,1.493,0,0,0,1.5-.889c2.779-4.882,5.6-9.74,8.4-14.608.143-.249.244-.522.436-.939h-45.544c1.522-2.656,2.937-5.126,4.37-7.63h1.283c4.15,0,8.3-.007,12.448.007a2.69,2.69,0,0,0,1.588-.442q8.71-5.8,17.438-11.572c.227-.151.42-.352.83-.7h-26.233l4.182-7.242h1.456q15.5,0,31.006.008a2.876,2.876,0,0,0,1.7-.451q11.537-7.674,23.095-15.322c.224-.148.415-.346.813-.685h-1.266q-32.7,0-65.406-.019a1.681,1.681,0,0,0-1.668.992Q-3084.355,3419.192-3101.175,3448.334Z" transform="translate(-1074.416 -0.029)" fill="#052b05"/>
    <path id="Path_351" data-name="Path 351" d="M-3355.161,3999.688q4.9-8.467,9.783-16.94a13.067,13.067,0,0,0,1.562-4.1,6.734,6.734,0,0,0-4.367-7.969,12.907,12.907,0,0,0-4.767-.783q-24.378-.008-48.757-.036a1.5,1.5,0,0,0-1.512.867c-3.4,5.956-6.846,11.889-10.277,17.829q-11.707,20.269-23.413,40.536c-.215.372-.4.759-.661,1.24h18.913q5.145-8.887,10.3-17.786h1.32q14.536,0,29.073-.006a20.063,20.063,0,0,0,2.819-.15,29.522,29.522,0,0,0,16.49-8.282A19.948,19.948,0,0,0-3355.161,3999.688Zm-12.773-11.375c0,.05-.008.1-.015.151a2.465,2.465,0,0,1-.064.31c-.029.107-.063.214-.1.319s-.081.21-.127.313c-.02.045-.041.09-.062.135-.075.16-.158.316-.243.47-.528.956-1.089,1.893-1.634,2.841-.034.059-.068.116-.1.173a7.016,7.016,0,0,1-.494.714c-.035.046-.071.092-.108.137l-.022.027-.058.068c-.028.034-.057.066-.086.1l-.077.085c-.026.028-.052.058-.081.085l-.081.084a5.806,5.806,0,0,1-.511.459c-.021.018-.044.035-.067.052s-.07.055-.105.08a.144.144,0,0,1-.026.02.267.267,0,0,1-.035.025c-.026.02-.053.04-.081.058l-.02.014c-.028.02-.056.04-.085.058s-.058.038-.086.056-.051.033-.077.047c-.053.034-.108.066-.162.1s-.092.052-.138.077-.119.062-.179.091-.091.045-.137.066l-.112.051q-.158.07-.322.13l-.109.039c-.029.011-.059.02-.088.03-.11.037-.222.072-.335.1l-.076.02c-.025.007-.051.014-.077.019-.047.013-.1.024-.145.035-.123.028-.249.053-.376.075-.142.024-.286.044-.432.061-.073.008-.145.016-.218.021h0c-.048,0-.1.009-.145.011h-.007l-.13.008-.171.008c-.093,0-.186.006-.279.007-.112,0-.223,0-.335,0q-.377.005-.752,0c-.374,0-.747-.007-1.12-.007h-20.582c.032-.062.061-.121.088-.177l.117-.236.094-.189c.039-.082.077-.157.114-.229l.067-.125.007-.013c.019-.037.039-.073.06-.108,1.516-2.647,3.063-5.278,4.541-7.946a2.4,2.4,0,0,1,.158-.252c.014-.018.027-.036.042-.054a.629.629,0,0,1,.042-.051c.019-.024.039-.046.06-.067a.8.8,0,0,1,.061-.061.01.01,0,0,1,0,0c.019-.017.038-.034.058-.05h0c.021-.018.043-.034.064-.05a1.158,1.158,0,0,1,.21-.119c.02-.009.041-.018.062-.026a.1.1,0,0,1,.028-.01c.04-.015.081-.027.122-.039h.006c.045-.011.09-.021.138-.029s.068-.01.1-.015l.03,0,.1-.008.086,0c.047,0,.095,0,.145,0,7.122.026,14.245.012,21.366.023a5.635,5.635,0,0,1,1.558.193c.038.011.075.022.111.035l.012,0c.029.01.057.021.084.032s.059.023.087.036a2.01,2.01,0,0,1,.3.162c.028.018.056.037.084.058a1.665,1.665,0,0,1,.179.151l.052.052q.049.051.092.105c.012.015.024.029.034.044s.031.045.046.067a.972.972,0,0,1,.065.1c.013.024.026.047.037.073a1.4,1.4,0,0,1,.078.19q.022.066.038.134c.006.023.012.046.015.069.01.047.017.094.023.142a1.926,1.926,0,0,1,.011.293A.546.546,0,0,1-3367.934,3988.313Z" transform="translate(-776.625 -515.13)" fill="#052b05"/>
    <path id="Path_352" data-name="Path 352" d="M-1798.64,3635.814h11.559q4.162-7.211,8.368-14.5h1.279c2.866,0,5.733-.015,8.6.011a2.986,2.986,0,0,0,1.791-.526c3.193-2.142,6.408-4.253,9.614-6.379.274-.182.535-.385.8-.577-.022-.088-.046-.177-.069-.266h-17.528c.7-1.236,1.358-2.284,1.91-3.382a1.682,1.682,0,0,1,1.759-1.045c6.6.045,13.2.014,19.8.039a3.857,3.857,0,0,0,2.312-.681c3.277-2.222,6.588-4.393,9.89-6.578.3-.2.612-.369.919-.552a4.591,4.591,0,0,1-.578,1.374q-7.2,12.491-14.408,24.982a8.633,8.633,0,0,0-1.186,3.033,3.92,3.92,0,0,0,2.611,4.584,9.152,9.152,0,0,0,2.979.508c6.675.043,13.355.157,20.027-.019a15.808,15.808,0,0,0,13.691-7.923c4.129-6.8,8-13.75,11.959-20.649a9.884,9.884,0,0,0,.979-2.275,4.1,4.1,0,0,0-3.061-5.411,11.58,11.58,0,0,0-3.015-.356q-34.4-.026-68.8-.03a1.757,1.757,0,0,0-1.763,1.034q-9.886,17.212-19.822,34.394C-1798.218,3634.977-1798.392,3635.34-1798.64,3635.814Zm71.561-26.648c2.979.056,5.957.007,8.936.016,2.074.008,2.53.788,1.5,2.579-2.306,4.02-4.63,8.031-6.936,12.054a3.868,3.868,0,0,1-3.6,2.114c-1.187-.007-2.375,0-3.563,0h-1.526c-.5,0-1.006,0-1.509,0-1.155,0-2.312,0-3.468-.005-1.724-.015-2.211-.85-1.426-2.4.068-.135.144-.265.219-.4q3.19-5.535,6.378-11.069A5.269,5.269,0,0,1-1727.079,3609.166Z" transform="translate(-2230.095 -186.413)" fill="#052b05"/>
    <path id="Path_353" data-name="Path 353" d="M-1004.405,3599.582a11.945,11.945,0,0,0-3.234-.4c-9.052-.03-18.1,0-27.155-.038a1.84,1.84,0,0,0-1.858,1.06q-9.909,17.262-19.882,34.489c-.182.316-.34.646-.566,1.079h11.444q1.518-2.627,3.045-5.273c1.037-1.792,2.076-3.583,3.086-5.328,2.731-.232,14.248-.125,15.1.153l-5.978,10.347c.2.094.27.151.336.151,3.508.01,7.015.01,10.522.027a.923.923,0,0,0,.89-.549c1.99-3.508,4-7.007,5.989-10.513a6.877,6.877,0,0,0,.5-1.14c.621-1.781.151-2.707-1.641-3.265-.244-.076-.487-.163-.729-.246a11.329,11.329,0,0,0,7.147-4.742c.42-.579.836-1.166,1.2-1.781,1.323-2.24,2.645-4.481,3.915-6.75a8.55,8.55,0,0,0,.814-2.1A4.023,4.023,0,0,0-1004.405,3599.582Zm-12.182,12.162c-.313.468-.567.976-.855,1.462a3.53,3.53,0,0,1-3.042,1.881c-4.327.06-8.655.022-13.239.022.825-1.431,1.527-2.668,2.249-3.893.127-.214.242-.452.36-.685.059-.118.119-.235.181-.347.02-.039.041-.076.062-.112.064-.112.132-.219.2-.319.02-.029.042-.057.063-.084.008-.01.016-.019.024-.028a.787.787,0,0,1,.059-.069c.026-.03.052-.058.079-.084s.066-.061.1-.089a1.292,1.292,0,0,1,.162-.112,5.076,5.076,0,0,1,2.314-.156c2.6-.008,5.208.024,7.812,0q.954-.008,1.908-.027a4.569,4.569,0,0,1,.654.029l.072.009c.017,0,.035,0,.052.008a2.63,2.63,0,0,1,.543.138l.074.031c.037.016.074.033.108.051s.057.031.083.046l.066.042a1.113,1.113,0,0,1,.207.179l.026.03a.287.287,0,0,1,.02.025l.027.035c.016.023.031.045.044.069s.026.046.037.07a.017.017,0,0,0,0,.007.71.71,0,0,1,.03.071l0,.01a.816.816,0,0,1,.024.078.021.021,0,0,1,0,.009c.007.026.012.052.017.079a.091.091,0,0,1,0,.017.313.313,0,0,1,.008.057c0,.015,0,.028,0,.043A2.555,2.555,0,0,1-1016.587,3611.744Z" transform="translate(-2887.722 -186.36)" fill="#052b05"/>
    <path id="Path_354" data-name="Path 354" d="M-886.819,4430.74c-1.259,1.5-2.685,2.854-4.048,4.264a6.289,6.289,0,0,1-.671.512c.366-2.039.7-3.88,1.044-5.82-.406-.032-.734-.037-1.056-.086a1.551,1.551,0,0,0-1.78.985c-1.178,2.19-2.458,4.323-3.69,6.483-.158.277-.279.576-.422.875a1.371,1.371,0,0,0,1.9-.822c.5-1.01,1.11-1.967,1.676-2.947.466-.8.939-1.607,1.409-2.411l.2.068c-.373,2.033-.748,4.065-1.117,6.069a1.167,1.167,0,0,0,1.5-.388q2.371-2.5,4.77-4.983c.185-.191.4-.348.608-.521l.154.131-3.321,5.846h1.471c1.548-2.711,3.165-5.435,4.716-8.245A2.932,2.932,0,0,0-886.819,4430.74Z" transform="translate(-3029.315 -922.828)" fill="#052b05"/>
    <path id="Path_355" data-name="Path 355" d="M-947.668,4431.07c1.053.1,1.061.014,1.427-1.143-.266-.024-.521-.066-.775-.066q-2.88-.009-5.761,0c-.975,0-.975.013-1.473,1.282h3.413c-1.738,2.446-3.359,4.722-5,7.037a1.563,1.563,0,0,0,2.029-.723c1.155-1.717,2.459-3.337,3.568-5.081A2.448,2.448,0,0,1-947.668,4431.07Z" transform="translate(-2977.523 -923.073)" fill="#052b05"/>
  </g>
</svg>
