<svg xmlns="http://www.w3.org/2000/svg" width="176.327" height="292.814" viewBox="0 0 176.327 292.814">
  <g id="Group_2236" data-name="Group 2236" transform="translate(-7857.41 -6183.43)">
    <path id="Path_1214" data-name="Path 1214" d="M8027.522,6244.471a2.346,2.346,0,0,1,2.359-1.608,19.023,19.023,0,0,0,3.745-1.005c.032-.237.071-.483.111-.721-1.172-.9-2.352-1.8-3.762-2.882,1.64-.546,2.638-.887,3.675-1.235-.183-.356-.214-.5-.3-.57a1.011,1.011,0,0,0-.507-.277c-1.79-.206-3.2-.657-3.523-2.882-.182-1.18-1.235-1.362-2.248-.412a14.428,14.428,0,0,1-2.146,1.338c.261-1.5.4-2.281.547-3.064-.183-.111-.365-.222-.547-.34-1.2,1.005-2.392,2.011-3.776,3.167-.334-.776-.595-1.425-.888-2.059-1.108-2.383-2.091-4.838-3.373-7.125-1.425-2.558-3.175-4.363-6.611-4.783-6.279-.76-12.725-1.5-18.054-5.591-.9-.688-1.686-.562-2.257.76-2.85,6.58-5.858,13.1-8.732,19.669-1.742,3.983-1.671,3.975-5.987,3.689-1.773-.119-3.555-.047-5.337-.055-.633-.008-1.267,0-2.446,0,.775-4.442,1.5-8.543,2.249-12.828,2.066,1.093,2.922-.253,3.982-1,1.188-.832,2.122-1.5,2.938.585a3.96,3.96,0,0,0,2.684,1.98,3.133,3.133,0,0,0,2.376-1.576c1.037-2,1.639-4.166-.317-6.185-.791.143-1.631.293-2.462.444-.064-.167-.127-.333-.2-.5,1.679-.981,3.412-1.892,5.027-2.977a30.027,30.027,0,0,0,5.479-4.109c3.483-3.769,4.624-8.773,6.311-13.445a5.316,5.316,0,0,0,.023-3.127c-1.9-6.366-7.917-11.75-14.727-12.257a20.633,20.633,0,0,0-11.062,2.352c-1.3.665-4.157.253-2.273,3.2.025.04-.016.127-.031.19-.729,2-1.465,3.991-2.241,6.129,1.521,1.4.982,2.866-.276,4.339a8.044,8.044,0,0,0-1.339,1.94,1.747,1.747,0,0,0,.063,1.561c1.774,1.647,1.307,4.062,2.123,6.033.506,1.243.015,2.945-.19,4.418a2.6,2.6,0,0,0,2.463,3.1c.917.008,1.837-.316,2.739-.245.491.039,1.307.554,1.322.895.032.467-.523,1-.879,1.457-.324.4-.776.7-1.077,1.1-.42.562-.634,1.543-1.164,1.734a115.628,115.628,0,0,1-12.106,4.031c-2,.483-3.223,1.061-3.682,3.1-.508,2.225-1.164,4.411-1.86,7-2.479-1.005-4.839-1.805-7.056-2.89a13.614,13.614,0,0,0-10.143-.9,17.434,17.434,0,0,1-5.638.475c-2.139-.119-2.9-1.259-2.985-3.381a18,18,0,0,0-.49-3.492c-.792-3.334-.516-3.746,2.413-5.44a6.123,6.123,0,0,0,2.344-2.978c.215-.562-.719-1.567-1.123-2.375-.167-.34-.31-.7-.452-1.053-.585-1.489-1.164-2.977-1.987-5.083.42-1.726.388-1.631-2.082-2.4a6.356,6.356,0,0,1-4.2-3.151,9.14,9.14,0,0,0-9.471-4.878c-5.519.673-10.5,3.048-13.928,7.791-3.342,4.632-4.72,11.767-.4,16.676a10.878,10.878,0,0,1,1.116,2.3c-1.646,0-2.9-.009-4.149,0-2.042.007-2.549,1.053-1.583,2.938.521,1.013.712,2.193,1.211,3.222a3.148,3.148,0,0,0,1.33,1.322,7.587,7.587,0,0,0,2.321.15c-2.1,2.534-3.865,4.656-5.631,6.778.087.166.175.332.253.5,2.249-.436,4.5-.863,6.454-1.243a49.261,49.261,0,0,0-.444,6.548c.229,4.395,3.461,7.182,7.863,7.206a9.108,9.108,0,0,0,7.34-3.595c1.188,3.951,2.313,7.736,3.444,11.521.183-.056.356-.1.539-.158l.048-.641c.182-.048.371-.1.562-.15.443,1.741.895,3.476,1.346,5.25.831-.364,1.394-.618,1.869-.824.262,1.267.482,2.352.792,3.9-.666-1.132-1.109-1.876-1.545-2.621-.149.1-.292.2-.443.293,1.846,4.608,5.845,7.815,8.2,12.083-2.043,1.093-2.043,1.093-.206,3.785a6.132,6.132,0,0,0,.308,2.613,5.306,5.306,0,0,0,1.466,2.486c1.663,1.117,2.62,2.3,2.019,4.411-.078.293.452,1.045.824,1.156,1.488.411,1.361,1.354.989,2.447-.388,1.188-.823,2.359-1.171,3.555-1.387,4.711-3.041,9.375-4.056,14.174-1.527,7.229,3.358,12.993,5.036,19.5.429,1.624.9,3.247,1.188,4.894.2,1.164-.024,2.391.166,3.555,1.069,6.35,2.359,12.669,3.255,19.042a18.142,18.142,0,0,1-.246,7.982c-1.219,3.634-3.333,6.984-5.162,10.4-1.37,2.549-2.945,4.988-4.332,7.53-6.207,11.394-10.491,23.541-14.244,35.909a8.809,8.809,0,0,1-2.066,3.468c-3.437,3.547-7.222,6.778-10.5,10.46-6.24,7.007-13.066,13.271-21.388,17.665-8.171,4.308-14.006,11.458-21.528,17.024a15.906,15.906,0,0,0,2.66.9c4.094.579,8.2,1.149,12.3,1.584,4.837.515,9.968.063,14.5,1.513,11.394,3.634,22.7,3.1,34.158,1.077,5.5-.974,10.99-2.732,16.5-2.8,8.061-.118,16.161.808,24.222,1.568,9.85.919,19.573,1.014,29.084-2.359a17.688,17.688,0,0,1,11.956-.412,16.255,16.255,0,0,0,10.491-.15c.546-.182,1.465-.831,1.409-1.021-.578-1.932,1-2.344,2.051-3.1,3.128-2.265,5-5.052,3.872-9.122-.515-1.893-1.062-3.793-1.536-5.7a8.489,8.489,0,0,1-.38-2.494c.411-7.5,1.155-15,1.267-22.5.079-5.717-.5-11.45-.981-17.166-.364-4.181-1.141-8.322-1.576-12.5-.721-6.952-1.124-13.928-6.247-19.55a5.621,5.621,0,0,1-.974-4.743,4.915,4.915,0,0,0-.918-5.281,9.738,9.738,0,0,1-2.123-6.6q-.142-14.537-.491-29.083a1.727,1.727,0,0,1,1.37-2c1.623-.539,3.23-1.125,4.814-1.774a2.07,2.07,0,0,0,1.457-2.763c-.459-1.647-.6-3.381-1.061-5.021q-5.073-17.934-10.224-35.837a15.2,15.2,0,0,1-.11-8.932c1.069-3.46,1.98-6.96,3.1-10.4.935-2.874,2.06-5.686,3.1-8.528.253-.016.506-.032.76-.056,1.22,3.017,2.826,5.939,3.531,9.066.547,2.455,1.568,3.967,3.8,4.751,1.8.625,3.635,1.14,5.455,1.71a4.369,4.369,0,0,0,5.891-3.009c.595-1.948.991-3.951,1.554-5.907,1.061-3.642.1-6.612-2.5-9.375-1.141-1.211-1.591-3.1-2.225-4.735-.151-.4.167-1.061.42-1.513C8026.327,6246.339,8027.087,6245.476,8027.522,6244.471Zm-111.835-17.444c-.38-.333-1.037-.633-1.085-1.014a13.721,13.721,0,0,1,.166-2.652l.539-.143a12.552,12.552,0,0,1,1.029,2.415C7916.416,6226.037,7915.917,6226.56,7915.687,6227.027Zm42.592,66.67c-.246.031-.491.071-.737.1a45.426,45.426,0,0,1-1.417-5.582c-.451-3.452-.585-6.944-.957-10.412-.31-2.851,1.385-4.735,3.111-7.174Zm47.983,162.139c.087,1.552.016,3.1.016,4.647-.166.024-.34.04-.514.064-.595-1.98-1.188-3.959-1.813-6.05C8005.328,6454.046,8006.183,6454.379,8006.262,6455.836Zm-33.676-195.728c-.427,1.37-.641,2.819-1.124,4.165a2.533,2.533,0,0,1-1.322,1.512c-.974.262-2.012.048-2.186-1.306-.246-1.821-.634-3.642-.7-5.472-.119-3.024-.032-6.057-.032-9.311h8.693C7974.781,6253.244,7973.656,6256.664,7972.586,6260.108Zm27.333,180q-7.6-22.935-13.484-46.368c-1.939-7.7-4.829-15.147-7.205-22.741a60.025,60.025,0,0,1-1.885-7.617,18.261,18.261,0,0,1,.119-4.5c.476-5.55,1-11.093,1.5-16.644.285-.016.578-.023.863-.039.918,4.283,1.82,8.575,2.748,12.859,1.433,6.6,2.786,13.231,4.394,19.795a23.7,23.7,0,0,0,2.748,6.532c2.74,4.545,3.39,9.628,4.292,14.665,1.655,9.248,3.444,18.481,4.877,27.761a142.089,142.089,0,0,1,1.314,16.794A2.92,2.92,0,0,1,7999.919,6440.11Zm17.024-176.423c-2.2-1.433-1.584-3.278-1.014-5.305.57.42,1.046.776,1.9,1.41,1.71-2.526,3.381-4.973,4.988-7.34C8024.292,6254.74,8021.322,6260.663,8016.944,6263.688Z" transform="translate(0)" fill="#432a00"/>
  </g>
</svg>
