<svg xmlns="http://www.w3.org/2000/svg" width="292.523" height="280.764" viewBox="0 0 292.523 280.764">
  <g id="Group_2421" data-name="Group 2421" transform="translate(-7409.067 -2103.896)">
    <path id="Path_1969" data-name="Path 1969" d="M7468.425,2852.305h84.384v-2.736c0-4.389,0-4.389,4.219-4.956v-30.262c-.283-.031-.465-.062-.646-.065-3-.091-3.572-.691-3.572-3.742v-3.938h-1.919c-2.438,0-3.008-.437-3.7-2.8s-1.381-4.695-2.089-7.037c-1.4-4.632-1.4-4.616,2.554-7.32,2.473-1.69,4.908-3.431,7.629-5.336h-86.858Zm29.451-8.917a2.368,2.368,0,0,1-2.62,2.637q-9.062.034-18.121.011c-1.948-.006-2.821-.941-2.827-2.909q-.013-8.85,0-17.7c0-2.047.891-2.948,2.9-2.954,2.974-.009,5.948,0,8.922,0s5.945-.006,8.919.006c2.021.008,2.818.768,2.824,2.8Q7497.907,2834.336,7497.876,2843.389Zm38.476,0a2.5,2.5,0,0,1-2.7,2.634c-3.07.025-6.144.005-9.214.005-2.929,0-5.857.006-8.785,0-2,0-2.881-.845-2.887-2.807q-.025-9.071-.012-18.142a2.377,2.377,0,0,1,2.648-2.625q9.144-.012,18.284.028a2.41,2.41,0,0,1,2.647,2.625Q7536.379,2834.251,7536.352,2843.392Zm-23.589-48.333c0-3.992.341-4.329,4.344-4.335q8-.012,16.007-.022c2.342,0,3.24.91,3.24,3.257q0,8.642,0,17.283c0,2.189-.881,3.067-3.09,3.076q-1.756.008-3.513.005l-5.271,0c-1.618,0-3.237,0-4.854,0-1.358,0-2.713,0-4.068-.009-1.868-.008-2.767-.734-2.79-2.6C7512.706,2806.161,7512.757,2800.61,7512.763,2795.059Zm-38.449-1.7a2.418,2.418,0,0,1,2.537-2.608q9.271-.047,18.545-.006c1.649.008,2.488,1,2.494,2.77.015,3.02.006,6.039.006,9.061h-.012c0,2.972.01,5.942,0,8.917-.011,1.97-.854,2.82-2.849,2.826q-8.991.022-17.98,0a2.466,2.466,0,0,1-2.738-2.693Q7474.283,2802.488,7474.313,2793.354Z" transform="translate(-42.529 -487.37)" fill="#1e2639"/>
    <path id="Path_1970" data-name="Path 1970" d="M8157.781,2852.205V2784h-86.7c.538.417.855.677,1.19.916,2.8,2,5.583,4.043,8.427,5.988a2.633,2.633,0,0,1,1.159,3.181q-1.528,5.3-3.176,10.558a2.514,2.514,0,0,1-2.665,1.891c-.836-.014-1.675,0-2.65,0v4.2c0,2.637-.737,3.4-3.32,3.47a7.047,7.047,0,0,0-.875.116v30.2c.364.02.6.04.836.045,2.557.048,3.359.865,3.362,3.439,0,1.364,0,2.725,0,4.2Zm-44.345-9.067c-.009,1.939-.95,2.8-2.915,2.806q-8.845.008-17.69,0c-2.1,0-3-.9-3-3.025q-.007-8.773.006-17.549c0-2.129.864-2.977,3-2.982,2.925-.009,5.849,0,8.771,0v.006c3.02,0,6.039-.009,9.058,0,1.871.009,2.771.868,2.775,2.768Q8113.479,2834.151,8113.436,2843.138Zm14.779-49.53c.006-2.027.941-2.963,2.934-2.969q8.851-.016,17.7,0c2.072.006,3.051.964,3.057,3.011q.021,8.782,0,17.561c-.006,2.09-.946,3.011-3.028,3.019-2.971.011-5.945,0-8.919,0-2.929,0-5.854.011-8.78-.005-2.019-.011-2.966-.919-2.972-2.917Q8128.182,2802.457,8128.215,2793.609Zm.006,31.521c.014-1.868.97-2.733,2.841-2.741,3.022-.014,6.041,0,9.061,0,2.926,0,5.852-.006,8.777,0,2.035.005,3,.893,3.006,2.88q.029,8.923-.006,17.839c-.009,1.9-1.006,2.832-2.923,2.835q-8.918.017-17.836,0c-1.908,0-2.917-.938-2.929-2.838Q8128.166,2834.118,8128.221,2825.129Zm-38.388-31.756a2.464,2.464,0,0,1,2.705-2.727q9-.025,18,0c1.976.005,2.884.879,2.9,2.846.041,4.335.021,8.673.032,13.007.006,1.412-.014,2.824.06,4.23.124,2.39-.888,3.507-3.258,3.5q-2.125,0-4.25,0h-4.253q-1.334,0-2.667.005c-2.136,0-4.271.006-6.4-.008-1.957-.011-2.864-.91-2.87-2.855Q8089.817,2802.372,8089.833,2793.374Z" transform="translate(-472.954 -487.284)" fill="#1e2639"/>
    <path id="Path_1971" data-name="Path 1971" d="M7859.412,2478.2h-86.037v33.174h86.037Zm-74.209,25.476c0,.25.006.5,0,.746,0,.082-.008.164-.014.247a3.8,3.8,0,0,1-.08.558,2.933,2.933,0,0,1-.155.5,2.963,2.963,0,0,1-.224.431,2.285,2.285,0,0,1-.29.366,1.38,1.38,0,0,1-.139.131l-.006.006c-.03.026-.068.054-.1.079,0,.006,0,.006-.008.006a.144.144,0,0,1-.037.028.048.048,0,0,1-.02.014h0a.372.372,0,0,1-.068.045.7.7,0,0,1-.116.071.66.66,0,0,1-.07.04,2.257,2.257,0,0,1-.593.207c-.039.009-.079.017-.119.023a.011.011,0,0,1-.006,0,.431.431,0,0,1-.085.011h0a1.628,1.628,0,0,1-.162.017.52.52,0,0,1-.095.006.3.3,0,0,1-.049,0h0a.364.364,0,0,0,.049,0c-.035,0-.069,0-.1,0-.076,0-.152,0-.228-.008h0c-.034,0-.066-.006-.1-.009-.069-.008-.14-.015-.207-.028.055.011.113.017.171.024l-.05,0-.121-.02a1.631,1.631,0,0,1-.238-.057l-.113-.034c-.073-.025-.147-.054-.219-.085s-.116-.057-.173-.088a.529.529,0,0,1-.051-.028c-.028-.017-.061-.034-.088-.054a1.709,1.709,0,0,1-.189-.136c-.046-.037-.092-.077-.137-.119a1.247,1.247,0,0,1-.119-.119,1.26,1.26,0,0,1-.11-.127c-.025-.031-.051-.065-.074-.1a.669.669,0,0,1-.067-.1.841.841,0,0,1-.076-.127c-.026-.045-.049-.091-.071-.136-.033-.074-.065-.15-.093-.23a1.963,1.963,0,0,1-.074-.244,2.388,2.388,0,0,1-.049-.258c-.011-.065-.017-.133-.022-.2s-.008-.139-.008-.21q-.048-9-.025-18,0-2.765.014-5.525a1.192,1.192,0,0,1,0-.134.666.666,0,0,1,.012-.133.923.923,0,0,1,.018-.13,1.008,1.008,0,0,1,.022-.131c.014-.071.031-.139.051-.207.015-.04.025-.083.04-.122a1.145,1.145,0,0,1,.045-.119,1.571,1.571,0,0,1,.067-.153c.038-.079.08-.156.125-.23.032-.051.063-.1.1-.147a1.82,1.82,0,0,1,.131-.173,2.02,2.02,0,0,1,.144-.161,2.785,2.785,0,0,1,.369-.315c.068-.045.137-.091.2-.127s.143-.077.216-.111a.956.956,0,0,1,.11-.045.543.543,0,0,1,.073-.028.187.187,0,0,1,.052-.017.173.173,0,0,1,.051-.017l.089-.026c.064-.017.126-.031.192-.043a.6.6,0,0,1,.07-.011,1.216,1.216,0,0,1,.147-.017,1.3,1.3,0,0,1,.147-.008h.034c.046,0,.094,0,.139.006a.728.728,0,0,1,.113.009c.037.006.077.008.116.017a1.947,1.947,0,0,1,.213.045,1.091,1.091,0,0,1,.142.042.628.628,0,0,1,.113.04,1.5,1.5,0,0,1,.177.079.643.643,0,0,1,.073.037c.063.031.122.068.182.1s.1.068.145.1.1.077.146.119a.762.762,0,0,1,.06.054c.04.037.08.077.119.119.057.06.111.122.162.188.02.025.04.051.057.076s.036.054.054.079a1.4,1.4,0,0,1,.1.161c.035.06.066.122.1.184s.051.111.073.167c.014.04.031.082.045.125a2.628,2.628,0,0,1,.077.255,1.864,1.864,0,0,1,.036.184.08.08,0,0,1,.006.028,1.918,1.918,0,0,1,.025.2,2.278,2.278,0,0,1,.018.284c.037,3.706.017,7.411.017,11.116,0,.215,0,.431,0,.647Q7785.2,2498.357,7785.2,2503.671Zm13.43.814c0,.054,0,.108,0,.162,0,.1-.014.207-.024.309-.007.048-.012.1-.021.147a1.316,1.316,0,0,1-.025.142.637.637,0,0,1-.017.079c-.006.031-.015.057-.021.085-.012.048-.025.1-.039.142s-.029.094-.046.138c-.022.066-.048.125-.073.184a2.163,2.163,0,0,1-.187.343c-.034.051-.071.1-.1.147s-.076.094-.117.136a.511.511,0,0,1-.062.062.662.662,0,0,1-.065.063c-.042.04-.085.076-.13.113a2.366,2.366,0,0,1-.2.133c-.065.04-.136.076-.207.111s-.131.054-.2.079-.134.042-.2.062c-.042.011-.082.02-.125.029a1.369,1.369,0,0,1-.141.026c-.095.014-.188.022-.284.028-.026,0-.048,0-.074,0-.065,0-.133,0-.2,0a2.661,2.661,0,0,1-.267-.02,2.2,2.2,0,0,1-.255-.043.944.944,0,0,1-.133-.034.044.044,0,0,1-.028-.009.868.868,0,0,1-.1-.028.118.118,0,0,1-.015,0,1.336,1.336,0,0,1-.161-.062c-.018-.006-.035-.014-.049-.02-.048-.022-.093-.045-.139-.071l-.076-.042a1.21,1.21,0,0,1-.147-.1c-.02-.014-.04-.029-.06-.046a.015.015,0,0,1-.012-.008,1.1,1.1,0,0,1-.13-.108,1.533,1.533,0,0,1-.131-.13s-.006,0,0-.006a.548.548,0,0,1-.049-.054.006.006,0,0,1-.006-.006,1.634,1.634,0,0,1-.124-.167,2.408,2.408,0,0,1-.23-.417c-.034-.079-.062-.159-.091-.244-.022-.065-.039-.133-.057-.2v-.006c-.009-.028-.014-.054-.021-.082a.025.025,0,0,1,0-.011,1.58,1.58,0,0,1-.042-.235c-.015-.094-.026-.193-.034-.292,0-.02,0-.042,0-.062,0-.082-.009-.167-.009-.255-.02-3.875-.006-7.748-.006-11.621h-.012q0-3.24,0-6.478,0-2.429.008-4.856v0a4.431,4.431,0,0,1,.046-.626v0a2.557,2.557,0,0,1,.051-.26.266.266,0,0,1,.012-.054,2.035,2.035,0,0,1,.064-.238.319.319,0,0,1,.021-.057,2.153,2.153,0,0,1,.076-.207,1.836,1.836,0,0,1,.088-.187,1.208,1.208,0,0,1,.068-.125,1.677,1.677,0,0,1,.091-.147c.045-.068.093-.131.142-.193a2.223,2.223,0,0,1,.244-.249c.025-.023.051-.043.077-.062a1.843,1.843,0,0,1,.29-.2l.1-.051a1.716,1.716,0,0,1,.167-.076,1.611,1.611,0,0,1,.2-.071c.034-.011.065-.02.1-.028.006,0,.01,0,.015,0,.033-.009.068-.017.1-.023.073-.014.15-.028.227-.037s.156-.014.235-.017a2.164,2.164,0,0,1,.332.014c.063.006.122.014.182.025a.011.011,0,0,1,.014,0,.436.436,0,0,1,.085.017,1.338,1.338,0,0,1,.161.042.9.9,0,0,1,.129.043,1.543,1.543,0,0,1,.249.108,1.323,1.323,0,0,1,.139.077.606.606,0,0,1,.07.045c.034.02.068.045.1.068a1.1,1.1,0,0,1,.1.073,2.394,2.394,0,0,1,.425.448,1.886,1.886,0,0,1,.119.178,1.767,1.767,0,0,1,.113.2c.035.071.065.142.1.213s.054.15.079.227.04.139.058.213c0,.02.011.04.014.06.014.071.028.145.04.221s.02.145.024.218c.009.1.015.207.015.312Q7798.691,2492.934,7798.633,2504.485Zm13.493-11.573v2.563q0,1.548,0,3.093,0,2.832,0,5.659c0,.048,0,.1,0,.142a4.833,4.833,0,0,1-.014.281.018.018,0,0,1,0,.014c0,.054-.01.1-.015.153a.141.141,0,0,1-.006.034c-.006.048-.014.094-.021.139,0,0,0,.006,0,.009a1.041,1.041,0,0,1-.028.153c0,.028-.011.057-.017.083a1.721,1.721,0,0,1-.043.176c-.011.043-.024.088-.039.131-.021.071-.045.136-.07.2s-.06.145-.094.21a.266.266,0,0,1-.021.04,1.625,1.625,0,0,1-.125.215c-.039.06-.078.114-.121.167l0,0a1.133,1.133,0,0,1-.094.114,1.52,1.52,0,0,1-.119.119,1.359,1.359,0,0,1-.125.108c-.042.034-.088.068-.133.1a1.428,1.428,0,0,1-.144.088,1.577,1.577,0,0,1-.148.076,2.273,2.273,0,0,1-.493.165c-.052.011-.1.02-.15.028l-.06.009a1.628,1.628,0,0,1-.162.017c-.062.006-.127.008-.2.011a3.081,3.081,0,0,1-.368-.014,1.988,1.988,0,0,1-.232-.037c-.043-.008-.082-.017-.125-.028s-.076-.02-.114-.031a1.235,1.235,0,0,1-.13-.042,1.154,1.154,0,0,1-.144-.06,2.017,2.017,0,0,1-.324-.176,1.178,1.178,0,0,1-.134-.1s0,0-.008-.006c-.036-.028-.071-.056-.107-.088a1.044,1.044,0,0,1-.1-.1,1.286,1.286,0,0,1-.091-.094,2.638,2.638,0,0,1-.179-.232,1.443,1.443,0,0,1-.078-.125,1.4,1.4,0,0,1-.074-.134c-.028-.051-.055-.1-.08-.161a2.75,2.75,0,0,1-.1-.258,3.433,3.433,0,0,1-.146-.649c-.011-.074-.02-.15-.025-.229-.011-.108-.014-.218-.014-.332q-.025-11.384.008-22.771c.006-1.789,1.084-2.991,2.541-2.966.07,0,.142.006.21.011.051.006.1.011.155.02l.089.014a.449.449,0,0,1,.087.017,1.7,1.7,0,0,1,.165.042,1.338,1.338,0,0,1,.187.063.04.04,0,0,1,.018.005c.054.023.107.045.161.071l.1.051c.06.034.118.071.175.108a1.96,1.96,0,0,1,.2.15,2.188,2.188,0,0,1,.352.394,1.312,1.312,0,0,1,.086.125,1.081,1.081,0,0,1,.067.116c.02.034.037.068.054.1a2.517,2.517,0,0,1,.113.255,1.409,1.409,0,0,1,.063.176.063.063,0,0,1,.009.031.187.187,0,0,1,.012.037s0,0,0,.006c.025.082.046.165.065.252a4.768,4.768,0,0,1,.088.629,1.747,1.747,0,0,1,.009.227c0,.037,0,.076,0,.113,0,.754.006,1.508.006,2.263C7812.132,2486.876,7812.126,2489.9,7812.126,2492.912Zm13.446,11.3c-.006,1.953-.949,3.042-2.56,3-.088,0-.176-.008-.259-.017a2.664,2.664,0,0,1-.408-.085,1.882,1.882,0,0,1-.181-.059c-.029-.014-.06-.026-.089-.037a2.161,2.161,0,0,1-.34-.181.993.993,0,0,1-.091-.062,1.753,1.753,0,0,1-.175-.136c-.032-.028-.06-.057-.092-.088s-.079-.079-.115-.122a.579.579,0,0,1-.055-.062c-.02-.023-.036-.045-.054-.068a1.877,1.877,0,0,1-.139-.2,1.792,1.792,0,0,1-.094-.164c-.015-.026-.028-.051-.04-.076a.688.688,0,0,0-.037-.077c-.024-.054-.047-.108-.067-.165a.943.943,0,0,1-.051-.145c-.02-.06-.04-.122-.058-.184-.011-.037-.02-.074-.028-.114s-.017-.068-.021-.1c-.015-.068-.026-.136-.038-.207-.014-.088-.024-.179-.03-.275-.006-.051-.009-.1-.012-.161s-.006-.142-.006-.216v-.014q.042-11.384.077-22.769c0-.088,0-.176.009-.264v-.02c0-.034,0-.068.008-.1a.077.077,0,0,1,0-.026c0-.037.006-.074.011-.108.009-.071.018-.139.028-.207a.357.357,0,0,1,.01-.043.984.984,0,0,1,.024-.133c.015-.065.032-.13.049-.193a1.985,1.985,0,0,1,.079-.232,1.784,1.784,0,0,1,.073-.176,2.122,2.122,0,0,1,.2-.349,1.949,1.949,0,0,1,.261-.3c.051-.045.1-.085.155-.128l0,0a1.709,1.709,0,0,1,.168-.1.445.445,0,0,1,.119-.059.378.378,0,0,1,.091-.046,1.035,1.035,0,0,1,.155-.056l.051-.017c.06-.017.125-.034.192-.049a3.618,3.618,0,0,1,2.53.641c.022.017.045.034.067.054a.088.088,0,0,1,.018.017.787.787,0,0,1,.081.085,1.015,1.015,0,0,1,.074.1.61.61,0,0,1,.068.108,2.46,2.46,0,0,1,.216.513,1.132,1.132,0,0,1,.039.142,2.33,2.33,0,0,1,.057.255c.012.06.023.119.031.181a3.954,3.954,0,0,1,.049.558c.064,3.819.031,7.638.031,11.457h.011C7825.575,2496.677,7825.581,2500.445,7825.572,2504.21Zm13.487.167c0,.091,0,.182-.009.266a.048.048,0,0,1,0,.02.224.224,0,0,1,0,.045.135.135,0,0,1,0,.034,2.134,2.134,0,0,1-.028.255c-.014.1-.031.193-.054.286a3.513,3.513,0,0,1-.17.519,2.587,2.587,0,0,1-.249.445,1.782,1.782,0,0,1-.14.178,2.259,2.259,0,0,1-.182.187.776.776,0,0,1-.091.079,1.434,1.434,0,0,1-.192.139c-.031.02-.06.04-.091.056s-.079.046-.119.066-.105.048-.155.068a1.719,1.719,0,0,1-.193.071c-.037.011-.076.023-.116.031l-.079.02-.086.017a1.6,1.6,0,0,1-.161.026c-.036.005-.071.008-.107.011-.074.006-.15.011-.229.011h-.031c-.062,0-.122,0-.182-.006s-.136-.009-.2-.017c-.043-.006-.085-.014-.125-.02a1.616,1.616,0,0,1-.235-.051,1.642,1.642,0,0,1-.164-.051.26.26,0,0,1-.068-.026,2.084,2.084,0,0,1-.2-.085c-.056-.029-.11-.06-.164-.094a1,1,0,0,1-.142-.1c-.033-.025-.068-.051-.1-.079a1.741,1.741,0,0,1-.13-.119c-.048-.051-.094-.1-.139-.156s-.085-.111-.123-.168-.07-.107-.1-.164a1.98,1.98,0,0,1-.107-.227,2.449,2.449,0,0,1-.122-.357c-.008-.023-.014-.049-.02-.071-.014-.054-.026-.1-.037-.161s-.022-.111-.031-.167-.018-.114-.022-.17a4.961,4.961,0,0,1-.028-.507c-.012-3.827,0-7.655,0-11.48h-.007v-11.332a4.64,4.64,0,0,1,.045-.661c.015-.1.032-.2.055-.295v-.006a2.813,2.813,0,0,1,.076-.281.932.932,0,0,1,.046-.136.839.839,0,0,1,.045-.119,2.564,2.564,0,0,1,.258-.5c.018-.031.04-.06.06-.088a1.1,1.1,0,0,1,.086-.113,2.058,2.058,0,0,1,.166-.187,2.322,2.322,0,0,1,.186-.167,1.808,1.808,0,0,1,.2-.145c.042-.026.088-.054.133-.077a.946.946,0,0,1,.125-.059c.051-.023.1-.043.149-.063s.105-.037.156-.051a1.555,1.555,0,0,1,.2-.045c.036-.008.076-.014.116-.02a1.424,1.424,0,0,1,.164-.017c.056,0,.113-.006.17-.006a2.55,2.55,0,0,1,.471.042c.073.014.147.031.219.051a.686.686,0,0,1,.107.034c.045.014.093.031.139.051a1.729,1.729,0,0,1,.164.077,2.28,2.28,0,0,1,.369.238,1.966,1.966,0,0,1,.167.144c.031.029.06.06.091.091.057.063.113.127.165.2s.081.113.119.173a1.55,1.55,0,0,1,.081.136c.026.048.052.094.074.145.04.082.076.167.11.255a1.4,1.4,0,0,1,.046.133c.014.045.028.091.042.139a2.946,2.946,0,0,1,.071.314c.014.068.025.139.033.207s.018.145.023.219c0,.045.006.094.009.139,0,.068.006.136.006.207Q7839.071,2492.969,7839.06,2504.377Zm13.4-11.346h-.006c0,3.825.011,7.649-.006,11.474,0,.1,0,.2-.012.3a.3.3,0,0,1,0,.051,2.223,2.223,0,0,1-.028.261c0,.006,0,.009,0,.011-.011.079-.021.156-.039.23,0,.006,0,.011,0,.014-.018.079-.037.156-.057.229s-.04.125-.062.187a.176.176,0,0,1-.018.051.834.834,0,0,1-.036.088.406.406,0,0,1-.043.091,1.911,1.911,0,0,1-.1.187,1.4,1.4,0,0,1-.13.193.671.671,0,0,1-.077.094,1.61,1.61,0,0,1-.128.136,1,1,0,0,1-.079.071,0,0,0,0,1,0,0,1.6,1.6,0,0,1-.139.108,1.452,1.452,0,0,1-.156.1.421.421,0,0,1-.062.034c-.057.031-.116.056-.176.082a1.991,1.991,0,0,1-.27.088c-.064.02-.134.034-.2.048a.169.169,0,0,1-.039.006c-.062.011-.128.02-.193.026l-.091.008s0,0,0,0c-.074.006-.15.011-.228.011-.1,0-.2,0-.3-.011a1.289,1.289,0,0,1-.148-.017,2.267,2.267,0,0,1-.306-.062c-.046-.012-.094-.026-.136-.04a2.224,2.224,0,0,1-.278-.111c-.042-.02-.079-.04-.119-.062a2.09,2.09,0,0,1-.638-.553c-.028-.04-.057-.077-.085-.119s-.051-.076-.077-.119a2.176,2.176,0,0,1-.139-.275c-.024-.06-.051-.119-.073-.184s-.043-.127-.062-.193c-.022-.083-.043-.168-.06-.252a3.3,3.3,0,0,1-.054-.383,2.169,2.169,0,0,1-.018-.241c0-.028,0-.054,0-.082a.688.688,0,0,1,0-.079q0-4.805,0-9.608,0-6.669.008-13.337c0-.107,0-.212.012-.315s.021-.2.034-.3c.011-.073.025-.147.042-.216a1.04,1.04,0,0,1,.04-.161c.015-.062.031-.122.051-.181.028-.088.06-.17.094-.252s.073-.162.116-.238a2.24,2.24,0,0,1,.133-.218,2.151,2.151,0,0,1,.15-.2c.04-.045.08-.088.119-.13a1.339,1.339,0,0,1,.128-.119.033.033,0,0,1,.012-.011c.039-.034.079-.065.122-.1a1.407,1.407,0,0,1,.144-.1c.043-.028.089-.054.134-.079.025-.014.054-.029.082-.042a.66.66,0,0,1,.082-.037c.058-.025.114-.048.174-.068.039-.014.079-.026.119-.037s.079-.022.122-.031a.56.56,0,0,1,.121-.022,2.273,2.273,0,0,1,.4-.043,2.333,2.333,0,0,1,.47.034c.037.006.071.011.11.02a2.014,2.014,0,0,1,.432.142.486.486,0,0,1,.088.043,1.859,1.859,0,0,1,.243.144.037.037,0,0,1,.012.009.461.461,0,0,1,.063.045,1.926,1.926,0,0,1,.215.187c.038.037.071.074.105.114a2.677,2.677,0,0,1,.207.275c.03.048.06.1.088.148s.054.1.079.159.049.1.07.158a2.66,2.66,0,0,1,.111.323c.015.054.028.108.042.162l.035.161.017.085c0,.04.012.079.017.122a.272.272,0,0,1,.009.068c.006.042.009.088.014.13s.009.091.012.136c.006.1.009.207.009.312q0,1.914,0,3.824Z" transform="translate(-261.023 -268.181)" fill="#1e2639"/>
    <path id="Path_1972" data-name="Path 1972" d="M7764.472,2671.939h10.106a10.672,10.672,0,0,1-.337-1.849c-.025-5.951-.04-11.9-.006-17.85a2.515,2.515,0,0,1,2.625-2.71,2.63,2.63,0,0,1,2.314,2.844c0,6.183,0,12.369,0,18.757,3.039-2.115,5.877-4.139,8.771-6.079a2.053,2.053,0,0,0,.93-2.013q-.05-5.316,0-10.629c.021-2.18,1.854-3.456,3.6-2.566a2.708,2.708,0,0,1,1.438,2.7c-.015,2.668,0,5.335,0,8.267l3.221-2.217c1.7-1.166,2.4-1.16,4.091.037.715.5,1.427,1.018,2.4,1.71,0-2.838-.008-5.364,0-7.893.009-1.747.957-2.844,2.438-2.858,1.509-.017,2.476,1.032,2.5,2.8.031,1.888-.006,3.779.015,5.67.019,1.928-.522,4.165.274,5.7s2.943,2.384,4.513,3.51c1.586,1.134,3.19,2.243,4.962,3.484v-1.692q-.013-8.361-.022-16.722a2.557,2.557,0,0,1,1.987-2.719,2.29,2.29,0,0,1,2.68,1.363,5,5,0,0,1,.312,2.073q.038,6.8.008,13.6c-.008,1.76-.121,3.519-.187,5.3h10.277a11.238,11.238,0,0,1-.36-1.965c-.025-5.954-.039-11.9.028-17.858a2.568,2.568,0,0,1,.908-1.911,3.562,3.562,0,0,1,2.451-.366,2.194,2.194,0,0,1,1.537,2.427c-.014,5.622,0,11.244-.017,16.866-.006.921-.171,1.845-.258,2.758h11v-23.052h-99.9v23.1H7759.9a10.355,10.355,0,0,1-.386-1.948c-.028-5.9-.039-11.809,0-17.714a2.477,2.477,0,0,1,2.467-2.71c1.5,0,2.486,1.091,2.489,2.809q.018,7.583.006,15.165Z" transform="translate(-243.391 -390.458)" fill="#1e2639"/>
    <rect id="Rectangle_2040" data-name="Rectangle 2040" width="292.524" height="4.684" transform="translate(7409.067 2379.976)" fill="#1e2639"/>
    <path id="Path_1973" data-name="Path 1973" d="M7858.415,2730.083c.04-.082.082-.165.122-.247q-21.374-15.16-42.751-30.33c-14.538,10.158-29.006,20.265-43.768,30.576Z" transform="translate(-260.051 -426.749)" fill="#1e2639"/>
    <rect id="Rectangle_2041" data-name="Rectangle 2041" width="275.975" height="4.655" transform="translate(7417.402 2370.073)" fill="#1e2639"/>
    <path id="Path_1974" data-name="Path 1974" d="M7890.486,2344.655a2.063,2.063,0,0,0-1.877-1.2c-4.534.071-9.069-.006-13.6.062a2.359,2.359,0,0,0-1.7.887,43.224,43.224,0,0,0-3.118,5.372c-2.991,6.388-4.357,13.212-5.1,20.178-.229,2.177-.295,4.372-.439,6.609H7898.8c0-.341.008-.613,0-.885a78.6,78.6,0,0,0-2.529-17.733A42.713,42.713,0,0,0,7890.486,2344.655Z" transform="translate(-326.426 -171.642)" fill="#1e2639"/>
    <path id="Path_1975" data-name="Path 1975" d="M7898.782,2232.9H7864.6v26.31h34.177Zm-24.619,21.2a2.847,2.847,0,0,1-2.492,2.926,2.387,2.387,0,0,1-2.24-1.176c-.046-.077-.085-.153-.125-.236s-.07-.164-.1-.249a3.324,3.324,0,0,1-.147-.556c-.008-.048-.015-.1-.022-.148a3.519,3.519,0,0,1-.037-.47q-.012-.757-.017-1.52c-.012-1.511,0-3.022.006-4.536.006-.907.014-1.812.017-2.716s.012-1.792.02-2.688.02-1.792.034-2.688a4.13,4.13,0,0,1,.2-1.228,3.178,3.178,0,0,1,.219-.51,2.579,2.579,0,0,1,.292-.434,2.425,2.425,0,0,1,3.476-.2c.031.028.06.06.091.091a2.036,2.036,0,0,1,.164.2c.052.071.1.144.146.221a3.126,3.126,0,0,1,.28.644c.028.094.054.19.076.292.012.048.022.1.032.15.017.1.033.209.045.32a4.805,4.805,0,0,1,.025.51c.006,2.311,0,4.619,0,6.926h.067C7874.165,2249.384,7874.176,2251.743,7874.163,2254.1Zm10.081-.1c0,.063,0,.125-.006.187s0,.142-.014.213c-.006.051-.011.1-.018.147a3.86,3.86,0,0,1-.06.34c-.011.054-.025.108-.039.162a2.923,2.923,0,0,1-.272.683,1.66,1.66,0,0,1-.094.156c-.014.023-.028.045-.045.068a.045.045,0,0,1-.012.017c-.033.048-.067.094-.105.139a1.6,1.6,0,0,1-.146.17c-.051.054-.1.1-.159.153-.036.031-.073.063-.113.091a.639.639,0,0,1-.088.063,1.5,1.5,0,0,1-.238.142.437.437,0,0,1-.087.045l-.116.051a1.082,1.082,0,0,1-.119.045,1.489,1.489,0,0,1-.23.065,2.174,2.174,0,0,1-.34.057,1.8,1.8,0,0,1-.213.014c-1.4.031-2.48-1.072-2.537-2.823-.077-2.4-.021-4.812-.021-7.216h.031c0-2.311-.014-4.624.006-6.935.015-1.82,1.01-2.988,2.507-3h.028a2.059,2.059,0,0,1,.234.011.182.182,0,0,1,.038,0c.064.006.13.014.192.026a.035.035,0,0,1,.017,0c.063.011.122.023.182.039a.216.216,0,0,1,.037.011,1.727,1.727,0,0,1,.206.065,2.047,2.047,0,0,1,.381.184c.039.025.082.054.121.082a1.866,1.866,0,0,1,.188.15c.045.04.088.082.131.125l.085.094c.039.045.076.094.11.142a1,1,0,0,1,.085.128c.039.06.076.122.11.187s.068.133.1.2.057.139.083.213.047.15.067.227a.332.332,0,0,1,.014.051,1.164,1.164,0,0,1,.034.153.086.086,0,0,1,.006.031c.012.057.022.116.031.176.014.085.022.17.031.261.006.057.009.114.012.173s0,.142,0,.216Q7884.263,2246.994,7884.244,2254Zm10.065.185c0,.107-.006.209-.015.312a2.33,2.33,0,0,1-.034.295c-.011.088-.028.17-.046.25s-.033.144-.056.213a.715.715,0,0,1-.023.074.058.058,0,0,1,0,.017.578.578,0,0,1-.041.1,1.767,1.767,0,0,1-.138.309c-.015.029-.031.054-.049.082a1.938,1.938,0,0,1-.32.423,1.472,1.472,0,0,1-.17.156,2.566,2.566,0,0,1-.235.165c-.042.025-.085.048-.127.071s-.089.043-.134.063-.116.045-.176.065-.11.034-.168.049-.121.028-.184.037-.128.023-.192.029c-.089.008-.179.014-.27.014a2.98,2.98,0,0,1-.323-.011c-.077-.006-.15-.014-.225-.026a2.6,2.6,0,0,1-.38-.085c-.039-.011-.073-.023-.11-.037a1.9,1.9,0,0,1-.209-.088c-.06-.029-.117-.06-.174-.091s-.084-.054-.127-.085a.681.681,0,0,1-.077-.056,1.9,1.9,0,0,1-.3-.284c-.035-.04-.068-.082-.1-.125a2.539,2.539,0,0,1-.189-.315c-.028-.056-.054-.116-.079-.176s-.048-.122-.068-.184a3.4,3.4,0,0,1-.15-.734c-.006-.042-.008-.088-.011-.133-.009-.1-.012-.2-.012-.3q-.029-7.153,0-14.3c0-.054,0-.108,0-.159.006-.108.012-.21.025-.309s.023-.165.037-.244.031-.153.052-.23a2.737,2.737,0,0,1,.184-.533,1.262,1.262,0,0,1,.079-.156.437.437,0,0,1,.037-.062.482.482,0,0,1,.043-.074,2.306,2.306,0,0,1,.438-.521.5.5,0,0,1,.071-.06c.058-.045.113-.088.173-.128a.98.98,0,0,1,.088-.054,1.407,1.407,0,0,1,.185-.1,1.162,1.162,0,0,1,.139-.06.162.162,0,0,1,.031-.011c.043-.017.085-.031.131-.045.006,0,.014,0,.022-.006l.13-.034c.04-.008.08-.017.122-.022a.573.573,0,0,1,.074-.011.624.624,0,0,1,.107-.011.553.553,0,0,1,.094-.008c.068-.006.136-.006.2-.006a3.487,3.487,0,0,1,.354.026.833.833,0,0,1,.085.014,1.764,1.764,0,0,1,.246.051.554.554,0,0,1,.1.028,1.947,1.947,0,0,1,.389.156,2.061,2.061,0,0,1,.533.4,1.152,1.152,0,0,1,.081.088,2,2,0,0,1,.148.193c.042.062.082.128.119.2a.063.063,0,0,1,.017.028c.037.071.074.145.105.221a2.276,2.276,0,0,1,.09.247,2.557,2.557,0,0,1,.088.349c.018.071.029.145.04.218a2.63,2.63,0,0,1,.034.309c.009.108.015.215.015.329,0,.4,0,.808,0,1.21q0,.979,0,1.957v.241c0-.732,0-1.465,0-2.2.006,1.211,0,2.424,0,3.635,0,.745,0,1.491,0,2.234,0,.349,0,.695,0,1.043C7894.317,2250.064,7894.328,2252.126,7894.309,2254.184Z" transform="translate(-326.388 -92.427)" fill="#1e2639"/>
    <rect id="Rectangle_2042" data-name="Rectangle 2042" width="108.466" height="5.086" transform="translate(7501.152 2248.279)" fill="#1e2639"/>
    <path id="Path_1976" data-name="Path 1976" d="M7849.3,2831.015c.341-.091.808-.332.905-.615.589-1.721,1.088-3.47,1.636-5.273h-95.833c.6,2,1.163,3.89,1.772,5.925h14.989l75.261-.008A5.109,5.109,0,0,0,7849.3,2831.015Z" transform="translate(-248.579 -516.754)" fill="#1e2639"/>
    <path id="Path_1977" data-name="Path 1977" d="M7801.905,2866.391c.5-.037,1-.005,1.6-.005-.057-.953-.1-1.73-.15-2.529h-19.423v2.472c.277.028.462.06.644.065,2.81.094,3.6.9,3.6,3.68q0,16.726.01,33.448c0,2.316-.965,3.309-3.221,3.314-.36,0-.721.042-1.055.062v2.5h19.53v-2.518c-.3-.026-.527-.06-.757-.065-2.857-.06-3.5-.7-3.492-3.507q.007-5.809.011-11.615,0-11.2,0-22.394C7799.206,2867.4,7800.033,2866.524,7801.905,2866.391Z" transform="translate(-268.569 -544.503)" fill="#1e2639"/>
    <path id="Path_1978" data-name="Path 1978" d="M8016.591,2866.3c.082-.005.158-.084.258-.144V2863.8h-19.571v2.478c.355.031.584.065.817.071,2.693.068,3.447.82,3.447,3.473q0,16.577,0,33.157c0,3.221-.519,3.725-3.8,3.808a1.721,1.721,0,0,0-.41.116v2.48H8016.8v-2.54c-3.884-.232-4.232-.607-4.232-4.409q0-15.872,0-31.745C8012.57,2866.938,8012.937,2866.541,8016.591,2866.3Z" transform="translate(-421.446 -544.46)" fill="#1e2639"/>
    <path id="Path_1979" data-name="Path 1979" d="M7890.662,2906.885a1.945,1.945,0,0,0-.417.127v2.466h19.523V2907a4.313,4.313,0,0,0-.587-.122c-3.159-.179-3.691-.749-3.691-3.95q0-7.718,0-15.44c0-5.713-.094-11.425.006-17.135.06-3.382.47-3.66,3.9-3.938a1.08,1.08,0,0,0,.351-.165v-2.316h-19.624c.063.842.116,1.54.173,2.316,3.572.346,4.343,1.126,4.3,4.02q-.11,6.924-.13,13.847c-.023,6.231-.006,12.466-.006,18.7C7894.453,2906.355,7894.144,2906.686,7890.662,2906.885Z" transform="translate(-344.668 -544.561)" fill="#1e2639"/>
    <path id="Path_1980" data-name="Path 1980" d="M7538.607,2753.678a7.565,7.565,0,0,0,5.055-1.622c1.506-1.2,3.137-2.231,4.868-3.45H7438.909v5.029h1.766Q7489.638,2753.635,7538.607,2753.678Z" transform="translate(-21.381 -461.928)" fill="#1e2639"/>
    <path id="Path_1981" data-name="Path 1981" d="M8134.977,2753.511v-4.976H8025.618c2.007,1.432,3.787,2.637,5.494,3.941a5.213,5.213,0,0,0,3.362,1.134q49.586-.047,99.176-.026C8134.063,2753.585,8134.478,2753.54,8134.977,2753.511Z" transform="translate(-441.752 -461.878)" fill="#1e2639"/>
    <path id="Path_1982" data-name="Path 1982" d="M7808.7,2343.184c-.048-.162-.1-.326-.146-.487-1.962.271-4.224,0-5.834.9a38.451,38.451,0,0,0-18.6,23.415c-.858,2.892-1.244,5.925-1.868,8.993h18.4C7801.211,2364.5,7802.884,2353.331,7808.7,2343.184Z" transform="translate(-267.387 -171.098)" fill="#1e2639"/>
    <path id="Path_1983" data-name="Path 1983" d="M7974.237,2343.628c5.926,10.271,7.559,21.493,8.159,32.9h18.052a2.243,2.243,0,0,0,.063-.394,40.466,40.466,0,0,0-17.648-30.554A11.148,11.148,0,0,0,7974.237,2343.628Z" transform="translate(-404.938 -171.647)" fill="#1e2639"/>
    <path id="Path_1984" data-name="Path 1984" d="M7883.75,2164.458a16.707,16.707,0,0,0-17.342,14.343h33.177C7898.97,2171.246,7891.739,2164.733,7883.75,2164.458Z" transform="translate(-327.68 -43.385)" fill="#1e2639"/>
    <path id="Path_1985" data-name="Path 1985" d="M7970.75,2901.479c.229-.011.456-.068.708-.1v-30.291c-.374-.022-.654-.048-.936-.054-2.545-.054-3.294-.8-3.313-3.309-.009-1.273,0-2.549-.029-3.822,0-.2-.209-.388-.32-.584-.118.02-.237.042-.36.063v3.867c0,3.062-.595,3.671-3.7,3.791a2.989,2.989,0,0,0-.519.122v30.253c.317.026.593.065.865.068,2.631.037,3.339.743,3.351,3.371.009,1.4,0,2.8,0,4.2.159.031.317.062.479.09a3.175,3.175,0,0,0,.225-.785c.025-1.038,0-2.075.009-3.113C7967.229,2902.154,7967.71,2901.649,7970.75,2901.479Z" transform="translate(-396.37 -544.116)" fill="#1e2639"/>
    <path id="Path_1986" data-name="Path 1986" d="M7863.158,2901.494c.454-.009.907-.048,1.355-.071V2871.1c-4.055-.235-4.187-.377-4.185-4.437q0-1.637,0-3.274c-.171-.022-.341-.048-.511-.074a3.05,3.05,0,0,0-.283.833,26.255,26.255,0,0,0,0,2.688c.176,2.974-.2,4.326-3.952,4.227-.074,0-.15.085-.275.162v30.256h1.273c2.1.005,2.957.893,2.942,3.033,0,1.228-.014,2.455.009,3.68a5.2,5.2,0,0,0,.192.953h.409a4.816,4.816,0,0,0,.2-.961c.012-1.273-.034-2.549-.025-3.822C7860.323,2902.415,7861.216,2901.53,7863.158,2901.494Z" transform="translate(-319.726 -544.116)" fill="#1e2639"/>
    <rect id="Rectangle_2043" data-name="Rectangle 2043" width="4.925" height="14.635" transform="translate(7552.89 2103.896)" fill="#1e2639"/>
    <path id="Path_1987" data-name="Path 1987" d="M7895.366,2250.075a2.6,2.6,0,0,1,.309.419A2.434,2.434,0,0,0,7895.366,2250.075Z" transform="translate(-348.428 -104.736)" fill="#1e2639"/>
    <path id="Path_1988" data-name="Path 1988" d="M7655.982,2838.709V2825.1h-13.526v13.614h13.526Z" transform="translate(-167.22 -516.732)" fill="#1e2639"/>
    <rect id="Rectangle_2044" data-name="Rectangle 2044" width="13.597" height="13.614" transform="translate(7475.195 2340.071)" fill="#1e2639"/>
    <rect id="Rectangle_2045" data-name="Rectangle 2045" width="13.574" height="13.617" transform="translate(7436.783 2340.046)" fill="#1e2639"/>
    <rect id="Rectangle_2046" data-name="Rectangle 2046" width="13.58" height="13.611" transform="translate(7436.822 2308.375)" fill="#1e2639"/>
    <rect id="Rectangle_2047" data-name="Rectangle 2047" width="13.501" height="13.569" transform="translate(7660.337 2308.383)" fill="#1e2639"/>
    <rect id="Rectangle_2048" data-name="Rectangle 2048" width="13.501" height="13.637" transform="translate(7660.345 2340.051)" fill="#1e2639"/>
    <rect id="Rectangle_2049" data-name="Rectangle 2049" width="13.529" height="13.614" transform="translate(7621.941 2308.338)" fill="#1e2639"/>
    <path id="Path_1989" data-name="Path 1989" d="M8159.985,2936.835v13.64h13.523v-13.64h-13.523Z" transform="translate(-538.025 -596.792)" fill="#1e2639"/>
  </g>
</svg>
