<svg xmlns="http://www.w3.org/2000/svg" width="184.709" height="301.22" viewBox="0 0 184.709 301.22">
  <g id="Group_2356" data-name="Group 2356" transform="translate(-2616.217 -5636.403)">
    <path id="Path_1547" data-name="Path 1547" d="M2792.3,5771.538c-.092-9.592-1.692-19.183-2.768-28.749-.512-4.606-2.086-5.8-6.679-5.8H2641.979c-4.54,0-6.207,1.495-6.43,5.969-.407,8.555-.669,17.124-1.168,25.679a13.166,13.166,0,0,1-1.483,5.433c-4.973,8.975-10.1,17.858-15.208,26.755-2.008,3.5-2.034,6.875.354,10.181a8.362,8.362,0,0,0,7.177,3.5c5.616.013,11.232,0,16.808,0a4.647,4.647,0,0,1,.276.88c.617,10.707,1.338,21.414,1.8,32.121.42,9.959,7.9,17.347,17.924,17.372,5.327.013,10.668-.091,16,.065,9.316.276,17.5,7.966,18.094,17.256.38,6.009.17,12.044.223,18.068.026,4.067,1.876,5.944,5.918,5.944q27.1.02,54.2,0a17.614,17.614,0,0,0,3.228-.236c8.949-1.64,16.585-9.657,15.194-21.506-1.089-9.2-1.692-18.448-2.965-27.607-1.745-12.609.853-24.13,7.112-35.126A98.194,98.194,0,0,0,2792.3,5771.538Zm-24.852,50.084a57.173,57.173,0,0,0-6.115,32.935c1.05,9.749,1.955,19.512,2.913,29.261a21.548,21.548,0,0,1,.328,4.829,7.914,7.914,0,0,1-8.044,7.2c-16.3.118-32.593.053-48.89.039a4.278,4.278,0,0,1-.945-.3c0-3.608,0-7.281-.013-10.969a28.418,28.418,0,0,0-2.69-12.78c-5.524-11.1-14.459-16.953-26.873-17.281-4.868-.131-9.736.013-14.6-.039-5.156-.066-7.912-2.888-8.161-8.043-.591-12.269-1.247-24.523-1.9-36.792-.21-3.818-2.06-5.5-5.944-5.512-5.944-.025-11.888-.012-17.845-.025a5.9,5.9,0,0,1-.735-.2c2.257-3.99,4.475-7.913,6.705-11.836,3.136-5.485,6.312-10.957,9.4-16.481a6.64,6.64,0,0,0,.643-2.886c.354-7.637.643-15.273.945-22.91.039-.761.118-1.521.184-2.48h134.035c.669,6.062,1.588,12.1,1.955,18.16a91.564,91.564,0,0,1-7.531,42.448C2772.234,5812.622,2769.767,5817.1,2767.445,5821.623Z" transform="translate(0 31.397)" fill="#403347"/>
    <path id="Path_1548" data-name="Path 1548" d="M2713.95,5714.008c-1.128-11.3-7.637-18.737-18.2-22.634-3.359-1.233-3.7-1.667-2.572-5.3,1.286,0,2.6.053,3.9-.013,3.516-.145,5.721-2.3,5.616-5.446-.092-2.979-2.388-5-5.787-5q-9.388-.04-18.763,0c-3.373.014-5.643,2.073-5.708,5.078-.052,3.084,2.021,5.157,5.459,5.354,1.377.091,2.755.013,4.278.013.485,4.2.485,4.2-3.031,5.354A26.819,26.819,0,0,0,2661.5,5722.3a26.51,26.51,0,0,0,40.165,16.9C2710.88,5733.4,2715.026,5724.741,2713.95,5714.008Zm-26.3,18.96a16.241,16.241,0,1,1,16.139-16.52A16.3,16.3,0,0,1,2687.655,5732.968Z" transform="translate(13.947 12.233)" fill="#403347"/>
    <path id="Path_1549" data-name="Path 1549" d="M2655,5706.565c-3.32,2.06-6.665,4.107-10.182,6.272,1.863,3.07,3.832,5.917,5.38,8.988a9.556,9.556,0,0,1,1.036,5.209c-.275,2.1-2.033,3.385-4.251,3.608a4.821,4.821,0,0,1-4.947-2.31c-2.021-3.28-4-6.574-6.154-10.1-2.834,1.693-5.576,3.347-8.319,4.987-.669.394-1.3.853-1.994,1.181a5.234,5.234,0,0,1-6.981-2.178,5.065,5.065,0,0,1,1.916-6.836c3.176-2.033,6.417-3.962,9.972-6.14-2.034-3.32-3.989-6.456-5.852-9.631a5.312,5.312,0,0,1,.591-6.613,4.965,4.965,0,0,1,6.141-.971,5.769,5.769,0,0,1,1.915,1.9c2.034,3.176,3.989,6.4,6.154,9.919,2.795-1.705,5.537-3.333,8.253-5.025,2.086-1.3,4.159-2.466,6.679-1.193a5.219,5.219,0,0,1,.643,8.936Z" transform="translate(0.543 17.157)" fill="#403347"/>
    <path id="Path_1550" data-name="Path 1550" d="M2721.4,5646.384c-.275,14.591-.656,29.182-.984,43.76-.039,1.575-2.047,4.461-3.517,4.646-.486.052-1.443-.774-1.562-1.325-.788-3.7-1.351-7.439-2.086-11.141-2.139-10.732-4.369-21.453-6.442-32.2-1.47-7.649-1.338-7.571,5.433-11.336,2.689-1.5,5.274-2.782,8.778-2.271C2721.151,5639.811,2721.466,5643.1,2721.4,5646.384Z" transform="translate(28.042 0)" fill="#403347"/>
    <path id="Path_1551" data-name="Path 1551" d="M2764.194,5707.047c-7.624,8.07-15.313,16.087-22.962,24.13-1.444,1.508-2.795,3.109-4.356,4.461a18.78,18.78,0,0,1-3.477,1.955,5.757,5.757,0,0,1-4.868-3.176,4.748,4.748,0,0,1,.643-5.629c7.02-7.465,14.132-14.866,21.2-22.28,2.073-2.178,4.133-4.356,6.22-6.508,2.545-2.611,5.5-2.952,7.729-.919C2766.661,5701.208,2766.674,5704.436,2764.194,5707.047Z" transform="translate(34.86 19.154)" fill="#403347"/>
    <path id="Path_1552" data-name="Path 1552" d="M2757.721,5696.518a4.682,4.682,0,0,1-3.464,4.409c-6.429,2.126-12.859,4.252-19.328,6.246a5.192,5.192,0,1,1-3.215-9.867c6.207-2.034,12.426-4.067,18.685-5.983C2754.2,5690.154,2757.695,5692.464,2757.721,5696.518Z" transform="translate(34.878 17.048)" fill="#403347"/>
    <path id="Path_1553" data-name="Path 1553" d="M2725.71,5694.851c-.433,3.385-4.068,6.075-8.345,6.429a32.563,32.563,0,0,1-4.816-2.021,5.586,5.586,0,0,1-.722-9.093,9.069,9.069,0,0,1,8.831-2.1C2724.109,5688.985,2726.1,5691.819,2725.71,5694.851Z" transform="translate(29.217 16.012)" fill="#403347"/>
  </g>
</svg>
