<svg id="Group_2087" data-name="Group 2087" xmlns="http://www.w3.org/2000/svg" width="143.889" height="262.61" viewBox="0 0 143.889 262.61">
  <path id="Path_706" data-name="Path 706" d="M2431.491,4599.122c-.328-8.736-.574-17.481-1.173-26.2a112.4,112.4,0,0,0-3.712-23.141c-1.178-4.141-2.438-8.274-6.345-10.795a42.026,42.026,0,0,0-5.448-3.1c-4.388-1.971-8.846-3.783-13.28-5.656.53.473,1.063.946,1.583,1.408-1.566,3.125-3.045,6.082-4.617,9.221-.94-1.113-1.766-2.088-2.859-3.385a19.486,19.486,0,0,0-.689,4.246c.746,9.8,1.739,19.591,2.395,29.4.869,13,1.5,26.007,2.219,39.014a2.5,2.5,0,0,1-.3,1.413c-.891,1.37-1.875,2.68-2.884,4.09a17.633,17.633,0,0,0-2.441-1.575c-2.712-1.175-3.3-3.275-3.206-6.028.265-7.965.435-15.939.462-23.91.046-13.893-.052-27.785-.058-41.68a3.014,3.014,0,0,0-1.635-2.774,1.217,1.217,0,0,0-1.944.451,9.583,9.583,0,0,1-.962,1.643c-.443.525-1.31.839-1.452-.055-.549-3.475-3.3-6.52-2.187-10.319-.787.738-1.484,1.761-2.37,1.96a77.68,77.68,0,0,0-16.552,5.855c-2.025.973-3.939,2.1-4.756,4.423a6.194,6.194,0,0,1-1.039,1.6,112.331,112.331,0,0,1-17.591,18.069c-1.695,1.392-3.278,1.946-5.2.5-1.692-1.271-3.523-2.364-5.161-3.7-1.5-1.22-2.638-2.928-4.24-3.948-3.338-2.126-5.743-5.092-8.05-8.16-.757-1.006-1.405-1.312-2.485-.76-.4.205-.8.4-1.465.735a14.8,14.8,0,0,1-.448-3.494c.366-3.247-1.3-5.366-3.63-7.167-.8-.621-1.566-.292-1.681.7a7.642,7.642,0,0,0,.134,2.43c.219,1.014.041,1.542-1.1,1.6a34.913,34.913,0,0,1-16.287-2.521,6.683,6.683,0,0,0-2.064-.606c-1.2-.107-1.752.738-1.042,1.719,1.337,1.848,2.87,3.62,5.147,4.275a58.9,58.9,0,0,1,12.807,4.973c1.8,1.015,3.63,1.987,5.336,2.919-.59,1.225-1.085,2.255-1.471,3.054a23.025,23.025,0,0,1,2.9,2.217c2.674,2.857,5.273,5.785,7.873,8.709,2.57,2.892,5.194,5.743,7.632,8.742a29.09,29.09,0,0,0,6.708,6.148,5.351,5.351,0,0,0,4.677.836c3.633-1.14,7.266-2.291,10.844-3.595a9.172,9.172,0,0,0,2.9-1.982c2.876-2.66,5.661-5.415,8.515-8.1.9-.851,1.913-1.583,3.007-2.479,2.056,5.353,4.081,10.41,4.9,15.85.653,4.327,1.471,8.685.536,13.023-.752,3.5-1.908,6.911-3,10.325-1.1,3.447-2.734,6.738-2.622,10.5.082,2.676-.32,5.426.145,8.026,1.014,5.669,2.556,11.244,3.663,16.9.834,4.275,1.424,8.6,1.944,12.93q1.165,9.694,2.061,19.417c.694,7.386,1.3,14.783,1.873,22.184.183,2.381.555,4.838-.99,7.006-.976,1.37-1.957,2.736-2.892,4.136a2.957,2.957,0,0,1-2.794,1.3,45.544,45.544,0,0,0-5.855.206,2.992,2.992,0,0,0-2.064,1.282,22.987,22.987,0,0,0-2.217,10.038c-.041,1.785.929,2.455,2.589,2.173a10.368,10.368,0,0,1-.88,4.735c-1.886,3.948-1.854,8.245-1.353,12.465a26.027,26.027,0,0,0,1.853,6.79,6.8,6.8,0,0,0,5.161,3.866,1.339,1.339,0,0,0,1.8-1.006c.948-3.978,1.862-7.963,2.8-11.943a13.573,13.573,0,0,1,1-3.778c1.665-2.843,3.586-5.538,5.524-8.469.7.591,1.542,1.323,2.411,2.023.519.413,1.143,1.156,1.618,1.085,2.2-.337,2.482,1.251,3,2.67.235.64.528,1.26.763,1.9a4.456,4.456,0,0,0,2.895,2.867c.309.1.755.528.733.769a24.719,24.719,0,0,1-.716,5.347,73.369,73.369,0,0,1-2.949,6.889,2.808,2.808,0,0,0,.979,3.622,7.334,7.334,0,0,0,5.732,2.012c2.031-.26,4.079-.423,6.123-.539.929-.052,1.2-.388,1.268-1.31a33.721,33.721,0,0,1,.719-4.39,14.315,14.315,0,0,0,.746-2.3c.087-3.179.126-6.366-.005-9.545-.063-1.563-.049-2.794,1.326-3.966,1.993-1.7,1.919-2.244.637-4.582-.569-1.036-1.181-2.055-1.648-3.138a12.47,12.47,0,0,1-1.173-3.466c-.421-3.983-.673-7.982-.954-11.979a1.819,1.819,0,0,1,.3-1.129c2.709-3.7,5.366-7.451,8.209-11.054,3.13-3.964,6.481-7.755,9.658-11.687,2.28-2.821,4.21-5.825,4.251-9.668.038-3.6.178-7.192.262-10.787.112-4.642.189-9.286.334-13.928a22.836,22.836,0,0,1,.451-5.527,39.77,39.77,0,0,0,1.52-12.129c-.052-2.089-.364-4.333.254-6.247a133.451,133.451,0,0,1,6.074-16.169A22.924,22.924,0,0,0,2431.491,4599.122Zm-36.68,70.691c-.208-2.182-.432-4.256-.593-6.337q-.361-4.629-.626-9.261a4.934,4.934,0,0,1,.3-1.345l.53.039c.213,1.544.443,3.083.637,4.628.413,3.25.73,6.514,1.249,9.745A2.009,2.009,0,0,1,2394.812,4669.813Zm21.883-56.039c-1.927-.875-2.2-1.328-1.925-3.259q.9-6.388,1.823-12.771c.035-.011.068-.019.1-.027Zm-33.659-82.623v0q-.041.119-.074.238c.057-.055.115-.106.172-.156C2383.073,4531.184,2383.046,4531.157,2383.035,4531.151Z" transform="translate(-2287.615 -4490.934)" fill="#474747"/>
  <path id="Path_707" data-name="Path 707" d="M2643.111,4409.857a4.753,4.753,0,0,1-1.358,3.152c-3.22,2.629-3.283,5.981-2.575,9.551a19.037,19.037,0,0,0,1.178,3.119l-1.08-.492c-1.933,1.7-3.917,3.365-5.787,5.155-.394.378-.353,1.2-.574,2.067-.935.1-2.176.227-3.4.352-.068-.134-.156-.243-.134-.272,1.047-1.5.287-2.359-.957-3.281-1.889-1.4-3.644-2.979-5.5-4.523-.112.155-.213.29-.249.336a.031.031,0,0,0,.008-.011c-.555-3.215-1.11-6.651-1.777-10.062a2.1,2.1,0,0,0-1.14-1.235,3.6,3.6,0,0,1-2.285-3.576c.066-2.72-.883-5.3-.992-7.9a18.384,18.384,0,0,1,2.422-10.855,4.111,4.111,0,0,1,4-2.116,2.044,2.044,0,0,0,1.186-.418c3.338-2.312,8.346-3.893,12.81-.022,1.676,1.455,3.212,3.078,4.759,4.675a5.953,5.953,0,0,1,1.665,4.221C2643.332,4401.769,2643.321,4405.82,2643.111,4409.857Z" transform="translate(-2526.565 -4386.479)" fill="#474747"/>
  <path id="Path_708" data-name="Path 708" d="M2754.456,4777.107v16.058c-1.926-.876-2.2-1.328-1.924-3.258q.9-6.388,1.824-12.773Z" transform="translate(-2625.377 -4670.325)" fill="#474747"/>
</svg>
