<svg id="Group_1856" data-name="Group 1856" xmlns="http://www.w3.org/2000/svg" width="176.949" height="191.396" viewBox="0 0 176.949 191.396">
  <path id="Path_307" data-name="Path 307" d="M7987.2,3806.817a38.025,38.025,0,0,1-5.614,17.109,69.273,69.273,0,0,1-14.208,16.391,35.81,35.81,0,0,0-10.436,15,17.14,17.14,0,0,0-.74,5.608,13.468,13.468,0,0,1-6.02,11.368,14,14,0,0,1-21.858-9.3,33.287,33.287,0,0,1,1.014-13.273c2.713-10.542,8.354-19.389,15.938-27.041,3.137-3.166,6.573-6.033,9.809-9.105a13.789,13.789,0,0,0,3.7-5.161c.944-2.588.366-5.146-.4-7.634a18.051,18.051,0,0,0-35.268,5.264,14.375,14.375,0,0,1-11.621,13.911c-7.33,1.366-15.071-3.844-16.229-11.207a32.224,32.224,0,0,1,.717-11.9,45.392,45.392,0,0,1,18.039-27.836,43.891,43.891,0,0,1,19.317-8.118c2.623-.418,5.288-.58,7.931-.858,11.327.272,21.5,3.629,30.323,10.791a42.306,42.306,0,0,1,9.989,11.847A41.823,41.823,0,0,1,7987.2,3806.817Z" transform="translate(-7853.335 -3719.344)" fill="#5e1822"/>
  <path id="Path_308" data-name="Path 308" d="M8124.2,3798.146c-.17,20.159-5.637,37.268-16.494,52.619a87.7,87.7,0,0,1-35.024,29.219,62.483,62.483,0,0,1-6.087,2.508,5.189,5.189,0,0,1-6.87-3.209,5.245,5.245,0,0,1,3.357-6.66,77.668,77.668,0,0,0,27.544-17.847,78.594,78.594,0,0,0,19.438-32.062,76.29,76.29,0,0,0,2.914-33.344,78.57,78.57,0,0,0-24.515-47.363,5.27,5.27,0,1,1,7.116-7.755,88.578,88.578,0,0,1,23.56,35.872,86.893,86.893,0,0,1,4.44,19.109C8123.968,3792.635,8124.063,3796.07,8124.2,3798.146Z" transform="translate(-7947.25 -3703.983)" fill="#5e1822"/>
  <path id="Path_309" data-name="Path 309" d="M7861.983,3881.478a5,5,0,0,1-6.144,2.974,81.536,81.536,0,0,1-8.814-3.724A87.3,87.3,0,0,1,7815.183,3854a88.5,88.5,0,0,1-15.234-33.045,93.321,93.321,0,0,1-2.269-20.293,88.288,88.288,0,0,1,27.18-63.238,5.256,5.256,0,0,1,8.122,6.594,5.867,5.867,0,0,1-.9,1.06,77.153,77.153,0,0,0-22.173,39.915,76.065,76.065,0,0,0-.982,26.72,78.049,78.049,0,0,0,14.609,35.87,76.988,76.988,0,0,0,26.563,22.885c2.909,1.526,5.983,2.744,9,4.062A5.271,5.271,0,0,1,7861.983,3881.478Z" transform="translate(-7797.68 -3705.79)" fill="#5e1822"/>
  <path id="Path_310" data-name="Path 310" d="M7984.647,4070.862a15.013,15.013,0,1,1,14.655-15.443A15.128,15.128,0,0,1,7984.647,4070.862Z" transform="translate(-7895.65 -3879.478)" fill="#5e1822"/>
  <path id="Path_311" data-name="Path 311" d="M7921.861,3700.745a2.354,2.354,0,0,0-2.312-1.976c-.918-.118-1.85-.12-2.857-.18.305-3.972.129-5.364-.984-7.857-2.294-5.138-6.514-7.792-11.885-7.27a18.614,18.614,0,0,0-10.4,4.454,11.445,11.445,0,0,0-3.068,14.259c2.412,5.2,6.817,7.7,12.509,7.049a16.5,16.5,0,0,0,8.5-3.454,6.66,6.66,0,0,1,5.261-1.482,9.344,9.344,0,0,0,3.6-.522A2.756,2.756,0,0,0,7921.861,3700.745Zm-12.647-2.8c-1.429.084-2.861.09-4.269.282a3.923,3.923,0,0,0-1.86.85c-1.214,1.008-1.094,2.446.2,3.682-1.661.576-3.914-.568-5.23-2.652-1.894-3-1.9-6.054-.022-8.019,2.124-2.22,5.591-2.914,7.832-1.57C7908.186,3691.914,7909.908,3695.752,7909.214,3697.947Z" transform="translate(-7849.873 -3675.45)" fill="#5e1822"/>
  <path id="Path_312" data-name="Path 312" d="M7989.375,3678.875a33.779,33.779,0,0,1-.344,4.065c-.685,3.376-2.988,5.348-6.114,6.377a20.225,20.225,0,0,1-10.933.494c-3.987-.9-6.4-3.784-6.792-8.115-.352-3.88-.586-7.77-.815-11.66a3.525,3.525,0,0,1,3.371-3.936c2.406-.193,3.962.936,4.236,3.206.193,1.584.222,3.188.344,4.782.187,2.456.3,4.922.612,7.364.258,2.036,1.27,2.835,3.306,2.86a13.291,13.291,0,0,0,2.779-.223,2.689,2.689,0,0,0,2.511-2.971c0-2.3-.169-4.592-.288-6.886-.095-1.8-.248-3.59-.334-5.387a3.28,3.28,0,0,1,1.806-3.4,4.189,4.189,0,0,1,4.456.28,3.507,3.507,0,0,1,1.365,2.87c.229,3.424.47,6.846.7,10.27C7989.289,3678.869,7989.331,3678.87,7989.375,3678.875Z" transform="translate(-7892.844 -3664.937)" fill="#5e1822"/>
  <path id="Path_313" data-name="Path 313" d="M8081.406,3689.29a3.985,3.985,0,0,1-2.771,3.88q-7.263,2.943-14.537,5.864c-.182.074-.36.158-.716.312.414.2.684.35.968.47,3,1.28,6,2.544,9,3.836a3.221,3.221,0,0,1,2.237,2.352,2.746,2.746,0,0,1-3.731,3.083c-1.922-.635-3.772-1.5-5.642-2.281-3.588-1.51-7.174-3.024-10.748-4.57a7.422,7.422,0,0,1-1.874-1.114,3.228,3.228,0,0,1,.814-5.665c3.61-1.536,7.271-2.954,10.911-4.422,1.718-.694,3.438-1.386,5.412-2.18-2.784-1.19-5.306-2.222-7.781-3.354a5.154,5.154,0,0,1-1.95-1.464,2.574,2.574,0,0,1,1.91-4.131,5.6,5.6,0,0,1,2.41.462c4.461,1.84,8.9,3.732,13.334,5.63C8080.109,3686.62,8081.414,3687.456,8081.406,3689.29Z" transform="translate(-7943.028 -3673.456)" fill="#5e1822"/>
  <path id="Path_314" data-name="Path 314" d="M8039.174,3672.845q-1.332,8.67-2.766,17.321a3.593,3.593,0,0,1-4.082,2.984,3.68,3.68,0,0,1-3.49-4.134c.38-2.438.794-5.16,1.23-7.88.494-3.086,1.044-6.164,1.506-9.253.508-3.4,3.816-3.938,6-2.634A3.3,3.3,0,0,1,8039.174,3672.845Z" transform="translate(-7929.62 -3667.021)" fill="#5e1822"/>
</svg>
