<svg id="Group_2337" data-name="Group 2337" xmlns="http://www.w3.org/2000/svg" width="340.766" height="419.321" viewBox="0 0 340.766 419.321">
  <path id="Path_1513" data-name="Path 1513" d="M2672.946,7518.48a101.055,101.055,0,0,0-26.163-9.215c-2.427-.542-3.025-1.449-3.238-2.831-.864-5.607-1.584-10.7-2.2-15.479a1.162,1.162,0,0,1,.305-.494c9.535-7.456,16.612-17.582,21.632-30.953l.211-.566c.545-1.479.976-2.647,2.219-3.4,1.264-.771,1.88-2.422,2.277-3.773a49.179,49.179,0,0,0,1.08-4.91l.171-.915c2.834-15.049,4.264-27.735,2.023-40.723-2.688-15.559-11.4-25.581-25.9-29.785-13.89-4.049-28.726-4.533-45.36-1.482-9.513,1.752-16.817,5.529-22.33,11.544-5.758,6.286-8.867,14.265-9.783,25.116-1.193,14.237,1.215,28.023,4,40.818a8.092,8.092,0,0,0,1.777,3.1c.262.328.525.658.769,1.019a9.85,9.85,0,0,0,.725.877,3.555,3.555,0,0,1,.669.9c4.963,14.269,12.284,25.109,22.378,33.144a1.607,1.607,0,0,1,.363.595c-.745,5.538-1.513,10.627-2.344,15.561-.2,1.212-.777,2.116-2.94,2.586a101.918,101.918,0,0,0-24.932,8.475c-12.867,6.494-21.264,16.3-24.957,29.146-2.55,8.841-2.81,17.917-2.75,24.837.094,10.647,7.571,18.083,18.18,18.083q10.173.007,20.341.006l20.335,0,81.36,0a18.408,18.408,0,0,0,13.207-5.087,17.776,17.776,0,0,0,4.989-12.921,128.54,128.54,0,0,0-.826-15.5C2696.164,7539,2687.655,7526.3,2672.946,7518.48Zm7.951,61.883-8.742-.008-8.207,0v-4.027c.009-.592.006-1.185,0-1.776l-.011-6.893q-.011-4.55-.006-9.1c0-.216,0-.436-.016-.568a7.5,7.5,0,0,0-.122-1.091,4.909,4.909,0,0,0-.3-1.1,5.02,5.02,0,0,0-.361-.782,3.342,3.342,0,0,0-.363-.518c-.09-.106-.18-.212-.271-.3a3.6,3.6,0,0,0-.764-.612,4.2,4.2,0,0,0-.93-.412,5.058,5.058,0,0,0-1.537-.213c-2.855.021-4.7,2.236-4.7,5.64-.022,5.147-.018,10.288-.016,15.433v6.25h-69.409c-.021-.348-.033-.684-.033-1.033v-20.486a6.217,6.217,0,0,0-1.55-4.593,4.332,4.332,0,0,0-3.2-1.21c-1.393.011-4.632.606-4.632,5.9v21.5l-8.731.009c-2.977,0-5.952.016-8.931-.022-4.053-.051-7.643-3.17-7.841-6.812-.6-11.044.489-19.735,3.429-27.359a34.368,34.368,0,0,1,2.251-4.76,28.966,28.966,0,0,1,1.806-2.846q.988-1.393,2.079-2.648c.351-.418.716-.821,1.108-1.23s.769-.8,1.182-1.181a43.759,43.759,0,0,1,9.758-6.989c1.772-.959,3.663-1.857,5.778-2.749h0c.389-.165.784-.325,1.179-.482q.519-.208,1.047-.4c.21-.083.419-.163.629-.241.446-.168.9-.332,1.374-.5l.01,0h0l0,0,.461-.159h0l.229-.08c.475-.164.96-.325,1.453-.487,3.511-1.146,7.414-2.186,12.016-3.22a2.984,2.984,0,0,1,1.817.576c5.607,3.795,12.112,8.219,18.333,12.687l.152.1c.122.085.245.168.306.2a5.607,5.607,0,0,0,4.762.843,7.558,7.558,0,0,0,2.334-1.186c2.827-2.011,5.675-3.979,8.523-5.949,3.145-2.175,6.289-4.35,9.4-6.572a3.316,3.316,0,0,1,3.136-.535c8.456,2.028,18.274,4.854,26.964,10.428a37.568,37.568,0,0,1,6.956,5.712c.508.52.975,1.044,1.437,1.586,4.826,5.709,7.787,13.045,8.8,21.809a122.879,122.879,0,0,1,.735,13.77,8.615,8.615,0,0,1-2.259,6.325A8.9,8.9,0,0,1,2680.9,7580.363Zm-30.706-163.87c-10.84-.289-20.5-4.5-27.7-8.127a9.5,9.5,0,0,0-4.258-1.163,6.962,6.962,0,0,0-4.645,1.873c-2.518,2.17-3.115,5.124-1.769,8.788l.174.47c.312.849.627,1.7.959,2.6l-2.569-1.332c-.379-.2-.753-.4-1.092-.569-.511-.275-1.023-.552-1.522-.81q-1.795-.945-3.583-1.91c-2.122-1.139-4.316-2.313-6.512-3.417-4.216-2.128-8.295-1.767-11.795,1.032a7.944,7.944,0,0,0-2.624,4.166c-.536,2.309-1.057,4.622-1.58,6.937-.926,4.095-1.871,8.281-2.893,12.474-.306-1.9-.6-3.821-.85-5.721v0c-.2-1.485-.368-2.96-.513-4.481-.036-.3-.061-.6-.086-.905l-.04-.483c-.071-.71-.125-1.437-.171-2.183-.028-.325-.053-.664-.067-1.016-.043-.822-.071-1.631-.1-2.456-.029-.8-.043-1.611-.043-2.428s.015-1.641.043-2.471l0-.185c.04-.8.082-1.607.133-2.439.067-.8.147-1.607.228-2.411l.021-.236c.109-.834.219-1.659.344-2.506.053-.379.119-.746.195-1.178.094-.564.217-1.128.36-1.706.123-.56.259-1.1.413-1.647.16-.591.334-1.168.554-1.772.146-.455.305-.891.486-1.335l.4-.972c.063-.145.125-.287.212-.474.157-.367.331-.726.531-1.117a19.208,19.208,0,0,1,1.249-2.2c.106-.189.225-.365.359-.566a22.806,22.806,0,0,1,3.225-3.847l.617-.565c.142-.13.284-.261.466-.417.258-.23.528-.449.853-.7.086-.072.176-.139.27-.208l.243-.184a6.719,6.719,0,0,1,.612-.438,7.363,7.363,0,0,1,.627-.405c.194-.132.373-.255.624-.4.358-.225.715-.437,1.111-.647.364-.2.753-.4,1.125-.583.414-.193.829-.388,1.295-.584.113-.05.224-.1.433-.176.363-.149.724-.295,1.167-.451.351-.129.7-.258,1.058-.367l.731-.223c.674-.219,1.341-.4,2.053-.568a87.805,87.805,0,0,1,41.056-.171c13.3,3.119,20.4,11.022,22.363,24.864,1.1,7.8.444,20.652-1.365,30.543q-.965-4.717-1.9-9.433l-1.274-6.344A8.273,8.273,0,0,0,2650.191,7416.493Zm-65.471,37.194c.022-.106.028-.145.026-.136q.671-3.034,1.362-6.07l1.306-5.75c1.4-6.163,2.8-12.322,4.152-18.5a6.581,6.581,0,0,1,.713-2.244c.1-.022.559-.008,2.2.854l7.086,3.74q8.488,4.477,16.966,8.979c1.173.627,3.54,1.883,5.873.141l.466-.375a5.524,5.524,0,0,0,.7-.8,4.855,4.855,0,0,0,.3-.516,2.052,2.052,0,0,0,.183-.4,3.259,3.259,0,0,0,.247-.976,4.013,4.013,0,0,0,.052-.651,7.837,7.837,0,0,0-.594-2.729c-1.12-2.949-2.219-5.906-3.386-9.047l-.188-.51c8.739,3.972,15.683,6.041,22.739,6.819.486.053,1.014.066,1.544.08a5.512,5.512,0,0,1,2.242.314,5.259,5.259,0,0,1,.537,2.22c.068.56.136,1.124.248,1.638.441,2.021.854,4.053,1.267,6.083,1,4.9,2.029,9.97,3.456,14.856a11.01,11.01,0,0,1-.714,8.035c-4.671,10.9-10.263,18.563-17.6,24.12-10.947,8.274-21.559,8.177-32.439-.3-8.407-6.548-14.533-15.842-18.731-28.406A1.2,1.2,0,0,1,2584.72,7453.688Zm48.558,59.605c-4.176,2.909-8.662,6.033-13.1,9.063-.086.03-.3.037-.274.067-.642-.429-1.281-.867-1.923-1.308l-1.638-1.117c-.86-.586-1.719-1.173-2.569-1.76-2.019-1.389-4.022-2.777-5.967-4.132q-1.545-1.053-3.039-2.1l3.274-16.045a32.3,32.3,0,0,0,23.85.052c1.08,5.268,2.146,10.479,3.26,15.978Z" transform="translate(-2448.427 -7216.927)" fill="#611735"/>
  <path id="Path_1514" data-name="Path 1514" d="M2576.347,7459.21c.074-19.84.069-39.349-.014-57.977-.031-8.92-6.627-15.409-15.688-15.423q-26.3,0-52.622.013c-8.977,0-15.526,6.414-15.573,15.25-.083,18.735-.087,38.324-.014,58.224.047,9.37,6.71,15.924,16.2,15.939,2.208.009,4.411,0,6.615,0,4.927-.014,10.016-.023,15,.075a4.449,4.449,0,0,1,2.629,1.127c4.6,4.364,9.124,8.924,13.365,13.221a7.137,7.137,0,0,0,5.089,2.41,6.876,6.876,0,0,0,2.532-.511c2.676-1.065,3.946-3.224,3.884-6.6-.04-2.519-.031-5.028-.023-7.633l.006-2.084h.107c.868,0,1.622,0,2.364,0C2569.678,7475.206,2576.316,7468.614,2576.347,7459.21Zm-28.053,18.649-1.122-1.091c-2.913-2.83-5.665-5.5-8.343-8.211a8.644,8.644,0,0,0-6.539-2.733h-.075c-5.663.072-11.426.062-17,.05l-6.26-.009c-4.753-.011-7.068-2.3-7.081-7.012q-.059-11.966-.039-23.922,0-6.081,0-12.161,0-10.355.014-20.708c.025-4.737,2.151-6.857,6.891-6.871q25.506,0,50.989.016c5.2,0,7.221,2.033,7.221,7.25q0,28.068.029,56.121a6.553,6.553,0,0,1-7.35,7.346h0c-.609,0-1.218-.018-1.827-.029-1.107-.021-2.216-.048-3.314-.029-3.966.037-6.039,2.091-6.162,6.105C2548.269,7473.872,2548.28,7475.811,2548.294,7477.86Z" transform="translate(-2469.308 -7210.942)" fill="#611735"/>
  <path id="Path_1515" data-name="Path 1515" d="M2726.183,7369.272c-.461-8.98-6.713-14.782-15.933-14.782-2.771.007-5.54.04-8.311.071-3.36.039-6.729.068-10.079.071-5.265-.006-10.528-.039-15.787-.071-5.907-.034-11.815-.071-17.727-.071-9.271,0-15.821,6.468-15.932,15.731-.062,5.658-.056,11.259-.043,15.988q0,3.293.014,6.584t.014,6.549q-.022,8.188-.014,16.38,0,6.127.014,12.278c0,6.751,2.934,11.625,8.481,14.1a23.536,23.536,0,0,0,7.858,1.529c.545.044,1.086.087,1.632.139a4.072,4.072,0,0,1,.682.1,2.752,2.752,0,0,1,.014.422c-.059,1.923-.049,3.871-.039,5.755.006,1.347.013,2.693,0,4.04-.04,3.255,1.238,5.42,3.794,6.435a6.666,6.666,0,0,0,2.487.512,6.545,6.545,0,0,0,4.724-2.238c4.461-4.514,9.219-9.309,14.03-13.9a4.044,4.044,0,0,1,2.439-1c5.487-.1,11.075-.08,16.476-.069q2.925.01,5.85.011a15.143,15.143,0,0,0,9.162-2.779c4.312-3.113,6.4-7.683,6.383-13.973q-.026-9.943-.012-19.888,0-7.4,0-14.811c0-2.175.012-4.352.027-6.526.039-5.433.077-11.05-.2-16.581Zm-57.473,66.881c-1.176-1.177-2.932-1.748-5.378-1.748h-.055l-1.314.014c-1.251.014-2.5.031-3.755,0-4.172-.094-6.383-2.33-6.394-6.464q-.026-8.476-.012-16.948,0-6.306,0-12.6,0-3.917.021-7.831c.026-6.292.053-12.8-.079-19.193a6.907,6.907,0,0,1,7.572-7.576c15.255.231,31.774.234,50.492.015a7.375,7.375,0,0,1,5.272,1.854,7.029,7.029,0,0,1,1.865,5.136q-.006,10.39,0,20.782.007,18.343-.027,36.693c-.014,5.018-3.48,6.092-6.379,6.107l-3.477.016c-6.4.025-13.014.056-19.519-.044a10.089,10.089,0,0,0-7.851,3.3c-2.414,2.537-4.964,5.041-7.431,7.462-.6.585-1.2,1.173-1.79,1.758v-5.246C2670.476,7439.1,2669.918,7437.359,2668.709,7436.153Z" transform="translate(-2404.416 -7224.494)" fill="#611735"/>
  <path id="Path_1516" data-name="Path 1516" d="M2543.708,7389.835c.859.021,1.725.012,2.645.006l.027,1.451c0,2.3.01,4.482-.02,6.675-.041,2.949,1.123,4.926,3.47,5.878a5.341,5.341,0,0,0,1.994.4,6.477,6.477,0,0,0,4.54-2.3c1.52-1.589,3.066-3.159,4.612-4.73,1.94-1.971,3.878-3.94,5.771-5.953a4.124,4.124,0,0,1,3.394-1.467c9.224.019,18.755.03,28.209-.228,8.016-.234,13.184-5.709,13.167-13.945l-.013-3.932c-.013-3.8-.026-7.6-.016-11.4q.023-7.31.06-14.625.055-12.362.083-24.721a13.465,13.465,0,0,0-13.911-13.9q-26.543,0-53.066.014c-9.076,0-14.713,5.578-14.713,14.555q-.022,27.1.014,54.246C2529.972,7384.042,2535.5,7389.66,2543.708,7389.835Zm58.569-37.591c.014,7.574.084,15.152.155,22.728l0,.276c.019,1.989-.331,3.315-1.069,4.059s-2.079,1.115-4.092,1.115l-7.447.016c-7.153.02-14.552.04-21.824-.016h-.076a7.353,7.353,0,0,0-5.716,2.441c-1.916,2.082-3.9,4.14-5.992,6.322l-.461.479v-1.974a7.215,7.215,0,0,0-1.916-5.376,7.449,7.449,0,0,0-5.42-1.908c-.491,0-.983.006-1.476.012-1.3.019-2.529.035-3.759-.065a3.722,3.722,0,0,1-3.8-4.046q-.043-27.594-.015-55.171c0-3.051,1.606-4.671,4.643-4.687q26.906-.04,53.782,0c3.692,0,4.476,2.621,4.484,4.817q.009,6.94,0,13.877Q2602.265,7343.694,2602.278,7352.244Z" transform="translate(-2453.061 -7245.025)" fill="#611735"/>
  <path id="Path_1517" data-name="Path 1517" d="M2603.294,7327.581c2.8,1.68,5.8,3.393,9.743,5.554,4.752,2.626,6.708,2.218,9.961-2.1,1.721-2.29,3.278-3.36,5.215-3.579a4.421,4.421,0,0,1,4.859,3.022c.556,1.519.688,2.261-2.04,3.957-.983.621-2.033,1.2-3.049,1.763-.934.519-1.87,1.036-2.782,1.6-3.394,2.085-7.954,5.606-8.388,12.093a96.387,96.387,0,0,0-.03,10.632c.22,4.371,3.087,7.021,7.679,7.091.989.008,1.979.005,2.969,0l1.471.027c.516,0,1.031,0,1.547.008s1.047.012,1.572.012c.686,0,1.373-.01,2.062-.038a7.744,7.744,0,0,0,5.529-2.416,6.415,6.415,0,0,0,1.578-4.832c-.23-3.27.95-5.435,3.967-7.248a23.947,23.947,0,0,0,2.392-1.765c3.258-2.619,7.241-6.34,9.126-11.915a26.232,26.232,0,0,0-1.672-20.213,29.494,29.494,0,0,0-16.91-14.875c-14.069-4.683-28.913,1.45-36.936,15.268A5.567,5.567,0,0,0,2603.294,7327.581Zm27.229-15.258c.156.009.3.019.55.054.288.026.576.063.926.121.173.024.332.06.531.1.268.051.533.1.946.2a3.461,3.461,0,0,1,.367.094c.222.054.446.12.715.2l.391.12c.133.044.267.087.477.172q.514.177,1.026.395l.137.053c.189.077.377.163.577.256.147.067.3.135.506.254.262.132.511.262.772.411.331.188.649.373.971.583.214.133.414.267.636.42s.465.322.722.519a14.448,14.448,0,0,1,1.626,1.363c.269.258.54.528.817.817.269.272.513.555.765.858.213.253.426.518.655.822.1.126.191.262.363.509a3.484,3.484,0,0,1,.275.41c.14.2.268.408.418.648.109.169.216.349.335.569.149.261.288.511.45.861.1.184.182.365.279.589l.066.138c.049.107.1.208.149.339l.369.961a2.788,2.788,0,0,1,.13.372c.046.126.081.244.123.387a17.715,17.715,0,0,1,.725,3.475l.063.627c.024.2.036.421.05.694s.026.564.026.86a21.812,21.812,0,0,1-.121,2.268c-.364,3.394-2.07,6.2-5.709,9.374-.43.376-.887.739-1.336,1.074l-.553.4c-.314.226-.629.454-.954.681-4.311,3.009-8.185,6.648-7.844,12.816l-.813,0c-1.725-.005-3.288-.016-4.806.024h-.142l-.07-.006c0-.04,0-.085,0-.137.029-.945.029-1.891.029-2.838v-1.055c0-1.039-.006-2.072.014-3.107a4.883,4.883,0,0,1,2.522-4.213c1.233-.79,2.494-1.53,3.757-2.268,1-.588,2.008-1.179,3-1.787,3.971-2.441,6.388-5.388,7.182-8.763.718-3.048.057-6.232-1.958-9.464a13.844,13.844,0,0,0-8.752-6.265,14.36,14.36,0,0,0-10.976,2.02,29.559,29.559,0,0,0-3.659,2.942c-.331.295-.67.6-1.02.9l-4.9-2.783a23.4,23.4,0,0,1,9.558-7.559c.295-.121.577-.228.839-.324l.413-.146c.342-.118.684-.224,1.065-.329a12.1,12.1,0,0,1,1.33-.334c.336-.079.688-.144,1.122-.213a3.047,3.047,0,0,1,.424-.063l.173-.021.606-.08a1.193,1.193,0,0,0,.226-.017l.269-.019c.126-.01.252-.021.49-.026.288-.021.575-.023.855-.023.34,0,.684.009,1.062.025C2630,7312.277,2630.232,7312.29,2630.524,7312.323Z" transform="translate(-2422.623 -7246.857)" fill="#611735"/>
  <path id="Path_1518" data-name="Path 1518" d="M2624.8,7350.435a14.441,14.441,0,0,0-14.748,13.645,14.622,14.622,0,0,0,3.953,10.637,14.147,14.147,0,0,0,10.039,4.457c.115,0,.229,0,.344,0a14.376,14.376,0,0,0,.413-28.743Zm-.427,9.425a6.02,6.02,0,0,1,.95.1c.17.038.34.087.483.127a4.329,4.329,0,0,1,.824.354,6.147,6.147,0,0,1,.579.372,3.356,3.356,0,0,1,.363.292,4.267,4.267,0,0,1,.365.36,3.187,3.187,0,0,1,.307.37,3.221,3.221,0,0,1,.252.368c.059.092.117.185.144.23l.2.393a3.114,3.114,0,0,1,.158.414c.026.077.053.162.07.237l.064.242c.024.1.042.2.063.321a4.326,4.326,0,0,1,.06.62,5.015,5.015,0,0,1-1.435,3.615,4.863,4.863,0,0,1-3.5,1.5h-.024a5.1,5.1,0,0,1-4.885-4.8,4.984,4.984,0,0,1,1.457-3.623A4.894,4.894,0,0,1,2624.374,7359.86Z" transform="translate(-2418.4 -7226.254)" fill="#611735"/>
  <path id="Path_1519" data-name="Path 1519" d="M2663.345,7444c-.3-.455-1.881-2.724-3.782-2.754h-.023a25.422,25.422,0,0,0-4.926.638q-.58.114-1.179.225a13.147,13.147,0,0,0-1.542-1.517c-1.315-1.158-2.123-1.942-2.112-3.255,1.556-.891,4.14-2.817,2.994-6.257a4.971,4.971,0,0,0-.748-1.457l3.569-2.378-4.516,1.5c-1.3-.831-3.064-.83-4.97-.619-1.285-2.038-3.158-3.85-6.241-2.777-3.365,1.175-3.217,4.515-2.844,6.669-1.58.94-3.86,2.831-2.821,6.108,1.04,3.248,3.893,3.431,6.765,2.954.074.11.153.223.23.333a9.461,9.461,0,0,1,.693,1.08,7.879,7.879,0,0,0,.956,7.3c-2.682,2.468-4.88,5.658-2.22,9.46,2.731,3.895,6.6,2.771,9.6,1.181,1.783,1.95,3.712,3.492,5.907,3.492a5.833,5.833,0,0,0,3.421-1.238c.429-.309,2.559-1.942,2.529-3.85a23.99,23.99,0,0,0-.669-4.752q-.127-.6-.252-1.23C2663.635,7450.634,2665.788,7447.682,2663.345,7444Zm-22.433-8.216a3.715,3.715,0,0,0-.609.233,4.622,4.622,0,0,0-.494.25,4,4,0,0,1-.91.435c-.014-.025-.033-.061-.053-.1a1.1,1.1,0,0,1-.047-.116,2.877,2.877,0,0,1,.826-.346,3.665,3.665,0,0,0,2.64-1.972,2.763,2.763,0,0,0,.2-.738h1.731a2.85,2.85,0,0,0,1.347.109l.539-.012.573-.262.238,0a5.307,5.307,0,0,0-.5.229l-.162.082a2.4,2.4,0,0,0-.34.2l-.179.125a2.352,2.352,0,0,0-.245.2c-.806.733-1.517,2.064-.332,4.224l.079.146a3.53,3.53,0,0,1,.259.549c.037.092.056.158.069.193-.036.018-.076.038-.12.057a.549.549,0,0,0-.1.05c-.02-.033-.044-.081-.073-.143a5.178,5.178,0,0,1-.291-.8,5.177,5.177,0,0,0-.959-1.835,2.708,2.708,0,0,0-.892-.665,2.656,2.656,0,0,0-1.152-.256A3.481,3.481,0,0,0,2640.913,7435.784Zm.713-5.342a1.444,1.444,0,0,1,.3.334,6.541,6.541,0,0,0,.353.846l-.076.024a6.157,6.157,0,0,0-.379-.8C2641.739,7430.689,2641.675,7430.556,2641.626,7430.442Zm14.444,17.114a11.012,11.012,0,0,1,1.221-.812.974.974,0,0,1,.873-.071,1.059,1.059,0,0,1,.429.65l-.027.03a9.079,9.079,0,0,1-1.352,1.31l-.1.071c-3.633,2.62-3.775,3.5-1.178,7.2a3.574,3.574,0,0,0,.341.431l-.033.3c-.049.326-.108.654-.162.946a5.6,5.6,0,0,1-.6-.085.932.932,0,0,1-.279-.08l-.132-.068a1.052,1.052,0,0,1-.193-.2c-.114-.128-.23-.265-.346-.418s-.215-.295-.358-.5l-.146-.209a9.929,9.929,0,0,0-.778-1.033l-.119-.119a2.341,2.341,0,0,0-.3-.291c-.053-.046-.112-.095-.173-.141a1.968,1.968,0,0,0-.38-.253,1.906,1.906,0,0,0-.4-.188,2.839,2.839,0,0,0-.4-.117c-1.257-.261-2.337.486-3.291,1.136a6.171,6.171,0,0,1-1.373.789,2.829,2.829,0,0,1-1.12-.13,2.918,2.918,0,0,1,.185-1.052,2.2,2.2,0,0,1,.242-.272,8.978,8.978,0,0,1,.956-.782c.221-.168.438-.334.628-.486.164-.132.313-.264.384-.331a3.161,3.161,0,0,0,.562-.55,4.193,4.193,0,0,0,.417-.6,2.937,2.937,0,0,0,.292-.788,2.582,2.582,0,0,0-.069-1.33,2.816,2.816,0,0,0-.213-.539l-.094-.19c-.042-.083-.088-.162-.137-.246l-.588-.889c-.216-.3-.437-.609-.59-.857l-.192-.332a2.474,2.474,0,0,1-.124-.271,3.1,3.1,0,0,1,.021-1.1,1.8,1.8,0,0,1,.443.024,2.084,2.084,0,0,1,.418.088,1.222,1.222,0,0,1,.235.086l.033.014c.058.033.1.066.115.07a6.41,6.41,0,0,1,1.086,1.279,4.936,4.936,0,0,0,2.676,2.278C2653.736,7449.252,2654.977,7448.354,2656.07,7447.557Zm-9.511-12.5v0h0Zm.417,10.089.047,0,0,0A.456.456,0,0,1,2646.976,7445.143Zm1.07-12.51c-.1.083-.19.159-.282.227v-.136c.043-.019.084-.038.126-.052l.017-.006a1.354,1.354,0,0,1,.136-.035Z" transform="translate(-2408.059 -7193.972)" fill="#611735"/>
  <path id="Path_1520" data-name="Path 1520" d="M2716.13,7345.949c-.178-4.883-1.248-7.679-5.53-8.406-3.977-.7-5.759,1.5-7.719,6.423-2.626-.132-7.4.166-8.308,5.233-.838,4.562,1.768,6.568,6.368,8.078-.03,3.937.8,7.5,5.369,8.359a7.04,7.04,0,0,0,1.285.123c3.684,0,5.489-3.272,6.615-6.556,4.569-.179,7.7-1.3,8.347-5.483C2723.232,7349.4,2720.53,7347.416,2716.13,7345.949Zm-7.643,11.854c-.063.42-.123.837-.2,1.2a1.233,1.233,0,0,1-.434.8c-.026.014-.106.055-.332-.031a2.421,2.421,0,0,1-.835-1.358,6.833,6.833,0,0,1,.1-1.695c.156-1.192.334-2.544-.461-3.583a4.752,4.752,0,0,0-3.3-1.4,6.569,6.569,0,0,1-1.657-.379,2.4,2.4,0,0,1-.933-1.048,2.346,2.346,0,0,1,.214-.241l.272-.271c.057-.056.113-.116.17-.165l.014-.01,2.058.3c4.013.479,4.716-.063,5.365-4.117a6.19,6.19,0,0,0,.057-.9c0-.109,0-.215,0-.313a7.5,7.5,0,0,1,1.156-1.026,2.518,2.518,0,0,1,.656,1.08,7.027,7.027,0,0,1-.079,1.778,5.124,5.124,0,0,0,.471,3.678,3.124,3.124,0,0,0,.354.4,3.08,3.08,0,0,0,.748.479l.407.151a3.892,3.892,0,0,0,.381.107l.433.087a.76.76,0,0,0,.218.031c.239.044.487.073.736.1l.316.038a8.092,8.092,0,0,1,1.089.192,1.75,1.75,0,0,1,.348.131,2.454,2.454,0,0,1,.814.963,2.579,2.579,0,0,1-1.159.689l-.03,0a4.211,4.211,0,0,1-.938-.013c-.255-.027-.511-.069-.765-.106a6.56,6.56,0,0,0-2.542-.064,2.806,2.806,0,0,0-.984.436C2708.96,7354.6,2708.709,7356.3,2708.487,7357.8Z" transform="translate(-2381.893 -7231.881)" fill="#611735"/>
  <path id="Path_1521" data-name="Path 1521" d="M2499.777,7381.852a25.727,25.727,0,0,0,3.228-3.8c.245-.328.493-.66.748-1,4.521.7,7.334-.846,8.361-4.592,1.3-4.684-1.99-6.912-5.4-8.276.014-.175.029-.35.044-.525a7.928,7.928,0,0,0-.354-4.09,8.322,8.322,0,0,0-4.569-4.113c-4.4-1.409-6.517,1.767-8.167,5.515-3.282-.449-7.232-.217-8.609,4.1-1.4,4.44,1.1,6.78,5.443,8.751-.214,3.939.2,7.917,4.709,8.79a8.114,8.114,0,0,0,1.554.151A4.554,4.554,0,0,0,2499.777,7381.852Zm-7.47-15.374a7.091,7.091,0,0,1,.7.152c.077.019.155.047.251.078l.447.143c.165.048.313.106.467.165l.146.054a3.315,3.315,0,0,0,2.671-.032,3.839,3.839,0,0,0,1.762-2.417,4.982,4.982,0,0,0,.121-.528c.053-.213.09-.422.132-.67l.113-.587c.034-.176.083-.351.089-.4.049-.124.092-.25.15-.37l.167-.2a3.77,3.77,0,0,1,.787-.607l.236-.005a3.493,3.493,0,0,1,.425.84l.065.279a3.724,3.724,0,0,1-.079.8c-.057.315-.133.64-.209.958-.054.232-.109.464-.146.644a3.941,3.941,0,0,0-.082.454,3.8,3.8,0,0,0,.268,2.34c.589,1.16,1.9,1.477,3.053,1.754a6.186,6.186,0,0,1,1.554.509,2.413,2.413,0,0,1,.511.449,2.239,2.239,0,0,1,.172.215,1.761,1.761,0,0,1,.252.422l.021.057a6.587,6.587,0,0,1-.647.6l-.072.06c-.051-.007-.1-.013-.15-.021l-.232-.039c-.169-.027-.288-.044-.436-.079-4.9-1.111-5.706-.634-7.119,4.252-.4,1.388-.665,1.335-1.122,1.212a1.632,1.632,0,0,1-.373-.137l-.03.045c-.032-.054-.066-.105-.1-.159l-.087-.217a2.377,2.377,0,0,1,.1-1.11c.065-.229.116-.456.167-.682l.059-.262c1.05-4.115.531-5.017-3.493-6.043-.224-.054-.47-.091-.716-.124-.125-.019-.3-.041-.413-.065a6.927,6.927,0,0,1-.892-1.252,3.04,3.04,0,0,1,1.033-.486A1.546,1.546,0,0,1,2492.307,7366.478Zm3.1,11.537.436-.827.175-.083Z" transform="translate(-2472.649 -7224.222)" fill="#611735"/>
  <path id="Path_1522" data-name="Path 1522" d="M2630.187,7285.824c1.981,3.025,3.913,4.929,6.411,4.929a6.7,6.7,0,0,0,2.954-.778c4.491-2.234,3.646-6.6,2.835-9.037,3.449-2.123,6.1-4.734,4.449-8.879-1.582-3.982-4.858-4.335-9.311-3.4-1.926-3.322-4.5-6.113-8.729-4.374-.7.289-3,1.372-3.389,3.169a25.9,25.9,0,0,0-.417,5.05c-.009.411-.016.831-.027,1.257-4.068,2.3-5.453,5.188-4.115,8.591C2622.658,7286.938,2626.628,7286.778,2630.187,7285.824Zm-1.122-7.514a3.27,3.27,0,0,0,.637-.251,2.2,2.2,0,0,0,.463-.237c.784-.456,2.461-1.826,1.155-4.729-.107-.238-.237-.48-.365-.725a3.877,3.877,0,0,1-.47-1.132,3.166,3.166,0,0,1,.487-1.4,4.64,4.64,0,0,1,1.14.7,4.325,4.325,0,0,1,.5,1.377l.051.2a5.091,5.091,0,0,0,.2.628,4.353,4.353,0,0,0,.937,1.544,3.073,3.073,0,0,0,.362.313,2.334,2.334,0,0,0,.507.315,2.093,2.093,0,0,0,.3.127,1.822,1.822,0,0,0,.457.119,3.268,3.268,0,0,0,1.28-.011,5.913,5.913,0,0,0,1.676-.61,8.822,8.822,0,0,1,2.048-.78.9.9,0,0,1,.708.063,1.179,1.179,0,0,1,.308.774,3.213,3.213,0,0,1-.672.712,9.224,9.224,0,0,1-2.178.93,5.719,5.719,0,0,0-1.08.458,4.163,4.163,0,0,0-.821.615,2.828,2.828,0,0,0-.346.421,2.439,2.439,0,0,0-.426.982,3.6,3.6,0,0,0,.225,2.14,3.548,3.548,0,0,0,.263.6l.512.981a2.034,2.034,0,0,1,.129.29c.042.1.083.205.109.286a.767.767,0,0,1,.032.2l.006.033a3.4,3.4,0,0,1-.476,1.451,2.468,2.468,0,0,1-.924-.523,7.414,7.414,0,0,1-.822-1.579,5.2,5.2,0,0,0-2.213-2.94,2.608,2.608,0,0,0-1.13-.247,6.739,6.739,0,0,0-2.46.664,6.376,6.376,0,0,1-1.642.522,1.935,1.935,0,0,1-1.116-.47,4.1,4.1,0,0,1,.734-1.116.875.875,0,0,1,.184-.129,6.736,6.736,0,0,1,1.124-.4Z" transform="translate(-2413.938 -7263.754)" fill="#611735"/>
  <path id="Path_1523" data-name="Path 1523" d="M2538.625,7478.422l-.026-.01a25.416,25.416,0,0,0-4.563-1.142c-.393-.072-.8-.149-1.2-.229-1.271-3.133-3.238-5.946-7.56-5.025-3.894.837-4.749,3.836-4.615,8.135-3.944,1.613-6.147,3.527-5.323,7.417.905,4.243,3.569,5.123,8.115,4.906,1.17,2.848,2.762,5.512,5.871,5.512a6.347,6.347,0,0,0,1.294-.142c.957-.192,3.261-.809,3.973-2.4a23.746,23.746,0,0,0,1.282-4.713c.077-.385.156-.776.239-1.17,2.146-.741,6.022-2.59,4.979-7.463C2541.022,7481.795,2540.4,7479.146,2538.625,7478.422Zm-8.347,12.392.03.334a3.889,3.889,0,0,1-.523,1.223,8.976,8.976,0,0,1-.849-.865,3.179,3.179,0,0,1-.087-.454c-.033-.227-.069-.449-.118-.646-.692-2.905-1.272-3.924-3.129-3.924a13.063,13.063,0,0,0-2.536.348c-.178.039-.364.092-.552.147-.1.029-.229.067-.325.093a10.285,10.285,0,0,1-1.179-.6,2.4,2.4,0,0,1,.689-.772,6.411,6.411,0,0,1,1.491-.492,4.843,4.843,0,0,0,3.023-1.592,2.3,2.3,0,0,0,.357-.8,3.008,3.008,0,0,0,.063-1.26,1.914,1.914,0,0,0-.06-.408c-.027-.185-.057-.375-.094-.55l-.1-.467c-.044-.19-.089-.383-.143-.689-.013-.056-.017-.109-.039-.259s-.033-.269-.047-.31l.026-.194a1.43,1.43,0,0,1,.09-.354,2.1,2.1,0,0,1,.335-.627,1.337,1.337,0,0,1,.125.062,1.792,1.792,0,0,1,.256.167,1.72,1.72,0,0,1,.162.123l.254.253a6.218,6.218,0,0,1,.489,1.521,4.526,4.526,0,0,0,1.639,3.048,4.614,4.614,0,0,0,3.471.146,7.136,7.136,0,0,1,1.578-.223,1,1,0,0,1,.226.051c.189.08.368.17.451.209l.1.076c-.116.228-.315.535-.45.743-.069.1-.137.211-.2.313C2530.285,7485.577,2529.873,7486.226,2530.278,7490.813Z" transform="translate(-2459.453 -7173.72)" fill="#611735"/>
  <path id="Path_1524" data-name="Path 1524" d="M2625.63,7528.726h0a23.03,23.03,0,0,0-4.9.045c-.373.028-.751.058-1.133.083-3.148-4.557-6.436-3.781-8.172-2.863-.668.358-2.861,1.668-3.066,3.47a21.533,21.533,0,0,0,.112,4.7c.037.378.074.764.107,1.153-1.861,1.286-5.055,4.065-2.789,8.3.335.639,1.565,2.738,3.314,2.921a24.722,24.722,0,0,0,4.734-.062c.39-.029.786-.061,1.192-.086,1.779,2.324,3.662,3.49,5.63,3.49a6.158,6.158,0,0,0,3.153-.957c4.082-2.446,2.914-6.537,1.911-8.837,2.778-2.009,5-4.551,3.27-8.146C2628.657,7531.249,2627.419,7528.965,2625.63,7528.726Zm-5.5,12.708c.163.278.348.595.54.94a3.793,3.793,0,0,1,.548,1.5l-.789.465a1.113,1.113,0,0,1-.231-.213c-.045-.047-.087-.1-.1-.113-.2-.293-.392-.624-.568-.94-1.3-2.328-2.127-3.355-3.458-3.355a9.035,9.035,0,0,0-3.667,1.321c-.126.07-.261.15-.4.232-.1.059-.225.137-.324.19a4.733,4.733,0,0,1-.829-.264,6.389,6.389,0,0,1,.2-.892l.042-.022c.124-.07.248-.141.345-.206,4.053-2.586,4.29-3.363,2.3-7.558-.016-.034-.035-.07-.055-.107.1-.325.2-.648.31-.974a2.686,2.686,0,0,1,1.013.46c.066.087.132.183.173.25.09.156.167.323.265.534l.183.4c.095.21.189.417.286.614a4.487,4.487,0,0,0,.514.8c.08.1.16.19.172.2a2.569,2.569,0,0,0,.583.5,1.913,1.913,0,0,0,.329.169,2.317,2.317,0,0,0,.67.224,3.624,3.624,0,0,0,2.4-.522l.584-.347a12.494,12.494,0,0,1,1.848-.98.614.614,0,0,1,.545,0,1.025,1.025,0,0,1,.3.7,5.039,5.039,0,0,1-1.035.864c-2.059,1.13-3.241,1.829-3.577,3.049C2618.954,7539.431,2619.472,7540.314,2620.13,7541.434Z" transform="translate(-2420.579 -7150.593)" fill="#611735"/>
  <path id="Path_1525" data-name="Path 1525" d="M2684.1,7330.707c2.03,3.476,5.576,2.526,7.676,1.656,1.267,1.445,2.813,2.709,4.663,2.709a4.87,4.87,0,0,0,2.542-.778c.385-.231,2.313-1.466,2.414-3.162a18.316,18.316,0,0,0-.332-3.853q-.067-.42-.132-.853c2.582-2.324,3.182-4.686,1.789-7.024-.312-.535-1.451-2.288-2.981-2.354a23.706,23.706,0,0,0-4.112.3l-.771.1c-1.5-1.823-3.735-3.579-6.933-1.9-3.319,1.745-3.014,4.733-1.918,7.833C2684.073,7325.115,2682.269,7327.592,2684.1,7330.707Zm5.691-3.789.276-.134a3.229,3.229,0,0,0,1.863-2.176,3.283,3.283,0,0,0-.873-2.761,1.669,1.669,0,0,1-.117-.19c-.069-.117-.136-.229-.235-.371s-.178-.262-.282-.427a3.7,3.7,0,0,1-.229-.4l-.081-.169h0l-.021-.027a.731.731,0,0,1,.2-.168c.113-.078.185-.109.2-.124a2.178,2.178,0,0,1,.567.862,3.991,3.991,0,0,0,2.468,2.481c1.47.4,2.838-.437,4-1.252a1.633,1.633,0,0,1,.8-.11,9.939,9.939,0,0,1-1.383,1.064,3.179,3.179,0,0,0-.993,5.392c.167.2.479.583.517.665a2.482,2.482,0,0,1-.023.479c-.138-.03-.281-.067-.391-.092l-.135-.036c-2.335-3.039-3.063-3.226-6.36-1.682l-.189.094a1.2,1.2,0,0,1-.3-.021,4.62,4.62,0,0,1,.233-.637C2689.407,7327.1,2689.64,7326.99,2689.787,7326.918Z" transform="translate(-2386.688 -7241.636)" fill="#611735"/>
  <path id="Path_1526" data-name="Path 1526" d="M2683.828,7452.946c-1.854-2.35-3.743-3.926-6.644-2.391-.653.357-2.183,1.339-2.288,2.729a22.471,22.471,0,0,0,.134,3.682c.018.183.033.364.05.548-2.063,1.2-3.7,2.914-2.511,6.038,1.344,3.437,4.12,3.453,7.071,2.675,1.2,1.665,2.612,3.122,4.5,3.12a4.751,4.751,0,0,0,2.24-.625c1.012-.539,2.237-1.447,2.329-2.693a21.224,21.224,0,0,0-.106-3.605q-.035-.394-.068-.8c1.953-1.477,3.664-3.51,2.194-6.447C2689.493,7452.678,2687.175,7451.932,2683.828,7452.946Zm1.011,5.567c-.266.119-.55.253-.815.376-.163.076-.346.167-.51.26l-1.172.662.589,1.212c.161.331.338.647.512.957a4.857,4.857,0,0,1,.635,1.426,1.336,1.336,0,0,1-.091.434,2,2,0,0,1-.622-.272,4.231,4.231,0,0,1-.672-1.178c-.149-.321-.306-.662-.491-1l-.623-1.168-1.212.527a4.2,4.2,0,0,0-.529.28c-.225.132-.449.264-.672.383l-.278.151c-.113.064-.222.128-.434.227a3.774,3.774,0,0,1-.343.162c-.134.046-.269.092-.364.115a1.147,1.147,0,0,1-.293-.046c.01-.063.021-.125.03-.184a6.551,6.551,0,0,0,1.449-.861,3.872,3.872,0,0,0,.837-1c.881-1.51.393-3.184-.284-4.686l.065-.167a1.535,1.535,0,0,1,.2.072,4.889,4.889,0,0,0,2.822,2.936,4.4,4.4,0,0,0,3.615-.758l.054.018a1.552,1.552,0,0,1-.13.38l-.1.1-.019.012a2.771,2.771,0,0,1-.495.3c-.152.08-.3.153-.457.229Z" transform="translate(-2391.52 -7183.191)" fill="#611735"/>
  <path id="Path_1527" data-name="Path 1527" d="M2527.156,7495.177a4.274,4.274,0,0,0-1.752-3.869c-2.8-2.312-5.111-.681-6.549.757-2.077-1.059-4.469-1.574-6.342.892-2.031,2.641-.483,5.008.849,6.459-1.415,2.367-1.2,4.437.652,6.16a3.857,3.857,0,0,0,2.7,1.161,6.862,6.862,0,0,0,4.046-1.815c3.345,1.655,5.267.5,6.3-.837,1.974-2.52.47-4.986-.808-6.509A5.578,5.578,0,0,0,2527.156,7495.177Zm-7.546,6.086,0,0h0Zm-.278-1.448a2.5,2.5,0,0,0-.427.2,2.782,2.782,0,0,0-.38.252c-.044.031-.09.071-.139.112s-.131.1-.22.183l.129-.168c.2-.26.4-.529.6-.821l.728-1.085-1.013-.825c-.275-.227-.552-.428-.817-.624a3.154,3.154,0,0,0,2.461.142.686.686,0,0,0,.132-.054l.208-.087a3.622,3.622,0,0,0,.559-.351l.067-.052a3.121,3.121,0,0,0,.182,2.8,3.8,3.8,0,0,0,.29.444c-.062-.023-.123-.049-.185-.069a2.5,2.5,0,0,0-.622-.167A2.85,2.85,0,0,0,2519.332,7499.814Z" transform="translate(-2461.023 -7165.797)" fill="#611735"/>
  <path id="Path_1528" data-name="Path 1528" d="M2490.036,7452.143c-2.731-2.169-5.458-.248-6.906,1.071-2.635-.938-4.943-.258-6.156,1.87-1.706,2.955.073,4.849,1.576,6.07-.637,1.782-1.116,4.5,1.928,6.124a4.47,4.47,0,0,0,2.105.583,4.9,4.9,0,0,0,3.739-2.341l.11.041c1.546.578,4.139,1.55,5.97-1.42,1.737-2.842.095-4.821-1.3-6.194C2491.818,7456.364,2492.415,7454.032,2490.036,7452.143Zm-6.291,7.861-.125-.484c-.02-.053-.043-.105-.064-.155a2.089,2.089,0,0,0-.352-.621c-.086-.1-.174-.2-.261-.3a1.26,1.26,0,1,1,1.676-.271l.328-.122a3.271,3.271,0,0,0,1.118-.8,3.2,3.2,0,0,0-.16,2,3.99,3.99,0,0,0,2.346,2.425.7.7,0,0,1-.1.02,5.183,5.183,0,0,1-1.144-.652c-.295-.2-.606-.407-.941-.6l-1.227-.727-.729,1.226c-.206.346-.378.681-.539.994a4,4,0,0,1-.617,1,.591.591,0,0,1-.138.054l.006-.008a6.152,6.152,0,0,0,.36-.516l.139-.253a6.214,6.214,0,0,0,.268-.582c.042-.124.075-.236.1-.342l.042-.158A2.86,2.86,0,0,0,2483.745,7460Zm-2.272,2.369,0,0,0,0Z" transform="translate(-2476.278 -7182.666)" fill="#611735"/>
  <path id="Path_1529" data-name="Path 1529" d="M2504.776,7326.895c.091,1.643.7,3.954,3.718,4.311a5.644,5.644,0,0,0,.606.034c1.533,0,3.212-.7,3.928-3.409,1.689-.1,4.023-.712,4.328-3.829l0-.024.017-.009-.016-.01c.258-2.9-1.76-3.91-3.4-4.389a4.013,4.013,0,0,0-3.5-4.279c-3.12-.542-4.265,1.649-4.768,3.357-3.258.107-4.082,2.236-4.274,3.6a3.966,3.966,0,0,0,.689,3.079A4.669,4.669,0,0,0,2504.776,7326.895Zm3.192-3.835a2.47,2.47,0,0,0,1.493-1.129l.208.149c.313.223.619.449.926.677.219.162.44.324.668.488a2.609,2.609,0,0,0-2.027,1.388,1.865,1.865,0,0,0-.132-.361l-.173-.364-.09-.091A2.452,2.452,0,0,0,2507.968,7323.059Zm-1.385-.413h-.013l.033-.859Z" transform="translate(-2465.424 -7241.492)" fill="#611735"/>
  <path id="Path_1530" data-name="Path 1530" d="M2512.109,7340.117l.082.4-.076.091a5.515,5.515,0,0,0-.868,3.5,8.554,8.554,0,0,1-.037.882c-.019.558-.088,1.095-.149,1.594a5.32,5.32,0,0,0,.327,3.561c.066.111.133.214.2.311l-.157.465.431-.124a3.121,3.121,0,0,0,1.867,1.038,4.081,4.081,0,0,0,2.845-.751,4.186,4.186,0,0,0,2.583,1.022,3.745,3.745,0,0,0,2.361-.927l.535.207-.162-.542c1.669-1.654,1.043-3.439.275-4.707a3.614,3.614,0,0,0,.188-4.923l.3-.731-.732.252c-.887-.849-2.445-1.637-4.673-.255a4.382,4.382,0,0,0-2.894-1.092,2.989,2.989,0,0,0-1.911.864Zm3.865,4.675.886.358.272.1h.645a5.668,5.668,0,0,0-.031,1.117l-.244-.243-1.587.5c.049-.145.1-.285.141-.417l.128-.365Z" transform="translate(-2461.29 -7231.031)" fill="#611735"/>
  <path id="Path_1531" data-name="Path 1531" d="M2601.527,7549.858c-.2-.093-.407-.185-.6-.282l-.118-.141c-.636-.766-2.145-2.58-4.066-2.024l-.359-.427-.162.634a3.96,3.96,0,0,0-.734.484,11.638,11.638,0,0,0-3.735,6.182,3.618,3.618,0,0,0-.084.964l-.261.249.3.073c.324,1.88,2.491,2.421,3.4,2.647.133.034.266.065.394.1.216.138.443.3.67.473.894.651,1.9,1.382,3.017,1.194l.476.541.182-.761a5.414,5.414,0,0,0,2.013-2.239c.18-.295.358-.591.55-.849l.69-.921a3.246,3.246,0,0,0,1.021-1.259,3.116,3.116,0,0,0-.141-2.723A4.541,4.541,0,0,0,2601.527,7549.858Zm-2.848,3.808-.408.369-.113.48c-.02-.021-.04-.043-.059-.064l-.288-.313-.412-.108-.175-.045.421-.383.137-.529.417.493Z" transform="translate(-2426.462 -7141.206)" fill="#611735"/>
  <path id="Path_1532" data-name="Path 1532" d="M2536.856,7421.886a13.726,13.726,0,0,0,.967-14.639c-2.622-5.059-7.239-7.7-13.294-7.637-1.749.021-3.5.014-5.25.006l-2.647-.006c-4.5.018-5.8,1.3-5.8,5.715q-.012,7.594,0,15.191l0,7.605-.014,17.436c0,4.439,2.9,5,4.153,5.027,2.058.046,4.179.085,6.338.085,2.536,0,5.122-.055,7.721-.215a14.123,14.123,0,0,0,6.045-2.082,15.832,15.832,0,0,0,7.861-12.752A16.711,16.711,0,0,0,2536.856,7421.886Zm-11.124-3.776c-1.46.107-2.948.081-4.521.052l-.821-.013v-9.079l.855-.014c1.576-.027,3.065-.053,4.533.05a4.509,4.509,0,0,1-.046,9Zm-5.443,9.726c.563-.012,1.128-.027,1.689-.043a45.837,45.837,0,0,1,6.666.133c2.719.323,5.174,3.727,4.958,6.873a6.959,6.959,0,0,1-6.066,6.425,8.923,8.923,0,0,1-1.06.026l-6.187,0Z" transform="translate(-2461.332 -7204.974)" fill="#611735"/>
  <path id="Path_1533" data-name="Path 1533" d="M2679.554,7419.562a21.219,21.219,0,0,0,14.6-5.932c3.133-2.942,3.675-5.618,1.6-7.96a4.141,4.141,0,0,0-2.942-1.5c-1.521-.011-3.119.726-5.019,2.5l0,0a14.1,14.1,0,0,1-2.026,1.584,7,7,0,0,1-.646.386,8.81,8.81,0,0,1-.9.462,10.861,10.861,0,0,1-2.1.76,11.035,11.035,0,0,1-1.418.263,6.134,6.134,0,0,1-.619.057,10.64,10.64,0,0,1-4.076-.538,10,10,0,0,1-1.639-.688,5.248,5.248,0,0,1-.471-.254l-.135-.078a5.294,5.294,0,0,1-.515-.32,4.053,4.053,0,0,1-.441-.314c-.234-.17-.467-.35-.729-.569-.172-.135-.33-.282-.544-.48-.067-.057-.133-.126-.2-.2-.325-.327-.652-.664-.976-1.057-.16-.184-.307-.38-.484-.617-.328-.422-.617-.857-.885-1.279a17.487,17.487,0,0,1-1.351-2.652c-.129-.295-.229-.591-.338-.9-.126-.355-.242-.71-.356-1.161a8.322,8.322,0,0,1-.271-1.12,14.668,14.668,0,0,1-.261-1.521,18.258,18.258,0,0,1-.046-4.293,7.273,7.273,0,0,1,.082-.754c.024-.256.074-.515.123-.763l.057-.323c.007-.057.025-.113.048-.211.067-.293.135-.575.231-.934.016-.074.034-.143.054-.214l.064-.21c.016-.043.03-.084.047-.129l.33-.848-.037-.04,0-.005.1-.259a10.748,10.748,0,0,1,.41-1,17.729,17.729,0,0,1,1.252-2.28,15.816,15.816,0,0,1,2.219-2.706,13.515,13.515,0,0,1,2.393-1.845,2.681,2.681,0,0,1,.354-.208l.144-.076a4.082,4.082,0,0,1,.431-.22,9.438,9.438,0,0,1,1.205-.494c.11-.043.218-.075.322-.107l.22-.069a7.974,7.974,0,0,1,1.275-.27l.156-.028c.07-.014.142-.019.26-.032a10.865,10.865,0,0,1,1.935-.048,10.661,10.661,0,0,1,1.43.185c.2.034.4.087.7.167a5.455,5.455,0,0,1,.609.176,9.845,9.845,0,0,1,1.266.487,6.965,6.965,0,0,1,.648.314c.206.095.4.2.592.317l.173.1c.14.081.283.167.428.264.2.13.4.264.664.454a5.1,5.1,0,0,1,.49.377c.4.3.788.644,1.168,1,2.328,2.177,4.829,2.352,6.858.485a4.383,4.383,0,0,0,1.509-3.143,5.571,5.571,0,0,0-1.772-4.011,23.484,23.484,0,0,0-15.383-7.151l-.291-.027-.279.089c-.9.288-1.817.539-2.737.792a31.66,31.66,0,0,0-6.2,2.165c-6.8,3.518-11.43,10.293-12.7,18.588a27.3,27.3,0,0,0,7.352,23.527A21.164,21.164,0,0,0,2679.554,7419.562Z" transform="translate(-2398.137 -7218.621)" fill="#611735"/>
  <path id="Path_1534" data-name="Path 1534" d="M2583.1,7362.262c-.5-1.668-1.009-3.394-1.607-5.089q-2.4-6.806-4.822-13.613-3.716-10.474-7.413-20.97c-.616-1.748-1.546-4.391-4.838-4.41h-.037c-3.385,0-4.343,2.722-4.979,4.531-1.662,4.8-3.361,9.586-5.06,14.372l-3.552,10.029q-2.7,7.616-5.357,15.24a5.106,5.106,0,0,0,.433,4.726,5.414,5.414,0,0,0,4.582,2.034l.633,0,.427-.463c.116-.126.278-.267.459-.429a8.009,8.009,0,0,0,2.082-2.522,54.962,54.962,0,0,0,2.347-6.479l.284-.9c.219-.7.278-.7.864-.686,4.185.092,8.619.092,13.559,0,.694-.022.736.046.924.629.793,2.522,1.706,5.021,2.589,7.437l.113.309a4.18,4.18,0,0,0,5.746,2.632,4.271,4.271,0,0,0,2.844-5.644Zm-14.727-14.166h-8.016l.109-.311c1.276-3.63,2.544-7.242,3.888-11.061Z" transform="translate(-2446.515 -7240.205)" fill="#611735"/>
</svg>
