<svg xmlns="http://www.w3.org/2000/svg" width="119.74" height="200.886" viewBox="0 0 119.74 200.886">
  <g id="Group_2134" data-name="Group 2134" transform="translate(-1676.533 -5428.924)">
    <g id="Group_2112" data-name="Group 2112">
      <g id="Group_2111" data-name="Group 2111">
        <path id="Path_974" data-name="Path 974" d="M1796.253,5490.98c-.141-1.09-.26-2.19-.391-3.29-.27-2.35-.54-4.78-.97-7.19-4.49-25.18-26.959-47.06-52.26-50.9-25.76-3.91-53.139,9.47-65.089,31.8-.981,1.84-1.451,4.76-.461,6.75,3.17,6.41,6.75,13.15,11.23,21.19a6.139,6.139,0,0,0,3.131,2.46,7.011,7.011,0,0,1,.85.41l2.18,1.31,1.27-2.19c.159-.27.349-.54.54-.8a7.52,7.52,0,0,0,1.549-3.26,25.525,25.525,0,0,1,9.631-16.56c8.52-6.97,18.74-9.67,30.379-8.01,11.54,1.62,21.2,11.04,22.96,22.38s-3.29,20.01-15,25.78a64.53,64.53,0,0,1-9.17,3.37l-1.209.37c-1.771.56-3.63,1.05-5.43,1.52-2.661.7-5.411,1.42-8.07,2.4-10.351,3.81-14.6,11.17-12.64,21.88,2.569,14.07,5.1,27.06,7.739,39.71.451,2.12,2.6,5.52,5.31,6.1a92.371,92.371,0,0,0,16.691,2.28c.17,0,.349.01.52.01,5.38,0,8.16-2.18,9.549-4.04,1.5-1.99,2.891-5.59,1.03-11.44-.459-1.48-.99-2.94-1.49-4.35a66.956,66.956,0,0,1-2.189-6.84c-3.17-13.18-.091-19.57,12.2-25.32,2.23-1.04,4.591-1.99,6.881-2.91,1.049-.42,2.089-.84,3.14-1.27,18.51-7.73,27.28-20.76,27.61-40.99v-.18Zm-29.81,30.09c-2.71,1.41-5.6,2.67-8.4,3.89-1.971.86-4.02,1.75-6.011,2.7-15.7,7.47-21.48,20.81-16.279,37.57.21.67.43,1.34.649,2.01a30.808,30.808,0,0,1,1.5,5.68,4.176,4.176,0,0,1-.629,3.28,5.047,5.047,0,0,1-3.6,1.27c-5.51.21-6.18-.29-7.141-5.35-1.94-10.19-3.989-21.16-5.8-32.29-.841-5.19.76-8.28,5.349-10.31a56.814,56.814,0,0,1,7.3-2.47,59.982,59.982,0,0,0,8.22-2.82c.921-.43,1.861-.85,2.811-1.27,5.729-2.55,11.649-5.18,16.32-9.37a33.28,33.28,0,0,0,11.21-28.18,33.956,33.956,0,0,0-16.821-25.97,48.2,48.2,0,0,0-24.919-7.28c-8.4,0-16.91,2.4-25.47,7.21-6.921,3.88-11.661,9.64-14.661,17.91-2.51-4.21-4.68-7.86-6.68-11.62a5.614,5.614,0,0,1,.72-1.71c11.73-18.34,36.79-28.75,58.29-24.2,20.92,4.42,39.081,23.98,42.261,45.5C1787.023,5501.28,1780.733,5513.67,1766.443,5521.07Z" fill="#293213"/>
      </g>
    </g>
    <g id="Group_2114" data-name="Group 2114">
      <g id="Group_2113" data-name="Group 2113">
        <path id="Path_975" data-name="Path 975" d="M1746.152,5597.37c-4.4-3.9-9.59-5.83-14.209-5.3h-.01c-4.1.47-8.121,3.73-10.3,6.37-1.949,2.33-2.57,5.52-3.12,8.34-.1.52-.2,1.04-.3,1.53-1.54,7.11.45,13.07,5.73,17.23a18.694,18.694,0,0,0,11.679,4.27,19.4,19.4,0,0,0,8.24-1.92c6.681-3.13,10.21-8.3,10.21-14.99C1754.032,5607.62,1750.993,5601.67,1746.152,5597.37Zm-3.919,20.35a9.546,9.546,0,0,1-3.1,2.07,10.121,10.121,0,0,1-3.76.76,9.663,9.663,0,0,1-6.84-2.7,8.559,8.559,0,0,1-2.559-6.13c0-5.12,3.859-9.59,7.02-9.65h.1c2.23,0,5.02,1.36,7.31,3.57,2.351,2.27,3.821,5.08,3.86,7.35A6.731,6.731,0,0,1,1742.233,5617.72Z" fill="#293213"/>
      </g>
    </g>
  </g>
</svg>
