<svg xmlns="http://www.w3.org/2000/svg" width="286.311" height="293.11" viewBox="0 0 286.311 293.11">
  <g id="Group_2357" data-name="Group 2357" transform="translate(-2862.025 -7869.241)">
    <path id="Path_1554" data-name="Path 1554" d="M3127,8289.336c6.7-22.429,12.165-45.173,17.117-68.041q.73-3.347,1.464-6.7a2.421,2.421,0,0,0-.817,1.4q-9.383,37.05-18.7,74.109a3.27,3.27,0,0,1-3.318,2.857c-8.34.7-16.693,2.019-25.147-.5,1.692-6.855,3.369-13.653,5.046-20.45-.181-.047-.361-.09-.542-.137q-2.7,10.16-5.407,20.344c-2.945-.554-4.17-2.847-4.453-6.129-.5-5.726-.6-11.486-.907-17.23-.086-1.649-.283-3.291-.432-4.913-1.209.439-2.159.88-3.161,1.136-4.422,1.13-8.851,2.237-13.292,3.289-1.072.256-2.207.236-3.306.385a3.077,3.077,0,0,1-3.707-2.3c-1.421-3.914-3.039-7.759-4.461-11.678-.884-2.437-2.077-4.928-2.215-7.445-.326-6-.169-12.026-.075-18.042.027-1.716-.035-3.85.9-5.062,3.353-4.358,6.989-8.489,8.984-13.386,1.806.369,3.463.663,5.093,1.072.558.138,1.319.428,1.531.867a75.246,75.246,0,0,1,3.872,8.769c2.7,8.262,5.152,16.6,7.736,24.9a6.284,6.284,0,0,0,1.052,2.065,1.708,1.708,0,0,0,2.82-.3c-2.03-.64-2.038-.64-2.635-2.563-.833-2.679-1.677-5.356-2.482-8.047-2.038-6.815-4-13.66-6.13-20.45a44.392,44.392,0,0,0-2.651-5.544c4.434-1.426,8.627-3.145,12.994-4.063,3.625-.762,5.133-4.355,4.158-8.753-.125,1.13-.24,1.8-.267,2.48-.129,3.244-1.426,4.688-4.625,5.215-1.159.189-2.3.472-3.444.742-3.872.915-7.728,1.913-11.615,2.745a4.589,4.589,0,0,1-5.293-2.03,13.271,13.271,0,0,1-1.657-3.97c-1.26-6.047-4.343-11.324-6.935-16.807a11.461,11.461,0,0,0-1.2-1.52c-.974-1.354-1.983-2.689-2.855-4.107-.577-.937-.891-2.034-1.41-3.012-2.387-4.508-4.983-8.909-7.131-13.522a13.64,13.64,0,0,1-1.339-6.743c.4-3.978,1.677-7.857,2.317-11.819a4.741,4.741,0,0,1,3.106-4.028c2.544-1.119,2.694-3.786.66-5.659-2.517-2.32-5.666-3.471-8.623-4.983-2.792-1.433-5.639-2.768-8.509-4.165,4.869-1.61,9.294-.122,13.763,1.037-6.18-2.679-12.915-2.632-19.378-3.9.043-.42.083-.8.11-1.06-2.026,3.012-4.107,6.012-6.086,9.07-5.168,7.987-12.99,10.661-21.962,11a40,40,0,0,1-5.855-.185c-4.414-.491-6.279-4.018-8.434-7.225a7.411,7.411,0,0,0-2.2-1.579c-.428-.279-.9-.5-1.347-.742.236-.267.624-.8.687-.762a5.316,5.316,0,0,1,.66.463c.1.087.208.173.31.264s.208.177.314.263v.008l.1-.023a.326.326,0,0,0-.086.012c.161-.2.294-.5.5-.569,2.423-.82,2.262-2.639,1.838-4.594a6.85,6.85,0,0,1-.271-1.937c.129-1.83-.283-3-2.6-2.258-.546-2.062.554-5.152-3.185-4.646-.043-.923-.087-1.57-.1-2.222a2.151,2.151,0,0,1,.13-.546c2.651-.656,2.831-.581,3.467,1.813.263,1.01.33,2.069.581,3.079.114.459.377,1.143.707,1.236,1.924.542,3.884.938,5.835,1.387.039-.157.082-.314.125-.472a10.085,10.085,0,0,0-1.524-.8,6.641,6.641,0,0,1-4.166-4.144,26.042,26.042,0,0,1-1.037-3.353c-1.818-7.426-8.128-10.924-15.3-8.392-1.441.511-2.831,1.225-3.267,3.22,5.513-5.67,16-2.446,16.523,4.327-.856-.353-1.9-.443-2.207-.966-2.152-3.71-4.009-4.575-8.152-3.64a2.714,2.714,0,0,0-2.446,3.153,37.448,37.448,0,0,1-.02,4.5,2.2,2.2,0,0,1-.762,1.319c-.805.683-1.716,1.244-2.584,1.857-2.16.494-2.588,1.024-2.058,3.4a15.345,15.345,0,0,1,.715,3.047c.043,3.443,2.717,4.512,5.113,5.682,1.323.647.644,1.068.232,1.692-.946-.773-1.9-1.543-2.611-2.124-.44.6-.746,1.021-1.037,1.417.212.106.44.231.679.326,1.975.781,2.05,1.175.5,2.58q-.689.624-1.378,1.257l.526.5,3.471-3.789c.083.444.393,1.041.212,1.308a11.609,11.609,0,0,1-7.3,4.9c-6.122,1.331-11.973-.35-17.635-2.359a22.206,22.206,0,0,1-9.44-7.147,5.264,5.264,0,0,1-.66-1.444c-1.3.471-2.859,1.036-4.378,1.59,3.012,2.612,6.248,5.309,9.354,8.156,1.6,1.465,3.664,2.957,4.28,4.842a36.419,36.419,0,0,1,2.238,11.858c-.138,5.7-1.378,11.372-2.148,17.054a24.6,24.6,0,0,1-4.115,10.912c-3.99,5.71-5.768,12.4-8.544,18.641-1.264,2.851-2.128,5.886-3.468,8.7-.5,1.053-1.818,1.725-2.764,2.568-.122-.142-.243-.279-.365-.42.875-.7,1.747-1.4,2.576-2.062-1.622.448-3.141,1.249-4.641,1.215-5.882-.131-11.756-.52-17.631-.817q-17.335-.883-34.673-1.751c-1.418-.068-2.136-.75-1.971-2.065a92.666,92.666,0,0,1,1.574-10.226q2.633-10.75,5.749-21.381c2.03-6.872,4.371-13.649,6.573-20.471.114-.345.22-.691.326-1.036a8.42,8.42,0,0,0-1.795,2.514c-4.2,8.639-6.738,17.858-8.926,27.133-1.987,8.438-3.243,17.054-4.877,25.579a3.481,3.481,0,0,0,1.147,3.683,11.755,11.755,0,0,1,2.034,1.826,3.731,3.731,0,0,1,.9,2.273c-.2,1.846-.75,3.647-1.1,5.478q-2.427,12.806-4.814,25.61c-.251,1.339-.42,2.694-.628,4.04a55.456,55.456,0,0,0,2.293-7.908c1.41-7.759,2.659-15.541,3.954-23.321.42-2.509,1.418-4.558,3.958-5.567a6.081,6.081,0,0,0,1.284-1.044c-.389-.24-.514-.381-.6-.358-.876.233-1.748.487-2.615.743-1.143.333-3.4-.812-3.581-1.921-.063-.4.287-.871.452-1.308l.829.664c-.731.35-.8.73-.122,1.217,1.645,1.186,3.208.338,5.07-.16-1.677-.684-3.354,1.225-4.583-.621,2.179-.247,4.5.291,6.53-.8-.027-.173-.051-.346-.078-.518q-2.527.224-5.058.443c-.012-.235-.028-.471-.043-.711q6.939-.331,13.877-.667c.008.118.016.239.02.357l-6.424.436c0,.192.012.385.02.577,9.338-.522,18.558.385,27.99,1.774.031-.125.295-.958.216-.99a5.708,5.708,0,0,0-1.983-.529c-3.362-.13-6.727-.191-10.092-.279.008-.216.016-.432.027-.651,2.435.158,4.873.33,7.312.467q9.306.514,18.617,1c2.4.126,2.588.325,2.368,2.654-.118,1.237-.243,2.474-.342,3.715-.4,5.089-.856,10.146-3.232,14.827-1.535,3.023-2.859,6.157-4.241,9.26a2.674,2.674,0,0,0-.33,1.652c.8,2.411,1.708,4.791,2.631,7.159.554,1.429,1.567,1.763,2.985,1.143,2.026-.884,2.584-.577,3.134,1.633a33.462,33.462,0,0,1,1.072,4.783c.31,3.267.408,6.558.6,9.97-1.111-.149-1.767-.239-2.423-.33-.011.091-.024.181-.04.271.943.157,1.881.317,2.906.49,0-2.646.138-5.132-.039-7.59-.173-2.415-.88-4.825.981-6.946a2.36,2.36,0,0,0,.306-1.119c1.056-6.707,2.12-13.41,3.153-20.12.467-3.031.428-6.221,1.382-9.084,2.144-6.431,5.16-12.585,7.1-19.071,3.5-11.693,6.471-23.549,9.672-35.332.129-.487.35-.946.514-1.422a3.9,3.9,0,0,0,.349-1.143c.016-.758-.106-1.52-.129-2.281-.122-4.229-.153-8.463-.381-12.684a58.61,58.61,0,0,0-.947-5.98c1.221.235,2.1.428,2.984.573,4.005.641,7.995,1.43,12.023,1.83a6.984,6.984,0,0,1,4.233,1.6,49.834,49.834,0,0,0,4.583,3.651c3.082,2.1,6.636,1.834,10.056,1.448,3.012-.341,5.352.946,7.622,2.435,3.165,2.065,6.137,4.422,9.275,6.531a24.13,24.13,0,0,0,14.709,4.559c2.442-.109,5.164-.35,7.214-1.5a16.662,16.662,0,0,0,8.415-11.45c.181-.86.314-1.729.487-2.7.373.2.609.248.684.385,1.8,3.282,4.61,4.544,8.262,4.249.294-.023.761.436.93.777,1.512,3.035,2.98,6.091,4.445,9.146q2.9,6.054,5.784,12.121c-.047.024-.094.048-.145.071q-6.1-8.823-12.212-17.643l-.668.377a34.757,34.757,0,0,0,2.387,4.739c4.748,6.731,9.7,13.315,14.38,20.09,2.215,3.2,4.233,6.538,3.73,10.833-.828,7.061-1.6,14.14-2.018,21.232-.416,7.032-.4,14.093-.514,21.142-.079,4.507.251,9.051-.22,13.512-.267,2.532-1.783,4.936-2.737,7.394-.161-.07-.318-.142-.476-.212.33-2.419,1.787-4.747.762-7.61-.565,2.9-1.064,5.467-1.563,8.03a17.278,17.278,0,0,1,.137-5.822c.507-2.4-.62-3.916-2.183-5.436-3.719-3.612-8.631-5.054-13.076-7.358-8.172-4.233-16.68-4.9-25.512-2.733-8.564,2.093-16.469,5.914-24.412,9.559-9.55,4.382-18.9,9.184-28.433,13.609-5.631,2.614-11.438,4.849-17.171,7.252-.036-.062-.075-.129-.114-.192l1.614-1.2-.129-.212c-1.638.612-3.271,1.226-5.034,1.886,1.009.218,1.928.435,2.855.624q8.623,1.771,17.254,3.537c-.078-.278-.314-.706-.208-.816,1.787-1.912,3.754-3.554,6.562-4v5.643c-1.127-.13-2.175-.256-3.228-.377,1.6.4,3.2.8,4.516,1.127a5.846,5.846,0,0,1-.778-1.814c-.035-1.232.463-2.545.188-3.69-1.036-4.336,1.237-6.26,4.877-7.583,1.378-.5,1.826-.326,1.81,1.052-.039,3.712-.078,7.422-.188,11.132a4.752,4.752,0,0,1-.684,1.552h1.771a5.568,5.568,0,0,1-.663-1.818c0-2.866.055-5.74.239-8.6a2.722,2.722,0,0,1,1.041-1.928,54.037,54.037,0,0,1,17.018-6.373c.087,2.3.173,4.716.26,7.127,0,.023,0,.052,0,.074v.013q-.059.5-.129.989c-.153,1.1-.318,2.2-.365,3.31-.106,2.475-.075,4.956-.122,7.434-.012.605-.114,1.21-.173,1.814-.2.031-.389.059-.585.086a5.317,5.317,0,0,1-.444-1.319c-.169-2.533-.251-5.077-.428-7.61a2.1,2.1,0,0,0-.129-.572c-.067-.188-.153-.377-.232-.566-.027-.062-.055-.124-.078-.187a1.682,1.682,0,0,1-.071-.178v-.011h0v9.931H2988c2.505.428,5,.852,7.28,1.236a18.6,18.6,0,0,0,.235-2.634c-.263-4.426-.608-8.853-.86-13.28-.1-1.8.126-3.621-.1-5.392-.322-2.544.13-3.633,2.494-4.579,1.516-.6,3.035-1.2,4.582-1.708,4.213-1.374,8.427-2.741,12.672-4.006.954-.281,2.545.283,2.972-.246,1.7-2.1,4.908-3.311,4.4-6.829a2.579,2.579,0,0,1,.02-.389c.02-1.253.679-1.527,1.692-1.276v16.916a41.936,41.936,0,0,0,.471-7.406,6.573,6.573,0,0,1,.251-1.723c.381-1.331.939-2.624,1.206-3.971.2-.981.455-1.457,1.516-1.114a2.511,2.511,0,0,0,1.151.129c3.954-.676,7.531.558,11.011,2.2a2.049,2.049,0,0,1,1.056,1.252,44.789,44.789,0,0,1,.824,6.6c.142,9.146.165,18.286.208,27.432.027,5.151.008,10.3.008,15.684-.3-.134-.589-.264-.868-.393s-.557-.248-.824-.369h0c-.515-.235-1.013-.459-1.512-.687.016.017.031.028.047.043a10.432,10.432,0,0,0,1.417,1.2c1.5.915,3.138,1.63,4.547,2.658,2.242,1.629,4.343,3.448,6.5,5.188l.228-.216c-1.249-1.143-2.494-2.285-4-3.665,2.721-.658,4.955-1.314,7.237-1.723,2.7-.491,4.928-1.344,4.865-4.562h3.774c0-.087,0-.173.008-.261l-4.83-.286v2.415c-.259,0-.519-.011-.777-.016.055-.828-.2-1.971.243-2.4a3.962,3.962,0,0,1,2.729-1.048c2.309.163,4.594.663,6.891,1.028.023-.15.051-.3.079-.444l-11.242-1.865c-.106-1.06-.287-2.214-.326-3.377q-.271-8.21-.491-16.434c-.035,1.493-.055,2.984-.035,4.477q.117,8.335.451,16.661a38.6,38.6,0,0,0,.833,4.928c-3.208.813-6.263,1.674-9.362,2.325-1.362.287-4.4-2.493-4.441-3.927-.373-12.417-.829-24.837-.99-37.257-.043-3.385.821-6.785,1.3-10.441,3.1,1.387,6.342,2.4,7.312,5.537.821,2.667.546,5.666.774,8.517.051.672.157,1.34.24,2.007.255-.012.514-.023.77-.039,0-1.669.023-3.337,0-5.007-.031-1.617-1.092-3.342.609-4.854l1.99.742c.232,3.833.456,7.556.679,11.273a.067.067,0,0,1,0,.028v.011c.137-.069.279-.133.42-.2.035-.017.071-.032.106-.052a1.442,1.442,0,0,0,.192-.113.87.87,0,0,0,.09-.066c3.7-3.1,4.877-7.269,4.971-11.879.027-1.308,0-2.615,0-3.923.2-.009.4-.016.593-.02,1.39,4.614,2.757,9.239,4.178,13.845.817,2.659,1.653,3.189,4.425,3.017.436-.024.868-.11,1.473-.189a35.8,35.8,0,0,0,4.948,12.284c2.694,3.958,4.335,8.618,6.761,12.784a9.125,9.125,0,0,0,4.131,3.68c6.035,2.428,11.635.88,16.889-2.556a4.863,4.863,0,0,1,2.3-.742c7-.35,14-.629,20.709-.916a7,7,0,0,1-.672-2.029A9.693,9.693,0,0,1,3127,8289.336Zm-174.008-143.61c1.06-2.329,4.4-3.421,7.24-2.356C2957.955,8144.106,2955.681,8144.849,2952.988,8145.726Zm41.933,136.213c-.267.008-.534.021-.8.027q0-6.448.008-12.9Q2994.528,8275.5,2994.921,8281.938Z" transform="translate(-4.266 -144.402)" fill="#403347"/>
    <path id="Path_1555" data-name="Path 1555" d="M3409.191,7983.477a71.114,71.114,0,0,1,9.75-1.6c.966-.079,2.784,1.045,2.949,1.868.766,3.81,1.084,7.709,1.6,11.875-3.118-.676-2.941,1.178-3.208,3.13-.683,5.022.679,9.73,1.7,14.513.754,3.5,1.535,4.092,5.344,3.711.444,1.764,1.041,3.547,1.319,5.376.727,4.739.915,9.6,2.069,14.219,1.072,4.283-.141,9.137,3.075,12.9.141.168.067.51.106.769.373,2.259.664,4.532,1.162,6.763a25.541,25.541,0,0,0,1.382,3.641c2.537-5.9,4.571-11.69,6.679-17.459a11.073,11.073,0,0,1,1.437-2.155,9.935,9.935,0,0,0,.228,3.043,5.179,5.179,0,0,1,.122,3.923c-2.242,6.459-4.677,12.871-5.5,19.735-.106.906-.318,1.806-.483,2.709a.986.986,0,0,0,.122,0c2.372-7.705,4.747-15.408,7.221-23.431a17.918,17.918,0,0,0,2.132,1.967c1.331.844,1.5,1.846,1.005,3.291-.782,2.281-1.394,4.625-2.014,6.958-.314,1.174-.483,2.388-.719,3.581l.117-.013c1.316-3.863,2.635-7.727,4.084-11.976,1.873,1.28,3.55,2.363,5.156,3.542a10.553,10.553,0,0,0,10.794.773,10.605,10.605,0,0,1,2.266-.684,4.428,4.428,0,0,0-2.521.048,9.024,9.024,0,0,1-10.457-1.842,12.857,12.857,0,0,0-2.325-1.4c-3.11-1.811-6.208-3.628-7.814-7.091.875.785,1.8,1.519,2.615,2.359a20.83,20.83,0,0,0,17.58,6.416c4.1-.346,8.721-4.731,5.58-9.428a17.659,17.659,0,0,1-2.8-6.809c-.42-2.7.051-5.541.2-8.317.243-4.386.911-8.784.73-13.15-.212-5.034-3.448-9.165-5.132-13.779-.02-.055-.091-.09-.134-.138-1.469-1.543-2.992-3.034-4.386-4.641-1.579-1.81-3.1-3.672-4.523-5.6a28.639,28.639,0,0,1-3.444-5.372,5.281,5.281,0,0,0-3.707-3.42c-2.364-.562-4.461-1.265-5.16-3.994-.161-.64-.919-1.106-1.256-1.728a5.171,5.171,0,0,1-.664-1.963c-.24-2.93-.267-5.878-.6-8.792a35.59,35.59,0,0,0-3.809-13.5c-1.316-2.364-1.469-2.273.719-3.816a.843.843,0,0,0,.228-.311,31.753,31.753,0,0,1-1.5-4.343c-.467-2.372-.691-4.787-.993-7.187-1.378-10.833-2.8-21.659-4.1-32.5-1.135-9.412-2.085-18.845-3.24-28.249a32.66,32.66,0,0,0-1.528-5.242c-.2.012-.4.023-.593.031-.856,2.694-2.655,3.633-5.317,3.134a2.3,2.3,0,0,0-1.441.361c-2.038,1.232-2.8.974-3.6-1.441.275,0,.565.091.738-.011a10.582,10.582,0,0,1,5.423-1.705c1-.016,1.987-.989,3.4-1.76a14.369,14.369,0,0,0-1.8.013c-2.172.338-4.335.707-6.495,1.076a26.468,26.468,0,0,0-3.271.62c-2.541.77-4.5,2.866-4.465,4.889.1,5.427-.094,10.893.519,16.265,2.136,18.7,4.539,37.374,6.938,56.046.177,1.4,1.123,2.7,1.735,4.033a9.221,9.221,0,0,1,1.053,2.214,47.552,47.552,0,0,1,.5,5.926c.012.585-.408,1.571-.84,1.708-4.28,1.37-8.623,2.545-12.907,3.907-.974.307-2.368.958-2.572,1.724-1.21,4.465-1.7,9.023.318,13.422C3405.292,7983.979,3406.113,7984.16,3409.191,7983.477Zm58.736,58.606c.534-.966.793-1.437,1.158-2.1v4.48c.519-.9.774-1.351,1.115-1.939.24,2.171-.047,3.9-2.321,4.876.106-1.295.208-2.509.338-4.1-.8.472-1.205.712-1.7,1.006-.11-2.317-.212-4.59-.33-7.068C3469,8037.474,3467.46,8039.982,3467.927,8042.083Zm-5.764-27.632c.051.259.1.515.153.77-2.262,1.083-4.524,2.172-6.887,3.3-.451-.7-.852-1.315-1.256-1.932C3456.615,8014.7,3459.006,8012.833,3462.163,8014.451Zm-14.05-5.121q1.207.349,2.423.691c-.035.365-.075.73-.11,1.1-.8.031-1.6.066-2.4.1C3448.054,8010.595,3448.082,8009.963,3448.113,8009.33Zm-4.531-7.943c.534.157,1.433.192,1.531.49a7.519,7.519,0,0,1,.075,2.29c-.248.027-.491.055-.738.078-.369-.781-.742-1.562-1.111-2.345C3443.421,8001.732,3443.5,8001.56,3443.582,8001.387Zm-8.152-46.488q.919,6.943,1.841,13.893l-.9.13q-.866-6.951-1.74-13.905Z" transform="translate(-328.309)" fill="#403347"/>
    <path id="Path_1556" data-name="Path 1556" d="M3035.7,7948.884a37.878,37.878,0,0,1,3.927-3.5,2.661,2.661,0,0,1,2.521,0c.809.71.723,1.767-.345,2.635a38.572,38.572,0,0,0-3.185,3.231c.086.082.172.165.263.247,2.871-2.034,5.741-4.063,8.839-6.255,1.873,2.658,4.009,5.689,5.925,8.4-.318-.919-.456-2.6-1.347-3.633-1.52-1.751-1.209-3.471-.809-5.352a8.251,8.251,0,0,0,.086-1.032c-.169-.028-.334-.06-.5-.087-.231,1.143-.463,2.285-.84,4.146-.993-1.728-2.324-2.992-2.379-4.308a124.328,124.328,0,0,1,.161-14.863c.424-5.3,1.351-10.555,2.175-15.812.192-1.218.53-2.878,1.382-3.412,1.166-.73,2.886-.577,4.37-.8.02.137.04.278.059.416l-4.61.684c.039.239.079.475.114.71.534-.027,1.068-.059,1.366-.074-.4.7-.875,1.516-1.566,2.7h15.263c-.585-.039-1.17-.074-1.755-.113-.565-.035-1.127-.075-1.692-.11l-3.393-.224c.023-.247.043-.491.067-.734,20.21.577,40.264,2.945,60.287,5.623-.432.082-.868.165-1.382.259l8.784,1.638a37.863,37.863,0,0,0-4.3-1.473c-.491-.141-1.154-.039-1.484-.334-3.094-2.776-7.174-2.8-10.834-3.4-6.879-1.146-13.9-1.457-20.851-2.155-.287-.027-.491-.565-.8-.672a7.916,7.916,0,0,0-1.543-.224,48.641,48.641,0,0,1,5.619.542c4.017.4,8.062.577,12.067,1.079,7.755.971,15.483,2.2,23.246,3.122a12.708,12.708,0,0,1,6.314,2.84c.64.49,1.339,1.817,1.107,2.4-2.442,6.149-2.493,12.534-1.81,18.915.408,3.825,1.523,7.579,2.356,11.533-.346.314-1.025.935-1.708,1.555.1.138.2.275.294.416,1.072-1.594,2.223-1.3,3.522-.393,1.955,1.358,3.966,2.631,5.96,3.935-1.433-1.551-2.96-3.023-4.241-4.692-1.527-1.99-3.507-3.993-4.08-6.294-1.841-7.391-2.372-14.836,1.681-21.876a7.012,7.012,0,0,0,1.092-3.84c-.385-3.864-1.139-7.685-1.7-11.533-.228-1.535-.342-3.091-.507-4.638l-.369.023c.181,2.895.362,5.788.574,9.177-1.257-.612-1.936-.946-2.619-1.28-1.52-.75-2.965-1.861-4.571-2.187q-8.194-1.661-16.48-2.848c-5.16-.737-10.363-1.205-15.546-1.771-2-.22-4.017-.369-6.02-.585-2.706-.295-5.4-.742-8.113-.911-2.835-.173-5.7.02-8.533-.165-2.689-.173-5.356-.88-8.038-.907-5.191-.059-10.39.192-15.589.311a5.163,5.163,0,0,1-.719-.09c0-.17,0-.338,0-.507l7.331-.4c-1.7-.134-3.4-.039-5.084-.181-.648-.056-1.249-.645-1.87-.99.1-.172.2-.342.311-.515l1.28-.156c-.33-.515-.887-.982-.9-1.461a13.068,13.068,0,0,1,.345-4.061c1.316-4.154,2.823-8.25,4.261-12.365,3.216-2.827,6.436-5.65,9.35-8.2a18.1,18.1,0,0,0-9.55,8.015,18.536,18.536,0,0,0-1.575,2.2c-2.693,5.184-3.8,10.806-4.6,16.527a32.507,32.507,0,0,1-1.107,3.609c-.479,1.817-.923,3.647-1.272,5.493-.055.29.417.742.73,1.028,1.516,1.383,1.421,2.446-.377,3.5-.868.511-1.767.966-2.65,1.445.051.113.1.228.149.346.734-.165,1.473-.33,2.726-.613-.7,8.485-1.39,16.775-2.078,25.064l-.432-.012V7936.5c-.157-.008-.314-.012-.471-.016q-.189,2.626-.377,5.254l-.22.012v-6.993a3.044,3.044,0,0,0-1.025,1.9,14.6,14.6,0,0,0,.055,2.144c.012.633,0,1.265,0,1.893-.192-.015-.385-.031-.577-.051a61.407,61.407,0,0,1,2.1-21.715,2.114,2.114,0,0,0-.773.963,5.5,5.5,0,0,0-.365,1.314c-.648,5.506-1.319,11.007-1.881,16.521a4.352,4.352,0,0,1-1.473,3.372,11.151,11.151,0,0,0-1.763,2.451c.621-.467,1.229-.958,1.869-1.4,1.5-1.021,2.882-1.087,4.2,1.04-.931.4-1.916,1.242-2.666,1.064-2.207-.518-3.42.7-4.724,2.022a8.62,8.62,0,0,1-1.351.931q-.848.861-1.7,1.717l.361.337A3.954,3.954,0,0,0,3035.7,7948.884Zm49.63-44.281,6.2.931q-.059.376-.118.753-3.081-.552-6.165-1.1C3085.278,7904.992,3085.306,7904.8,3085.333,7904.6Zm6.746,2.607c-.012.3-.023.608-.035.91h-6.97c-.055-.16-.228-.671-.578-1.708C3087.045,7906.68,3089.563,7906.947,3092.08,7907.21Z" transform="translate(-104.888 -2.896)" fill="#403347"/>
    <path id="Path_1557" data-name="Path 1557" d="M2993.7,8529.521c-11.1-1.268-22.214-2.427-33.322-3.6-8.262-.87-16.547-1.53-24.781-2.586-12.77-1.634-25.508-3.5-38.254-5.306-6.514-.919-13.025-1.905-19.524-2.854-.141-4.535,1.19-6.433,4.708-6.84,2.811-.323,5.615-.685,7.739-.943-1.406-.138-3.475-.357-5.548-.538-6.157-.542-12.307-1.332-18.487-.169-1.225.231-2.222.338-1.983,2.1-.538-.77-1.072-1.543-1.747-2.521,2.073-.181,3.707-.326,5.336-.472,0-.074,0-.149-.008-.224l-4.594-1.245c.232-3.105.44-5.944.675-9.109a6.044,6.044,0,0,0-.42,1c-.44,2.5-.9,5-1.276,7.5-.624,4.091.169,5.352,4.178,6.238,1.484.33,1.877,1,1.814,2.42a74.469,74.469,0,0,0,2.564,21.733,36.679,36.679,0,0,0,2.281,5.208c1.445-7.725,2.76-14.769,4.111-21.975,10.791,1.288,21.365,2.493,31.928,3.82,11.352,1.425,22.689,2.965,34.033,4.45q16.91,2.219,33.817,4.433c7.115.946,14.089,3.059,21.365,2.611a18.641,18.641,0,0,0,3.255-.79c0-.264-.008-.53-.012-.8C2998.936,8530.543,2996.341,8529.824,2993.7,8529.521Z" transform="translate(0 -380.169)" fill="#403347"/>
    <path id="Path_1558" data-name="Path 1558" d="M3212.8,7985.146c-2.9-.4-5.827-.636-8.714-1.123-5.662-.958-11.3-2.058-16.951-3.052a2.961,2.961,0,0,0-3.483,1.532c2.788,2.194,5.4,4.586,8.325,6.471,4.26,2.737,8.8,5.038,13.135,7.673a5.92,5.92,0,0,0,6.291.059,8.834,8.834,0,0,0,4.826-6.718C3216.768,7986.914,3215.916,7985.578,3212.8,7985.146Z" transform="translate(-195.332 -67.806)" fill="#403347"/>
    <path id="Path_1559" data-name="Path 1559" d="M3081.445,8152.355a17.671,17.671,0,0,1,2.513-1.857c-.393-.664-.871-1.1-.883-1.555-.07-2.753-.035-5.509-.035-7.846l-4.764-.771,6.629-3.479c-1.284-1.013-2.258.02-3.251.8-2.765,2.171-4.257,2.187-7.068.16a3,3,0,0,0-1.751-.655,12.109,12.109,0,0,0-8.419,4.343c-1.669,1.917-.491,5.76,1.944,5.769,2.058.008,2.336,1.268,3.432,2.242,1.8,1.6,1.362,2.643-.307,4.409a32.3,32.3,0,0,0,5.678,1.484c.84.063,1.743-1.063,2.67-1.543a1.238,1.238,0,0,1,1.158.082c.208.225.22,1.025.04,1.143a6.741,6.741,0,0,1-2.254,1.033c-6.161,1.261-12.432-2.883-14.442-7.4a15.892,15.892,0,0,0-1.39-2.151c-.173.1-.342.2-.515.291-.031,1.907,1.107,3.384,2.243,4.8,4.3,5.349,10.225,5.549,16.347,5.05a1.584,1.584,0,0,0,1.468-2.234C3079.96,8153.187,3080.942,8152.866,3081.445,8152.355Z" transform="translate(-120.495 -162.269)" fill="#403347"/>
    <path id="Path_1560" data-name="Path 1560" d="M3118.881,7977.164c-5.654-.628-11.333-1.521-17-1.527-6.259,0-12.6-.75-19.272.741.228,2.184.125,4.144.7,5.875.676,2.042,1.987,3.868,2.93,5.831.809,1.685,2.089,2.493,3.785,1.731a68.126,68.126,0,0,0,10.064-5.081c2.662-1.782,4.763-4.394,7.143-6.608.448-.417,1.049-1.006,1.543-.974,1.822.118,3.625.486,5.435.722,2.435.315,4.877.6,7.312.893A4.88,4.88,0,0,0,3118.881,7977.164Z" transform="translate(-133.967 -64.502)" fill="#403347"/>
    <path id="Path_1561" data-name="Path 1561" d="M3236.156,8546.392c-1.174-.494-2.333-1.024-3.9-1.719.836-.3,1.221-.44,1.39-.5a25.111,25.111,0,0,0-3.777-1.469,39.219,39.219,0,0,0-4.845-.514,14,14,0,0,1-.079-1.621c.244-3.912.538-7.814.758-11.726.122-2.082.086-4.174.2-6.256.074-1.354.094-2.886,1.94-3.113,3.3-.408,6.616-.73,9.927-1.1.99-.11,1.975-.247,2.961-.373a1.4,1.4,0,0,0-1.194-.4c-4.425.38-8.855.781-13.28,1.154-1.378.118-1.425,1.052-1.425,2.1,0,4.513.027,9.027-.079,13.54-.059,2.618-.361,5.233-.553,7.853-.255.027-.514.06-.77.087a39.27,39.27,0,0,1-.608-4.355c-.1-2.834-.031-5.674-.031-8.513h-.122c-.094,1.48-.188,2.957-.282,4.438l-.628-.014c-.083-1.814-.165-3.628-.251-5.524-.142,2.038-.275,3.979-.413,5.981,1.681-.11,1.755,1.142,1.328,2.685-.711,2.557-1.453,5.1-2.16,7.662a19.427,19.427,0,0,0-.762,3.228c-.259,2.669-.393,5.353-.585,8.184,5.014,0,9.459,0,13.9-.013.306,0,.8-.046.891-.224q1.779-3.747,3.452-7.54C3237.6,8547.327,3237.052,8546.769,3236.156,8546.392Zm-8.4,6.612v-6.475C3229.724,8548.1,3229.61,8550.279,3227.757,8553Z" transform="translate(-216.746 -393.764)" fill="#403347"/>
    <path id="Path_1562" data-name="Path 1562" d="M3176.229,8163.364c.73,1.049,1.574,2.015,2.371,3.02-.4-.935-.361-1.548.923-1.312a7.237,7.237,0,0,0,.887.023c.55.036,1.48-.07,1.575.157a2.185,2.185,0,0,1-.051,1.826c-.232.326-1.135.322-1.7.22a5.736,5.736,0,0,1-1.543-.793c.428.425.782,1.014,1.3,1.248a8.115,8.115,0,0,0,8.878-1.794,2.824,2.824,0,0,0,.648-2.058c-.353-2.929-.2-3.311,2.639-4.139a19,19,0,0,1,2.878-.381,16.743,16.743,0,0,0,.338-4.187c-.18-1.236-.821-3.047-1.743-3.428-2.792-1.143-5.768-1.854-8.87-.676a52.854,52.854,0,0,1-6.546,1.905c-1.214.294-1.881.872-1.842,2.108a11.533,11.533,0,0,0,.31,2.678c.291,1.029.42,1.721-.978,1.92-1.433.2-2.835.605-4.253.927C3173.712,8160.348,3175.047,8161.675,3176.229,8163.364Z" transform="translate(-187.922 -170.808)" fill="#403347"/>
    <path id="Path_1563" data-name="Path 1563" d="M3151.213,8066.66c-1.649-1.484-3.212-3.083-4.968-4.43-4.386-3.365-8.9-6.558-13.284-9.931-3.868-2.98-7.512-6.256-11.458-9.118a7.019,7.019,0,0,0-8.529.637c-2.18,2.328-4.19,4.845-6.566,6.946-2.854,2.524-6.035,4.677-9.039,7.04a10.159,10.159,0,0,0-1.39,1.669c.169.165.338.334.507.5,3.275-.412,6.35-1.119,7.084-5.635.251.985.389,1.516.526,2.054,2.847-1.024,3.562-2.1,3.318-4.661a4.194,4.194,0,0,1,.357-1.366c.184.027.365.055.546.086.079.911.153,1.822.251,3,1.779-1.236,3.228-2.242,4.6-3.2a6.355,6.355,0,0,0,1.528.361c.569.012,1.143-.29,1.72-.314,2.674-.1,2.619-.086,2.831-2.8a10.736,10.736,0,0,1,.809-2.47c.243.071.491.142.738.212,0,1.28.3,2.663-.079,3.825-.455,1.421.149,1.936,1.178,2.379,1.963.84,4.025,1.48,5.894,2.49,1.5.816,2.674,2.246,4.178,3.059,3.585,1.948,7.292,3.671,10.932,5.521,2.741,1.39,5.458,2.835,8.188,4.257Zm-25.559-14.584c-.307-.04-.609-.075-.915-.114q.312-2.149.617-4.308l.813.13Q3125.91,8049.935,3125.655,8052.076Z" transform="translate(-142.087 -104.941)" fill="#403347"/>
    <path id="Path_1564" data-name="Path 1564" d="M3464.624,8400.984a101.481,101.481,0,0,0-6.471,23.977c-.35,2.584-.671,5.168-1.013,7.809,2.128-.693,2.25-.8,2.655-2.574,4.2-18.492,9.581-36.652,15.2-54.75,3.507-11.291,6.813-22.639,10.193-33.967a14.8,14.8,0,0,0,.318-1.92c-.263-.076-.522-.15-.785-.229-.966,2.363-2.132,4.666-2.87,7.1C3476.306,8364.678,3471.731,8383.227,3464.624,8400.984Z" transform="translate(-361.43 -285.498)" fill="#403347"/>
    <path id="Path_1565" data-name="Path 1565" d="M2927.322,8385.139c-8.67-2.721-17.576-1.742-26.407-2.033-.078,1.747.287,2.156,1.6,1.967a12.238,12.238,0,0,1,1.708-.345c6.137.086,12.279.133,18.412.368,2.442.095,4.865.629,7.457.985-2.922,14.738-5.894,29.726-8.863,44.714.165.035.326.071.491.11.142-.545.31-1.087.417-1.638q2.209-11.332,4.4-22.673c1.249-6.407,2.5-12.816,3.8-19.213.263-1.284.762-2.521,1.249-4.1-.067-.008-.672-.311-1.005-.126-2.4,1.351-4.5.185-6.687-.6a10.737,10.737,0,0,0-3.259-.617c-5.945-.172-11.89-.278-17.835-.364a4.46,4.46,0,0,0-1.39.475c.035.186.067.369.1.55,9.365-.2,18.746-.565,27.9,2.376A5.772,5.772,0,0,1,2927.322,8385.139Z" transform="translate(-23.612 -311.152)" fill="#403347"/>
    <path id="Path_1566" data-name="Path 1566" d="M3566.462,8351.021c-.412.9-.833,2.653-.467,2.909,1.9,1.331.1,1.882-.295,2.809-.471,1.118-1.127,3.278-.884,3.4,1.488.773.365,1.374.051,1.943-.813,1.466-1.7,2.883-2.556,4.32.18.125.357.247.534.372.428-.18.856-.361,1.524-.644-3.3,16.084-6.542,31.92-9.789,47.752l.589.119c5.733-22.336,9.165-45.135,13.775-67.285A47.406,47.406,0,0,0,3566.462,8351.021Z" transform="translate(-420.608 -289.986)" fill="#403347"/>
    <path id="Path_1567" data-name="Path 1567" d="M2916.071,8543.745c2.521.365,5.1.307,7.61.691,10.131,1.552,20.219,3.4,30.369,4.759,10.811,1.445,21.68,2.471,32.525,3.636q15.88,1.709,31.767,3.322c3.295.334,6.613.46,9.919.68.016-.177.036-.353.052-.53-40.536-2.772-80.718-8.419-120.873-14.442A66.155,66.155,0,0,0,2916.071,8543.745Z" transform="translate(-27.581 -408.501)" fill="#403347"/>
    <path id="Path_1568" data-name="Path 1568" d="M3208.471,8023.357c-2.466-1.323-5.1-2.356-7.48-3.809-4.355-2.662-8.572-5.541-12.848-8.329-.138.188-.275.374-.413.562a44.1,44.1,0,0,0,12.456,10.167c3.177,1.646,6.515,3,9.844,4.327a18.338,18.338,0,0,0,4.174.813c.263.039.585-.334.659-.377a14,14,0,0,1-2.442-.841C3211.063,8025.1,3209.842,8024.1,3208.471,8023.357Z" transform="translate(-197.809 -86.227)" fill="#403347"/>
    <path id="Path_1569" data-name="Path 1569" d="M3075.183,8022.961c-.008,0,.083.021.106-.016a1.5,1.5,0,0,0,.3-.476c.518-1.943,1.712-2.6,3.77-2.913a57.95,57.95,0,0,0,10.539-2.7c2.348-.829,3.836-2.941,5.348-5.321-1.426.911-2.509,1.606-3.589,2.3q3.8-3.135,7.606-6.271c-1.916.832-4.107,1.354-5.76,2.6a34.986,34.986,0,0,1-12.165,5.623c-1.472.4-3.016.554-4.523.82a.189.189,0,0,0-.047-.035v0c-.978-3.22-1.952-6.436-2.757-9.1C3074.555,8012.193,3073.067,8017.688,3075.183,8022.961Zm6.079-5.8a75.218,75.218,0,0,1,8.1-1.849c-3.53.922-7.044,1.932-10.614,2.685-.459.1-1.1-.632-1.688-1.174C3078.329,8017.789,3079.628,8017.715,3081.262,8017.157Z" transform="translate(-128.739 -83.95)" fill="#403347"/>
    <path id="Path_1570" data-name="Path 1570" d="M2976.328,8393.46c-3.628,17.27-7.5,33.985-10.308,51.468,2.729-1.037,5.25-1.994,7.406-2.815.071-1.271.13-2.435.189-3.518-.95.907-.126,2.85-2.042,3.377a38.446,38.446,0,0,0-4.622,1.982c2.533-16.563,6.189-32.361,9.475-48.231l1.013-.26c1.893,2.4,3.785,4.807,5.863,7.441C2982.622,8398.542,2979.583,8396.386,2976.328,8393.46Z" transform="translate(-63.159 -318.373)" fill="#403347"/>
    <path id="Path_1571" data-name="Path 1571" d="M3169.61,8459.543c.126.228.251.46.381.691.691-.338,1.39-.652,2.069-1.013a119.5,119.5,0,0,1,22.594-9.248c6.436-1.885,13.041-3.33,19.661-1.725,4.5,1.1,8.8,3.13,13.064,5.038a84.819,84.819,0,0,1,7.826,4.521.942.942,0,0,0-.373-.7,61.635,61.635,0,0,0-18.306-9.169,22.955,22.955,0,0,0-7.143-.907c-8.077.071-15.75,2.16-23.152,5.258C3180.656,8454.623,3175.146,8457.116,3169.61,8459.543Z" transform="translate(-186.805 -350.906)" fill="#403347"/>
    <path id="Path_1572" data-name="Path 1572" d="M3025.907,8543.157c-25.575-2.479-50.851-6.832-76.107-11.337C2974.982,8536.882,3000.29,8541.114,3025.907,8543.157Z" transform="translate(-53.308 -402.403)" fill="#403347"/>
    <path id="Path_1573" data-name="Path 1573" d="M3271.062,7893.25c1.641,4.209,2.784,8.619,4.241,13.253a10.462,10.462,0,0,1-1.139-.213c-2.972-1.209-4.029-.49-4.139,2.741-.067,2.011-.224,4.018-.35,6.126,1.3.734,2.706,1.531,4.112,2.325.2-.134.4-.271.6-.4-4.571-1.064-3.683-4.237-3.636-7.324.059-3.511.781-4.4,4.115-2.349.071.048.232-.054.428-.109a3.674,3.674,0,0,0,.04-.727,50.5,50.5,0,0,0-4.8-16.017c-1.841-3.667-4.692-5.658-8.226-7.162A17.475,17.475,0,0,1,3271.062,7893.25Z" transform="translate(-243.104 -8.594)" fill="#403347"/>
    <path id="Path_1574" data-name="Path 1574" d="M2876.27,8446.991c.235.032.467.06.7.091q3.947-21.759,7.889-43.521c-.181-.035-.357-.066-.538-.1C2882.109,8418.06,2878.324,8432.364,2876.27,8446.991Z" transform="translate(-8.651 -324.446)" fill="#403347"/>
    <path id="Path_1575" data-name="Path 1575" d="M2937.573,8212.568c2.14-3.364,5.022-6.255,7.261-8.969-5.49,3.048-12.047,12.565-13.174,19.555.2.107.4.217.593.322C2934,8219.821,2935.414,8215.962,2937.573,8212.568Z" transform="translate(-42.291 -203.065)" fill="#403347"/>
    <path id="Path_1576" data-name="Path 1576" d="M3264.778,8549.771c.047,1.756,1.237,3.063,2.7,2.961a2.836,2.836,0,0,0,2.447-3.027,2.617,2.617,0,1,0-5.148.066Z" transform="translate(-244.602 -411.41)" fill="#403347"/>
    <path id="Path_1577" data-name="Path 1577" d="M3318.21,8104.851l-.479-.318a10.289,10.289,0,0,1-5.87,6.985c7.166-1.048,12.326-9.078,10.586-16.488-.5,2.23-.683,4.512-1.155,6.73-.432,2.046-1.052,4.1-3.393,5.4C3318.033,8106.17,3318.119,8105.511,3318.21,8104.851Z" transform="translate(-273.197 -137.127)" fill="#403347"/>
    <path id="Path_1578" data-name="Path 1578" d="M3228.01,8350.192a5.61,5.61,0,0,0,4.19-3.647,30.662,30.662,0,0,0,2.164-10.485c.055-2.395.5-4.786.809-7.5-.97-.494-1.516.24-1.6,1.587a61.862,61.862,0,0,0-.259,6.259C3233.511,8341.763,3232.212,8346.485,3228.01,8350.192Z" transform="translate(-222.273 -278.863)" fill="#403347"/>
    <path id="Path_1579" data-name="Path 1579" d="M3246.179,8525.83a2.654,2.654,0,0,0-2.67,2.779,2.9,2.9,0,0,0,2.525,2.992,2.848,2.848,0,0,0,2.58-2.94C3248.492,8527.2,3247.9,8525.963,3246.179,8525.83Z" transform="translate(-231.686 -398.761)" fill="#403347"/>
    <path id="Path_1580" data-name="Path 1580" d="M3247.384,8072.721c1.147.349,1.979.884,2.317.664,1.818-1.2,3.519-2.593,5.258-3.916-.114-.146-.228-.294-.342-.439-1.4,1-2.792,2.015-4.315,3.113l-1.37-2.146c-4,3.977-7.818,7.773-11.631,11.571.165.173.333.35.5.522C3241.117,8078.85,3244.431,8075.607,3247.384,8072.721Z" transform="translate(-227.915 -121.337)" fill="#403347"/>
    <path id="Path_1581" data-name="Path 1581" d="M3295.5,8045.378c-.094-1.32-.126-2.64-.185-3.959-.173.021-.345.044-.518.067-.5,2.933-.432,5.779,1.539,8.336.016.35-.11.837.075,1.037,1.37,1.5,2.8,2.938,4.358,4.555a8.209,8.209,0,0,0-.918-2.2,31.43,31.43,0,0,0-2.773-2.674,55.259,55.259,0,0,1,5.077,2.741c1.72,1.15,3.263,2.579,4.881,3.888-2.38-3.009-4.818-6-8.466-7.359C3296.36,8048.979,3295.646,8047.448,3295.5,8045.378Z" transform="translate(-262.672 -104.569)" fill="#403347"/>
    <path id="Path_1582" data-name="Path 1582" d="M3267.857,8038.446c-.059-.074-.118-.146-.177-.22.035.086.075.177.11.264l.071-.036c.043.581.09,1.158.137,1.739,1.916-2.124,3.306-4.205,3.381-6.962.11-4.119.432-8.227.664-12.361-.122.04-.208.035-.24.079-1.728,2.281-1.237,4.877-1.142,7.452a21.947,21.947,0,0,1-.495,3.742C3271.112,8035.025,3270.472,8036.781,3267.857,8038.446Z" transform="translate(-246.365 -92.088)" fill="#403347"/>
    <path id="Path_1583" data-name="Path 1583" d="M3266.025,8528.532c.8-.5,1.437-.9,2.14-1.335a2.547,2.547,0,0,0-2.926,2.769c.016,1.677,1.194,3.012,2.541,2.879,1.461-.15,2.176-1.564,1.928-4.064C3268.621,8528.706,3267.5,8528.63,3266.025,8528.532Z" transform="translate(-244.883 -399.594)" fill="#403347"/>
    <path id="Path_1584" data-name="Path 1584" d="M3153.705,8536.4a5.116,5.116,0,0,0-.043-1.174c-.208-4.613-.027-4.821,4.516-4.516.88.06,1.755.2,2.627.343l.762.129c.248.035.5.074.743.11-.44-.288-.864-.742-1.328-.781-2-.189-4.017-.287-6.031-.326-1.371-.028-2.215.549-2.082,2.123.106,1.293,0,2.608.13,3.9.11,1.095-.2,1.633-.958,1.7q3.015.429,6.04.855c-.868-.16-1.736-.322-2.607-.432C3154.282,8538.184,3153.438,8537.858,3153.705,8536.4Z" transform="translate(-176.134 -401.412)" fill="#403347"/>
    <path id="Path_1585" data-name="Path 1585" d="M3069.92,8063.8c1.995,4.343,3.86,8.4,5.737,12.479C3076.886,8074.838,3073.34,8067,3069.92,8063.8Z" transform="translate(-126.26 -118.161)" fill="#403347"/>
    <path id="Path_1586" data-name="Path 1586" d="M2886.94,8460.337q-1.443,9.778-2.819,19.559c-.051.354.251.754.483,1.391a4.721,4.721,0,0,0,.342-.849q1.2-10.178,2.388-20.348s-.008,0-.012.009C2887.168,8460.173,2886.956,8460.238,2886.94,8460.337Z" transform="translate(-13.416 -358.839)" fill="#403347"/>
    <path id="Path_1587" data-name="Path 1587" d="M3242.912,8099.527c3.09-2.392,6.142-4.834,9.2-7.265-.142-.169-.283-.338-.424-.5-3.3,2.293-6.6,4.591-10.178,7.072C3242.28,8099.224,3242.786,8099.621,3242.912,8099.527Z" transform="translate(-230.472 -135.141)" fill="#403347"/>
    <path id="Path_1588" data-name="Path 1588" d="M3306.53,8027.245c.1-.008.208-.019.31-.031.09.39.181.774.255,1.092q1.461-4.175,2.926-8.359c-.18-.063-.365-.13-.546-.2q-.948,2.237-1.9,4.48c-.106-.02-.216-.044-.326-.063q-.142-1.419-.283-2.83c-.153.019-.3.034-.455.05q-.159,3.388-.314,6.777c.067,0,.133,0,.2.009C3306.444,8027.862,3306.487,8027.556,3306.53,8027.245Z" transform="translate(-269.76 -91.408)" fill="#403347"/>
    <path id="Path_1589" data-name="Path 1589" d="M3145.783,8528.5c.071-3.04.479-3.538,3.554-3.456,2.792.075,5.58.416,8.368.641a10.228,10.228,0,0,0-2.635-.91c-2.4-.143-4.814.03-7.213-.123-1.775-.113-2.341.8-2.431,2.277-.146,2.325-.224,4.649-.338,7.163h-2.038c.907.113,1.81.224,2.717.333.028-1,.078-1.986.078-2.983S3145.759,8529.486,3145.783,8528.5Z" transform="translate(-170.674 -398.046)" fill="#403347"/>
    <path id="Path_1590" data-name="Path 1590" d="M3212.95,8186.259c4.4.334,6.291-3.841,9.884-4.539.016-.181.027-.365.043-.546-.88-.282-1.755-.562-2.643-.845C3219.178,8184.025,3215.463,8184.221,3212.95,8186.259Z" transform="translate(-213.126 -188.933)" fill="#403347"/>
    <path id="Path_1591" data-name="Path 1591" d="M3303.96,8047.574a30.5,30.5,0,0,0-3.451-2.226,2.016,2.016,0,0,1-.762-1.163c-.4-1.755-.707-3.534-1.083-5.5C3296.759,8042.65,3299.292,8046.942,3303.96,8047.574Z" transform="translate(-264.795 -102.905)" fill="#403347"/>
    <path id="Path_1592" data-name="Path 1592" d="M2892.318,8459.037c0,.02,0,.044-.008.063.016-.007.031-.016.047-.023.032-.2.059-.412.09-.616-.043.192-.09.381-.134.573Z" transform="translate(-18.393 -357.849)" fill="#403347"/>
    <path id="Path_1593" data-name="Path 1593" d="M2892.676,8429.993a.812.812,0,0,0-.016.1q2.108-9.1,4.225-18.181c-.188-.056-.377-.106-.565-.161a3.685,3.685,0,0,0-.377.8c-.793,3.758-1.614,7.512-2.332,11.285C2893.222,8425.874,2892.97,8427.936,2892.676,8429.993Z" transform="translate(-18.605 -329.481)" fill="#403347"/>
    <path id="Path_1594" data-name="Path 1594" d="M3259.819,8050.9c.475.655.947,1.311,1.422,1.967.99-2.129.031-3.3-2.14-3.9-.4.3-.95.711-1.681,1.257,1.374,1.731,2.7,3.4,4.029,5.069q-.9-2.139-1.8-4.281C3259.706,8050.971,3259.764,8050.936,3259.819,8050.9Z" transform="translate(-240.134 -109.148)" fill="#403347"/>
    <path id="Path_1595" data-name="Path 1595" d="M3433.35,8410.895q2.368,8.068,4.735,16.135c.193-.055.381-.11.57-.165l-4.748-16.064Z" transform="translate(-346.982 -328.904)" fill="#403347"/>
    <path id="Path_1596" data-name="Path 1596" d="M2952.222,8462.934c-.138-.021-.275-.047-.417-.074l-3.475,17.914c.2.012.393.023.589.031Q2950.574,8471.869,2952.222,8462.934Z" transform="translate(-52.415 -360.521)" fill="#403347"/>
    <path id="Path_1597" data-name="Path 1597" d="M3262.794,8106.958c-.051-.2-.106-.4-.157-.6a27.677,27.677,0,0,0-2.7-2.466c-.464-.334-1.233-.243-1.865-.342.184.59.2,1.354.6,1.732a10.189,10.189,0,0,0,2.568,1.719C3261.647,8107.2,3262.268,8106.986,3262.794,8106.958Z" transform="translate(-240.529 -142.302)" fill="#403347"/>
    <path id="Path_1598" data-name="Path 1598" d="M3267.213,8572.815c.153.806,1.135,1.968,1.81,2.016.774.055,1.622-.951,2.435-1.493,0-.295.008-.585.012-.879-.738-.565-1.418-1.484-2.23-1.626A1.67,1.67,0,0,0,3267.213,8572.815Zm1.794,1a1.626,1.626,0,0,1-1.06-1.206,1.592,1.592,0,0,1,1.147-1.093c.42-.03.88.605,1.649,1.2C3269.93,8573.269,3269.416,8573.885,3269.007,8573.818Z" transform="translate(-246.059 -426.078)" fill="#403347"/>
    <path id="Path_1599" data-name="Path 1599" d="M3256.246,8111.832l.672-.412c-.255-.508-.377-1.226-.785-1.485a28.187,28.187,0,0,0-3.169-1.535c-.035.511-.283,1.327-.063,1.484A35.864,35.864,0,0,0,3256.246,8111.832Z" transform="translate(-237.335 -145.247)" fill="#403347"/>
    <path id="Path_1600" data-name="Path 1600" d="M3041.787,8144.313c-.581-3.679-1.163-7.357-1.68-10.613C3039.879,8137.064,3039.635,8140.874,3041.787,8144.313Z" transform="translate(-108.066 -160.613)" fill="#403347"/>
    <path id="Path_1601" data-name="Path 1601" d="M3047.949,8012.035c.9-1,1.072-1.9-.149-2.862-.322-.256-.314-1.037-.3-1.574a16.9,16.9,0,0,1,.3-2.058C3045.738,8008.72,3045.848,8010.319,3047.949,8012.035Z" transform="translate(-111.923 -82.779)" fill="#403347"/>
    <path id="Path_1602" data-name="Path 1602" d="M3072.85,8095.478c.291-.149.455-.537.679-.816-.236-.182-.562-.569-.691-.511a46.874,46.874,0,0,0-4.276,2.128c-.184.106.02.884.039,1.237C3070.167,8096.773,3071.526,8096.161,3072.85,8095.478Z" transform="translate(-125.389 -136.59)" fill="#403347"/>
    <path id="Path_1603" data-name="Path 1603" d="M3268.775,8102.282a3.311,3.311,0,0,0-.491-1.1,16.181,16.181,0,0,0-2.368-1.975,4.6,4.6,0,0,0-1.61-.342l-.177.8c1.1.88,2.156,1.81,3.31,2.607C3267.739,8102.486,3268.323,8102.29,3268.775,8102.282Z" transform="translate(-244.209 -139.46)" fill="#403347"/>
    <path id="Path_1604" data-name="Path 1604" d="M3122.857,8118.569c-.177-.036-.349-.067-.522-.1-.534,3.07-1.068,6.141-1.606,9.239-.518.146-1.312.365-2.109.586.028.086.055.172.083.263l2.564-.322C3121.793,8125.032,3122.323,8121.8,3122.857,8118.569Z" transform="translate(-155.837 -151.364)" fill="#403347"/>
    <path id="Path_1605" data-name="Path 1605" d="M3284.864,8578.466c-1.425-.126-1.7-.855-1.661-2.061.051-1.74.012-3.476.012-5.216h-.4v6.118c-.715.314-1.052.46-1.39.608.008.188.012.382.016.569l6.585.813a.4.4,0,0,1,.048.008c-.366-.1-.727-.224-1.088-.338A9.749,9.749,0,0,0,3284.864,8578.466Z" transform="translate(-254.71 -426.313)" fill="#403347"/>
    <path id="Path_1606" data-name="Path 1606" d="M3298.35,8591.86c.059.02.122.036.181.052l.008-.009.063.028c-.02-.016-.036-.032-.055-.047Z" transform="translate(-264.992 -438.867)" fill="#403347"/>
    <path id="Path_1607" data-name="Path 1607" d="M3265.16,8045.691a20.961,20.961,0,0,1,1.457,2.354,24.922,24.922,0,0,1,.836,2.682c1.579-1.183.1-2.679.4-3.993C3266.939,8046.489,3266.318,8044.9,3265.16,8045.691Z" transform="translate(-244.835 -107.03)" fill="#403347"/>
    <path id="Path_1608" data-name="Path 1608" d="M3273.781,8099.428c-2.172-2.96-2.855-3.337-4.441-2.561C3270.918,8097.772,3271.586,8099.907,3273.781,8099.428Z" transform="translate(-247.373 -138.032)" fill="#403347"/>
    <path id="Path_1609" data-name="Path 1609" d="M3069.971,8089.438c-1.806-.13-3.145,1.347-4.755,1.881-.169.055-.134.726-.216,1.279l5.136-2.442Z" transform="translate(-123.272 -133.728)" fill="#403347"/>
    <path id="Path_1610" data-name="Path 1610" d="M3293.249,8139.919c-2.458.727-5.152.754-7.158,2.859q3.676-1.078,7.351-2.164C3293.378,8140.383,3293.311,8140.151,3293.249,8139.919Z" transform="translate(-257.546 -164.39)" fill="#403347"/>
    <path id="Path_1611" data-name="Path 1611" d="M3050.814,8105.636c1.15-.106,2.1-.684,1.963-1.626a18.522,18.522,0,0,1-3.342,1.366c-3.137.628-4.963,1.982-5.375,4.575A8.111,8.111,0,0,1,3050.814,8105.636Z" transform="translate(-110.555 -142.582)" fill="#403347"/>
    <path id="Path_1612" data-name="Path 1612" d="M3066.981,8084.6c0-.125-.377-.317-.6-.337-.993-.087-3.879,1.939-4.465,3.349,1.8-.832,3.3-1.5,4.771-2.229C3066.879,8085.287,3066.993,8084.867,3066.981,8084.6Z" transform="translate(-121.401 -130.589)" fill="#403347"/>
    <path id="Path_1613" data-name="Path 1613" d="M3279,8096.357c.389-1.417-1.629-3.3-3.534-3.6-.122.143-.24.287-.362.429C3276.373,8094.226,3277.645,8095.258,3279,8096.357Z" transform="translate(-250.872 -135.749)" fill="#403347"/>
    <path id="Path_1614" data-name="Path 1614" d="M3314.9,8085.456c-.02-.03-.043-.062-.067-.094-.063-.04-.122-.082-.185-.122l.146.157Z" transform="translate(-274.891 -131.182)" fill="#403347"/>
    <path id="Path_1615" data-name="Path 1615" d="M3315.29,8085.79c1.838,2.529,3.676,5.058,5.839,8.042C3319.665,8090.373,3318.377,8087.451,3315.29,8085.79Z" transform="translate(-275.28 -131.516)" fill="#403347"/>
    <path id="Path_1616" data-name="Path 1616" d="M3547.06,8509.212l1.83,2.054c.365-1.367.64-2.384.911-3.405-.114-.094-.232-.192-.345-.29C3548.682,8508.1,3547.9,8508.635,3547.06,8509.212Z" transform="translate(-416.041 -387.675)" fill="#403347"/>
    <path id="Path_1617" data-name="Path 1617" d="M3281.258,8132.243c.243-.437.8-1.029.675-1.288a9.127,9.127,0,0,0-4.543-4.135C3278.78,8128.473,3281,8129.5,3281.258,8132.243Z" transform="translate(-252.263 -156.435)" fill="#403347"/>
    <path id="Path_1618" data-name="Path 1618" d="M3034.2,8108.65c-.192.07-.381.145-.569.216,1.064,2.112,2.128,4.229,3.287,6.53C3037.808,8112.219,3034.431,8111.116,3034.2,8108.65Z" transform="translate(-104.22 -145.4)" fill="#403347"/>
    <path id="Path_1619" data-name="Path 1619" d="M3060.14,8083.738c1.563-.825,3.126-1.648,5.069-2.678A4.724,4.724,0,0,0,3060.14,8083.738Z" transform="translate(-120.32 -128.581)" fill="#403347"/>
    <path id="Path_1620" data-name="Path 1620" d="M3054.133,8065.968a27.385,27.385,0,0,0-2.423,2.926c.051.083.1.161.157.243q1.961-1.2,3.927-2.4c0-.177.008-.356.008-.537C3055.232,8066.106,3054.392,8065.729,3054.133,8065.968Z" transform="translate(-115.201 -119.43)" fill="#403347"/>
    <path id="Path_1621" data-name="Path 1621" d="M3057.37,8080.394c1.7-.932,3.185-1.732,4.661-2.537C3059.1,8077.81,3057.936,8078.48,3057.37,8080.394Z" transform="translate(-118.638 -126.696)" fill="#403347"/>
    <path id="Path_1622" data-name="Path 1622" d="M3565.821,8435.277l-.389-.117c-.593,1-1.182,2-1.822,3.078h1.92C3565.636,8437.166,3565.727,8436.22,3565.821,8435.277Z" transform="translate(-426.092 -343.699)" fill="#403347"/>
    <path id="Path_1623" data-name="Path 1623" d="M3229.69,8518.17v8.725c.118-2.366.271-5.513.428-8.654C3229.973,8518.217,3229.832,8518.194,3229.69,8518.17Z" transform="translate(-223.293 -394.113)" fill="#403347"/>
    <path id="Path_1624" data-name="Path 1624" d="M3199.46,8148.841c2.662-.278,5.525-.573,8.266-.86C3204.875,8147.046,3202.052,8147.761,3199.46,8148.841Z" transform="translate(-204.933 -169.024)" fill="#403347"/>
    <path id="Path_1625" data-name="Path 1625" d="M3561.48,8456.3c1.877-.428,1.354-1.838,1.457-3.078C3560.424,8453.472,3562.4,8455.482,3561.48,8456.3Z" transform="translate(-424.798 -354.667)" fill="#403347"/>
    <path id="Path_1626" data-name="Path 1626" d="M3569.958,8419.338c-.294-.13-.585-.263-.88-.4-.424.971-.844,1.94-1.268,2.906.291.13.577.264.868.394C3569.106,8421.273,3569.53,8420.3,3569.958,8419.338Z" transform="translate(-428.643 -333.848)" fill="#403347"/>
    <path id="Path_1627" data-name="Path 1627" d="M3282.41,8556.116v9.4c.051,0,.106,0,.161,0v-9.486A1.805,1.805,0,0,0,3282.41,8556.116Z" transform="translate(-255.311 -417.107)" fill="#403347"/>
    <path id="Path_1628" data-name="Path 1628" d="M3541.48,8535.537c.232.129.459.259.687.389q.936-1.589,1.869-3.177c-.247-.161-.495-.318-.742-.479Q3542.387,8533.907,3541.48,8535.537Z" transform="translate(-412.652 -402.676)" fill="#403347"/>
    <path id="Path_1629" data-name="Path 1629" d="M3054.56,8074.952c.126.185.255.369.385.554q2.221-1.271,4.437-2.541c-.137-.224-.279-.451-.42-.675Z" transform="translate(-116.932 -123.317)" fill="#403347"/>
    <path id="Path_1630" data-name="Path 1630" d="M3224.63,8514.2v8.972c.079.024.161.044.243.067v-9.031C3224.791,8514.2,3224.708,8514.2,3224.63,8514.2Z" transform="translate(-220.22 -391.702)" fill="#403347"/>
    <path id="Path_1631" data-name="Path 1631" d="M3284.41,8538.034v9.113h.137v-9.117C3284.5,8538.03,3284.457,8538.034,3284.41,8538.034Z" transform="translate(-256.526 -406.175)" fill="#403347"/>
    <path id="Path_1632" data-name="Path 1632" d="M3553.26,8491.218c.271.146.542.287.809.434q.542-1.616,1.08-3.225-.377-.146-.754-.287C3554.018,8489.168,3553.637,8490.193,3553.26,8491.218Z" transform="translate(-419.807 -375.875)" fill="#403347"/>
    <path id="Path_1633" data-name="Path 1633" d="M3151.94,7994.231l7.673-.475C3157.233,7993.25,3154.536,7992.821,3151.94,7994.231Z" transform="translate(-176.073 -75.329)" fill="#403347"/>
    <path id="Path_1634" data-name="Path 1634" d="M3281.486,8527.815l-.2-.036v8.517c.067,0,.13,0,.2,0Z" transform="translate(-254.631 -399.948)" fill="#403347"/>
    <path id="Path_1635" data-name="Path 1635" d="M3556.934,8472.39q-.683,1.043-1.374,2.077c.294.208.589.417.884.624l1.343-2.154C3557.5,8472.756,3557.217,8472.574,3556.934,8472.39Z" transform="translate(-421.203 -366.309)" fill="#403347"/>
    <path id="Path_1636" data-name="Path 1636" d="M3266.21,8587.56c1.426-.4,2.792-.8,4.139-1.183C3267.981,8585.534,3267.474,8585.679,3266.21,8587.56Z" transform="translate(-245.473 -435.238)" fill="#403347"/>
    <path id="Path_1637" data-name="Path 1637" d="M3341.828,8520.7c.027.985.051,1.972.083,2.953.035-1.7.09-3.39.122-5.085A17.687,17.687,0,0,0,3341.828,8520.7Z" transform="translate(-291.397 -394.356)" fill="#403347"/>
    <path id="Path_1638" data-name="Path 1638" d="M3141.97,8548.59c.008.016.012.032.02.047h.4c-.13-.015-.256-.031-.385-.047Z" transform="translate(-170.018 -412.588)" fill="#403347"/>
    <path id="Path_1639" data-name="Path 1639" d="M3167.42,8552.03c.471.091.943.18,1.418.263h.369c-.1-.015-.2-.034-.3-.051Z" transform="translate(-185.475 -414.677)" fill="#403347"/>
    <path id="Path_1640" data-name="Path 1640" d="M3178.253,8533.054v6.753c.2-.012.4-.02.6-.03l-.6-6.72v-.035c-.024,0-.043-.008-.067-.012a.018.018,0,0,0,.016.012A.323.323,0,0,0,3178.253,8533.054Z" transform="translate(-192.016 -403.125)" fill="#403347"/>
    <path id="Path_1641" data-name="Path 1641" d="M3149.97,8549.559v.052a2.8,2.8,0,0,0,.813.063l-.773-.11C3150,8549.563,3149.982,8549.559,3149.97,8549.559Z" transform="translate(-174.877 -413.176)" fill="#403347"/>
    <path id="Path_1642" data-name="Path 1642" d="M3311.77,8550.624c.519,1.193,1.033,2.382,1.327,3.054a11.1,11.1,0,0,1,1.983-.714c1.743-.283,3.6-.294,4.249-2.384C3317.146,8552.838,3314.358,8552.846,3311.77,8550.624Z" transform="translate(-273.143 -413.796)" fill="#403347"/>
    <path id="Path_1643" data-name="Path 1643" d="M3163.64,8539.43c-.259-.723.2-1.7.341-2.568-.059-.121-.122-.244-.185-.362-.448.865-1.217,1.725-1.237,2.6a2.9,2.9,0,0,0,1.468,1.97c.44.248,1.308-.262,1.956-.427C3164.959,8540.147,3163.832,8539.959,3163.64,8539.43Z" transform="translate(-182.523 -405.244)" fill="#403347"/>
  </g>
</svg>
