<svg id="Group_1853" data-name="Group 1853" xmlns="http://www.w3.org/2000/svg" width="183.451" height="191.396" viewBox="0 0 183.451 191.396">
  <path id="Path_296" data-name="Path 296" d="M8240.9,3016.625a39.352,39.352,0,0,1-39.135.03c-1.992,18.7-3.96,37.193-5.941,55.794h51.032C8244.872,3053.837,8242.9,3035.326,8240.9,3016.625Zm-11.817,29.54c0,1.262.035,2.523,0,3.782a7.661,7.661,0,1,1-15.32-.133c-.039-2.523-.044-5.046,0-7.567a7.653,7.653,0,0,1,15.3-.271c.076,1.392.015,2.791.015,4.188Z" transform="translate(-8088.179 -2910.473)" fill="#5e1822"/>
  <path id="Path_297" data-name="Path 297" d="M8203.143,3269.905a9.838,9.838,0,0,1-8.8,7.913c-.764.068-1.532.076-2.3.076q-19.617,0-39.24,0v-.005q-20.093,0-40.187-.005c-5.081-.008-9.042-2.991-10.13-7.523a9.874,9.874,0,0,1,9.6-12.309c9.786-.057,19.575-.016,29.365-.016q25.909,0,51.825.006A9.85,9.85,0,0,1,8203.143,3269.905Z" transform="translate(-8019.893 -3086.502)" fill="#5e1822"/>
  <path id="Path_298" data-name="Path 298" d="M53.144,32.583A40.288,40.288,0,0,0,37.751,51.062C25.092,40.231,12.6,29.543,0,18.763A32.419,32.419,0,0,0,15.057,0Z" transform="translate(41.831 31.926) rotate(-18)" fill="#5e1822"/>
  <path id="Path_299" data-name="Path 299" d="M8202.466,2780.032a30.244,30.244,0,1,0,30.243,30.244A30.245,30.245,0,0,0,8202.466,2780.032Zm0,46.113a15.869,15.869,0,1,1,15.868-15.869A15.869,15.869,0,0,1,8202.466,2826.145Z" transform="translate(-8070.963 -2737.97)" fill="#5e1822"/>
  <path id="Path_300" data-name="Path 300" d="M43.528,21.765A21.764,21.764,0,1,1,.861,15.682L11.884,26.706a3.219,3.219,0,0,0,4.551,0L26.706,16.435a3.219,3.219,0,0,0,0-4.551L15.683.861a21.782,21.782,0,0,1,27.845,20.9Z" transform="translate(0 13.451) rotate(-18)" fill="#5e1822"/>
</svg>
