<svg xmlns="http://www.w3.org/2000/svg" width="624.15" height="766.481" viewBox="0 0 624.15 766.481">
  <g id="Group_2279" data-name="Group 2279" transform="translate(512.581 -4892.048) rotate(30)" opacity="0.1">
    <path id="Path_1333" data-name="Path 1333" d="M2599.061,4326.36a15.32,15.32,0,0,1-1.047,2.906c-6.858,13.054-14.986,25.031-27.067,34.029-4.292,3.186-5.133,8.866-7.449,13.275-3.938,7.479-.162,18.984-11.284,22.981-1.475.531-1.637,4.381-2.64,6.608-5.649,12.6-10.931,25.385-17.332,37.583-1.637,3.083-7.125,3.954-10.429,6.4-7.287,5.414-14.9,10.576-21.285,16.948-8.983,8.953-4.027,21.314-5.871,32.038-1.431,8.29-1.239,16.7-10.34,21.182-7.095,3.5-6.8,11.24-8.954,17.435a67.336,67.336,0,0,1-18.792,28.734c-6.2,5.575-10.384,13.364-15.429,20.208-.384.531-.752,1.549-.5,2.021,6.107,11.638-4.75,19.381-7.036,29.044-.738,3.126-6.18,5.1-9.381,7.713-2.2,1.785-5.251,3.379-6.166,5.753-1.445,3.761-2.124,6.431-7.272,7.05-7.316.9-10.34,7.214-8.039,14.338,1.918,5.943,2.508,11.461-3.511,15.487-4.735,3.171-5.221,8.157-6.593,13.157-2.375,8.659-4.868,17.642-9.4,25.253-2.95,4.971-9.249,8.349-14.633,11.431-8.938,5.1-11.446,8.437-9.455,18.468,1.15,5.826-.384,9.691-4.838,13.142-9.278,7.2-9.632,18.2-11.741,28.424-.088.458-.133,1.15.133,1.431,8.423,9-1.121,14.455-5.458,18.127-8.953,7.552-11,18.527-16.845,27.5-6.918,10.635-3.968,23.689-6.446,35.445-1.5,7.109-5.34,13.717-7.759,20.68-1.15,3.3-1.4,6.933-2.168,10.4-.826,3.732-1.372,7.6-2.758,11.137-2.6,6.682-6.121,13.025-8.452,19.781-1.416,4.071-1.4,8.658-1.9,13.024-.413,3.6-.354,7.287-1.047,10.827-1.166,5.9-2.8,11.712-4.189,17.583q-3.386,14.358-6.726,28.734c-1.121-.192-2.257-.384-3.393-.576,1.017-3.659,1.313-7.744,3.186-10.9,6.195-10.428,2.95-21.167,1.637-31.787-.841-6.785-2.508-13.128,2.213-19.5,1.666-2.257.427-6.52.944-9.794,1.135-7.214,2.331-14.427,3.879-21.566,1.15-5.236,4.189-10.369,4.071-15.487-.163-7.435,6.682-8.836,9.352-13.659,3.791-6.814,4.868-13.659,2.212-21-2.183-6.032-2.374-11.342,2.3-16.875,4.322-5.118,5.148-11.121,3.289-18.5-2.935-11.639.133-22.908,7.007-33.2,2.758-4.114,3.6-9.483,5.517-14.2.988-2.418,2.463-4.631,3.673-6.947,2.759-5.311,5.826-10.487,8.024-16,.6-1.489-2.3-4.16-2.035-6.062,1.46-10.1,2.2-20.739,12.714-26.551,5.163-2.861,5.855-6.859,4.278-12.375a17.22,17.22,0,0,1,.472-10.385c3.26-8.127,4.234-16.948,11.668-23.806,3.658-3.364,3.26-12.214,2.95-18.5-.369-7.73,4.189-10.207,9.853-12.066,6.431-2.124,13.2-11.4,13.275-18.025.059-4.322,1.121-8.615,1.711-12.936.265-1.9-.1-4.2.87-5.62,2.7-3.968,5.236-9.308,9.145-10.916,6.859-2.833,7.184-7.2,6.992-13.114a14.6,14.6,0,0,1,2.508-7.95c3.761-5.752,7.168-12.257,12.331-16.447,5.93-4.794,9.455-10.576,12.907-16.949,1.047-1.932,4.115-3.51,6.476-3.863,6.327-.974,9.352-4.9,8.039-10.415-1.431-5.944.752-10.384,3.289-14.986,4.2-7.641,6.756-16.595,15.532-20.8,2.124-1.018,4.573-1.371,6.594-2.522,2.36-1.328,5.118-2.759,6.416-4.927,2.685-4.44,4.2-9.543,6.726-14.087,7.228-13.01,14.78-25.813,29.634-31.743.678-.266,1.607-.413,1.962-.929,6.475-9.367,12.847-18.807,19.337-28.158,5.974-8.659,9.426-19.013,20.178-24.309,4.44-2.183,6.83-8.644,10.031-13.246,1.593-2.3,2.508-5.192,4.425-7.138C2580.476,4344.4,2590.034,4335.2,2599.061,4326.36Z" transform="translate(15.052 0)"/>
    <path id="Path_1334" data-name="Path 1334" d="M2577.627,4441.583c-6.461,2.551-6.682,6-6.579,11.461.192,9.514-.664,19.176-7.007,26.816-4.277,5.148-10.517,8.732-14.455,14.057-2.434,3.3-2.449,8.556-3.054,13-.31,2.33,1.431,5.237.59,7.14-4.985,11.284-10.384,22.376-15.871,33.423-.56,1.136-2.567,1.844-4.042,2.184-7.464,1.77-9.824,5.531-9.4,13.364.221,4.2-.9,8.481-1.431,12.729-1.4,11.27-2.434,22.612-4.484,33.764-.576,3.1-5.06,5.325-6.21,8.511-3.009,8.319-5.443,15.339-16.535,17.243-6.372,1.092-11.269,8.261-12.611,16.594-.885,5.591-3.01,11.446-9.942,14.206-5.516,2.183-5.177,7.936-2.154,10.59,1.268,5,2.891,7.98,2.552,10.724-.635,4.956.9,10.8-4.794,14.337-2.168,1.357-3.6,3.834-5.5,5.664-2.08,2.005-4.307,3.879-7.065,6.328.339.752,1.165,2.522,1.991,4.277-.295.192-.6.384-.9.576l-3.555-4.336c-.118,2.493-.62,4.2-.162,4.514,5.959,4.027,2.419,7.139-.28,11.225a80.621,80.621,0,0,1-17.081,18.422c-5.281,4.308-7.257,12.951-10.03,19.929-1.608,4.026-1.888,8.584-2.876,13.394-7.729-1.755-10.045,2.331-10.768,9.278-.413,4-2.788,7.8-4.219,11.7a50.187,50.187,0,0,0-2.522,7.479c-1.092,5.678-.929,11.46-8.968,13.083-2.212.458-3.481,6.505-4.809,10.134-1.091,2.98-1.564,6.181-2.434,9.264-.664,2.3-2.419,4.661-2.154,6.814,1.018,8.247-4.853,13.114-8.113,19.441-3.584,6.977-4.366,15.326-7.272,22.715-1.726,4.381-5.163,8.1-7.862,12.1-1.224,1.813-3.142,3.407-3.673,5.4-1.814,6.712-3.127,13.556-4.676,20.341-.62,2.7-1.386,5.354-2.11,8.039-1.342,4.986-2.478,10.03-4.1,14.927-2.508,7.567-5.354,15.016-8.054,22.524-.634-.207-1.283-.428-1.932-.635,3.245-13.186,6.859-26.3,9.588-39.59,1.342-6.564.162-13.688,1.726-20.164a145.512,145.512,0,0,1,8.673-24.354c2.125-4.823,6.048-8.806,8.6-13.482,1.947-3.554,4.661-7.05,1.077-11.859-1.136-1.548,1.49-5.9,1.918-7.316-.826-3.879-2.537-7.081-1.814-9.559a77.187,77.187,0,0,1,7.036-16.27c5.369-9.337,10.487-18.57,12.169-29.487.6-3.937,3.747-7.418,5.06-11.327,1.283-3.822,3.275-7.022,3.216-11.86-.1-9.071,2.655-18.232,4.705-27.245.457-2.05,2.847-3.717,4.5-5.427,6.638-6.963,9.529-15.061,8.2-24.737-.192-1.313,1.4-3.585,2.758-4.307,8.673-4.573,12.3-11.461,9.588-20.99-1.77-6.224,0-10.429,4.131-15.031,4.277-4.779,7.375-10.62,12.154-17.73-3.953.767-5.856,1.135-7.582,1.475-1.166-1.874-2.4-3.864-3.761-6.047,5.9-5.177,5.649-11.24,1.313-18.984,4.543-2.006,8.7-3.806,12.833-5.649a8.881,8.881,0,0,0,3.127-1.755c6.475-7.243,13.216-14.293,19.043-22.037,2.271-2.995,1.918-7.848,3.629-11.432,3.407-7.14,3.333-14.352,2.39-21.949-.988-7.92,8.54-20.857,16.3-22.435a14.4,14.4,0,0,0,11.328-9.735c2.345-6.18,4.086-12.642,7.007-18.526,2.035-4.116,5.678-7.4,8.5-11.151a18.132,18.132,0,0,0,2.36-4.323c1.682-4.514,2.493-8.407,8.275-11.254,5.443-2.685,8.23-10.562,12.434-15.975,4.44-5.694,9.469-10.975,13.689-16.815,3.908-5.413,7.065-11.358,10.605-17.036,4.249-6.86,8.1-14.029,12.966-20.4,4.012-5.222,9.263-9.484,13.954-14.19.517-.517,1.475-1.062,1.446-1.549-.576-9.249,7.316-12.42,12.361-17.715,3.333-3.5,6.018-7.6,9.042-11.387,1.46-1.83,3.054-3.555,4.587-5.325.664.487,1.327.973,2.006,1.46-7.286,18.261-21.388,32.127-32.79,47.718C2587.6,4434.178,2587.274,4437.777,2577.627,4441.583Z" transform="translate(42.372 25.186)"/>
    <path id="Path_1335" data-name="Path 1335" d="M2461.742,4358.5c-11.653,15.089-22.3,29.383-33.542,43.189-5.177,6.357-9.455,12.391-10.1,21.137-.369,4.75-4.307,9.248-6.771,13.807-.9,1.681-3.186,3.186-3.142,4.735.3,10.472-8.127,16.3-12.464,24.264-.575,1.062-1.195,2.463-2.153,2.92-11.505,5.281-13.733,15.12-14.072,26.507-.133,4.248-2.08,9.47-9.5,6.328-3.392,13.939-6.594,28.041-20.223,39.222-.162,2.98-.516,8.319-.752,13.66-.295,6.8-1.077,13.083-8.658,16.254-1.475.62-2.287,4.071-2.449,6.284-.4,5.266,1.283,10.428-5.959,13.6-3.289,1.46-5.1,7.744-6.284,12.2-2.08,7.862-2.286,16.3-5.015,23.881-1.475,4.116-6.033,7.906-10.134,10.119-5.679,3.068-5.753,7.125-4.2,11.933,2.065,6.49,2.818,12.907-.457,19.1-1.77,3.318-4.278,6.253-6.387,9.41-1.3,1.977-3.378,3.983-3.525,6.078-.4,5.781-4.352,8.422-8.039,11.874-2.228,2.08-3.393,5.812-3.982,8.984-.664,3.554.192,7.39-.28,11-.3,2.286-1.386,5.9-2.891,6.342-7.538,2.2-7.847,8.791-8.3,14.175-1.608,18.7-6.269,36.522-12.686,54.075-2.228,6.077-2.655,12.8-3.982,19.22-2.832,13.585-5.723,27.171-8.57,40.77-.752.221-1.49.457-2.227.693-.383-.885-1.195-1.813-1.092-2.64.959-7.715,2.228-15.4,3.1-23.128.915-8.113,1.372-16.285,2.242-24.412a117.066,117.066,0,0,1,2.109-13.172c.723-3.29,2.6-6.372,2.95-9.662.87-8.112-.811-17.229,2.419-24.117,2.05-4.381-1.7-7.006.5-10.266,2.286-3.377,4.912-6.992,5.635-10.841.944-4.942.192-10.208.074-15.341-.163-7.154-.944-14.352-.428-21.447.324-4.705,1.534-9.854,4-13.777,3.628-5.8,8.7-10.693,13.128-15.931-8.275-13.453-7.258-22.273,3.112-33.41,1.756-1.887,2.154-5.147,2.906-7.847,1.357-4.824,2.552-9.646,8.85-8.349,2.036-7.257,4.042-13.954,5.782-20.725.531-2.08,1.15-4.735.324-6.446-4.056-8.319,1.4-12.612,6.18-18,5.266-5.944,9.44-12.862,13.762-19.588.84-1.313.575-3.791.015-5.443-1.947-5.738-.3-9.587,5.4-11.565,3.643-1.269,4.175-2.655,4.071-7.183-.1-4.588,4.292-11.314,8.541-13.408,4.351-2.139,7.287-5,6.372-8.187-2.581-9.086,5.177-11.122,9.175-15.68,3.879-4.454,8.083-8.628,12.1-12.951a81.863,81.863,0,0,0,5.693-6.5c2.773-3.7,5.384-7.522,7.936-11.372,1.593-2.419,2.418-5.708,4.543-7.375,9.883-7.8,16.8-17.361,20.016-29.647.428-1.624,2.8-2.729,5.059-3.246C2424.939,4397.692,2435.811,4372.779,2461.742,4358.5Z" transform="translate(0 15.267)"/>
    <path id="Path_1336" data-name="Path 1336" d="M2623.771,4432.48c-2.094,3.938-3.879,8.068-6.357,11.756-2.862,4.248-8.924,8.053-9,12.14-.147,8.466-8.068,14.116-7.994,19.957.118,9.5-3.334,11.9-10.753,14.9-4.676,1.873-6.7,8.038-5.118,13.453,1.667,5.8-.8,9.793-4.912,12.508-10.68,7.065-9.323,18.378-11.24,28.7-1,5.368-2.994,10.576-4.823,15.768-1.121,3.157-3.511,6.019-4.027,9.22-.8,4.984.088,10.251-.9,15.163-.457,2.257-3.717,3.894-5.561,5.959-1.7,1.9-4.942,4.559-4.5,5.886,2.39,7.242-2.492,9.854-7.2,12.257-6.358,3.23-7.154,8.143-3.747,13.276,8.26,12.435,1.932,20.9-7.788,28.055-4.735,3.481-10.532,5.487-15.429,8.776-1.991,1.343-3.245,4.161-4.189,6.564-1.961,4.956-3.451,10.089-5.192,15.119-.531,1.534-2.139,4.026-1.784,4.321,7.611,6.3-2.095,10.871-1.534,16.462.752,7.405-4.513,11-9.691,15-5.989,4.617-10.621,10.236-8.644,19.014.428,1.844-1.431,5.162-3.2,6.387-4.9,3.349-10.03,5.428-6.549,13.467,1.268,2.965-2.05,7.744-2.817,11.786-1.239,6.445-3.127,12.065-8.393,16.874-5.871,5.369-4.912,8.629,3.628,14.014-12.272,14.2-22.789,28.984-23.261,48.514-.811-.177-1.637-.369-2.463-.546,0-2.346-.369-4.779.089-7.036,1.018-5.044,2.669-9.956,3.643-15.016,1.195-6.166,1-12.759,3.112-18.541,3.437-9.426,9.278-18.04,12.184-27.568,2.773-9.16,2.95-19.088,4.573-28.631.575-3.422,2.006-6.7,3.082-10.03a55.672,55.672,0,0,1,2.3-6.55c5.163-11.18,5.428-23.526,8.452-35.224,2.065-7.98,9.057-15.9,1.844-24.707a2.243,2.243,0,0,1-.059-1.9c2.213-5.059,3.983-10.414,6.874-15.06,5.369-8.614,7.714-17.744,6.534-27.761-.516-4.439,16.27-25.857,20.208-27.672a26.53,26.53,0,0,0,10.074-8.8c1.667-2.4.915-6.4,1.519-9.633.664-3.481.649-7.168,5.9-7.979,1.49-.236,2.3-4.869,3.422-7.493,1.49-3.511,2.98-7.036,4.44-10.562,4.366-10.443,12.419-18.247,18.822-27.229,3.171-4.469,2.669-11.534,7.7-15.871,5.693-4.941,8.26-11.24,9.765-18.881,1-5.133,6.446-9.44,10.06-13.983,5.517-6.962,11.373-13.659,16.668-20.769,2.183-2.921,2.773-7.007,4.985-9.882A103.914,103.914,0,0,1,2623.771,4432.48Z" transform="translate(93.256 50.411)"/>
  </g>
</svg>
