<svg id="Group_2335" data-name="Group 2335" xmlns="http://www.w3.org/2000/svg" width="514.846" height="162.188" viewBox="0 0 514.846 162.188">
  <path id="Path_1459" data-name="Path 1459" d="M2915.634,5399.7c-10.107,7.377-21.654,9.572-33.753,9.629a63.448,63.448,0,0,1-25.383-4.624c-14.13-5.989-22.678-18.591-22.214-33.4h31.761c3.876,11.838,9.719,15.38,21.646,13.113a14.109,14.109,0,0,0,5.2-2.1c4.844-3.275,4.615-9.23-.674-11.61-5.151-2.316-10.636-3.917-15.991-5.777-7.012-2.439-14.154-4.55-21.044-7.28-23.319-9.231-20.411-38.58-5.362-49.573a45.029,45.029,0,0,1,21.255-8.443c12.131-1.537,24.084-1.064,35.338,4.4,11.417,5.548,18.395,17.453,17.054,29h-29.5c-3.225-8.783-11.366-12.568-20.061-8.9a8.207,8.207,0,0,0-4.29,5.135c-.276,1.374,1.748,4.1,3.355,4.794,4.679,2.016,9.669,3.3,14.537,4.883,7.825,2.536,15.974,4.365,23.4,7.76C2935.607,5358,2931.381,5388.216,2915.634,5399.7Z" transform="translate(-2834.266 -5298.872)" fill="#611735"/>
  <path id="Path_1460" data-name="Path 1460" d="M2987.078,5379.1v26.714h-88.7c-.073-1.365-.22-2.8-.22-4.24q-.023-48.532-.023-97.075c0-2.362-.318-4.4,3.355-4.378,27.349.138,54.7.072,82.041.081.528,0,1.057.122,1.926.22v25.5h-55.016v53.18Z" transform="translate(-2792.345 -5298.056)" fill="#611735"/>
  <path id="Path_1461" data-name="Path 1461" d="M3180.354,5378.923v26.945h-88.679c-.081-1.333-.235-2.642-.235-3.942-.017-32.5.04-64.995-.082-97.494-.008-3.356.893-4.338,4.3-4.315,26.407.138,52.807.072,79.213.072h4.08v25.667H3123.9v53.066Z" transform="translate(-2665.509 -5298.057)" fill="#611735"/>
  <path id="Path_1462" data-name="Path 1462" d="M3081.353,5300.362v105.386h-32.071V5326.72h-49.2v-26.358Z" transform="translate(-2725.423 -5297.895)" fill="#611735"/>
  <path id="Path_1463" data-name="Path 1463" d="M3040.447,5378.226v27.439h-79.116V5300.313h32.136v77.914Z" transform="translate(-2750.86 -5297.927)" fill="#611735"/>
  <path id="Path_1464" data-name="Path 1464" d="M3084.828,5392c-28.219,26.114-117.362,27.829-153.95,2.9,3.6-6.712,7.207-13.455,10.8-20.15,44.195,20.248,87.77,19.979,131.632-2.105C3077.135,5379.074,3080.994,5385.559,3084.828,5392Z" transform="translate(-2770.85 -5250.445)" fill="#611735"/>
  <rect id="Rectangle_2025" data-name="Rectangle 2025" width="31.681" height="105.589" transform="translate(376.772 2.328)" fill="#611735"/>
  <rect id="Rectangle_2026" data-name="Rectangle 2026" width="24.148" height="24.067" transform="translate(289.611 41.314)" fill="#611735"/>
  <rect id="Rectangle_2027" data-name="Rectangle 2027" width="24.092" height="24.197" transform="translate(147.816 41.29)" fill="#611735"/>
  <rect id="Rectangle_2028" data-name="Rectangle 2028" width="23.856" height="24.148" transform="translate(468.108 41.241)" fill="#611735"/>
</svg>
