<svg id="Group_2328" data-name="Group 2328" xmlns="http://www.w3.org/2000/svg" width="236.927" height="264.601" viewBox="0 0 236.927 264.601">
  <g id="Group_2302" data-name="Group 2302">
    <path id="Path_1363" data-name="Path 1363" d="M2253.715,3492.63c-18-4.252-27.294-15.1-27.46-33.6-.207-22.13-.228-44.261.062-66.37a54.152,54.152,0,0,1,2.676-16.157c15.97-48.492-1.307-96.755-44.7-124.112-36.026-22.731-82.589-20.243-118.573,6.326-32.272,23.831-48.388,71.327-37.458,110.278,18.646,66.308,91.818,97.771,152.049,64.565,12.942-7.135,23.789-18.065,35.922-27.5a4.845,4.845,0,0,1,.457,1.556c.083,14.166.062,28.331.207,42.5a146.682,146.682,0,0,0,.851,16.551c2.24,18.023,16.717,32.812,34.533,34.823,3.007.353,6.326-2.053,9.5-3.194C2259.108,3496.343,2256.681,3493.335,2253.715,3492.63Zm-186.644-118.782a31.869,31.869,0,0,1-32.957-31.235c-.332-17.5,14.394-32.417,32.023-32.375a31.775,31.775,0,0,1,31.712,31.442A31.434,31.434,0,0,1,2067.071,3373.849Zm62.865,64.11a32.193,32.193,0,0,1-31.878-31.423c-.249-17.4,14.747-32.5,32.189-32.4A32.273,32.273,0,0,1,2162,3406.806,31.929,31.929,0,0,1,2129.936,3437.958Zm-13.4-95.739c-.042-7.342,6.741-14.311,13.958-13.564,7.736.81,12.486,5.206,13.066,13.627-.705,7.715-4.729,12.548-12.9,13.087A13.2,13.2,0,0,1,2116.537,3342.22Zm13.917-32.4A31.694,31.694,0,1,1,2162,3278.317,31.826,31.826,0,0,1,2130.454,3309.823Zm63.134,64.046a31.8,31.8,0,0,1-31.443-31.712,31.972,31.972,0,1,1,31.443,31.712Z" transform="translate(-2024.856 -3236.92)" fill="#611735"/>
  </g>
  <path id="Path_1364" data-name="Path 1364" d="M2083.82,3326.871a20.434,20.434,0,0,0,1.908-2.55A22.7,22.7,0,0,1,2083.82,3326.871Z" transform="translate(-1961.526 -3143.047)" fill="#611735"/>
  <path id="Path_1365" data-name="Path 1365" d="M2041.169,3277.95a18.754,18.754,0,0,0-2.489,1.473A21.337,21.337,0,0,1,2041.169,3277.95Z" transform="translate(-2010.009 -3192.851)" fill="#611735"/>
  <path id="Path_1366" data-name="Path 1366" d="M2109.86,3329.717a17.377,17.377,0,0,1-.042,1.8c-.021.291-.042.581-.083.872-.042.373-.083.725-.145,1.1s-.124.726-.207,1.1c-.083.353-.166.727-.27,1.079-.187.705-.415,1.411-.664,2.095a23.393,23.393,0,0,1-1.411,3.007c-.269.478-.539.954-.85,1.411a20.463,20.463,0,0,1-1.908,2.551,22.586,22.586,0,0,1-17.38,8.13,22.834,22.834,0,0,1-22.13-22.773c0-.685.042-1.369.1-2.053.042-.457.1-.913.166-1.369l.063-.374c.1-.56.208-1.12.353-1.68.1-.394.208-.788.332-1.183a.733.733,0,0,1,.083-.228,5.847,5.847,0,0,1,.207-.642,16.772,16.772,0,0,1,.664-1.681c.187-.415.394-.83.6-1.224a13.273,13.273,0,0,1,.664-1.183c.021-.041.042-.062.063-.1.124-.208.249-.415.394-.623a19.905,19.905,0,0,1,1.887-2.468c.291-.353.6-.684.934-1.016.1-.1.208-.187.291-.27.332-.332.664-.644,1.016-.954a1.4,1.4,0,0,0,.27-.229c.415-.331.851-.664,1.286-.975.456-.332.954-.663,1.452-.954.477-.29.975-.56,1.473-.809q.933-.467,1.929-.872c.457-.186.934-.352,1.411-.5.353-.1.705-.207,1.079-.29a9.126,9.126,0,0,1,1.079-.249,19.131,19.131,0,0,1,2.219-.353c.374-.042.747-.062,1.12-.083.394-.021.768-.042,1.162-.042.436,0,.871,0,1.286.021.394.021.768.062,1.141.083.374.042.747.1,1.1.146q1.121.187,2.178.436c.726.187,1.431.394,2.115.643s1.348.539,2.012.83c.643.311,1.286.664,1.908,1.016a26.12,26.12,0,0,1,3.464,2.53c.269.25.518.5.767.748a20.6,20.6,0,0,1,1.472,1.555,17.522,17.522,0,0,1,1.307,1.7c.207.29.415.581.6.892a20.692,20.692,0,0,1,1.058,1.866,19.058,19.058,0,0,1,1.244,3.007A21.53,21.53,0,0,1,2109.86,3329.717Z" transform="translate(-1981.987 -3160.909)" fill="#611735"/>
  <path id="Path_1367" data-name="Path 1367" d="M2109.755,3268.55v.311c-.187,12.113-10.557,22.4-22.586,22.4a14.025,14.025,0,0,1-1.618-.083c-.311-.021-.622-.042-.912-.083a17.539,17.539,0,0,1-2.323-.415c-.352-.083-.705-.166-1.058-.269a11.459,11.459,0,0,1-1.2-.4c-.332-.1-.643-.228-.954-.352a21.954,21.954,0,0,1-2.448-1.162c-.643-.353-1.244-.746-1.845-1.141-.6-.415-1.162-.851-1.722-1.306-.56-.478-1.1-.955-1.6-1.473q-.467-.467-.933-1a23.824,23.824,0,0,1-1.68-2.137c-.208-.27-.394-.581-.581-.871-.29-.478-.581-.934-.83-1.432-.208-.394-.415-.788-.6-1.2s-.373-.83-.539-1.265c-.166-.415-.312-.851-.456-1.286a14.833,14.833,0,0,1-.5-1.826c-.125-.457-.208-.933-.291-1.41a19.172,19.172,0,0,1-.228-1.908c-.042-.478-.062-.975-.062-1.473v-.186c0-.477.021-.954.042-1.411a12.711,12.711,0,0,1,.125-1.286,16.2,16.2,0,0,1,.29-1.8c.145-.705.332-1.41.54-2.095.1-.353.228-.684.353-1.037.125-.332.249-.684.394-1.017a14.392,14.392,0,0,1,.706-1.514,12.8,12.8,0,0,1,.622-1.182c.269-.436.519-.871.829-1.286a4.776,4.776,0,0,1,.456-.664.073.073,0,0,1,.021-.042c.291-.395.6-.788.913-1.161a1.164,1.164,0,0,1,.124-.166c.333-.395.685-.768,1.037-1.141a.775.775,0,0,1,.187-.186c.456-.457.912-.872,1.389-1.307.27-.228.539-.456.83-.664.27-.228.56-.435.85-.642a16.083,16.083,0,0,1,1.556-1c.291-.187.6-.353.912-.519a10.437,10.437,0,0,1,1.266-.644c.664-.291,1.327-.56,2.011-.809.685-.228,1.39-.436,2.095-.6.726-.166,1.452-.29,2.178-.394.747-.083,1.493-.145,2.24-.166h.726a12.237,12.237,0,0,1,1.224.062,33.051,33.051,0,0,1,1.535.166c.29.042.56.083.85.146.27.042.519.1.789.166a.728.728,0,0,1,.207.041c.187.042.394.083.581.146a11.687,11.687,0,0,1,1.141.333c.518.165,1.037.352,1.535.559.519.208,1.016.436,1.514.685.643.332,1.286.685,1.908,1.058a27.212,27.212,0,0,1,3.485,2.655,22.151,22.151,0,0,1,1.928,2.012c.249.291.5.581.726.891a17.972,17.972,0,0,1,1.161,1.639c.311.456.581.892.851,1.369.021.042.042.063.062.1.249.477.5.974.726,1.472a.159.159,0,0,1,.042.083c.208.477.415.955.6,1.453a21.346,21.346,0,0,1,1.348,6.077C2109.735,3267.492,2109.755,3268.032,2109.755,3268.55Z" transform="translate(-1981.965 -3227.318)" fill="#611735"/>
  <path id="Path_1368" data-name="Path 1368" d="M2140.477,3299.577a23.189,23.189,0,0,1-10.039,18.646c-.6.415-1.223.788-1.845,1.141a23.257,23.257,0,0,1-3.961,1.742,21.335,21.335,0,0,1-6.493,1.037c-12.319.021-22.9-11.034-22.5-23.54a22.426,22.426,0,0,1,44.841.975Z" transform="translate(-1948.848 -3194.111)" fill="#611735"/>
  <path id="Path_1369" data-name="Path 1369" d="M2079.083,3298.89a18.522,18.522,0,0,1-.1,2.407,8.014,8.014,0,0,1-.125,1.016c-.042.249-.083.519-.145.788a17.979,17.979,0,0,1-.415,1.825c-.083.312-.187.622-.291.934-.124.353-.249.705-.373,1.037a18.42,18.42,0,0,1-1.162,2.51c-.207.394-.415.767-.643,1.141a18.555,18.555,0,0,1-1.494,2.177c-.269.353-.539.685-.829,1.037-.457.519-.913,1.038-1.41,1.514-.5.5-1,.954-1.535,1.41-.415.352-.83.685-1.265,1-.228.166-.457.332-.706.5a21.608,21.608,0,0,1-4.189,2.282c-.249.124-.5.207-.768.311a15.919,15.919,0,0,1-1.763.581c-.353.1-.705.187-1.058.27-.332.083-.684.145-1.017.208a6.208,6.208,0,0,1-.892.125c-.269.042-.539.062-.809.083a16.233,16.233,0,0,1-2.011.082c-12.03-.207-22.172-10.661-22.172-22.814,0-.726.042-1.431.1-2.136,0-.042.021-.1.021-.146.042-.373.083-.747.145-1.12.042-.269.083-.539.145-.809.042-.228.083-.477.145-.705.062-.311.145-.622.229-.933a9.7,9.7,0,0,1,.311-1.037,21.47,21.47,0,0,1,2.385-5.082c.311-.5.643-.976.975-1.432a.207.207,0,0,1,.083-.1,20.332,20.332,0,0,1,1.846-2.157,8.07,8.07,0,0,1,.6-.6c.208-.208.415-.394.622-.581.374-.332.726-.623,1.12-.934.373-.291.747-.56,1.12-.83a.064.064,0,0,1,.042-.021,18.788,18.788,0,0,1,2.489-1.472c.581-.29,1.161-.56,1.763-.808.5-.208,1.016-.395,1.535-.561.706-.229,1.411-.415,2.136-.581.726-.146,1.451-.27,2.2-.352a20.6,20.6,0,0,1,2.281-.125,21.326,21.326,0,0,1,4.6.456,21.8,21.8,0,0,1,2.281.622c.291.083.581.187.85.291.353.125.684.25,1.017.394a21.19,21.19,0,0,1,1.95.954c.415.229.83.478,1.244.726a18.722,18.722,0,0,1,2.364,1.68c.561.457,1.079.913,1.6,1.41.435.436.85.872,1.244,1.328.291.331.56.643.83,1a8.865,8.865,0,0,1,.747,1,17.349,17.349,0,0,1,1.078,1.659,17.037,17.037,0,0,1,.913,1.742c.145.291.291.6.415.913.208.477.394.954.56,1.452a13.706,13.706,0,0,1,.456,1.494c.145.5.249,1.016.352,1.535a10.817,10.817,0,0,1,.187,1.141A21.456,21.456,0,0,1,2079.083,3298.89Z" transform="translate(-2015.132 -3194.109)" fill="#611735"/>
</svg>
