<svg xmlns="http://www.w3.org/2000/svg" width="168.646" height="201.349" viewBox="0 0 168.646 201.349">
  <g id="Group_2136" data-name="Group 2136" transform="translate(-1963.941 -5412.896)">
    <path id="Path_977" data-name="Path 977" d="M1963.962,5486.8c.012,3.064,0,6.127,0,9.178,0-3.063.012-6.114.012-9.178-.012-2.356,0-4.725,0-7.082C1963.974,5482.073,1963.962,5484.429,1963.962,5486.8Zm17.327,85.092c-1.24.025-2.469.012-3.709.025,1.24-.013,2.469,0,3.709-.013,1.661-.012,3.323-.05,4.985-.05C1984.612,5571.852,1982.95,5571.89,1981.289,5571.89Z" transform="translate(0.005 16.052)" fill="#293213"/>
    <path id="Path_978" data-name="Path 978" d="M1995.63,5504.03c-.062,4.378-2.6,6.933-7.007,7.057-5.767.174-11.559.174-17.326.013-4.638-.137-7.268-2.6-7.317-7.393-.012-1.687-.012-3.373-.012-5.06,0-3.051.012-6.114,0-9.178,0-2.368.012-4.725.012-7.082,0-1.972,0-3.943-.037-5.916-.074-5.047,2.257-7.788,7.367-7.838,5.779-.074,11.559-.037,17.338-.012,4.564.025,6.92,2.567,6.982,6.933Q1995.835,5489.786,1995.63,5504.03Z" transform="translate(0 13.379)" fill="#293213"/>
    <path id="Path_979" data-name="Path 979" d="M2104.206,5503.311c.037,5.085-2.592,7.677-7.541,7.789-5.569.136-11.149.1-16.718.012-4.713-.087-7.33-2.617-7.379-7.317-.124-9.289-.087-18.566-.025-27.855.037-4.688,2.369-7.317,7.231-7.317,5.779-.013,11.56-.062,17.326.013,4.812.074,7.119,2.679,7.094,7.441-.012,4.737,0,9.487,0,14.237C2104.194,5494.642,2104.169,5498.982,2104.206,5503.311Z" transform="translate(26.075 13.38)" fill="#293213"/>
    <path id="Path_980" data-name="Path 980" d="M2032.969,5490.239c-.025,5.358-2.852,7.925-8.111,7.962-4.341.037-8.669.012-13.01.012-4.13,0-8.26-.012-12.39.013-5,.025-7.875-2.444-8.074-7.392q-.335-8.67,0-17.351c.186-4.986,3.162-7.392,8.086-7.4,8.471-.013,16.941-.05,25.412.025,5.221.037,8.049,2.691,8.074,8.024Q2033.013,5482.184,2032.969,5490.239Z" transform="translate(6.552 12.771)" fill="#293213"/>
    <path id="Path_981" data-name="Path 981" d="M2014.366,5467.887c-.112,6.7-2.207,8.223-10.765,8.223-8.3-.013-10.592-1.712-10.629-8.434-.074-15.478.025-30.956-.05-46.446-.025-5.556,2.294-8.558,8.124-8.322,1.848.074,3.721.063,5.569,0,5.507-.186,7.863,2.543,7.8,7.938-.1,8.037-.025,16.085-.025,24.122C2014.39,5452.608,2014.477,5460.248,2014.366,5467.887Z" transform="translate(6.962)" fill="#293213"/>
    <path id="Path_982" data-name="Path 982" d="M2014.4,5576.667c.074,5.495-2.518,7.987-7.937,7.776-2.058-.075-4.13,0-6.189-.025-4.787-.037-7.292-2.48-7.3-7.243-.036-16.1-.1-32.209.025-48.307.05-5.866,3.015-7.826,10.778-7.813,7.74,0,10.468,1.947,10.579,7.949.136,8.049.025,16.1.025,24.147C2014.378,5560.991,2014.3,5568.83,2014.4,5576.667Z" transform="translate(6.962 25.983)" fill="#293213"/>
    <path id="Path_983" data-name="Path 983" d="M2030.651,5519.033c-.037,4.862-2.7,7.094-7.429,7.082-8.248,0-16.507-.074-24.755-.038-4.676.025-6.858-2.628-7.057-6.858-.259-5.556-.273-11.15,0-16.706.211-4.267,2.567-6.833,7.156-6.8,4.341.038,8.669.013,13.01.013,3.919-.013,7.838-.025,11.758,0,4.762.025,7.292,2.406,7.342,7.206Q2030.732,5510.99,2030.651,5519.033Z" transform="translate(6.551 19.895)" fill="#293213"/>
    <path id="Path_984" data-name="Path 984" d="M1995.4,5535.666c-.136,4.949-2.7,7.615-7.739,7.64-4.738.037-9.488-.037-14.225.013-5.321.049-8.124-2.642-8.234-7.839-.15-7.627-.175-15.267,0-22.881.11-4.875,2.752-7.6,7.8-7.628,4.738-.025,9.488.024,14.225-.025,5.308-.037,8.074,2.542,8.186,7.838.074,3.919.012,7.838.012,11.757C1995.43,5528.25,1995.516,5531.958,1995.4,5535.666Z" transform="translate(0.275 22.113)" fill="#293213"/>
    <path id="Path_985" data-name="Path 985" d="M2103.863,5512.768v22.87c.012,5.122-2.753,7.553-7.652,7.652-4.948.111-9.9.124-14.833,0s-7.59-2.629-7.516-7.751c.063-3.907.012-7.826.012-11.745-.012-3.708,0-7.417-.012-11.125-.025-5.1,2.667-7.565,7.6-7.677s9.885-.125,14.833.012C2101.222,5505.141,2103.876,5507.708,2103.863,5512.768Z" transform="translate(26.406 22.104)" fill="#293213"/>
    <path id="Path_986" data-name="Path 986" d="M2078.288,5442.452c-.136,5.295-3,7.862-8.285,7.813-1.377-.012-2.752-.012-4.117-.012-2.355,0-4.7.012-7.044,0a103.946,103.946,0,0,1-12.836-.174c-.447-.05-.868-.124-1.265-.2a10.865,10.865,0,0,1-1.538-.434c-.161-.062-.323-.137-.471-.211a3.783,3.783,0,0,1-.4-.211,4.3,4.3,0,0,1-1.885-2.231,3.833,3.833,0,0,1-.161-.447c-.893-2.778-.509-7.429-.533-15.144-.012-8.941,1.365-10.243,10.53-10.257,6.611,0,13.221.088,19.831.025q8.018-.075,8.186,7.851C2078.387,5433.36,2078.413,5437.912,2078.288,5442.452Z" transform="translate(18.197 1.934)" fill="#293213"/>
    <path id="Path_987" data-name="Path 987" d="M2078.2,5551.764c-.223,4.291-2.579,6.846-7.168,6.821-3.919-.025-7.824-.012-11.745-.012v.111c-4.13,0-8.26.025-12.39,0-4.464-.037-7.007-2.232-7.106-6.759-.112-5.16-.05-10.331-.037-15.491.025-4.2,2.17-6.734,6.35-6.821q12.687-.279,25.387-.025c4.155.075,6.511,2.7,6.709,6.7A149.867,149.867,0,0,1,2078.2,5551.764Z" transform="translate(18.206 28.004)" fill="#293213"/>
    <path id="Path_988" data-name="Path 988" d="M2053.1,5502.481c-.074,6.313-2.319,8.657-8.5,8.731-17.822.224-18.194.906-17.748-17.239.025-1.439,0-2.89,0-4.329,0-4.316-.112-8.644.062-12.96.062-1.786.112-4.217,1.215-5.2,5.978-5.383,13.308-2.691,19.992-2.27,4.874.31,5.035,5.11,5.01,9.19C2053.079,5486.433,2053.2,5494.457,2053.1,5502.481Z" transform="translate(15.092 13.28)" fill="#293213"/>
    <path id="Path_989" data-name="Path 989" d="M2075.843,5526.351c-.074,5.469-2.58,8.148-8.359,8.26-17.5.347-17.5.471-17.5-16.954,0-5.965-.037-11.943.012-17.921.037-5.01,2.7-7.4,7.654-7.727,17.151-1.128,18.205-.173,18.205,17.041v4.328C2075.856,5517.707,2075.893,5522.022,2075.843,5526.351Z" transform="translate(20.667 18.927)" fill="#293213"/>
    <path id="Path_990" data-name="Path 990" d="M2072.619,5470.858c-.7-.038-1.39-.05-2.073-.05-1.166,0-2.331.037-3.483.025h-4.938c-2.468,0-4.948,0-7.417-.013-1.24-.012-2.642.211-3.671-.285-8.248-3.956-4.279-11.509-4.725-17.574-.333-4.577,2.89-6.982,7.59-6.982,8.855.012,17.723-.038,26.578,0,4.676.012,7.181,2.505,7.666,7.119a5.435,5.435,0,0,1,.023.62C2088.269,5468.477,2089.559,5471.726,2072.619,5470.858Z" transform="translate(19.651 7.943)" fill="#293213"/>
    <path id="Path_991" data-name="Path 991" d="M2072.3,5579.3q-8.985-.037-17.971.012c-5.618.025-8.347-2.728-8.3-8.372.1-13.7-1.749-17.264,15.143-16.16,1.848.111,3.708.012,5.556.012v-.173c4.75,0,9.513-.1,14.25.024,4.453.124,6.71,2.679,7.1,7.02.023.2.011.409.023.62C2089.307,5577.778,2087.831,5579.354,2072.3,5579.3Z" transform="translate(19.717 34.038)" fill="#293213"/>
    <path id="Path_992" data-name="Path 992" d="M2075.852,5489.778a5.115,5.115,0,0,1-.172,1.215c-1.353,5.668-6.141,7.131-18.766,5.842-5-.509-7.354-3.163-7.119-8.2.037-.843.05-1.7.05-2.542,0-1.426-.037-2.84-.025-4.266a27.756,27.756,0,0,1,.46-5.284c.1-.533.209-1.042.346-1.525.062-.248.137-.483.211-.72a13.428,13.428,0,0,1,2.146-4.229,8.311,8.311,0,0,1,.806-.93,10.609,10.609,0,0,1,7.367-3.125h1.476a26.006,26.006,0,0,1,8.248,1.96c2.158.855,4.4,4.006,4.738,6.362C2076.348,5479.386,2075.852,5484.62,2075.852,5489.778Z" transform="translate(20.621 12.761)" fill="#293213"/>
    <path id="Path_993" data-name="Path 993" d="M2041.244,5551.429c-.459,5.123-5.755,4.974-9.984,4.887-1.24-.038-2.48-.013-3.721-.013-2.071,0-4.13.013-6.2,0-4.973-.062-7.652-2.542-7.925-7.553-.012-.2,0-.409-.012-.62q-1.619-25.915,23.639-18a4.658,4.658,0,0,1,2.17,1.079C2044.208,5537.464,2041.827,5544.744,2041.244,5551.429Z" transform="translate(11.858 27.719)" fill="#293213"/>
    <path id="Path_994" data-name="Path 994" d="M2053.287,5525.273c-.073,2.1-3.82,4.725-6.412,5.866-2.245.979-5.259.2-7.937.2v.037c-2.059,0-4.118.05-6.177-.025-1.227-.037-2.728.137-3.621-.483-7.6-5.309-3.349-13.2-3.783-19.906-.273-4.316,3.646-6,7.838-5.978,1.24.012,2.468.05,3.708-.013C2055.854,5504.164,2053.932,5506.818,2053.287,5525.273Z" transform="translate(14.562 22.088)" fill="#293213"/>
    <path id="Path_995" data-name="Path 995" d="M2037.23,5447.108c-2.815,1.153-6.486.186-9.773.186v.285c-2.059,0-4.118-.062-6.176.012-5.519.211-7.627-2.753-7.913-7.937-.955-17.512,6.189-23.142,23.415-18.206,4.762,1.364,5.581,5.283,4.924,9.364C2040.8,5436.429,2045.2,5443.846,2037.23,5447.108Z" transform="translate(11.854 1.643)" fill="#293213"/>
    <path id="Path_996" data-name="Path 996" d="M2035.677,5579.681c-2.073,0-4.131.012-6.2-.013-5.322-.05-7.666-2.63-7.815-8.074-.533-18.578-.632-18.578,17.971-18.454,8.533.049,10.219,1.687,10.308,10.021v1.86C2049.95,5579.407,2049.95,5579.407,2035.677,5579.681Z" transform="translate(13.83 33.686)" fill="#293213"/>
    <path id="Path_997" data-name="Path 997" d="M2049.714,5464.778c.547,4.366-2.567,6.635-7.02,6.635H2035.3c-2.27,0-4.527.038-6.784-.012-4.155-.112-6.3-2.27-6.759-6.424-2.009-17.909,6.239-25.313,23.391-19.348C2054.328,5448.829,2048.9,5458.2,2049.714,5464.778Z" transform="translate(13.818 7.376)" fill="#293213"/>
    <path id="Path_998" data-name="Path 998" d="M1989.537,5449.825c-2.865.074-5.753.013-8.632.013-1.228,0-2.468-.087-3.7.012-12.291.992-13.047-4.613-11.559-15.726.273-2,3.621-4.85,5.792-5.085,6.5-.682,13.122-.372,19.695-.248,3.906.074,5.99,2.356,6.2,6.239.124,2.257-.025,4.526.062,6.784C1997.623,5447.294,1994.7,5449.676,1989.537,5449.825Z" transform="translate(0.276 3.775)" fill="#293213"/>
    <path id="Path_999" data-name="Path 999" d="M2099.562,5449.661a84.413,84.413,0,0,1-9.86.073v.088c-1.848,0-3.7.012-5.542,0-8.621-.013-10.3-1.725-10.308-10.53,0-9.549,1.006-10.566,10.643-10.6,4.724-.013,9.449-.024,14.174.012,5.631.038,7.3,3.523,7.479,8.472C2106.445,5445.816,2104.933,5449.041,2099.562,5449.661Z" transform="translate(26.403 3.791)" fill="#293213"/>
    <path id="Path_1000" data-name="Path 1000" d="M1997.509,5550.216c.149,5.754-2.679,8.284-8.359,7.987-1.017-.05-2.022-.062-3.039-.062-1.662,0-3.324.038-4.985.05-1.24.013-2.469,0-3.709.013-11.013.012-14.932-4.788-11.658-15.428.744-2.394,4.291-5.147,6.858-5.495,5.866-.818,11.92-.4,17.884-.2,4.291.137,6.858,2.443,6.97,6.958C1997.521,5546.1,1997.447,5548.169,1997.509,5550.216Z" transform="translate(0.168 29.764)" fill="#293213"/>
    <path id="Path_1001" data-name="Path 1001" d="M2106.155,5549.621c-.174,5.283-2.034,8.755-8.011,8.582-2.878-.087-5.756-.013-8.646-.013-1.029.013-2.059-.062-3.088.013-14.362,1.066-12.911-4.4-12.14-15.516.135-2.021,3.831-5.1,6.176-5.4a105.791,105.791,0,0,1,18.49-.186C2104.828,5537.416,2106.44,5540.616,2106.155,5549.621Z" transform="translate(26.396 29.764)" fill="#293213"/>
    <path id="Path_1002" data-name="Path 1002" d="M1993.73,5458.937c-.012,10.467-1.178,11.708-11.075,11.683-8.88-.025-10.393-1.761-10.393-11.881.012-9.947,1.662-11.795,10.554-11.782C1992.4,5446.981,1993.743,5448.457,1993.73,5458.937Z" transform="translate(1.999 8.182)" fill="#293213"/>
    <path id="Path_1003" data-name="Path 1003" d="M1993.73,5567.7c-.012,9.921-1.413,11.41-10.765,11.41-9.24,0-10.74-1.724-10.7-12.216.05-9.686,1.637-11.348,10.9-11.348C1992.664,5555.559,1993.743,5556.8,1993.73,5567.7Z" transform="translate(1.999 34.268)" fill="#293213"/>
    <path id="Path_1004" data-name="Path 1004" d="M2102.233,5459.186c0,10.554-7.392,15.49-17.028,11.013-1.848-.856-3.584-3.522-3.956-5.606a27.545,27.545,0,0,1,.012-10.988c.558-2.356,2.791-5.382,4.936-6.09C2096.912,5443.98,2102.233,5448.074,2102.233,5459.186Z" transform="translate(28.048 8.02)" fill="#293213"/>
    <path id="Path_1005" data-name="Path 1005" d="M2102.211,5567.1c-.012,10.952-7.156,15.64-17.14,11.249a7.585,7.585,0,0,1-3.832-5,39.89,39.89,0,0,1,.062-12.327c.335-1.91,2.729-4.527,4.564-4.887a28.342,28.342,0,0,1,11.646-.013C2103.637,5557.561,2101.963,5563.08,2102.211,5567.1Z" transform="translate(28.07 34.262)" fill="#293213"/>
    <path id="Path_1006" data-name="Path 1006" d="M2022,5456.125c0,2.877.62,5.953-.211,8.57-.571,1.823-3.125,4.154-4.812,4.167-1.649.012-4.576-2.48-4.762-4.105a77.541,77.541,0,0,1-.025-16.619c.186-1.749,3.15-4.688,4.416-4.49a8.1,8.1,0,0,1,5.22,4.539c.906,2.319.211,5.258.211,7.938Z" transform="translate(11.485 7.385)" fill="#293213"/>
    <path id="Path_1007" data-name="Path 1007" d="M2021.832,5572.889c-.248,1.872-3.187,3.411-4.885,5.1-1.663-1.736-4.044-3.225-4.776-5.284-.831-2.369-.185-5.258-.185-7.913h-.125c0-2.456-.67-5.2.186-7.292.894-2.183,3.274-3.746,5-5.581,1.675,1.674,4.564,3.2,4.8,5.06A63.28,63.28,0,0,1,2021.832,5572.889Z" transform="translate(11.452 33.396)" fill="#293213"/>
  </g>
</svg>
