<svg xmlns="http://www.w3.org/2000/svg" width="456.71" height="218.75" viewBox="0 0 456.71 218.75">
  <g id="Group_2361" data-name="Group 2361" transform="translate(-3130.875 -9479.309)">
    <path id="Path_1678" data-name="Path 1678" d="M3544.739,9577.249c-14.3-1.037-27.19-6.316-38.945-14.244-19.608-13.229-41.1-19.522-64.728-18.559a16.307,16.307,0,0,1-2.212-.267c13.939-13.91,30.06-20.227,49.385-18.3-.783-.442-1.549-.924-2.354-1.316a65.048,65.048,0,0,0-23.991-6.191c-18.163-1.241-34.664,4.179-50.405,12.662-10.576,5.705-21.469,10.654-33.189,13.587-9.164,2.291-17.965,2.086-26.521-3.687,15.27-22.517,36.064-32.39,63.923-27.932a48.039,48.039,0,0,0-21.894-11.648c-15.758-3.861-30.955-1.365-45.67,4.82-7.972,3.346-16.087,5.5-24.791,4.225a27.3,27.3,0,0,1-12.322-4.774c15.038-5.789,23.7-13.552,23.612-20.947-1.69.84-3.334,1.775-5.069,2.5-11.931,4.985-24.429,4.757-36.83,3.085a131.264,131.264,0,0,1-22.45-5.506c-15.168-4.865-30.422-6.793-46.339-4.452-30.66,4.515-55.321,18.9-73.347,44.056-15.651,21.848-21.764,46.445-19.138,73.177,1.752,17.9,7.167,34.578,17.573,49.35,19.7,27.955,47.773,41.36,80.861,45.568,13.541,1.724,26.912-.964,40.322-2.507a239.724,239.724,0,0,1,25.954-1.871c10.23-.058,19.625,3.277,28.335,9.985-1.57-11.119-9.1-17.487-16.036-24.354,35.39,10.241,69.424,10.53,100.7-12.01-21.441,2.887-42.558,3.72-62.489-7.849a68.9,68.9,0,0,1,17.834-14.21c16.461-9.662,34.584-13.887,53.336-15.849a199.516,199.516,0,0,1,41.871.5c4.077.437,8.154.9,12.231,1.35-15.577-17.136-35.055-25.886-58.1-27.576a8.6,8.6,0,0,1,.878-1.031,21.791,21.791,0,0,1,1.866-1.282c5.551-3.356,11.71-4.666,18.055-5.3,15.225-1.531,30.235.266,45,3.69,15.849,3.681,31.726,6.051,48.006,4.23,20.289-2.263,38.542-9.038,52.86-24.292,2.518-2.683,4.724-5.665,7.071-8.506C3574.464,9574.34,3560.3,9578.383,3544.739,9577.249Zm-280.614-77.067c10.11-1.831,18.122,3.022,25.959,8.3a88.047,88.047,0,0,1,22.608,21.622c4.094,5.682,5.5,12.293,6.011,19.722-3.21,0-6.272-.419-9.169.1-4.9.873-9.674,2.4-14.528,3.527a3.254,3.254,0,0,1-2.625-.408c-7.763-8.444-17.1-14.829-26.811-20.727a5,5,0,0,1-2.568-4.338,86.364,86.364,0,0,0-6.5-26.231C3259.225,9501.18,3261.664,9500.63,3264.125,9500.182Zm-41.758-3.261a34.538,34.538,0,0,1,10.888.035c5.749.913,11.391,2.5,17.09,3.736a3.313,3.313,0,0,1,2.79,3.012q2.45,12.06,5.138,24.077a2.685,2.685,0,0,1-1.446,3.425c-8.943,5.261-17.811,10.654-26.754,15.916a4.292,4.292,0,0,1-3.124.539,121.923,121.923,0,0,0-39.234-6.288,4.208,4.208,0,0,1-.913-.312c-.72-6.9-1.508-13.733-2.058-20.584a4.752,4.752,0,0,1,1.565-3.062c7.615-7.741,16.909-12.889,26.81-17.046C3216.158,9499.093,3219.18,9497.449,3222.367,9496.921Zm-29.832,7.707c-3.34,4.015-7.264,8.738-11.216,13.433a4.03,4.03,0,0,1-1.378.931c-3.573,1.656-7.162,3.289-10.746,4.928A78.359,78.359,0,0,1,3192.535,9504.628Zm-26.606,68.448c5.019-9.957,12.095-18.458,19.234-26.9a3.089,3.089,0,0,1,2.438-.726c11.937,1.859,23.862,3.834,35.8,5.716a3.185,3.185,0,0,1,2.949,2.734q4.908,17.445,10.155,34.787a3.91,3.91,0,0,1-.913,4.05c-8.256,10.558-16.387,21.219-24.666,31.76-.658.839-2.268,1.712-3.147,1.474-9.838-2.625-19.62-5.448-29.4-8.3a3.063,3.063,0,0,1-1.508-1.508,115.266,115.266,0,0,1-11.965-39.353c-.023-.193-.028-.381-.085-1.05C3165.084,9575.129,3165.43,9574.062,3165.929,9573.076Zm-16.3,41.474c-4.508-15.214-5.8-30.507-2.886-46.124a9.037,9.037,0,0,1,.289-1.077c.017-.062.147-.085.317-.165,2.28,4.316,6.816,5.586,10.735,7.6,2.206,1.14,3.028,2.291,3.09,4.877.312,13.688,3.947,26.407,11.806,37.783a3.711,3.711,0,0,1,.743,2.482c-1.355,6.806-2.847,13.581-4.327,20.493-.47-.294-1.253-.754-2.007-1.264A43.548,43.548,0,0,1,3149.632,9614.55Zm16.2,29.554c2.115.244,3.963.353,5.767.71a3.846,3.846,0,0,1,1.962,1.271c7.382,8.454,15.78,15.587,25.965,20.538,1.088.527,1.542,2.364,1.916,3.9C3187.142,9664.887,3175.558,9655.882,3165.833,9644.1Zm95.524,31.506c-14.573,4.031-29.265,3.709-44.053.827-5.495-1.07-7.724-5.177-10.808-9,4.354-1.315,8.437-2.552,12.52-3.788a3.638,3.638,0,0,0,1.072-.362c4.5-3.136,9.038-2.336,14.079-1.044a72.245,72.245,0,0,0,36.989-.1c1.616-.43,2.472-.237,3.43,1.254a67.012,67.012,0,0,0,4.945,6.027C3273.759,9671.408,3267.657,9673.869,3261.357,9675.609Zm33.609-43.89c-4.338,5.914-8.84,11.709-13.314,17.522a31.477,31.477,0,0,0-2.217,2.567c-2.954,4.975-7.19,6.591-12.951,6.21-11.761-.782-23.556-1.061-35.345-1.423a5.325,5.325,0,0,1-5.069-3.227c-4.366-8.347-8.852-16.632-13.325-25a120.638,120.638,0,0,0,26.991-32.963,3.519,3.519,0,0,1,2.551-1.564q18.39.407,36.785,1.116a2.838,2.838,0,0,1,2.013,1.406q7.23,15.981,14.227,32.066A3.915,3.915,0,0,1,3294.966,9631.72Zm34.772-30.1c-1.361,6.243-3.374,12.345-5.3,18.446a4.833,4.833,0,0,1-2.648,2.433,74.238,74.238,0,0,1-22.353,4.842,69.338,69.338,0,0,0-11.693-29.435c-2.824-3.981-2.489-7.042-.975-11.239,3.362-9.288,6.044-18.82,9.021-28.3,7.8-1.163,15.81-2.4,23.845-3.477a3.067,3.067,0,0,1,2.268,1.378C3330.758,9570.3,3333.248,9585.506,3329.738,9601.621Z" fill="#403347"/>
  </g>
</svg>
