<svg xmlns="http://www.w3.org/2000/svg" width="158.274" height="235.489" viewBox="0 0 158.274 235.489">
  <path id="Path_457" data-name="Path 457" d="M5666.741,4056.5c-.837-.5-1.642-1.148-.742-1.924,2.71-2.322,1.038-5.31,1.258-7.932.19-2.246-1.72-3.474-4.41-3.624-1.164-.062-2.313-.084-2.344-1.624a7.454,7.454,0,0,0-2.765-5.635,4.707,4.707,0,0,0-.073-5.942c-1.541-1.953-3.723-2.22-5.976-1.817a15.816,15.816,0,0,0-3.412,1.2c-2.351,1.035-3.525.56-4.264-1.92a7,7,0,0,1-.27-2.337,9.627,9.627,0,0,0-3.185-7.844,57.676,57.676,0,0,1-4.714-5.087,12.264,12.264,0,0,0-7.544-4.4,38.8,38.8,0,0,1-7.7-2.168c-5.976-2.55-11.542-1.861-16.854,1.594a47.408,47.408,0,0,0-5.541,4.18,11.3,11.3,0,0,1-10.539,2.622c-.713-.158-1.437-.249-2.161-.358-5.935-.91-9.888.987-13.147,6.052-1.437,2.239-3.148,4.3-4.783,6.418-1.5,1.945-2.75,3.971-1.718,6.531.983,2.45.186,4.1-1.847,5.635-3.018,2.267-3.014,3.9,0,6.66-1.54.223-2.812.41-4.344.632a14.565,14.565,0,0,0,2.333.9,12.468,12.468,0,0,0,2.312.033c-1.551,5.142-.538,8.579,2.7,9.475a3.343,3.343,0,0,0,4.282-2.421c-1.741,1.386-2.742,1.313-3.815-.278-1.089-1.62-.153-3.723,2.331-5.08-.52,1.163-1.164,2.29.249,3.727-.055-.721-.1-1.013-.091-1.306.036-1.459,2.164-3.624,2.958-2.991-.018.333-.033.68-.054,1.079.34-.121.625-.223,1.213-.431-1.528,3.642.779,5.789,3.053,8.3l-3.7-.325c-.07.146-.136.289-.205.436,1.262.892,2.526,1.78,4.188,2.955-1.021,3.133-2.089,6.6-3.28,10.03-.863,2.473-.062,3.669,2.538,3.486,1-.074,2-.245,3.456-.428a29.125,29.125,0,0,1-1.027,4.454c-.648,1.6-.062,2.307,1.378,2.629,1.09.246,2.2.366,3.328.545-.881,1.657-1.683,3.16-2.586,4.853l1.814.475c2.791.729,3.165,1.24,3.13,4.151a9.846,9.846,0,0,0,.146,1.818c.348,2,1.17,2.578,3.164,2.252,4.71-.774,9.326-1.832,13.416-5.123.5,2.659,1.094,5.021,1.365,7.416a5.528,5.528,0,0,1-4.038,5.514c-3.57.751-7.175,1.317-10.758,2.008a5.412,5.412,0,0,0-2.016.738c-5.971,4.125-10.261,9.571-12.005,16.657-1.191,4.838-1.437,9.921-2.794,14.7a189.28,189.28,0,0,1-6.514,18.581c-1.33,3.325-3.421,6.341-5.25,9.632-.831-.64-1.255-.973-1.687-1.3a63.4,63.4,0,0,1-18.6-23.129,60.419,60.419,0,0,1-2.6-6.415,4.518,4.518,0,0,1-.022-2.308c.681-3.265,1.4-6.527,2.22-9.76a3.307,3.307,0,0,1,1.312-1.876c2.147-1.268,4.418-2.322,6.594-3.543a4.13,4.13,0,0,1,3.065-.358,8.628,8.628,0,0,0,4.776-.19,32.953,32.953,0,0,0,11.825-8.389c3.028-3.489,3.051-4.45.915-8.572a4.387,4.387,0,0,0-4.688-2.677c-1.089.092-2.183.194-3.258.384a31.059,31.059,0,0,0-12.3,5.368c-1.361.947-2.044,2.871-3.016,4.366-.344.523-.494,1.283-.959,1.6-1.554,1.046-3.21,1.938-5.1,3.05-.229-2.882-2.655-2.377-4.259-2.875-2.575-.794-3.04,1.749-4.044,3.263-4.485-1.811-4.967,2.117-6.484,4.449-3.3-1.481-5.09-.519-5.763,3a1.284,1.284,0,0,0-.066.542c.9,3.5-1.3,4.98-3.975,6.2-.827.377-1.558.955-2.373,1.365-1.361.683-1.627,1.576-.973,2.987a3.049,3.049,0,0,1,.028,2.256c-2.406,5.313-2,10.331,1.507,14.985a35.32,35.32,0,0,0,4.5,5.036c5.384,4.827,7.96,10.908,8.642,17.985.662,6.937,2.7,13.233,7.683,18.511,7.708,8.169,7.523,8.34,7.157,19.574a70.581,70.581,0,0,0,.756,8.682c.033.347.209.772.073,1.031-1.587,3.054-1.477,6.348-1.375,9.622.063,1.978.377,3.9,2.63,4.764.468.179.757.778,1.192,1.094a9.338,9.338,0,0,0,2.663,1.689c1.533.417,2.7.994,3.17,2.622.351,1.214,1.2,1.247,2.323,1.039a3.244,3.244,0,0,1,2.2.439c2.078,1.434,3.4,1.419,5.083-.549,1.62-1.894,3.049-3.952,4.641-5.879,2.128-2.582,4.264-5.168,6.532-7.625a5.043,5.043,0,0,1,2.9-1.733c3.562-.208,7.146-.08,11-.08-1.2,3.964-2.271,7.525-3.354,11.11h53.339c-.281-3.263-.537-6.411-.834-9.556-.131-1.4.432-1.971,1.837-2.322,3.056-.761,6.077-1.715,9.053-2.758a3.772,3.772,0,0,0,2.666-3.569c.3-4.436.793-8.86,1.083-13.3.856-13.131,1.84-26.26,2.4-39.406.322-7.588.135-15.22-.234-22.812-.263-5.453-1.17-10.878-1.873-16.306a16.752,16.752,0,0,0-2.984-8.14c-1.126-1.5-2.216-3.028-3.32-4.549-1.541-2.117-2.791-4.545-4.67-6.293-3.7-3.434-5.47-7.7-6.74-12.4-1.214-4.5-2.71-8.922-4.085-13.381.091-.046.18-.091.271-.135,1.481,1.543,2.962,3.08,4.663,4.849-.012.059-.054.267-.084.479-.205,1.686,2.981,6.934,4,6.487-.153-.354-.311-.717-.41-.943,1.021-.589,1.923-1.167,2.885-1.635a3.133,3.133,0,0,1,1.2-.066,4.294,4.294,0,0,1-.358,1.049c-.388.579-.863,1.1-1.3,1.642.128.106.255.216.383.322,1.141-.7,2.282-1.4,3.471-2.128.187,1.071.384,2.223.581,3.372.1-2.5,3.362-3.792,2.349-6.355a16.549,16.549,0,0,0,2.747-.662c1.594-.687,3.009-1.126,3.66,1.36.165-.106.33-.211.491-.317-.059-1.093-.117-2.184-.176-3.281,1.668-.153,2.026.252,1.546,2.081-.5,1.909-.175,2.329,2.022,2.41-1.979-1.905.918-2.987.268-5.014,2.05.863,3.656,1.543,5.262,2.223.109-.135.218-.27.33-.4-.882-.735-1.768-1.467-2.857-2.37q.768-.527,1.528-1.053a2.19,2.19,0,0,0-1.162.154c-.392.113-.8.175-1.2.259-.411-1.832-.063-2.6,2.044-4.7,2.658,2.166,3.857,2.3,5.382.6-2.42.376-3.906-.647-3.851-2.94.052-2.128.432-4.249.67-6.374.106-.011.211-.018.322-.029q.363.883.724,1.767c.139-.03.281-.055.421-.084v-2.469l0,0c2.526-2.582,2.812-4.833.944-6.82-.958-1.016-1.807-2.135-2.682-3.174.775-.928,1.343-1.612,2.143-2.574.408,1.587.743,2.889,1.2,4.651.154-.969.228-1.433.3-1.9,1.78.292,2.757,1.177,2.476,3.226C5668.643,4058.283,5668.566,4057.6,5666.741,4056.5Zm-102.057-12.862v0c-.2.011-.394.019-.592.029-.216-.706-.823-1.708-.56-2.059a1.617,1.617,0,0,1,.212-.238,3.282,3.282,0,0,1,.53-.41c.2-.121.407-.234.619-.344.322-.165.647-.322.946-.5.146.209.3.414.442.622C5565.749,4041.711,5565.219,4042.676,5564.685,4043.641Zm-18.207,181.532c-1.247.329-2.025.289-2.458-.172a2.458,2.458,0,0,1-.45-1.718c0-.845.034-1.694.06-2.542,0-.014.01-.028.033-.05a.331.331,0,0,0,.029-.029l.039-.04.191-.205c.9,1.664,1.714,3.192,2.556,4.754Zm5.958-6.049c-1.248,1.543-2.645,2.97-4.107,4.589-.172-.314-.343-.625-.516-.936-.307-.56-.606-1.111-.907-1.653-.615-1.118-1.2-2.187-1.748-3.188-.14-.249-.275-.5-.406-.739-.073-.128-.143-.256-.213-.38h0c1.1-.055,2.19-.121,3.284-.179.819-.044,1.639-.084,2.457-.11l.819-.022c.107,0,.213,0,.315,0,.073,0,.146.008.219.015a2.081,2.081,0,0,1,.215.022c.553.059,1.108.183,1.665.256A10.5,10.5,0,0,1,5552.435,4219.125Zm34.253-10.173c-.918.069-1.865.19-2.811.2-4.078.069-8.159.205-12.234.106a48.78,48.78,0,0,1-5.945-.87,14.4,14.4,0,0,0-8.879,1.4,33.607,33.607,0,0,1-10.433,3.125c-1,.154-1.983.45-3.174.729,0-2.173-.008-4.293,0-6.414.008-1.584.008-3.167.07-4.75.2-4.984-1.017-9.5-4.838-12.895-6.85-6.077-9.732-13.878-10.562-22.746a24.782,24.782,0,0,0-7.99-16.17,41.6,41.6,0,0,1-5.047-5.756,11.81,11.81,0,0,1-1.54-11.947c3.5.037,5.75-2.669,8.931-3.543.055.629.106,1.254.165,1.88a5.732,5.732,0,0,0,3.342,5.061,3.471,3.471,0,0,1,1.331,1.931c2.97,8.495,5.828,17.026,8.846,25.507a38.639,38.639,0,0,0,6.981,12.32c3.755,4.4,7.255,9.021,11.116,13.318,3.6,4,4.821,4.026,9.051.757,5.94-4.59,11.106-9.855,14.011-17.1,2.187,1.221,3.781,2.791,3.77,5.61a32.63,32.63,0,0,0,.46,5.822,34.224,34.224,0,0,0,1.723,6.633C5584.572,4195.015,5586.846,4205.17,5586.688,4208.951Zm47.982-122.4c-.23-.033-.461-.066-.691-.1.244-1.639.49-3.273.753-5.035C5636.456,4082.57,5636.375,4083.9,5634.671,4086.552Zm19.98-5.581c-.6-.8-1.766-1.824-1.583-2.19.022-.044.048-.092.073-.136s.052-.091.08-.136a2.106,2.106,0,0,1,.14-.211c.037-.051.077-.106.117-.157s.081-.1.12-.15c.128-.154.271-.3.421-.457l.176-.175c.059-.059.12-.118.183-.18.436-.421.932-.863,1.458-1.4C5655.376,4077.8,5655.051,4079.223,5654.651,4080.971Zm4.758-33.379-.114-.012a1.157,1.157,0,0,1-.121-.014c-.058-.011-.113-.022-.167-.037a1.094,1.094,0,0,1-.158-.048,1.022,1.022,0,0,1-.131-.058c-.044-.022-.084-.048-.124-.07a.611.611,0,0,1-.11-.084.709.709,0,0,1-.1-.091.594.594,0,0,1-.058-.062c-.036-.047-.073-.095-.1-.143s-.059-.1-.084-.157a2.323,2.323,0,0,1-.1-.253c-.008-.029-.02-.059-.026-.088s-.023-.087-.034-.131l-.01-.051c-.021-.091-.041-.187-.055-.285-.021-.128-.041-.26-.059-.388-.007-.065-.018-.131-.026-.194a6.425,6.425,0,0,1,.341-1.741,3.885,3.885,0,0,0,.65.815,2.13,2.13,0,0,0,.2.172.646.646,0,0,0,.059.043.746.746,0,0,0,.105.077,2.8,2.8,0,0,0,.6.318c.047.019.1.036.149.055a1.747,1.747,0,0,0,.179.055c.034.011.066.018.1.029.063.015.125.029.187.041.044.011.092.018.135.025.136.025.271.04.406.051s.245.019.37.022.248.007.373.007c.314,0,.636-.007.954-.015a7.7,7.7,0,0,1,.893.025c.117.011.227.026.329.044.052.007.1.018.151.029a1.328,1.328,0,0,1,.142.037c.033.007.063.018.1.025s.08.025.12.041a2.145,2.145,0,0,1,.377.171c.039.025.084.051.12.077a1.661,1.661,0,0,1,.234.19.344.344,0,0,1,.04.04c.051.054.1.109.142.165s.066.091.1.139a2.324,2.324,0,0,1,.142.256.312.312,0,0,1,.026.055c.026.055.047.113.07.171a4.583,4.583,0,0,1,.213.809c-2.027-.026-4.125-.1-6.225-.062C5659.541,4047.594,5659.472,4047.594,5659.41,4047.592Zm2.212,13.666c1.979,1.013,2.216,2.154,1.178,5.675-.221-.168-.443-.333-.655-.515C5659.436,4064.08,5659.436,4064.08,5661.622,4061.257Zm2.866-7.969c-.165.011-.332.022-.5.037-.98-1.17-1.964-2.337-2.977-3.543.054-.022.109-.04.164-.059.114-.04.223-.069.336-.1.084-.018.172-.037.26-.051s.164-.025.248-.033c0,0,.008,0,.011,0a3.205,3.205,0,0,1,1.269.128c.059.018.117.041.172.062a2.436,2.436,0,0,1,.335.157c.052.03.107.063.157.1a2.145,2.145,0,0,1,.184.132,2.829,2.829,0,0,1,.479.471C5665.052,4051.109,5664.566,4052.364,5664.488,4053.288Z" transform="translate(-5509.93 -4003.917)" fill="#1b3837"/>
</svg>
