<svg xmlns="http://www.w3.org/2000/svg" width="200.23" height="200.86" viewBox="0 0 200.23 200.86">
  <g id="Group_2135" data-name="Group 2135" transform="translate(-2448.583 -5315.762)">
    <path id="Path_976" data-name="Path 976" d="M2648.813,5415.51c-11.908,12.248-24.186,24.883-37.013,38.08-.715-11.014-5.544-19-14.942-23.816a25.421,25.421,0,0,0-36.711,25.074c.968,10.515,9.337,23.533,26.844,23.612-12.556,12.643-25.3,25.47-37.889,38.162q-18.907-18.391-38.333-37.285c-.012,9.546-3.466,17.52-11.575,23a24.347,24.347,0,0,1-17.261,4.2c-13.456-1.769-23.095-12.667-22.922-25.845.2-14.677,10.151-24.069,27.159-25.715-12.525-13.05-25.1-26.154-37.587-39.16,12.321-12.291,25.093-25.031,38.006-37.907.185,8,2.708,15.231,9.047,20.719a25.377,25.377,0,0,0,21.806,5.988,25,25,0,0,0,20.591-25.783c-.493-14.22-10.3-23.273-26.9-25.111,12.661-12.593,25.481-25.352,38.142-37.957,12.543,12.136,25.562,24.735,38.616,37.365.1-9.238,3.448-17.25,11.594-22.712a24.326,24.326,0,0,1,16.656-4.275c13.746,1.566,23.527,12.267,23.532,25.592.006,14.77-9.5,23.879-27.171,26.062,6.234,6.45,12.432,12.839,18.611,19.252C2637.307,5403.485,2643.474,5409.942,2648.813,5415.51Z" transform="translate(0 0)" fill="#293213"/>
  </g>
</svg>
