<svg id="Group_2280" data-name="Group 2280" xmlns="http://www.w3.org/2000/svg" width="242" height="306.522" viewBox="0 0 242 306.522">
  <path id="Path_1337" data-name="Path 1337" d="M3171.558,4621.108c-2.36,2.317-4.616,4.852-7.325,6.7-4.067,2.77-5.4,2.334-8.013-1.873-6.332-10.208-13.9-19.283-23.8-26.251-1.777-1.254-3.571-2.482-5.435-3.6-5.635-3.379-7.839-3.162-12.673,1.255-4.9,4.477-6.811,10.347-7.386,16.714-.9,9.842.871,19.3,3.806,28.7,3.85,12.324-3.806,24.745-18.709,22.942-10.2-1.237-20.642-1.394-30.206,3.675-7.708,4.094-7.595,5.235-4.564,13.083,2.5,6.471,7.238,9.694,14.241,12.7-3.022,1.759-5.278,3.414-7.787,4.459-3.283,1.376-5.078,3.292-5.217,7.072-.27,7.395-.949,14.763-1.446,22.149-.043.723-.279,1.655.061,2.143,4.782,6.82,4.346,16.122,10.826,22.236,1.6,1.516,3.118,5.444,2.3,6.654-1.176,1.742-4.581,2.875-6.95,2.735-5.609-.34-11.175-1.542-16.749-2.474-2.317-.392-3.258-1.759-3.223-4.285.122-9.659.061-19.318-.026-28.978a8.846,8.846,0,0,0-.862-4.146c-4.067-7.02-8.51-13.822-12.368-20.956-1.646-3.049-2.386-6.663-3.1-10.112a13.865,13.865,0,0,1,.427-5.609c1.794-8.118-2.055-15.225-3.771-22.75-1.289-5.679-5.043-9.38-8.448-13.657a37.918,37.918,0,0,1-8.161-21.226c-.139-1.864-.218-3.728-.322-5.706-3.954-1.437-5.226.166-5.81,3.354-2.073,11.262-3.153,23.159-11.541,31.817-6.341,6.541-6.654,15.208-10.208,22.663a6.333,6.333,0,0,0-.139,3.014c1.019,14.275-3.7,26.591-11.941,38.088a24.976,24.976,0,0,0-4.094,13.03c-.252,6.724,1.019,13.491,1.655,20.241.043.436.218.845.287,1.272,1.411,8.091-.061,10.1-8.161,10.095-6.167-.009-12.324-.575-19.693-.958,1.994-5.174,3.937-9.023,4.982-13.109,3.223-12.638,9.529-24.64,8.24-38.209-.392-4.181-1.289-8.309-2.038-12.446a29.05,29.05,0,0,1,6.445-24.5c5.74-6.847,6.149-14.912,5.862-22.5a94.813,94.813,0,0,1,15.234-56.527c2.656-4.146,2.029-10.583,2.352-15.991.27-4.511-.758-8.6-4.712-11.923-2.656-2.23-4.189-5.8-5.914-8.327-2.63,3.214-5.635,6.41-8.048,10.008a18.578,18.578,0,0,0-2.334,6.872c-1.08,5.661-1.629,11.419-2.892,17.037-.723,3.249.1,5.261,2.752,6.977,3.423,2.23,6.489,4.485,6.637,9.4.226,7.708-3.066,13.152-9.7,16.409-5.4,2.656-12.926-2.291-13.143-9.18-.27-8.5-2.918-16.113-6.036-23.8-1.515-3.719-2.221-7.786-3.083-11.749a22.912,22.912,0,0,1,3.467-17.873,14.249,14.249,0,0,0,2.177-10.652,30,30,0,0,1,3.606-19.754,11.784,11.784,0,0,0,1.28-6.158c-.679-10.678,4.564-18.491,14.92-21.557,3.022-.9,6.228-1.246,9.163-2.352a12.582,12.582,0,0,0,4.581-3.554c5.122-5.809,4.1-6.036,13.927-5.182a64.752,64.752,0,0,0,1.907-8.222c.784-7.639,1.42-15.294,1.829-22.968.157-3.127,1.5-5.348,4.346-5.566a119.64,119.64,0,0,1,14.136.157c2.056.087,4.094.583,6.959,1.019.923,1.75,2.622,4.225.174,7.238a4.042,4.042,0,0,0-.522,2.082c-.584,7.29-1.254,14.571-1.646,21.879-.218,3.911,1.394,6.5,5.766,7.308,2.909.531,5.688,2.021,8.4,3.318,6.262,3,12.586,5.452,19.606,6.393,4.948.662,7.543,4.869,8.065,9.676.392,3.65,2.23,5.339,5.243,7.1a122.956,122.956,0,0,1,30.667,24.736,12.8,12.8,0,0,0,5.531,3.763c17.158,5.139,33.542,12.15,49.6,19.963a115.6,115.6,0,0,1,14.284,8.231c7.578,5.13,12.83,18.177,9.023,27.932-.993,2.526-.758,4.425,2.334,5.313C3173.7,4616.963,3173.779,4618.931,3171.558,4621.108Z" transform="translate(-2931.082 -4459.753)" fill="#232323"/>
</svg>
