<svg xmlns="http://www.w3.org/2000/svg" width="327.305" height="264.009" viewBox="0 0 327.305 264.009">
  <g id="Group_2199" data-name="Group 2199" transform="translate(-853 -11527.473)">
    <path id="Path_1045" data-name="Path 1045" d="M2985.956,5826.729c-8,42.854-15.875,84.925-24.054,128.532H2909.15V5826.729Z" transform="translate(-2024.651 5836.22)" fill="#1e2639"/>
    <path id="Path_1046" data-name="Path 1046" d="M3048.357,5826.71v128.41h-53.236c-8.027-43.185-15.814-85.224-23.841-128.41Z" transform="translate(-1899.278 5836.179)" fill="#1e2639"/>
    <path id="Path_1047" data-name="Path 1047" d="M3106.99,5916.468c-4.918-2.715-11.5-4.284-14.335-8.42-6.669-9.626-11.558-20.521-19.012-34.344-.845,8.269-1.3,12.464-1.841,17.716h-44.967c0-13.853-.453-27.766.181-41.617.393-8.722-2.324-13.551-11.408-13.52-27.764.12-41.405-21.579-58.094-38.207-2.113-2.082,0-8.449.181-12.825,4.315.209,8.631.3,12.947.692.785.061,1.6,1.178,2.2,1.962,16.84,20.883,37.724,33.982,65.277,32.685-2.112,19.163-4.044,36.787-5.946,54.412,1.872.333,3.744.635,5.614.935,3.139-17.353,6.308-34.734,9.567-52.752,12.977-4.1,22.242-.452,28.881,13.943,9.808,21.4,22.152,41.616,32.292,62.863C3110.582,5904.276,3107.623,5910.915,3106.99,5916.468Z" transform="translate(-1928.939 5752.516)" fill="#1e2639"/>
    <path id="Path_1048" data-name="Path 1048" d="M3055.877,5831.043c-.121,3.8-3.38,10.048-6.429,10.834-13.581,3.441-27.613,7.424-41.344,6.972-8.451-.272-16.629-8.24-25.924-13.279v33.077h-45.239c-.664-4.438-1.358-9.086-2.565-17.2-7.062,13.278-12.042,24.564-18.952,34.5-2.746,3.953-9.808,4.887-14.908,7.211-.483-5.249-3.048-11.558-1.057-15.632,10.262-21.186,22.6-41.405,32.382-62.8,6.579-14.427,15.874-17.866,29.032-14,2.988,20.068,5.764,38.449,8.51,56.857,2.2-.271,4.438-.574,6.641-.845-2.264-18.561-4.527-37.12-7.3-59.814,7.575,5.432,14.606,8.329,18.379,13.58,13.309,18.529,29.968,22.816,50.731,15,2.746-1.026,6.307-2.083,8.782-1.177C3050.264,5825.641,3055.968,5828.809,3055.877,5831.043Z" transform="translate(-2045.712 5776.045)" fill="#1e2639"/>
    <path id="Path_1049" data-name="Path 1049" d="M2935.272,5824.7c-12.192.333-22.363-9.354-22.3-21.245.061-11.047,9.989-21.065,21.216-21.458,11.257-.393,21.125,8.933,21.638,20.461C2956.428,5815.949,2948.672,5824.369,2935.272,5824.7Z" transform="translate(-2016.942 5745.931)" fill="#1e2639"/>
    <path id="Path_1050" data-name="Path 1050" d="M3021.779,5802.032c.634,11.591-9.687,22.515-21.518,22.754a21.035,21.035,0,0,1-21.458-20.642c-.482-13.4,7.576-22.09,20.764-22.3C3011.035,5781.633,3021.176,5790.866,3021.779,5802.032Z" transform="translate(-1884.138 5745.634)" fill="#1e2639"/>
    <path id="Path_1051" data-name="Path 1051" d="M3001.495,5827.258c-2.565,1.479-5.1,4.164-7.726,4.255-12.977.452-25.984.182-38.961.182v-.031c-12.494,0-24.988.272-37.452-.21-3.2-.121-6.277-2.777-9.386-4.285,2.867-1.752,5.734-4.98,8.631-5.012q38.93-.586,77.892.062C2996.847,5822.278,2999.171,5825.506,3001.495,5827.258Z" transform="translate(-2027.032 5826.457)" fill="#1e2639"/>
    <path id="Path_1052" data-name="Path 1052" d="M3061.382,5826.2c-1.78,1.842-3.561,5.252-5.372,5.252-29.395.362-58.788.242-88.183.242-.392-1.962-.815-3.895-1.237-5.854,2.867-1.3,5.764-3.652,8.661-3.684q39.023-.5,78.1-.09C3056.04,5822.062,3058.7,5824.746,3061.382,5826.2Z" transform="translate(-1908.742 5826.403)" fill="#1e2639"/>
  </g>
</svg>
