<svg id="Group_2089" data-name="Group 2089" xmlns="http://www.w3.org/2000/svg" width="548.872" height="285.409" viewBox="0 0 548.872 285.409">
  <path id="Path_712" data-name="Path 712" d="M3133.941,5664.239c2.319-2.354,1.153-4.582-.226-6.961.988-.16,1.765-.282,2.909-.468-1.859-1.613-4.88-1.209-5.214-3.823,1.89-1.911,3.6-3.793,5.483-5.487,1.751-1.573,1.955-2.679.559-4.621a24.6,24.6,0,0,1-1.409-2.548c2.314-.433,4.7.944,5.734-1.773,3.017,1.781,4.508,1.443,4.8-1.023-.771-.152-1.833-.035-2.258-.5-1.162-1.274-1.894-.949-2.856.164-.359.412-1.118.477-2.193.9.633-1.361.919-1.981,1.249-2.683l-3.29-.945,2.865-2.007c-.737-.771-1.131-1.187-1.5-1.574.689-.49,1.249-.888,1.959-1.391-1.825.295-3.411.546-5,.806-2.679.433-3.177-.165-3.008-2.848a5.156,5.156,0,0,0-.893-3.506,2.029,2.029,0,0,1-.55-2.4c.447-1.417.39-3.074-1.326-3.238-.746-.069-1.985,1.417-2.393,2.44-.39.967-.1,2.406-1.573,2.3-.889-.064-1.721-.936-2.991-1.686,0,0-.516.234-1.041.463a4.423,4.423,0,0,1,1.015-1.668c.615-.793,1.183-1.621,1.768-2.436-.94-.043-1.881-.1-2.826-.122-.486-.008-.976.052-1.4.078-.538-1.37-1.032-2.63-1.613-4.109-1.023.88-1.664,1.431-2.141,1.842a12.982,12.982,0,0,0-1.734-1.07,30.121,30.121,0,0,0-1.968,2.869l-2.592-1.656c-.681.325-1.378.7-2.106,1a6.654,6.654,0,0,1-5.852-.044c-1.383-.714-1.911-1.643-1.088-3.143.529-.958.906-2,1.417-3.142-1.925-.364-2.575.68-3,1.838a4.677,4.677,0,0,1-3.394,3,42.408,42.408,0,0,0-4.234,1.773c-.932.391-1.877.754-2.817,1.127.13-.862.269-1.725.377-2.587.009-.091-.16-.2-.36-.438-.36.316-.871.555-1.045.949-1.5,3.39-5.088,4.032-7.745,5.874a3.805,3.805,0,0,1-2.865.042c-.3-.091-.221-1.43-.321-2.232-2.219-.208-5.431.646-6.268,2.228-2.089,3.936-6.332,2.891-8.959,4.6-.949-1.166-1.612-1.981-2.453-3.013-.88,3.194-5.167,5.127-8.335,3.966-2.18-.8-4.148-1.2-6.068,1.083-.464-.94-1.175-1.729-1.01-2.232.173-.528,1.14-.993,1.829-1.123,2.519-.477,4.547-1.534,5.267-4.165.711-2.6-.4-4.651-2.271-6.372a6.28,6.28,0,0,0-7.949-.364c-2.21,1.543-2.74,4.026-1.452,6.956.424.972.923,1.912,1.378,2.844-2.422,1.69-4.5,4.261-7.845,2-.39-.269-1.135-.095-1.7-.018a15.288,15.288,0,0,0-8.148,3.169,4.563,4.563,0,0,1-5.193.949c-1.1-.5-2-.538-2.752.7-.8,1.321-1.534.8-2.562-.07a61.011,61.011,0,0,0-6.1-4.308,1.994,1.994,0,0,0-1.591-.147,5.458,5.458,0,0,0-2.964,6.12,3.755,3.755,0,0,1-.048,2.415c-1.491,2.692-3.16,5.275-4.768,7.9-.407-.408-.893-1.214-1.218-1.153a21.341,21.341,0,0,0-3.485,1.131c-.737.273-1.448.62-2.171.936-.217-.776-.763-1.643-.585-2.319a25.253,25.253,0,0,1,1.665-3.814c.225-.5.412-1.028.615-1.543-.151-.135-.3-.269-.451-.407-.685.3-1.356.632-2.059.883-.429.151-1.188.39-1.3.23a38.318,38.318,0,0,1-2.93-4.439,13.961,13.961,0,0,1-.776-3.142c2.371-.889,6.1-.672,7.369-4.517a4.209,4.209,0,0,0-1.041-.234c-2.354.117-4.7.3-7.052.382a1.577,1.577,0,1,1-1.187-2.914,24.144,24.144,0,0,1,2.652-2.886l-.442-.611c-1.526.858-3.125,1.608-4.56,2.592-1.981,1.357-3.736,2.042-5.54-.286-.429-.55-1.391-.689-2.106-1.014-1.781-.814-3.576-2.5-2.856-4.065,1.625-3.542.746-7.177,1.271-10.433-1.721-1.374-3.4-2.631-4.937-4.044a1.8,1.8,0,0,1,.182-1.7,6.25,6.25,0,0,0,3.238-5.626c2.96-.841,4.278-2.614,3.832-4.989-.468-2.466-1.864-3.194-5.652-2.843v-1.643c-1.187.945-2.332,1.864-3.58,2.857a60.933,60.933,0,0,0-3.312-6.272c-.446-.654-1.764-.854-2.722-.966a7.141,7.141,0,0,0-2.237.438c.143-1.721.26-3.129.373-4.542,1.387-2.289,1.413-2.588-.2-3.906a5.036,5.036,0,0,0-1.058,5.6c-1.083-.78-1.526-1.1-1.985-1.422-.5.646-.928,1.192-1.452,1.869-.477-.885-.854-1.6-1.513-2.826-.85,1.495-1.782,2.518-2,3.675-.33,1.7-1.127,1.76-2.445,1.37-.923-.273-2.12-.91-2.765-.572-1.209.633-1.92.255-2.921-.256a2.408,2.408,0,0,0-1.946.312c-.247.143-.282,1.188-.022,1.539.7.958,2.076,1.673,2.271,2.662.125.637-1.366,1.591-2.15,2.418-.563-.884-1.179-1.851-2.15-3.38-.407,1.751-.659,2.821-.884,3.8-1.153.091-2.176.173-3.415.273.394.893.646,1.464.914,2.089-3.042,1.46-.216,2.028.637,3.034-2.024.915-1.946,2.526-1.929,4.321.013,1.218-.741,2.445-1.244,3.932-2.141-2.6-3.931-4.785-5.964-7.26v6.813c-.628-.477-1.331-1.014-2.033-1.547.5,1.886.936,4.222,2.267,4.98,2.713,1.547,2.046,3.515,1.729,5.652a6.606,6.606,0,0,0-.156.789c-.008,2.384,0,4.772,0,7.291-2.7-.681-2.033-4.022-4.018-5.448-1.591,1.231-3.16,2.44-4.582,3.541-1.643-1.235-3-2.418-4.517-3.333a13.481,13.481,0,0,0-3.728-1.443,2.538,2.538,0,0,0-2.1.355c-2.263,2.592-1.942,2.488-4.746.359-.316-.243-.655-.464-1.015-.715l-2.86,3.134c-1.235-1.542-2.306-2.874-3.394-4.231-1.218,2.281-2.354,4.417-3.494,6.554-.338-.13-.676-.264-1.01-.394a9.766,9.766,0,0,0,.438-2.2c-.035-1.2.061-2.622-.542-3.515-.546-.815-1.951-1.049-3.116-1.608-.42,1.3-4.369.39-3.052,3.042a20.111,20.111,0,0,0-1.595,2.956,14.026,14.026,0,0,0-.169,2.367c-.273,1.946-2.427,3.68-4.109,3.363-1.5-.281-3.212-2.57-3.038-3.515h2.34c.854.386,1.638.742,2.687,1.209a13.565,13.565,0,0,1-.381-2.991c.269-1.985-.1-2.623-2.059-2.393a11.216,11.216,0,0,0-2.995,1.37c-.464-1.76-.135-4.3-3.143-5.055-2.176-.542-4.252-2.244-5.453,1.223-2.475-2.8-2.475-2.8-.5-4.742-2.432-2.067-4.855-4.126-7.459-6.337-.529,2.146-.213,3.771,1.126,4.941,1.279,1.114,1.682,2.223.889,3.736-.035.064.1.225.152.32.55-.247,1.092-.494,2.028-.915-.173,1.036-.277,1.656-.39,2.336-2.787-1.088-4.057-3.034-4.638-5.96-1.482.741-2.856,1.431-3.988,2-1.742-.875-.507-4.291-3.528-3.659l-1.959-2.505c-.225,1.53-.338,2.289-.533,3.624-1.638-.333-3.168-.594-4.672-.962-1.569-.386-3.112-.88-4.668-1.327-.156.148-.316.295-.477.442a17.136,17.136,0,0,1,.837,2.159c.125.5.212,1.249-.061,1.561a1.59,1.59,0,0,1-1.518.278,24.689,24.689,0,0,1-2.843-2.24c-.581-.49-1.131-1.02-1.7-1.531-.212.165-.429.33-.646.495.512,1.071,1.023,2.141,1.79,3.758a18.082,18.082,0,0,1-3.29-.417c-1.634-.533-3.16-1.426-4.811-1.89a26.8,26.8,0,0,0-4.421-.451c-.165-2.267-1.838-3.831-5.05-4.165.481.637.785,1.023,1.071,1.421.251.351.485.715.724,1.071-.121.143-.247.282-.369.425-15.027-12.986-33.175-20.524-50.4-29.682,7.417,5.149,14.976,10.047,22.548,14.919a26.23,26.23,0,0,0,2.843,1.543,9.481,9.481,0,0,0,1.578.438c-.195-.546-.316-.889-.671-1.89,2.054,1.53,3.52,2.8,5.149,3.788s3.424,1.648,5.1,2.541a6.257,6.257,0,0,1,1.435,1.3c2.609,2.734,5.128,5.54,8.569,7.329a15.2,15.2,0,0,1,3.429,2.627,28.786,28.786,0,0,1,2.427,3.038c-.117.217-.238.43-.355.646-1.435.077-2.874.16-4.07.225-.286-.923-.455-1.469-.624-2.011-.221.229-.663.49-.633.676.416,2.531-1.279,2.31-2.583,1.712a73.262,73.262,0,0,1-9.5-4.972c-2.935-1.92-3.944-2.483-6.649-1.743.464.325.85.642,1.274.884,3.438,1.938,7.625,2.787,9.705,6.71.112.212.667.161.992.3,2.627,1.083,5.245,2.184,7.841,3.271-.733,1.058-1.262,1.825-1.886,2.723l3.905,2.063c-1.981.754-1.005,1.716-.65,2.9l-2.206-1.46c-.65.619-1.327,1.265-1.608,1.534l-2.965-1.414c-.212.62-.429,1.24-.728,2.106l-4.577-1.2c.542-.758.88-1.235,1.209-1.7-1.062-.607-2.718-1.062-2.774-1.669-.208-2.21-1.313-1.473-1.872-1.387-.338,1.729-.6,3.074-.858,4.421-.256.1-.512.2-.763.295a14.011,14.011,0,0,0,2.527,1.152c3.922.937,7.888,1.712,11.807,2.679a33.086,33.086,0,0,1,4.14,1.608c-.091.291-.178.581-.269.872-7.862-.863-15.643-2.813-23.444-2.5.026,3.966,2.661,4.807,5.353,5.336v4.079a8.579,8.579,0,0,1,1.622.3,2.392,2.392,0,0,0,3.38-1.369,2.48,2.48,0,0,0-1.14-3.507c-.983-.567-2.08-.94-3.082-1.482a23.292,23.292,0,0,1-2.046-1.369c.178-.286.351-.577.524-.867q1.638.865,3.286,1.729a23.872,23.872,0,0,1,6.35.4c2.306.442,4.56,1.158,6.857,1.682,1.218.277,2.47.39,3.71.577.065.264.13.524.2.789-3.216,1.27-6.437,2.544-9.718,3.841,1.808,1.781,5.3.442,6.38,3.943a8.213,8.213,0,0,1-2.74-.281c-2.639-1.4-5.019-.684-7.65.2-2.791.937-5.9,2.038-8.521-.758-.212-.229-.828-.087-1.109-.108-.135,3.125,1.846,2.54,3.627,2.432a8.168,8.168,0,0,1,2.1.295,27.463,27.463,0,0,0,4.564.914c2.375.057,4.755-.295,7.134-.386,1.465-.056,2.935-.035,4.4-.021-.642,1.331-1.278,2.662-1.924,4.005a12.579,12.579,0,0,0-.355-2.783,41.908,41.908,0,0,0-4.85-.069c-.087.29-.178.576-.264.862,1.2,1.343,2.405,2.688,3.888,4.339-5.539.386-11.092.49-16.293,2.575a5,5,0,0,0,1.873.212c7.845-.286,15.686-.637,23.531-.862,11.291-.325,22.586-.582,33.878-.833,3.32-.074,6.64-.04,9.964-.048,3.247-.009,6.51-.182,9.744.039,3.1.208,5.934-1.366,9.228-.567,3.143.767,6.606.177,9.921.3,2.921.1,5.839.373,9.189.6a8.23,8.23,0,0,1-6.293,1.643,87.675,87.675,0,0,0-9.089.182c0,.248.009.495.018.741H2912.7c0-.19,0-.377,0-.563-2.215-.589-5.084,1.166-6.926-2.219,5.578.286,10.845.555,16.115.828.009.091.022.186.035.281l-6.2,1.236c-.013.208-.026.412-.039.619a30.616,30.616,0,0,0,3.827.668c4.833.239,9.67.377,14.507.542a4.842,4.842,0,0,0,1.5-.125c1.292-.373,2.042-1.04.767-2.587l5.687.42c-.472.642-.728.993-.984,1.344a29.108,29.108,0,0,1,5.47-.806c6.7.3,13.376.966,20.073,1.2,4.213.144,8.447,2.337,12.682.07.212-.113.568.039.854.069,3.871.412,7.741.872,11.616,1.227,2.813.26,5.644.382,8.465.568.083-.264.165-.533.247-.8a7.414,7.414,0,0,0-2.167-1.278c-2.453-.451-4.937-.79-7.425-1-2.835-.234-5.7-.139-8.521-.429-4.668-.478-9.319-1.132-13.974-1.75-1.383-.183-2.748-.482-4.122-.733a52.2,52.2,0,0,1,8.955.13c9.544.793,19.093,1.573,28.628,2.453,8.114.75,16.215,1.69,24.329,2.414,3.663.325,7.351.351,11.031.438a6.015,6.015,0,0,0,1.782-.546c-6.987-.858-13.813-1.283-20.614-1.963-6.888-.685-13.766-1.482-20.614-2.48-6.584-.958-13.285-1.162-19.774-2.613,4.291-.23,8.53-.248,12.769-.225,1.682.008,3.6,1.048,4.672-1.3.117-.261.937-.208,1.431-.3-.542.632-1.083,1.266-1.924,2.245,10.9.615,21.295,2.74,31.849,3.117.03-.269.061-.533.091-.8q-13.484-1.547-26.969-3.09c.026-.274.052-.542.078-.816,12.981-.325,25.837,3.385,39.3,1.821-1.972-2.613-3.65-4.833-5.678-7.52,3.407.364,6.051.564,8.665.954,2.067.308,4.352.234,5.552,2.592.208.407,1.066.48,1.664.724.6-2.483,1.348-2.912,3.724-2.544a8.5,8.5,0,0,0,2.483-.03c3.819-.576,7.65-1.815,11.434-1.664,4.443.173,8.647.576,12.067-2.892a13.68,13.68,0,0,1,1.123,1.08c1,1.2,1.959,2.154,3.766,1.257a6.794,6.794,0,0,1,3.442-.732c2.453.221,5.11-.329,7.26,1.491.13.108.516-.086,1.2-.221-.876-1.414-1.639-2.644-2.384-3.854,1-.291,1.916-.563,2.874-.845,1.2,2.44,3.675,1.357,6.254,2.067l-3.294,4.646c.178.507.594,1.5.867,2.536a1.694,1.694,0,0,1-.156,1.373,32.759,32.759,0,0,1-5.088,4.283,14.487,14.487,0,0,0-6.476,8.318,5.162,5.162,0,0,1-6.892,3.121c0-1.067.416-2.389-.069-3.026-2.081-2.709-4.711-5.023-6.606-7.841-3.186-4.742-8.634-2.978-12.743-4.941a1,1,0,0,0-.845.074c-2.952,2.349-7.915.017-10.025,4.3a.57.57,0,0,1-.351.243c-3.628.829-5,4.183-7.143,6.6-.693.78-.672,2.47-.451,3.65.078.42,1.7.715,2.635.779,3.077.217,6.164.3,9.12.43-.6,3.568,3.143,2.176,4.122,4.013-1.79-.212-3.376-.4-4.958-.594-.022.2-.048.4-.069.6l1.8.863c-.026.2-.052.408-.074.611h-13.346c-.108.33-.217.659-.33.993.776.468,1.517,1.274,2.328,1.352,2.869.278,5.769.2,8.638.469a38.827,38.827,0,0,1,5.674,1.148c1.668.42,1.985,1.421,1.161,2.583-7.4-.238-14.576-.468-21.754-.7-.022.265-.048.529-.074.8q3.589.345,7.173.7c-.018.157-.03.308-.048.464l-14.368-.811c.676.625.867.958,1.088.984q9.44.995,18.894,1.941c-.009.122-.013.243-.022.36l-18.421-.949c-.026.182-.052.364-.078.542.507.256,1.019.507,1.82.906l-3.545.451c.021.225.043.451.061.68h7.742l-2-.966a13.833,13.833,0,0,1,4.525-.069c.8.129,1.946.563,2.2,1.17a5.029,5.029,0,0,0,4.686,3.046,105.356,105.356,0,0,0,10.806.083c1.916-.06,2.709.7,2.861,2.627-1.365-.173-2.566-.329-4.113-.529,1.044,1.608,1.764,2.713,2.639,4.062h-3.875l2.38,1.525c-1.136.6-1.569.837-2.137,1.141.884.646,1.573,1.153,2.263,1.656-.07.156-.139.313-.208.468l-2.21-.208-3.879,3.458c1.426.594,2.614,1.088,3.806,1.582-.086.216-.169.434-.255.646l-2.332.368c.719,1.166,1.344,2.176,1.859,3-.858,1.248-1.569,2.275-2.224,3.225.589.642,1.032,1.123,1.8,1.955a12.972,12.972,0,0,0-2.432-.325c-2.2.222-4.8-.836-6.263,1.912-.125.239-.793.2-1.218.26-.724.1-1.452.165-2.67.3,1.53,1.261,4.287.442,3.654,3.216-.572-.212-1.131-.637-1.608-.555-2.5.425-4.972,1.083-7.481,1.457-2.822.421-5.674.737-8.526.884-2.817.148-5.647.035-8.474.035-.018.152-.03.3-.043.451q1.541.716,3.082,1.427a2.694,2.694,0,0,1-1.539.29c-3.975-.312-7.932-1.274-11.928.044-.819.273-2.437.247-2.675-.191-1.183-2.15-3.2-1.551-4.9-1.765-7.074-.889-14.157-1.725-21.248-2.432-6.731-.672-13.48-1.126-20.216-1.738-3.736-.333-7.464-.771-11.187-1.2-8.651-1-17.472-.291-25.985-2.661a19.285,19.285,0,0,0-4.451-.785c-10.533-.381-21.069-.637-31.6-1.053a37.355,37.355,0,0,1-5.9-1.087,29.339,29.339,0,0,0-5.132-1.1c-5.821-.113-11.651-.047-17.476.053-4.434.077-8.868.363-13.3.441-1.547.026-3.017-.13-3.312,2.059-1.071-.364-1.951-.664-2.831-.954s-1.769-.637-2.674-.863c-3.039-.771-3.5-.516-4.958,3.112,1.643-.545,2.878-.958,3.949-1.317.438.863.854,1.686,1.569,3.1-4.434,0-8.552-.086-12.665.022-4.287.112-8.573.412-13.216.646.664-.425,1.01-.646,1.357-.862-.061-.235-.118-.464-.174-.7-1.552.259-3.1.545-4.655.766-.628.091-1.465.317-1.881.022-2.328-1.647-4.625-1.005-6.948-.459-.021.234-.039.468-.056.707h3.871c0,.187.013.374.021.563l-11.273.941c.377-2.723-.919-3.55-3.143-3.854-8.218-1.11-16.406-2.432-24.628-3.506a55.98,55.98,0,0,0-7.182-.048v2.658c10.537,1.7,20.818,3.359,31.095,5.019-.013.283-.026.564-.039.85a3.7,3.7,0,0,1-1.261.26c-6.584-1.209-13.138-2.552-19.734-3.649-3.307-.55-6.684-.672-10.064-.989v3.412c5.266.788,10.32,1.517,15.361,2.34a9.114,9.114,0,0,1,2.228,1.04c-.078.173-.152.351-.226.524-5.734-1.3-11.451-2.748-17.376-2.475v3.429c9.18.381,17.65,3.234,26.323,6.28l-4.087,1.76h5.942c-.243-.511-.542-1.14-.594-1.253,2.076-.255,4.218-.519,6.359-.789q4.974-.631,9.947-1.27c-3.559-1.807-7.16.2-10.146-.372-1-.919-1.665-1.53-1.973-1.817l2.488-2.656c.945,0,1.694.026,2.436,0,.689-.03,1.469-.351,2.05-.13,2.588.988,4.5.235,6.237-1.812.988-1.162,3.06-.381,3.5,1.353-.984.1-1.934.2-2.887.3,3.025.507,5.921,1.274,8.842,1.942a4.114,4.114,0,0,0,2.124-.117c.395-.13.628-.754.993-1.235l3.9,1.53c.078-.187.161-.369.238-.551l-1.664-1.062,4.044-.594c-.446,2.866,1.534,1.569,2.652,1.868a12.9,12.9,0,0,1,2.133.989c-.485.42-.984.823-1.443,1.265a4.312,4.312,0,0,0-.49.923h2.358c.047.222.1.447.147.672a27.9,27.9,0,0,1-4.3,1.175,44.185,44.185,0,0,1-7.481.368c-2.007-.113-4.464.408-5.561-2.206-1.022.984-2.037,1.967-3.086,2.978l7.074,1.795c.052-.222.1-.447.152-.668-.568-.19-1.14-.386-1.712-.577,1.37-.186,2.978-.542,3.871.1,1.469,1.049,2.457.455,3.766.013a2.674,2.674,0,0,1,3.641,1.339c-4.417.365-8.782.395-13.142.33a8.576,8.576,0,0,1-2.319-.8c-.225.291-.654.845-1.339,1.733,2.475,0,4.478.053,6.476-.013,7.286-.229,14.573-.542,21.863-.706,1-.021,2,.685,3.025.936a2.593,2.593,0,0,0,1.417-.156c.6-.226,1.153-.858,1.729-.863q13.153-.057,26.314.039a7.068,7.068,0,0,1,2.033.676q-.092.5-.182,1c-7.212,0-14.425-.057-21.633.017q-10.929.11-21.854.433c-7.187.2-14.364.564-21.546.772-7.135.2-14.269.424-21.356,1.235h25.135c-9.479,3.412-19.032,1.89-28.711,3.043,1.083,1.01,1.894,1.764,2.817,2.626-1.816.56-4.4-.061-4.122,2.831a2.364,2.364,0,0,0,2.783,2.145c1.712-.156,2.5-1.708,2.436-4.789,1.963-.546,3.164.264,3.875,2.089a9.151,9.151,0,0,0,1.4,2.887c.516.563,1.59.615,2.418.893-.056-.82-.113-1.634-.16-2.454s-.425-1.9-.048-2.431a2.376,2.376,0,0,1,2.258-.542,3.231,3.231,0,0,1,1.288,2.149,8.093,8.093,0,0,1-.386,2.583c1.461.347,2.748.65,4.1.971-.382,1.244-.707,2.3-1.027,3.35a8.6,8.6,0,0,0,2.813-1.812c2.718-2.474,3.433-2.583,6.709-.936,2.471,1.244,2.766,2.51,1.543,4.374-1.6.468-2.666.785-3.741,1.1.451.979.893,1.968,1.361,2.938a1.689,1.689,0,0,0,.425.49c1.153,1.037,1.119,2.05.672,3.58a11.783,11.783,0,0,0-.009,5.6,3.445,3.445,0,0,0,3.632,2.822c2.011-.061,2.289-1.625,2.766-3.082.814-2.475,3.523-3.229,5.3-1.439,3.151,3.173,6.813,3.8,10.944,2.41,3.84-1.287,4.564-3.112,2.618-6.7a13.683,13.683,0,0,0-1-1.409c-1.348-1.872-1.174-2.752,1.044-3.52a5.3,5.3,0,0,0,3.646-3.48,6.333,6.333,0,0,1,8.859-3.767c1.9.824,3.034.108,3.684-1.924.247-.763,1.236-1.808,1.86-1.791a3.709,3.709,0,0,1,2.362,1.56c.754,1.01,1.015,2.38,1.734,3.42,1.049,1.517,1.049,2.939-.524,4.01a43.172,43.172,0,0,1-5.392,3.164c-2.843,1.387-5.838,2.471-8.634,3.945a3.2,3.2,0,0,0-1.465,2.6c.295,1.535,1.812,1.5,3.013,1a105.632,105.632,0,0,0,10.017-4.443c3.394-1.842,7.035-1.725,9.514.988a17.64,17.64,0,0,1-2.384,1.023c-1.937.529-3.922.9-5.847,1.465-.494.147-.837.815-1.253,1.239a10.5,10.5,0,0,0,1.8.772,3.01,3.01,0,0,0,1.261-.243c3-.771,5.964-1.776,9.011-2.253a14.715,14.715,0,0,1,5.839.425c1.651.429,2.99.238,3.311-1.3.667-3.182,3.572-3.84,5.414-5.626,2.744,1.851,2.74,1.846,5.7,1.032a1.077,1.077,0,0,1,.806.056c1.751,1.317,3.359.338,5.093-.1a17.037,17.037,0,0,1,4.074-.064c.5.113.9-.386,1.3-.885,1.7-2.11,2.943-2.418,4.859-.55,1.955,1.907,3.658,1.75,5.644.294.871-.637,1.89-1.071,2.756-1.712a11.393,11.393,0,0,1,7.555-2.085,2.925,2.925,0,0,1,1.66.737c2.384,2.124,2.366,2.141,5.2.4.134.255.251.52.407.762,1.114,1.708,2.094,3.476,4.768,2.354.741-.312,1.92.4,2.9.65-.429,1.288-.724,2.167-1.019,3.052q.215.33.429.667c1.963-.5,3.966-.875,5.878-1.531a39.54,39.54,0,0,0,4.459-2.167c-.03-.143-.186-.841-.342-1.543,2.8,3.611,2.8,3.611,2.562,6.125l2.093.13c-.125.165-.256.329-.386.495,1.083,1.217,2.171,2.435,3.251,3.658a8.609,8.609,0,0,0,1.14,1.287,7.052,7.052,0,0,0,2.341,1.4c1.959.464,3.511,1.232,4.04,3.364.156.642.446,1.252.871,2.405.577-1.309.91-2.067,1.136-2.583.949-.117,1.742-.217,2.683-.333.785.858,1.69,1.842,2.618,2.852.295-.282.447-.429.6-.572l1.5-1.378c.386.564.767,1.126,1.162,1.681.333.477.685.941,1.027,1.413.577-.836.456-1.6.733-2.158.368-.758.945-1.7,1.638-1.921.525-.165,1.634.5,2.011,1.092a39.474,39.474,0,0,1,1.66,3.741,16.093,16.093,0,0,0,1.617,2.137c.247-.893.316-1.157.395-1.417q.338-1.156.685-2.306c.685.32,1.369.645,2.054.958.55.247,1.279.832,1.63.663,2.574-1.266,3.641.481,4.5,2.267,1.119,2.328,1.9,4.816,3.03,7.143.321.672,1.313,1.022,2,1.525a7.418,7.418,0,0,0,.043-2.31c-.75-2.432-1.617-4.742-.208-7.3.741-1.357-.091-2.094-1.708-1.877a4.567,4.567,0,0,1-2.263-.039,6.046,6.046,0,0,1-2.4-8.808c.885-1.252,1.925-1.287,3.208-.714,1.209.542,1.86,1.2,1.392,2.666a12.636,12.636,0,0,0-.265,2.8c.191.086.377.177.568.268.889-.632,1.782-1.266,2.705-1.924.646.585,1.266,1.153,1.976,1.8,1.387-1.5,1.218-2.756-.19-3.944-1.322-1.114-2.731-2.146-3.944-3.368-.377-.381-.243-1.27-.343-1.929.611.112,1.236.183,1.833.347,1.257.351,2.506,1.08,3.754,1.075,2.644-.009,3.537,1.122,2.505,3.563-.75,1.776-1.478,3.571-2.05,5.409-.195.633-.052,1.942.243,2.042a2.735,2.735,0,0,0,2.319-.213,4.453,4.453,0,0,1,4.972-.979c.494.173,1.17-.178,1.76-.287-.113-.594-.043-1.326-.373-1.746-1.019-1.3-2.262-2.424-3.264-3.737a2.293,2.293,0,0,1-.13-1.751c2.562-.962,4.252-3.641,7.75-2.939,4.061.815,4.144.391,4.326,4.343,0,.169.195.33.4.667a15.955,15.955,0,0,1,1.561-2.417c.485-.529,1.4-1.279,1.846-1.127,2.666.905,4.854-.1,7.191-1.175,1.955-.9,3.021.2,2.588,2.361-.213,1.054-.841,2.211-.577,3.112s1.417,1.513,2.18,2.25a6.431,6.431,0,0,0,.6-2.35c-.728-4.746-.659-4.907,4.083-5.712.485-.082.984-.1,1.491-.144.369,1.678.4,3.438,1.153,4.791.8,1.43,2.436,2.019,4.4,1.434-.269-.538-.468-.9-.637-1.27-.854-1.946-2.029-3.823-2.483-5.86-.741-3.32,1.638-5.41,4.98-4.746.858.169,1.734.256,2.6.382.1-.278.208-.55.316-.824-1.062-.5-2.158-.945-3.168-1.535-.516-.3-1.192-.836-1.227-1.309-.03-.429.624-1.058,1.123-1.348a5.821,5.821,0,0,1,6.87.2c1.283.928,2.735,1.621,4.425,2.6.147-2.241-1.257-2.652-2.275-3.29-1.578-.984-3.39-1.738-3.1-4.1.061-.512-.03-1.266.255-1.465a2.809,2.809,0,0,1,1.729-.26,5.188,5.188,0,0,1,1.426.607c.3-1.392.559-2.618.919-4.309,2.64,1.257,4.98,2.375,7.429,3.542-.758.97-1.187,1.521-1.933,2.484a28.18,28.18,0,0,0,3.467.789,1.733,1.733,0,0,0,1.422-.646c.173-.338-.126-1.071-.425-1.479-1.556-2.106-3.268-4.031-5.856-4.949a12.8,12.8,0,0,1-2.193-1.439c2.328-1.708,4.369-3.155,6.358-4.672,1.643-1.257,1.578-2-.161-3.034-.333-.2-.689-.369-1.365-.729,1.361-1.126,2.471-2.045,3.94-3.268a23.791,23.791,0,0,0-2.466-.835c-1.322-.283-2.336-.825-2.349-2.358-.017-1.747,1.378-1.808,2.57-2a6.608,6.608,0,0,1,1.617.143c1.452-2.081,1.452-2.081,4.317.815-1.361,1.886-.737,3.186,1.361,3.927,1.153.408,1.183,1.093.6,2.011-.291.455-.52.945-.836,1.526,1.946.52,4.5.572,2.466,3.576-.1.147.529,1.131.771,1.113,2.415-.182,3.3.9,2.644,3.6,3.177-1.135,3.225,1.292,3.763,2.987,1.1.082,2.007.152,2.852.213.251.81.451,1.451.65,2.1.125-.16.247-.325.373-.485,3.285.945,6.878,1.239,9.042,4.924a7.051,7.051,0,0,1,1.278-1.734,3.078,3.078,0,0,1,2.072-.71,3.229,3.229,0,0,1,1.625,1.474,18.683,18.683,0,0,1,1.2,2.631c.286-.9.516-1.816.88-2.674.2-.469.715-1.213.945-1.166a2.723,2.723,0,0,1,1.4,1.01,7.238,7.238,0,0,1,.763,1.608c.806-1.27,1.339-3.025,2.154-3.168.984-.169,2.211,1.022,3.346,1.634.858-3.181.919-3.221,5.9-3.555-.5-3.593,2.332-1.651,3.905-2.106v-2.522c1.772-.992,3.307-1.847,4.785-2.67-.173-.858-.3-1.47-.434-2.124.754-.3,1.392-.564,2.033-.82-.074-.732-.139-1.344-.2-2.012.875-.108,1.63-.2,2.146-.26-.308-1.4-1.162-2.96-.7-3.862s2.224-1.157,2.891-1.456c-.559-1.56-1.69-3.2-1.266-3.927.572-.967,2.349-1.223,4.122-2.012-1.1-.5-1.7-.811-2.336-1.053-1.751-.681-2.224-1.7-1.006-3.06,1.6-1.777,1.929-3.107-.637-4.131.468-.85.845-1.53,1.227-2.219-3.585-1.651-3.585-1.656-.893-5.284-2.462-.589-2.414-.6-3.034-3.52-.087-.411-.858-.827-1.383-.962-2.934-.732-3.259-1.274-2.393-4.213a5.055,5.055,0,0,0,.013-1.205,7.514,7.514,0,0,1-2.193.533c-.559-.039-1.582-.646-1.547-.832.473-2.32-1.725-2.805-2.631-4.252-4.863,3.6-3.077-1.643-4.516-4-.785,1.464-1.327,2.474-1.95,3.64-1.894-2.18-3.416-3.2-5.735-1.681-1.235.811-2.345-.062-2.774-1.47-.2-.642-.3-1.313-.446-1.972-.161-.04-.321-.074-.481-.113-.485.958-.971,1.912-1.417,2.805-.741-1.86-1.11-3.746-2.146-5.133-1.214-1.621-3.272-1.694-5.188-1.166-2.761.755-3.8,3.381-2.778,6.727-1.4,1.11-1.517,3.485-3.771,3.7a22.1,22.1,0,0,0-2.345.473c-.043-1.006-.4-2.142-.056-2.986a16.8,16.8,0,0,1,2.3-3.247c-2.64-.836-3.056,1.205-3.762,2.913-.945-.413-1.721-.75-2.956-1.292.915-.421,1.27-.625,1.651-.755a8.139,8.139,0,0,0,4.993-5.032,4.365,4.365,0,0,1,3.762-3.207c3.168-.62,6.281-1.539,9.445-2.2a12.17,12.17,0,0,1,3.884-.177c2.41.294,4.846,1.347,7.173,1.122,3.68-.351,7.282-1.5,10.688-2.259a11.434,11.434,0,0,1,.212-2.652c.438-1.278,1.209-2.444,1.625-3.727a3.17,3.17,0,0,1,2.406-2.4,5.139,5.139,0,0,0,2.345-2.254c.932-1.435,1.881-2.054,3.563-1.175a19.907,19.907,0,0,0,3.25,1.019c-.108,2.679-1.786,6.527,2.761,8.1A5,5,0,0,0,3133.941,5664.239Zm-311.765-53h0c-.156-.008-.312-.013-.468-.017-.546-.025-1.11-.047-1.738-.077-.36-.018-.741-.035-1.153-.052-.312-.013-.642-.026-.992-.043.048-.048.1-.1.139-.148l.035-.035c.082-.087.156-.169.225-.251.039-.047.083-.09.122-.138.082-.091.156-.182.226-.265.052-.065.1-.125.156-.182.083-.1.16-.182.234-.255-.037.034-.074.074-.113.117h0c.039-.043.078-.082.113-.117.186-.191.342-.3.49-.291a14.744,14.744,0,0,1,2.947.875h0C2822.324,5610.657,2822.25,5610.952,2822.176,5611.242Zm31.147-1.152a1.522,1.522,0,0,1-.03.156.3.3,0,0,1-.026.083.35.35,0,0,1-.039.1.675.675,0,0,1-.047.1.626.626,0,0,1-.056.1.589.589,0,0,1-.065.091.725.725,0,0,1-.047.057,1.1,1.1,0,0,1-.221.2.938.938,0,0,1-.195.129,2.232,2.232,0,0,1-.221.113,1.245,1.245,0,0,1-.2.079s0,0-.008,0a.514.514,0,0,1-.113.04,1.69,1.69,0,0,1-.226.065,4.046,4.046,0,0,1-.611.117,1.662,1.662,0,0,1-.208.026c-.152.017-.308.03-.477.04-.069,0-.143.008-.212.008-.1.005-.216.009-.329.009-.958-.525-2.583-1.387-4.166-2.328a.422.422,0,0,1-.056-.043s0,0-.009-.014-.031-.039-.048-.056-.026-.047-.039-.069l-.039-.078a.534.534,0,0,1-.03-.087.361.361,0,0,1-.026-.1.032.032,0,0,1-.009-.026c-.017-.082-.03-.165-.039-.247a1.225,1.225,0,0,1,0-.247c0-.048.013-.091.022-.139a1.9,1.9,0,0,1,.073-.2,1.611,1.611,0,0,1,.147-.259c.03-.043.061-.087.1-.13a1.681,1.681,0,0,1,.147-.169c.043-.047.091-.1.143-.143s.113-.1.173-.148.1-.083.156-.125a.2.2,0,0,0,.03-.022c.065-.047.134-.1.2-.138s.108-.074.169-.108c.1-.057.2-.113.295-.166l.156-.077c.125-.065.255-.122.386-.178.074-.03.147-.061.221-.086a.815.815,0,0,1,.122-.043c.134-.048.273-.091.408-.13.1-.03.212-.057.316-.078s.208-.044.308-.061.208-.03.312-.039a.191.191,0,0,1,.048,0,.251.251,0,0,1,.056,0,3.778,3.778,0,0,1,.446,0,.655.655,0,0,1,.13.013c.065.008.125.021.186.03a1.633,1.633,0,0,1,.369.122.694.694,0,0,1,.078.044.014.014,0,0,1,.009,0,1.152,1.152,0,0,1,.169.117,12.969,12.969,0,0,1,1.092,1.041,6.643,6.643,0,0,1,.481.576v0a5.043,5.043,0,0,1,.4.615c.039.07.073.139.1.2v0c.065.139.122.269.169.394q.045.118.078.235c.017.057.03.108.043.165a2.076,2.076,0,0,1,.061.5A1.055,1.055,0,0,1,2853.323,5610.089Zm45.736,30.406h0a.24.24,0,0,1-.061.039s-.009.008-.013.008l-.078.03a.154.154,0,0,1-.048.018c-.052.013-.108.031-.173.048-.035.009-.069.013-.108.021s-.074.014-.117.021a.035.035,0,0,1-.021,0c-.2.035-.446.069-.732.1-.122.018-.247.031-.377.043s-.273.022-.416.04c-.217.017-.447.034-.694.056-.49.039-1.036.073-1.625.108l-.538.026a.527.527,0,0,1-.078,0c-.3.017-.62.03-.945.047-1.318.061-2.8.108-4.365.148-.26,0-.521.012-.785.021s-.533.013-.8.017c-.395.008-.8.017-1.2.022-.247,0-.5.008-.75.008-.173,0-.351.009-.529.009-.719.013-1.439.017-2.167.021-.286,0-.572,0-.863,0-.221,0-.437,0-.654,0-.815,0-1.63,0-2.432,0-.542,0-1.075,0-1.6-.009-.295,0-.585-.009-.875-.009-.23,0-.464,0-.689-.008l-.685-.013c-.229,0-.455,0-.676-.013l-.655-.013q-.825-.019-1.612-.043c-.2-.009-.412-.013-.611-.021h-.008c-.187-.009-.373-.013-.559-.021h0s-.008,0-.008,0h0a.019.019,0,0,1-.021,0c-.152,0-.3-.013-.442-.018-.39-.013-.767-.031-1.127-.052-.134-.009-.264-.013-.4-.022-.178-.008-.351-.016-.524-.03-.251-.018-.5-.035-.737-.047-.4-.026-.771-.057-1.114-.091l-.4-.04c-.36-.04-.681-.078-.967-.122-.039,0-.078-.009-.117-.017-.056-.009-.108-.017-.156-.026-.125-.021-.243-.043-.347-.064a2.973,2.973,0,0,1-.377-.091,2.246,2.246,0,0,1-.273-.1s0,0-.009,0h35.581Zm23.571.316c-.048.069-.091.135-.13.2a1.705,1.705,0,0,1-.342.394.56.56,0,0,1-.083.061.855.855,0,0,1-.087.044c-.035.012-.069.025-.1.035a.731.731,0,0,1-.1.021,1.183,1.183,0,0,1-.182.013.719.719,0,0,1-.1,0c-.035,0-.069,0-.1,0-.069-.009-.147-.017-.23-.03-.065-.008-.134-.021-.212-.035-.187-.03-.4-.078-.654-.129-.143-.031-.295-.065-.464-.1-.069-.014-.143-.026-.217-.044a33.784,33.784,0,0,0-3.905-.352c.459-.315.624-.528.776-.52,2.063.091,4.122.217,6.211.334C2922.682,5640.733,2922.656,5640.772,2922.63,5640.812Zm29.474-25.2c-.2-.169-.4-.338-.615-.512-.416-.342-.854-.706-1.331-1.1-1.643,1.6-3.528,1.759-5.47-.147-.824-.807-1.387-.342-1.673.66-.234.806-.563,1.581-.845,2.37-.316-.139-.625-.282-.941-.42,1.041-2.138,2.081-4.275,3.225-6.624h0c-.563.108-1.14.216-1.851.347-.394.069-.828.151-1.322.247-.122.021-.247.048-.377.07-.083.012-.161.025-.243.043.165-.282.321-.555.477-.828s.312-.537.464-.8c.308-.529.6-1.044.9-1.56.074-.131.147-.256.226-.386.147-.26.3-.52.451-.78.1-.182.212-.369.321-.56.273-.473.555-.958.845-1.46a0,0,0,0,0,0,0c.9,1.148,1.729,2.206,2.666,3.4a7.36,7.36,0,0,1,1.218-.031c.1.008.191.018.282.031s.178.03.265.047a2.393,2.393,0,0,1,.333.091,1.133,1.133,0,0,1,.161.061,2.528,2.528,0,0,1,.563.32.769.769,0,0,1,.065.048,2.206,2.206,0,0,1,.191.164,1.594,1.594,0,0,1,.151.152c.009.012.022.021.031.035a1.66,1.66,0,0,1,.112.134,3.022,3.022,0,0,1,.221.29,3.684,3.684,0,0,1,.221.36,1.771,1.771,0,0,1,.108.2,2.593,2.593,0,0,1,.143.291c.048.1.1.2.143.313.187.429.369.927.551,1.491.1.32.208.662.312,1.031.074.256.147.516.212.78.047.19.1.382.139.582.03.129.057.259.083.4.013.053.021.108.03.165.021.113.039.225.052.338.025.156.043.312.056.477.026.243.039.5.047.767Zm32.695,23.2a3.469,3.469,0,0,1-.495-.226c-.082-.043-.169-.1-.251-.147a5.062,5.062,0,0,1-.5-.346,9.875,9.875,0,0,1-1.7-1.7c-.208-.264-.412-.537-.607-.823-.16-.234-.312-.472-.459-.715a0,0,0,0,1,0,0c-.191-.325-.373-.659-.542-.992a11.388,11.388,0,0,1-.889-2.363c-.03-.138-.061-.272-.086-.407s-.043-.248-.061-.373a.064.064,0,0,1,0-.039c-.017-.121-.03-.247-.039-.364a4.385,4.385,0,0,1,.091-1.3v-.013c.221.4.446.79.667,1.184.893,1.582,1.794,3.178,2.726,4.824.7,1.235,1.417,2.5,2.159,3.814Zm108.364-4.3c-1.045.459-1.942.85-2.835,1.244l-.6-.585c.056-.108.117-.217.182-.325l.392-.71c.023-.044.049-.091.074-.136.073-.133.148-.269.227-.415a0,0,0,0,1,0,0c.113-.2.234-.42.36-.654a0,0,0,0,1,0,0c.173-.312.364-.654.581-1.044.438.72.746,1.218,1.1,1.79.083.139.169.277.26.429.047.074.1.152.143.23.039.061.078.121.117.186ZM2775.516,5712.6q.033-.306.065-.612c.459.087.915.173,1.378.265.347.069.693.134,1.044.2s.7.134,1.058.2c.711.135,1.439.277,2.184.421C2779.912,5714.1,2778.724,5713.967,2775.516,5712.6Zm10.338,2.063c-.069.061-.134.113-.2.16s-.1.069-.139.1c-.026.018-.048.036-.069.048a.261.261,0,0,1-.065.039,1.287,1.287,0,0,1-.134.069.762.762,0,0,1-.13.052,1.2,1.2,0,0,1-.342.056,1.472,1.472,0,0,1-.19,0,4.374,4.374,0,0,1-.85-.2c-.156-.052-.33-.113-.524-.182-.082-.031-.165-.061-.251-.1l-.88-.338c.013-.221.03-.438.048-.659v0l.992.13c1,.13,2.033.265,3.195.412C2786.145,5714.406,2785.993,5714.54,2785.854,5714.661Zm23.692,35.012c.013.025.024.05.038.076-.009-.018-.016-.036-.025-.053Zm7.146-6.4c-.3,1.443-.854,2.83-1.174,4.27a13.392,13.392,0,0,0-.308,2.965c0,.369.035.736.073,1.113.026.247.061.5.1.763s.074.52.108.793c.017.134.035.273.052.412-1.968.173-3.437-.2-4.495-1.318a5.063,5.063,0,0,1-.459-.568,3.431,3.431,0,0,1-.208-.329,6.823,6.823,0,0,1-.373-.737c-.159-.364-.336-.721-.522-1.076-.137-.266-.283-.53-.431-.792-.585-1.032-1.249-2.072-1.9-3.225a10.731,10.731,0,0,0,1.014-.359,8.712,8.712,0,0,0,.919-.442,6.98,6.98,0,0,0,1.188-.832,6.181,6.181,0,0,0,2.016-3.88.674.674,0,0,1,.238-.346,1.437,1.437,0,0,1,.173-.134,1.505,1.505,0,0,1,.2-.122h0a1.6,1.6,0,0,1,.208-.1h0a1.306,1.306,0,0,1,.208-.073,1.086,1.086,0,0,1,.291-.047,2.684,2.684,0,0,1,1.687.923c.043.039.082.083.125.13s.078.086.121.13c.078.091.156.187.23.282A3.647,3.647,0,0,1,2816.693,5743.272Zm-.516-15.513q-3.673.124-7.347.255c-.009-.2-.018-.4-.026-.606q9.447-.359,18.9-.721h0c.026.222.056.442.083.664Q2821.983,5727.553,2816.177,5727.76Zm28.534,7.173c-.178-.069-.33-.129-.459-.19-.039-.017-.074-.039-.108-.056a.324.324,0,0,1-.052-.031c-.03-.018-.061-.039-.091-.057a1.185,1.185,0,0,1-.178-.151c-.022-.022-.043-.048-.065-.074a.064.064,0,0,1-.026-.034c-.03-.04-.056-.083-.086-.126,0,0,0,0,0,0a3.534,3.534,0,0,1-.321-.888,4.781,4.781,0,0,0,.194.622l-.042-.1c-.052-.143-.1-.316-.152-.519-.017-.074-.039-.152-.056-.239-.03-.135-.061-.278-.091-.438q-.064-.358-.143-.806v0q-.045-.3-.1-.641c-.018-.09-.031-.182-.044-.273-.03-.182-.061-.373-.091-.576-.039-.234-.078-.486-.117-.75v0a7.577,7.577,0,0,1,1.244.516C2845.733,5731.063,2845.894,5732.458,2844.711,5734.933Zm-5.336-8.174c0-.078,0-.156,0-.235h10.376c0,.079,0,.157,0,.235Zm41.931-19.848a.983.983,0,0,0,.017-.117c3.091.239,6.177.478,9.5.732-.39.463-.772,1.1-1.127,1.557-.043.057-.091.108-.135.16s-.1.1-.139.148c-.03.026-.061.057-.091.078s-.065.048-.1.07a.571.571,0,0,1-.1.052.35.35,0,0,1-.195.043c-1.11-.065-2.15-.945-3.264-1.374a2.288,2.288,0,0,0-.243-.083c-.1-.03-.187-.061-.282-.087s-.19-.051-.29-.074-.191-.043-.291-.061-.2-.039-.295-.056c-.186-.039-.381-.069-.572-.095-.1-.018-.19-.036-.286-.048-.265-.042-.532-.072-.8-.1l-.018,0-.273-.025c-.182-.018-.369-.031-.551-.048l-.546-.052C2881.254,5707.323,2881.28,5707.119,2881.306,5706.911Zm1.764.8c-.128-.019-.256-.033-.384-.046C2882.814,5707.68,2882.942,5707.7,2883.07,5707.712Zm-53.794,13.91c-1.469.286-2.938.572-4.8.932,0,0-.052-.065-.147-.182-.026-.039-.061-.079-.1-.126-.026-.03-.047-.061-.073-.091-.156-.2-.377-.472-.655-.814l0,0c.26-.013.516-.03.767-.043.429-.021.841-.042,1.245-.069.1-.008.208-.013.312-.018.243-.013.486-.026.72-.043.91-.052,1.773-.1,2.631-.152h.039c.022.2.043.407.069.611Zm8.769-2.188c-1.764.138-3.537.272-5.47.425.676-.316,1.14-.533,1.773-.833-.511-.373-.875-.638-1.578-1.153,1.235-.36,2.3-1.062,3.03-.806a.6.6,0,0,0,.1.03l.1.026a1.275,1.275,0,0,0,.187.039,1.258,1.258,0,0,0,.191.026c.082.009.165.017.251.021.108.009.221.018.333.018.069,0,.139,0,.208.008.16,0,.325.009.49.018.1,0,.2.009.291.017a.093.093,0,0,0,.035,0c.074.009.143.017.216.03s.161.027.243.044a1.2,1.2,0,0,1,.147.043,1.46,1.46,0,0,1,.2.069,1.35,1.35,0,0,1,.182.091c.03.017.061.035.086.052s.057.039.087.062a.965.965,0,0,1,.16.147.745.745,0,0,1,.061.064,1.064,1.064,0,0,1,.108.148,1.768,1.768,0,0,1,.1.168c.013.026.026.056.039.083a.923.923,0,0,1,.065.178c.022.065.039.13.056.2a2.039,2.039,0,0,1,.057.3c.008.052.013.108.017.165s.009.117.013.178C2839.224,5719.342,2838.634,5719.385,2838.044,5719.434Zm.438-3.463a2.041,2.041,0,0,1-.607-.062c-.225-.056-.446-.134-.667-.211-.057-.018-.108-.039-.165-.057-.126-.042-.248-.083-.373-.117-.1-.025-.195-.052-.291-.074a.042.042,0,0,0-.021,0c-.052-.013-.1-.021-.156-.03a2.348,2.348,0,0,0-.29-.048c-.083-.013-.165-.021-.247-.026-.126-.008-.251-.013-.373-.013-.061,0-.122,0-.182,0a3.141,3.141,0,0,0-.537.061,3.5,3.5,0,0,0-.36.082,2.788,2.788,0,0,0-.369.123,2.742,2.742,0,0,0-.316.133,2.632,2.632,0,0,0-.282.147,1.111,1.111,0,0,0-.121.073.771.771,0,0,0-.147.1,1.184,1.184,0,0,0-.16.108c-.078.056-.156.117-.23.177-.013.087-.026.174-.035.265-.021.147-.035.3-.052.455-.013.122-.026.247-.035.369s-.021.212-.034.312a5.282,5.282,0,0,1-.087.568,1.089,1.089,0,0,1-.056.16.149.149,0,0,1-.035.048.086.086,0,0,1-.039.022c-.151.021-.3.043-.459.056-.308.031-.62.048-.945.057-.837.018-1.747-.021-2.8-.021.81-.594,1.43-1.045,1.972-1.444.161-.117.316-.234.473-.342s.3-.221.451-.329c-.4-.5-.8-1.01-1.292-1.639,4.707-.221,9.548-.451,14.39-.68.026-.191.052-.378.078-.569h0c-3.65-1.582-7.65-.714-11.534-.88.121-.126.234-.255.347-.385.156-.174.308-.343.455-.5.04-.04.074-.078.113-.113.572-.555,1.188-.806,2.141.065a.79.79,0,0,0,.1.069.95.95,0,0,0,.269.065,4.183,4.183,0,0,0,.719-.035,5.776,5.776,0,0,1,.577-.042c4.009.03,8.019.082,12.028.073.364,0,.728-.008,1.1-.026.733-.035,1.465-.091,2.193-.144.364-.025.732-.051,1.1-.073.026.226.048.451.074.676h0q-3.836.409-7.672.815c.009.186.013.373.022.563l5.023.637c.039.1.078.2.121.291h0c-.55.087-1.1.187-1.656.278-.355.06-.71.112-1.066.16-.147.021-.294.039-.446.052a1.445,1.445,0,0,1-.152.017Q2843.2,5715.627,2838.482,5715.97Zm61.986,3.338c-1.075-.009-2.15-.208-3.229-.222-8.5-.1-17-.217-25.5-.234-2.41,0-4.816.417-7.226.42h-.018c-.1,0-.186,0-.281-.008s-.2-.013-.3-.026-.2-.021-.3-.039-.2-.031-.3-.052c-.312-.061-.624-.134-.936-.212h0l-.468-.117c-.277-.065-.555-.134-.832-.186-.057-.014-.117-.026-.178-.035s-.117-.022-.178-.03a2.444,2.444,0,0,0-.59-.013l-.112.013a1.7,1.7,0,0,0-.208.03c-.1.013-.191.035-.282.056s-.178.043-.265.069l0,0a9.547,9.547,0,0,1-2.258.793c-5.141.074-10.281.04-15.487.04-.021-.151-.034-.3-.052-.442-.018-.208-.035-.408-.065-.6-.017-.126-.039-.247-.065-.364-.018-.061-.035-.117-.052-.173a2.215,2.215,0,0,0-.126-.278,2.076,2.076,0,0,0-.169-.255c-.061-.087-.125-.169-.186-.256s-.126-.165-.182-.251a5.33,5.33,0,0,1,1.435-.442c2.415-.034,4.829-.061,7.243.031q.338.012.676.039c.451.035.9.083,1.348.139.282.035.563.065.845.1s.563.064.845.091c.451.043.9.078,1.348.091.113,0,.226,0,.338,0q3.778.007,7.559-.03c2.171-.013,4.347-.035,6.523-.047.646-.009,1.292-.009,1.942-.014.819,0,1.634-.008,2.449-.008.724,0,1.452,0,2.176,0,.238,0,.477,0,.715.013q.3.007.6.026c.2.009.4.021.594.035.316.018.637.043.954.07s.637.056.954.082c1.287.108,2.57.221,3.853.217.087,0,.174,0,.26,0s.173-.009.26-.018c.174-.017.347-.039.525-.064.871-.138,1.781-.412,2.8-.654.2-.052.412-.1.628-.144.269.169,1.027.655,1.929,1.231.013-.113.021-.221.034-.326s.018-.2.03-.29c.03-.295.057-.533.078-.75.013-.117.021-.229.035-.333.009-.061.013-.117.022-.178v0c.113.043.225.1.333.146.212.1.425.2.637.27a2.025,2.025,0,0,0,.217.064,1.272,1.272,0,0,0,.178.039,17.79,17.79,0,0,0,2.991.325c1.149,0,2.306-.074,3.455-.13.459-.021.915-.038,1.374-.047.732-.018,1.46-.014,2.188.039.451.031.9.065,1.348.1.893.074,1.786.165,2.674.264,2.232.247,4.456.55,6.679.871l.139.025a1.524,1.524,0,0,1,.208.065c.056.021.113.048.169.074a1.807,1.807,0,0,1,.165.086c.057.035.108.07.16.108a.869.869,0,0,1,.126.1.892.892,0,0,1,.122.1,2.133,2.133,0,0,1,.2.195,3.3,3.3,0,0,1,.221.247,5.275,5.275,0,0,1,.382.564C2909.211,5719.316,2904.842,5719.333,2900.468,5719.308Zm28.533-.057a33.211,33.211,0,0,1-3.706.16c-1.421-.091-2.835-.333-4.248-.537-.2-.031-.4-.061-.607-.087a.423.423,0,0,1-.069-.008c-.134-.021-.3-.053-.351.008-.065.083-.134.161-.2.23s-.109.121-.161.173a3.579,3.579,0,0,1-.4.352,1.66,1.66,0,0,1-.156.1.106.106,0,0,1-.03.017,1.176,1.176,0,0,1-.156.083.8.8,0,0,1-.165.069,1.049,1.049,0,0,1-.16.048l-.147.026c-.052,0-.1.009-.143.009a1.019,1.019,0,0,1-.2-.017.955.955,0,0,1-.19-.043,1.546,1.546,0,0,1-.19-.07c-.044-.021-.091-.042-.135-.069a1.176,1.176,0,0,1-.122-.07,2.792,2.792,0,0,1-.281-.19c-.117-.1-.23-.19-.343-.291a8.747,8.747,0,0,0-1.387-1.145c.021-.2.039-.4.056-.6q6.742.573,13.484,1.149c0,.23,0,.464.009.7Zm1.751-3.151h-6.315c-.031-.152-.057-.3-.087-.456h6.4Zm9.254,1.114h0l-7.156-.456-.013-.4h7.208C2940.028,5716.642,2940.02,5716.928,2940.007,5717.214Zm17.316,2.41c.013-.23.03-.459.043-.689.226-.078.451-.139.676-.194.191-.048.382-.087.572-.117.074-.013.143-.026.217-.036.1-.013.2-.025.295-.034.19-.021.377-.035.563-.043.065,0,.13,0,.195,0q.208-.007.416,0c.069,0,.13,0,.2,0s.117,0,.173.009l.169.013c.134.009.269.021.4.039.1.009.208.022.308.04.208.026.416.061.62.1.1.017.2.04.308.061.165.035.329.07.49.108.052.009.1.022.152.035.113.026.225.056.333.087h0c.672.173,1.339.381,2.007.6-.017.208-.03.417-.048.62,0,.017,0,.03,0,.048Q2961.369,5719.946,2957.323,5719.624Zm52.949,7.814c-.087.083-.173.161-.256.239s-.16.134-.238.195-.135.1-.2.152a2.634,2.634,0,0,1-.229.156,2.5,2.5,0,0,1-.23.143,1.521,1.521,0,0,1-.16.091c-.113.061-.226.113-.338.16-.065.03-.13.057-.2.083a2.3,2.3,0,0,1-.277.1,1.392,1.392,0,0,1-.186.052,4.4,4.4,0,0,1-.911.161c-.061,0-.117.013-.178.013h-.026c-.1,0-.2.01-.3.01-.117,0-.234,0-.351-.014-.052,0-.1,0-.156-.009-.091,0-.182-.009-.269-.021s-.182-.018-.273-.031-.182-.022-.273-.035-.182-.026-.273-.043c-.178-.031-.36-.065-.542-.1-.144-.025-.291-.057-.434-.087l-.884-.182c-.165-.035-.334-.064-.5-.091-.434-.073-.867-.134-1.3-.182-.134-.017-.269-.031-.4-.043l-.576-.053-.767-.051c-.26-.013-.516-.026-.776-.035-.6-.026-1.205-.04-1.8-.048-.689-.018-1.378-.026-2.063-.039l-.8-.013q-.728-.012-1.456-.017c-.373,0-.741,0-1.114,0-2.6-.013-5.262.018-8.127.018.043-.13.086-.252.129-.36.061-.173.117-.325.165-.459.022-.061.043-.121.065-.177.139-.395.229-.646.3-.849l.026-.065h0c-1.187-.161-2.375-.308-3.563-.451-2-.242-3.992-.464-5.981-.7q-.995-.116-1.989-.238-1.228-.152-2.454-.314l-.023,0q-1.222-.162-2.438-.341c.639.1,1.279.184,1.918.271-.23-.032-.462-.062-.692-.094-.407-.057-.819-.118-1.227-.177h0c-.819-.126-1.634-.252-2.444-.391-.3-.052-.611-.1-.915-.16l-.2-.04c.373.067.746.137,1.119.2-.4-.067-.79-.141-1.184-.213-.824-.151-1.649-.309-2.47-.48-.4-.087-.806-.174-1.209-.265l-1.209-.285c-.4-.1-.8-.2-1.2-.308.026-.212.052-.421.078-.632q6.54.721,13.081,1.447t13.1,1.452q13.121,1.456,26.349,2.917h0C3010.437,5727.278,3010.354,5727.361,3010.272,5727.438Zm-37.285-8.6c.286.031.563.061.841.086,1.231.126,2.371.243,3.476.36.611.065,1.214.126,1.816.186h0c.061.273.122.542.182.815h0c-1.127.386-2.332,1.209-3.355,1.027a1.953,1.953,0,0,1-.2-.052,1.155,1.155,0,0,1-.151-.061,1.443,1.443,0,0,1-.243-.13c-.061-.039-.126-.082-.191-.129s-.139-.108-.212-.169a13.058,13.058,0,0,1-.966-.949q-.169-.182-.351-.365c-.069-.069-.139-.143-.212-.212C2973.282,5719.108,2973.139,5718.969,2972.987,5718.835Zm10.888,1.924h0v0c.832.061,1.66.117,2.479.173,3.272.23,6.441.447,9.562.664,2.34.16,4.655.32,6.974.48-.018.256-.03.511-.043.767l-.191-.021c-.065-.008-.13-.013-.195-.018l-.39-.039-.512-.053h0c-.125-.017-.251-.034-.377-.056s-.255-.048-.381-.078c-3.194-.789-6.263.091-9.41.455-.125.017-.247.026-.373.035h-.018c-.086,0-.173.009-.26.009a6.538,6.538,0,0,1-.711-.014q-.26-.012-.52-.039c-.065,0-.13-.013-.2-.021-.109-.014-.221-.026-.33-.043-.16-.022-.325-.049-.49-.079-.135-.021-.273-.047-.408-.073-.273-.053-.546-.108-.823-.169-.243-.052-.486-.1-.729-.161-.364-.082-.732-.165-1.1-.242-.239-.053-.481-.1-.72-.14h0a.132.132,0,0,1-.056-.026.482.482,0,0,1-.057-.043.411.411,0,0,1-.073-.1c-.1-.155-.221-.412-.408-.75-.043-.086-.1-.178-.152-.272C2983.932,5720.859,2983.906,5720.808,2983.875,5720.759Zm31.364-.429c-1.114-.1-2.224-.2-3.333-.3-.225-.018-.446-.039-.667-.06-.888-.087-1.772-.166-2.661-.243l-.628-.053c-.36-.03-.72-.056-1.08-.082s-.715-.053-1.07-.073c-.412-.027-.819-.053-1.231-.074-1.695-.087-3.394-.134-5.088-.173-1.271-.03-2.544-.052-3.819-.086-.425-.014-.85-.023-1.274-.04-1.131-.034-2.263-.083-3.394-.151-3.077-.187-6.133-.767-9.206-1.084q-4.109-.423-8.222-.819c-2.739-.269-5.479-.533-8.218-.811q-2.744-.279-5.479-.581c-3.061-.338-6.068-1.14-9.128-1.439-9.367-.915-18.746-1.651-28.113-2.54-3.125-.3-6.216-.971-9.341-1.253-.819-.074-1.634-.13-2.453-.174s-1.639-.077-2.458-.108h0l-1.226-.047-.621-.026-.265-.01c-.526-.022-1.052-.045-1.577-.073.393.023.785.039,1.176.056-.163-.006-.326-.012-.487-.021-.229-.009-.459-.022-.689-.035-.308-.013-.62-.035-.928-.056-.1-.008-.2-.017-.3-.022a2.242,2.242,0,0,1-.412-.069h0c-.091-.025-.178-.057-.269-.087-.061-.021-.121-.047-.186-.074-.122-.051-.243-.108-.369-.169-.108-.052-.217-.108-.325-.16s-.221-.109-.33-.16c-.047-.022-.091-.044-.134-.061s-.087-.039-.135-.061c.065-.22.13-.442.195-.662a4.67,4.67,0,0,1,1.17-.217q5.091.448,10.182.923c.845.079,1.695.156,2.544.229q2.543.235,5.089.456,1.274.117,2.549.221c3.52.3,7.039.577,10.559.854s7.039.55,10.554.837c2.15.177,4.3.391,6.428.676.113.013.221.031.33.048s.217.03.325.047.221.035.329.048c.134.022.265.039.4.057s.264.03.4.043a7.079,7.079,0,0,0,1.417.013.474.474,0,0,0,.1-.013c.082-.009.169-.022.255-.04s.156-.03.234-.047.165-.04.247-.062c.052-.013.109-.03.161-.047.1-.031.187-.062.282-.1a.488.488,0,0,0,.078-.031c.083-.03.16-.065.243-.1,1.109-.507,2.774.251,4.2.346.989.065,1.981.126,2.969.182,2.969.173,5.942.325,8.912.508q1.326.078,2.64.168.825.053,1.651.118c.767.057,1.539.117,2.306.182.875.074,1.755.152,2.631.239,3.523.346,6.935,1.807,10.459,2.184,4.122.438,8.231,2.289,12.466.563a1.9,1.9,0,0,1,1.044-.061c.386.082.776.16,1.162.239,1.157.238,2.314.476,3.472.728.386.083.771.165,1.157.251.771.165,1.539.338,2.306.516l1.153.273c.581.143,1.049.759,1.569,1.157C3015.382,5720,3015.309,5720.161,3015.239,5720.33Zm111.883-93.913,3.754-1.5c.113.278.229.551.342.828-1.2.56-2.41,1.114-3.615,1.673C3127.443,5627.089,3127.283,5626.751,3127.123,5626.417Z" transform="translate(-2654.079 -5529.388)" fill="#474747"/>
  <path id="Path_713" data-name="Path 713" d="M2616.13,5746.065q-8.453-.026-16.9,0c-2.718.009-3.905,1.214-4.009,3.966-.031.793,0,1.6-.091,2.38-1.149,9.8-6.844,16.574-17.2,16.258-6.255-.19-12.5-.979-18.738-1.595-7.6-.749-15.17-1.946-22.786-2.319A15.891,15.891,0,0,0,2519.854,5781a16.051,16.051,0,0,0,17.381,15.882c8.981-.745,17.914-2,26.882-2.891a139.163,139.163,0,0,1,15.526-1.027,14.239,14.239,0,0,1,12.063,6.563,22.061,22.061,0,0,1,3.541,12.063c.082,2.83,1.205,3.861,4.044,3.87q8.231.032,16.462,0c3.632-.014,4.664-1.106,4.664-4.819v-29.9q0-15.168,0-30.332C2620.4,5747.239,2619.242,5746.074,2616.13,5746.065Zm-71.184,39.707c-.056.183-.117.364-.187.542-.03.087-.065.169-.1.256l-.039.091c-.044.1-.091.191-.139.286-.065.126-.134.256-.2.377-.113.2-.239.391-.373.581a8.725,8.725,0,0,1-1.968,1.989q-.189.144-.39.273c-.134.091-.273.178-.412.256q-.163.1-.325.182c-.1.057-.208.112-.316.161,0,0-.009.008-.013.008-.108.052-.217.1-.325.148s-.2.082-.295.12a.03.03,0,0,1-.022.009q-.221.085-.442.156c-.143.048-.29.091-.438.13-.126.035-.256.065-.386.091-.095.022-.195.044-.29.057s-.195.035-.291.048c-.156.021-.312.039-.472.052a10.577,10.577,0,0,1-1.573,0,2.81,2.81,0,0,1-.291-.026c-.074-.009-.143-.013-.217-.025-.108-.009-.212-.025-.316-.043-.13-.022-.256-.044-.386-.07s-.234-.047-.347-.077-.243-.062-.364-.1-.239-.069-.355-.108c-.061-.018-.117-.039-.173-.061-.143-.048-.286-.1-.425-.161-.065-.025-.13-.052-.2-.082-.191-.082-.373-.169-.555-.264-.061-.031-.121-.064-.178-.1a4.241,4.241,0,0,1-.395-.233c-.052-.035-.108-.069-.165-.1a6.229,6.229,0,0,1-.65-.477c-.091-.069-.178-.143-.265-.222a8.006,8.006,0,0,1-.884-.909c-.052-.062-.1-.122-.147-.183-.087-.108-.169-.217-.247-.334a8.657,8.657,0,0,1-.676-1.136c-.048-.1-.1-.2-.143-.308l-.13-.312a4.013,4.013,0,0,1-.152-.4c-.069-.2-.13-.411-.191-.624s-.1-.429-.147-.65c.135.217.269.425.412.624s.286.4.434.59l0,0c.148.186.3.372.455.55.082.1.165.183.247.27s.16.168.243.251c.164.169.333.329.507.477s.343.295.52.438c.091.068.182.138.273.2a10.946,10.946,0,0,0,1.11.711c.143.078.286.151.429.226s.29.139.438.2a8.991,8.991,0,0,0,1.5.5c.1.026.2.052.308.069.2.044.4.078.611.108l.308.039c.152.014.308.025.464.034s.308.014.459.014c.126,0,.247,0,.373-.009s.247-.014.369-.025c0,0,0,0,.009,0,.121-.009.247-.022.369-.04a1.33,1.33,0,0,0,.19-.025c.065-.009.13-.018.191-.031.126-.021.247-.047.373-.073s.247-.056.368-.087.247-.068.368-.108.243-.077.364-.121c.143-.052.291-.108.433-.169s.291-.126.429-.19c.121-.062.247-.121.368-.187s.251-.139.373-.212.247-.147.369-.229c.182-.121.355-.247.533-.377a10.232,10.232,0,0,0,.941-.814c.191-.187.377-.382.563-.585.16-.179.312-.364.464-.556.074-.095.147-.194.221-.294.061-.078.113-.156.169-.234.083-.113.16-.229.239-.352s.156-.238.23-.363c.069-.108.135-.217.2-.33,0,0,0,0,0-.009A5.919,5.919,0,0,1,2544.946,5785.772Zm-14.182-8.591q.175-.272.377-.533c.1-.126.2-.251.312-.373s.221-.238.338-.354a6.606,6.606,0,0,1,4.811-1.985,6.83,6.83,0,0,1,6.783,6.979,6.284,6.284,0,0,1-.052.7,5.848,5.848,0,0,1-.117.676,6.674,6.674,0,0,1-.182.654c-.035.1-.069.213-.113.316-.048.125-.1.256-.16.382-.039.095-.087.194-.135.286s-.082.155-.126.229a1.4,1.4,0,0,1-.1.177c-.035.062-.069.118-.1.174-.078.126-.165.252-.251.368-.043.065-.091.122-.134.183s-.091.112-.143.169a4.751,4.751,0,0,1-.446.485c-.078.078-.156.152-.234.226s-.165.147-.251.218q-.156.129-.325.246c-.1.073-.2.143-.3.208a1.129,1.129,0,0,1-.117.073c-.108.069-.221.135-.333.2-.1.052-.191.1-.291.147s-.2.095-.3.135a.781.781,0,0,1-.087.034.919.919,0,0,1-.151.062.543.543,0,0,1-.113.038,2.534,2.534,0,0,1-.269.091,1.364,1.364,0,0,1-.178.053,3.444,3.444,0,0,1-.36.091c-.087.021-.178.038-.264.053a2.9,2.9,0,0,1-.382.056c-.069.009-.139.017-.2.021-.1.009-.2.018-.3.021s-.208.01-.312.01c-.056,0-.108,0-.16,0-.143,0-.286-.009-.425-.021s-.278-.031-.416-.053l-.412-.078c-.134-.03-.269-.064-.4-.1h0c-.208-.063-.416-.134-.62-.216h0c-.121-.052-.243-.1-.36-.16-.152-.07-.3-.144-.446-.229-.091-.053-.187-.108-.278-.165s-.152-.1-.23-.151a5.845,5.845,0,0,1-.585-.442c-.065-.053-.126-.108-.191-.165l-.178-.165c-.056-.052-.113-.108-.169-.169-.074-.078-.147-.159-.221-.238a7.06,7.06,0,0,1-.8-1.092c-.069-.112-.134-.229-.2-.347a1.37,1.37,0,0,1-.091-.174c-.026-.057-.056-.117-.083-.178a6.8,6.8,0,0,1-.294-.768c-.035-.1-.065-.212-.091-.316,0,0,0,0,0-.008-.035-.135-.065-.27-.091-.4s-.048-.256-.065-.387c0-.03-.009-.064-.013-.1-.013-.113-.022-.226-.03-.338a6.319,6.319,0,0,1-.009-.638c0-.112.009-.221.018-.334.022-.217.052-.437.091-.654a5.65,5.65,0,0,1,.156-.637c.065-.209.134-.412.217-.616q.059-.149.13-.3A8.3,8.3,0,0,1,2530.764,5777.182Zm65.527-17.7c-.1.386-.208.763-.329,1.136-.061.187-.126.372-.2.555-.143.4-.3.784-.481,1.166-.056.125-.117.251-.182.377s-.126.255-.191.381c-.078.156-.16.308-.247.46-.1.187-.208.368-.321.546-.091.147-.182.295-.281.442l-.156.233c-.052.078-.1.157-.16.234s-.121.174-.186.26c-.147.205-.3.4-.455.6-.069.092-.139.183-.217.273s-.143.173-.217.255c-.186.23-.385.452-.589.673-.173.186-.351.373-.533.555-.351.351-.707.681-1.075.992-.134.117-.273.23-.412.339-.156.121-.312.243-.468.359a1.124,1.124,0,0,1-.125.091q-.221.163-.442.313a.346.346,0,0,1-.048.034c-.16.108-.321.212-.481.313-.182.112-.36.221-.542.325-.147.087-.295.169-.446.246-.3.161-.6.313-.906.456-.2.091-.408.182-.611.264-.139.058-.277.113-.42.169-.208.078-.416.156-.628.23-.191.064-.386.126-.581.182-.234.074-.468.139-.7.2-.217.057-.438.108-.655.156s-.433.091-.655.135h0c-.165.03-.334.061-.5.087s-.334.052-.5.073-.338.039-.507.061c-.212.021-.425.043-.637.061-.16.014-.321.026-.481.035a.188.188,0,0,1-.052,0q-1.235.064-2.5.013c-.385-.018-.771-.039-1.162-.074-1.083-.091-2.171-.187-3.255-.295-.949-.086-1.9-.182-2.843-.281q-1.567-.168-3.138-.343-1.749-.195-3.507-.4c-4.412-.52-8.829-1.07-13.246-1.564q-5.8-.643-11.612-1.153a20.4,20.4,0,0,0-2.323-.073c-.169,0-.343.013-.511.022-.134,0-.269.013-.4.025-.056,0-.117.009-.174.013s-.117.013-.173.018c-.169.013-.329.034-.494.056q-.3.04-.6.092c-.043,0-.086.014-.13.021-.113.018-.225.039-.334.065s-.239.047-.355.077c-.083.018-.16.035-.243.057-.147.035-.29.074-.429.112-.2.057-.39.117-.581.183-.278.091-.55.191-.819.3-.069.025-.135.052-.2.082-.1.043-.208.087-.312.139-.026.013-.052.021-.074.034a.2.2,0,0,0-.043.018c-.052.022-.1.048-.152.073a.162.162,0,0,0-.03.018c-.1.049-.208.1-.312.156-.078.039-.152.078-.226.121-.121.065-.243.135-.36.208-.1.057-.2.118-.3.183s-.226.139-.334.217c-.13.087-.26.174-.386.269a13.637,13.637,0,0,0-1.656,1.417c-.1.1-.191.2-.286.3s-.191.2-.282.3-.186.213-.277.316c-.182.217-.364.438-.542.667-.086.113-.173.23-.26.348s-.152.212-.23.316c-.182.26-.36.524-.529.8-.074.113-.143.226-.212.343-.122.191-.234.382-.343.581s-.217.39-.321.59c-.074.134-.147.272-.217.411s-.143.277-.212.421c.022-.144.048-.282.073-.425l.091-.416.1-.417a1.806,1.806,0,0,1,.056-.2c.017-.068.039-.139.061-.208a8.818,8.818,0,0,1,.325-.914c.035-.091.07-.183.108-.27v0a3.013,3.013,0,0,1,.134-.308.09.09,0,0,1,.022-.039c.048-.108.1-.217.152-.321.1-.221.221-.441.342-.654l.169-.285c.061-.1.121-.2.186-.3.086-.147.186-.291.282-.429a.238.238,0,0,1,.039-.053c.217-.312.446-.611.685-.906s.5-.576.767-.85c.13-.139.269-.268.407-.4.113-.108.225-.217.342-.312a.057.057,0,0,1,.018-.018c.069-.061.139-.122.208-.178.143-.121.286-.238.433-.352.286-.226.581-.437.888-.637.1-.069.2-.13.295-.19.238-.151.481-.291.733-.421.139-.073.277-.146.416-.217s.282-.139.421-.2c.173-.077.347-.147.52-.216.13-.052.26-.1.39-.148a.017.017,0,0,1,.013,0c.043-.017.087-.03.134-.048.351-.126.711-.229,1.071-.32.182-.044.364-.087.55-.121.139-.03.286-.057.429-.078a.231.231,0,0,1,.061-.009c.16-.025.325-.048.49-.064.07-.009.143-.018.217-.022a.528.528,0,0,1,.083-.009c.1-.013.208-.018.312-.021a.1.1,0,0,1,.035,0c.043,0,.091,0,.13,0a9.674,9.674,0,0,1,1.01,0c6.541.312,13.06,1.166,19.579,1.869,6.3.68,12.574,1.607,18.881,2.18,6.536.593,12.782-.352,17.485-5.5.338-.368.659-.759.962-1.162q.254-.331.494-.676c.156-.221.308-.442.455-.663.91-1.366,1.721-2.8,2.614-4.131l0,0s0,0,0,0C2596.391,5759.068,2596.344,5759.272,2596.292,5759.48Zm21.763-9.428h-20.328c-.147-.173-.294-.343-.442-.515a9.376,9.376,0,0,1,1.634-1.11.849.849,0,0,1,.152-.039.2.2,0,0,1,.056-.009.78.78,0,0,1,.1-.009q8.634-.136,17.277,0c.628.013,1.248.793,1.872,1.219C2618.262,5749.746,2618.158,5749.9,2618.054,5750.053Z" transform="translate(-2519.85 -5628.335)" fill="#474747"/>
  <path id="Path_714" data-name="Path 714" d="M3298.626,5588.538c.954,0,2.033-1.2,2.8-2.089.442-.511.377-1.456.52-2.128,1.734-.516,3.268,1.223,4.8-.043.234.664.711,1.361.633,1.986-.069.537-.823.958-1.17,1.5-.147.225-.026.624-.026,1.1l1.768-.373c1.058,3.685,2.987,4.534,6.541,3.195,1.148-.434,3.2-.776,3.71-.186,1.729,2.011,3.116,1.6,4.729-.013l1.821,2.11c.537-.85,1-1.569,1.486-2.34,1.058.841,1.76,1.4,2.467,1.955,1.707-2.28,1.707-2.28,4.109-1.565.3-.559.6-1.122.94-1.764.859.1,1.7.2,2.544.3-.064-.13-.134-.26-.2-.39.975-.624,1.955-1.244,3.29-2.1.256-1.348,4.019-4.46,5.834-4.616.078-1.3-.3-3.052.347-3.62.711-.619,2.375-.143,3.627-.143.057-.182.113-.368.174-.555-.885-.7-1.769-1.409-3.134-2.492,1.5-.382,2.492-.633,3.558-.9-2.431-2.406-2.431-2.406.668-4.369-2.467-1.5-1.634-3.455-.715-5.354-1.439-1.525-1.439-1.525-.135-3.788-.68-.377-1.36-.75-2.127-1.17,1.218-3.394-1.482-5.036-3.025-7.451.056-.316.16-.9.264-1.508-3.667-.048-3.667-.048-3.113-3.407-1.14,0-2.743.451-3.307-.121-.611-.62-.256-2.2-.32-3.359-.152-.008-.308-.064-.421-.017a1.939,1.939,0,0,0-.533.347c-2.1,1.808-2.285,1.868-3.551-.606-.944-1.847-1.863-.875-2.8-.222-.542-.628-.988-1.144-1.165-1.348-1.145.412-2.194,1.174-2.827.915-.715-.286-1.053-1.5-1.7-2.536-.8,2.4-2.314,2.237-3.8,1.18-1,.811-1.812,1.976-2.744,2.085-.967.108-2.05-.807-2.683-1.088-.745.923-1.318,1.634-1.894,2.345-1.539-1.37-2.626.351-3.446.39-.551,1.149-.793,2.471-1.344,2.618-.858.222-1.924-.355-3.177-.663.377,1.136.646,1.929.949,2.848-1.769.616-3.047,1.422-2.8,3.667.125,1.153-.932,1.877-2.3,1.486a15.663,15.663,0,0,0-1.79-.255c.741.932,1.2,1.517,1.721,2.163-.529.342-1,.65-1.556,1.005.52.758.949,1.374,1.443,2.089-.91.351-1.638.632-2.627,1.019,1.582,1.044,1.53,2.089.356,3.246-.282.278-.494,1.11-.321,1.292,1.929,2.02,1.235,4.122.208,6.172l1.643,1.382c-.512.737-.937,1.344-1.465,2.111l2.284.568c-.16.655-.295,1.192-.42,1.7.663.321,1.214.59,2.4,1.166a21.249,21.249,0,0,1-3.628.8c-2.926.052-5.3,3.064-4.17,5.791A3.821,3.821,0,0,0,3298.626,5588.538Z" transform="translate(-2959.326 -5512.369)" fill="#474747"/>
  <path id="Path_715" data-name="Path 715" d="M3072.53,6002.042c-.26-1.5-.507-2.9-.75-4.273-.767-.143-1.435-.264-2.02-.373v-2.479c-.594,0-1.413.182-1.535-.03-1-1.747-2.158-3.121-4.429-2.956-.108.008-.343-.611-.39-.958-.217-1.642-1.266-1.69-2.54-1.417-.52.112-1.062.146-1.621.221-.187-1.031-.338-1.881-.529-2.939-2.744,3.233-2.744,3.233-5.583.156-2.063,2.419-2.063,2.419-4.772.711-1.213,1.4-2.536,2.813-4.711,1.326-.6,2.471-1.981,2.77-3.788,1.816-1.769,2.64-1.769,2.64-4.33,2.41.243,1.6.412,3.221-1.348,2.969-1.656,2.432-3.073,4.513-4.495,6.593a18.863,18.863,0,0,1-.988,3.146c-.147.39-.559.893-.438,1.135.984,1.934.121,3.026-1.816,3.676.72.776,1.266,1.365,1.808,1.955-.655.6-1.187,1.075-1.868,1.694,3.329.642,3.329.642,1.573,3.125.377,1.361.663,2.389.988,3.559h.771c-.468.824-.893,1.578-1.5,2.648,1.569-.372,2.531-.6,3.988-.949-.637,1.348-1.019,2.154-1.448,3.064h2.423c-.225.759-.416,1.4-.663,2.25.893-.138,1.573-.247,2.328-.36.139.742.264,1.4.4,2.137.871-.23,1.6-.425,2.722-.724-.65,1.517-1.144,2.661-1.794,4.161,2.024-.915,3.437-2.055,4.88-2.1,2.635-.078.858,2.7,2.059,4.1.759-.875,1.426-1.643,2.089-2.4.7.559,1.526,1.595,1.885,1.452,1.907-.758,2.635.659,3.784,2.133.68-3.936,2.254-2.033,3.611-.828.468-.932.832-1.66,1.227-2.44.806.4,1.361.685,2.128,1.071.629-3.06,2.189-2.081,3.931-.6.013-2.215,1.179-2.813,2.739-3.537,1.816-.836,3.3-2.44,4.828-3.818a18.358,18.358,0,0,0,1.968-2.692c-.308-1.209.919-1.755,2.484-1.889-.932-2.484-.91-2.466.655-4.491a1.5,1.5,0,0,0,.255-1.3,3.252,3.252,0,0,1,.481-3.979,1.726,1.726,0,0,0,.217-1.187c-.16-1.222-.4-2.436-.689-4.113-2.379-1.118-.637-2.869.741-4.686Z" transform="translate(-2806.833 -5764.755)" fill="#474747"/>
  <path id="Path_716" data-name="Path 716" d="M3654.817,5914.369c-2.193.265-2.462.078-3.4-2.146a9.5,9.5,0,0,0-.88-1.474c-.7-1.058-2.2-1.335-2.817-2.037-2.284-2.6-5.209-2.505-8.265-2.839-.239-.59-.52-1.283-.949-2.336l-1.088,2.479h-5.176c-.095.221-.312.715-.589,1.344l-1.8-1.01v1.794h-1.885c-1.3,1.769-2.592,3.528-3.966,5.392-.464-.16-1.1-.377-2.271-.784.724,1.071,1.132,1.673,1.717,2.54l-2.548,2.115c1.664.841,1.083,1.885.42,2.618.217,1.058.438,1.82.52,2.6a26.039,26.039,0,0,0,.238,3.3c.451,1.855,1.118,3.659,1.734,5.6,2.3-.512,2.376,1.517,2.727,2.83.88.048,1.7-.16,2.159.161,3.636,2.54,7.447,4.413,12.059,3.528.906-.173,1.751-.759,2.652-.841,3.394-.3,5.626-2.388,7.508-4.875,1.838-2.432,3.432-5.046,4.607-6.788v-6.8C3653.065,5917.368,3653.061,5917.342,3654.817,5914.369Z" transform="translate(-3143.658 -5717.561)" fill="#474747"/>
  <path id="Path_717" data-name="Path 717" d="M3314.681,5672.527a2.514,2.514,0,0,0,4.226-1.365c.732-2.406,1.4-4.833,2.024-7.265a2.419,2.419,0,0,0-1.907-3.285,33.214,33.214,0,0,0-3.792-.494,5.5,5.5,0,0,1-.169-.659c-.165-1.452-.633-2.817-2.249-3.021-.8-.1-2.3.321-2.419.776-.282,1.114.1,2.389.125,3.6a5.046,5.046,0,0,1-.269,2.1c-1.157,2.583-2.418,5.119-3.875,8.157,1.348.247,2.683.936,3.6.567A4.183,4.183,0,0,1,3314.681,5672.527Z" transform="translate(-2965.464 -5577.556)" fill="#474747"/>
  <path id="Path_718" data-name="Path 718" d="M2791.344,5827.421c-.29-.26-.971-.1-1.474-.1q-15.565-.064-31.134-.116c-.7,0-1.392,0-2.15,0v3.767c.828,0,1.4-.014,1.964,0q14.375.325,28.746.654a15.7,15.7,0,0,0,3.866.078c.85-.2,2.137-1.3,2.081-1.891C2793.16,5828.951,2792.119,5828.114,2791.344,5827.421Z" transform="translate(-2653.975 -5674.313)" fill="#474747"/>
  <path id="Path_719" data-name="Path 719" d="M2790.052,5814.748c-10.307.313-20.614.581-30.926.867-.832.026-1.664.074-2.54.112v3.4c.529.047.806.1,1.088.1q16.339-.026,32.673-.061c1.578,0,3.069-.4,3.012-2.284C2793.294,5814.839,2791.708,5814.7,2790.052,5814.748Z" transform="translate(-2653.975 -5667.252)" fill="#474747"/>
  <path id="Path_720" data-name="Path 720" d="M2790.359,5789c-1.006.083-2.011.186-3.017.286-6.389.646-12.778,1.344-19.171,1.929-3.8.347-7.607.516-11.525.772v3.337a14.635,14.635,0,0,0,1.764.13c7.854-.438,15.712-.875,23.566-1.361,2.878-.182,5.752-.468,8.625-.758,1.37-.144,2.4-.863,2.315-2.345S2791.811,5788.887,2790.359,5789Z" transform="translate(-2654.009 -5652.661)" fill="#474747"/>
  <path id="Path_721" data-name="Path 721" d="M2790.641,5839.026c-.212-.021-.429-.026-.646-.034q-15.552-.489-31.108-.971c-.754-.026-1.5,0-2.241,0v3.437c.507.043.923.086,1.344.113,7.117.395,14.239.767,21.356,1.183,3.667.212,7.329.49,11,.746,1.452.1,2.709-.273,2.856-1.912C2793.35,5839.88,2792.188,5839.191,2790.641,5839.026Z" transform="translate(-2654.009 -5680.435)" fill="#474747"/>
  <path id="Path_722" data-name="Path 722" d="M2788.855,5866.366c1.643.234,3.264.277,3.485-1.773.208-1.907-1.144-2.466-2.9-2.652-7.03-.75-14.039-1.69-21.069-2.406-3.849-.391-7.733-.473-11.729-.7v3.663c3.039.208,5.865.255,8.647.615C2773.156,5864.125,2781.005,5865.248,2788.855,5866.366Z" transform="translate(-2654.009 -5692.235)" fill="#474747"/>
  <path id="Path_723" data-name="Path 723" d="M2790.3,5801.967c-8.127.525-16.254,1.058-24.381,1.479-3.068.16-6.155.026-9.314.026v3.7a7.391,7.391,0,0,0,.988.126q16.534-.488,33.067-.992c1.5-.047,2.626-.768,2.57-2.311C2793.171,5802.266,2791.888,5801.863,2790.3,5801.967Z" transform="translate(-2653.986 -5660.007)" fill="#474747"/>
  <path id="Path_724" data-name="Path 724" d="M2765.164,5852.943c8.179.719,16.341,1.612,24.507,2.449,1.586.165,3.095,0,3.164-1.946.061-1.76-1.214-2.38-2.882-2.5-7.113-.5-14.221-1.167-21.339-1.565-3.992-.221-8-.039-12.058-.039v3.563C2759.573,5852.908,2762.39,5852.7,2765.164,5852.943Z" transform="translate(-2653.958 -5686.818)" fill="#474747"/>
  <path id="Path_725" data-name="Path 725" d="M2756.586,5783.683c5.145-.364,10.03-.6,14.885-1.083q9.453-.949,18.863-2.311a3.234,3.234,0,0,0,1.912-2.318c.19-1.31-.889-2.011-2.28-1.9-.642.051-1.287.125-1.929.216-6.913.979-13.814,2.037-20.74,2.917-3.537.451-7.117.585-10.71.867Z" transform="translate(-2653.975 -5645.338)" fill="#474747"/>
  <path id="Path_726" data-name="Path 726" d="M2756.6,5771.544c.862,0,1.5.056,2.132-.009,6.363-.693,12.734-1.331,19.084-2.146,3.853-.5,7.663-1.292,11.5-1.9,1.6-.255,2.614-1.009,2.314-2.709-.294-1.668-1.6-1.833-3.017-1.612-.355.057-.707.131-1.058.2-5.227,1.015-10.428,2.168-15.682,3-5.028.788-10.107,1.244-15.274,1.859Z" transform="translate(-2653.981 -5637.988)" fill="#474747"/>
  <path id="Path_727" data-name="Path 727" d="M2787.345,5750.325c-5.518,1.322-11.018,2.722-16.575,3.836-4.634.932-9.336,1.508-14.135,2.262v3.269a42.376,42.376,0,0,0,4.577-.278c9.08-1.569,18.148-3.208,27.22-4.807,1.552-.273,2.7-1.01,2.323-2.718C2790.358,5750.065,2788.954,5749.939,2787.345,5750.325Z" transform="translate(-2654.004 -5630.656)" fill="#474747"/>
  <path id="Path_728" data-name="Path 728" d="M2786.561,5737.4c-6.085,1.742-12.145,3.6-18.291,5.093-3.806.928-7.75,1.292-11.664,1.916v3.182c.824,0,1.4.017,1.964,0,10.1-.4,19.617-3.71,29.348-5.956,1.625-.377,2.011-1.561,1.582-2.991C2789.053,5737.14,2787.939,5737,2786.561,5737.4Z" transform="translate(-2653.986 -5623.327)" fill="#474747"/>
  <path id="Path_729" data-name="Path 729" d="M3064.224,6122.267c-5.7.434-11.287.823-16.874,1.318-.667.061-1.283.689-1.925,1.058.6.359,1.183.979,1.816,1.044,3.719.386,7.455.585,11.178.94,7.711.736,15.348-.2,22.985-1.027.533-.056,1.006-.732,1.5-1.123-.511-.3-1-.836-1.534-.879C3075.646,6123.108,3069.911,6122.7,3064.224,6122.267Z" transform="translate(-2817.62 -5841.484)" fill="#474747"/>
  <path id="Path_730" data-name="Path 730" d="M3458.013,5673.451c2.843-.064,5.37-2.046,5.353-4.191-.035-3.862-1.928-6.095-5.175-6.1a5.577,5.577,0,0,0-5.536,5.262A5.1,5.1,0,0,0,3458.013,5673.451Z" transform="translate(-3048.34 -5581.371)" fill="#474747"/>
  <path id="Path_731" data-name="Path 731" d="M3479.022,5629.391a5.027,5.027,0,0,0,.139-10.034c-2.752.009-5.306,2.388-5.306,4.941A5.423,5.423,0,0,0,3479.022,5629.391Z" transform="translate(-3060.351 -5556.556)" fill="#474747"/>
  <path id="Path_732" data-name="Path 732" d="M3626.821,5873.224a4.705,4.705,0,0,0-4.694-4.867c-2.856.056-5.314,2.353-5.262,4.928a5.331,5.331,0,0,0,5.232,4.98A4.758,4.758,0,0,0,3626.821,5873.224Z" transform="translate(-3141.374 -5697.628)" fill="#474747"/>
  <path id="Path_733" data-name="Path 733" d="M2905.482,6024.026a4.974,4.974,0,0,0-5.2,4.881,5.284,5.284,0,0,0,5.21,5,5.08,5.08,0,0,0,4.785-5.124A4.781,4.781,0,0,0,2905.482,6024.026Z" transform="translate(-2735.389 -5785.825)" fill="#474747"/>
  <path id="Path_734" data-name="Path 734" d="M2742.9,5670.257c10.507,2.484,20.991,5.045,31.5,7.533a11.728,11.728,0,0,0,2.731-.125c-2.531-1.937-45.537-11.647-47.54-11.07-.052.195-.108.395-.16.589,1.109.321,2.206.7,3.333.949C2736.131,5668.866,2739.538,5669.464,2742.9,5670.257Z" transform="translate(-2638.587 -5583.305)" fill="#474747"/>
  <path id="Path_735" data-name="Path 735" d="M3276.672,5661.436c2.74-.031,4.17-1.652,3.663-3.806a5.779,5.779,0,0,1,.641-4.057c.425-.937.572-2.774.031-3.212a4.969,4.969,0,0,0-3.667-.771,2.329,2.329,0,0,0-1.7,3.051c.442,1.573-.117,2.626-.962,3.892a3.61,3.61,0,0,0-.243,3.1C3274.9,5660.561,3276.182,5661.072,3276.672,5661.436Z" transform="translate(-2947.229 -5573.643)" fill="#474747"/>
  <path id="Path_736" data-name="Path 736" d="M2850.052,5990.264c-1.118-.75-2.224-1.509-3.823-2.6a44.005,44.005,0,0,0-3.108,5.773c-.672,1.808.711,3.758,2.67,4.585a3.013,3.013,0,0,0,3.81-1.062c1.4-1.734,2.042-5.323,1.188-6.268C2850.607,5990.5,2850.286,5990.424,2850.052,5990.264Z" transform="translate(-2702.905 -5765.226)" fill="#474747"/>
  <path id="Path_737" data-name="Path 737" d="M2825.417,5979.424c-1.851-.083-3.892,2.093-3.9,4.152a5.67,5.67,0,0,0,4.85,4.994c1.838.047,3.082-1.547,3.2-4.1C2829.673,5982.176,2827.48,5979.515,2825.417,5979.424Z" transform="translate(-2690.762 -5760.554)" fill="#474747"/>
  <path id="Path_738" data-name="Path 738" d="M2966.406,5605.617c.754.7,1.422,1.318,2.111,1.951-.485,2.241.932,6.562,2.713,7.624,1.907,1.14,3.688.126,5.461-.472-.607-3.888-4.4-7.5-7.472-7.3C2968.53,5605.3,2968.309,5605.141,2966.406,5605.617Z" transform="translate(-2772.851 -5548.646)" fill="#474747"/>
  <path id="Path_739" data-name="Path 739" d="M3135.35,5586.771c.139-.772.277-1.547.425-2.319a1.032,1.032,0,0,1,.1-.252c1.478.911,2.969,1.825,4.46,2.744.234-.161.468-.316.7-.472-.481-1.353-.962-2.705-1.37-3.858-1.556.221-2.787.395-3.957.563-2.722-7.316-2.765-7.395-5.253-8.17,1,3.684,1.794,6.987,2.839,10.216C3133.512,5585.89,3134.639,5586.263,3135.35,5586.771Z" transform="translate(-2865.795 -5531.429)" fill="#474747"/>
  <path id="Path_740" data-name="Path 740" d="M2996.03,5624.659c1.331,1.651,2.184,3.788,3.944,4.491a28.186,28.186,0,0,1,1.231-3.511,3.038,3.038,0,0,0-.776-3.862c-1.335-1.335-3.017-2.306-4.768-1.274-.477.282,0,2.2.069,3.364A1.5,1.5,0,0,0,2996.03,5624.659Z" transform="translate(-2789.306 -5556.959)" fill="#474747"/>
  <path id="Path_741" data-name="Path 741" d="M2934.221,6065.719c-.525-.654-1.769-.728-2.687-1.062a17.293,17.293,0,0,0-.689,2.821c-.074.867.338,1.782.239,2.635a2.931,2.931,0,0,0,2.592,3.338,2.655,2.655,0,0,0,2.757-2.843,3.19,3.19,0,0,0-.165-.88A19.08,19.08,0,0,0,2934.221,6065.719Z" transform="translate(-2752.698 -5808.845)" fill="#474747"/>
  <path id="Path_742" data-name="Path 742" d="M2962.478,5591.268c.967-.212,1.708-.373,2.449-.538-.3-.655-.529-1.8-.915-1.855-.646-.091-1.387.512-2.146.85a21,21,0,0,0-2.08-3.107c-.707-.763-1.751-.7-1.756.641-.009,1.414-.052,2.67-1.218,3.7-.186.165.069,1.1.369,1.5C2958.647,5594.414,2961.273,5593.66,2962.478,5591.268Z" transform="translate(-2767.38 -5537.729)" fill="#474747"/>
  <path id="Path_743" data-name="Path 743" d="M3297.738,6054.107c-.42.8-.845,1.6-1.266,2.4l.555.235c-.286,1.625-.65,3.237-.819,4.876-.057.524.281,1.422.663,1.569a1.832,1.832,0,0,0,1.643-.563c1.417-1.92,2.354-4.079,1.331-6.45C3299.481,6055.338,3298.458,6054.788,3297.738,6054.107Z" transform="translate(-2959.7 -5802.868)" fill="#474747"/>
  <path id="Path_744" data-name="Path 744" d="M2743.149,5584.965c-3.3-3.615-7.225-5.254-11.083-7.568C2732.456,5580.626,2738.919,5585.034,2743.149,5584.965Z" transform="translate(-2640.083 -5532.783)" fill="#474747"/>
  <path id="Path_745" data-name="Path 745" d="M3149.979,6072.514c-1.53-.3-2.692.841-2.973,2.445a2.876,2.876,0,0,0,2.813,2.912c1.578-.1,2.4-1.092,2.687-3.376C3151.873,6073.971,3151.027,6072.723,3149.979,6072.514Z" transform="translate(-2875.157 -5813.27)" fill="#474747"/>
  <path id="Path_746" data-name="Path 746" d="M3661.909,5710.878c.356-.364.5-1.591.252-1.773-2.489-1.864-6.84.295-7.256,3.524C3657.333,5712.971,3660.571,5712.256,3661.909,5710.878Z" transform="translate(-3162.927 -5607.013)" fill="#474747"/>
  <path id="Path_747" data-name="Path 747" d="M3664.626,5876.17a2.878,2.878,0,0,0,2.965,2.787,2.7,2.7,0,0,0,2.54-2.787c-.247-1.43-.94-2.653-2.574-2.613A2.764,2.764,0,0,0,3664.626,5876.17Z" transform="translate(-3168.43 -5700.575)" fill="#474747"/>
  <path id="Path_748" data-name="Path 748" d="M3140.782,5995.265c.386-.789.533-2.549.295-2.645a6.048,6.048,0,0,0-3.545-.512c-1.14.313-2.072,1.4-3.286,2.294,1.322.684,2.323,1.257,3.368,1.725C3138.875,5996.694,3140.145,5996.578,3140.782,5995.265Z" transform="translate(-2867.942 -5767.682)" fill="#474747"/>
  <path id="Path_749" data-name="Path 749" d="M3220.925,6032.443a2.592,2.592,0,0,0-2.6,2.848,2.509,2.509,0,0,0,2.445,2.575,2.653,2.653,0,0,0,2.752-2.657A2.491,2.491,0,0,0,3220.925,6032.443Z" transform="translate(-2915.577 -5790.588)" fill="#474747"/>
  <path id="Path_750" data-name="Path 750" d="M3400.162,5524.086a2.442,2.442,0,0,0,2.6-1.946,3.079,3.079,0,0,0,.1-.758,4.3,4.3,0,0,0-.052-.581,3.837,3.837,0,0,0-.125-.52,2.236,2.236,0,0,0-2.3-1.574c-1.569,0-2.843.741-2.852,2.549A2.608,2.608,0,0,0,3400.162,5524.086Z" transform="translate(-3017.111 -5499.532)" fill="#474747"/>
  <path id="Path_751" data-name="Path 751" d="M3665.484,5614.68c.122-.26-.229-.741-.364-1.123-.481.173-1.14.2-1.413.545-1.517,1.908-2.982,3.862-4.374,5.861a14.075,14.075,0,0,0-1.088,2.375C3662.069,5620.947,3663.942,5617.944,3665.484,5614.68Z" transform="translate(-3164.82 -5553.271)" fill="#474747"/>
  <path id="Path_752" data-name="Path 752" d="M3308.028,6079.076a1.548,1.548,0,0,0-1.1,1c-.291,2.046-.486,4.113-.576,6.176-.022.429.529.889.815,1.331.486-.338,1.253-.581,1.4-1.031.52-1.547.828-3.168,1.24-4.859a6.433,6.433,0,0,0-.511-1.768A1.787,1.787,0,0,0,3308.028,6079.076Z" transform="translate(-2965.452 -5817.014)" fill="#474747"/>
  <path id="Path_753" data-name="Path 753" d="M3428.2,5997.063a5.742,5.742,0,0,0-1.964-.585c.083.728-.108,1.807.295,2.124,2.258,1.769,4.66,3.355,7.013,5l.707-.875a17.945,17.945,0,0,0-1.461-1.712C3431.293,5999.659,3429.794,5998.3,3428.2,5997.063Z" transform="translate(-3033.372 -5770.217)" fill="#474747"/>
  <path id="Path_754" data-name="Path 754" d="M3595.77,5648.991a1.875,1.875,0,0,0,1.525-.208c1.093-.854,2.068-1.855,2.93-2.648-.971-1.5-1.751-2.7-2.965-4.576-.728,2.362-1.356,4.247-1.868,6.163C3595.289,5648.106,3595.519,5648.9,3595.77,5648.991Z" transform="translate(-3129.195 -5569.134)" fill="#474747"/>
  <path id="Path_755" data-name="Path 755" d="M2888.769,5908.311a7.162,7.162,0,0,0,1.465-.425c0-.2.009-.4.013-.606-.447-.13-1.1-.512-1.309-.343-1.369,1.1-2.635.33-4.027.1a22.178,22.178,0,0,0-5.414-.052,9.156,9.156,0,0,0-2.562,1.07,17.884,17.884,0,0,0,3.515.667C2883.225,5908.705,2886,5908.488,2888.769,5908.311Z" transform="translate(-2722.161 -5719.435)" fill="#474747"/>
  <path id="Path_756" data-name="Path 756" d="M3438.1,5984.921c-.546-.354-1.525-.052-2.306-.052.442.693.724,1.647,1.357,2.042,2.284,1.431,4.681,2.691,7.065,3.962a4.776,4.776,0,0,0,1.595.108c-.312-.508-.4-.8-.6-.949C3442.861,5988.3,3440.542,5986.521,3438.1,5984.921Z" transform="translate(-3038.788 -5763.572)" fill="#474747"/>
  <path id="Path_757" data-name="Path 757" d="M3753.63,5654.9c-.421-.281-.85-.828-1.257-.806q-3.654.156-7.291.576c-.515.057-.975.585-1.456.9.086.264.173.528.264.793,2.974-.208,5.956-.391,8.929-.655C3753.11,5655.683,3753.361,5655.185,3753.63,5654.9Z" transform="translate(-3213.192 -5576.238)" fill="#474747"/>
  <path id="Path_758" data-name="Path 758" d="M2795.7,5607.691c-3.06-3-7.221-3.689-10.879-5.444-.156.369-.308.733-.464,1.1q5.494,2.549,11,5.1C2795.465,5608.189,2795.582,5607.943,2795.7,5607.691Z" transform="translate(-2669.708 -5546.862)" fill="#474747"/>
  <path id="Path_759" data-name="Path 759" d="M2780.186,5628.827c3.84,1.738,7.533,3.862,11.842,4.408.091-.234.182-.463.277-.693l-11.634-4.824C2780.511,5628.09,2780.346,5628.458,2780.186,5628.827Z" transform="translate(-2667.346 -5561.292)" fill="#474747"/>
  <path id="Path_760" data-name="Path 760" d="M3337.189,6013.6c-.6.767-1.716,1.543-1.7,2.3a16.65,16.65,0,0,0,1.118,4.17c.36,0,.72,0,1.08,0a26.177,26.177,0,0,0,1.027-4.56C3338.75,6014.906,3337.731,6014.239,3337.189,6013.6Z" transform="translate(-2981.957 -5779.917)" fill="#474747"/>
  <path id="Path_761" data-name="Path 761" d="M2965.345,5624.255c-.143-.052-1.192,1.357-1.023,1.755a4.877,4.877,0,0,0,1.942,2.181,12.282,12.282,0,0,0,3.233.767,11.918,11.918,0,0,0-1.387-3.156A6.629,6.629,0,0,0,2965.345,5624.255Z" transform="translate(-2771.66 -5559.33)" fill="#474747"/>
  <path id="Path_762" data-name="Path 762" d="M3631.086,5616.272c3.58-2,6.891-3.849,10.2-5.7C3638.294,5609.914,3631.931,5613.671,3631.086,5616.272Z" transform="translate(-3149.432 -5551.537)" fill="#474747"/>
  <path id="Path_763" data-name="Path 763" d="M2848.88,5658.269q-5.1-2.373-10.2-4.741c-.139.3-.282.6-.425.905,3.415,1.565,6.176,4.5,10.3,4.595C2848.663,5658.771,2848.771,5658.521,2848.88,5658.269Z" transform="translate(-2700.246 -5575.916)" fill="#474747"/>
  <path id="Path_764" data-name="Path 764" d="M2878.726,5576.371c3.532,3.147,6.74,6,9.947,8.855C2888.219,5582.877,2880.547,5576.029,2878.726,5576.371Z" transform="translate(-2723.175 -5532.195)" fill="#474747"/>
  <path id="Path_765" data-name="Path 765" d="M3762.865,5731.927c1.808,1.946,7.625,1.881,10.1,0Z" transform="translate(-3224.093 -5620.333)" fill="#474747"/>
  <path id="Path_766" data-name="Path 766" d="M3209.719,5564.134c0-2.089.052-3.944-.069-5.787-.013-.216-1.253-.68-1.444-.5C3206.482,5559.436,3207.1,5562.777,3209.719,5564.134Z" transform="translate(-2909.295 -5521.683)" fill="#474747"/>
  <path id="Path_767" data-name="Path 767" d="M3142.655,5540.287c-.147-3.225-3.064-6.965-5.708-6.662,1.816,2.44,3.485,4.689,5.158,6.935C3142.286,5540.469,3142.468,5540.378,3142.655,5540.287Z" transform="translate(-2869.472 -5507.974)" fill="#474747"/>
  <path id="Path_768" data-name="Path 768" d="M3145.235,5605.284c-.524,2.362-.953,4.747.889,7.074.841-1.223,1.162-6.458.481-7.191A1.718,1.718,0,0,0,3145.235,5605.284Z" transform="translate(-2873.912 -5548.459)" fill="#474747"/>
  <path id="Path_769" data-name="Path 769" d="M2735.389,5966.132c-.464.533-.286,1.621-.4,2.458a6.951,6.951,0,0,0,2.427-.182,17.356,17.356,0,0,0,2.779-1.976C2738.142,5964.927,2736.568,5964.775,2735.389,5966.132Z" transform="translate(-2641.738 -5752.498)" fill="#474747"/>
  <path id="Path_770" data-name="Path 770" d="M2891.437,5873c-2.445-1.127-5.024-.069-7.529-.126-.451-.013-.927.972-1.812,1.968h5.123l-1.387-1.274h5.578C2891.419,5873.372,2891.428,5873.182,2891.437,5873Z" transform="translate(-2725.084 -5699.961)" fill="#474747"/>
  <path id="Path_771" data-name="Path 771" d="M2780.706,5976.519c-.433-.295-1.131-.2-1.708-.282-.073.524-.36,1.149-.173,1.561.555,1.213,1.3,2.34,2.076,3.7C2782.518,5979.735,2782.366,5977.646,2780.706,5976.519Z" transform="translate(-2666.54 -5758.75)" fill="#474747"/>
  <path id="Path_772" data-name="Path 772" d="M3650.456,5654.583a1.516,1.516,0,0,0,.031,1.331c.238.294,1.04.528,1.278.355,1.509-1.092,2.926-2.306,4.582-3.649C3654.431,5652.251,3651.011,5653.474,3650.456,5654.583Z" transform="translate(-3160.328 -5575.364)" fill="#474747"/>
  <path id="Path_773" data-name="Path 773" d="M3303.17,5712.045c-.329.187-.425.784-.624,1.2.425.2.875.6,1.274.555a9.847,9.847,0,0,0,2.678-.7,8.582,8.582,0,0,0,1.66-1.24c-.62-.382-1.24-.763-1.885-1.157A31.79,31.79,0,0,0,3303.17,5712.045Z" transform="translate(-2963.294 -5608.306)" fill="#474747"/>
  <path id="Path_774" data-name="Path 774" d="M2611.92,5637.532q-5.806-1.236-11.616-2.475c-.069.338-.139.676-.208,1.01q5.832,1.151,11.664,2.3C2611.812,5638.087,2611.868,5637.81,2611.92,5637.532Z" transform="translate(-2565.314 -5565.451)" fill="#474747"/>
  <path id="Path_775" data-name="Path 775" d="M3016.688,5625.956a7.853,7.853,0,0,0,2.306.056c.078.139.16.272.243.412a5.52,5.52,0,0,0,1.252-1.317c.087-.178-.524-.928-.936-1.071a6.992,6.992,0,0,0-2.709-.481c-.5.03-.967.707-1.448,1.1C3015.821,5625.106,3016.168,5625.792,3016.688,5625.956Z" transform="translate(-2800.607 -5558.929)" fill="#474747"/>
  <path id="Path_776" data-name="Path 776" d="M3543.291,5651.866c-1.824,1.57-3.822,3.291-5.825,5.007.169.174.338.343.5.512C3542.52,5655.018,3543.157,5654.32,3543.291,5651.866Z" transform="translate(-3096.39 -5574.974)" fill="#474747"/>
  <path id="Path_777" data-name="Path 777" d="M3046.6,5556.454c.507-.468,1.01-.94,1.942-1.812-1.088-1.031-1.868-1.769-2.648-2.5-.42.554-1.313,1.309-1.179,1.629A14.471,14.471,0,0,0,3046.6,5556.454Z" transform="translate(-2817.211 -5518.472)" fill="#474747"/>
  <path id="Path_778" data-name="Path 778" d="M3696.506,5657.27c2.266-1.028,4.534-2.055,7.243-3.281C3701.387,5652.9,3697.346,5654.729,3696.506,5657.27Z" transform="translate(-3186.496 -5575.996)" fill="#474747"/>
  <path id="Path_779" data-name="Path 779" d="M2779.715,5536.73q-3.979-3.458-7.962-6.913l-.676.754q4.044,3.4,8.088,6.792C2779.35,5537.151,2779.532,5536.943,2779.715,5536.73Z" transform="translate(-2662.184 -5505.827)" fill="#474747"/>
  <path id="Path_780" data-name="Path 780" d="M2839.5,5922.278l.156.286h11.361c.009-.243.022-.485.035-.728-.334-.047-.668-.126-1-.143-2.683-.144-5.37-.36-8.053-.356A7.643,7.643,0,0,0,2839.5,5922.278Z" transform="translate(-2700.948 -5727.646)" fill="#474747"/>
  <path id="Path_781" data-name="Path 781" d="M2944.127,5523.175c.442-3.268-.182-4.893-2.2-5.738C2941.5,5519.513,2942.766,5522.824,2944.127,5523.175Z" transform="translate(-2758.933 -5498.812)" fill="#474747"/>
  <path id="Path_782" data-name="Path 782" d="M2856.584,5915.682c-2.159-1.183-4.2-.524-6.177.251-.256.1-.191,1.014-.282,1.6.993-.472,1.743-1.1,2.046-.932C2854.027,5917.646,2855.054,5915.7,2856.584,5915.682Z" transform="translate(-2706.971 -5724.076)" fill="#474747"/>
  <path id="Path_783" data-name="Path 783" d="M3189.983,5474.467c-1.955,1.032-2.982,5.787-1.786,7.763Z" transform="translate(-2898.219 -5474.467)" fill="#474747"/>
  <path id="Path_784" data-name="Path 784" d="M3628.426,5697.4c2.375,1.552,3.688,1.457,5.7-.347C3632.188,5696.692,3630.333,5695.231,3628.426,5697.4Z" transform="translate(-3147.925 -5600.113)" fill="#474747"/>
  <path id="Path_785" data-name="Path 785" d="M3133.013,5555.8c-.685-3.1-1.3-5.886-1.916-8.669C3130.117,5549.654,3131.218,5554.244,3133.013,5555.8Z" transform="translate(-2865.95 -5515.633)" fill="#474747"/>
  <path id="Path_786" data-name="Path 786" d="M3657.766,5696.754c.1.217.212.43.316.646,1.812-.971,3.627-1.938,5.483-2.93C3662,5693.326,3659.24,5694.422,3657.766,5696.754Z" transform="translate(-3164.548 -5598.854)" fill="#474747"/>
  <path id="Path_787" data-name="Path 787" d="M3251.088,5476.859l-1.031-.312q-1.027,3.406-2.05,6.81l1.14.364Q3250.115,5480.288,3251.088,5476.859Z" transform="translate(-2932.394 -5475.646)" fill="#474747"/>
  <path id="Path_788" data-name="Path 788" d="M3645.6,5705.358q4.019-1.483,8.036-2.969c-.065-.182-.126-.36-.19-.542-2.622,1.153-5.83.641-8.179,2.565C3645.378,5704.73,3645.491,5705.046,3645.6,5705.358Z" transform="translate(-3157.466 -5603.292)" fill="#474747"/>
  <path id="Path_789" data-name="Path 789" d="M3648.916,5773.049a5.715,5.715,0,0,0,5.509.967c.039-.343.074-.689.113-1.036l-5.518-.7C3648.985,5772.537,3648.951,5772.793,3648.916,5773.049Z" transform="translate(-3159.534 -5643.194)" fill="#474747"/>
  <path id="Path_790" data-name="Path 790" d="M2762.041,5943.285c-.355.031-.65.789-.975,1.218.416.3.858.88,1.249.85a23.606,23.606,0,0,0,3.194-.663l-.026-1.235A24.139,24.139,0,0,0,2762.041,5943.285Z" transform="translate(-2656.513 -5740.067)" fill="#474747"/>
  <path id="Path_791" data-name="Path 791" d="M2713.808,5972.491a3.606,3.606,0,0,0-1.8,1.687c-.117.221.932,1.5,1.344,1.447.746-.095,1.417-.818,2.579-1.582C2714.9,5973.254,2714.18,5972.365,2713.808,5972.491Z" transform="translate(-2628.712 -5756.621)" fill="#474747"/>
  <path id="Path_792" data-name="Path 792" d="M2659.684,5529.142c.728-.065,1.4-.741,2.536-1.426-.923-.784-1.521-1.6-1.838-1.5a7.7,7.7,0,0,0-2.015,1.387C2658.808,5528.149,2659.29,5529.172,2659.684,5529.142Z" transform="translate(-2598.328 -5503.781)" fill="#474747"/>
  <path id="Path_793" data-name="Path 793" d="M3580.556,5608.938a7.138,7.138,0,0,0-3.19,6.008c.265.1.529.208.8.312Z" transform="translate(-3118.996 -5550.653)" fill="#474747"/>
  <path id="Path_794" data-name="Path 794" d="M3164.636,6018.131a13.913,13.913,0,0,0,2.3,1.356c.282.109.811-.437,1.821-1.031a17.447,17.447,0,0,0-3.008-1.5C3165.5,6016.888,3165.013,6017.715,3164.636,6018.131Z" transform="translate(-2885.16 -5781.816)" fill="#474747"/>
  <path id="Path_795" data-name="Path 795" d="M3165.521,5555.047a1.078,1.078,0,0,0,.477-.945c-.442-1.313-1.005-2.588-1.526-3.875-.26.047-.52.1-.776.151.243,1.435.447,2.882.776,4.3C3164.52,5554.891,3165.213,5555.129,3165.521,5555.047Z" transform="translate(-2884.627 -5517.39)" fill="#474747"/>
  <path id="Path_796" data-name="Path 796" d="M3638.958,5651.638c-1.331,1.188-2.445,2.18-3.962,3.537C3638.347,5655.291,3639.46,5654.247,3638.958,5651.638Z" transform="translate(-3151.647 -5574.845)" fill="#474747"/>
  <path id="Path_797" data-name="Path 797" d="M3177.377,5520.033q-.4-2.783-.8-5.566c-.325.053-.655.1-.984.152q.423,2.777.84,5.557Z" transform="translate(-2891.37 -5497.129)" fill="#474747"/>
  <path id="Path_798" data-name="Path 798" d="M3778.6,5704.507c-1.946.325-3.463.577-4.98.828.017.195.039.39.056.581C3776,5706.666,3777.309,5706.41,3778.6,5704.507Z" transform="translate(-3230.184 -5604.798)" fill="#474747"/>
  <path id="Path_799" data-name="Path 799" d="M3668.39,5659.481c-.169-.272-.334-.542-.5-.814-1.083.642-2.167,1.278-3.251,1.92.109.2.217.395.325.59A2.8,2.8,0,0,0,3668.39,5659.481Z" transform="translate(-3168.44 -5578.827)" fill="#474747"/>
  <path id="Path_800" data-name="Path 800" d="M3726.956,5773.98l4.72.429c.035-.372.069-.75.1-1.122q-2.347-.208-4.689-.421C3727.042,5773.235,3727,5773.608,3726.956,5773.98Z" transform="translate(-3203.748 -5643.528)" fill="#474747"/>
  <path id="Path_801" data-name="Path 801" d="M3659.185,5690.886c1.209-.628,2.32-1.2,3.425-1.777C3659.467,5688.2,3658.795,5688.6,3659.185,5690.886Z" transform="translate(-3165.295 -5595.82)" fill="#474747"/>
  <path id="Path_802" data-name="Path 802" d="M3068.068,5552.89c.385-.421.771-.841,1.365-1.491-.676-.69-1.175-1.2-1.673-1.712-.338.537-1.01,1.123-.932,1.594C3066.919,5551.867,3067.625,5552.357,3068.068,5552.89Z" transform="translate(-2829.742 -5517.083)" fill="#474747"/>
  <path id="Path_803" data-name="Path 803" d="M3034.013,6004.025c.191-.3-.212-.976-.342-1.479-.42.26-.992.429-1.227.811a14.542,14.542,0,0,0-.958,2.258c.221.156.438.316.654.472A14.2,14.2,0,0,0,3034.013,6004.025Z" transform="translate(-2809.723 -5773.656)" fill="#474747"/>
  <path id="Path_804" data-name="Path 804" d="M3690.619,5719.967c-.083-.19-.16-.386-.243-.581-1.655-.225-3.133-.021-4.07,1.482.1.247.208.5.312.746Z" transform="translate(-3180.717 -5613.185)" fill="#474747"/>
  <path id="Path_805" data-name="Path 805" d="M2858.012,5576.681l.473-.472q-1.814-1.886-3.624-3.771c-.143.151-.286.308-.425.463C2855.472,5574.323,2856.1,5576.169,2858.012,5576.681Z" transform="translate(-2709.413 -5529.973)" fill="#474747"/>
  <path id="Path_806" data-name="Path 806" d="M3685.439,5729.37a9.914,9.914,0,0,0,2.414-1.136c-1.014-.628-1.6-1.248-1.929-1.135-.612.212-1.075.854-1.6,1.313C3684.7,5728.754,3685.115,5729.414,3685.439,5729.37Z" transform="translate(-3179.595 -5617.591)" fill="#474747"/>
  <path id="Path_807" data-name="Path 807" d="M3190.733,5580.578c1.5-1.01,1.772-2.337.715-4.651-.659,1.813-1.123,3.082-1.582,4.352C3190.156,5580.379,3190.447,5580.478,3190.733,5580.578Z" transform="translate(-2899.454 -5531.95)" fill="#474747"/>
  <path id="Path_808" data-name="Path 808" d="M3111.912,5547.037a7.237,7.237,0,0,0-.546-2.05c-.2-.026-.4-.048-.6-.069-.325.55-.919,1.118-.893,1.655s.672,1.041,1.045,1.557C3111.271,5547.765,3111.908,5547.41,3111.912,5547.037Z" transform="translate(-2854.134 -5514.381)" fill="#474747"/>
  <path id="Path_809" data-name="Path 809" d="M3019.36,5639.487q-.722,1.3-1.444,2.6c.334.217.667.429,1,.646a17.626,17.626,0,0,0,1.543-2.2C3020.526,5640.41,3019.75,5639.847,3019.36,5639.487Z" transform="translate(-2802.034 -5567.961)" fill="#474747"/>
  <path id="Path_810" data-name="Path 810" d="M3630.32,5666.213c-1.469.052-3.112-.4-4.3,2.067l4.486-1.3C3630.442,5666.72,3630.381,5666.464,3630.32,5666.213Z" transform="translate(-3146.559 -5583.101)" fill="#474747"/>
  <path id="Path_811" data-name="Path 811" d="M3198.426,5559.026c-.338-1.535-.676-3.074-1.036-4.7C3196.3,5556.139,3196.5,5557.639,3198.426,5559.026Z" transform="translate(-2903.341 -5519.712)" fill="#474747"/>
  <path id="Path_812" data-name="Path 812" d="M3638.519,5672.447q-2.139.565-4.273,1.131c.069.294.143.589.217.888,1.439-.321,2.878-.637,4.317-.958C3638.693,5673.158,3638.606,5672.8,3638.519,5672.447Z" transform="translate(-3151.222 -5586.635)" fill="#474747"/>
  <path id="Path_813" data-name="Path 813" d="M2879.608,5519.4q-1.222-1.678-2.44-3.355c-.269.191-.538.386-.8.577q1.183,1.7,2.371,3.4Z" transform="translate(-2721.838 -5498.024)" fill="#474747"/>
  <path id="Path_814" data-name="Path 814" d="M3764.538,5659.407l-3.562,1.886c.143.282.282.559.425.841l3.667-1.665C3764.89,5660.114,3764.716,5659.763,3764.538,5659.407Z" transform="translate(-3223.022 -5579.247)" fill="#474747"/>
  <path id="Path_815" data-name="Path 815" d="M3202.4,5563.1l-.425.039v5.76c.243.013.49.022.737.03Q3202.557,5566.008,3202.4,5563.1Z" transform="translate(-2906.315 -5524.682)" fill="#474747"/>
  <path id="Path_816" data-name="Path 816" d="M3011.876,5635.288c.308,1.292.568,2.358.94,3.91C3014.642,5636.852,3014.407,5636.063,3011.876,5635.288Z" transform="translate(-2798.612 -5565.582)" fill="#474747"/>
  <path id="Path_817" data-name="Path 817" d="M3113.216,5599.528q2.016,1.547,4.027,3.095c.169-.221.342-.442.511-.663q-1.976-1.554-3.948-3.112C3113.611,5599.077,3113.411,5599.3,3113.216,5599.528Z" transform="translate(-2856.027 -5544.936)" fill="#474747"/>
  <path id="Path_818" data-name="Path 818" d="M3661.865,5761.309c.858-.268,1.695-.6,2.661-.953-1.148-1.309-2.6-1.348-3.416-.052a1.1,1.1,0,0,0,0,.907C3661.171,5761.34,3661.635,5761.383,3661.865,5761.309Z" transform="translate(-3166.388 -5635.872)" fill="#474747"/>
  <path id="Path_819" data-name="Path 819" d="M3251.086,5583.714c.3.147.59.3.88.438q.871-1.925,1.747-3.858c-.3-.134-.594-.273-.893-.407Q3251.955,5581.8,3251.086,5583.714Z" transform="translate(-2934.139 -5534.194)" fill="#474747"/>
  <path id="Path_820" data-name="Path 820" d="M2833.3,5916.317c0,.269,0,.533-.009.8h3.784c0-.269,0-.533-.009-.8Z" transform="translate(-2697.436 -5724.802)" fill="#474747"/>
</svg>
