<svg xmlns="http://www.w3.org/2000/svg" width="424.753" height="41.209" viewBox="0 0 424.753 41.209">
  <g id="Group_1968" data-name="Group 1968" transform="translate(-2733.71 -5764.729)">
    <path id="Path_362" data-name="Path 362" d="M2889.951,5764.872c-.2.316-.321.561-.485.773-1.529,1.995-3.085,3.967-4.586,5.982a1.726,1.726,0,0,1-1.549.764c-7.679.046-15.36.125-23.042.192-6.807.059-13.615.107-20.42.2a1.934,1.934,0,0,0-1.265.6c-1.119,1.269-2.154,2.611-3.22,3.926.037.1.074.2.109.295h44.438c-1.459,1.837-2.687,3.4-3.935,4.946-.889,1.1-1.607,2.585-2.768,3.153-1.121.548-2.709.153-4.092.153q-19.931.007-39.865-.015a2,2,0,0,0-1.829.878c-1.031,1.392-2.147,2.72-3.347,4.225h44.36c-.231.34-.391.61-.585.852-1.77,2.219-3.561,4.422-5.309,6.659a1.755,1.755,0,0,1-1.549.769q-29.11-.078-58.215-.116c-.277,0-.552-.04-1.033-.077,1.416-1.811,2.718-3.478,4.02-5.145l-.12-.159q-3.671,1.35-7.343,2.7-12.39,4.575-24.787,9.139a5.72,5.72,0,0,1-1.8.339c-2.584.066-5.169.077-7.753.1-.205,0-.411-.035-.863-.076,10.338-11.1,20.535-22.061,30.976-33.279h-1.523q-20.149,0-40.3-.02a5.632,5.632,0,0,1-2.2-.463c-5.04-2.188-10.058-4.43-15.08-6.656-.33-.145-.656-.3-1.285-.592h92.262a6.6,6.6,0,0,1-.406.7c-1.617,2.157-3.214,4.326-4.883,6.441-.282.356-.874.472-1.324.694-.028.016-.072,0-.109,0-1.486.033-3.172-.362-4.4.214s-2.027,2.117-3,3.25q-5.177,6.06-10.347,12.132c-.209.247-.406.5-.686.854a3.973,3.973,0,0,0,.667.116c2.331-.024,4.66-.079,6.989-.081a2.1,2.1,0,0,0,1.759-.843q9.579-11.424,19.227-22.789a2.276,2.276,0,0,1,1.519-.757q29-.059,58-.031C2889.257,5764.823,2889.539,5764.85,2889.951,5764.872Z" transform="translate(0 -0.073)" fill="#052b05"/>
    <path id="Path_363" data-name="Path 363" d="M4288.086,5764.8a8.136,8.136,0,0,1-.686.618c-3.155,2.22-6.3,4.451-9.49,6.626a3.218,3.218,0,0,1-1.7.518q-8.684.056-17.364.009a1.9,1.9,0,0,0-1.658.769q-12.193,14.854-24.443,29.663a19.993,19.993,0,0,1-1.827,1.681c-5.619-9.764-11.142-19.36-16.778-29.157-4.026,5.053-7.965,9.995-12.07,15.151,5.746.128,11.222.251,16.7.375.018.082.037.162.055.245l-2.03.688q-10.394,3.5-20.791,7a5.057,5.057,0,0,1-1.593.294c-4.839-.028-9.68-.087-14.519-.14-.212,0-.421-.031-.791-.059.278-.375.467-.662.686-.924q13.633-16.287,27.254-32.582a2.031,2.031,0,0,1,1.743-.839q6.99.056,13.977,0a1.626,1.626,0,0,1,1.621.948c2.624,4.452,5.291,8.876,7.948,13.309.2.336.42.664.688,1.09.331-.354.6-.627.854-.92,3.919-4.55,7.826-9.112,11.775-13.638a2.182,2.182,0,0,1,1.423-.736q20.147-.062,40.3-.031C4287.544,5764.751,4287.721,5764.775,4288.086,5764.8Z" transform="translate(-1129.623 0)" fill="#052b05"/>
    <path id="Path_364" data-name="Path 364" d="M3972.906,5764.831c-1.56,2.154-3.084,4.133-4.456,6.213a2.7,2.7,0,0,1-2.593,1.3c-14.307,0-28.615.07-42.922.094a1.7,1.7,0,0,0-1.538.773c-1.077,1.451-2.211,2.86-3.449,4.448h44.3c-.269.427-.406.688-.586.922-1.647,2.13-3.325,4.239-4.944,6.393a1.912,1.912,0,0,1-1.726.846c-14.089-.024-28.177,0-42.268-.042a2.752,2.752,0,0,0-2.637,1.25c-.841,1.25-1.86,2.384-2.95,3.755h44.154c-.234.389-.35.636-.511.844-1.793,2.293-3.572,4.6-5.416,6.855a1.977,1.977,0,0,1-1.344.645q-29.381.045-58.763.024c-.275,0-.551-.035-1.068-.072,3.434-4.1,6.7-8.009,9.973-11.917q9.038-10.8,18.067-21.622a1.925,1.925,0,0,1,1.652-.791q28.945.029,57.889.018C3972.083,5764.768,3972.4,5764.8,3972.906,5764.831Z" transform="translate(-899.14 -0.016)" fill="#052b05"/>
    <path id="Path_365" data-name="Path 365" d="M3653.281,5785.738c3.12,4.49,6.161,8.868,9.4,13.532-1.787,0-3.292-.009-4.8,0-3.13.022-6.259.036-9.389.1a1.419,1.419,0,0,1-1.381-.8q-3.949-6.352-7.946-12.67c-.19-.3-.4-.592-.664-.99-.31.354-.572.636-.813.931-3.449,4.232-6.908,8.457-10.331,12.71a1.981,1.981,0,0,1-1.743.824c-4.8-.035-9.6-.018-14.609-.018.251-.375.4-.637.583-.869q13.361-16.51,26.742-33a1.737,1.737,0,0,1,1.132-.644c4.695-.042,9.392-.026,14.086-.024a5.524,5.524,0,0,1,.594.1c-3.709,4.863-7.336,9.621-10.965,14.379.033.062.066.123.1.184.339-.136.679-.261,1.011-.407q15.785-6.937,31.577-13.869a4.371,4.371,0,0,1,1.671-.374c6.7-.024,13.394-.015,20.092-.013a1.79,1.79,0,0,1,.911.205C3683.492,5771.912,3668.442,5778.8,3653.281,5785.738Z" transform="translate(-685.641 -0.067)" fill="#052b05"/>
    <path id="Path_366" data-name="Path 366" d="M3377.584,5785.866l9.147,13.222a7.921,7.921,0,0,1-.9.114c-4.479.006-8.955-.011-13.431.021a1.412,1.412,0,0,1-1.37-.814c-2.569-4.229-5.167-8.441-7.755-12.66-.207-.336-.43-.664-.723-1.114-.3.36-.557.647-.8.946-3.305,4.112-6.646,8.2-9.892,12.359a3.3,3.3,0,0,1-2.783,1.4c-4.549-.046-9.095-.155-13.644-.245-.061,0-.12-.055-.271-.128.162-.234.293-.47.465-.675q13.868-16.368,27.756-32.724a1.84,1.84,0,0,1,1.11-.714c4.909-.049,9.82-.031,15.044-.031-4.057,4.894-7.957,9.6-11.856,14.306.037.063.076.125.114.186.347-.14.7-.269,1.042-.422q15.422-6.823,30.843-13.643a4.019,4.019,0,0,1,1.553-.411c6.7-.026,13.394-.018,20.09-.016.177,0,.354.026.531.04.018.074.037.149.054.223Z" transform="translate(-470.054 -0.068)" fill="#052b05"/>
  </g>
</svg>
