<svg xmlns="http://www.w3.org/2000/svg" width="1014.716" height="544.979" viewBox="0 0 1014.716 544.979">
  <g id="Group_2131" data-name="Group 2131" transform="translate(-3231.1 -5633.71)" opacity="0.1">
    <path id="Path_1008" data-name="Path 1008" d="M3475.971,5792.46c2,1.7,4.044,3.535,6.049,5.471A34.058,34.058,0,0,1,3475.971,5792.46Z" transform="translate(587.314 380.758)"/>
    <path id="Path_1009" data-name="Path 1009" d="M3503.368,5741.348c-.068-.035-.17-.1-.238-.135a1.274,1.274,0,0,0-.17-.273Z" transform="translate(652.049 257.189)"/>
    <path id="Path_1010" data-name="Path 1010" d="M4137.476,6041.765c-32.694-7.715-34.631-6.7-46.8,22.533-1.291,3.125-3.907,7.135-2.922,9.514,7.442,18.217-7,19.916-18.454,24.844,2.753,10.637,5.506,21.41,8.259,32.184-.952.646-1.9,1.324-2.855,2.006-11.622-13.152-23.245-26.3-35.479-40.1-15.531,16.756-30.893,29.262-40.612,45.234-6.083,9.924-9.686,23.721.272,35.242-44.249-37.146-88.327-14.988-132.507-.236,0-.035,1.224-2.414,2.515-4.758,5.709-10.4,2.549-15.023-9.107-13.629-17.979,2.072-35.889,5.471-53.935,6.355-23.789,1.189-47.681.068-71.47.883-6.524.238-12.947,3.977-19.881,6.287-7.919-15.564-35.752-30.518-50.025-24.129-2.583-13.936-4.725-27.8-7.816-41.428-3.025-13.254-14.716-16.957-25.115-8.293-4.35,3.6-7.884,8.26-12.438,11.521-10.06,7.307-13.355,15.871-8.02,27.662,2,4.42,2.345,9.551,4.248,18.082-16.653-31.676-51.827-43.262-80.068-28.277-3.194-7.271-6.083-14.68-9.584-21.75-3.806-7.814-27.9-5.232-33.407,3.707-2.854,4.621-4.112,10.264-7.272,14.578-2.889,4.01-7.374,6.863-11.963,10.979-.611-7.309-1.155-13.834-1.358-16.723-14.173-3.6-25.319-9.074-36.194-8.564-11.69.58-23.145,6.729-34.155,10.264,6.117-6.252,12.1-12.369,18.08-18.488-5.471-2.344-10.942-4.689-18.046-7.746-.136-3.162-.407-9.178-.544-12.3-10.67-5.676-19-11.9-28.343-14.58-9.516-2.719-20.051-1.973-30.519-2.754,5-6.354,11.589-14.68,19.474-24.672-34.631-7.342-67.29-14.273-103.483-21.92,17.162-1.258,31.1-2.242,47.239-3.432-4.623-25.49,12.744-52.984-12.575-75.652,7-9.242,4.52-29.973,26.542-22.9,1.02-1.461,2.311-2.516,2.142-3.16-6.321-23.959-.034-38.811,26.3-45.541,6.423-1.631,9.074-18.045,14.172-29.227-13.73-3.635-23.96-6.355-34.189-9.041.1-.814.171-1.631.238-2.445,18.386,1.6,36.976,1.938,55.09,5.131,15.089,2.686,25.862.1,34.868-12.98,6.9-9.924,14.239-22.328,31.81-10.061.51-1.631,1.02-3.229,1.529-4.859-8.055-19.27-16.143-38.539-23.585-56.348-16.279-3.2-29.8-5.811-43.875-8.564,13.764-13.8-5.641-13.186-8.666-20.016-6.864-15.465-19-5.234-29.328-10.162,10.024-2.107,18.521-2.82,26.1-5.811,6.627-2.65,12.167-8.057,18.353-11.963,5.335-3.4,10.875-6.457,18.419-10.875-1.189-3.943-2.889-9.449-5.132-16.822,5.506,1.7,13.424,1.732,16.075,5.471,11.011,15.531,23.313,6.084,35.038,2.957,2.141-.578,3.84-5.98,4.146-9.312.646-6.559.2-13.254.2-23.959,31.2,31.74,68.207,46.186,107.289,56.279,4.248,1.086,11.521,3.125,12.609,1.529,10.467-15.463,29.771-9.346,41.971-17.91-2.854,18.828-5.777,38.2-8.633,57.3,11.827,3.807,22.736,7.307,34.359,11.045-.815-3.2-1.836-7.07-2.855-10.943,22.261,30.111,49.448,35.887,78.642,20.357,2.956-12.336,5.675-23.689,8.428-35.244,33.34,8.5,45.914-19.234,68.547-29.736-7.2-12.539-13.729-23.926-20.221-35.275.815-.545,1.665-1.121,2.515-1.666,5.777,6.627,11.25,13.561,17.435,19.781,8.326,8.428,12.574,21.816,28.207,21.748,3.025-.033,6.084,7.342,9.074,11.352,3.365,4.555,6.7,9.176,11.861,16.313,4.655-14.24,8.088-24.674,10.671-32.66,5.845,6.594,11.385,14.037,18.147,20.086,4.962,4.418,12.1,6.355,17.3,10.568,11.59,9.381,21.853,9.313,32.388-1.562,12.643-13.016,28.31-17.162,46.254-15.666,6.967.611,14.171-1.666,23.449-2.922,3.6,5.742,8.224,13.117,12.269,19.574,28.274,6.7,31.4-20.221,43.874-34.936,1.768,8.393,3.059,14.443,3.807,18.078,17.808.918,32.829,1.7,50.331,2.584-2.277,8.834-5.03,19.438-8.054,31.2h26.61c-47.24,4.928-51.963,54.139-83.638,76.568,4.282,3.432,6.9,5.572,9.924,8.02-4.181,2.855-8.19,5.607-12.677,8.666,14.206,11.42,27.8,22.295,43.433,34.834-7.51-2.377-12.914-4.111-22.667-7.2-4.181,13.287-7.715,26.813-12.847,39.729-2.515,6.285-8.021,11.383-12.948,18.045-.1-.238-.136-.34-.17-.307,0,.172.271,1.121.544,1.121,27.052-.373,29.771,19.678,32.455,39.15,2.549,18.625,7.1,35.889,24.231,46.8,6.016,8.428,11.079,17.773,18.386,24.842C4116.167,6029.972,4125.582,6034.187,4137.476,6041.765Z" transform="translate(64.398)"/>
    <path id="Path_1011" data-name="Path 1011" d="M3280.055,5790.251q-.1,3.264-.2,7.033A52.131,52.131,0,0,1,3280.055,5790.251Z" transform="translate(116.856 375.456)"/>
    <path id="Path_1012" data-name="Path 1012" d="M3325.871,5784.99c-19.064,3.162-43.433-2.275-45.981,24.879C3281.012,5779.553,3284.954,5779.146,3325.871,5784.99Z" transform="translate(117.021 355.805)"/>
    <path id="Path_1013" data-name="Path 1013" d="M3503.164,5740.91l.2.51-.408-.408Z" transform="translate(652.049 257.117)"/>
    <path id="Path_1014" data-name="Path 1014" d="M3537.372,5738.226q-15.7,9.331-31.4,18.658c-1.394-3.365-2.787-6.764-4.181-10.127,11.521-4.316,22.464-8.395,33.44-12.506Q3536.3,5736.237,3537.372,5738.226Z" transform="translate(649.243 241.142)"/>
    <path id="Path_1015" data-name="Path 1015" d="M3558.006,5638.781c-.339,18.963-.815,19.2-40.135,14.479,7.884-1.02,16.21-.818,23.482-3.434C3547.947,5647.447,3553.385,5641.941,3558.006,5638.781Z" transform="translate(687.81 12.158)"/>
    <path id="Path_1016" data-name="Path 1016" d="M3303.2,5650.86c-12.574,5.846-21.207,26.406-39.082,14.92C3277.782,5660.546,3290.492,5655.687,3303.2,5650.86Z" transform="translate(79.197 41.133)"/>
    <path id="Path_1017" data-name="Path 1017" d="M3231.1,5738.83c12.574.578,24.809,1.088,35.344,1.563C3255.671,5743.18,3242.825,5755.959,3231.1,5738.83Z" transform="translate(0 252.128)"/>
    <path id="Path_1018" data-name="Path 1018" d="M3249.011,5739.982c-2.379-.1-4.894-.24-7.511-.342A10.905,10.905,0,0,1,3249.011,5739.982Z" transform="translate(24.944 252.879)"/>
  </g>
</svg>
