<svg xmlns="http://www.w3.org/2000/svg" width="225.328" height="281.094" viewBox="0 0 225.328 281.094">
  <g id="Group_2205" data-name="Group 2205" transform="translate(-847 -16740.055)">
    <path id="Path_1069" data-name="Path 1069" d="M3219.569,6792.963c-.943-3.795-2.588-7.567-2.7-11.384-.9-28.91-23.646-50.647-53.5-50.779-29.393-.109-53.126,22.264-54,50.735a20.885,20.885,0,0,1-3.422,10.858c-18.8-33.78-19.786-68.612-6.931-106.363,4.014,12.986,10.726,21.321,22.549,24.743,12.217,3.531,21.957-1.25,31.3-10,3.247,8.444,6.186,16.034,10.375,26.936,4.3-10.813,7.3-18.382,10.332-25.971,18.14,14.214,37.464,17.021,54.968-13.161C3240.758,6724.921,3239.047,6759.14,3219.569,6792.963Z" transform="translate(-2204.086 10145.295)" fill="#1e2639"/>
    <path id="Path_1070" data-name="Path 1070" d="M3197.09,6756.607c-15.925-5.572-28.45-2.61-38.474,10.66-5,6.624-13.117,6.624-17.7.768-10.419-13.337-22.725-17.307-38.408-11.67-3.269-23.931,17.306-46.063,43.475-47.335C3175.44,6707.582,3197.769,6727.96,3197.09,6756.607Z" transform="translate(-2190.073 10172.658)" fill="#1e2639"/>
    <path id="Path_1071" data-name="Path 1071" d="M3229.2,6740.281v32.376h-12.9q-62.943.032-125.885.088v-9.41q60.836-.1,121.673-.176c.088-1.1.2-2.193.285-3.29q-61-1.184-121.958-2.347v-6.471q60.869-.23,121.717-.417c.11-1.141.2-2.259.285-3.4l-122-.855v-6.032Z" transform="translate(-2204.09 10210.041)" fill="#1e2639"/>
    <path id="Path_1072" data-name="Path 1072" d="M3229.378,6757.481v33.1h-41.961l-97-.2v-8.117q61-.524,121.98-1.009c.066-1.185.11-2.368.176-3.531l-122.156-1.381v-6.56l121.563.066c.066-1.075.131-2.172.2-3.269q-60.869-.921-121.761-1.887v-6.471Q3159.91,6757.9,3229.378,6757.481Z" transform="translate(-2204.09 10230.569)" fill="#1e2639"/>
    <path id="Path_1073" data-name="Path 1073" d="M3163.269,6774.542c-1.931-17.7-4.036-36.171-5.879-54.684-.175-1.8.965-3.992,2.084-5.615,10.9-15.662,21.913-31.236,32.6-46.393C3204.331,6699.3,3190.073,6752.694,3163.269,6774.542Z" transform="translate(-2124.184 10123.598)" fill="#1e2639"/>
    <path id="Path_1074" data-name="Path 1074" d="M3110.526,6721.2c-1.755,17.7-3.729,35.381-5.637,53.169-26.146-19.937-39.22-69.444-28.822-106.69,10.506,14.981,21.957,31.17,33.209,47.489A9.786,9.786,0,0,1,3110.526,6721.2Z" transform="translate(-2225.49 10123.396)" fill="#1e2639"/>
    <path id="Path_1075" data-name="Path 1075" d="M3199.22,6644.421c-9.322,9.345-17.548,17.021-31.433,15.157a124.646,124.646,0,0,0-29.437-.066c-14.872,1.515-27.2-2.149-36.851-15.091Z" transform="translate(-2190.866 10095.634)" fill="#1e2639"/>
    <path id="Path_1076" data-name="Path 1076" d="M3144.5,6715.824c-3.114.2-6.1.373-9.541.571,2.281-21.826-8.533-35.952-24.568-47.271,6.888-5.2,48.783-5.878,59.159-.549C3152.593,6680.247,3142.283,6694.262,3144.5,6715.824Z" transform="translate(-2180.256 10120.064)" fill="#1e2639"/>
    <rect id="Rectangle_1995" data-name="Rectangle 1995" width="58.566" height="18.074" transform="translate(929.871 16761.572)" fill="#1e2639"/>
    <path id="Path_1077" data-name="Path 1077" d="M3152.58,6673.1c-13.183-.044-24.479,11.121-24.479,24.261a23.978,23.978,0,0,0,24.26,24.193c13.973,0,24.172-10.111,24.238-24A23.986,23.986,0,0,0,3152.58,6673.1Zm.373,41.874c-9.98.24-18.447-8.029-18.228-17.855.2-9.168,8.664-17.46,17.811-17.437,9.344.021,17.35,8.05,17.46,17.525A17.4,17.4,0,0,1,3152.952,6714.975Z" transform="translate(-2159.119 10129.863)" fill="#1e2639"/>
    <path id="Path_1078" data-name="Path 1078" d="M3121.438,6673.1a24.664,24.664,0,0,0-24.457,24.3,24.126,24.126,0,0,0,24.348,24.149c13.884,0,24.15-10.178,24.216-24.062A24.03,24.03,0,0,0,3121.438,6673.1Zm-.043,41.853a17.851,17.851,0,0,1-17.7-17.242c-.132-9.65,8.708-18.358,18.272-18.029a17.663,17.663,0,0,1,16.846,18.052A17.113,17.113,0,0,1,3121.394,6714.953Z" transform="translate(-2196.261 10129.863)" fill="#1e2639"/>
    <path id="Path_1079" data-name="Path 1079" d="M3156.81,6771.55v-31.06c9.059,1.25,12.635,7.15,12.985,14.652C3170.168,6762.886,3166.615,6768.9,3156.81,6771.55Z" transform="translate(-2124.854 10210.293)" fill="#1e2639"/>
    <path id="Path_1080" data-name="Path 1080" d="M3169.637,6772.795c.373,8.028-3.9,13.314-12.657,16.847v-31.631C3165.579,6759.963,3169.308,6765.381,3169.637,6772.795Z" transform="translate(-2124.651 10231.202)" fill="#1e2639"/>
    <path id="Path_1081" data-name="Path 1081" d="M3131.619,6741.178c-.614,1.01-1.25,2.019-1.865,3.027-2.939-2.237-5.878-4.475-8.576-6.537-2.479,1.514-6.076,5.287-9.7,5.331-2.193,0-4.453-5.747-7.173-9.563C3116.419,6730.014,3124.951,6732.821,3131.619,6741.178Z" transform="translate(-2187.512 10200.172)" fill="#1e2639"/>
    <path id="Path_1082" data-name="Path 1082" d="M3161.673,6667.19c-1.645,11.253-1.645,11.231-9.893,9.257a53.218,53.218,0,0,0-7.436-1.315c-2.3-.22-4.65-.044-6.954-.044-.153-.966-.307-1.931-.461-2.874C3144.981,6670.568,3153.031,6668.946,3161.673,6667.19Z" transform="translate(-2148.581 10122.81)" fill="#1e2639"/>
    <path id="Path_1083" data-name="Path 1083" d="M3124.818,6672.176c-.264,1.229-.526,2.456-.812,3.685-7.019-5.944-19.1,10.046-25.8-8.73C3108.717,6669.127,3116.767,6670.64,3124.818,6672.176Z" transform="translate(-2194.793 10122.739)" fill="#1e2639"/>
    <path id="Path_1084" data-name="Path 1084" d="M3150.225,6732.291c-.7,7.392-1.47,13.8-11.275,10.046-1.031-3.114-2.018-6.143-3.29-10.046Z" transform="translate(-2150.097 10200.506)" fill="#1e2639"/>
    <circle id="Ellipse_541" data-name="Ellipse 541" cx="8.75" cy="8.75" r="8.75" transform="translate(916.251 16818.426)" fill="#1e2639"/>
    <circle id="Ellipse_542" data-name="Ellipse 542" cx="8.75" cy="8.75" r="8.75" transform="translate(984.489 16818.426)" fill="#1e2639"/>
  </g>
</svg>
