<svg id="Group_2088" data-name="Group 2088" xmlns="http://www.w3.org/2000/svg" width="215.321" height="218.78" viewBox="0 0 215.321 218.78">
  <path id="Path_709" data-name="Path 709" d="M3378.234,4777.688c-4.484,16.05-8.911,31.9-13.549,48.49-14.6-4.412-29.024-8.766-44.338-13.379,4.759-3.724,8.911-6.977,13.217-10.345-5.7-11.534-11.858-22.541-20.939-31.605a33.588,33.588,0,0,0-5.018-4.055c-5.673-3.829-13.128-4.354-17.8,3.853-4.727,8.3-10.287,16.122-15.217,24.313-1.643,2.736-3.3,3.173-5.868,1.741-8.539-4.784-17.086-9.559-26.038-14.569,7.543-11.971,13.735-23.6,21.635-33.929,14.634-19.118,38.138-25.479,61.6-12.108,6.014,3.423,11.412,7.43,15.168,13.549,4.638,7.576,9.9,14.771,14.658,22.274,2.218,3.488,3.885,7.325,6.313,11.986C3366.887,4782.052,3372.3,4779.971,3378.234,4777.688Z" transform="translate(-3190.926 -4729)" fill="#474747"/>
  <path id="Path_710" data-name="Path 710" d="M3482.943,5068.212c.041,13.29-5.018,24.363-14.974,33.152-9.623,8.49-20.623,13.371-33.687,13.493-9.421.088-18.834.769-28.263,1.068a49.161,49.161,0,0,1-6.507-.769c-.858,5.576-1.724,11.21-2.468,16-11.47-11.024-23.44-22.518-35.646-34.245,11.153-10.546,22.088-20.882,33.654-31.809.915,6.062,1.692,11.193,2.517,16.633,13.541.4,26.9,1.214,39.757-3.286a26.561,26.561,0,0,0,8.814-5.415c3.456-3.124,3.869-7.309,1.708-11.461-4.841-9.316-9.729-18.607-14.78-27.81-1.238-2.25-1.06-3.845,1-5.1,8.563-5.237,17.175-10.409,26.151-15.832,5.892,11.008,11.234,21.238,16.818,31.339A48.933,48.933,0,0,1,3482.943,5068.212Z" transform="translate(-3267.622 -4912.378)" fill="#474747"/>
  <path id="Path_711" data-name="Path 711" d="M3177.831,5070.049c-12.295-.437-23.861-.728-35.411-1.295-16.382-.8-30.02-7.406-38.51-21.595-8.515-14.229-10.036-29.72-3.092-45.236,4.128-9.2,8.879-18.138,13.541-27.09,1.465-2.825,3.545-5.334,5.884-8.782-4.111-3.327-8.539-6.913-13.581-10.992,16.366-4.217,32.367-8.345,48.741-12.57,3.472,14.828,6.9,29.429,10.554,45.042-5.609-2.25-10.368-4.159-15.548-6.24-8.054,12.457-16.026,24.9-17.871,40.065-.971,8.012,3.618,13.193,11.623,13.582,9.963.477,19.918,1.011,29.89,1.278,2.655.073,3.747,1.108,3.756,3.5C3177.856,5049.645,3177.831,5059.576,3177.831,5070.049Z" transform="translate(-3096.439 -4866.931)" fill="#474747"/>
</svg>
