<svg xmlns="http://www.w3.org/2000/svg" width="547.768" height="734.978" viewBox="0 0 547.768 734.978">
  <g id="Group_2477" data-name="Group 2477" transform="translate(-5625.844 -4470.72)" opacity="0.1">
    <path id="Path_2009" data-name="Path 2009" d="M6052.889,4925.681c10.245-10.585,20.854-20.8,31.17-30.947,1.3.961,1.548,1.055,1.605,1.2,3.436,10.574,6.507,21.288,10.363,31.709,7.925,21.464,4.091,17.83,24.664,17.654,17.021-.164,32.472,3.189,46.4,13.024,2,1.407,4.045,2.755,6.214,4.232a5.883,5.883,0,0,0,.281-1.559,25.653,25.653,0,0,0-.773-4.021c-8.336-25.473-11.923-51.5-9.191-78.283a43.965,43.965,0,0,0-.117-6.448c-.715-16.611-1.477-33.351-7.561-49-10.562-27.149-30.689-46.2-54.6-61.625-8.44-5.439-17.525-9.3-28.053-8.815-2.168.094-4.595-2.11-6.623-3.622-1.91-1.418-3.153-4.115-5.205-4.924-11.979-4.689-24.288-8.557-36.141-13.528-12.953-5.416-12.719-5.755-5.849-17.936q42.57-75.522,85.141-151.033c2.332-4.115,2.239-6.53-2.1-8.875-5.146-2.79-9.952-6.178-14.993-9.144-6.67-3.927-6.67-3.845-10.386,2.86-19.178,34.675-37.958,69.6-57.757,103.909-11.945,20.725-20.867,43.233-36.692,61.754-4.36,5.1-6.529,12.051-10.21,19.131-4.736-11.418-4.982-21.054,2.6-29.564,6.494-7.291,2.216-17.255-5.463-25.168a75.368,75.368,0,0,1-5.475,6.846c-7.15,7.162-13.821,14.993-21.8,21.077-38.028,28.966-90.932,4.653-98.868-29.107-3.7,7.585-10.269,13.446-7.2,22.4,4.971,14.5,2.72,29.33,2.215,44.065-.07,1.887-1.746,4.677-3.411,5.4-16.563,7.315-33.292,14.3-50.254,21.488-3.024-12.285-9.694-21.077-20.983-26.165-10.645-4.794-21.711-5.6-33.233-4.9-38.157,2.3-62.235,23.257-75.728,57.5-5.053,12.836-8.019,26.5-11.782,39.833a20.136,20.136,0,0,0-.27,6.283c.88,17.044.763,33.667-7.221,49.728-4.7,9.471-6.541,20.374-9.671,30.631.563.234,1.125.469,1.676.715,24.466-19.834,51.778-20.034,80.358-11.148,4.29-14.442,8.394-28.228,12.438-41.837.785,0,1.008-.059,1.126.011a7.676,7.676,0,0,1,1.406,1.008c11.852,11.559,22.062,23.809,20.854,42.025-.187,2.86,1.923,7.514,4.256,8.616,11.628,5.474,23.69,10,35.578,14.934,7.83,3.247,15.6,6.635,24.84,10.586,3.012-11.7,5.778-22.461,8.616-33.48,21.264,8.018,43.76,16.505,66.571,25.1-3.07,5.721-5.791,10.785-9,16.763,8.439-1.254,15.719-2.685,23.069-3.282,5.064-.41,8.089-2.274,10.3-6.963,1.1-2.333,4.162-4.49,6.776-5.252,16.118-4.654,32.378-8.874,48.578-13.27,7.068-1.923,14.125-3.9,21.616-5.979.914,9.765,1.583,18.7,2.708,27.583.281,2.274,1.418,5.192,3.142,6.388a53.312,53.312,0,0,0,11.629,5.627c7.96,2.965,13.563,7.959,14.454,16.7.668,6.588.434,13.258.914,19.881.258,3.552-1,5.087-4.443,6.072-9.94,2.848-19.752,6.143-29.61,9.237-3.435,1.066-6.881,2.1-11.09,3.376,1.266-3.353,2.192-5.7,3.036-8.065,4.6-12.79,8.335-25.778,5.264-39.505-2.755-12.3-8.171-23.8-20.937-27.63-11.887-3.563-24.465-3.751-33.608,9.753,2.661-.809,4.5-1.23,6.236-1.934,9.1-3.634,14.571-1.946,17.384,7.362a92.322,92.322,0,0,1,3.541,24.113,47.071,47.071,0,0,1-32.39,45.108c-23.75,8.136-46.891,18.275-69.737,28.755-24.008,11.019-47.652,22.531-74.7,23.809-11.77.551-23.527,1.348-34.711,1.993,1.091,19.635,2.157,39.7,3.4,59.761.094,1.372,1.277,3.47,2.415,3.845,18.662,6.26,37.395,12.309,56.619,18.569,4.713-10.68,9.179-20.62,13.5-30.619q8-18.552,15.79-37.2c2.134-5.123,5.1-7.081,10.926-5.381,9.365,2.731,18.967,4.6,28.462,6.9,7.49,1.829,14.958,3.763,22.319,5.627v81.319l1.454.036c.527-26.739,1.043-53.467,1.583-80.862,30.092,7.42,59.2,14.583,88.177,21.722-1.9,23.727-3.74,46.75-5.568,69.608,15.849,2.72,59.363.926,67.428-2.508-.387-2.239-.738-4.537-1.184-6.811a136.758,136.758,0,0,1-1.1-48.93c2.45-14.981,2.239-14.97-13.41-14.547-10.656.293-21.534,1.665-31.968.14a976.926,976.926,0,0,1-139.287-31.146c-5.545-1.665-10.961-3.763-16.623-5.732.774-4.115,1.817-7.526,1.97-10.972.223-5.451,3.119-8.124,7.808-10.339,15.872-7.526,31.416-15.755,47.359-23.152,17.83-8.265,35.448-17.432,55.8-18.077,3.095-.093,6.354.176,9.237-.727,22.52-6.986,44.909-14.4,67.452-21.277a200.735,200.735,0,0,1,25.426-5.814c12.555-2.11,26.013-.246,36.949-8.967,8.452-6.752,18.428-7.937,28.768-7.819,22.883.246,34.64,9.694,39.247,32.213,1.583,7.749,2.1,15.708,3.2,24.395,4.467-16.06,6.682-31.545-2.907-45.612-12.777-18.756-31.944-24.16-53.443-21.968-16.575,1.688-30.162,10.222-41.791,21.792-2.72,2.7-6.354,3.833-8.159,1.559-4.126-5.24-9.119-11.136-10.011-17.3-1.77-12.273-1.148-24.911-1.207-37.406C6050.7,4930.687,6051.259,4927.357,6052.889,4925.681Zm-210.643-196.293c1.324-5.018.2-10.668.2-16.775,34.874,34.616,83.077,32.577,118.1,6.178,2.345,2.6,5.264,4.97,7.046,8.018,3.07,5.251,1.348,10.046-.88,15.755-6.764,17.349-20.667,22.66-37.043,26.048-25.332,5.24-48.121-1.735-70.8-11.969C5846.536,4751.074,5838.189,4744.72,5842.246,4729.387Zm109.641,36.34c-3.833,7.807-7.2,14.677-10.926,22.3-10.89-.68-22.671-1.419-35.155-2.2.6-4.571,1.066-8.206,1.641-12.648C5922.909,4775.117,5937.339,4771.951,5951.887,4765.727Zm-164.057,5.626q24.265-10.955,48.8-21.3c1.7-.715,4.419-.141,6.236.738,12.309,5.874,24.23,12.6,36.809,17.807,7.76,3.212,16.436,4.208,25.438,6.389-.374,2.86-.867,6.6-1.418,10.75-40.267-2.532-79.947-5.041-119.628-7.538-.445-.621-.9-1.23-1.349-1.84C5784.407,4774.648,5785.778,4772.268,5787.83,4771.354ZM5898.1,4912.188c-2.824,5.556-6.283,10.808-8.921,16.446-2.121,4.525-4.442,5.78-9.413,3.88-20.584-7.866-41.779-14.325-61.871-23.27-14.759-6.564-28.264-15.989-42.1-24.523-6.271-3.868-11.851-8.862-18.028-12.906a11.09,11.09,0,0,1-5.264-10.375c.246-7.983,1.289-15.943,1.324-23.926.071-15.99,11.2-26.845,17.889-39.763,1.7-3.271,4.654-5.967,5.967-9.343,2.626-6.788,6.835-8.018,13.915-7.443,35.977,2.918,72.023,5.123,108.035,7.584,1.137.082,2.25.34,3.938.6,0,2.1.059,3.986,0,5.873q-1.635,55.02-3.353,110.04A17.708,17.708,0,0,1,5898.1,4912.188Zm5.451-9.859c-.445-.094-.891-.187-1.324-.27,1.137-37.4,2.262-74.8,3.423-112.923,12.438.809,24.2,1.57,36.188,2.344.141,2.357.27,4.08.352,5.8.258,5.521,2.509,9.5,7.89,11.828,5.509,2.392,6.037,5.416,2.145,10.175a18.98,18.98,0,0,1-8.24,6.107c-4.525,1.829-8.124,6.928-11.16,11.277-4.525,6.47-8.792,13.317-8.476,22.847,1.641-1.125,2.485-1.711,4.548-3.13C5920,4872.519,5911.772,4887.418,5903.555,4902.33Zm53.924-53.432c-.68.926-1.372,1.864-2.052,2.79-6.553-2.649-13.094-5.31-20.057-8.147,1.078-1.981,2.051-3.763,3.294-6.037C5945.146,4841.548,5951.934,4844.432,5957.479,4848.9Zm85.223,39.482c-12.414,5.134-25.3,9.144-37.946,13.727-6.083,2.2-11.921,4.654-15.907,10.351-1.324,1.887-3.962,3.282-6.283,4-22,6.752-44.053,13.305-66.115,19.881a31.531,31.531,0,0,1-4.337.645c.645-1.559,1.008-2.649,1.523-3.669q17.215-33.55,34.453-67.088c.293.4.586.809.867,1.207,1.606-.434,3.95-.352,4.678-1.4,5.6-7.983,11.031-16.1,16.118-24.406.645-1.055-.961-3.493-1.523-5.3-.646-.012-1.29-.036-1.935-.047,3.563-4.525,7.08-9.1,10.761-13.54a4.136,4.136,0,0,1,2.907-1.184c17.291.375,32.155-4.466,42.693-19.167,2.7-3.763,5.733-7.269,8.569-10.832,1.606,3.587,3.06,6.823,4.514,10.07,7.69,17.255,16.317,34.171,22.824,51.873C6065.9,4873.5,6062.4,4880.232,6042.7,4888.38Z" transform="translate(0.015 12.124)"/>
    <path id="Path_2010" data-name="Path 2010" d="M5937.6,4545.375c-.621-21.944-9.155-43.057-8.428-65.177-.458,5.791-.914,11.569-1.266,17.373-.2,3.294-1.571,4.689-4.736,6.131-10.269,4.654-20.256,9.94-30.162,15.333a10.762,10.762,0,0,0-4.571,5.721q-8.194,25.919-15.849,52.013a23.16,23.16,0,0,0,2.239,18.615c4.5,7.983,7.924,16.634,12.918,24.29,5.474,8.4,12.285,15.942,18.345,23.984a7.227,7.227,0,0,1,1.278,4.619c-1.723,19.248-3.622,38.485-5.427,57.733-.176,1.84-.023,3.716-.023,5.58.527-.011,1.055-.011,1.57-.023.258-2.075.586-4.15.774-6.224q2.128-23.633,4.22-47.266c.6-6.846.211-13.833,7.314-18.346,2.4-1.536,4.01-4.841,5.206-7.667,5.533-13.094,11.054-26.224,16.013-39.54a38.8,38.8,0,0,0,1.993-13.8C5938.857,4567.6,5937.918,4556.5,5937.6,4545.375Zm-23.257,45.987a23.011,23.011,0,0,1-11.406,3.072c-7.339-.118-14.63-1.418-20.6-8.054,9.367-7.842,18.827-11.781,30.092-7.314,2.286.9,5.416,3.188,5.568,5.041C5918.189,4586.5,5916.4,4590.179,5914.345,4591.362Zm14.829-111.164q.281-3.464.551-6.928C5929.432,4475.591,5929.255,4477.9,5929.174,4480.2Z" transform="translate(42.329 0.439)"/>
    <path id="Path_2011" data-name="Path 2011" d="M5868.96,4579.293c-4.678-17.3-9.988-34.44-15.5-51.5a14.351,14.351,0,0,0-6.131-7.315c-10.444-5.943-21.206-11.312-32.752-17.373-.5-9.777-1.1-21.077-1.688-32.389-.3,9.964-.293,19.893-.317,29.833a25.535,25.535,0,0,1-.152,4.642c-2.4,12.777-5.264,25.485-7.256,38.321-4.419,28.6-2.755,56.456,11.757,82.387,3.142,5.6,6.682,10.972,9.847,16.564,1.56,2.766,3.458,5.686,3.833,8.71,1.278,10.058,1.876,20.209,2.825,30.314.809,8.592,1.735,17.173,2.614,25.766.551-.059,1.1-.105,1.653-.165-1.864-19.788-3.716-39.563-5.427-57.792,5.3-5.568,10.315-9.319,13.3-14.29,8.124-13.528,15.791-27.384,22.719-41.557C5870.214,4589.516,5870.144,4583.7,5868.96,4579.293Zm-44.147,13.364a14.937,14.937,0,0,1-5.216-8.44c-.247-1.09,3.962-3.8,6.505-4.748a25.452,25.452,0,0,1,27.806,7.514C5848.434,4594.087,5831.835,4597.675,5824.813,4592.658Z" transform="translate(30.519 0)"/>
    <path id="Path_2012" data-name="Path 2012" d="M5814.059,4706.952c-4.173,4.479-7.573,10.41-12.672,13.094-10.69,5.615-11.078,4.924-17.455-5.38q-46.615-75.453-93.3-150.834c-2.5-4.033-2.532-6.377,1.595-9,4.384-2.79,8.252-6.354,12.578-9.225,5.721-3.787,7-3.4,10.62,2.4q16.425,26.323,32.8,52.67,31.247,50.166,62.493,100.356C5811.738,4702.662,5812.617,4704.385,5814.059,4706.952Z" transform="translate(10.864 12.473)"/>
    <path id="Path_2013" data-name="Path 2013" d="M5834.043,4897.031c-.059.445-.117.879-.188,1.325-13.809-2.1-27.583-4.466-41.427-6.236-19.143-2.45-38.309-4.841-57.534-6.413-6.436-.539-13.165,1.126-19.612,2.474-4.795,1.008-8.534-.27-12.79-2.251a209.908,209.908,0,0,0-27.5-11.089c-13.446-4.1-23.926,1.254-32.038,12.25-6.424,8.7-10.9,17.9-10.269,29.154.422,7.385.082,14.817.082,22.46-8.64-10.761-9.32-37.922-1.325-54.334,8.7-17.865,24.852-21.862,42.623-22.121,18.627-.27,37.454,9.823,44.042,23.621,19.4-4.525,38.942-1.418,58.4,1.489C5795.746,4890.244,5814.877,4893.784,5834.043,4897.031Z" transform="translate(0 67.443)"/>
  </g>
</svg>
