<svg xmlns="http://www.w3.org/2000/svg" width="114" height="114" viewBox="0 0 114 114">
  <g id="Group_1837" data-name="Group 1837" transform="translate(5429.757 -212.244)" opacity="0.2">
    <circle id="Ellipse_9" data-name="Ellipse 9" cx="4" cy="4" r="4" transform="translate(-5429.757 212.244)"/>
    <ellipse id="Ellipse_9-2" data-name="Ellipse 9" cx="3.5" cy="4" rx="3.5" ry="4" transform="translate(-5413.757 212.244)"/>
    <circle id="Ellipse_9-3" data-name="Ellipse 9" cx="3.5" cy="3.5" r="3.5" transform="translate(-5397.757 212.244)"/>
    <ellipse id="Ellipse_9-4" data-name="Ellipse 9" cx="3.5" cy="4" rx="3.5" ry="4" transform="translate(-5383.757 212.244)"/>
    <ellipse id="Ellipse_9-5" data-name="Ellipse 9" cx="3.5" cy="4" rx="3.5" ry="4" transform="translate(-5368.757 212.244)"/>
    <circle id="Ellipse_9-6" data-name="Ellipse 9" cx="4" cy="4" r="4" transform="translate(-5353.757 212.244)"/>
    <ellipse id="Ellipse_9-7" data-name="Ellipse 9" cx="3.5" cy="4" rx="3.5" ry="4" transform="translate(-5338.757 212.244)"/>
    <circle id="Ellipse_9-8" data-name="Ellipse 9" cx="4" cy="4" r="4" transform="translate(-5323.757 212.244)"/>
    <ellipse id="Ellipse_9-9" data-name="Ellipse 9" cx="4" cy="3.5" rx="4" ry="3.5" transform="translate(-5429.757 228.244)"/>
    <circle id="Ellipse_9-10" data-name="Ellipse 9" cx="3.5" cy="3.5" r="3.5" transform="translate(-5413.757 228.244)"/>
    <circle id="Ellipse_9-11" data-name="Ellipse 9" cx="3.5" cy="3.5" r="3.5" transform="translate(-5397.757 228.244)"/>
    <circle id="Ellipse_9-12" data-name="Ellipse 9" cx="3.5" cy="3.5" r="3.5" transform="translate(-5383.757 228.244)"/>
    <circle id="Ellipse_9-13" data-name="Ellipse 9" cx="3.5" cy="3.5" r="3.5" transform="translate(-5368.757 228.244)"/>
    <ellipse id="Ellipse_9-14" data-name="Ellipse 9" cx="4" cy="3.5" rx="4" ry="3.5" transform="translate(-5353.757 228.244)"/>
    <circle id="Ellipse_9-15" data-name="Ellipse 9" cx="3.5" cy="3.5" r="3.5" transform="translate(-5338.757 228.244)"/>
    <ellipse id="Ellipse_9-16" data-name="Ellipse 9" cx="4" cy="3.5" rx="4" ry="3.5" transform="translate(-5323.757 228.244)"/>
    <ellipse id="Ellipse_9-17" data-name="Ellipse 9" cx="4" cy="3.5" rx="4" ry="3.5" transform="translate(-5429.757 244.244)"/>
    <circle id="Ellipse_9-18" data-name="Ellipse 9" cx="3.5" cy="3.5" r="3.5" transform="translate(-5413.757 244.244)"/>
    <circle id="Ellipse_9-19" data-name="Ellipse 9" cx="3.5" cy="3.5" r="3.5" transform="translate(-5397.757 244.244)"/>
    <circle id="Ellipse_9-20" data-name="Ellipse 9" cx="3.5" cy="3.5" r="3.5" transform="translate(-5383.757 244.244)"/>
    <circle id="Ellipse_9-21" data-name="Ellipse 9" cx="3.5" cy="3.5" r="3.5" transform="translate(-5368.757 244.244)"/>
    <ellipse id="Ellipse_9-22" data-name="Ellipse 9" cx="4" cy="3.5" rx="4" ry="3.5" transform="translate(-5353.757 244.244)"/>
    <circle id="Ellipse_9-23" data-name="Ellipse 9" cx="3.5" cy="3.5" r="3.5" transform="translate(-5338.757 244.244)"/>
    <ellipse id="Ellipse_9-24" data-name="Ellipse 9" cx="4" cy="3.5" rx="4" ry="3.5" transform="translate(-5323.757 244.244)"/>
    <ellipse id="Ellipse_9-25" data-name="Ellipse 9" cx="4" cy="3.5" rx="4" ry="3.5" transform="translate(-5429.757 258.244)"/>
    <circle id="Ellipse_9-26" data-name="Ellipse 9" cx="3.5" cy="3.5" r="3.5" transform="translate(-5413.757 258.244)"/>
    <circle id="Ellipse_9-27" data-name="Ellipse 9" cx="3.5" cy="3.5" r="3.5" transform="translate(-5397.757 258.244)"/>
    <circle id="Ellipse_9-28" data-name="Ellipse 9" cx="3.5" cy="3.5" r="3.5" transform="translate(-5383.757 258.244)"/>
    <circle id="Ellipse_9-29" data-name="Ellipse 9" cx="3.5" cy="3.5" r="3.5" transform="translate(-5368.757 258.244)"/>
    <ellipse id="Ellipse_9-30" data-name="Ellipse 9" cx="4" cy="3.5" rx="4" ry="3.5" transform="translate(-5353.757 258.244)"/>
    <circle id="Ellipse_9-31" data-name="Ellipse 9" cx="3.5" cy="3.5" r="3.5" transform="translate(-5338.757 258.244)"/>
    <ellipse id="Ellipse_9-32" data-name="Ellipse 9" cx="4" cy="3.5" rx="4" ry="3.5" transform="translate(-5323.757 258.244)"/>
    <ellipse id="Ellipse_9-33" data-name="Ellipse 9" cx="4" cy="3.5" rx="4" ry="3.5" transform="translate(-5429.757 273.244)"/>
    <circle id="Ellipse_9-34" data-name="Ellipse 9" cx="3.5" cy="3.5" r="3.5" transform="translate(-5413.757 273.244)"/>
    <circle id="Ellipse_9-35" data-name="Ellipse 9" cx="3.5" cy="3.5" r="3.5" transform="translate(-5397.757 273.244)"/>
    <circle id="Ellipse_9-36" data-name="Ellipse 9" cx="3.5" cy="3.5" r="3.5" transform="translate(-5383.757 273.244)"/>
    <circle id="Ellipse_9-37" data-name="Ellipse 9" cx="3.5" cy="3.5" r="3.5" transform="translate(-5368.757 273.244)"/>
    <ellipse id="Ellipse_9-38" data-name="Ellipse 9" cx="4" cy="3.5" rx="4" ry="3.5" transform="translate(-5353.757 273.244)"/>
    <circle id="Ellipse_9-39" data-name="Ellipse 9" cx="3.5" cy="3.5" r="3.5" transform="translate(-5338.757 273.244)"/>
    <ellipse id="Ellipse_9-40" data-name="Ellipse 9" cx="4" cy="3.5" rx="4" ry="3.5" transform="translate(-5323.757 273.244)"/>
    <circle id="Ellipse_9-41" data-name="Ellipse 9" cx="4" cy="4" r="4" transform="translate(-5429.757 288.244)"/>
    <ellipse id="Ellipse_9-42" data-name="Ellipse 9" cx="3.5" cy="4" rx="3.5" ry="4" transform="translate(-5413.757 288.244)"/>
    <circle id="Ellipse_9-43" data-name="Ellipse 9" cx="3.5" cy="3.5" r="3.5" transform="translate(-5397.757 288.244)"/>
    <ellipse id="Ellipse_9-44" data-name="Ellipse 9" cx="3.5" cy="4" rx="3.5" ry="4" transform="translate(-5383.757 288.244)"/>
    <ellipse id="Ellipse_9-45" data-name="Ellipse 9" cx="3.5" cy="4" rx="3.5" ry="4" transform="translate(-5368.757 288.244)"/>
    <circle id="Ellipse_9-46" data-name="Ellipse 9" cx="4" cy="4" r="4" transform="translate(-5353.757 288.244)"/>
    <ellipse id="Ellipse_9-47" data-name="Ellipse 9" cx="3.5" cy="4" rx="3.5" ry="4" transform="translate(-5338.757 288.244)"/>
    <circle id="Ellipse_9-48" data-name="Ellipse 9" cx="4" cy="4" r="4" transform="translate(-5323.757 288.244)"/>
    <ellipse id="Ellipse_9-49" data-name="Ellipse 9" cx="4" cy="3.5" rx="4" ry="3.5" transform="translate(-5429.757 303.244)"/>
    <circle id="Ellipse_9-50" data-name="Ellipse 9" cx="3.5" cy="3.5" r="3.5" transform="translate(-5413.757 303.244)"/>
    <circle id="Ellipse_9-51" data-name="Ellipse 9" cx="3.5" cy="3.5" r="3.5" transform="translate(-5397.757 303.244)"/>
    <circle id="Ellipse_9-52" data-name="Ellipse 9" cx="3.5" cy="3.5" r="3.5" transform="translate(-5383.757 303.244)"/>
    <circle id="Ellipse_9-53" data-name="Ellipse 9" cx="3.5" cy="3.5" r="3.5" transform="translate(-5368.757 303.244)"/>
    <ellipse id="Ellipse_9-54" data-name="Ellipse 9" cx="4" cy="3.5" rx="4" ry="3.5" transform="translate(-5353.757 303.244)"/>
    <circle id="Ellipse_9-55" data-name="Ellipse 9" cx="3.5" cy="3.5" r="3.5" transform="translate(-5338.757 303.244)"/>
    <ellipse id="Ellipse_9-56" data-name="Ellipse 9" cx="4" cy="3.5" rx="4" ry="3.5" transform="translate(-5323.757 303.244)"/>
    <circle id="Ellipse_9-57" data-name="Ellipse 9" cx="4" cy="4" r="4" transform="translate(-5429.757 318.244)"/>
    <ellipse id="Ellipse_9-58" data-name="Ellipse 9" cx="3.5" cy="4" rx="3.5" ry="4" transform="translate(-5413.757 318.244)"/>
    <circle id="Ellipse_9-59" data-name="Ellipse 9" cx="3.5" cy="3.5" r="3.5" transform="translate(-5397.757 318.244)"/>
    <ellipse id="Ellipse_9-60" data-name="Ellipse 9" cx="3.5" cy="4" rx="3.5" ry="4" transform="translate(-5383.757 318.244)"/>
    <ellipse id="Ellipse_9-61" data-name="Ellipse 9" cx="3.5" cy="4" rx="3.5" ry="4" transform="translate(-5368.757 318.244)"/>
    <circle id="Ellipse_9-62" data-name="Ellipse 9" cx="4" cy="4" r="4" transform="translate(-5353.757 318.244)"/>
    <ellipse id="Ellipse_9-63" data-name="Ellipse 9" cx="3.5" cy="4" rx="3.5" ry="4" transform="translate(-5338.757 318.244)"/>
    <circle id="Ellipse_9-64" data-name="Ellipse 9" cx="4" cy="4" r="4" transform="translate(-5323.757 318.244)"/>
  </g>
</svg>
