<svg id="Group_2330" data-name="Group 2330" xmlns="http://www.w3.org/2000/svg" width="301.054" height="303.714" viewBox="0 0 301.054 303.714">
  <path id="Path_1403" data-name="Path 1403" d="M2134.594,4468.134c0,3.881-1.228,8.189.214,9.452,6.5,5.75,3.667,12.96,3.934,19.528.446,10.342.125,20.721.125,31.1v28.98c4.076.641,6.924,1.085,10.057,1.566.392,4.254.766,8.241,1.175,12.655,3.507-.212,6.337-.39,9.559-.6.231-4.307.445-8.027.73-12.869h104.277c4.29-30.476,8.437-59.864,12.656-89.806Z" transform="translate(-2134.106 -4273.191)" fill="#611735"/>
  <path id="Path_1404" data-name="Path 1404" d="M2255.271,4558.067h30.884c.534,4.859.979,8.829,1.46,13.261,3.4-.213,6.213-.391,9.345-.6.338-4.308.641-8.063.944-12.14,3.168-.445,5.981-.854,9.951-1.425,0-23.372-.018-45.854.053-68.336a27.832,27.832,0,0,1,.89-7.8c1.175-3.986,2.884-7.832,4.77-12.78H2243.06C2247.155,4498.416,2251.16,4527.823,2255.271,4558.067Z" transform="translate(-2049.114 -4273.105)" fill="#611735"/>
  <path id="Path_1405" data-name="Path 1405" d="M2199.584,4385.38c1.353-.338,1.656-1.906,1.068-4.184-.534-2.064-1.513-3.524-2.973-3.151-1.424.357-1.656,2.154-1.14,4.2C2197.092,4384.383,2198.2,4385.736,2199.584,4385.38Z" transform="translate(-2085.599 -4343.512)" fill="#611735"/>
  <path id="Path_1406" data-name="Path 1406" d="M2193.063,4394.655c1.852-.48,2.261-3.061,1.068-7.706-1.157-4.5-2.741-6.64-4.646-6.16-1.762.445-2.385,2.99-1.139,7.708C2189.5,4393.179,2191.212,4395.119,2193.063,4394.655Z" transform="translate(-2092.304 -4341.379)" fill="#611735"/>
  <path id="Path_1407" data-name="Path 1407" d="M2209.03,4388.037c1.353-.356,1.656-1.9,1.068-4.183-.534-2.083-1.46-3.542-2.937-3.168-1.442.374-1.655,2.171-1.139,4.2C2206.538,4387.041,2207.659,4388.394,2209.03,4388.037Z" transform="translate(-2078.205 -4341.453)" fill="#611735"/>
  <path id="Path_1408" data-name="Path 1408" d="M2276.259,4423.859c-5.2-22.2-10.146-43.345-15.272-65.239-34.711,8.1-68.354,15.931-103.066,24.03,5.163,22.181,10.058,43.149,15.2,65.187C2207.62,4439.827,2241.459,4431.958,2276.259,4423.859Zm-25.348-23.978c1.086,4.273-1.032,7.192-3.988,7.939-3.062.8-6.105-.907-7.12-4.716-.926-3.649.587-6.978,4.076-7.868C2247.387,4394.346,2250.021,4396.411,2250.911,4399.881Zm-9.505-13.03-6.355,24.084-2.527.642,6.3-24.066Zm-14.383,3.667c3.524-.89,6.159,1.175,7.049,4.665,1.086,4.253-1.032,7.173-3.987,7.938-3.115.782-6.141-.909-7.12-4.735C2222.021,4394.755,2223.551,4391.409,2227.022,4390.519Zm-15.184,3.9c5.465-1.406,8.847,2.92,10.271,8.492,1.6,6.319.178,11.285-5.038,12.62-5.269,1.354-8.793-2.794-10.306-8.562C2205.252,4401.075,2206.569,4395.752,2211.838,4394.417Zm-10.164,2.956.766,3.026-3.97,19.528-5.037,1.281,4.2-18.549-.018-.07-9.345,2.4-1-3.935Z" transform="translate(-2115.529 -4358.62)" fill="#611735"/>
  <path id="Path_1409" data-name="Path 1409" d="M2254.327,4558.508c-2.332-24.958-3.365-50.021-4.931-74.728,34.836-6.177,38.343-31.366,37.915-52.531,4.521-1.495,9.2-3.043,14.508-4.805-3.649-8.812-7.138-17.2-11.161-26.843-12.834,7.565-24.583,14.988-36.847,21.484-5.946,3.151-6.889,6.426-3.756,11.821,1.3,2.188,2.385,4.521,3.97,7.565,11.57-8.4,12.6,3.257,15.611,8.383,1.531,2.618-.979,8.794-3.382,12.158-2.19,3.08-6.729,4.432-10.146,6.711-1.78,1.174-4.451,2.4-4.86,4.076-2.475,9.684-5.607,19.438-6.213,29.3-1,16.767-.267,33.625-.267,50.554-4.842.426-8.58.747-13.208,1.157,3.436,23.745,6.408,46.922,10.591,69.886.57,3.114,7.565,7.369,11.107,6.942,3.436-.393,6.551-5.911,9.15-9.648.926-1.318.035-4.041-.267-6.087C2259.507,4595.444,2256.072,4577.055,2254.327,4558.508Zm17.284-112.165c.135-.557.283-1.082.439-1.58-.156.5-.3,1.022-.439,1.582Zm8.767-13.142c.063.014.123.034.186.049C2280.5,4433.235,2280.441,4433.215,2280.378,4433.2Zm1.091.376c.031.015.06.035.089.048C2281.53,4433.612,2281.5,4433.592,2281.47,4433.578Zm3.113,4.631c.415.12.839.26,1.27.409h0C2285.422,4438.468,2285,4438.331,2284.583,4438.208Zm-.769-2.762-.032-.037.005,0Zm-4.336-2.378c-.058-.005-.119-.009-.18-.011C2279.359,4433.06,2279.419,4433.063,2279.478,4433.069Zm-1.123.013-.148.016c.032,0,.066-.011.1-.014Zm-4.108,1.069c.07-.024.135-.046.2-.068-.541.19-1.087.387-1.641.58.006,0,.012,0,.012-.013C2273.3,4434.49,2273.783,4434.312,2274.246,4434.151Zm-4.664,1.406a18.111,18.111,0,0,0,1.958-.48c.375-.1.719-.226,1.064-.345a18.931,18.931,0,0,1-3.752.951.137.137,0,0,0,.071-.018Zm-3.524.072a9.041,9.041,0,0,0,2.189.106h.05a9.256,9.256,0,0,1-2.239-.091l0,0h0Zm1.834,3.578c-.178-.373-.392-.782-.606-1.192-.124-.25-.249-.5-.391-.748-.142-.267-.267-.534-.41-.8l-.005-.01c.876,1.69,1.6,3.088,2.271,4.381-.138-.263-.272-.521-.414-.794S2268.052,4439.491,2267.891,4439.207Z" transform="translate(-2058.085 -4326.653)" fill="#611735"/>
  <path id="Path_1410" data-name="Path 1410" d="M2245.086,4535.988c0-17.908.641-35.406-.267-52.833-.463-8.972-3.507-17.872-5.8-26.7-.374-1.442-2.741-3.1-4.414-3.4-16.306-2.884-26.862-12.941-34.374-26.932-2.367-4.379-5.02-8.989-10.841-5.856-6.194,3.311-3.845,8.4-1.317,13.03,10.965,20.008,27.2,32.433,52.6,34.605-1.353,21.111-1.923,41.226-4.077,61.18-2.67,24.423-6.711,48.7-10.057,73.055-.872,6.408,1.477,11.322,8.206,12.621,7.085,1.388,11.82-2.225,12.87-9.043,3.453-22.483,6.444-45.054,9.684-68C2253.007,4537.109,2249.358,4536.593,2245.086,4535.988Z" transform="translate(-2094.057 -4311.336)" fill="#611735"/>
  <path id="Path_1411" data-name="Path 1411" d="M2217.982,4432.7a19.507,19.507,0,0,0,18.62,19.813c11.321.516,20.151-7.477,20.506-18.6a19.62,19.62,0,0,0-18.815-20.578A20.233,20.233,0,0,0,2217.982,4432.7Z" transform="translate(-2068.681 -4315.943)" fill="#611735"/>
  <rect id="Rectangle_2014" data-name="Rectangle 2014" width="28.268" height="28.054" transform="translate(14.924 160.516)" fill="#611735"/>
  <rect id="Rectangle_2015" data-name="Rectangle 2015" width="28.09" height="28.357" transform="translate(84.845 160.356)" fill="#611735"/>
  <rect id="Rectangle_2016" data-name="Rectangle 2016" width="27.894" height="28.552" transform="translate(49.903 160.339)" fill="#611735"/>
  <path id="Path_1412" data-name="Path 1412" d="M2231.219,4485.334c-2.83,19.438-5.643,38.876-8.509,58.583h21.45c-2.955-20.062-5.785-39.3-8.616-58.565C2234.1,4485.352,2232.661,4485.352,2231.219,4485.334Z" transform="translate(-2064.989 -4259.774)" fill="#611735"/>
  <path id="Path_1413" data-name="Path 1413" d="M2230.8,4460.024c17.765.872,19.581-.854,22.3-21.61H2219.82C2220.461,4453.064,2223.843,4459.668,2230.8,4460.024Z" transform="translate(-2067.243 -4296.375)" fill="#611735"/>
  <path id="Path_1414" data-name="Path 1414" d="M2217,4459.115c-4.646-19.83-8.936-38.094-13.279-56.571-3.863.784-6.693,1.354-11.517,2.332C2200.976,4423.174,2194.728,4446.263,2217,4459.115Z" transform="translate(-2088.788 -4324.356)" fill="#611735"/>
  <rect id="Rectangle_2017" data-name="Rectangle 2017" width="44.786" height="9.968" transform="translate(206.193 163.115)" fill="#611735"/>
  <path id="Path_1415" data-name="Path 1415" d="M2250.037,4468.891h45.143v-9.737h-45.57C2249.77,4462.785,2249.895,4465.829,2250.037,4468.891Z" transform="translate(-2044.005 -4280.197)" fill="#611735"/>
  <path id="Path_1416" data-name="Path 1416" d="M2222.172,4479.754c-7.245-10.947,1.229-29.442-19.812-34.96,2.3,10.342,4.681,19.349,6.248,28.5C2209.943,4481.054,2213.752,4483.048,2222.172,4479.754Z" transform="translate(-2080.863 -4291.398)" fill="#611735"/>
  <path id="Path_1417" data-name="Path 1417" d="M2309.722,4381.8c-.623-.73-1.228-1.46-1.851-2.19q-19.251,17.09-38.521,34.178c.641.711,1.264,1.406,1.9,2.118Q2290.48,4398.847,2309.722,4381.8Z" transform="translate(-2028.606 -4342.244)" fill="#611735"/>
  <path id="Path_1418" data-name="Path 1418" d="M2273.747,4415.728q23.576-9.959,47.19-19.883c-.374-.854-.73-1.726-1.1-2.581q-23.551,9.878-47.083,19.741C2273.07,4413.912,2273.409,4414.82,2273.747,4415.728Z" transform="translate(-2025.954 -4331.595)" fill="#611735"/>
  <path id="Path_1419" data-name="Path 1419" d="M2275.12,4412.131c.071.943.16,1.886.231,2.83q24.859-1.789,49.717-3.6c.036-.926.054-1.834.09-2.742Q2300.139,4410.36,2275.12,4412.131Z" transform="translate(-2024.105 -4319.613)" fill="#611735"/>
</svg>
