<svg id="Group_2281" data-name="Group 2281" xmlns="http://www.w3.org/2000/svg" width="205.834" height="205.833" viewBox="0 0 205.834 205.833">
  <path id="Path_1338" data-name="Path 1338" d="M3549.951,4460.421c-56.773-.029-103,46.1-103.034,102.8a102.917,102.917,0,1,0,103.034-102.8Zm-.292,190.248a87.33,87.33,0,1,1,87.5-87.191A87.4,87.4,0,0,1,3549.659,4650.669Z" transform="translate(-3446.917 -4460.421)" fill="#232323"/>
  <path id="Path_1339" data-name="Path 1339" d="M3632.6,4592.124a7.6,7.6,0,0,1-3.576,4.108q-26.791,15.449-53.574,30.921c-5.9,3.407-11.784,6.828-17.7,10.208-5.632,3.221-11.564-.2-11.579-6.69q-.04-20.585-.006-41.17c0-13.533-.037-27.063.045-40.6a10.4,10.4,0,0,1,1.076-4.642c1.9-3.61,6.447-4.676,10.176-2.551,5.5,3.132,10.975,6.323,16.461,9.49l54.808,31.64C3632.4,4584.959,3633.888,4588.505,3632.6,4592.124Z" transform="translate(-3479.441 -4486.705)" fill="#232323"/>
</svg>
