<svg xmlns="http://www.w3.org/2000/svg" width="356.416" height="314.897" viewBox="0 0 356.416 314.897">
  <g id="Group_2240" data-name="Group 2240" transform="translate(-8220.68 -7692.07)">
    <path id="Path_1229" data-name="Path 1229" d="M8378.711,7807.512c-7.977-.261-15.961-.418-23.941-.631a17.09,17.09,0,0,1-2.021-.31c.009-.235.021-.466.03-.7.662-.065,1.32-.179,1.982-.183,2.539-.022,5.083-.087,7.623.018a2.367,2.367,0,0,0,2.626-1.633c2.871-6.5,5.837-12.964,8.765-19.441,1.123-2.487,2.243-4.983,3.441-7.645-3.99-1.686-7.1-4.125-8.865-8.146-5.92,10.1-11.416,20.116-19.646,28.641a55.694,55.694,0,0,1-3.327-4.752c-2.827-5.145-5.52-10.367-8.3-15.538-6.347-11.822-5.492-12.262-20.02-17.041-1.494-.492-3.1-.645-3.838-2.435-.218-.527-1.1-.78-1.216-.854-2.435,2.731-4.669,5.236-6.9,7.741l-.471-.392c1.02-1.468,2.047-2.927,3.053-4.409.523-.771,1.582-1.742,1.408-2.334-.768-2.623.648-4.456,2.024-6.438-3.911-.745-6.9-2.392-8.1-6.32a15.1,15.1,0,0,0,9.366,5.018c3.641.566,7.309,1.02,10.973,1.438a1.911,1.911,0,0,0,2.383-2.1,17.667,17.667,0,0,1,.526-4.717c.632-1.96.157-2.854-1.825-3.223a9.565,9.565,0,0,1-2.213-1.042l.24-.553h5.514c-.3-1.119-.514-1.942-.771-2.9.636-.183,1.177-.339,1.721-.483a14.179,14.179,0,0,0,1.882-.5c2.16-.91,2.339-2.435.915-4.243a61.863,61.863,0,0,1-3.594-5.636,1.829,1.829,0,0,1,.457-2.636c1.346-1.241,2.191-2.854,1.563-4.7-1.137-3.345-2.461-6.629-3.707-9.936a100.87,100.87,0,0,0-10.123-1,12.642,12.642,0,0,0-9.792,4.713c.889.074,1.512.122,2.13.174.018.174.035.344.057.519l-4.417,1.4a13.911,13.911,0,0,1,6.752-6.987c5.336-2.483,10.742-1.816,16.169-.34a2.705,2.705,0,0,0,1.961,0c3.686-2.723,5.053-10.968,2.8-14.9-1.371,1.189-2.8,2.431-4.221,3.672-.17-.157-.344-.314-.514-.466v-2.9c-3.006.283-5.842.684-8.686.78-2.9.1-5.807-.192-8.708-.157-4.513.057-9.009.379-13.2,2.292-4.113,1.873-6.526,5-6.561,9.644a2.229,2.229,0,0,1-1.386,2.356c-4.212,2.064-6.46,5.637-6.011,10.2a89.781,89.781,0,0,0,2.727,13.574c1.02,3.938,2.566,7.758-1.094,11.561h3.938c-.536,1.119-.949,1.99-1.5,3.145l3.9-.832c2.871,2.918,2.444,6.294.662,9.3-1.027,1.738-1.015,2.767.166,4.095,1.015,1.137,2.025,2.27,3.031,3.411l3.438,3.92c-2.919-2.2-5.716-4.569-8.494-6.956-2.239-1.926-2.326-1.935-4.174.461-1.185,1.538-2.164,3.2-4.295,3.746-6.024,1.542-10.263,5.292-13.442,10.607-5.663,9.452-9.762,19.584-13.43,29.908a183.516,183.516,0,0,0-10.741,70.114,3.514,3.514,0,0,0,2.2,3.362,23,23,0,0,0,19.588.693c3.124-1.276,5.891-3.4,8.9-5,3.555-1.895,7.191-3.628,10.8-5.436l.326.64c-6.534,3.6-13,7.318-19.619,10.755-4.831,2.513-10.036,2.674-15.276,1.372-1.512-.375-2.984-.9-4.734-1.442,2.408,6.29,7.266,8.782,13.634,9.74h-13.856c-1.742-9.645-3.445-19.062-5.148-28.476q-7.318-40.471-14.637-80.943c-.614-3.393-1.376-3.977-4.883-3.572q2.111,14.525,4.225,29.055c3.137,21.313,6.164,42.645,9.506,63.928,1.232,7.833,1.2,15.93,4.369,23.414a4.126,4.126,0,0,1,.108,1.507q.078,17.38.144,34.761.091,38.439.161,76.875c0,.627.083,1.254.131,1.938h4.526c2.447-35.711,4.883-71.277,7.356-107.389h79.38v-10.646h-61.293c0-.279,0-.562,0-.845h62.856c.031.541.057,1.246.113,1.952.493,6.364.724,12.763,1.538,19.088,2.749,21.3,5.715,42.563,8.551,63.846.174,1.324.636,1.895,2,1.969,7.5.414,14.7-1.015,22.024-3.289-.127-.679-.214-1.1-.287-1.516-2.248-13.3-4.836-26.554-6.661-39.914-2.3-16.857-2.422-33.868-1.895-50.86.108-3.494-1.264-5.676-4.4-6.913a19.081,19.081,0,0,0-3.059-1.111c-14.976-3.084-29.93-6.312-44.963-9.108-8.328-1.551-8.48-1.22-8.371-9.915.139-11.752,3.18-22.947,6.969-33.959.523-1.52.262-2.213-1.019-3.162-7.448-5.537-14.871-11.108-22.155-16.858a15.133,15.133,0,0,1-5.676-8.642c1.908,2.256,3.5,5.035,5.859,6.795,10.271,7.688,20.721,15.138,31.224,22.508a8.862,8.862,0,0,0,4.953,1.089c18.286-.331,36.572-.789,54.858-1.176,3.908-.083,7.815-.013,11.266-.013.408-3.737.762-6.921,1.149-10.458C8382.539,7807.982,8380.631,7807.578,8378.711,7807.512Zm-55.8-80.211c-1.094-.449-1.891-.78-3.076-1.268,1.124-.731,2.069-1.35,3.547-2.312C8323.172,7725.3,8323.05,7726.221,8322.906,7727.3Zm2.112-7.562c-2.06,1.011-3.751,1.838-5.4,2.648C8320.632,7720.184,8322.317,7719.247,8325.019,7719.739Zm-15.965-4.23c0,2.134-.618,2.884-2.905,4.539-1.86,1.35-3.589,2.888-5.231,4.225C8301.666,7720.031,8306.724,7719.155,8309.054,7715.509Zm-13.952,11.752a27.124,27.124,0,0,0,.605,3.4c.244,1.028.6,2.03.949,3.2-2.565-2.008-3.78-8.154-2.256-10.746,1-1.7,2.418-1.781,4.178-.227C8295.559,7723.067,8294.771,7724.021,8295.1,7727.262Zm54.812,79.6c-6.647-.3-13.3-.928-19.937-.78-4.865.109-8.146-1.864-11.5-5.105a297.848,297.848,0,0,0-32.374-27.708c10.82,5.854,19.946,13.922,28.754,22.777,1.947-2.932,3.82-5.741,5.872-8.83,2.266,3.093,4.395,5.981,6.508,8.882,1.873,2.575,3.676,5.214,5.641,7.719a3.429,3.429,0,0,0,2.252,1.193c4.2.2,8.412.179,12.615.335a8.785,8.785,0,0,1,2.374.8C8350.053,7806.38,8349.982,7806.619,8349.913,7806.859Z" fill="#432a00"/>
    <path id="Path_1230" data-name="Path 1230" d="M8800.39,7792.91c-.166,1.6-.231,3.215-.506,4.8q-5.489,31.285-11.021,62.569c-2.744,15.572-5.929,31.084-8.076,46.735-1.777,12.924-2.33,26.01-3.415,39.025-.519,6.207-1.1,12.406-1.5,18.617-1.172,17.808-2.27,35.619-3.4,53.431-.061,1-.183,2-.282,3.1h-4.034V7913.575h-80.825q-1.986,52.566-3.934,104.2a54.043,54.043,0,0,1-3.964-3.855,4.084,4.084,0,0,1-.728-2.482q-.064-25.26-.03-50.525,0-26.24.009-52.485c0-.967.144-1.938.23-3H8670.6c-.018.188-.03.375-.048.562,1.4.109,2.8.213,4.434.34.148,1.137.361,2.326.445,3.529.766,11.3-1.181,22.271-4.213,33.083-2.33,8.3-4.861,16.548-7.218,24.847a14.366,14.366,0,0,0,.526,9.156c3.128,8.429,6.025,16.94,8.965,25.439a5.178,5.178,0,0,1-.1,1.864c-.527-.409-1.276-.71-1.547-1.25-1.6-3.237-3.1-6.525-4.844-10.25-1.473,2.8-2.674,5.223-4.007,7.575-1.956,3.454-3.551,7.2-7.223,9.33-4.024,2.335-8.154,2.767-13.107.458,9.866-4.234,15.395-12.153,21.161-19.828-.126-.126-.252-.257-.383-.387-3.682,3.771-7.24,7.67-11.082,11.269a82.318,82.318,0,0,1-8.7,6.839c-.793.566-2.108.392-3.184.562.025-1.036-.253-2.2.126-3.092,6.882-16.283,10.236-33.4,11.491-50.909.744-10.415.483-20.9.84-31.341.262-7.61.916-15.211,1.155-22.826.126-4.012,1.851-6.834,5.318-8.516,4.817-2.331,9.644-4.718,14.657-6.573,5.978-2.213,12.158-3.864,18.23-5.824a2.909,2.909,0,0,1,3.275.78c4.953,4.613,8.69,9.905,10.015,16.679.21,1.067.566,2.1.862,3.149.014.043.122.057.4.166.413-8.947-3.776-15.677-10.149-21.85a189.384,189.384,0,0,1,37.252-3.4c.014-.183.026-.371.044-.558-2.187-.214-4.364-.51-6.556-.614-2.234-.109-4.482-.026-7.009-.026-.3-3.907-.623-8-.928-12.088q-.517-6.945-1-13.9a8.88,8.88,0,0,0-3.937-7.1,91.251,91.251,0,0,1-7.384-6.556c7.117-5.95,13.926-11.64,20.617-17.232,1.429,1.346,2.67,2.67,4.072,3.794a22.636,22.636,0,0,0,4.16,2.74c4.953,2.4,8.752,1.438,11.983-3a21.137,21.137,0,0,0,2.379-4.5c-3.224,3.014-5.5,7.475-10.877,6.76-3.978-.531-6.813-2.988-9.165-6.216,5.688-5.854,12.959-10,17.415-17.08-2.779,2.252-5.541,4.517-8.329,6.756-10.354,8.312-20.686,16.648-31.114,24.864a7.473,7.473,0,0,1-4.335,1.59c-19.666-.249-39.33-.68-58.992-.954a67.61,67.61,0,0,0-9.919.675c-6.276.841-12.515.423-18.766.018,15.05-6.046,30.361-10.807,47.066-10.8-.984-4.021-1.8-7.675-2.778-11.282-1.73-6.364-3.537-12.7-5.359-19.04a11.482,11.482,0,0,0-3.824-5.311c-2.13-1.917-3.9-2.857-6.721-1.808-1.055.393-2.466-.187-3.711-.327q-.092-.365-.184-.732c2.822-1.82,5.642-3.646,8.69-5.615a7.453,7.453,0,0,1-1.49-.274,20.87,20.87,0,0,1-1.942-1.015c.666-.583,1.494-1.777,1.969-1.65,3.489.928,7.109,1.881,9.2,5.205,7.353,11.657,14.636,23.361,21.95,35.04.37.6.8,1.154,1.438,2.056,2.983-2.74,5.811-5.284,8.59-7.884,5.079-4.761,9.932-9.8,15.271-14.244,2.828-2.352,6.426-3.829,9.789-5.475a3.568,3.568,0,0,1,4.6.727,3.784,3.784,0,0,1,.021,4.7,48.345,48.345,0,0,1-6.233,7.732c-5.328,5.022-10.9,9.792-16.466,14.558a6.684,6.684,0,0,1-3.468,1.424c-7.205.736-14.423,1.316-21.618,2.309,2.435-.126,4.865-.3,7.3-.366,3.847-.092,7.692-.2,11.535-.113a13.149,13.149,0,0,0,9.966-4.047c6.5-6.43,13.025-12.833,19.633-19.149,1.372-1.315,1.943-2.535,1.4-4.382a20.365,20.365,0,0,1-.431-3.371c.209-.152.322-.31.436-.31a26.793,26.793,0,0,0,13.007-3.385c2.675-1.433,5.906-1.829,8.917-2.7-3.376-1.094-6.442.117-9.7,1.542v-9.357l-.436-.013c-.654,2.914-1.363,5.815-1.938,8.743-.471,2.392-1.56,3.611-4.243,3.485-2.871-.131-5.759.235-9,.4,2.008-16.888.68-33.219-5.279-49.161-.214,2.853-.432,5.71-.64,8.511h-10.146c-.476-2.139-.928-4.168-1.377-6.194-.183,0-.361-.013-.54-.017-.1,2.1-.191,4.208-.292,6.39a.579.579,0,0,1-.23.183c-3.65,1.054-4.139.566-3.215-3.189a5,5,0,0,0,.179-2.23l-2.709,5.053c-.148-1-.275-1.507-.288-2.017-.466-15.547,12-27.644,28.283-27.334,9.475.179,17.463,3.576,22.848,11.683,3.2,4.827,4.046,10.5,4.848,16.117.288,2.008.419,4.042.515,6.072a40.484,40.484,0,0,0,4.051,16.331c2.787,5.645,2.827,11.587.592,17.764-2.521-2.278-4.883-4.408-7.243-6.539-.065.9-.166,2.261-.271,3.676,9.758,4.06,9.588,12.489,9.13,20.922-.253,4.7-.905,9.387-1.406,14.074-1.285,11.962.531,23.179,6.935,33.65,4.008,6.551,7.17,13.616,8.394,21.34a32.954,32.954,0,0,1-2.208,18.13c-3,7.191-8.873,10.711-16.191,11.5-6.9.745-13.9.636-20.856.893-12.619.466-25.234.928-37.854,1.843,2.169,0,4.334-.021,6.5,0,23.082.253,46.169.479,69.247.828,2.218.035,2.9-.706,3.341-2.744q11.089-51.246,22.359-102.458C8794.774,7797.349,8797.253,7794.9,8800.39,7792.91Z" transform="translate(-223.294 -14.43)" fill="#432a00"/>
    <path id="Path_1231" data-name="Path 1231" d="M8523.871,7998.595V8168.87c.789.035,1.552.1,2.313.1q23.843.007,47.689,0c3.023,0,4.273.719,4.3,2.487.021,1.9-1.294,2.749-4.326,2.749q-54.873,0-109.749,0c-.653,0-1.5.218-1.917-.108-.879-.68-2-1.59-2.13-2.531-.1-.719,1.059-1.777,1.873-2.392.483-.361,1.4-.191,2.117-.2q11.65-.007,23.3,0h2.923c-6.465-3.066-12.275-5.972-18.217-8.582-2.858-1.259-4.408-3-4.492-6.186s-.431-6.329-.657-9.4c4.813-.492,9.317-.949,13.813-1.406,4.874,9.893,13.809,15.633,23.226,21.832-2.731,1.324-5.118,2.474-7.384,3.572h15.982V7998.686H8435.01a48.621,48.621,0,0,1,.043-5.545c.24-2.039,2.025-3.306,4.452-3.346,3.555-.057,7.113-.026,10.668-.026q72.625,0,145.246,0c4.277,0,5.589,1.307,5.567,5.559,0,1,0,2.008,0,3.271Z" transform="translate(-120.933 -168.017)" fill="#432a00"/>
    <path id="Path_1232" data-name="Path 1232" d="M8446.877,8214.878c-3.75,8.315-7.545,16.614-11.461,25.2-5.575-2.687-11.169-5.385-17.036-8.212,7.563-19.357,14.544-38.8,23.54-57.42.2.043.393.083.584.126.461,4.491.832,9,1.4,13.473,1.05,8.263,2.23,16.513,3.311,24.773A3.983,3.983,0,0,1,8446.877,8214.878Z" transform="translate(-111.582 -272.256)" fill="#432a00"/>
    <path id="Path_1233" data-name="Path 1233" d="M8813.516,7816.3c-.445,1.769-.811,4.352-2.026,4.961-2.417,1.216-5.388,1.329-8.137,1.874-.187.035-.575-.1-.588-.2a31.958,31.958,0,0,1-.5-4.756c.021-1.015-.131-2.217,1.52-2.692a67.192,67.192,0,0,0,7.057-2.8,1.545,1.545,0,0,0,.881-1.154c-.728.252-1.46.5-2.183.753-3.616,1.289-7.17,2.788-10.855,3.829-4.272,1.207-5.759-.1-5.8-4.539,0-.292.135-.671,0-.858-2.082-2.879-.13-4.055,2.117-5.145.292-.139.483-.483,1-1.023a24.374,24.374,0,0,1-3.729.6c-.554,0-1.63-.7-1.59-.9.392-1.843-1.032-2.331-2.1-3.084-2.479-1.747-2.54-1.917-.906-4.487a47.966,47.966,0,0,1,2.836-4.116c1.834-2.317,2.927-4.665.618-7.6a31.664,31.664,0,0,1,13.1-.558c3.594.553,4.543.03,5.812-3.3.57,3,1.346,5.972,1.668,8.991.784,7.353,1.389,14.719,2,22.089A12.853,12.853,0,0,1,8813.516,7816.3Z" transform="translate(-319.384 -50.254)" fill="#432a00"/>
    <path id="Path_1234" data-name="Path 1234" d="M8978.25,7910.9q-10.547,50.848-21.131,101.874c-3.567-.31-6.8-.588-9.979-.862,2.038-2.427,4.4-4.609,6-7.253,5.389-8.938,7.3-18.374,3.18-28.453a4.277,4.277,0,0,1,.03-2.5q6.959-26.717,14-53.422a3.651,3.651,0,0,1,.52-1.416A82.582,82.582,0,0,1,8978.25,7910.9Z" transform="translate(-410.015 -123.507)" fill="#432a00"/>
    <path id="Path_1235" data-name="Path 1235" d="M8932.686,8170.311q-1.228,53.095-2.461,106.352h-4.465V8170.311Z" transform="translate(-397.948 -269.92)" fill="#432a00"/>
    <path id="Path_1236" data-name="Path 1236" d="M8338.059,8171.841c-.61,35.227-1.22,70.231-1.83,105.337-4.364.748-4.352.748-4.395-3.167q-.53-50.168-1.076-100.327c0-.632,0-1.268,0-2.174C8333.245,8171.623,8335.515,8171.728,8338.059,8171.841Z" transform="translate(-62.127 -270.596)" fill="#432a00"/>
    <path id="Path_1237" data-name="Path 1237" d="M8799.32,8172.274c-.044,9.292-.14,18.579-.2,27.87q-.221,37.126-.432,74.248c0,.649,0,1.294,0,2.165h-4.3c-.51-35.523-1.019-70.9-1.528-106.391,1.925,0,3.637-.031,5.345.008C8799.751,8170.209,8799.324,8171.438,8799.32,8172.274Z" transform="translate(-322.939 -269.831)" fill="#432a00"/>
    <path id="Path_1238" data-name="Path 1238" d="M8433.115,8354.563a3.949,3.949,0,0,1-5.135-.645,41.434,41.434,0,0,1-9.3-13.535c-1.477-3.192-3.128-6.181-6.208-8.193a9.172,9.172,0,0,1-2.387-2.788c-1.425-2.212-2.052-4.286-.3-6.935,1.864-2.8,2.979-6.1,4.26-8.847,4.382,2.218,8.712,4.347,12.959,6.63a3.432,3.432,0,0,1,1.367,2.147c1.521,7.235,2.894,14.506,4.435,21.736a55.331,55.331,0,0,0,1.874,5.554C8435.429,8352,8434.962,8353.5,8433.115,8354.563Z" transform="translate(-106.128 -350.804)" fill="#432a00"/>
    <path id="Path_1239" data-name="Path 1239" d="M8255.668,7936.418a86.233,86.233,0,0,0-4.643,29.281,3.123,3.123,0,0,1-.1.553l-.243.026q-6.359-36.7-12.716-73.4c3.838,4.095,9.095,6.726,10.441,13.024,2.013,9.413,4.822,18.657,7.244,27.983A4.758,4.758,0,0,1,8255.668,7936.418Z" transform="translate(-9.759 -113.337)" fill="#432a00"/>
    <path id="Path_1240" data-name="Path 1240" d="M8623.854,7843.36a2.212,2.212,0,0,1-1.559,1.285,57.61,57.61,0,0,1-7.141.383c-2.748-.043-4.133-1.185-4.782-3.855a25.815,25.815,0,0,1-.4-4.082c-.183-2.3-.271-4.622-.558-6.909a6.838,6.838,0,0,0-.837-2,45.209,45.209,0,0,1-4.277,1.538c-.335.087-1.1-.449-1.255-.854-.818-2.152,1.551-5.994,3.825-6.029,6.142-.091,12.284-.03,18.735-.03A84.84,84.84,0,0,1,8623.854,7843.36Z" transform="translate(-215.714 -73.775)" fill="#432a00"/>
    <path id="Path_1241" data-name="Path 1241" d="M8674.963,7811.136a8.54,8.54,0,0,1-4.932,8.041,4.032,4.032,0,0,0-2.426,3.89,16.541,16.541,0,0,1-.98,3.62c-.392-.03-.779-.061-1.167-.1a32.364,32.364,0,0,1-.409-3.981,2.656,2.656,0,0,0-1.4-2.618c-7.428-4.734-8.464-10.005-5.489-19.7a2.028,2.028,0,0,1,1.573-1.019q6.514.026,13.028.309a1.854,1.854,0,0,1,1.329,1.189C8674.483,7804.214,8674.906,7807.677,8674.963,7811.136Z" transform="translate(-246.04 -60.504)" fill="#432a00"/>
    <path id="Path_1242" data-name="Path 1242" d="M8586.255,7851.591a3.213,3.213,0,0,1-2.735,2.679c-3.106.68-6.252,1.2-9.375,1.816-.618.122-1.463.188-1.781.6-1.3,1.712-2.514.923-3.92.179a10.094,10.094,0,0,1-5.323-5.754,63.412,63.412,0,0,0,4.339-6c2.343-4.187,6.381-5.389,10.541-6.49.262-.07.688-.153.806-.018,1.425,1.633,3.241.823,4.909.793,2.432-.044,2.71.278,2.9,2.613A32.4,32.4,0,0,1,8586.255,7851.591Z" transform="translate(-193.274 -82.664)" fill="#432a00"/>
    <path id="Path_1243" data-name="Path 1243" d="M8489.525,8323.8c0,.287.014.723-.152.832-2.316,1.524-2.53,4.063-2.893,6.538l-.8-.131V8269.03l.5.013c1.063,7,1.743,14.088,3.276,20.983C8491.982,8301.334,8489.783,8312.547,8489.525,8323.8Z" transform="translate(-149.566 -325.637)" fill="#432a00"/>
    <path id="Path_1244" data-name="Path 1244" d="M8624.9,7957.9c-8.629,2.771-17.319,5.558-26.444,8.489a33.5,33.5,0,0,1,.091-6.033,6.269,6.269,0,0,1,2.108-3.563C8606.311,7952.532,8619.457,7953.269,8624.9,7957.9Z" transform="translate(-213.164 -147.821)" fill="#432a00"/>
    <path id="Path_1245" data-name="Path 1245" d="M8545.684,8124.407c-2.6,7.449-5.345,14.841-8.054,22.25-1.072-9.422-1.8-18.8-.405-28.867,2.753,1.516,5.235,2.749,7.558,4.242A2.686,2.686,0,0,1,8545.684,8124.407Z" transform="translate(-178.224 -240.277)" fill="#432a00"/>
    <path id="Path_1246" data-name="Path 1246" d="M8622.071,7911.908c0,.714-1.138,1.433-1.756,2.151-.2-.021-.413-.043-.618-.061v8.521c-3.314.283-6.395.544-9.675.827,0-1.625-.013-3.8,0-5.985.014-1.633.179-3.167-1.249-4.556-1.189-1.159.068-1.952,1.149-2.235a14.534,14.534,0,0,1,3.136-.043c-.727-2.814-1.389-5.389-2.051-7.968l.718-.169c.536,1.982,1.416,3.951,1.521,5.955.109,2.152.8,2.731,2.705,2.156q.98-3.542,1.96-7.057c.231.065.467.131.7.191-.487,2.213-.976,4.426-1.516,6.856.928,0,1.625-.013,2.321,0C8620.564,7910.519,8622.066,7910.3,8622.071,7911.908Z" transform="translate(-218.771 -118.705)" fill="#432a00"/>
    <path id="Path_1247" data-name="Path 1247" d="M8674.326,7884.856c-.053.214-.108.432-.165.645l-9.784-.562c-.03-.179-.057-.361-.087-.54.292-.253.558-.684.885-.732,3.149-.479,3.681-2.775,3.833-5.371a5.182,5.182,0,0,1,.227-1.7,10.309,10.309,0,0,1,1.15-1.7,20.6,20.6,0,0,1,.774,1.964,2.167,2.167,0,0,1-.082,1.072c-.667,2.548-.336,4.657,2.4,5.837C8673.843,7883.929,8674.048,7884.482,8674.326,7884.856Z" transform="translate(-250.374 -103.184)" fill="#432a00"/>
    <path id="Path_1248" data-name="Path 1248" d="M8664.688,7852.431c-.327,1.372-.641,2.749-.984,4.117a17.836,17.836,0,0,0-.763,2.932c-.152,2.2-1.694,3.746-4.316,3.8.919-1.324,1.738-2.5,2.735-3.951-1.225.109-2.139.187-3.35.292,2.121-2.617,4.068-5.018,6.011-7.418C8664.243,7852.278,8664.465,7852.353,8664.688,7852.431Z" transform="translate(-246.829 -90.378)" fill="#432a00"/>
    <path id="Path_1249" data-name="Path 1249" d="M8451.846,7764.727c-.208,1.577-.33,2.5-.472,3.582l-3.076-1.268Z" transform="translate(-128.468 -41.008)" fill="#432a00"/>
  </g>
</svg>
