<svg id="Group_1854" data-name="Group 1854" xmlns="http://www.w3.org/2000/svg" width="291.065" height="191.396" viewBox="0 0 291.065 191.396">
  <path id="Path_301" data-name="Path 301" d="M7643.282,4258a81.3,81.3,0,0,0,13.23-14.427c-7.733,4.2-15.251,8.29-22.77,12.378-.017-.089-.03-.178-.047-.267,11.018-12.019,22.039-24.038,33.31-36.33-.7.243-1.065.359-1.42.5a128.84,128.84,0,0,1-22.118,6.292c-5.552,1.07-10.363-.062-14.457-4.055a12.334,12.334,0,0,0-8.444-3.6c-10.123-.294-20.25-.5-30.376-.731a6.568,6.568,0,0,0-5.139,2.271c-2.383,2.556-4.3,2.7-6.88.41a10.436,10.436,0,0,0-8.611-2.908c-4.985.7-9.021-1.078-12.582-4.379-2.126-1.977-4.281-3.927-6.422-5.888a15.565,15.565,0,0,0-10.847-4.259c-4.664-.013-9.328-.1-14-.154q-16.813-.174-33.624-.339c-3.872-.034-6.833,1.81-7.713,5.228-.84,3.257-1.574,6.483-4.258,8.892.079.161.162.325.24.486q16.978,1.309,33.951,2.61a31.231,31.231,0,0,1-3.349.12q-20.143-.01-40.286-.023c-4.415,0-7.286,2.85-7.19,7.28.146,6.853,1.468,13.362,5.705,18.987.078.1.051.287.1.612-24.32-.01-48.436,1.93-70.8,3.982,21.271.858,44.247,1.782,67.222,2.706.017.253.037.5.054.756a120.355,120.355,0,0,0-37.632,8.3,6.055,6.055,0,0,0,1.345-.085,363.455,363.455,0,0,1,40.716-4.2c22.121-.808,43.655,2.665,64.769,9.025,15.647,4.718,31.36,9,47.715,10.534a114.122,114.122,0,0,0,53.106-7.1c15.993-6.274,30.189-15.573,43.683-26.049,3.4-2.645,6.729-5.389,10.089-8.088C7674.267,4243.989,7659.2,4251.878,7643.282,4258Zm-144.019-44.013a3.034,3.034,0,0,1-3.059-2.977,3.066,3.066,0,0,1,3.069-3.151,3.11,3.11,0,0,1,2.984,3.079A3.049,3.049,0,0,1,7499.263,4213.982Zm17.618,0a3.115,3.115,0,0,1-3.07-3.007,3.158,3.158,0,0,1,3.148-3.121,3.118,3.118,0,0,1,2.96,3.117A3.057,3.057,0,0,1,7516.881,4213.982Zm17.682,0a3.084,3.084,0,0,1-3.086-3.151,3.131,3.131,0,0,1,3.11-2.977,3.166,3.166,0,0,1,3.011,3.086A3.1,3.1,0,0,1,7534.563,4213.982Z" transform="translate(-7398.486 -4086.88)" fill="#5e1822"/>
  <path id="Path_302" data-name="Path 302" d="M7985.7,3995.229a162.088,162.088,0,0,0-38.311-8.769c-13.045-1.245-26.065-.667-39.419.561,6.826-40.921,5.376-81.735-.225-122.539.13-.058.263-.116.4-.178,2.556,2.874,5.169,5.7,7.663,8.628,14.811,17.386,26.9,36.6,37.872,56.562,11.584,21.078,21.708,42.871,31.67,64.739C7985.442,3994.439,7985.5,3994.658,7985.7,3995.229Z" transform="translate(-7734.107 -3864.305)" fill="#5e1822"/>
  <path id="Path_303" data-name="Path 303" d="M7773.2,3963.572c-1.785,16.99-4.289,33.9-6.49,50.849-.051.387-.146.773-.231,1.228a3.876,3.876,0,0,1-.685-.239c-9.382-5.625-19.7-7.677-30.459-7.615-7.971.048-15.942.585-23.913.893-.791.031-1.582,0-2.789,0,25.792-24.988,47.5-52.652,63.117-84.876A140.587,140.587,0,0,1,7773.2,3963.572Z" transform="translate(-7602.804 -3903.456)" fill="#5e1822"/>
</svg>
