<svg id="Group_2329" data-name="Group 2329" xmlns="http://www.w3.org/2000/svg" width="323.541" height="279.457" viewBox="0 0 323.541 279.457">
  <path id="Path_1370" data-name="Path 1370" d="M1946.044,4576.486c-52.509.544-105.019.234-157.541.246-38.464,0-76.942-.1-115.419.066-13.915.063-23.382,9.142-23.421,22.293q-.136,46.025.22,92.062c.117,14.331,9.026,22.928,23.227,22.98q51.861.234,103.722.271c2.049.015,4.1,0,6.393,0,0-3.864-.013-6.665,0-9.465,0-3.036-.091-6.058.026-9.078.3-7.807,4.785-12.412,12.579-12.645,6.471-.194,12.969-.194,19.453-.025,8.481.22,13.059,4.9,13.254,13.421.13,5.771.026,11.543.026,17.482,2.114.128,3.592.31,5.083.31q57.055.022,114.11-.011c16.2-.026,25.146-9.066,25.172-25.341.052-28.752-.493-57.515.22-86.24C1973.615,4584.189,1959.908,4576.344,1946.044,4576.486Zm-227.739,63.56c-2.062,5.563-7.042,6.264-12.294,6.16-5.939-.118-11.892-.026-18.039-.026v-35.987c6.912,0,13.63-.779,20.023.324,3.359.57,7.534,3.891,8.78,7,1.128,2.828-1.232,7.028-2.27,11.582C1717.67,4630.577,1720.315,4634.586,1718.305,4640.046Zm35.326-5.124c-.182,7.744-4.695,11.712-13.591,12.269-8.092.519-14.758-3.748-15.2-10.711-.558-8.559-.13-17.183-.13-26.3H1735.4c0,7,.065,14.239-.026,21.465-.052,4.564-.026,9.089,6.186,9.182,6.64.1,6.666-4.684,6.627-9.469-.052-6.886-.013-13.784-.013-20.672.778-.531,1.543-1.05,2.308-1.58,1.09,1.7,3.009,3.358,3.087,5.095C1753.916,4621.1,1753.787,4628.01,1753.631,4634.922Zm31.15,6.5c-3.281,6.264-11.386,8.389-18.571,4.628-2.218-1.166-4.072-3.007-6.627-4.952,1.854-1.662,3.216-2.866,4.6-4.1,2.166,1.881,3.605,4.058,5.434,4.46s4.046-.946,6.1-1.53c-.752-1.919-1.051-4.267-2.373-5.628-1.4-1.438-3.839-1.829-5.706-2.866-7.185-3.979-9.065-10.893-4.8-17.3,3.644-5.474,12.061-6.692,17.819-2.489a56.458,56.458,0,0,1,4.591,4.2c-1.517,1.312-2.7,2.336-4.085,3.528-.83-.946-1.245-1.828-1.932-2.127a27.107,27.107,0,0,0-6.718-2.426c-.674-.1-2.659,2.634-2.4,3.086a28.17,28.17,0,0,0,4.63,5.409,12.443,12.443,0,0,0,2.853,1.492Q1790.027,4631.421,1784.781,4641.421Zm17.507,4.421c-9.778.986-9.791.986-9.791-8.248-.013-8.973,0-17.962,0-27.441h9.791Zm38.958-.53c-.6.544-1.193,1.1-1.79,1.658-2.166-1.49-4.915-2.555-6.367-4.551-4.8-6.55-9.13-13.448-15.043-20.037,0,6.291.168,12.581-.13,18.857-.078,1.658-1.608,3.253-2.49,4.889-.882-1.595-2.516-3.179-2.555-4.785-.234-10.3-.117-20.608-.117-30.918,6.9-1.931,11.827-1.075,15.043,5.409a28.512,28.512,0,0,0,8.326,9.686c0-3.968-.195-7.948.1-11.892.1-1.36,1.4-2.631,2.153-3.942.947,1.336,2.71,2.646,2.749,4C1841.35,4624.212,1841.246,4634.767,1841.246,4645.312Zm29.27.791c-6.393.258-12.8.115-19.556.115v-36.569c6.523,0,12.722-.145,18.908.116,1.193.052,2.334,1.685,3.489,2.594-1.154.882-2.23,2.333-3.475,2.515a62.017,62.017,0,0,1-8.585.131v10.1a72.941,72.941,0,0,1,8.469.1c1.1.143,2.049,1.477,3.073,2.27-1.063.973-2.01,2.554-3.2,2.763-2.477.439-5.1.13-8.157.13v10.621a69.783,69.783,0,0,1,8.7.115c1.3.156,2.451,1.531,3.67,2.361C1872.734,4644.391,1871.657,4646.049,1870.516,4646.1Zm33.718-6.175c-2.438,6.227-8.728,9.378-15.886,7.2-3.45-1.063-6.471-3.478-10.984-5.993,3.125-2.179,4.513-3.137,5.836-4.058,1.919,1.7,3.437,4.006,5.395,4.473,1.751.428,3.994-1.167,6.017-1.867-.739-1.8-1.037-4.033-2.321-5.266-1.465-1.413-3.839-1.827-5.732-2.84-7.094-3.8-9.246-9.712-5.888-15.988a12.508,12.508,0,0,1,17.3-4.825c2.166,1.207,3.968,3.06,5.939,4.629-.195.793-.376,1.595-.558,2.388-1.919-.339-3.865-.57-5.758-1.024-2.322-.56-4.565-1.584-6.9-1.751-.635-.052-2.36,2.8-2.01,3.357a19.622,19.622,0,0,0,4.578,4.812c1.141.92,2.684,1.322,3.994,2.063C1904.182,4629.164,1906.516,4634.106,1904.234,4639.928Zm28.855,1.776a13.9,13.9,0,0,1-19.79,3.618c-1.738-1.244-3.514-2.437-5.836-4.031,2.736-2.051,4.046-3.009,5.538-4.126.843.9,1.4,1.935,2.243,2.284a25.287,25.287,0,0,0,6.86,2.178c.687.077,2.581-2.711,2.282-3.176-1.219-2-2.736-4.359-4.733-5.239-6.108-2.711-11.374-5.851-10.245-13.632.726-5.017,3.463-9.026,8.767-10,6.432-1.193,11.905.494,16.379,8.716-3.372-.727-5.252-1.024-7.068-1.543-2.114-.623-4.137-1.83-6.264-1.972-.882-.066-2.918,2.527-2.7,2.9a27.4,27.4,0,0,0,4.552,5.63c.882.844,2.308,1.1,3.462,1.687C1934.58,4629.152,1937.044,4635.43,1933.089,4641.7Z" transform="translate(-1649.619 -4520.985)" fill="#611735"/>
  <path id="Path_1371" data-name="Path 1371" d="M1967.936,4682.176c-3.929,5.745-12.359,3.01-12,10.1-1.686-.984-3.346-2.8-5.006-2.8-36.312-.13-72.624-.04-108.935,0H1828.59c-2.957,12.655-5.538,14.693-18.234,14.795a78.607,78.607,0,0,1-9.078-.062c-4.616-.519-10.024-.209-13.552-2.568-3.372-2.258-4.747-7.471-7.457-12.179-35.6,0-72.325-.063-109.052.157-2.231.012-4.448,2.2-5.473,2.734-3.644-2.773-7.742-5.888-13.1-9.946,0,20.516.778,39.114-.234,57.605-.882,16.031,11.425,29.57,28.764,29.038,33.653-1.011,67.358-.663,101.037-.648,53.586.026,107.171.286,160.757.361,12.865.015,24.225-8.738,24.731-20.943C1968.571,4726.737,1967.936,4705.585,1967.936,4682.176Zm-27.208,60.317c-32.642,2.956-65.27,6.626-98,8.235-54.04,2.646-107.885-1.4-161.509-8.12-3.839-.479-7.574-1.867-11.347-2.84-.026-1.036-.052-2.086-.078-3.125,3.164-.571,6.367-1.775,9.506-1.621,28.025,1.4,56.024,3.476,84.074,4.527,52.678,1.971,105.356,1.5,157.93-2.957,7.094-.6,14.188-1.324,21.307-1.608,2.749-.1,5.538.868,8.326,1.36.1,1.014.22,2.023.324,3.036C1947.757,4740.443,1944.307,4742.169,1940.728,4742.493Z" transform="translate(-1648.803 -4489.611)" fill="#611735"/>
  <path id="Path_1372" data-name="Path 1372" d="M1884.119,4566.367c-8.585-.8-15.549,1.5-22.9-3.931-13.111-9.713-28.984-13.124-44.974-14.642-23.084-2.2-46.207-2.3-68.707,4.436-7.158,2.154-14.745,4.657-20.542,9.092-7.613,5.836-15.407,4.979-23.538,4.875-.48-.854-.973-1.7-1.453-2.542,7.729-5.667,14.927-12.294,23.265-16.807,23.4-12.682,49.137-13.449,75.01-13.1,20.257.287,39.956,3.074,58.462,11.8A62.9,62.9,0,0,1,1884.119,4566.367Z" transform="translate(-1634.069 -4533.688)" fill="#611735"/>
  <path id="Path_1373" data-name="Path 1373" d="M1837.3,4565.777c8.015,4.291,18.662-2.827,27,7.25H1830.22c-.558-6.3,2.023-9.9,7.638-10.065,7.535-.231,15.1-.18,22.63-.011,5.706.13,8.326,3.332,8.443,9.712C1859.931,4559.6,1847.624,4568.227,1837.3,4565.777Z" transform="translate(-1596.031 -4525.046)" fill="#611735"/>
  <path id="Path_1374" data-name="Path 1374" d="M1722.844,4572.6c-5.667-6.912-22.721-9.713-32.253-5.447,7.963.675,16.146,1.3,24.3,2.179.83.091,1.478,1.727,3,3.646h-33.044c-.467-6.888,1.7-9.843,7.716-10.013q11.341-.331,22.669-.012C1721.107,4563.119,1723.558,4566.466,1722.844,4572.6Z" transform="translate(-1639.18 -4525.048)" fill="#611735"/>
  <path id="Path_1375" data-name="Path 1375" d="M1774.145,4689.15c-.739,1.234-4.163,2.374-5.058,1.725-3.19-2.321-3.294-14.9-.558-17.936a49.151,49.151,0,0,1,3.878-3.164c1.686,4.292,3.709,7.625,4.137,11.153C1776.868,4683.576,1775.584,4686.739,1774.145,4689.15Z" transform="translate(-1614.9 -4493.292)" fill="#611735"/>
  <path id="Path_1385" data-name="Path 1385" d="M1688.6,4620.8a63.11,63.11,0,0,1,8.239.114c1.186.157,2.207,1.549,3.3,2.381-1.195.916-2.286,2.422-3.6,2.649C1690.164,4627.046,1688.62,4626.042,1688.6,4620.8Z" transform="translate(-1638.047 -4507.855)" fill="#611735"/>
  <path id="Path_1386" data-name="Path 1386" d="M1687.261,4613.2c1.756-2.649,2.638-5.213,3.642-5.262,3.027-.149,6.1.68,9.158,1.128-.738,1.377-1.271,3.737-2.254,3.944C1695.156,4613.564,1692.312,4613.2,1687.261,4613.2Z" transform="translate(-1638.445 -4511.653)" fill="#611735"/>
</svg>
