<svg xmlns="http://www.w3.org/2000/svg" width="243.397" height="191.395" viewBox="0 0 243.397 191.395">
  <g id="Group_1852" data-name="Group 1852" transform="translate(-0.001)">
    <path id="Path_292" data-name="Path 292" d="M7324.08,2839.115c0,4.478-1.153,5.6-5.735,5.6q-22.767.007-45.545,0v-.01q-23.018,0-46.037-.005c-4.39,0-5.552-1.162-5.552-5.547q-.008-46.037,0-92.074c0-4,1.275-5.237,5.33-5.237h91.582c4.759,0,5.946,1.187,5.951,5.931Q7324.074,2793.447,7324.08,2839.115Z" transform="translate(-7151.277 -2653.326)" fill="#5e1822"/>
    <path id="Path_293" data-name="Path 293" d="M7464.84,2738.337c-6.335,28.356-33.263,47.569-62.028,44.052-.049-.97-.152-2-.152-3.02q-.015-34.221-.01-68.442c0-8.764-4.178-12.947-12.986-12.971-8.7-.025-17.4-.01-26.1-.01h-2.493c8.951-17.735,35.066-34.4,64.127-26.031C7453.736,2680.137,7471.259,2709.592,7464.84,2738.337Z" transform="translate(-7222.767 -2616.715)" fill="#5e1822"/>
    <path id="Path_294" data-name="Path 294" d="M7171.5,2652.988h-16.6c-8.843,0-13.119,4.286-13.119,13.149q0,11.454,0,22.9c0,.8-.074,1.591-.124,2.645h-2.591q-27.7-.007-55.407-.01c-5.128,0-6.729-2.537-4.449-7.094q25.066-50.153,50.136-100.3c.847-1.7,1.764-3.227,3.912-3.2,2.015.025,2.941,1.424,3.759,3.06q16.767,33.408,33.578,66.792C7170.846,2651.431,7171.044,2651.959,7171.5,2652.988Z" transform="translate(-7078.196 -2571.39)" fill="#5e1822"/>
    <path id="Path_295" data-name="Path 295" d="M7350.67,2592.718c-1.645,1.818-3.384,1.5-5.256.242a85.226,85.226,0,0,0-59.053-13.553,6.957,6.957,0,0,0-1.015.4c1.828,1.251,3.429,2.31,5,3.414,2.177,1.532,2.675,3.365,1.463,5.207-1.326,2.015-3.182,2.291-5.513.729q-6.037-4.035-12.015-8.138c-2.439-1.67-2.7-3.134-1.08-5.552q3.91-5.816,7.848-11.617c1.71-2.5,3.567-3.074,5.522-1.744,2.089,1.419,2.188,3.266.32,5.917-.887,1.256-1.778,2.508-2.882,4.059,4.093-.241,7.793-.571,11.5-.655a93.466,93.466,0,0,1,53.752,15.41C7351.917,2588.546,7352.449,2590.768,7350.67,2592.718Z" transform="translate(-7177.219 -2561.414)" fill="#5e1822"/>
  </g>
</svg>
