<svg xmlns="http://www.w3.org/2000/svg" width="167.178" height="290.781" viewBox="0 0 167.178 290.781">
  <path id="Path_840" data-name="Path 840" d="M4146.9,5433.49c4.938-30.35,9.349-60.815,15.012-91.052,2.419-12.963-3.529-20.035-13.162-26.082-22.866-14.372-47.51-16.32-73.18-10.131a10.478,10.478,0,0,0-5.963,4.482q-14.086,24.608-27.561,49.559c-1.167,2.164-2.191,5.478-1.381,7.485,3.984,9.789-1,17.345-5.137,25.342-6.176,11.91-11.582,23.991-23.833,31.7-11.042,6.93-11.725,12.507-3.6,22.6,4.6,5.691,4.368,9.519-.741,14.229-6.559,6.061-8.978,13.46-3.983,21.5,6.631,10.657,5.563,21.087.583,31.8-2.49,5.364-5.237,10.643-7.157,16.221-4.084,11.768.1,19.935,11.825,23.9,2.461.84,5.037,1.864,7.556,1.85,7.242-.028,9.021,4.226,8.225,10.159-1.2,8.836-2.86,17.617-4.354,26.623h141.835c-3.059-6.232-5.421-11.881-8.452-17.132-15.895-27.662-20.263-57.314-15.454-88.52C4140.778,5469.831,4143.937,5451.675,4146.9,5433.49Zm-86.755-56.318a43.847,43.847,0,0,1-7.1,12.847,43.859,43.859,0,0,0,7.095-12.845Zm-5.977,1.834c1.082-.333,2.158-.666,3.245-1Zm-6.472,3.229-11.2,22.262-.013.009C4040.323,5396.883,4044.152,5389.255,4047.692,5382.235Zm-28.233,95.244q1.209.176,2.419.349c-.228,1.295-.456,2.576-.668,3.871h0l.668-3.87Zm-14.675-2.015q-.266,1.345-.531,2.691h0C4004.428,5477.264,4004.606,5476.358,4004.784,5475.465Zm111.577-61.895c-3.33,1.152-5.806,2.006-9.292,3.2,2.889.213,4.839.37,8.553.654-4.455,1.494-7.286,2.447-10.5,3.529h7.926c-2.077,1.309-3.159,1.992-4.369,2.745.741.627,1.523,1.3,2.69,2.306-2.945.9-5.536,1.679-8.125,2.461.043.271.085.541.128.811l7.982-.469q.235.853.47,1.707l-11.569,3.5c4.54.229,7.329.37,10.118.527.114.371.214.74.313,1.11-3.9,1.224-7.812,2.462-13.005,4.1h10.985c-3.529,1.878-5.365,2.86-8.011,4.27,2.348.526,3.984.9,6.788,1.536-3.814,1.438-6.7,2.519-10.615,3.984,3.5.369,5.934.641,10.13,1.081-3.727,1.409-5.791,2.191-9.149,3.473,3.287.47,5.35.768,7.413,1.081.057.342.114.7.157,1.053-2.932.967-5.862,1.949-10,3.316,3.571.355,5.876.583,10.359,1.023-3.97,1.537-6.076,2.362-9.007,3.5,1.978.854,3.315,1.423,5.606,2.42-2.66,1.053-4.6,1.82-7.029,2.774,1.879.6,3.373,1.067,5.977,1.907-2.163,1.138-3.686,1.935-3.871,2.035-1.125,4.2-1.863,6.973-2.59,9.733-1.138,4.3-1.935,8.722-3.486,12.862-1.295,3.429,4.61,8.239-2.917,10.715,2.6.711,4.5,1.238,8.523,2.334-4.525,1.337-7.228,2.119-12.023,3.528h10.828c.1.47.214.953.327,1.437-3.571,1.238-7.157,2.476-10.729,3.714.028.37.057.739.071,1.109q7-.875,13.973-1.75.128.469.256.939-10.18,3.393-20.39,6.773c.085.327.156.669.241,1.01q12.572-3.01,25.129-6c.1.156.2.3.3.455q-11.44,4.567-22.88,9.121c.1.427.214.867.313,1.294q11.676-3.437,23.336-6.873c.128.313.256.626.37.939q-12.87,5.208-25.727,10.43c.072.355.157.7.242,1.053l24.2-7.171c.142.384.285.754.413,1.138q-13.254,5.293-26.523,10.6c.086.327.171.64.271.967q12.252-3.735,24.517-7.456c.17.441.342.9.512,1.337q-12.871,5.272-25.726,10.53c.071.271.156.541.242.811q11.013-3.414,22.012-6.815c-8.666,7.413-19.294,10.587-29.966,11.868a422.286,422.286,0,0,1-48.906,2.859c-15.852.043-22.6-10.3-17.786-25.327,2.86-8.951,5.862-17.858,8.936-27.178,2.689,1.722,5.549,3.686,8.537,5.45,9.577,5.677,18.925,4.056,25.926-4.725,4.568-5.734,10.843-7.641,17.587-8.85a9.623,9.623,0,0,0,5.606-3.23c-21.287-7.285-42.587-14.557-65.24-22.312,6.929-.811,10.074-6.033,17.715-7.172,12.507-1.85,25.769,4.953,37.338-3.059,3.514-2.434,6.274-5.948,9.376-8.965-.427-.683-.868-1.38-1.295-2.063-11.568,4.51-21.543.228-31.958-4.113-7.029-2.944-15.083-3.386-22.638-5.165-2.134-.5-4.084-1.778-6.1-2.7,1.138-2.12,1.906-4.61,3.529-6.247a21.405,21.405,0,0,1,6.588-4.055c17.43-7.7,30.45-20.832,42.132-35.2,4.027-4.966,5.649-11.853,8.495-17.8,1.053-2.206,2.49-4.226,3.742-6.346,2.205,1.536,4.482,2.974,6.588,4.625.683.525.953,1.579,1.978,3.386-2.376-.783-3.9-1.266-6.7-2.178,1.821,2.534,3.044,4.226,5.165,7.186-3.173-1.082-4.98-1.693-8.437-2.874,2.447,2.859,3.856,4.511,6.118,7.157-2.96-.583-4.767-.925-7.712-1.508,2.006,2.219,3.3,3.657,5.521,6.09-3.43-.583-5.578-.953-8.993-1.537,2.661,2.22,4.354,3.628,7.115,5.934-3.443-.228-5.406-.356-8.85-.6,2.661,2.049,4.141,3.2,6.93,5.35-3.884-.284-6.075-.455-9.9-.74,2.945,2.063,4.61,3.23,7.242,5.066-3.215.228-5.221.37-8.381.6,2.163,1.353,3.515,2.206,5.834,3.643-3.1.371-5.265.626-8.424,1,2.106,1.409,3.6,2.4,5.521,3.686-2.661.64-4.894,1.167-8.694,2.077,3.2.868,4.852,1.31,8.424,2.263-4.284.925-6.7,1.451-10.046,2.177,2.292.8,3.814,1.323,6.517,2.277-3.2,1.138-5.464,1.949-8.85,3.158,2.518.783,3.9,1.224,5.862,1.851-2.646,1.024-4.724,1.835-6.8,2.646.086.313.156.626.242.939q9.6-.747,19.252-1.479a42.113,42.113,0,0,0,2.718-4.881c4.383-10.558,9.42-20.945,12.721-31.844,2.163-7.157,6.219-9.875,12.679-9.5,9.619.541,19.209,1.835,30.749,3.016-3.586,8.054-6.687,15.011-9.8,22.027.328.143.968.441,1.736.783-2.092.925-3.771,1.679-6.033,2.689,1.494.456,2.518.783,4.269,1.323-2.49,1.053-4.454,1.878-7.03,2.96C4112.5,5412.773,4113.913,5413.072,4116.361,5413.57Zm15.964,30.92c.043,2.348-.327,4.724-.014,7.014a36.7,36.7,0,0,0,1.935,6.034c-6.616-.029-5.108,4.951-4.923,9.164-11.583-8.552-13.759-20.134-8.153-37.252,4.112-12.578,8.011-25.257,11.17-38.091,2.077-8.438,2.66-17.231,4.112-27.149-15.609,2.959-28.188-4.795-41.834-7.982-13.56-3.159-27.732-3.742-41.52-5.45,5.435-10.23,11.27-22.055,18.014-33.353a16.9,16.9,0,0,1,9.875-7.157c22.88-4.81,44.836-1.992,64.756,10.843,3.586,2.319,5.664,6.958,9.32,11.667-2.9-1.267-4.425-1.921-7.541-3.272,1.778,2.475,2.575,3.571,3.87,5.378-5.223-1.693-9.6-3.117-13.987-4.539-.114.3-.228.6-.355.9q7.3,3.565,14.585,7.1-.214.554-.427,1.109-7.277-1.686-14.57-3.387c-.1.285-.2.584-.3.868q7.642,3.073,15.3,6.133c-.129.37-.256.754-.4,1.124q-6.146-.982-12.323-1.964c-.142.37-.284.74-.427,1.125,3.913,1.266,7.827,2.547,11.739,3.813,0,.456-.014.925-.028,1.381h-11.6c0,.327-.014.654-.014.981q6.658,1.409,13.3,2.817c-.043.427-.085.854-.128,1.267q-6.019.576-12.01,1.124c.015.271.028.541.042.825q6.04.576,12.081,1.182c0,.44,0,.881.014,1.323-2.988.839-5.977,1.693-7.9,2.234.953,1.608,2.832,3.287,2.661,4.709-1.722,14.287-3.415,28.586-5.948,42.745a63.8,63.8,0,0,0-1.138,16.164c.042.555-.456,1.167-.726,1.751-2.319,4.923-4.752,9.8-6.858,14.812C4131.529,5441.572,4132.3,5443.138,4132.325,5444.49Z" transform="translate(-3995.269 -5302.901)" fill="#474747"/>
</svg>
