<svg xmlns="http://www.w3.org/2000/svg" width="217.771" height="217.771" viewBox="0 0 217.771 217.771">
  <g id="Group_2044" data-name="Group 2044" transform="translate(1330 -5871)">
    <path id="Path_630" data-name="Path 630" d="M-571.348,6266.144v1.633a6.028,6.028,0,0,1-1.821.653c-3.933.06-7.87.024-11.806.041-1.015,0-1.81-.182-1.837-1.432-.03-1.288.716-1.6,1.832-1.59,3.89.022,7.78-.016,11.667.049A6.966,6.966,0,0,1-571.348,6266.144Z" transform="translate(-540.881 -287.075)"/>
    <path id="Path_631" data-name="Path 631" d="M-1314.555,6267.052c-.033,1.241-.819,1.437-1.84,1.432-3.931-.019-7.861.019-11.79-.041a6.055,6.055,0,0,1-1.816-.659v-1.633a6.134,6.134,0,0,1,1.827-.656c3.931-.06,7.862-.017,11.792-.035C-1315.265,6265.454-1314.522,6265.768-1314.555,6267.052Z" transform="translate(0 -287.082)"/>
    <path id="Path_632" data-name="Path 632" d="M-932.562,6628a5.3,5.3,0,0,1-.653,1.7h-1.633a5.977,5.977,0,0,1-.659-1.824c-.057-3.947-.008-7.895-.033-11.839-.005-1.067.269-1.774,1.492-1.786s1.511.73,1.508,1.775C-932.546,6620.015-932.508,6624.009-932.562,6628Z" transform="translate(-287.082 -540.926)"/>
    <path id="Path_633" data-name="Path 633" d="M-932.509,5884.635c0,1-.188,1.818-1.448,1.832-.988.008-1.549-.4-1.549-1.437,0-4.209-.024-8.415.024-12.623.008-.471.425-.939.653-1.407h1.633a6.157,6.157,0,0,1,.64,1.827C-932.493,5876.763-932.518,5880.7-932.509,5884.635Z" transform="translate(-287.102)"/>
    <path id="Path_634" data-name="Path 634" d="M-1065.367,6127.2c-1.867-1.72-3.591-3.6-5.491-5.275a4.094,4.094,0,0,1-1.383-3.193q-1.233-24.054-2.553-48.1c-.1-1.756-.212-3.509-.324-5.333h-2.444c-.863,15.808-1.72,31.52-2.594,47.54l-49.309-47.994c-.6.509-1.078.909-1.584,1.336.449.509.765.887,1.1,1.252,15.353,16.689,30.66,33.425,46.116,50.02,2.325,2.493,3.874,4.859,2.981,8.335-.294,1.143.384,1.734,1.451,1.81,1.309.093,2.632.005,3.936.131a2.845,2.845,0,0,1,1.609.716,47.643,47.643,0,0,1,3.416,3.691,1.769,1.769,0,0,0,2.728.356,17.61,17.61,0,0,0,2.619-2.553A1.775,1.775,0,0,0-1065.367,6127.2Zm-10.981-5.09c-.441-.06-.8-.729-1.192-1.135.4-.387.776-1.042,1.214-1.089.411-.043.893.553,1.693,1.113C-1075.45,6121.559-1075.943,6122.163-1076.349,6122.108Z" transform="translate(-144.793 -141.074)"/>
    <path id="Path_635" data-name="Path 635" d="M-1199.632,6398.817a13.559,13.559,0,0,0-2.251-3.09,1.331,1.331,0,0,1,.272-.2,3.362,3.362,0,0,0,1.769-3.408,3.451,3.451,0,0,0-2.67-2.94,8.289,8.289,0,0,0-5.981.2,3.731,3.731,0,0,0-1.742,5.64,11.893,11.893,0,0,0,1.516,1.47c-2.267,1.421-2.891,2.6-2.474,4.565a4.206,4.206,0,0,0,4.08,3.212,13.448,13.448,0,0,0,4.674-.348A3.891,3.891,0,0,0-1199.632,6398.817Zm-5.861-7.535c1.266-.024,2.126.7,1.974,1.794-.093.656-.463,1.6-.961,1.8-.836.341-2.662-1.179-2.673-2C-1207.172,6391.688-1206.333,6391.408-1205.492,6391.282Zm.408,10.6a2.154,2.154,0,0,1-2.474-1.96,3.945,3.945,0,0,1,.746-2.205c.155-.218,1.135.019,1.663.231,1.563.621,2.012,1.144,2.012,2.088A1.87,1.87,0,0,1-1205.084,6401.88Z" transform="translate(-86.379 -376.79)"/>
    <path id="Path_636" data-name="Path 636" d="M-1163.177,6107.748c-.678-2.428-2.439-3.615-5.093-3.662-2.774-.046-4.609,1.059-5.352,3.485a29.442,29.442,0,0,0-.708,3.96c.144,1.361.234,2.4.37,3.427a6.635,6.635,0,0,0,.324,1.315c.811,2.354,2.526,3.476,5.245,3.457s4.475-1.144,5.183-3.531A15.056,15.056,0,0,0-1163.177,6107.748Zm-3.612,7.714c-.172.847-.716,1.652-1.661,1.416-.621-.155-1.53-.846-1.562-1.35a53.289,53.289,0,0,1,0-7.252,2.038,2.038,0,0,1,1.535-1.317,2.422,2.422,0,0,1,1.647,1.4,17.538,17.538,0,0,1,.536,3.5C-1166.449,6113.053-1166.55,6114.272-1166.79,6115.462Z" transform="translate(-113.294 -169.635)"/>
    <path id="Path_637" data-name="Path 637" d="M-1238.874,6243.584a5.659,5.659,0,0,0-9.062-3.487,5.784,5.784,0,0,0-1.756,6.623,4.324,4.324,0,0,0,5.017,2.556,14.549,14.549,0,0,0,2.14-.691c-.321,2.853-2.48,3.915-6.19,2.907v2.826c4.7,1.2,8.632-.624,9.6-4.7A15.811,15.811,0,0,0-1238.874,6243.584Zm-4.217,2.961a2.224,2.224,0,0,1-2.855-.822,3.468,3.468,0,0,1,.324-3.563,1.591,1.591,0,0,1,2.627.261,15.949,15.949,0,0,1,.885,2.793C-1242.41,6245.648-1242.649,6246.4-1243.09,6246.546Z" transform="translate(-58.161 -267.776)"/>
    <path id="Path_638" data-name="Path 638" d="M-940.039,6548.173a4.242,4.242,0,0,0-5.169-3.239,15.569,15.569,0,0,0-2.151.686c.218-2.861,1.9-3.672,6.138-2.976V6539.6c-1.151,0-2.229-.068-3.294.014-3.835.292-6.166,2.472-6.65,6.288a17.781,17.781,0,0,0-.06,3.787c.384,4.3,3.7,6.465,7.818,5.191C-940.742,6554.056-939.34,6551.266-940.039,6548.173Zm-5.526,4.426c-1.282-.016-2.085-1.473-2.069-3.754.005-1.075.351-1.358,1.661-1.355,1.552,0,2.346.844,2.352,2.488C-943.616,6551.535-944.419,6552.616-945.565,6552.6Z" transform="translate(-275.614 -486.577)"/>
    <path id="Path_639" data-name="Path 639" d="M-794.213,6516.377a27.951,27.951,0,0,1-4.987-.245c-1.1-.093-1.7-.653-1.5-1.881a7.882,7.882,0,0,0,.016-1.489,42.534,42.534,0,0,0,5.265.7,1.92,1.92,0,0,0,1.944-2.162,1.949,1.949,0,0,0-2.044-1.946c-1.435-.084-2.875-.019-4.41-.019v-8.052h9.723V6504h-6.226v2.444c.672.036,1.334.057,1.99.109,3.073.24,4.641,1.674,4.753,4.336A5.009,5.009,0,0,1-794.213,6516.377Z" transform="translate(-385.187 -458.709)"/>
    <path id="Path_640" data-name="Path 640" d="M-639.6,6252.111a4.214,4.214,0,0,1-2.717,4.3,10.7,10.7,0,0,1-7.823-.112.957.957,0,0,1-.561-.634c-.068-.882-.027-1.77-.027-2.875a8.4,8.4,0,0,0,1.666.708,20.637,20.637,0,0,0,4.1.452c1.04-.043,1.6-.906,1.571-2.033-.035-1.168-.8-1.552-1.783-1.65-.67-.065-1.35-.011-2.156-.011v-2.6a7.591,7.591,0,0,0,2.27-.324c.547-.256,1.222-.969,1.214-1.473a1.882,1.882,0,0,0-1.247-1.389,18.419,18.419,0,0,0-3.819.512,6.6,6.6,0,0,0-1.369.635c0-1.01-.046-1.856.027-2.7a1.083,1.083,0,0,1,.564-.773,11.551,11.551,0,0,1,6.811-.427,3.372,3.372,0,0,1,2.877,3.03,3.49,3.49,0,0,1-2.129,3.735,1.9,1.9,0,0,0-.34.3C-640.764,6249.285-639.637,6250.225-639.6,6252.111Z" transform="translate(-494.352 -269.56)"/>
    <path id="Path_641" data-name="Path 641" d="M-914.623,5960.856v2.725H-925.43a2.931,2.931,0,0,1,1.1-3.422,38.771,38.771,0,0,0,4.35-4.271,4.358,4.358,0,0,0,.909-1.927,2.04,2.04,0,0,0-2.142-2.7,6.368,6.368,0,0,0-1.979.376,18.143,18.143,0,0,0-1.979.944,18.056,18.056,0,0,1,.035-2.545,1.4,1.4,0,0,1,.757-1,19.422,19.422,0,0,1,4.543-.621c3.953.166,5.853,3.46,4.034,7a17.729,17.729,0,0,1-2.67,3.39,27.413,27.413,0,0,1-2.314,2.061Z" transform="translate(-294.331 -56.333)"/>
    <path id="Path_642" data-name="Path 642" d="M-684.29,6400.541v-8.687a14.838,14.838,0,0,1-2.017-.017,2.608,2.608,0,0,0-2.782,1.386c-1.288,1.914-2.665,3.775-4.13,5.553a4.837,4.837,0,0,0-1.132,4.633h6.549v3.37h3.591v-3.34l1.884-.18v-2.523Zm-3.637.016h-3.694l3.694-4.952Z" transform="translate(-462.485 -379.03)"/>
    <path id="Path_643" data-name="Path 643" d="M-681.776,6107.8v2.735h-10.81a2.713,2.713,0,0,1,1.026-3.37,22.492,22.492,0,0,0,3.313-3.005,7.39,7.39,0,0,0,1.764-2.532,3.208,3.208,0,0,0-.221-2.622,3.283,3.283,0,0,0-2.529-.713,13.2,13.2,0,0,0-3.092,1.116c0-.931-.038-1.849.024-2.758a.872.872,0,0,1,.542-.634c2.047-.193,4.154-.68,6.141-.386,2.782.405,3.939,3.139,2.948,6.043-.7,2.061-2.259,3.46-3.827,4.84-.392.343-.8.675-1.516,1.285Z" transform="translate(-463.764 -163.418)"/>
    <path id="Path_644" data-name="Path 644" d="M-1089.326,6504.833c-1.734,3.021-3.348,6.117-4.913,9.228a1.837,1.837,0,0,1-2.093,1.206c-.833-.09-1.682-.02-2.757-.02l6.68-12.184h-7.11v-2.7h10.916A6.779,6.779,0,0,1-1089.326,6504.833Z" transform="translate(-167.74 -458.039)"/>
    <path id="Path_645" data-name="Path 645" d="M-1096.115,6004v2.51h-9.745v-2.423h2.932v-8h-2.883v-2.428c1.391-.13,2.747-.239,3.585-1.84.25-.477,1.908-.218,3.081-.308V6004Z" transform="translate(-163.126 -87.705)"/>
    <path id="Path_646" data-name="Path 646" d="M-957.9,5961.451V5964h-9.783v-2.48h2.994v-8.006h-2.973v-2.371a17.015,17.015,0,0,0,1.778-.288c.378-.1.92-.275,1.04-.563.765-1.859,2.311-1.206,3.852-1.269v12.426Z" transform="translate(-263.691 -56.74)"/>
    <path id="Path_647" data-name="Path 647" d="M-1052.053,6004.064v2.526h-9.767v-2.458h3.011v-8.005h-2.97v-2.39a6.887,6.887,0,0,0,1.282-.158c.55-.168,1.372-.313,1.543-.7.836-1.886,2.374-1.081,3.86-1.208v12.4Z" transform="translate(-195.178 -87.773)"/>
    <path id="Path_648" data-name="Path 648" d="M-1203.7,6117.413v2.5h-9.8v-2.453h3.071V6109.5c-1.026-.046-2-.093-3.054-.139v-2.325a8.027,8.027,0,0,0,1.277-.174c.553-.161,1.394-.275,1.56-.653.857-1.946,2.409-1.133,3.925-1.225v12.429Z" transform="translate(-84.787 -170.223)"/>
    <path id="Path_649" data-name="Path 649" d="M-788.148,6001.355v2.616h-9.677v-2.458l2.978-.139v-7.891h-3v-2.437a7.615,7.615,0,0,0,1.307-.171c.55-.166,1.383-.3,1.549-.681.817-1.9,2.368-1.083,3.825-1.228v12.389Z" transform="translate(-387.291 -85.815)"/>
    <path id="Path_650" data-name="Path 650" d="M-1263.53,6075.454c-.027,1.454-1.211,2.243-2.27,1.642-3.7-2.093-7.361-4.236-11.03-6.375a1.213,1.213,0,0,1-.417-1.857c.427-.775,1.013-1.2,1.878-.708q5.59,3.193,11.15,6.438C-1263.875,6074.795-1263.685,6075.255-1263.53,6075.454Z" transform="translate(-38.206 -143.334)"/>
    <path id="Path_651" data-name="Path 651" d="M-620.348,6070.8q-5.4,3.111-10.8,6.228a9.811,9.811,0,0,1-1.092.43c-.362-.43-.928-.83-1.067-1.35a1.651,1.651,0,0,1,.444-1.473c3.716-2.232,7.478-4.391,11.245-6.533.866-.493,1.445-.005,1.857.773A1.278,1.278,0,0,1-620.348,6070.8Z" transform="translate(-507.021 -143.302)"/>
    <path id="Path_652" data-name="Path 652" d="M-752.735,6580.875a1.3,1.3,0,0,1-2.039-.528c-2.074-3.6-4.173-7.187-6.22-10.8-.645-1.138.147-2.368,1.677-2.324a3.724,3.724,0,0,1,.876.835c2.1,3.583,4.17,7.189,6.253,10.788A1.3,1.3,0,0,1-752.735,6580.875Z" transform="translate(-413.95 -506.697)"/>
    <path id="Path_653" data-name="Path 653" d="M-1263.517,6441.844a4.026,4.026,0,0,1-.849.863c-3.582,2.1-7.187,4.17-10.785,6.247a1.3,1.3,0,0,1-2.028-.574,1.3,1.3,0,0,1,.55-2.03c3.561-2.047,7.11-4.122,10.682-6.152A1.588,1.588,0,0,1-1263.517,6441.844Z" transform="translate(-38.238 -414.065)"/>
    <path id="Path_654" data-name="Path 654" d="M-751.87,5925.331c-.294.615-.444.991-.642,1.339-1.968,3.419-3.955,6.827-5.913,10.251-.528.92-1.122,1.394-2.189.768s-.942-1.385-.414-2.292c2.031-3.487,4.01-7,6.1-10.453a1.974,1.974,0,0,1,1.609-.746C-752.8,5924.272-752.352,5924.926-751.87,5925.331Z" transform="translate(-413.803 -38.712)"/>
    <path id="Path_655" data-name="Path 655" d="M-1123.465,6568.807c-.261.6-.389.991-.588,1.337-1.984,3.457-3.991,6.906-5.972,10.368-.5.869-1.073,1.318-2.085.773-1.048-.566-1.092-1.317-.542-2.262,2.028-3.487,4.012-7,6.1-10.453a2.028,2.028,0,0,1,1.565-.857C-1124.459,6567.761-1123.985,6568.407-1123.465,6568.807Z" transform="translate(-143.373 -507.055)"/>
    <path id="Path_656" data-name="Path 656" d="M-619.882,6447.756c-.593.994-1.323.9-2.189.392-3.484-2.028-7-4.007-10.45-6.087a2.02,2.02,0,0,1-.849-1.565c.052-.531.7-1,1.1-1.516.6.264.991.392,1.334.588,3.46,1.987,6.9,4,10.366,5.969C-619.6,6446.087-619.277,6446.741-619.882,6447.756Z" transform="translate(-506.995 -413.368)"/>
    <path id="Path_657" data-name="Path 657" d="M-1123.537,5936.337c-.449.378-.879,1-1.421,1.122a1.8,1.8,0,0,1-1.519-.656c-1.285-2.025-2.442-4.135-3.642-6.214q-1.327-2.295-2.651-4.59a1.305,1.305,0,0,1,.542-2.047,1.326,1.326,0,0,1,2.055.539q3.083,5.366,6.171,10.723A11.762,11.762,0,0,1-1123.537,5936.337Z" transform="translate(-143.333 -38.336)"/>
    <path id="Path_658" data-name="Path 658" d="M-637.469,6482.989c-.106.155-.21.313-.316.471q-5.716-4.161-11.436-8.319c.106-.147.21-.294.316-.441Q-643.188,6478.844-637.469,6482.989Z" transform="translate(-495.462 -439.364)"/>
    <path id="Path_659" data-name="Path 659" d="M-1216.909,6012.27c-.122.142-.248.283-.37.425q-5.247-4.724-10.491-9.449c.12-.136.24-.272.359-.406Q-1222.16,6007.552-1216.909,6012.27Z" transform="translate(-74.402 -95.951)"/>
    <path id="Path_660" data-name="Path 660" d="M-688.192,5973.663l-9.457,10.5c-.136-.125-.275-.253-.411-.381q4.728-5.246,9.457-10.5C-688.464,5973.413-688.328,5973.538-688.192,5973.663Z" transform="translate(-459.917 -74.445)"/>
    <path id="Path_661" data-name="Path 661" d="M-717.667,6563.284c-.15.109-.3.218-.449.33l-8.313-11.441c.152-.109.3-.221.457-.332Q-721.82,6557.56-717.667,6563.284Z" transform="translate(-439.27 -495.505)"/>
    <path id="Path_662" data-name="Path 662" d="M-1157.106,6552.171l-8.3,11.444c-.152-.109-.3-.218-.457-.33q4.157-5.717,8.311-11.436C-1157.4,6551.956-1157.253,6552.062-1157.106,6552.171Z" transform="translate(-119.459 -495.513)"/>
    <path id="Path_663" data-name="Path 663" d="M-1242.339,6043.507l-.318.465-11.433-8.313c.106-.149.215-.3.321-.449Z" transform="translate(-55.246 -119.51)"/>
    <path id="Path_664" data-name="Path 664" d="M-1157.072,5958.436c-.147.109-.294.218-.444.324q-4.145-5.7-8.294-11.4l.441-.359Z" transform="translate(-119.495 -55.312)"/>
    <path id="Path_665" data-name="Path 665" d="M-717.606,5947.3q-4.161,5.72-8.316,11.444c-.147-.115-.294-.226-.438-.338q4.148-5.717,8.3-11.436C-717.908,5947.079-717.758,5947.188-717.606,5947.3Z" transform="translate(-439.321 -55.29)"/>
    <path id="Path_666" data-name="Path 666" d="M-688.188,6539.351c-.136.128-.275.253-.414.381q-4.724-5.251-9.449-10.5l.408-.373Q-692.913,6534.106-688.188,6539.351Z" transform="translate(-459.924 -478.781)"/>
    <path id="Path_667" data-name="Path 667" d="M-1188.366,6529.21q-4.724,5.247-9.451,10.494c-.136-.13-.27-.258-.4-.389q4.72-5.235,9.44-10.475C-1188.641,6528.962-1188.5,6529.085-1188.366,6529.21Z" transform="translate(-95.908 -478.766)"/>
    <path id="Path_668" data-name="Path 668" d="M-1188.373,5983.837l-.411.384q-4.724-5.246-9.446-10.494l.406-.368Q-1193.1,5978.6-1188.373,5983.837Z" transform="translate(-95.9 -74.496)"/>
    <path id="Path_669" data-name="Path 669" d="M-661.391,6512.446c-.125.136-.248.275-.37.414l-10.488-9.443.376-.417Q-666.636,6507.724-661.391,6512.446Z" transform="translate(-478.701 -459.961)"/>
    <path id="Path_670" data-name="Path 670" d="M-1282.411,6412.163q-6.406,2.859-12.813,5.714c-.073-.166-.15-.332-.226-.5q6.4-2.85,12.8-5.706C-1282.572,6411.833-1282.493,6412-1282.411,6412.163Z" transform="translate(-25.145 -393.492)"/>
    <path id="Path_671" data-name="Path 671" d="M-1313.64,6229.743c-.024.177-.046.356-.071.536l-13.959-1.483.057-.526Q-1320.627,6229.005-1313.64,6229.743Z" transform="translate(-1.696 -260.016)"/>
    <path id="Path_672" data-name="Path 672" d="M-637.388,6035.649l-11.441,8.305-.31-.458,11.43-8.3C-637.6,6035.35-637.495,6035.5-637.388,6035.649Z" transform="translate(-495.52 -119.503)"/>
    <path id="Path_673" data-name="Path 673" d="M-1242.223,6475.146q-5.721,4.153-11.444,8.311c-.1-.163-.188-.326-.283-.49l11.406-8.267C-1242.435,6474.847-1242.329,6475-1242.223,6475.146Z" transform="translate(-55.348 -439.364)"/>
    <path id="Path_674" data-name="Path 674" d="M-576.072,6187.509l-13.747,2.91c-.038-.171-.073-.343-.112-.517l13.766-2.932C-576.134,6187.15-576.1,6187.33-576.072,6187.509Z" transform="translate(-538.612 -229.959)"/>
    <path id="Path_675" data-name="Path 675" d="M-1216.89,6503.43q-5.247,4.733-10.488,9.465l-.362-.427q5.243-4.72,10.486-9.438C-1217.132,6503.163-1217.012,6503.3-1216.89,6503.43Z" transform="translate(-74.423 -459.982)"/>
    <path id="Path_676" data-name="Path 676" d="M-1087.233,5918.522c-.166.076-.332.15-.5.223q-2.858-6.415-5.719-12.832c.166-.076.332-.15.5-.224Q-1090.094,5912.1-1087.233,5918.522Z" transform="translate(-172.158 -25.246)"/>
    <path id="Path_677" data-name="Path 677" d="M-892.632,5873.464q-.731,6.979-1.462,13.959c-.177-.02-.357-.036-.536-.052q.735-6.983,1.467-13.962Z" transform="translate(-316.856 -1.754)"/>
    <path id="Path_678" data-name="Path 678" d="M-783.225,5905.894l-5.725,12.846c-.163-.074-.327-.147-.49-.218q2.85-6.419,5.7-12.833Z" transform="translate(-393.412 -25.246)"/>
    <path id="Path_679" data-name="Path 679" d="M-599.565,6417.346c-.074.166-.15.332-.223.5l-12.832-5.725c.071-.166.144-.33.218-.493Z" transform="translate(-522.099 -393.463)"/>
    <path id="Path_680" data-name="Path 680" d="M-599.473,6108.1q-6.419,2.862-12.84,5.722c-.068-.169-.139-.34-.207-.512q6.411-2.851,12.824-5.706C-599.622,6107.766-599.549,6107.932-599.473,6108.1Z" transform="translate(-522.172 -172.194)"/>
    <path id="Path_681" data-name="Path 681" d="M-661.36,6003.218q-5.243,4.729-10.488,9.451l-.381-.408q5.247-4.729,10.5-9.452C-661.608,6002.946-661.486,6003.082-661.36,6003.218Z" transform="translate(-478.716 -95.929)"/>
    <path id="Path_682" data-name="Path 682" d="M-1087.3,6588.693q-2.866,6.431-5.733,12.865l-.5-.223,5.733-12.865C-1087.631,6588.544-1087.465,6588.62-1087.3,6588.693Z" transform="translate(-172.099 -522.165)"/>
    <path id="Path_683" data-name="Path 683" d="M-855.2,5880.116q-1.462,6.872-2.926,13.744c-.174-.036-.348-.071-.523-.109q1.458-6.867,2.913-13.741Z" transform="translate(-343.042 -6.557)"/>
    <path id="Path_684" data-name="Path 684" d="M-569.9,6228.812q-6.978.727-13.951,1.456c-.019-.174-.041-.348-.06-.525q6.978-.735,13.954-1.473Z" transform="translate(-542.994 -260.016)"/>
    <path id="Path_685" data-name="Path 685" d="M-576.005,6345.36c-.068.174-.133.346-.2.518l-13.673-2.924c.035-.171.073-.343.109-.515Q-582.887,6343.9-576.005,6345.36Z" transform="translate(-538.649 -343.107)"/>
    <path id="Path_686" data-name="Path 686" d="M-585.884,6381.945l-.163.506-13.333-4.32.147-.531Z" transform="translate(-531.735 -368.696)"/>
    <path id="Path_687" data-name="Path 687" d="M-970.8,5887.4c-.174.019-.351.036-.525.054l-1.47-13.956c.18-.022.359-.044.539-.063Q-971.534,5880.422-970.8,5887.4Z" transform="translate(-259.965 -1.776)"/>
    <path id="Path_688" data-name="Path 688" d="M-783.193,6601.4c-.166.074-.332.15-.5.226q-2.858-6.4-5.711-12.8c.166-.079.332-.161.5-.243Q-786.049,6594.987-783.193,6601.4Z" transform="translate(-393.441 -522.245)"/>
    <path id="Path_689" data-name="Path 689" d="M-892.627,6631.085c-.182.02-.362.038-.544.06q-.727-6.99-1.459-13.978l.523-.057Q-893.364,6624.1-892.627,6631.085Z" transform="translate(-316.856 -543.008)"/>
    <path id="Path_690" data-name="Path 690" d="M-818.584,6615.085l-.52.171q-2.168-6.676-4.336-13.357c.169-.057.34-.112.512-.168Q-820.756,6608.406-818.584,6615.085Z" transform="translate(-368.667 -531.815)"/>
    <path id="Path_691" data-name="Path 691" d="M-1010.616,6611.23q-1.462,6.88-2.921,13.758l-.523-.106q1.454-6.876,2.91-13.752C-1010.973,6611.163-1010.793,6611.2-1010.616,6611.23Z" transform="translate(-229.937 -538.656)"/>
    <path id="Path_692" data-name="Path 692" d="M-1307.2,6189.915c-.035.174-.071.346-.1.518q-6.872-1.45-13.744-2.9c.033-.18.063-.356.1-.536Z" transform="translate(-6.514 -229.98)"/>
    <path id="Path_693" data-name="Path 693" d="M-970.792,6617.161q-.735,6.995-1.467,13.987c-.177-.019-.354-.038-.531-.055q.731-6.99,1.462-13.983C-971.151,6617.126-970.972,6617.145-970.792,6617.161Z" transform="translate(-259.972 -543.008)"/>
    <path id="Path_694" data-name="Path 694" d="M-585.839,6147.117l-13.352,4.336c-.057-.169-.114-.34-.169-.509l13.349-4.344C-585.953,6146.771-585.9,6146.943-585.839,6147.117Z" transform="translate(-531.749 -200.578)"/>
    <path id="Path_695" data-name="Path 695" d="M-569.9,6307.931c-.016.183-.033.362-.052.545l-13.946-1.468c.016-.177.035-.351.052-.528Q-576.874,6307.207-569.9,6307.931Z" transform="translate(-543.001 -316.936)"/>
    <path id="Path_696" data-name="Path 696" d="M-1313.621,6306.976q-6.982.731-13.965,1.459c-.016-.174-.035-.351-.054-.525l13.967-1.47C-1313.656,6306.62-1313.637,6306.8-1313.621,6306.976Z" transform="translate(-1.718 -316.907)"/>
    <path id="Path_697" data-name="Path 697" d="M-855.219,6624.885c-.174.035-.348.074-.523.109q-1.462-6.876-2.918-13.752l.523-.111Q-856.68,6618.006-855.219,6624.885Z" transform="translate(-343.035 -538.656)"/>
    <path id="Path_698" data-name="Path 698" d="M-1049.609,5904.208c-.172.058-.343.112-.515.169q-2.168-6.672-4.336-13.347c.18-.038.357-.079.536-.12Q-1051.768,5897.558-1049.609,5904.208Z" transform="translate(-200.534 -14.49)"/>
    <path id="Path_699" data-name="Path 699" d="M-1010.634,5893.726l-.534.093q-1.458-6.86-2.913-13.717c.174-.038.349-.076.52-.111Q-1012.094,5886.858-1010.634,5893.726Z" transform="translate(-229.922 -6.543)"/>
    <path id="Path_700" data-name="Path 700" d="M-1049.619,6601.846q-2.164,6.676-4.325,13.346l-.525-.149q2.168-6.68,4.339-13.363C-1049.959,6601.737-1049.791,6601.792-1049.619,6601.846Z" transform="translate(-200.527 -531.779)"/>
    <path id="Path_701" data-name="Path 701" d="M-1296.886,6378.152q-6.68,2.168-13.355,4.339c-.057-.169-.112-.337-.169-.506l13.328-4.344C-1297.017,6377.812-1296.952,6377.983-1296.886,6378.152Z" transform="translate(-14.257 -368.726)"/>
    <path id="Path_702" data-name="Path 702" d="M-1307.254,6342.951q-6.856,1.458-13.714,2.912c-.038-.174-.073-.348-.112-.522q6.868-1.462,13.739-2.921C-1307.311,6342.6-1307.281,6342.774-1307.254,6342.951Z" transform="translate(-6.492 -343.093)"/>
    <path id="Path_703" data-name="Path 703" d="M-818.6,5890.958l-4.353,13.371-.509-.163q2.16-6.668,4.323-13.336C-818.958,5890.874-818.778,5890.915-818.6,5890.958Z" transform="translate(-368.653 -14.432)"/>
    <path id="Path_704" data-name="Path 704" d="M-1296.736,6150.967c-.057.168-.112.337-.166.506l-13.3-4.312.139-.531Z" transform="translate(-14.41 -200.599)"/>
    <path id="Path_705" data-name="Path 705" d="M-1282.408,6113.333c-.076.166-.152.335-.226.5l-12.816-5.719c.084-.163.166-.324.25-.487Z" transform="translate(-25.145 -172.216)"/>
  </g>
</svg>
