<svg xmlns="http://www.w3.org/2000/svg" width="424.559" height="183.415" viewBox="0 0 424.559 183.415">
  <g id="Group_1964" data-name="Group 1964" transform="translate(-3133.942 -3987.456)">
    <path id="Path_323" data-name="Path 323" d="M3962.635,4014.979c-3.333.636-6.879.153-10.366.153-.065-1.113.553-2.228-.433-3.12-.335.266-.632.5-.945.747-2.108-1.974-.5-4.566-1.285-6.776-.342.043-.682.084-1.132.139v6.978l-1.28-.144v-1.718h-38.678c.325-1.127-.309-1.388-1.113-1.476-.893-.1-1.263-.543-1.258-1.479a10.6,10.6,0,0,0-.4-2.094l-.321.014c-.383,1.522-.768,3.046-1.17,4.635-2.893-.148-5.384,1.854-8.368,1.362-.139-1.216-.223-2.369-.417-3.5-.206-1.2.148-1.823,1.434-2.015,2.046-.3,3.06-1.6,3.276-3.656a16.914,16.914,0,0,0-1.218-7.834,2.521,2.521,0,0,1-.253-1.228,1.693,1.693,0,0,0-1.091-1.981c-1.477-.78-2.972-1.541-4.386-2.427a12.44,12.44,0,0,0-12.419-.821c-6.525,2.948-9.995,11.553-7.384,18.461.477,1.256.223,1.9-.5,2.237-1.39-.5-2.493-1.235-3.57-1.194a14.635,14.635,0,0,0-5.314,1.048c-4.426,1.967-6.846,5.786-8.545,10.141-2.211,5.664-2.2,11.529-1.521,17.439.105.909-.079,1.357-.981,1.479-.512.069-1.017.2-1.529.254-1.266.134-2.534.263-3.8.349-.866.06-1.057.514-1.122,1.323-.318,4.046-.708,8.09-1.082,12.134-.129,1.383-.316,2.764-.4,4.149-.05.8.3,1.28,1.221,1.431,1.572.26,3.115.689,4.835,1.086-1.373.864-3.718.5-2.983,3.192-.472-.356-.756-.569-1.132-.852-.612,6.2,1.4,12.067,1.294,18.155-2.077.21-4.1,3.381-2.948,4.783.955,1.161.534,1.845.141,2.8a1.058,1.058,0,0,0-.041.586c.333,1.651.036,3.462,1.3,4.882.16.182.112.6.067.9-.39,2.479-.866,4.946-1.191,7.432-.486,3.728-1.582,7.43-.637,11.246a1.912,1.912,0,0,1-.045,1.178,53.151,53.151,0,0,1-3.3,6.565c-2.608,3.934-5.333,7.777-5.652,12.692a7.835,7.835,0,0,1-1.52,4.187,11.434,11.434,0,0,0-1.077,1.86c-1.247,2.732-1.818,5.494-.246,8.329a1.634,1.634,0,0,1-.036,1.031c-1.242,5.066-2.639,10.1-3.685,15.2a21.847,21.847,0,0,0,.125,6.021c.033.4.711.964,1.18,1.074,3.984.931,7.985.467,12.33.026-.158-1.56-.247-3.043-.474-4.5-.141-.9-.584-1.74-.732-2.632-.828-4.975.455-9.552,2.742-13.921a1.3,1.3,0,0,1,.663-.618,4.455,4.455,0,0,0,2.78-2.919c1.517-3.672,3.037-7.345,4.525-11.031a11.152,11.152,0,0,0,1.041-6.133,6.773,6.773,0,0,1,2.376-6.085,12.283,12.283,0,0,0,2.807-3.788,4.538,4.538,0,0,1,1.469-1.783,4.83,4.83,0,0,0,2.2-3.517c.222-1.456.395-2.927.751-4.35,1.388-5.563,4.891-10.079,7.551-15.013.034-.065.115-.105.244-.223.426.831.869,1.627,1.254,2.448.749,1.6,1.881,2.539,3.745,2.307a1.708,1.708,0,0,1,1.74.953c2.651,3.979,5.355,7.925,8.011,11.9a4.161,4.161,0,0,0,3.324,2.051,27.2,27.2,0,0,0,2.907-.134c1.229,1.294,2.158,2.783,1.608,4.829-.2.723-.1,1.52-.275,2.249s-.536,1.422-.775,2.142c-.345,1.032-1.024,2.118-.912,3.106.55,4.853.383,9.813,2.024,14.515a2.338,2.338,0,0,1,.139.7c.017,1.041,0,2.079,1.093,2.7.148.084.2.417.215.639.12,1.787.266,3.573.313,5.36a23.219,23.219,0,0,1-.093,5c-.634,3.226-1.594,6.389-2.335,9.6-.093.407.21,1.242.515,1.345a15.406,15.406,0,0,0,3.642.813c1.886.15,3.943-.367,5.652.215,4.757,1.622,9.6,1.266,14.441,1.23,1.18-.008,2.357-.2,3.582-.309.072-.729.15-1.321.187-1.912a2.715,2.715,0,0,0-1.866-3.074,28.545,28.545,0,0,1-3.618-1.537,15.047,15.047,0,0,1-3.34-2.167,31.71,31.71,0,0,1-3.594-4.154,6.057,6.057,0,0,1-1.364-2.843c-.225-2.852-.2-5.729-.189-8.593a3.651,3.651,0,0,1,.565-1.669,7.029,7.029,0,0,0,.909-5.071c-.866-3.651-.167-7.181.213-10.782.474-4.47.608-8.976.873-13.467a1.354,1.354,0,0,0-.179-.9c-.929-1-.845-2.266-1.041-3.47-.056-.34-.245-.821-.5-.933a3.257,3.257,0,0,1-1.764-2.266c-.407-1.247-.9-2.466-1.371-3.692-2.97-7.693-6.4-15.133-12.107-21.256a6.051,6.051,0,0,1-1.637-3.225c-.151-.9-.371-1.792-.521-2.7-.273-1.639.823-2.589,2.35-2.092a3.967,3.967,0,0,0,1.618.335c.572-.079,1.393-.333,1.6-.756a19.467,19.467,0,0,0,2.182-5.482c.546-3.934.694-7.93.888-11.907.2-4.015-.644-5.346-4.063-6.87.326-1.354.656-2.721,1.01-4.192,1.847,1,3.586,1.96,5.338,2.9a30.491,30.491,0,0,0,9.32,3.592,2.39,2.39,0,0,1,2.039,1.117c.023.043.146.033.306.067v-.687c.081.1.163.2.246.294,1.2-.644,2.448-1.213,3.583-1.957.99-.653,1.8-1.574,2.785-2.247a6.071,6.071,0,0,0,2.605-3.726,37.911,37.911,0,0,0,.833-4.333c.193-1.689.933-2.713,2.689-2.9a3.853,3.853,0,0,0,.895-.342c-.112-.572-.212-1.077-.308-1.582-.421-2.187-.85-4.372-1.254-6.561a2.044,2.044,0,0,1,.964-2.1,14.585,14.585,0,0,0,3.058-3.134,4.072,4.072,0,0,1,3.625-2.024c4.185-.034,8.372-.012,12.56-.012,2.046,0,2.043,0,2.355-1.991.009-.058.1-.1.16-.148a20.755,20.755,0,0,0,4.208.23c.548-.019,1.094-.3,1.637-.294,3.5.052,6.97-.577,10.506.531,1.835.574,4.063-.105,6.2-.223.036-.784.069-1.553.12-2.6C3967.82,4015.561,3965.324,4014.467,3962.635,4014.979Zm-45.117,9.672a23.4,23.4,0,0,1-3,4.673,29.4,29.4,0,0,1-2.261,2.462c-.854-1.591-1.6-2.984-2.347-4.372-.479-.888.1-1.343.734-1.723.984-.586,2-1.122,3.14-1.756-.723-.852-.517-1.673.321-2.01.869-.352,2.462-.761,2.718-.407A3.864,3.864,0,0,1,3917.518,4024.651Z" transform="translate(-528.927)" fill="#052b05"/>
    <path id="Path_324" data-name="Path 324" d="M3554.322,4401.657a15.116,15.116,0,0,1-12.655,12.2,58.366,58.366,0,0,1-7.514.282q-18,.04-36.007.007c-7.686-.007-13.651-4.239-15.766-11.167-.253-.825-.374-1.694-.591-2.708h56.848v-11.957c-.574-.029-1.194-.082-1.813-.082-13.2,0-26.4-.1-39.594.029-9.231.089-16.168-8.193-15.565-16.013.218-2.853-.072-5.741.057-8.6a15.274,15.274,0,0,1,15.365-14.58q20.871,0,41.748,0a15.127,15.127,0,0,1,14.546,13.431,1.8,1.8,0,0,1-.127.4h-55.688v11.3h1.378c13.158,0,26.316-.026,39.475.015,4.719.017,8.911,1.407,12.244,4.988a14.786,14.786,0,0,1,3.972,8.634A53.307,53.307,0,0,1,3554.322,4401.657Z" transform="translate(-264.49 -275.081)" fill="#052b05"/>
    <path id="Path_325" data-name="Path 325" d="M4324.521,4395.918a14.57,14.57,0,0,1-12.352,14.761,11.142,11.142,0,0,1-1.788.1q-22.487-.014-44.976-.04a14.378,14.378,0,0,1-13.985-11.471,28.945,28.945,0,0,1-.524-5.341c-.036-10.923-.089-21.851.039-32.774.1-8.062,4.94-13.778,12.641-15.285a12.987,12.987,0,0,1,2.5-.225q21.769-.021,43.54,0a15.111,15.111,0,0,1,14.622,11.969c.036.191.043.385.079.73h-59.474v39.608H4310.4v-14.166h-3.635c-6.339,0-12.677.067-19.014-.023-4.029-.06-6.956-2.259-9.253-5.386a14.754,14.754,0,0,1-2.517-5.544h48.483c.021.431.057.818.057,1.206C4324.526,4381.325,4324.541,4388.623,4324.521,4395.918Z" transform="translate(-849.655 -272.465)" fill="#052b05"/>
    <path id="Path_326" data-name="Path 326" d="M4682.228,4360.793a15.2,15.2,0,0,0-15.121-15.158q-20.211-.021-40.427.007a13.506,13.506,0,0,0-2.73.234c-7.863,1.618-12.723,7.633-12.737,15.771-.017,10.208-.047,20.413.027,30.619a31.568,31.568,0,0,0,.71,7.573,14.68,14.68,0,0,0,14.35,10.952c6.767-.241,13.551-.052,20.327-.052v.045c6.858,0,13.718-.153,20.571.038,8.6.242,15.178-7.444,15.073-15.1C4682.112,4384.081,4682.234,4372.437,4682.228,4360.793Zm-14.163,38.106H4625.5v-40.932h42.562Z" transform="translate(-1123.771 -272.467)" fill="#052b05"/>
    <path id="Path_327" data-name="Path 327" d="M3205.154,4399.255c-.177,1.065-.256,2-.493,2.891a15.824,15.824,0,0,1-15.541,11.945q-19.44.014-38.879.026c-7.839-.005-14.082-4.776-15.891-12.134a14.639,14.639,0,0,1-.395-3.431c-.017-11.6-.029-23.208.029-34.811a15.241,15.241,0,0,1,14.862-14.7c13.838,0,27.675.026,41.513-.009,7.693-.019,13.756,6.556,14.637,13.567a4.88,4.88,0,0,1-.036.729h-53.367v35.928Z" transform="translate(0 -275.055)" fill="#052b05"/>
  </g>
</svg>
