<svg xmlns="http://www.w3.org/2000/svg" width="347.307" height="289.818" viewBox="0 0 347.307 289.818">
  <g id="Group_2402" data-name="Group 2402" transform="translate(-4851.762 -5293.101)">
    <path id="Path_1940" data-name="Path 1940" d="M5029.772,5313.163c-1.43-15.1-15.877-23.947-29.78-18.388-40.449,16.2-81.908,19.416-124.457,10.311a18.335,18.335,0,0,0-9.524.795c-9.364,3.342-14.984,12.519-14.171,22.954,1.519,19.434,3.333,38.85,4.95,58.284,1.894,22.748,6.755,44.692,17.432,65.083,11.822,22.57,27.234,41.905,49.849,54.583,10.051,5.631,20.8,8.91,32.461,8.088,17.6-1.242,31.184-10.383,42.513-22.963,26.359-29.246,36.169-64.556,37.018-106.676C5034.187,5363.565,5032.149,5338.341,5029.772,5313.163Zm-136.875,73.8c-5.156-3.2-5.4-8.828-1.438-13.447,6.639-7.738,23.115-9.274,31.174-2.9,4.878,3.869,5.343,9.4,1.036,13.913-4.735,4.967-10.927,6.263-19.782,6.844C4901.5,5390.459,4896.792,5389.378,4892.9,5386.965Zm89.208,73.016c-16.7,13.037-35.07,15.4-54.442,6.765-12.884-5.745-20.836-15.654-23-30.468,23.74,22.364,74.857,16.377,91.262-7.47C4998.205,5438.253,4992.46,5451.9,4982.1,5459.981Zm16.9-81.611c-3.87,3.833-10.285,6.084-17.621,7.076-4.324-1.689-9.024-2.8-12.893-5.218-4.941-3.092-5.191-8.676-1.492-13.134,6.729-8.114,23.875-9.579,31.845-2.718C5003.432,5368.318,5003.495,5373.929,4999.009,5378.371Z" transform="translate(0 0)" fill="#1b3837"/>
    <path id="Path_1941" data-name="Path 1941" d="M5218.246,5403.822c-.554,9.355-1.046,18.746-2.171,28.046-2.44,20.221-3.807,40.728-8.265,60.519-7.085,31.38-22.972,58.266-47.955,79.173-11.133,9.328-23.65,16.074-38.224,18.164-17.789,2.565-33.211-3.27-46.819-14.34-20.1-16.352-32.032-38.036-39.824-62.286-4.146-12.937-4.038-12.974,5.379-23.919,1.188,5.093,2.145,9.989,3.467,14.779,6.227,22.462,16.226,42.87,33.426,59.078,10.955,10.338,23.562,17.208,39.261,16.225,11.669-.731,21.9-5.433,31.165-12.223,23.445-17.2,37.76-40.8,47.088-67.853,5.433-15.77,7-32.247,8.622-48.678,1.564-15.7,2.69-31.442,3.985-47.159a16.494,16.494,0,0,0-6.271-15,13.047,13.047,0,0,0-11.651-2.815,206.86,206.86,0,0,1-118.567-8.506c-4.638-1.725-7.488-3.672-6.71-9a42.824,42.824,0,0,0,.026-5.406c1.733.68,3.208,1.233,4.673,1.833,37.884,15.341,76.833,19.1,116.933,10.812C5204.414,5371.415,5219.371,5384.648,5218.246,5403.822Z" transform="translate(-19.236 -7.404)" fill="#1b3837"/>
    <path id="Path_1942" data-name="Path 1942" d="M5162.451,5550.662c-10.5-14.152-25.215-19.066-41.513-20.541-16.378-1.474-31.747.867-44.479,12.867.179-18.63,21.391-34.74,43.639-33.542C5145.268,5510.8,5164.568,5529.272,5162.451,5550.662Z" transform="translate(-23.93 -23.034)" fill="#1b3837"/>
    <path id="Path_1943" data-name="Path 1943" d="M5185.669,5468.118c-7.532,6.639-24.455,4.941-30.389-3.064-3.824-5.173-3.011-10.248,2.824-13.357,3.431-1.832,7.469-2.528,9.452-3.163,8.382.438,14.351,1.716,18.854,6.745C5190.261,5459.586,5189.993,5464.313,5185.669,5468.118Z" transform="translate(-32.075 -16.553)" fill="#1b3837"/>
    <path id="Path_1944" data-name="Path 1944" d="M5104.408,5461.095c-3.815,2.278-8.336,3.378-10.722,4.3-8.828-.705-15.154-1.761-19.515-7.676-3.127-4.253-2.9-8.282.974-11.784,7.622-6.9,25.108-5.183,31.184,3.056C5109.287,5453,5108.8,5458.459,5104.408,5461.095Z" transform="translate(-23.457 -15.82)" fill="#1b3837"/>
  </g>
</svg>
