<svg xmlns="http://www.w3.org/2000/svg" width="666.345" height="247.938" viewBox="0 0 666.345 247.938">
  <g id="Group_2401" data-name="Group 2401" transform="translate(-528.159 -9926.187)">
    <path id="Path_1935" data-name="Path 1935" d="M3391.734,10006.325a4.523,4.523,0,0,0-1.461-.178c-.982.034-1.962.142-2.943.219a6.745,6.745,0,0,1,1.247-.709,5.807,5.807,0,0,0,1.155-.683.985.985,0,0,0-.43-1.818,3.053,3.053,0,0,0-1.2-.049,12.851,12.851,0,0,0-5.832,1.909,5.686,5.686,0,0,1-.951.5c-.054.027-.156-.045-.238-.073-.035-.329-.069-.661-.125-1.187-1.227.152-2.37.308-3.515.433a4.231,4.231,0,0,0-2.593,1.3c-2.076,2.06-4.164,4.109-6.3,6.105a6.755,6.755,0,0,1-2.11,1.383c-2.221.856-4.5,1.562-6.742,2.372a42.8,42.8,0,0,1-11.873,2.335,19.609,19.609,0,0,1-3.622-.208,1.738,1.738,0,0,1-1.641-1.209,23.445,23.445,0,0,0-2.94-5.743c-1.023-1.7-2.06-3.381-3.036-5.1a6.312,6.312,0,0,1-.706-1.884c-.5-2.6-.913-5.219-1.4-7.823a2.764,2.764,0,0,1,.069-1.7,2.294,2.294,0,0,0-.714-2.791c-.8-.729-1.623-1.426-2.4-2.174-1.718-1.653-3.437-3.3-5.1-5.009a4.891,4.891,0,0,1-1.062-1.692c-.724-1.981-1.345-4-2.031-6a1.61,1.61,0,0,1,1.492-2.339c2.207-.178,3.964-1.344,5.709-2.542a1.373,1.373,0,0,0,.435-.5A6.06,6.06,0,0,1,3333.3,9969a14.015,14.015,0,0,0,4.282-4.42,5.627,5.627,0,0,0,1.04-4.337c-.39-1.937-.736-3.882-1.143-5.814a8.037,8.037,0,0,0-.55-1.37c-.307-.738-.677-1.455-.907-2.216a11.712,11.712,0,0,1-.424-2.25,2.46,2.46,0,0,0-2.1-2.405,8.55,8.55,0,0,1-4.132-1.854,1.683,1.683,0,0,0-.874-.328c-1.419-.228-2.837-.488-4.268-.611a1.81,1.81,0,0,0-2.012,1.973,2.167,2.167,0,0,1-.237,1,4.652,4.652,0,0,1-2.805,2.386,1.9,1.9,0,0,0-1.6,2.025,1.593,1.593,0,0,1-.868,1.391,6.745,6.745,0,0,0-1.944,1.634,24.18,24.18,0,0,1-3.717,4.067,15.286,15.286,0,0,0-1.812,2.311,24.4,24.4,0,0,0-1.179,2.186l-2.367-1.32c-.343-1.338-.452-1.427-1.9-.968a1.912,1.912,0,0,1-1.814-.2c-.166-1.031-.317-1.966-.5-3.081.506.212.976.4,1.439.605.9.4,1.328.31,2.183-.553a4.059,4.059,0,0,0-.6-.809,8.034,8.034,0,0,0-3.751-1.74,1.716,1.716,0,0,0-1.06.048c-1.264.752-2.512.282-3.764.134-.139-.309-.232-.563-.364-.8-.75-1.337-1.663-1.417-2.6-.24-.3.379-.614.75-.993,1.21-.54-.3-1-.555-1.465-.811-1.414-.785-2.809-1.608-4.253-2.336a6.294,6.294,0,0,0-1.807-.467c-.578-.1-.91.258-1.1.78a1.709,1.709,0,0,0,.66,2.033c1.254,1.013,2.559,1.964,3.856,2.925.488.362,1.006.683,1.475,1-.775,1.346-1.454,2.564-2.174,3.759a4.259,4.259,0,0,1-.917,1.148,36.141,36.141,0,0,1-3.239,2.39,30.417,30.417,0,0,1-7.534,3.576c-2.674.79-5.334,1.624-8.019,2.372a9.592,9.592,0,0,0-4.665,2.822c-1.452,1.6-2.86,3.237-4.347,4.8-1.529,1.608-2.2,3.449-1.4,5.552a6.33,6.33,0,0,0,4.85,4.413,12.587,12.587,0,0,0,4.688-.187,53.507,53.507,0,0,0,8.885-2.734c.558-.206,1.146-.333,1.876-.539-.074.887-.086,1.558-.193,2.216-.486,3.018-.913,6.052-1.522,9.046-.993,4.889-2.091,9.757-3.2,14.621a9.109,9.109,0,0,1-1.011,2.479c-.808,1.4-1.773,2.712-2.6,4.105-2.424,4.105-4.835,8.219-7.2,12.359-.786,1.374-.723,1.447.586,2.389q1.588,1.14,3.232,2.207a2.035,2.035,0,0,1,.98,2.065,15.294,15.294,0,0,1-2.421,7.214,7.545,7.545,0,0,0-1.31,3.2,21.661,21.661,0,0,1-1.082,4.705,11.686,11.686,0,0,0-.551,2.766,19.287,19.287,0,0,1-1.681,6.629,19.475,19.475,0,0,0-1.239,3.122c-.439,1.416-.8,2.859-1.123,4.307-1.714,7.587-3.39,15.183-5.117,22.766a25.235,25.235,0,0,1-1.581,5.562,28.012,28.012,0,0,0-1.838,5.164,6.086,6.086,0,0,1-.825,1.676c-.806,1.235-1.8,2.366-2.477,3.667-1.656,3.193-3.252,6.422-4.724,9.7a69.809,69.809,0,0,0-3.321,8.389c-1.538,5.122-2.84,10.315-4.168,15.5-.883,3.445-1.641,6.918-3.968,9.779a2.783,2.783,0,0,0-.6,2.159c.213,1.557.438,3.11.708,4.656a3.19,3.19,0,0,1-.406,2.438,33.308,33.308,0,0,0-2.016,3.662c-1.4,2.966-2.8,5.937-4.069,8.961a11.791,11.791,0,0,0-.711,3.4,2.179,2.179,0,0,0,1.667,2.336,7.234,7.234,0,0,0,1.577.339c1.252.133,2.509.216,3.765.327a6.185,6.185,0,0,0,6.973-4.461c.292-.8.592-1.607.813-2.431a18.148,18.148,0,0,1,2.666-5.715,27.578,27.578,0,0,0,1.407-2.6,26.831,26.831,0,0,1,1.525-2.665,16.715,16.715,0,0,1,1.814-2,3.357,3.357,0,0,0,1-2.431,13.207,13.207,0,0,0-.115-1.879c-.219-1.559-.536-3.105-.693-4.668a3.083,3.083,0,0,1,.37-1.771c3.21-5.423,6.133-10.984,8.866-16.667,4.64-9.647,9.518-19.179,14.3-28.757a7.042,7.042,0,0,1,.559-.744c-.055.906-.081,1.481-.127,2.055-.316,3.9-.642,7.8-.954,11.7-.4,4.977-.782,9.955-1.183,14.932-.494,6.143-1.027,12.282-1.5,18.426q-.835,10.9-1.579,21.8c-.107,1.559-.016,3.133-.016,4.7a3.188,3.188,0,0,0,2.7.074c.767-.412.458-1.2.613-1.816a8.61,8.61,0,0,0,.124-1.343q.45-5.243.9-10.487c.415-4.794.84-9.587,1.249-14.384.405-4.751.793-9.5,1.192-14.253q.616-7.33,1.239-14.657c.424-5.063.865-10.129,1.244-15.2q.34-4.569.5-9.149a4.814,4.814,0,0,1,1.656-3.544,20.5,20.5,0,0,0,2.253-2.488c.714-.922,1.294-1.946,1.965-2.906,2.088-2.984,4.134-6,6.318-8.913a14.563,14.563,0,0,1,2.857-2.641,2.747,2.747,0,0,1,3.51.069,6.5,6.5,0,0,1,1.6,1.613,19.983,19.983,0,0,1,1.877,3.421,103.463,103.463,0,0,0,7.352,14.106c1.51,2.557,3.232,5.007,4.514,7.672,4.407,9.158,8.653,18.384,11.62,28.151,1.317,4.339,3.055,8.55,4.554,12.835a25.319,25.319,0,0,0,3.2,6.363,14.921,14.921,0,0,1,1.287,2.214,10.782,10.782,0,0,1,.7,2.029,1.232,1.232,0,0,1-.471,1.448c-1.219.7-1.238,1.813-1.032,2.949a18.844,18.844,0,0,0,.871,3.389c.932,2.433,1.949,4.836,2.989,7.227a4.6,4.6,0,0,1,.365,2.886c-.227,1.056-.427,2.116-.689,3.162a3.549,3.549,0,0,0,.894,3.5c.86.917,1.8,1.764,2.663,2.674a31.563,31.563,0,0,1,2.6,2.9c1.887,2.555,3.917,4.917,6.929,6.2h3.241c.354-.184.7-.374,1.062-.549,2.2-1.072,3-2.8,2.232-5.109a12.266,12.266,0,0,0-1.33-2.786,26.023,26.023,0,0,0-2.6-3.437,4.6,4.6,0,0,1-.972-4.99,3.391,3.391,0,0,0,.238-1.314,4.475,4.475,0,0,1,.7-2.806c.663-1.1.532-1.607-.646-1.939-1.487-.416-1.732-1.205-1.764-2.694-.1-4.988-.469-9.97-.753-14.953a15.637,15.637,0,0,0-2.866-8.164c-.9-1.292-1.712-2.644-2.49-4.012a5.728,5.728,0,0,1-.736-2,112.935,112.935,0,0,0-3.7-16.706,8.014,8.014,0,0,0-1.073-2.454,4.55,4.55,0,0,1-.945-3.544,4.487,4.487,0,0,0-1.665-4.182,20.005,20.005,0,0,1-1.851-1.961,1.839,1.839,0,0,1-.455-1.312,5.059,5.059,0,0,0-.225-2.919,52.568,52.568,0,0,1-1.951-8.659c-.874-5.73-1.95-11.436-3.113-17.117-1.217-5.943-2.627-11.849-3.976-17.764a8.116,8.116,0,0,0-.75-2.158,12.6,12.6,0,0,1-1.256-7.7,9.787,9.787,0,0,0-.774-5.638,23.462,23.462,0,0,1-2.371-7.838,2.688,2.688,0,0,1,.724-2.478,2.581,2.581,0,0,0,.574-1.338,16.353,16.353,0,0,0,.267-2.41c.062-1.528.014-3.063.123-4.588a5.54,5.54,0,0,1,.573-2.45,44.591,44.591,0,0,1,3.045-4.113,4.781,4.781,0,0,1,1.2-1.045c.944-.595,1.941-1.1,2.89-1.688.6-.372,1.163-.822,1.841-1.308.423.72.781,1.332,1.141,1.943,1.763,2.979,3.463,6,5.311,8.927a25.127,25.127,0,0,0,5.283,6.1,7.238,7.238,0,0,0,4.8,1.88,16.26,16.26,0,0,0,2.8-.37,45.853,45.853,0,0,0,9.574-3.213q6.724-2.977,13.363-6.134a17.7,17.7,0,0,1,6.721-1.821,16.816,16.816,0,0,0,7.706-2.209,5.954,5.954,0,0,1,1.771-.534c1.757-.368,3.526-.675,5.278-1.065.548-.121,1.156-.291,1.358-.973-.311-.667-.943-.652-1.507-.646-1.484.014-2.966.087-4.45.136-.295.009-.589,0-.855,0-.209-.777.205-.884.7-.928.986-.084,1.978-.129,2.955-.279,1.553-.237,3.1-.5,4.634-.851.566-.128,1.255-.33,1.279-1.164a2.469,2.469,0,0,0-2.035-.53c-1.842.033-3.684.136-5.528.2a5.636,5.636,0,0,1-.8-.08,4.745,4.745,0,0,1,1.5-.742c1.915-.651,3.84-1.271,5.74-1.962a5.716,5.716,0,0,0,1.625-.935C3392.6,10007.121,3392.476,10006.55,3391.734,10006.325Zm-87.132-37.547a1.23,1.23,0,0,1-1.39.585c-2.266-.508-4.529-1.029-7.069-1.612a4.675,4.675,0,0,1,.893-.483,9.559,9.559,0,0,0,3.52-1.237,1.112,1.112,0,0,1,1.241.062c1.07.528,2.189.954,3.478,1.5C3305.076,9967.945,3304.859,9968.375,3304.6,9968.778Z" transform="translate(-2329.909 -14.875)" fill="#1b3837"/>
    <path id="Path_1936" data-name="Path 1936" d="M4484.27,10041.1v1.081a1.391,1.391,0,0,1-1.205.688c-.89.061-1.775.163-2.88.269.149.512.248.907.384,1.292a18.491,18.491,0,0,1,.638,1.754c.058.239-.172.547-.271.823-.3-.143-.73-.206-.869-.442a3.381,3.381,0,0,1-.571-2.562c.04-.162.044-.333.082-.622a18.8,18.8,0,0,0-4.449.716c-.008,1.363,1.485,2.533.471,3.944-1.233-.444-1.421-1.047-1.121-3.474-.857-.244-2.158-.015-4.4.81.185.393.388.764.538,1.154a4.148,4.148,0,0,1,.415,1.389,1.149,1.149,0,0,1-.578.91,1.116,1.116,0,0,1-.941-.514,3.135,3.135,0,0,1-.216-1.415,9.749,9.749,0,0,1,.294-1.518c-.911.252-1.631.418-2.328.651a2.78,2.78,0,0,1-1.971-.039,9.231,9.231,0,0,0-6.97.145c-7.222,2.891-14.455,5.751-21.681,8.632-1.379.549-2.745,1.128-4.112,1.705a2.37,2.37,0,0,0-1.339,2.686c.839,2.395.418,2.367-1.461,3.463-1.669.973-3.4,1.844-5.133,2.7a5.063,5.063,0,0,1-4.257.592c.046.469.049.766.107,1.052a32.756,32.756,0,0,0,2.122,6.667c4.03,9.183,7.625,18.545,11.259,27.889.6,1.538.854,3.207,1.347,4.791.531,1.714,1.157,3.4,1.736,5.1.4,1.189.829,2.371,1.181,3.574a17.6,17.6,0,0,0,1.834,4.757,4.308,4.308,0,0,1,.456,3.4,2.988,2.988,0,0,0,1.569,3.622,2.529,2.529,0,0,1,1.353,2.54c-.032.628.069,1.26.042,1.888a1.2,1.2,0,0,0,.866,1.354,3.763,3.763,0,0,1,2.618,3.436,15.955,15.955,0,0,0,2.042,5.8,19.7,19.7,0,0,1,1.55,4.3c1.318,4.394,2.654,8.782,3.844,13.21a23.725,23.725,0,0,1,.5,4.532,19.729,19.729,0,0,1-.07,2.694,2.8,2.8,0,0,0,.993,2.4c.805.714,1.65,1.384,2.5,2.038.92.707,1,1.284.163,2.089a16.978,16.978,0,0,1-1.534,1.154c.371.45.74.927,1.14,1.378a4.66,4.66,0,0,1,1.352,3.139,7.28,7.28,0,0,0,.44,2.235,1.579,1.579,0,0,1-.625,2.167c.505.31.879.535,1.25.768a6.9,6.9,0,0,1,.9.589c.71.624.673,1.068-.108,1.59-.181.122-.384.211-.7.38a8.735,8.735,0,0,0,.427,1.52,38.532,38.532,0,0,0,1.938,3.7,12.318,12.318,0,0,1,1.695,6.436,1.93,1.93,0,0,1-1.255,2,8.279,8.279,0,0,1-4.029.933c-1.929-.108-3.862-.141-5.788-.288a3.629,3.629,0,0,1-3.26-2.259c-.4-.9-.955-1.745-1.278-2.671a11.2,11.2,0,0,1-.506-2.624c-.115-1.249-.135-2.508-.162-3.764a9.788,9.788,0,0,1,.079-2.282,3.75,3.75,0,0,0-.365-2.607c-.876-1.723-1.775-3.436-2.653-5.158a7.6,7.6,0,0,1-1.024-3.178,2.285,2.285,0,0,0-.724-1.389,13.275,13.275,0,0,1-3.106-5.423c-2.074-5.7-4.369-11.324-6.545-16.99q-1.764-4.592-3.413-9.229a7.343,7.343,0,0,0-2.977-3.889,7.347,7.347,0,0,1-2.94-3.751c-.463-1.218-.9-2.448-1.393-3.655a10.819,10.819,0,0,0-2.885-4.187,30.366,30.366,0,0,1-4.419-5.083c-3.429-4.684-6.788-9.42-10.292-14.048a61.4,61.4,0,0,0-4.707-5.188,9.03,9.03,0,0,0-1.848-1.347,2.4,2.4,0,0,0-3.014.136,24.7,24.7,0,0,0-3.341,3.119c-2.672,3.332-5.361,6.668-7.769,10.19-3.3,4.827-6.5,9.733-9.449,14.779q-4.052,6.935-8.356,13.7a42.314,42.314,0,0,0-5.091,10.688c-.707,2.414-1.216,4.888-1.976,7.284a56.576,56.576,0,0,1-5.436,12.314,6.139,6.139,0,0,1-2.412,2.656c-.531.257-.57.769-.5,1.285.072.533.159,1.065.236,1.6a1.2,1.2,0,0,1-.858,1.463c-.545.2-1.049.511-1.582.752a1.791,1.791,0,0,0-1.046,1.47c-.105.666-.182,1.338-.306,2a2.855,2.855,0,0,1-.334,1.15,4.636,4.636,0,0,0-.732,3.086,31.382,31.382,0,0,0,.344,3.619,4.053,4.053,0,0,0,.674,1.448c.676,1.057,1.4,2.08,2.237,3.311a10.2,10.2,0,0,1-3.3-2.073c.061,1.223.077,2.245.174,3.259a2.03,2.03,0,0,1-1.226,2.163,14.02,14.02,0,0,1-10.034,1.557,5.329,5.329,0,0,1-3.62-7.958c.673-1.271,1.351-2.54,2.055-3.793a9.523,9.523,0,0,0,1.35-4.737c.008-1.791.18-3.585.307-5.376a4.192,4.192,0,0,1,.853-2.5,2.477,2.477,0,0,0,.441-1.625,11.831,11.831,0,0,0-.58-2.754c-.43-1.3-.367-1.631.8-2.264.314-.17.652-.3,1.071-.487.109-.469.246-.984.353-1.507a30.84,30.84,0,0,1,2.2-6.353,47.864,47.864,0,0,0,2.333-6.878c1.055-3.859,1.918-7.77,2.944-11.636a19.519,19.519,0,0,1,1.334-3.216c.459-.975,1.065-1.882,1.491-2.868a6.447,6.447,0,0,0,.432-1.954,3.191,3.191,0,0,1,1.768-2.689,4.886,4.886,0,0,0,2.495-4.912,4.186,4.186,0,0,1,1.511-3.973,4.293,4.293,0,0,0,1.476-2.318c.693-2.745,1.376-5.494,1.958-8.266.525-2.507.873-5.052,1.378-7.563a20.912,20.912,0,0,1,.94-2.945c.549-1.523,1.166-3.021,1.7-4.55a11.607,11.607,0,0,0,.418-1.975,1.32,1.32,0,0,0-.527-1.3,12.04,12.04,0,0,1-3.629-5.583c-.294-.855-.552-1.688-1.563-2.042a1.4,1.4,0,0,1-.7-.925,6.724,6.724,0,0,1-.294-2.643,7.958,7.958,0,0,0-.236-3.579,2.928,2.928,0,0,1,.093-1.808,30.728,30.728,0,0,0,1.607-5.134c.511-1.813,1.053-3.616,1.629-5.592-.14-.156-.387-.465-.665-.743-2.16-2.167-4.275-4.386-6.51-6.475a5.6,5.6,0,0,1-1.852-4.3,18.607,18.607,0,0,1,.623-5.475c1.554-5.3,3.066-10.624,4.618-15.931.238-.818.6-1.6.892-2.4.1-.279.165-.572.268-.94l-1.4-.411a7.06,7.06,0,0,1,.182-.88,84.012,84.012,0,0,1,5.576-13,13.754,13.754,0,0,1,3.981-4.682c4.989-3.7,9.913-7.481,14.875-11.213a4.327,4.327,0,0,0,1.565-2.3c.61-2.112,1.146-4.246,1.647-6.387a9.422,9.422,0,0,0-.192-4.912,10.015,10.015,0,0,1,.393-7.376,8.1,8.1,0,0,0,.595-2.753c.438-5,3.584-7.9,7.765-9.878a7.536,7.536,0,0,1,6.055-.148c1.891.738,3.728,1.552,4.923,3.361a6.474,6.474,0,0,0,1.508,1.335,12.645,12.645,0,0,1,2.932,3.134,14.333,14.333,0,0,0,2.014,2.351,4.148,4.148,0,0,1,1.286,3.916,4.685,4.685,0,0,0,.016,1.463c.274,1.955-.371,2.993-2.293,3.57a1.931,1.931,0,0,0-1.378,1.532,11.337,11.337,0,0,1-1.62,3.808,1.217,1.217,0,0,0-.19.5c-.157,1.81-1.334,3.095-2.284,4.5-.6.882-1.169,1.781-1.834,2.8.555.257.939.475,1.348.615.935.323,1.871.653,2.827.9a52.781,52.781,0,0,1,11.484,4.966c.594.316,1.153.7,1.727,1.055a6.543,6.543,0,0,1,3.042,4.247c2.138,8.692,4.068,17.427,5.559,26.255a3.872,3.872,0,0,1,.076.8,17.938,17.938,0,0,0,1.59,7.19c.409,1.087.759,2.2,1.179,3.423a17.642,17.642,0,0,0,1.785-.457c5.576-2.028,11.162-4.029,16.71-6.129,4-1.512,7.944-3.144,11.9-4.762a5.133,5.133,0,0,0,2.657-1.747,1.623,1.623,0,0,1,.94-.454c.563-.137,1.147-.194,1.72-.285a4.149,4.149,0,0,1,.173-1.357c.116-.238.6-.365.935-.42.875-.141,1.026.017,1.379,1.267l2.264-.551a5.471,5.471,0,0,1,.216-1.158c.1-.252.373-.563.6-.6s.54.215.736.417a3.271,3.271,0,0,1,.409.8c1.046-.281,2.07-.559,3.172-.856a8.144,8.144,0,0,1-.2-1.357.871.871,0,0,1,.4-.613.662.662,0,0,1,.589.174,12.329,12.329,0,0,1,.871,1.193c1.11-.3,2.268-.618,3.327-.905a23.536,23.536,0,0,1,2.474,2.426,4.217,4.217,0,0,1,.614,4.186C4483.353,10040.574,4483.332,10040.566,4484.27,10041.1Z" transform="translate(-3289.766 -36.606)" fill="#1b3837"/>
    <path id="Path_1937" data-name="Path 1937" d="M1630.709,10243.561c-1.741-1.33-3.252-2.988-5.341-3.841a2.879,2.879,0,0,1-.644-.485c-.661-.537-1.29-1.119-1.983-1.611q-12.6-8.963-25.216-17.892a5.111,5.111,0,0,1-1.517-1.673q-2.731-4.736-5.513-9.442a3.188,3.188,0,0,0-.883-1.162c-1.594-.947-2.369-2.518-3.336-3.979a7.325,7.325,0,0,1-1.145-4.314c.05-9.812.031-19.628.023-29.441,0-5.718-.03-11.434-.036-17.151a1.745,1.745,0,0,1,.162-1.025,3.5,3.5,0,0,0,.648-2.415c.026-1.079.031-2.162-.011-3.24a2.231,2.231,0,0,1,1.132-2.265c.224-.126.359-.413.548-.642-1.128-.658-1.475.864-2.365.656-.273-1.025-.423-25.06-.154-26.321a24.4,24.4,0,0,0,2.5-.266,2.484,2.484,0,0,1,2.423.74c2.952,2.836,5.976,5.6,8.93,8.434,1.555,1.49,3.013,3.085,4.533,4.613a3.75,3.75,0,0,0,.978.7,1.194,1.194,0,0,0,1.363-.3,1.121,1.121,0,0,0,.416-1.323,2.665,2.665,0,0,0-1.673-1.813,2.861,2.861,0,0,1-1.435-.889q-4.919-4.919-9.835-9.839c-.277-.276-.527-.578-.9-.992.546-.1.936-.162,1.325-.233.442-.082.887-.143,1.321-.257,1.607-.417,1.71-.71.717-1.979,1.018-.97,1-1.456-.24-2.049a10.509,10.509,0,0,0-2.549-.827c-1.9-.356-3.819-.6-5.728-.918a3.463,3.463,0,0,1-.744-.31c.018-.086.036-.172.054-.257h1.765c-.451-.4-.687-.579-.881-.8a4.637,4.637,0,0,1-.882-1.107c-.77-1.764-1.9-2.38-3.756-1.938-.519.124-1.024.306-1.522.456a2.823,2.823,0,0,1-.366-.25q-7.232-6.987-14.456-13.987a1.393,1.393,0,0,1-.466-.632,4.935,4.935,0,0,0-1.912-2.692,3.146,3.146,0,0,1-.98-1.512c-.678-2.4-2.586-3.1-4.716-1.835a3.814,3.814,0,0,0-.449.3,1.424,1.424,0,0,1-1.66.186c-.14-.824-.281-1.649-.431-2.537.457-.1.8-.2,1.144-.25,3.34-.472,6.7-.844,10.017-1.426s6.629-1.251,9.884-2.109a39.034,39.034,0,0,0,5.62-2.246,1.408,1.408,0,0,0,.668-1.02c.017-.2-.544-.589-.887-.65a21.332,21.332,0,0,0-3.6-.45c-6.167-.043-12.335-.006-18.5-.033-1.284-.006-2.569-.162-3.621-.233l-1.23-4.116c-.654-.3-.956-.078-1.068.476l-1.332-1.339c-.27.451-.459.766-.633,1.055h-1.41c.108,1.595.209,3.094.305,4.524-2.427,1.682-5.1,2.188-7.853,2.705-.018-.379-.045-.644-.039-.907q.113-5.8.236-11.6c.068-3.1.205-6.205.205-9.308,0-3.419-.118-6.837-.205-10.254-.008-.346.109-.807-.539-1.065-.751,5.622-.762,11.2-.949,16.758-.189,5.6-.331,11.213-.493,16.83-.454.132-.793.242-1.138.33-3.183.8-6.385,1.535-9.54,2.43a33.126,33.126,0,0,0-4.36,1.772,1.329,1.329,0,0,0-.963,1.337,11.983,11.983,0,0,0,1.615.407,76.358,76.358,0,0,0,12.941.089c.381-.022.763,0,1.272,0-.108.586-.186,1.007-.262,1.415-.592-.152-1.072-.277-1.664-.429.507,1.711.476,2.018-.513,3.407a12.334,12.334,0,0,1-1.564,1.85c-1.283,1.2-2.432,1.207-3.661-.027a12.83,12.83,0,0,1-1.713-2.24,5.239,5.239,0,0,0-3.525-2.5c-.616-.123-1.243-.2-1.865-.271-.894-.105-1.8-.126-2.681-.3-1.089-.218-1.388-.87-.94-1.9a13.078,13.078,0,0,1,.774-1.42,9.089,9.089,0,0,0,1.333-5.557,22.691,22.691,0,0,0-4.4-11.59c-2.342-3.145-5.594-4.073-9.351-3.377-3.054.567-5.7,2.143-8.444,3.488a6.618,6.618,0,0,0-3.872,5.867,10.477,10.477,0,0,0-.035,2.155c.277,2.274.609,4.543.947,6.809.2,1.314.207,1.336-.949,2.041a69.972,69.972,0,0,1-17.058,7.654,11.725,11.725,0,0,0-8.88,11.8,13.147,13.147,0,0,1-2.368,7.047,9.887,9.887,0,0,1-1.359,1.376c-.457-1.062-.859-1.855-1.145-2.692-2.436-7.1-4.824-14.222-7.283-21.316-1.016-2.929-2.15-5.819-3.282-8.708a19.329,19.329,0,0,0-1.187-2.191l-.486.149a11.822,11.822,0,0,0,.265,1.919c1.115,3.654,2.207,7.32,3.433,10.937,2.381,7.027,4.847,14.023,7.273,21.034.142.41.227.839.357,1.324-.392.028-.658.064-.922.061a61,61,0,0,0-10.769.552c-1.46.247-2.924.5-4.354.881-1,.262-.987.452-.968,1.543a2.516,2.516,0,0,1-.375,1.356,2.046,2.046,0,0,0,.012,2.612,1.564,1.564,0,0,1,.411.8,7.247,7.247,0,0,1-.748,3.875,2.664,2.664,0,0,0,.005,3.054,1.905,1.905,0,0,1,.5,1.509q-.292,5.12-.61,10.237c-.041.675-.066,1.328-.862,1.653-.216.088-.316.516-.421.806-.135.37-.223.758-.354,1.219-4.173-.178-8.3-.392-12.425-.521s-8.226-.172-12.4-.255c.1-1.725.245-3.337.273-4.953.012-.711-.011-1.323.7-1.732.154-.089.157-.443.3-.907l-1.931.355a1.809,1.809,0,0,1-.069-.318q-.01-12.425-.01-24.851c0-.263-.024-.607.121-.776a2.4,2.4,0,0,0,.426-1.779,3.587,3.587,0,0,1,.859-2.6,4.523,4.523,0,0,0,.747-1.975,7.976,7.976,0,0,0,.023-1.668c.388.026.692.026.987.075,6.3,1.015,12.6,2.09,18.916,3.031a34.152,34.152,0,0,0,9.145.4,9.789,9.789,0,0,0,2.472-.607.961.961,0,0,0,.335-1.729,6.876,6.876,0,0,0-1.837-1.33c-1.737-.847-3.511-1.62-5.287-2.387-6.441-2.777-12.86-5.617-19.643-7.5a2.759,2.759,0,0,1-.843-.4c-1.13-.8-2.243-1.626-3.536-2.568.293-1.112.616-2.332.97-3.672-.729-.093-1.324-.167-1.906-.239q-.071-.7-.142-1.385c-1.135-.095-1.031.983-1.392,1.246-.724-.133-1.266-.233-1.648-.3l-1.2,3.178c-1.3.168-2.451.324-3.6.463a8.512,8.512,0,0,1-1.969.172c-5.313-.641-10.611-1.428-15.935-1.966-3.213-.326-6.464-.337-9.7-.379a8.66,8.66,0,0,0-2.893.567c-1.207.424-1.369,1.426-.408,2.286a6.718,6.718,0,0,0,1.619.944,111.969,111.969,0,0,0,14.181,5.565c5.048,1.628,10.151,3.085,15.229,4.622.428.129.962.1,1.278.795l-1.748-.254c-.3,1.9.036,2.509,1.419,3.479.824.577,1.87,1.234,1.914,2.307.094,2.318.813,4.559.643,6.915-.155,2.149-.032,4.32-.032,6.48q0,7.63,0,15.262c0,.571.1,1.141-.486,1.585a1.353,1.353,0,0,0-.3.972c.011.986.1,1.972.157,2.957s.1,1.943.157,2.918c-.355.067-.528.1-.7.134-1.274.258-2.566.451-3.817.8-1.037.285-1.036.418-.978,1.526.036.712.1,1.462-.878,1.632.043.617.081,1.145.114,1.615l1.242.811c-.417,8.009-.832,15.993-1.252,24.048l-2.12.407c-.024-.416-.061-.721-.055-1.025.043-2.43.105-4.858.135-7.288a10.946,10.946,0,0,0-.181-1.443,1.768,1.768,0,0,0-.765,1.688c-.126,2.2-.249,4.4-.392,6.6-.055.854.141,1.814-.868,2.33-.089.046-.109.236-.151.362-.44,1.35-.879,2.7-1.337,4.1-.046-.038.012.047.086.068a2.259,2.259,0,0,1,1.867,2.407c-.066,1.618-.154,3.234-.232,4.851q-.494,10.245-.991,20.488-.324,6.6-.661,13.208c-.024.488.019.96-.473,1.316-2.657,1.931-5.213,4.014-7.966,5.792-1.814,1.173-3.607,2.36-5.337,3.649-1.082.806-2.2,1.57-3.24,2.43-1.9,1.566-4.158,2.69-5.751,4.639a.932.932,0,0,1-.442.3,3.871,3.871,0,0,0-1.856,1.378c-.779.865-1.723,1.578-2.574,2.382a1.313,1.313,0,0,0-.2,2.01,3.956,3.956,0,0,0,5.325.716,5.436,5.436,0,0,0,1.972-3.865,1.925,1.925,0,0,1,.879-1.656c3.1-2.311,6.19-4.649,9.285-6.973.239-.18.509-.315.86-.528.038.38.185.744.069.874-.89,1-.9,2.333-1.4,3.477a1.575,1.575,0,0,0,1.1,2.268,2.871,2.871,0,0,0,2.944-.872.914.914,0,0,0,.27-.716c-.281-1.251-.218-2.593-1.028-3.714a2.161,2.161,0,0,1,.47-2.838c.515-.431.976-.921,1.463-1.385.35-.331.7-.661,1.063-1,.37.313.655.531.916.775,3.444,3.235,6.861,6.5,10.344,9.689a2.664,2.664,0,0,1,.9,2.354q-.336,6.2-.575,12.4a19.414,19.414,0,0,0,.288,2.685,16.136,16.136,0,0,0-1.315,5.625,2.688,2.688,0,0,0,.466,2.263c.889,0,1.83.015,2.77,0,1-.021,1.328-.271,1.288-1.292-.073-1.927-.24-3.854-.431-5.772a1.351,1.351,0,0,1,.284-1.21,4.413,4.413,0,0,0,.813-1.652,24.117,24.117,0,0,0,.429-2.387c.448-2.519.9-5.036,1.322-7.407,1.706-.768,3.091-1.929,4.954-1.779a2.4,2.4,0,0,1,.86-2.133c4.695-3.643,9.344-7.34,14.013-11.015.308-.242.643-.45.986-.689,2.927,1.977,5.791,3.913,8.7,5.874-.072.4-.113.751-.2,1.092-.325,1.31-.574,2.647-1.02,3.914a38.85,38.85,0,0,1-1.775,4.039c-.131.273-.544.408-.779.573a13.554,13.554,0,0,0-1.768-.88.912.912,0,0,0-1.283.616.961.961,0,0,0,.69,1.256,11.2,11.2,0,0,0,1.311.31,1.948,1.948,0,0,1,1.49,2.285c-.081.35-.191.693-.289,1.039-.8,2.806-1.6,5.611-2.389,8.364l-1.274.4c-.25.981-.379,1.7-.62,2.375-.208.589-.578,1.121-.807,1.706a1.546,1.546,0,0,0-.112,1.024c.37.869.851,1.69,1.425,2.792.35-1.029,1.1-1.151,1.885-1.346.3-.077.592-.652.682-1.046a21.545,21.545,0,0,0,.232-2.143,3.829,3.829,0,0,1,.264-1.3c.577-1.092.61-1.074-.147-2.062.958-3.18,1.925-6.408,2.915-9.629.069-.229.278-.541.473-.582.629-.137.708-.6.828-1.089.111-.456.285-.9.435-1.358,2.276,1.073,3.114.981,4.435-.366-.118-1.246-.226-2.446-.347-3.646-.018-.175-.039-.414-.153-.5-1.121-.866-.548-1.958-.562-3.233,1.765,1.351,3.345,2.525,4.878,3.763.265.216.342.68.473,1.04a29.654,29.654,0,0,0,1.145,3.148,2.915,2.915,0,0,0,2.3,1.7,4.4,4.4,0,0,0,3.872-1.509c.624-.673.589-1.088-.084-1.723-.72-.678-1.461-1.334-2.177-2.017-.971-.925-1.811-2.02-3.3-2.191-.258-.03-.484-.378-.714-.589a31.247,31.247,0,0,0-6.481-4.82c-.1-.057-.162-.2-.227-.284a.821.821,0,0,1,0-.169c.405-1.564.806-3.133,1.221-4.7.211-.8.241-1.685,1.23-2.056.212-.079.3-.5.508-.88a9.062,9.062,0,0,1,2.1.862c.471.349.646,1.07,1.041,1.554a17.638,17.638,0,0,0,1.463,1.428c-.332.244-.573.429-.821.6a9.9,9.9,0,0,0-1.1.768,1.405,1.405,0,0,0,.007,2.322c.323.3.685.563.917.752a5.507,5.507,0,0,0-.047,1.823,14.035,14.035,0,0,0,1.287,2.509,1.387,1.387,0,0,0,1.735.667,10.99,10.99,0,0,1,1.171-.226c.257.416.452.768.682,1.1,1.516,2.177,2.931,4.437,4.584,6.5a38.505,38.505,0,0,0,12.17,10.315c2.014,1.057,2.016,1.052,1.633,3.373a20.973,20.973,0,0,0,2.455,1.18,2.725,2.725,0,0,0,3.462-1.233c9.349,2.844,18.639,1.9,27.878-.68.162.181.279.312.4.44.937,1.013,1.186,1.061,2.455.5.617-.27,1.23-.553,1.86-.793,1.082-.416,1.245-.683,1.018-1.818-.048-.252-.109-.5-.162-.735,8.224-4.935,15.279-10.925,19.5-19.781a13.342,13.342,0,0,0,1.372-.007,3.493,3.493,0,0,0,3.313-2.987c.236-1.274.358-2.57.542-3.933h1.191c.767,2.339,1.533,4.673,2.386,7.276-1.494-.09-2.277.795-3.1,1.606-.61.6-1.22,1.2-1.822,1.809a1.341,1.341,0,0,0-.208,2.022,3.875,3.875,0,0,0,3.624,1.671,2.392,2.392,0,0,0,2.589-1.908,4.648,4.648,0,0,1,.439-.9l.957,2.225,1.039.182c1.247,3.25,2.468,6.442,3.7,9.631a1.043,1.043,0,0,1-.147,1.234c-.319.343-.548.864-.078,1.184.6.411.513.977.617,1.539a11.79,11.79,0,0,0,.519,1.946,1.2,1.2,0,0,0,1.179.945,1.292,1.292,0,0,1,1.221.658,4.6,4.6,0,0,0,.829.612,2.421,2.421,0,0,1,.506-2.66c.424-.455.2-.948-.238-1.415a3.983,3.983,0,0,1-1.365-3.593l-1.552-.146c-.114-.251-.24-.487-.331-.735q-1.6-4.373-3.19-8.746c-.375-1.038-.189-1.6.812-2.052a4.346,4.346,0,0,1,1.563-.276c.478-.024.931-.052,1.114-.559.236-.646-.139-1.125-.55-1.557a.9.9,0,0,0-1.23-.074,13.553,13.553,0,0,1-1.247.789.745.745,0,0,1-1.128-.348c-.405-.884-.835-1.757-1.219-2.563a2.362,2.362,0,0,1,1.924-.831c1.669-.066,2.97-.7,3.379-2.507a1.162,1.162,0,0,1,.39-.661,21.839,21.839,0,0,1,2.817-1.846,4.85,4.85,0,0,1,1.772-.146c.134.468.218.76.312,1.087,2.135.321,4.21,1.091,6.383.321a1.2,1.2,0,0,1,1.409.485,38.729,38.729,0,0,0,2.824,3.085,2.783,2.783,0,0,1,.866,2.762c-.686,4.08-1.257,8.18-1.941,12.26a5.742,5.742,0,0,0,.581,3.936,10.334,10.334,0,0,0-1.565,4.4,16.359,16.359,0,0,0-.262,2.812c0,.983.249,1.184,1.2,1.22.765.028,1.53.048,2.295.045,1.1,0,1.378-.217,1.375-1.339-.007-2.189.251-4.4-.532-6.564a4.677,4.677,0,0,0,1.938-3.021c.141-.567.308-1.128.438-1.7.478-2.1.936-4.21,1.423-6.312.139-.6.352-1.189.579-1.94l.952,1.205c1.229-.211,2.54-.124,3.692-.878a2.56,2.56,0,0,1,1.047-.2c.439-.052.881-.075,1.425-.119-.159-1.007.446-1.477,1.132-1.965,2.311-1.642,4.587-3.334,6.881-5,.315-.228.658-.418.958-.607,2.025,1.722,3.218,1.516,6.38-.212l-1.614-3.212,2.173-1.959a4.373,4.373,0,0,1,.49.24q8.859,6.177,17.722,12.351a1.877,1.877,0,0,1,.824,1.444,7.872,7.872,0,0,0,1.544,3.838,3.694,3.694,0,0,0,5.552.781C1632,10245.509,1632.087,10244.615,1630.709,10243.561Zm-220.465-65.419,2.219.467c0,.878.026,1.722,0,2.561-.076,2.156-.177,4.312-.266,6.467a2.251,2.251,0,0,1-.916,2.084c-.774.522-.827,1.144-.362,2.019a2.05,2.05,0,0,1,.218,1.787,1.128,1.128,0,0,0,.82,1.646c.76.267,1.557.435,2.338.648l4.851,1.323v16.278c-1.968.15-3.634,1.175-5.386,1.885-1.769.72-3.443,1.678-5.314,2.606C1409.04,10204.7,1409.639,10191.491,1410.244,10178.142Zm8.971,59.119c-1.1.455-1.545-.421-2.233-.943.483-.755.944-1.477,1.421-2.224C1418.573,10235.149,1419.357,10236.071,1419.214,10237.261Zm-15.021-12.842c.3-.261.489-.444.7-.6,2.619-1.906,5.161-3.937,7.9-5.66a25.714,25.714,0,0,1,5.1-2.067c.692-.248,1.314.444,1.24,1.3-.124,1.434-.287,2.864-.442,4.294-.363,3.4-.792,6.792-1.068,10.2-.115,1.418-.981,2.127-2.069,2.946C1411.727,10231.33,1407.992,10227.9,1404.193,10224.419Zm13.9,25.367a7.775,7.775,0,0,1-1.565,2.626.948.948,0,0,1-.918.036,1.876,1.876,0,0,1-.813-1.6c.308-4.021.577-8.046.866-12.068a6.97,6.97,0,0,1,.143-.78l.276-.008a7.014,7.014,0,0,1,.207.694,4.336,4.336,0,0,1,.05.6l3.154,1.486C1419.025,10243.872,1418.677,10246.853,1418.09,10249.786Zm13.684-18.642c-2.227,1.823-4.481,3.615-6.673,5.478a2.534,2.534,0,0,1-2.546.628v-19.971c.1-.072.354-.156.443-.325.637-1.208,1.646-.952,2.561-.569a52.788,52.788,0,0,1,5.245,2.434,64.21,64.21,0,0,1,8.706,5.988C1436.848,10226.988,1434.312,10229.069,1431.774,10231.145Zm16.862-3.375c-5.192-3.4-10.32-6.89-15.594-10.149a88.248,88.248,0,0,0-7.949-3.955,1.6,1.6,0,0,0-2.227.471v-16.041c8.3.5,16.523,1.382,24.957,1.205a23.565,23.565,0,0,1,0,3.843c-.076,2.783-.238,5.564-.32,8.348a5.261,5.261,0,0,0,.944,3.575,1.7,1.7,0,0,1,.25,1c-.022,2.7-.095,5.39-.1,8.084a7.623,7.623,0,0,0,.3,1.981c.186.69.5,1.347.837,2.242C1449.272,10228.121,1448.94,10227.968,1448.636,10227.77Zm1.232-3.2v-5.247l1.167-.153C1451.337,10221.12,1451.441,10222.927,1449.868,10224.569Zm.991-8.665a1.393,1.393,0,0,1-.763-1.582q.207-5.313.4-10.629c.05-1.346.09-2.691.143-4.038.015-.4-.033-.866.737-.742.416,4.72.131,9.567,1.812,14.131Zm10.344-42.9c.318-7.036.629-13.889.947-20.86l7.813.625c-.005.066-.011.133-.017.2-1.106.349-2.223.674-3.318,1.057a3.114,3.114,0,0,0-2.292,3.267c.028,1.212.08,2.427.057,3.638a1.894,1.894,0,0,0,1.427,2.029c1.456.446,2.935.817,4.407,1.213.244.065.5.091.972.175C1467.8,10167.286,1464.569,10170.085,1461.2,10173Zm70.252-64.413a12.353,12.353,0,0,1,.132-3.9,12.2,12.2,0,0,1,1.351,3.977Zm18.164,104.809-.344.022a15.073,15.073,0,0,1-.636-1.7,18.11,18.11,0,0,1,.143-8.937c1.469-5.791,2.94-11.584,4.315-17.4.474-2,.679-4.074.978-6.121a9.721,9.721,0,0,0-1.292-6.222,13.542,13.542,0,0,0-1.031-1.738,1.939,1.939,0,0,1-.343-2.024c1.063-.353,2.17-.69,3.252-1.092a10.449,10.449,0,0,0,1.426-.761c.578-.322.928-.766.536-1.424a1.008,1.008,0,0,1,.13-1.231,2.147,2.147,0,0,0-.142-2.62,2.163,2.163,0,0,1-.382-1.075,12.187,12.187,0,0,1,.425-3.544,9.309,9.309,0,0,0-.427-6.576,1.2,1.2,0,0,1,.138-1.491,1.79,1.79,0,0,0,.28-2.021,5.752,5.752,0,0,1-.346-1.8,1.868,1.868,0,0,0-1.48-1.865,46.042,46.042,0,0,0-5.535-1.135c-2.946-.324-5.915-.43-8.876-.63-.131-.009-.261-.045-.5-.087-.123-1.052-.654-2.061-.161-3.213a1.315,1.315,0,0,0-.205-1.219c-.871-.55-.669-1.431-.8-2.167a3.677,3.677,0,0,1,.062-2.352c.8-1.741.1-3.183-1.8-4.013-.339-2.489-.682-5.024-1.033-7.561a.829.829,0,0,1,.459-1.008,1.01,1.01,0,0,0,.569-1.235c-.186-1.008.1-2.163-1.059-2.878-.284-.176-.235-.888-.15-1.447.245.238.5.462.728.717a17.072,17.072,0,0,0,10.006,5.421,2.818,2.818,0,0,0,3.156-1.232c.94-1.413,1.837-2.854,2.74-4.266,5.286.629,10.669,1.267,16.219,1.926.013.329.068.8.047,1.274-.059,1.4-.07,1.4,1.02,2.267a1.613,1.613,0,0,1-.51,1.448.946.946,0,0,0-.108.822c.138.346,1.047.476,1.329.181a1.263,1.263,0,0,0,.172-.8c0-.405-.077-.811-.134-1.336.74.288.55.759.546,1.108-.043,3.013-.119,6.023-.174,9.036q-.182,9.848-.356,19.693c-.02,1.124-.043,2.249-.1,3.371a1.534,1.534,0,0,1-2.308,1.433c-.524-.241-1-.587-1.534-.807a8.958,8.958,0,0,0-1.355-.338c-.512,1.677.28,2.744,1.275,3.67.651.605,1.468.247,1.954-.771l1.345.814c0,.594-.014,1.263,0,1.93.019.744-.153,1.5.433,2.176.188.215.105.692.1,1.049q-.158,8.024-.334,16.05c-.045,2.019-.1,4.036-.147,6.075l-1.306.559a2.54,2.54,0,0,0-2.558-.544c-1.133.249-1.193,1.153-1.369,2.086l1.487.489c-1.028,1.295-2.087,2.466-2.954,3.767-1.02,1.528-1.872,3.167-2.8,4.758-1.714,2.956-3.4,5.93-5.165,8.852a4.122,4.122,0,0,1-1.453,1.154,3.64,3.64,0,0,0-1.44,1.54C1551.415,10210.083,1550.5,10211.734,1549.619,10213.4Zm22.022.628.357.008c0,1.293.018,2.585-.007,3.877-.012.652-.523.864-1.094,1.1C1570.478,10217.18,1571.39,10215.657,1571.641,10214.024Zm-20.127.994c-.042.063-.153.081-.254.132-.092-.075-.288-.209-.276-.233,1.013-1.933,2.018-3.871,3.09-5.77.216-.38.7-.612,1.057-.912.084.055.167.107.251.16a3.615,3.615,0,0,1-.276,1.088C1553.935,10211.345,1552.721,10213.179,1551.514,10215.019Zm14.192,8.043c-.931.688-1.881,1.35-2.654,1.9l-3.394-3.441,6.9-1.221C1567.009,10221.961,1566.961,10222.135,1565.705,10223.062Zm1.837-14.387c-.161,3.092-.362,6.181-.555,9.405-1.534.226-3.028.453-4.524.663-1.734.243-3.474.446-5.2.722a1.611,1.611,0,0,1-1.475-.384c-.933-.834-1.91-1.618-2.97-2.507,1.36-2.211,2.619-4.282,3.9-6.337a2.429,2.429,0,0,0,.467-1.887,3.1,3.1,0,0,1,.1-1.33c.274-1.067.671-1.315,1.744-1.158q3.466.507,6.927,1.034C1567.064,10207.066,1567.6,10207.624,1567.542,10208.675Zm.956-7.228a1.673,1.673,0,0,0-1.01,1.72,14.612,14.612,0,0,1-.258,1.888l-7.952-1.22c.747-1.42,1.654-2.611,2.465-3.856.835-1.28,1.7-2.543,2.543-3.815.824-1.234,1.623-2.484,2.472-3.7a31.221,31.221,0,0,1,2.735-3.879,4.526,4.526,0,0,1,.257.971c-.132,3.5-.3,7-.413,10.5A1.387,1.387,0,0,1,1568.5,10201.447Zm3.525,24.541c-.269.08-.554.19-.848.25-.627.128-1.266.255-1.619-.507a2.1,2.1,0,0,1,.431-2.2c.606-.5,1.239-.973,2.037-1.6Zm-2.107-125.665a21.685,21.685,0,0,0,.392,2.376,4.078,4.078,0,0,0,.737,1.21,3.751,3.751,0,0,0,.577.527c.015.521-.922.795-.324,1.41.062.061-.05.327-.12.48-.223.479-.465.95-.674,1.372a12.171,12.171,0,0,1-5.778,1.03,73.568,73.568,0,0,0-11.894.808c-.142-.092-.263-.125-.285-.19a53.841,53.841,0,0,0-4.747-9.517,9.7,9.7,0,0,1-.882-6.507,2.13,2.13,0,0,0-1.194-2.591.976.976,0,0,1-.5-1.354,3.809,3.809,0,0,0,.207-.64c.271-1.181.113-1.479-1.014-1.973-1.3-.568-1.3-.568-1.068-2.042l11.158-1.269a10.172,10.172,0,0,1,.393,3.308,5.873,5.873,0,0,0,.637,2.707c.12.306.7.5,1.1.614,1.288.361,2.6.632,3.891,1a4.954,4.954,0,0,1,1.311.663,48.8,48.8,0,0,1,7.1,5.891c1.025,1,2.074,1.97,3.249,3.084C1571.163,10101.2,1570.793,10099.357,1569.916,10100.323Zm4.01,2.415c.01-.03.066-.045.2-.131.759.694,1.548,1.405,2.324,2.127,1.053.978,2.094,1.969,3.147,2.945.412.384.8.756.362,1.409-2.18.387-3.968-1.159-6.159-1.227,0-.729.238-1.5-.046-1.938C1572.982,10104.747,1573.6,10103.777,1573.926,10102.738Zm-1.09,60.754a5.854,5.854,0,0,1,.312-1.255,8.287,8.287,0,0,0,.2-1.047c.13-1.342.259-2.685.349-4.03a2,2,0,0,0-.6-1.961c-.181-.14-.2-.56-.2-.85.026-4.68.05-9.36.107-14.04.074-6.116.177-12.234.27-18.352,0-.178.031-.356.039-.448.9-.528,1.841-.8,2.291-1.434a6.524,6.524,0,0,0,.505-2.469H1582v1.521q0,11.612-.012,23.225a9.288,9.288,0,0,1-.288,1.981,15.821,15.821,0,0,0,.008,5.232,31.855,31.855,0,0,1,.28,3.354q.028,20.455.014,40.913v1.549l-.307.068c-.157-.239-.321-.474-.469-.719a44.859,44.859,0,0,0-5.886-7.538,2.691,2.691,0,0,0-2.38-.768,8.458,8.458,0,0,1-.135-1.062Q1572.817,10174.429,1572.836,10163.492Zm-.03,25.636c.606-.353.91.014,1.2.355a42.706,42.706,0,0,1,5.455,7c.6,1.1,1.275,2.17,1.968,3.22a3.289,3.289,0,0,1,.579,2.024c-.036.931-.009,1.864-.009,2.876-2.1.267-4.062.45-6,.783a5.1,5.1,0,0,1-3.2-.484Zm1.537,20.208c-.007-.657.027-1.225.709-1.592.232-.126.335-.493.513-.776l6.225-.537v7.725c-2.355.774-4.769,1.566-7.3,2.4a6.072,6.072,0,0,1-.134-.875C1574.348,10213.563,1574.365,10211.449,1574.344,10209.336Zm-1.006,20.664c1.568-.691,1.393-1.95,1.38-3.168-.018-1.935.017-3.869-.015-5.8a1.247,1.247,0,0,1,.839-1.34c1.887-.84,3.742-1.745,5.593-2.617.623.379.419.86.315,1.341-.694,3.2-1.4,6.4-2.057,9.615-.24,1.187-.3,2.408-.515,3.6a3.77,3.77,0,0,1-1.382,2.667C1576.13,10232.882,1574.8,10231.512,1573.337,10230Zm5.832,15.617a26.554,26.554,0,0,0-.631,2.89,6.1,6.1,0,0,1-2.729,4.276,2.517,2.517,0,0,1-1.124-2.866c.686-3.705,1.2-7.441,1.837-11.155.114-.661-.121-1.63,1.139-1.823.644.98,1.791,1.563,1.834,2.914.007.227.466.438.8.733Zm1.438-7.911c-.577-.566-1.152-1.136-1.762-1.737.185-.34.343-.628.55-1.006.552.913,1.033,1.708,1.513,2.5Zm1.234-2.04a4.942,4.942,0,0,1-.77-4.6,23.953,23.953,0,0,0,.609-2.523C1582.067,10229.362,1582.165,10233.708,1581.842,10235.666Zm3.622-28.444.259-.064c.172.57.326,1.145.517,1.706a10.351,10.351,0,0,0,.709,1.852c.889,1.55,1.849,3.057,2.888,4.755l-3.853-.953c.084-.671.17-1.368.266-2.146l-.786-.489Zm11.669,22.77a2.157,2.157,0,0,1-.963,1.784c-2.561,1.9-5.11,3.821-7.591,5.823a3.683,3.683,0,0,1-3.424.819v-20.424c.386-.277.783-.562,1.236-.885,1.854.732,3.736,1.46,5.6,2.229a1.894,1.894,0,0,1,.8.676c1.61,2.433,3.193,4.884,4.619,7.076C1597.294,10228.238,1597.173,10229.112,1597.133,10229.991Z" transform="translate(-736.081 -102.724)" fill="#1b3837"/>
    <path id="Path_1938" data-name="Path 1938" d="M644.981,10096.149a28.088,28.088,0,0,0-1.541-5.009c-2.284-5.085-4.7-10.114-7.071-15.159a44.027,44.027,0,0,0-5.855-9.982c-1.191-1.408-2.295-2.891-3.468-4.315q-5.026-6.092-10.089-12.156a2.762,2.762,0,0,1-.76-2.2c.042-.356.026-.721.042-1.079a3.042,3.042,0,0,0-.808-2.342,4.459,4.459,0,0,1-.85-1.655,7.314,7.314,0,0,1-.113-3.607,16.3,16.3,0,0,0-.064-5.769c-.624-3.677-1.837-7.226-2.184-10.97-.29-3.13-.875-6.231-1.287-9.352a10.282,10.282,0,0,1,.07-1.8l.3-.119a10.031,10.031,0,0,1,1.143,1.042,22.719,22.719,0,0,1,1.313,1.881,17.152,17.152,0,0,0,3.621,4.158,10.214,10.214,0,0,0,10.674,1.493,5.2,5.2,0,0,0,3.5-5.121,14.618,14.618,0,0,0-.108-2.422c-.332-2.086-.736-4.16-1.117-6.236a26.729,26.729,0,0,1-.893-6.533,11.385,11.385,0,0,0-2-7.01,6.152,6.152,0,0,1-.668-1.165q-1.716-4.758-3.38-9.535c-.251-.717-.228-1.637-.685-2.146a6.685,6.685,0,0,0-2.182-1.068c-.016-.306-.03-.658-.053-1.011-.247-3.8-.18-7.674-2.312-11.087a1.577,1.577,0,0,1-.242-.624,3.56,3.56,0,0,1-.051-1.325,39.6,39.6,0,0,1,3.212-8.569,10.014,10.014,0,0,1,7.262-5.5c.078-.014.144-.1.212-.147.178-.491.352-.974.529-1.461,1.484.458,1.96,1.892,3.043,2.768a4.37,4.37,0,0,0,.316-2.331c0-1.428-.2-1.577-1.563-1.315-1.134.218-1.719-.24-1.472-1.362.335-1.52.855-3,1.3-4.51a2.078,2.078,0,0,1,1.744,1.678c.223.644.286,1.445,1.255,1.628a5.241,5.241,0,0,0,1.386-3.4c0-.8-.335-1.049-1.11-.9-.174.033-.338.121-.51.172-1.137.334-1.353.24-2.078-.922.243-.439.535-.895.758-1.382q.95-2.077,1.852-4.176a1.418,1.418,0,0,0-.554-1.979,5.206,5.206,0,0,1-.71-.622,4.378,4.378,0,0,1-1.379-2.4,5.213,5.213,0,0,0-1.128-2.086,1.967,1.967,0,0,0-2.635-.667c-1.118.476-1.359.986-1.444,2.291-.1,1.566-.335,3.126-.554,4.683a.751.751,0,0,1-.478.53c-.186.022-.421-.231-.605-.4-.092-.083-.1-.246-.17-.362-.4-.7-.841-.756-1.306-.095a3.974,3.974,0,0,0-.451,3.639l1.3-.54a16.73,16.73,0,0,1-1.753,3.267,1.9,1.9,0,0,1-2.211.892,5.249,5.249,0,0,0-2.559.275l2.176.968c-.182.265-.234.411-.335.475a2.446,2.446,0,0,0-1.163,3.209,8.865,8.865,0,0,1,.244,1.6,6.322,6.322,0,0,1-.413,3.559c-1.622,3.758-3.154,7.552-4.794,11.3-.647,1.479-1.478,2.878-2.246,4.3a1.905,1.905,0,0,1-1.206.973,5.72,5.72,0,0,0-3.765,2.98c-.167.028-.3.05-.429.074-1.2.221-1.384.677-.575,1.563a16.756,16.756,0,0,0,1.6,1.449,1.058,1.058,0,0,1,.342,1.419c-.558,1.179-1.047,2.388-1.611,3.563a9.735,9.735,0,0,1-.885,1.268c-1.218-.773-2.308-1.475-3.406-2.162-1-.625-1.055-.67-1.889.041a2.141,2.141,0,0,1-2.615.258c-1-.515-2.006-1.019-2.985-1.569-1.4-.786-1.754-1.621-1.483-3.4.136-.042.3-.1.466-.142,1.275-.309,2.239-.872,2.305-2.389a8.229,8.229,0,0,1,.44-1.694c.575-2.125,1.283-4.226,1.687-6.383.362-1.935.352-3.938.574-5.9a24.815,24.815,0,0,0-1.937-11.723,4.684,4.684,0,0,0-2.743-2.825,38.956,38.956,0,0,0-4.74-1.5,11.1,11.1,0,0,0-5.07-.345,15.334,15.334,0,0,0-7.309,4.12,7.123,7.123,0,0,0-2.335,4.876c-.135,2.551-.167,5.113-.073,7.665a17.594,17.594,0,0,0,1.347,5.479,23.358,23.358,0,0,1,1.357,9.947,2.5,2.5,0,0,1-.8,1.8c-.908.8-1.74,1.687-2.654,2.477a8.6,8.6,0,0,1-1.862,1.288c-2.189,1.05-4.43,1.992-6.62,3.038-3.7,1.762-7.354,3.594-11.056,5.341a2.442,2.442,0,0,0-1.477,2.2c-.1,1.029-.2,2.062-.334,3.087a7.7,7.7,0,0,1-2.205,4.937,5.3,5.3,0,0,0-1.272,2.188,23.815,23.815,0,0,0-.831,3.672,5.678,5.678,0,0,1-.93,2.488c-.989,1.4-1.92,2.83-2.885,4.241a5.259,5.259,0,0,0-1.033,3.683,8.516,8.516,0,0,0,.265,1.182,1.105,1.105,0,0,1-.644,1.443,8.032,8.032,0,0,0-.731.351,1.079,1.079,0,0,0-.547,1.579c.15.412.332.813.493,1.2a1.972,1.972,0,0,1-.327.346c-1.17.683-1.244.829-.974,2.125.074.352.2.69.28,1.042a8.025,8.025,0,0,1,.446,2.37,3.5,3.5,0,0,0,1.482,3.259,5.263,5.263,0,0,1,1.921,3.732,5.028,5.028,0,0,0,1.968,3.7,1.919,1.919,0,0,1,.75,1.05,5.927,5.927,0,0,0,1.479,2.834,16.681,16.681,0,0,0,4.187,3.779c1.211.774,2.35,1.662,3.51,2.513a1.243,1.243,0,0,1,.5,1.523c-.308,1.03-.512,2.095-.727,3.153-.381,1.878-.735,3.762-1.112,5.7l3.248.914c1.426,4.494,4.143,8.113,6.433,11.789a9.7,9.7,0,0,0-.644,2.8c.1,1.061.442,2.051-.108,3.1-.155.3.042.789.1,1.187a3.489,3.489,0,0,1-.276,2.368,5.6,5.6,0,0,0-.683,2.852,106.586,106.586,0,0,0,1.264,17.337,13.534,13.534,0,0,1,.018,4.694c-.537,2.688-1.839,4.812-4.549,5.728a19.636,19.636,0,0,0-5.131,2.654,91.019,91.019,0,0,0-15.642,14.229,7.438,7.438,0,0,0-1.333,2.313,1.544,1.544,0,0,1-1.688,1.2c-.315-.013-.629,0-.945,0-1.75.012-2.42.479-2.993,2.124a6.145,6.145,0,0,0-.316,1.169c-.3,2.227-.617,4.452-.86,6.684a14.986,14.986,0,0,1-.79,3.95,14.516,14.516,0,0,0-.752,2.726c-.29,1.633-.613,3.27.089,4.916a1.932,1.932,0,0,1-.154,1.393,2.717,2.717,0,0,0-.027,2.34,3.888,3.888,0,0,0,2.559,2.034,31.923,31.923,0,0,0,9.955,1.542,2.334,2.334,0,0,0,2.046-.843,4.89,4.89,0,0,0,.409-4.721c-.289-.531-.605-1.046-.993-1.715,2.285.355,4.36.725,6.448.99a60.4,60.4,0,0,0,9.952.532,7.958,7.958,0,0,0,6.843-4.117,21.1,21.1,0,0,0,1.453-2.737c.677-1.567,1.2-3.2,1.9-4.759a10.057,10.057,0,0,0,.594-5.82q-.628-3.995-1.365-7.974a1.67,1.67,0,0,1,.781-2.057,7.065,7.065,0,0,0,1.314-1.155c2.511-2.454,4.974-4.958,7.535-7.357a12.427,12.427,0,0,0,3.155-4.8,41.6,41.6,0,0,0,1.438-4.209c1.559-6.05,3.055-12.117,4.576-18.175.126-.5.271-.994.413-1.508.288.079.412.124.542.148,3.081.589,5.911.233,8.229-2.137a2.579,2.579,0,0,0,.675-3.069c-.523-1.192-1.029-2.395-1.572-3.578-.375-.818-.836-1.6-1.191-2.423a1.04,1.04,0,0,1,.856-1.589,2.582,2.582,0,0,1,1.3.159,14.516,14.516,0,0,1,2.054,1.016,177.482,177.482,0,0,1,19.537,13.491,5.949,5.949,0,0,1,1.953,2.515c.365.911.958,1.728,1.407,2.608a2.778,2.778,0,0,0,2.28,1.671,6.479,6.479,0,0,1,1.01.278c-.621,1.606.933,2.375,1.232,3.631-.276.4-.588.778-.831,1.2-.624,1.087-.523,1.584.432,2.387a1.423,1.423,0,0,1,.217,2.327,5.989,5.989,0,0,0-1.226,2.812c-.582,3.638-1.179,7.277-1.629,10.934a38.216,38.216,0,0,0-.374,6.726,40.615,40.615,0,0,1-.943,10.041c-.159.813-.419,1.545-1.228,1.75.077,2.326.081,4.531.246,6.727a12.015,12.015,0,0,1-.593,4.909,36.412,36.412,0,0,0-1.465,9.569,1.718,1.718,0,0,0,1.113,1.918,14.249,14.249,0,0,0,3.135,1.182,3.553,3.553,0,0,1,2.621,1.668,5.106,5.106,0,0,0,3.544,2.249c2.165.4,4.338.79,6.525,1.013a45.807,45.807,0,0,0,5.116.095,1.608,1.608,0,0,0,1.691-1.111c.378-1.512.5-2.948-.867-4.216-1.414-1.309-2.624-2.837-3.914-4.279a12.484,12.484,0,0,1-2.912-6.572,3.92,3.92,0,0,1,.388-3,2.955,2.955,0,0,0,.565-2.151,1.109,1.109,0,0,1,.771-1.314,6.256,6.256,0,0,1,.17,1.432c-.116.935-.328,1.858-.517,2.784a6.746,6.746,0,0,0,.663,4.384,4.408,4.408,0,0,0,.221-1.682,12.093,12.093,0,0,1,.3-3.881,7.131,7.131,0,0,0,.254-2.265,6.247,6.247,0,0,1,.67-3.514,2.379,2.379,0,0,0-1.229-3.462c-1.12-.6-1.269-1.071-.794-2.3.436-1.13.9-2.255,1.233-3.416.477-1.687.881-3.4,1.248-5.11,1.544-7.208,3.041-14.43,4.607-21.635a40.639,40.639,0,0,1,1.584-5.7A6.2,6.2,0,0,0,644.981,10096.149Zm-32.82-117.032.33-.026c.351,1.262,1.632,2.366.413,4.044-.577-.183-1.19-.375-1.987-.628C611.349,9981.327,611.756,9980.223,612.161,9979.117Zm-43.949,156.221a22.224,22.224,0,0,1-2.409,10.269,8.1,8.1,0,0,1-5.427,4.479,22.7,22.7,0,0,1-8.964.455c-2.573-.318-5.1-1-7.646-1.551a12.749,12.749,0,0,1-1.708-.644c.328-1.858.633-3.531.917-5.205a1.629,1.629,0,0,1,1.349-1.454,4.016,4.016,0,0,0,2.542-2.219,27.48,27.48,0,0,1,2.422-3.207c.542-.707,1.053-1.437,1.608-2.135a7.44,7.44,0,0,1,1.175-1.287q3.667-2.859,7.389-5.645a6.23,6.23,0,0,1,3.085-1.23,23.273,23.273,0,0,0,3.256-.844c.336-.09.679-.156,1.1-.253.2,1.365.412,2.64.573,3.92C567.751,10130.968,568.149,10133.147,568.212,10135.338Zm27.162-52.133a1.4,1.4,0,0,1-.655,1.754,8.838,8.838,0,0,1-6.627.781l4.283-7.851A13.439,13.439,0,0,1,595.375,10083.205Z" fill="#1b3837"/>
    <path id="Path_1939" data-name="Path 1939" d="M1142.505,10317.906c.351,1.263,1.631,2.366.413,4.044l-1.986-.627,1.244-3.391Z" transform="translate(-530.015 -338.815)" fill="#1b3837"/>
  </g>
</svg>
