<svg xmlns="http://www.w3.org/2000/svg" width="542.091" height="282.472" viewBox="0 0 542.091 282.472">
  <g id="Group_2359" data-name="Group 2359" transform="translate(-2615.12 -9079.92)">
    <path id="Path_1659" data-name="Path 1659" d="M3120.674,9195.926a95.3,95.3,0,0,1-16.445,3.908c-7.264,1.087-14.637,1.48-21.949,2.229a4.835,4.835,0,0,0-2.766.842c-8.637,8.882-19.659,10.914-31.368,11.451-6.884.319-13.768,1.032-20.59,1.984-4.933.686-6.1,2.011-6.286,6.843-.258,6.877-.061,13.774-.061,21.127h-34.922c-.19-2.535-.367-4.865-.612-8.12-2.208,1.013-4.1,1.576-5.634,2.656a78.259,78.259,0,0,0-6.49,5.457c-9.167,8.113-19.292,13.115-32.081,13.278-22.533.278-45.047,1.148-67.54-.972-5.429-.517-9.908-3.146-14.114-6.218-4.478-3.263-8.624-6.973-13.034-10.322-1.971-1.488-4.24-2.582-7.047-4.261a31.9,31.9,0,0,0-.442,4.7c.224,2.977-.761,4.125-4,4.043-9.167-.224-18.348-.074-27.515-.088-1.107,0-2.208-.108-3.309-.163,0-5.219.014-10.166,0-15.112q-.01-1.7-.143-3.4c-.646-7.923-1.732-9.242-9.717-10.07-8.331-.87-16.7-1.359-25.041-2.025a37.384,37.384,0,0,1-23.186-10.125,7.283,7.283,0,0,0-3.846-1.5c-10.648-1.427-21.331-2.575-31.945-4.207a21.364,21.364,0,0,1-8.678-3.533,11,11,0,0,1-3.928-5.98c-1.046-4.227.53-5.966,4.825-6.258,14.454-1,28.982-1.394,43.355-3.092,11.3-1.339,22.418-4.274,33.61-6.5q31.12-6.2,62.239-12.388a12,12,0,0,1,2.263-.014c5.885,40.086,38.816,60.432,67.723,60.778,29.621.347,64.04-21.345,69.082-61.152,7.217,1.319,14.454,2.487,21.623,3.976,23.594,4.873,47.085,10.268,70.774,14.631,10.4,1.909,21.181,1.821,31.789,2.6,6.211.462,12.422.938,18.64,1.2,2.168.088,2.977,1.121,3.377,2.982C3128.285,9189.674,3126,9194.125,3120.674,9195.926Z" transform="translate(-26.457 -25.573)" fill="#403347"/>
    <path id="Path_1660" data-name="Path 1660" d="M2988.143,9208.877c-35.567.958-60.038-27.487-61.383-53.649a295.8,295.8,0,0,1,118.491-.027C3046.5,9181,3017.581,9208.089,2988.143,9208.877Z" transform="translate(-99.868 -22.208)" fill="#403347"/>
    <path id="Path_1661" data-name="Path 1661" d="M2970.17,9372.311v41.8h63.041v-41.8Zm31.429,37.252a16.337,16.337,0,1,1,16.425-16.377A16.344,16.344,0,0,1,3001.6,9409.563Z" transform="translate(-113.779 -93.7)" fill="#403347"/>
    <path id="Path_1662" data-name="Path 1662" d="M3195.095,9436.359c-2.868-1.494-5.477-2.514-7.624-4.145-.836-.633-.748-2.637-.856-4.03-.849-11.035-1.4-22.1-2.514-33.106-1.25-12.327-7.21-22.059-17.824-28.59q-20.06-12.333-40.412-24.2c-2.134-1.251-3.248-2.372-3.044-4.9.2-2.556.041-5.138.041-8.066,7.76,0,15.195-.021,22.629.034a3.95,3.95,0,0,1,1.855.768c18.008,11.315,32.829,25.544,41.16,45.569,4.995,12.016,5.715,24.852,6.5,37.593C3195.469,9420.683,3195.095,9428.145,3195.095,9436.359Z" transform="translate(-162.689 -79.921)" fill="#403347"/>
    <path id="Path_1663" data-name="Path 1663" d="M2870.71,9338.981c-.129,1.094-1.468,2.338-2.569,2.99-12.231,7.277-24.457,14.583-36.831,21.63-15.215,8.657-21.915,22.2-22.955,39.08-.53,8.576-1.026,17.166-1.209,25.748-.061,2.609-.557,4.268-3.112,5.185a51.479,51.479,0,0,0-5.158,2.515,20.552,20.552,0,0,1-.517-2.793,197.151,197.151,0,0,1,3.588-46.922c3.513-17.043,13.122-30.654,25.775-42.119,5.511-4.987,11.77-9.139,17.729-13.61a5.818,5.818,0,0,1,3.038-1.359c7.326-.115,14.658-.062,22.337-.062A87.164,87.164,0,0,1,2870.71,9338.981Z" transform="translate(-58.673 -79.9)" fill="#403347"/>
    <path id="Path_1664" data-name="Path 1664" d="M2864.078,9302.48v9.744c-4.8,0-9.446.476-13.965-.1-9.242-1.168-16.567,2.3-23.668,7.754-15.6,11.988-28.643,25.918-36.213,44.408-4.308,10.526-5.695,21.657-6.394,32.822-.68,10.818-.51,21.691-.659,32.543-.034,2.582.061,2.59-3.69,4.057-.537-3.274-1.2-6.435-1.549-9.629a192.481,192.481,0,0,1,2.861-62.1c4.159-19.264,15.792-34.045,30.423-46.623,15.079-12.959,15.14-12.877,34.949-12.877Z" transform="translate(-51.768 -71.321)" fill="#403347"/>
    <path id="Path_1665" data-name="Path 1665" d="M3207.926,9430.521c-.122.665-.231,1.338-.408,1.99a4.884,4.884,0,0,1-.537,1c-2.915-.469-3.486-2-3.35-4.606a217.848,217.848,0,0,0-2.827-49.709c-3.907-21.99-16.3-38.937-32.842-53.168-15.915-13.686-16.5-13.808-37.429-13.808h-7.713v-9.745h7.373c8.147,0,16.3-.041,24.436.035a8.55,8.55,0,0,1,4.213.861c19.238,11.771,34.888,26.85,43.9,48,4.193,9.841,5.334,20.313,6.3,30.777C3210.521,9398.3,3210.746,9414.457,3207.926,9430.521Z" transform="translate(-162.697 -71.316)" fill="#403347"/>
    <path id="Path_1666" data-name="Path 1666" d="M3380.118,9142.741c-21.27,3.03-42.356-.293-63.517-1.23-.387-3.262-.258-6.319-1.209-8.99-.9-2.542-2.936-4.683-4.682-7.325,5.96-1.04,11.688-2.494,17.322-.666,16.866,5.477,33.644,11.232,50.449,16.893A2.843,2.843,0,0,1,3380.118,9142.741Z" transform="translate(-222.908 -14.016)" fill="#403347"/>
    <path id="Path_1667" data-name="Path 1667" d="M2679.14,9141.57c-21.548,1.006-42.675,4.269-63.952,1.814-.021-.441-.047-.876-.068-1.311q9.082-3.079,18.171-6.157c10.492-3.526,21.032-6.918,31.456-10.621,6.53-2.317,12.884-1.122,20.366.027C2680.078,9129.9,2678.365,9135.143,2679.14,9141.57Z" transform="translate(0 -14.117)" fill="#403347"/>
    <rect id="Rectangle_2029" data-name="Rectangle 2029" width="38.557" height="18.008" transform="translate(2681.919 9121.08)" fill="#403347"/>
    <rect id="Rectangle_2030" data-name="Rectangle 2030" width="38.72" height="17.886" transform="translate(3051.753 9121.127)" fill="#403347"/>
    <path id="Path_1668" data-name="Path 1668" d="M2860.512,9081.089c-3.466,2.9-7.747,4.023-12.075,4.6-16.363,2.175-31.864,7.6-47.48,12.524q-21.833,6.9-43.5,14.331c-4.437,1.516-8.141.815-12.13-2.072a28.48,28.48,0,0,1,13.9-7.958c13.7-3.437,27.426-6.815,41.214-9.914,18.749-4.207,37.565-8.147,56.361-12.171a29.924,29.924,0,0,1,3.486-.34C2860.363,9080.423,2860.438,9080.757,2860.512,9081.089Z" transform="translate(-41.727 -0.054)" fill="#403347"/>
    <path id="Path_1669" data-name="Path 1669" d="M3228.284,9110.344c-3.921,2.936-7.584,3.607-12.042,2.188q-39.264-12.517-78.65-24.593c-5.477-1.671-11.342-2.024-16.948-3.356-2.7-.639-5.205-2.127-7.794-3.228.143-.476.285-.958.435-1.435,2.011.285,4.063.436,6.041.877q46.154,10.406,92.3,20.883A34.164,34.164,0,0,1,3228.284,9110.344Z" transform="translate(-159.502)" fill="#403347"/>
    <path id="Path_1670" data-name="Path 1670" d="M2752.338,9173.39v7.761c-12.938,1.02-25.829,2.031-38.958,3.058V9173.39Z" transform="translate(-31.488 -29.953)" fill="#403347"/>
    <path id="Path_1671" data-name="Path 1671" d="M3296.264,9173.35v10.825c-12.966-1.006-25.843-2-38.924-3.017v-7.809Z" transform="translate(-205.805 -29.94)" fill="#403347"/>
    <rect id="Rectangle_2031" data-name="Rectangle 2031" width="25.639" height="13.503" transform="translate(2873.407 9259.822)" fill="#403347"/>
    <path id="Path_1672" data-name="Path 1672" d="M3022.717,9314.93v7.938H2989.29c.129-2.63.258-5.165.394-7.937Z" transform="translate(-119.906 -75.311)" fill="#403347"/>
    <path id="Path_1673" data-name="Path 1673" d="M3021.262,9337.321H2994.42V9330.2h19.72c.673,0,1.352.034,2.032.047C3022.411,9330.322,3022.628,9330.614,3021.262,9337.321Z" transform="translate(-121.55 -80.204)" fill="#403347"/>
    <path id="Path_1674" data-name="Path 1674" d="M3294.474,9130.977c-.068.189-.136.38-.2.564H3266.85c5.565-2.95,13.027.115,16.221-7.211C3287.06,9126.654,3290.763,9128.815,3294.474,9130.977Z" transform="translate(-208.852 -14.232)" fill="#403347"/>
    <path id="Path_1675" data-name="Path 1675" d="M2747.506,9131.926h-26.788c-.088-.189-.17-.374-.258-.564,3.608-2.12,7.217-4.232,10.051-5.892,3.418,1.774,5.885,3.446,8.61,4.343C2741.811,9130.7,2744.76,9130.8,2747.506,9131.926Z" transform="translate(-33.757 -14.597)" fill="#403347"/>
    <path id="Path_1676" data-name="Path 1676" d="M3010.747,9383.87a13.052,13.052,0,1,0-.591,26.094,13.059,13.059,0,0,0,13.224-13.067C3023.346,9389.959,3017.5,9383.938,3010.747,9383.87Zm-.51,22.207a8.968,8.968,0,0,1-9.024-8.99c.034-5.416,3.737-9.133,9.126-9.14a8.909,8.909,0,0,1,9.092,8.9A9.127,9.127,0,0,1,3010.238,9406.077Z" transform="translate(-122.431 -97.403)" fill="#403347"/>
  </g>
</svg>
