<svg xmlns="http://www.w3.org/2000/svg" width="520.934" height="345.652" viewBox="0 0 520.934 345.652">
  <g id="Group_2400" data-name="Group 2400" transform="translate(-7206.782 -3774.598)">
    <path id="Path_1961" data-name="Path 1961" d="M7252.85,4110.15a2.006,2.006,0,0,0-2.46-1.4q-5.22,1.44-9.67,2.61a2,2,0,0,0,.51,3.94,1.92,1.92,0,0,0,.52-.07c2.96-.79,6.21-1.66,9.7-2.62A2.014,2.014,0,0,0,7252.85,4110.15Zm19.27-5.53a1.994,1.994,0,0,0-2.48-1.35q-4.98,1.47-9.61,2.78a2,2,0,0,0,.54,3.93,2.024,2.024,0,0,0,.55-.08q4.65-1.32,9.65-2.79A2,2,0,0,0,7272.12,4104.62Zm19.17-5.87a2,2,0,0,0-2.51-1.31q-4.86,1.53-9.55,2.96a2,2,0,0,0,.58,3.92,1.946,1.946,0,0,0,.58-.09c3.13-.96,6.34-1.95,9.59-2.97A2,2,0,0,0,7291.29,4098.75Zm19.04-6.27a2.012,2.012,0,0,0-2.54-1.25q-4.785,1.62-9.49,3.16a2,2,0,0,0,.63,3.9,1.963,1.963,0,0,0,.62-.1q4.71-1.545,9.53-3.17A2.008,2.008,0,0,0,7310.33,4092.48Zm18.87-6.71a2.005,2.005,0,0,0-2.57-1.19c-3.06,1.13-6.22,2.27-9.39,3.39a2,2,0,0,0,.66,3.88,1.957,1.957,0,0,0,.67-.11c3.19-1.13,6.37-2.27,9.44-3.4A2,2,0,0,0,7329.2,4085.77Zm18.68-7.28a2,2,0,0,0-2.6-1.1c-3,1.21-6.12,2.45-9.29,3.67a2,2,0,0,0,.72,3.87,2.05,2.05,0,0,0,.72-.14c3.19-1.23,6.34-2.47,9.35-3.69A2.012,2.012,0,0,0,7347.88,4078.49Zm18.38-7.98a2.014,2.014,0,0,0-2.65-.99c-2.93,1.34-6,2.7-9.12,4.04a2,2,0,0,0,.79,3.83,1.944,1.944,0,0,0,.78-.16c3.16-1.35,6.25-2.72,9.21-4.07A2,2,0,0,0,7366.26,4070.51Zm17.92-8.94a1.992,1.992,0,0,0-2.7-.83c-2.81,1.5-5.79,3.02-8.87,4.53a2,2,0,0,0,.89,3.79,2.014,2.014,0,0,0,.88-.2c3.11-1.53,6.13-3.07,8.98-4.59A2,2,0,0,0,7384.18,4061.57Zm17.12-10.39a1.989,1.989,0,0,0-2.77-.55c-2.59,1.73-5.41,3.5-8.39,5.26a2,2,0,0,0,1.02,3.72,1.977,1.977,0,0,0,1.01-.28c3.05-1.79,5.93-3.6,8.58-5.38A1.989,1.989,0,0,0,7401.3,4051.18Zm15.33-12.83a2,2,0,0,0-2.83.02,83.3,83.3,0,0,1-7.3,6.47,2,2,0,0,0-.32,2.81,1.968,1.968,0,0,0,1.56.76,2.016,2.016,0,0,0,1.25-.43,86.715,86.715,0,0,0,7.65-6.8A2,2,0,0,0,7416.63,4038.35Zm211.42,3.75a74.215,74.215,0,0,1-9.66-1.24,2,2,0,1,0-.77,3.92,77.113,77.113,0,0,0,10.17,1.31.612.612,0,0,0,.13.01,2,2,0,0,0,.13-4Zm21.69.05a2,2,0,0,0-2.38-1.52,66,66,0,0,1-9.59,1.43,2,2,0,0,0,.15,4c.05,0,.1-.01.15-.01a72.377,72.377,0,0,0,10.16-1.51A2,2,0,0,0,7649.74,4042.15Zm-40.75-3.79a73.432,73.432,0,0,1-8.98-3.72,2,2,0,0,0-1.78,3.58,77.814,77.814,0,0,0,9.48,3.93,2.049,2.049,0,0,0,.64.11,2,2,0,0,0,.64-3.9Zm59.19-3.8a2.007,2.007,0,0,0-2.72-.8,70.863,70.863,0,0,1-8.82,4.08,2,2,0,0,0-1.16,2.58,2.026,2.026,0,0,0,1.87,1.29,1.955,1.955,0,0,0,.71-.14,75.239,75.239,0,0,0,9.32-4.3A2,2,0,0,0,7668.18,4034.56Zm-239.74-12.32a2,2,0,0,0-2.77.59c-1.75,2.68-3.64,5.41-5.64,8.11a2,2,0,0,0,.42,2.79,1.97,1.97,0,0,0,1.19.39,2,2,0,0,0,1.61-.81c2.04-2.75,3.98-5.55,5.78-8.3A2.011,2.011,0,0,0,7428.44,4022.24Zm163.19,7.5a71.26,71.26,0,0,1-7.64-6,2,2,0,1,0-2.68,2.97,74.777,74.777,0,0,0,8.07,6.34,2,2,0,1,0,2.25-3.31Zm92.39-7.3a2,2,0,0,0-2.83-.1,80.189,80.189,0,0,1-7.52,6.21,2,2,0,0,0,2.36,3.23,84.909,84.909,0,0,0,7.89-6.52A2,2,0,0,0,7684.02,4022.44Zm-106.8-5.68a74,74,0,0,1-5.77-7.82,2,2,0,1,0-3.37,2.16,78.418,78.418,0,0,0,6.09,8.25,2,2,0,0,0,3.05-2.59Zm119.4-9.8a2,2,0,0,0-2.78.54,86.539,86.539,0,0,1-5.91,7.78,2.008,2.008,0,0,0,.23,2.82,1.968,1.968,0,0,0,1.29.48,2.02,2.02,0,0,0,1.53-.7,93.275,93.275,0,0,0,6.18-8.15A2,2,0,0,0,7696.62,4006.96Zm-258.71-2.31a1.992,1.992,0,0,0-2.65.97c-1.35,2.91-2.86,5.86-4.48,8.77a1.993,1.993,0,0,0,1.74,2.97,2.015,2.015,0,0,0,1.75-1.02c1.67-3,3.23-6.04,4.62-9.04A1.993,1.993,0,0,0,7437.91,4004.65Zm-49.49,4.8a2.006,2.006,0,0,0-2.28-1.68,79.768,79.768,0,0,1-9.71.91,2,2,0,0,0,.06,4h.06a83.812,83.812,0,0,0,10.19-.95A2.013,2.013,0,0,0,7388.42,4009.45Zm-21.61-1.29a39.639,39.639,0,0,1-9.17-2.45,2,2,0,1,0-1.52,3.7,43.986,43.986,0,0,0,10.11,2.71,2.7,2.7,0,0,0,.29.02,2,2,0,0,0,.29-3.98Zm40.97-3.72a2.007,2.007,0,0,0-2.51-1.3c-3.27,1.04-6.47,1.95-9.5,2.69a2,2,0,0,0,.47,3.95,1.973,1.973,0,0,0,.48-.06c3.12-.77,6.4-1.7,9.76-2.76A2.014,2.014,0,0,0,7407.78,4004.44Zm-58.64-3.2a48.757,48.757,0,0,1-7.48-5.99,2,2,0,0,0-2.8,2.86,52.717,52.717,0,0,0,8.09,6.48,2.011,2.011,0,0,0,1.09.33,1.988,1.988,0,0,0,1.68-.91A2.012,2.012,0,0,0,7349.14,4001.24Zm77.32-3.98a2.006,2.006,0,0,0-2.63-1.06c-3.15,1.33-6.25,2.58-9.21,3.69a2,2,0,0,0,.7,3.87,1.974,1.974,0,0,0,.71-.13c3.01-1.13,6.16-2.39,9.36-3.75A2,2,0,0,0,7426.46,3997.26Zm140.26,3.16a83.66,83.66,0,0,1-3.65-9.04,2,2,0,0,0-3.79,1.28,86.9,86.9,0,0,0,3.83,9.48,2,2,0,0,0,1.81,1.14,2.059,2.059,0,0,0,.86-.19A2.005,2.005,0,0,0,7566.72,4000.42Zm138.68-11.39a2,2,0,0,0-2.58,1.17,80.483,80.483,0,0,1-3.98,8.9,2,2,0,0,0,.85,2.7,2.055,2.055,0,0,0,.92.23,2.014,2.014,0,0,0,1.78-1.08,84.042,84.042,0,0,0,4.18-9.35A1.994,1.994,0,0,0,7705.4,3989.03Zm-261.02-3.28a2.006,2.006,0,0,0-2.44,1.43c-.06.25-.12.49-.19.73-3.01,1.5-5.98,2.93-8.83,4.25a2,2,0,0,0,1.68,3.63c1.82-.85,3.7-1.74,5.6-2.66-.37,1.14-.77,2.28-1.18,3.41a2.01,2.01,0,0,0,1.19,2.57,2.093,2.093,0,0,0,.69.12,2.008,2.008,0,0,0,1.88-1.32c1.18-3.24,2.2-6.51,3.04-9.72A2.012,2.012,0,0,0,7444.38,3985.75Zm-108.89,2.15a53.105,53.105,0,0,1-4.71-8.39,2,2,0,1,0-3.65,1.64,57.422,57.422,0,0,0,5.06,9.02,2,2,0,0,0,3.3-2.27Zm126.76-8.55a2,2,0,0,0-2.72-.79c-2.98,1.65-5.93,3.24-8.78,4.74a2,2,0,0,0,.94,3.77,2.1,2.1,0,0,0,.93-.23c2.86-1.51,5.84-3.12,8.84-4.77A2.006,2.006,0,0,0,7462.25,3979.35Zm98.22,2.61a97.05,97.05,0,0,1-1.59-9.65,2,2,0,0,0-3.98.45c.39,3.41.95,6.79,1.66,10.06a2,2,0,0,0,1.95,1.57,1.543,1.543,0,0,0,.43-.05A2,2,0,0,0,7560.47,3981.96Zm148.64-12.52a2.014,2.014,0,0,0-2.11,1.89,57.759,57.759,0,0,1-1.37,9.56,2.006,2.006,0,0,0,1.51,2.39,2.279,2.279,0,0,0,.44.05,2,2,0,0,0,1.95-1.56,62.454,62.454,0,0,0,1.47-10.22A2,2,0,0,0,7709.11,3969.44Zm-262.23-3.49h-.07a2.005,2.005,0,0,0-2,1.93,82.917,82.917,0,0,1-.9,9.72,2.013,2.013,0,0,0,1.68,2.28c.11.01.21.02.31.02a2,2,0,0,0,1.97-1.7,88.782,88.782,0,0,0,.94-10.18A2,2,0,0,0,7446.88,3965.95Zm32.73,3.43a1.993,1.993,0,0,0-2.73-.71c-2.82,1.66-5.71,3.33-8.64,5.01a2,2,0,0,0-.75,2.73,2.022,2.022,0,0,0,1.74,1.01,1.967,1.967,0,0,0,.99-.27c2.95-1.68,5.85-3.37,8.68-5.03A2,2,0,0,0,7479.61,3969.38Zm-152.02,1.02a63.7,63.7,0,0,1-1.73-9.54,2,2,0,1,0-3.97.42,67.438,67.438,0,0,0,1.83,10.13,1.985,1.985,0,0,0,1.93,1.49,2.233,2.233,0,0,0,.51-.06A2,2,0,0,0,7327.59,3970.4Zm169.19-11.33a2,2,0,0,0-2.75-.68q-4.125,2.505-8.56,5.17a2,2,0,0,0,1.03,3.72,1.963,1.963,0,0,0,1.03-.29c2.96-1.77,5.82-3.51,8.58-5.18A2,2,0,0,0,7496.78,3959.07Zm61.64-6.38a2,2,0,1,0-3.99-.24c-.16,2.55-.24,5.1-.24,7.58,0,.87.01,1.72.03,2.58a1.989,1.989,0,0,0,2,1.95h.04a2,2,0,0,0,1.96-2.04q-.03-1.23-.03-2.49C7558.19,3957.63,7558.27,3955.16,7558.42,3952.69Zm152.23,8.53a71.629,71.629,0,0,0-1.95-10.1,2,2,0,0,0-3.87,1.04,66.485,66.485,0,0,1,1.85,9.53,1.989,1.989,0,0,0,1.98,1.76,1.921,1.921,0,0,0,.24-.01A2,2,0,0,0,7710.65,3961.22Zm-263.73-13.58a2,2,0,0,0-3.9.89,74.792,74.792,0,0,1,1.52,9.61,2.006,2.006,0,0,0,1.99,1.82,1.088,1.088,0,0,0,.18-.01,1.99,1.99,0,0,0,1.81-2.17A77.853,77.853,0,0,0,7446.92,3947.64Zm67.02,1.1a2,2,0,0,0-2.74-.71c-2.65,1.57-5.53,3.3-8.61,5.16a2.012,2.012,0,0,0-.67,2.75,1.991,1.991,0,0,0,1.71.97,2.035,2.035,0,0,0,1.03-.29q4.6-2.79,8.57-5.14A2,2,0,0,0,7513.94,3948.74Zm-188.92-9.55a2,2,0,0,0-2.33,1.6,72.788,72.788,0,0,0-1.13,10.22,2,2,0,0,0,1.92,2.07c.03,0,.05.01.08.01a2.012,2.012,0,0,0,2-1.93,67.527,67.527,0,0,1,1.06-9.64A1.993,1.993,0,0,0,7325.02,3939.19Zm206.43-.14a1.989,1.989,0,0,0-2.71-.78q-4.455,2.46-8.76,4.79a2,2,0,0,0-.82,2.71,2.023,2.023,0,0,0,1.77,1.05,1.993,1.993,0,0,0,.94-.24q4.334-2.34,8.8-4.81A1.992,1.992,0,0,0,7531.45,3939.05Zm28.06-8.24a2,2,0,0,0-2.36,1.56c-.69,3.34-1.27,6.7-1.72,9.98a2.006,2.006,0,0,0,1.71,2.26,2.711,2.711,0,0,0,.28.01,2,2,0,0,0,1.98-1.72c.43-3.2,1-6.47,1.67-9.72A2.014,2.014,0,0,0,7559.51,3930.81Zm145.85,10.61a77.764,77.764,0,0,0-4.59-9.18,2,2,0,1,0-3.45,2.02,73.622,73.622,0,0,1,4.35,8.71,2.011,2.011,0,0,0,1.85,1.22,1.936,1.936,0,0,0,.77-.16A1.988,1.988,0,0,0,7705.36,3941.42Zm-261.4-3.61a76.294,76.294,0,0,0-4.28-9.33,2,2,0,0,0-3.52,1.91,70.461,70.461,0,0,1,4.06,8.83,2,2,0,0,0,1.87,1.3,1.925,1.925,0,0,0,.7-.13A2,2,0,0,0,7443.96,3937.81Zm105.05-8.34a2.006,2.006,0,0,0-2.71-.82q-4.47,2.4-8.8,4.79a2,2,0,0,0,.96,3.75,1.936,1.936,0,0,0,.96-.25q4.32-2.37,8.77-4.76A2,2,0,0,0,7549.01,3929.47Zm-216.9-8.9a2,2,0,0,0-2.71.81,63.473,63.473,0,0,0-4.12,9.46,2,2,0,0,0,1.25,2.54,2.052,2.052,0,0,0,.64.11,2.015,2.015,0,0,0,1.9-1.36,58.28,58.28,0,0,1,3.85-8.85A2,2,0,0,0,7332.11,3920.57Zm234.15-8.52a1.992,1.992,0,0,0-2.65.97,90.633,90.633,0,0,0-3.49,8.49c-1.61.79-3.24,1.62-4.93,2.48a2,2,0,0,0,1.83,3.56c1.65-.85,3.25-1.65,4.82-2.43a2.038,2.038,0,0,0,1.32-.65c.93-.46,1.85-.9,2.77-1.35a2,2,0,0,0-.71-3.79c.61-1.53,1.29-3.08,2.01-4.62A1.994,1.994,0,0,0,7566.26,3912.05Zm128.76,11.7a72.881,72.881,0,0,0-6.88-7.65,2,2,0,1,0-2.77,2.88,67.944,67.944,0,0,1,6.49,7.23,2.032,2.032,0,0,0,1.58.77,1.961,1.961,0,0,0,1.23-.43A1.992,1.992,0,0,0,7695.02,3923.75Zm-260.87-3.92a69.726,69.726,0,0,0-6.71-7.8,2,2,0,1,0-2.83,2.82,66.578,66.578,0,0,1,6.32,7.36,2,2,0,0,0,3.22-2.38Zm151.07-7.31a2,2,0,0,0-2.6-1.12c-3.03,1.2-6.15,2.51-9.29,3.9a2,2,0,0,0,.81,3.83,1.932,1.932,0,0,0,.81-.17c3.09-1.37,6.17-2.66,9.15-3.85A2,2,0,0,0,7585.22,3912.52Zm-239.78-6.67a2.007,2.007,0,0,0-2.81-.38,45.443,45.443,0,0,0-7.48,7.28,2,2,0,0,0,3.09,2.54,41.422,41.422,0,0,1,6.82-6.64A2,2,0,0,0,7345.44,3905.85Zm334.78,3.68a65.157,65.157,0,0,0-8.84-5.29,2,2,0,0,0-1.77,3.59,61.043,61.043,0,0,1,8.3,4.96,1.966,1.966,0,0,0,1.15.37,2.012,2.012,0,0,0,1.64-.85A1.99,1.99,0,0,0,7680.22,3909.53Zm-76.07-3.43a1.981,1.981,0,0,0-2.48-1.34c-3.17.94-6.4,1.98-9.61,3.1a2,2,0,0,0,.66,3.89,1.865,1.865,0,0,0,.66-.11c3.15-1.1,6.32-2.13,9.43-3.05A2,2,0,0,0,7604.15,3906.1Zm-184.5-.81a64.93,64.93,0,0,0-8.73-5.46,2,2,0,1,0-1.85,3.54,63.248,63.248,0,0,1,8.21,5.14,2,2,0,0,0,2.37-3.22Zm156.9-10.38a2,2,0,0,0-2.78.52c-1.97,2.88-3.79,5.77-5.43,8.58a1.994,1.994,0,0,0,.72,2.73,1.965,1.965,0,0,0,1.01.27,1.987,1.987,0,0,0,1.73-.99c1.58-2.73,3.36-5.53,5.27-8.33A2,2,0,0,0,7576.55,3894.91Zm47.08,6.7a1.985,1.985,0,0,0-2.33-1.6c-3.28.61-6.61,1.32-9.88,2.11a2,2,0,0,0,.47,3.95,1.949,1.949,0,0,0,.47-.06c3.2-.78,6.46-1.48,9.67-2.07A2.011,2.011,0,0,0,7623.63,3901.61Zm38.17-1.17a63.912,63.912,0,0,0-10.06-2.21,2,2,0,0,0-.54,3.96,60.664,60.664,0,0,1,9.43,2.07,2,2,0,1,0,1.17-3.82Zm-298.39-3.21a1.992,1.992,0,0,0-2.54-1.25,69.114,69.114,0,0,0-9.46,4.04,2,2,0,0,0,.93,3.78,1.93,1.93,0,0,0,.92-.23,64.756,64.756,0,0,1,8.9-3.81A1.986,1.986,0,0,0,7363.41,3897.23Zm278.06.39c-2.23.03-4.52.18-6.81.42-1.13.12-2.25.26-3.37.4a2,2,0,0,0,.25,3.98,2.088,2.088,0,0,0,.25-.01c1.1-.14,2.2-.27,3.31-.39,2.15-.24,4.32-.37,6.43-.4a2,2,0,1,0-.06-4Zm-240.03-1.82a63.4,63.4,0,0,0-10.02-2.46,1.993,1.993,0,0,0-2.29,1.65,2.017,2.017,0,0,0,1.66,2.3,58.627,58.627,0,0,1,9.38,2.3,2.041,2.041,0,0,0,.64.1,2,2,0,0,0,.63-3.89Zm-20.29-3.26h-.01a63.559,63.559,0,0,0-10.28.9,2,2,0,0,0,.34,3.97,1.835,1.835,0,0,0,.33-.03,60.057,60.057,0,0,1,9.63-.84,2,2,0,0,0-.01-4Zm207.79-13.35a2.007,2.007,0,0,0-2.82.22c-2.24,2.63-4.39,5.27-6.38,7.84a2,2,0,0,0,3.16,2.45c1.95-2.52,4.06-5.11,6.26-7.69A2,2,0,0,0,7588.94,3879.19Zm13.75-14.56a2,2,0,0,0-2.83,0c-2.42,2.42-4.78,4.86-7.01,7.26a2,2,0,0,0,1.47,3.36,1.965,1.965,0,0,0,1.46-.64c2.2-2.36,4.52-4.76,6.91-7.15A2,2,0,0,0,7602.69,3864.63Zm14.66-13.62a2,2,0,0,0-2.82-.16c-2.55,2.26-5.05,4.54-7.44,6.79a2,2,0,0,0,1.36,3.46,1.944,1.944,0,0,0,1.37-.55c2.37-2.22,4.84-4.47,7.36-6.71A2.008,2.008,0,0,0,7617.35,3851.01Zm15.35-12.86a1.991,1.991,0,0,0-2.81-.3c-2.63,2.12-5.24,4.28-7.76,6.41a2,2,0,0,0,1.29,3.52,1.959,1.959,0,0,0,1.29-.47c2.5-2.11,5.09-4.25,7.69-6.35A1.991,1.991,0,0,0,7632.7,3838.15Zm15.88-12.22a2,2,0,0,0-2.8-.4c-2.74,2.04-5.43,4.09-8,6.08a2,2,0,0,0,1.22,3.58,2.032,2.032,0,0,0,1.23-.42c2.55-1.97,5.22-4.01,7.95-6.04A2,2,0,0,0,7648.58,3825.93Zm16.32-11.64a2,2,0,0,0-2.79-.5c-2.77,1.92-5.54,3.88-8.21,5.8a2,2,0,0,0,2.33,3.25c2.66-1.91,5.4-3.85,8.16-5.77A2,2,0,0,0,7664.9,3814.29Zm16.68-11.12a2.005,2.005,0,0,0-2.77-.59c-2.8,1.82-5.62,3.68-8.39,5.54a2,2,0,1,0,2.23,3.32c2.75-1.85,5.56-3.7,8.34-5.5A2.014,2.014,0,0,0,7681.58,3803.17Zm17.02-10.61a2,2,0,0,0-2.75-.67c-2.83,1.71-5.71,3.49-8.56,5.28a2,2,0,0,0,1.06,3.69,2.088,2.088,0,0,0,1.07-.3c2.83-1.78,5.69-3.55,8.51-5.25A2.012,2.012,0,0,0,7698.6,3792.56Zm10.85-8.32a1.9,1.9,0,0,0-1.03.29c-.3.16-1.66.92-3.89,2.21a2.005,2.005,0,0,0,1,3.74,2.03,2.03,0,0,0,1-.27c2.21-1.28,3.55-2.03,3.83-2.19a2.1,2.1,0,0,0,1.09-1.78A2.006,2.006,0,0,0,7709.45,3784.24Z" fill="#403347"/>
    <g id="Group_2394" data-name="Group 2394">
      <g id="Rectangle_2032" data-name="Rectangle 2032">
        <path id="Path_1962" data-name="Path 1962" d="M7224.74,4095.42a3.431,3.431,0,0,0-.31-.35h-.01a3.976,3.976,0,0,0-.72-.58,4.286,4.286,0,0,0-.79-.42c-.03-.01-.07-.03-.1-.04a4.527,4.527,0,0,0-2.06-.28,4.232,4.232,0,0,0-.86.17,3.489,3.489,0,0,0-.42.15,4.286,4.286,0,0,0-.79.42,3.979,3.979,0,0,0-.72.58,4.569,4.569,0,0,0,0,6.47c.11.11.23.22.35.32s.24.18.37.26a4.286,4.286,0,0,0,.79.42c.03.01.05.01.08.02.11.04.22.08.34.12a4.4,4.4,0,0,0,1.3.19,4.594,4.594,0,0,0,.83-.08.124.124,0,0,0,.06-.01,2.733,2.733,0,0,0,.41-.1c.11-.04.21-.07.31-.11.04-.01.08-.02.11-.03a4.164,4.164,0,0,0,.56-.28,3.854,3.854,0,0,0,.37-.24,3.266,3.266,0,0,0,.58-.48h.01a3.407,3.407,0,0,0,.31-.35A4.565,4.565,0,0,0,7224.74,4095.42Zm-3.14,3.29a.592.592,0,0,1-.82,0,.58.58,0,0,1,0-.81.58.58,0,0,1,.82,0A.58.58,0,0,1,7221.6,4098.71Z" fill="#403347"/>
        <path id="Path_1963" data-name="Path 1963" d="M7234.38,4094.97a14.408,14.408,0,0,0-.62-1.93,14.559,14.559,0,0,0-.92-1.86,14.89,14.89,0,0,0-2.16-2.78,14,14,0,0,0-19.8,0,14.89,14.89,0,0,0-2.16,2.78,14.627,14.627,0,0,0-.92,1.86,14.405,14.405,0,0,0-.62,1.93,14.14,14.14,0,0,0,0,6.66,14.4,14.4,0,0,0,.62,1.93,14.623,14.623,0,0,0,.92,1.86,14.882,14.882,0,0,0,2.16,2.78l7.76,7.76a2.966,2.966,0,0,0,1.72.85,1.627,1.627,0,0,0-.38.49,1.961,1.961,0,0,0-.19,1.41,2,2,0,0,0,1.94,1.54,1.8,1.8,0,0,0,.46-.05c.04-.01,3.67-.87,9.82-2.44a2,2,0,1,0-.98-3.87c-3.66.93-6.41,1.61-8.05,2.01l7.7-7.7a14.882,14.882,0,0,0,2.16-2.78,14.556,14.556,0,0,0,.92-1.86,14.4,14.4,0,0,0,.62-1.93A14.14,14.14,0,0,0,7234.38,4094.97Zm-6.53,10.4-7.07,7.07-7.07-7.07a10,10,0,1,1,14.14,0Z" fill="#403347"/>
      </g>
      <g id="Ellipse_632" data-name="Ellipse 632">
        <path id="Path_1964" data-name="Path 1964" d="M7224.74,4095.42a3.431,3.431,0,0,0-.31-.35h-.01a3.976,3.976,0,0,0-.72-.58,4.286,4.286,0,0,0-.79-.42c-.03-.01-.07-.03-.1-.04a4.527,4.527,0,0,0-2.06-.28,5.046,5.046,0,0,0-.86.17,3.489,3.489,0,0,0-.42.15,4.286,4.286,0,0,0-.79.42,3.979,3.979,0,0,0-.72.58,4.569,4.569,0,0,0,0,6.47c.11.11.23.22.35.32s.24.18.37.26a4.286,4.286,0,0,0,.79.42c.03.01.05.01.08.02.11.04.22.08.34.12a4.4,4.4,0,0,0,1.3.19,4.594,4.594,0,0,0,.83-.08.124.124,0,0,0,.06-.01,2.733,2.733,0,0,0,.41-.1c.11-.04.21-.07.31-.11.04-.01.08-.02.11-.03a4.164,4.164,0,0,0,.56-.28,3.854,3.854,0,0,0,.37-.24,3.266,3.266,0,0,0,.58-.48h.01a3.407,3.407,0,0,0,.31-.35A4.565,4.565,0,0,0,7224.74,4095.42Zm-3.14,3.29a.592.592,0,0,1-.82,0,.58.58,0,0,1,0-.81.58.58,0,0,1,.82,0A.58.58,0,0,1,7221.6,4098.71Z" fill="#403347"/>
        <path id="Path_1965" data-name="Path 1965" d="M7224.74,4095.42c-.1-.12-.21-.24-.32-.35a3.976,3.976,0,0,0-.72-.58,4.286,4.286,0,0,0-.79-.42c-.03-.01-.07-.03-.1-.04a4.527,4.527,0,0,0-2.06-.28,4.232,4.232,0,0,0-.86.17,3.489,3.489,0,0,0-.42.15,4.286,4.286,0,0,0-.79.42,3.979,3.979,0,0,0-.72.58,4.569,4.569,0,0,0,0,6.47c.11.11.23.22.35.32s.24.18.37.26a4.286,4.286,0,0,0,.79.42,3.415,3.415,0,0,0,.42.14,4.4,4.4,0,0,0,1.3.19,4.594,4.594,0,0,0,.83-.08.124.124,0,0,0,.06-.01,2.733,2.733,0,0,0,.41-.1,3.471,3.471,0,0,0,.42-.14,4.164,4.164,0,0,0,.56-.28,1.779,1.779,0,0,0,.23-.14.725.725,0,0,0,.14-.1,3.266,3.266,0,0,0,.58-.48c.11-.11.22-.23.32-.35A4.565,4.565,0,0,0,7224.74,4095.42Zm-3.14,3.29a.592.592,0,0,1-.82,0,.58.58,0,0,1,0-.81.58.58,0,0,1,.82,0A.58.58,0,0,1,7221.6,4098.71Z" fill="#403347"/>
      </g>
    </g>
    <g id="Group_2395" data-name="Group 2395">
      <path id="Path_1966" data-name="Path 1966" d="M7727.131,3792.293a2,2,0,0,1-2.83,2.83l-7.14-7.14-7.14,7.14a2.017,2.017,0,0,1-2.83,0,2,2,0,0,1,0-2.83l7.141-7.14-7.141-7.14a2,2,0,1,1,2.83-2.83l7.14,7.14,7.14-7.14a2,2,0,0,1,2.83,2.83l-7.14,7.14Z" fill="#403347"/>
    </g>
  </g>
</svg>
