<svg xmlns="http://www.w3.org/2000/svg" width="424.472" height="364.425" viewBox="0 0 424.472 364.425">
  <g id="Group_1965" data-name="Group 1965" transform="translate(-7574.305 -2786.926)">
    <g id="Group_1925" data-name="Group 1925" transform="translate(7574.304 3034.148)">
      <path id="Path_328" data-name="Path 328" d="M7645.944,3152.955v23.55h-3.789c-10.642,0-21.277-.021-31.919.014-5.086.021-7.281,2.189-7.345,7.233-.07,5.135-.021,10.277-.021,15.819h31.471v23.663H7603v46.609H7574.3v-94.706a66.686,66.686,0,0,1,2.371-7.24c4.146-9.127,11.512-14.437,21.318-14.788C7613.863,3152.541,7629.768,3152.955,7645.944,3152.955Z" transform="translate(-7574.305 -3152.752)" fill="#052b05"/>
      <path id="Path_329" data-name="Path 329" d="M7939.48,3266.978c0,.968-1.242,2.75-1.936,2.764-8.5.189-17.005.126-26.048.126v-33.856c0-1.052-.077-2.1.014-3.15.169-2.006-.75-2.68-2.673-2.638-3.949.084-7.9.021-12.129.021V3207c3.627,0,7.317-.14,10.994.049,2.785.147,3.963-.6,3.858-3.655-.218-6.538-.007-13.083-.091-19.629-.063-5.416-2.021-7.289-7.464-7.457-11.337-.351-12.452.729-12.452,12.073,0,25.823-.056,51.653.07,77.476.021,3.248-.926,4.188-4.139,4.1-7.906-.211-15.827-.07-23.978-.07-.084-1.522-.2-2.652-.2-3.788q-.021-43.47,0-86.94c.007-15.216,10.8-26.139,25.971-26.286,7.948-.077,15.9-.042,23.845-.007,15.355.07,26.146,10.025,26.328,25.431C7939.789,3207.846,7939.579,3237.416,7939.48,3266.978Z" transform="translate(-7664.254 -3152.755)" fill="#052b05"/>
      <path id="Path_330" data-name="Path 330" d="M8156.166,3176.158c-.105-13.259-10.074-23.087-23.445-23.319q-13.322-.221-26.651.007c-12.782.225-24.1,9.99-24.792,22.281-.639,11.533-.323,23.136.014,34.69.168,5.83,3.1,10.691,7.527,14.557,4.96,4.335,10.916,5.577,17.271,5.57,4.034-.007,8.061,0,12.782,0-5.816,13.525-11.316,26.335-17.138,39.888,9.2,0,17.608.07,26.005-.112.87-.014,2.042-1.361,2.5-2.357,4.98-10.817,9.961-21.642,14.7-32.565,3.248-7.485,6.686-14.964,9.022-22.75C8157.47,3200.361,8156.264,3188.168,8156.166,3176.158Zm-27.177,24.61c-.1,3.445-1.958,5.409-5.4,5.563-3.024.14-6.062.14-9.085,0-3.234-.154-5.226-2.076-5.3-5.345q-.2-9.618.014-19.229c.077-3.255,2.119-5.072,5.4-5.17,3.023-.084,6.062-.1,9.092.014a5.013,5.013,0,0,1,5.261,5.282c.106,3.262.028,6.531.028,9.793C8129,3194.706,8129.073,3197.737,8128.988,3200.768Z" transform="translate(-7731.973 -3152.727)" fill="#052b05"/>
      <path id="Path_331" data-name="Path 331" d="M7819.471,3156.913c-.217,6.391-.062,12.789-.062,19.573h-7.71c-9.47,0-18.935-.028-28.4.021-4.89.021-7.176,2.189-7.268,6.959-.1,5.233-.028,10.474-.028,16.261h31.457v23.445H7776v4.188c0,12.971-.062,25.943.05,38.914.021,2.645-.568,3.718-3.479,3.655-8.166-.189-16.339-.07-24.932-.07-.071-1.473-.176-2.708-.183-3.936q-.01-42.417,0-84.842c.015-17.959,10.362-28.243,28.356-28.25,13.2-.007,26.413.119,39.615-.084C7818.776,3152.7,7819.569,3153.8,7819.471,3156.913Z" transform="translate(-7628.169 -3152.732)" fill="#052b05"/>
      <path id="Path_332" data-name="Path 332" d="M8042.2,3267.069c.007,2.434-.976,2.925-3.122,2.9-7.247-.091-14.493-.168-21.733.028-2.918.084-3.472-1.031-3.465-3.662q.116-40.492.042-80.977c0-7.31-1.711-8.994-9.127-9.008-1.726-.007-3.444,0-5.542,0,0-7.576-.042-14.669.077-21.768a2.343,2.343,0,0,1,1.7-1.578c6.875.084,13.848-.33,20.61.667a23.751,23.751,0,0,1,20.436,23.655C8042.262,3207.242,8042.121,3237.156,8042.2,3267.069Z" transform="translate(-7706.102 -3152.804)" fill="#052b05"/>
      <path id="Path_333" data-name="Path 333" d="M7719.852,3266.124c.008,2.8-.652,3.915-3.683,3.844-8.046-.2-16.1-.07-24.455-.07V3152.884c8.748,0,17.37-.049,25.984.091.709.014,1.459,1.263,2.049,2.042.231.3.056.905.056,1.375Q7719.8,3211.258,7719.852,3266.124Z" transform="translate(-7610.669 -3152.771)" fill="#052b05"/>
    </g>
    <g id="Group_1926" data-name="Group 1926" transform="translate(7673.075 2786.926)">
      <path id="Path_334" data-name="Path 334" d="M7833.807,2786.927c-62.893-.175-114.027,50.6-114.1,113.318-.071,62.653,50.579,113.766,112.839,113.865a113.45,113.45,0,0,0,114.09-113.3C7946.725,2838.152,7896.145,2787.1,7833.807,2786.927Zm-.52,211.5a97.842,97.842,0,1,1,97.492-97.863C7930.75,2954.655,7887.143,2998.43,7833.287,2998.423Z" transform="translate(-7719.704 -2786.926)" fill="#052b05"/>
      <path id="Path_335" data-name="Path 335" d="M7922.984,2932.555c-5.865,0-10.958.084-16.044-.084-.786-.029-1.719-1.073-2.252-1.874-2.076-3.108-4.131-6.244-5.969-9.492a4.676,4.676,0,0,0-4.756-2.666c-7.584.147-15.167.056-23.593.056,3.115-4.9,5.767-9.351,8.776-13.546.561-.779,2.561-.618,3.908-.723s2.736-.028,4.938-.028c-3.5-5.556-6.608-10.495-10.046-15.96-4.279,6.777-8.193,12.964-12.094,19.166-4.791,7.612-9.478,15.293-14.43,22.8a5.8,5.8,0,0,1-4.111,2.287c-22.674.14-45.347.1-68.021.091-.778,0-1.563-.147-2.966-.287,5.907-9.365,11.589-18.366,17.636-27.942H7780.75c3.248-5.022,6.019-9.379,8.9-13.666.287-.428,1.27-.547,1.922-.54q25.939.021,51.878.119a6.151,6.151,0,0,1,.926.4c-2.757,4.335-5.38,8.671-8.271,12.816-.47.673-2.1.737-3.2.751-6.307.063-12.628-.106-18.927.133a6.157,6.157,0,0,0-4.139,2.238c-2.624,3.549-4.862,7.38-7.738,11.863,9.28,0,17.783.035,26.286-.014,4.419-.021,9.576,1.178,13.048-.688,3.339-1.789,4.988-6.8,7.3-10.439q13.607-21.456,27.164-42.948c.553-.876,1.171-1.718,2.111-3.094C7893,2885.041,7907.782,2908.472,7922.984,2932.555Z" transform="translate(-7736.603 -2809.121)" fill="#052b05"/>
      <path id="Path_336" data-name="Path 336" d="M7875.728,2861.8c-3.037,4.826-5.57,8.979-8.271,13.02a3.218,3.218,0,0,1-2.385,1.024q-27.349.094-54.712.056a7.788,7.788,0,0,1-1.537-.463c2.743-4.363,5.346-8.594,8.082-12.733a2.833,2.833,0,0,1,2.1-.87C7837.586,2861.782,7856.162,2861.8,7875.728,2861.8Z" transform="translate(-7746.303 -2809.272)" fill="#052b05"/>
      <path id="Path_337" data-name="Path 337" d="M7905.774,2994.219c-.7-1.543-.856-2.532.673-3.858,2.834-2.455,3.417-11.112,1.045-13.989-.905-1.1-2.357-2.364-3.627-2.434-4.939-.281-9.906-.112-15.174-.112,0,8.973-.007,17.587,0,26.195,0,4.728.239,4.9,5.4,3.676v-10.9c3.515-1.15,5.7-.526,6.657,3,.457,1.67,1.494,3.185,1.937,4.862.982,3.7,3.3,4.343,7.085,3.1C7908.376,3000.406,7907.163,2997.271,7905.774,2994.219Zm-2.939-8.636c-2.161,1.5-5.276,1.614-8.011,2.287-.344-.406-.681-.807-1.025-1.214.365-2.624-.1-6.019,1.382-7.618,1.081-1.179,5.206-.772,7.029.4C7903.375,2980.182,7903.739,2984.959,7902.834,2985.583Z" transform="translate(-7770.141 -2842.696)" fill="#052b05"/>
      <path id="Path_338" data-name="Path 338" d="M7870.662,2980.7c-.084-4.658-2.483-6.994-7.2-7.072-2.216-.035-4.434-.063-6.65.014-3.977.133-6.4,2.378-6.476,6.293q-.188,8.924,0,17.847c.085,4.153,2.589,6.293,7.1,6.461,9.2.337,12.493-1.08,13.175-5.7a11.973,11.973,0,0,0,.063-1.747q.01-3.841.007-7.7C7870.676,2986.3,7870.718,2983.5,7870.662,2980.7Zm-5.5,15.581c-.077,3.69-2.87,2.918-5.093,3.017s-4.328.014-4.315-3.094c.035-4.89,0-9.786.014-14.676.007-3.458,2.541-2.975,4.722-3,2.237-.021,4.686-.329,4.686,3.073v7.338C7865.176,2991.395,7865.218,2993.843,7865.162,2996.284Z" transform="translate(-7758.664 -2842.643)" fill="#052b05"/>
      <path id="Path_339" data-name="Path 339" d="M7978.22,2998.382c-.519,3.585-2.848,5.661-6.713,5.83-2.1.091-4.2.056-6.307.021-5.878-.1-8.214-3.01-7.281-9.316,2.588-.435,4.672-.786,5.464,2.645.2.9,3.016,1.606,4.651,1.641,1.516.035,3.957-.568,4.364-1.564.674-1.62.112-3.8-.154-5.71-.049-.358-1.115-.722-1.747-.814a23.562,23.562,0,0,0-3.15-.056c-8.249-.014-11.442-3.943-9.632-12.045.709-3.15,2.645-5.205,6.041-5.353,2.792-.119,5.6-.112,8.4,0a5.6,5.6,0,0,1,5.822,5.387c.134,1.158-.3,3.178-1.01,3.466-1.536.617-3.318.589-4.153-1.782-.75-2.125-5.339-3.437-7.892-1.95-1.136.667-1.663,3.031-1.712,4.644-.021.8,1.543,2.09,2.6,2.378,1.522.414,3.241.063,4.876.154a12.231,12.231,0,0,1,3.438.505C7977.729,2987.775,7979.139,2992.026,7978.22,2998.382Z" transform="translate(-7790.597 -2842.635)" fill="#052b05"/>
      <path id="Path_340" data-name="Path 340" d="M7795.365,2997.09c-.154,4.764-2.414,7.008-7.191,7.149-1.866.049-3.738.028-5.6.007-6.188-.084-8.545-3.045-7.359-9.337,2.386-.449,4.482-.751,5.176,2.637.351,1.747,7.451,2.961,8.35,1.256,1-1.9.652-4.546.715-6.868a.23.23,0,0,0-.105-.161.713.713,0,0,0-.077-.063,1.066,1.066,0,0,0-.2-.119,2.054,2.054,0,0,0-.252-.119c-.091-.042-.183-.077-.281-.112a4.368,4.368,0,0,0-.54-.168,2.848,2.848,0,0,0-.295-.063,12.809,12.809,0,0,0-2.792-.056c-10.614.645-10.508-4.995-10.039-11.68a6.116,6.116,0,0,1,6.033-5.725c2.33-.126,4.665-.056,7-.035,5.717.056,7.857,2.638,7.029,8.72-2.189.66-3.9.891-5.164-1.971-1.536-3.472-4.953-1.669-7.492-1.593-.722.021-1.677,2.54-1.979,4.027-.448,2.209.9,3.178,3.072,3.122,1.516-.042,3.039-.028,4.554.014,4.988.133,7.3,2.392,7.45,7.282C7795.414,2994.515,7795.414,2995.806,7795.365,2997.09Z" transform="translate(-7736.121 -2842.641)" fill="#052b05"/>
      <path id="Path_341" data-name="Path 341" d="M7829.669,2974.1a2.936,2.936,0,0,0-1-.3c-4.98-.014-9.955-.014-14.949-.014v30.334h5.367v-10.958h4.188c1.284-.007,2.575.063,3.852-.042a6.784,6.784,0,0,0,6.664-6.033C7834.818,2979.975,7833.421,2975.569,7829.669,2974.1Zm-2.056,12.592c-2.069,1.438-5.346,1.143-8.433,1.628v-10.292c3.227.653,6.532.484,8.475,2.028C7828.813,2980.97,7828.75,2985.9,7827.613,2986.688Z" transform="translate(-7747.766 -2842.699)" fill="#052b05"/>
      <path id="Path_342" data-name="Path 342" d="M7935.692,2978.9v25.206h-5.682v-25.241c-2.757-.14-5.044-.253-7.7-.386-.077-1.459-.14-2.792-.224-4.433h20.673C7943.76,2978.193,7943.76,2978.193,7935.692,2978.9Z" transform="translate(-7780.108 -2842.777)" fill="#052b05"/>
    </g>
  </g>
</svg>
