<svg xmlns="http://www.w3.org/2000/svg" width="750.709" height="482.943" viewBox="0 0 750.709 482.943">
  <g id="Group_1997" data-name="Group 1997" transform="translate(0 0)" opacity="0.04">
    <path id="Path_428" data-name="Path 428" d="M7720.413,5227.591c-5.926.422-14.76.559-23.424,1.764-10.707,1.479-19.094-1.205-25.439-10.346-6.568-9.445,2.684-13.893,4.781-19.987,15.26,11.154,27.254,26.557,48.918,23.565,8.219-1.119,16.773-.587,25.1,0,23.145,1.651,42.488,10.873,55.264,31.308-5.34-4.417-10.566-8.944-15.99-13.249-14.842-11.741-33.123-14.254-49-7.909-34.746,13.834-44.586,34.887-39.414,73.267,1.648,12.24,12.271,23.761,24.039,25.1,10.092,1.174,16.773-1.846,17.834-13.949.84-9.308,4.391-18.365,6.738-27.562,1.592.112,3.213.2,4.836.308,2.822,6.713,8.215,13.613,7.742,20.1-.447,6.487-5.619,13.809-10.818,18.368-5.086,4.473-12.83,5.87-18.783,8.386,18.365.866,33.654-7.829,40.867-24.155,7.324-16.548-.084-28.708-14.871-39.858,17.191,4.637,26.332,14.953,26.164,30.243-.084,8.581-3.494,17.055-5.088,25.633-5.338,29.215-28.037,45.09-57.277,39.978-46.039-8.079-67.562-61.11-39.973-102.594C7692.628,5250.931,7708.31,5239.638,7720.413,5227.591Z" transform="translate(-7669.23 -4890.911)" fill="#fff"/>
    <path id="Path_429" data-name="Path 429" d="M7574.576,5201.611c12.469-26.108,49.926-28.037,68.18-3.215,10.342,14.089,10.26,29.8,8.75,46.543-1.287,14.288-9.953,19.54-20.295,26.024,4.836-11.149,10.734-20.461,12.746-30.552,2.713-13.7-2.543-25.634-15.457-32.9-11.49-6.458-22.643-8.222-32.541,3.016,4.588,7.941,9.2,15.877,14.174,24.46-19.2,4-17.246-9.728-19.986-19.146-6.457,19.623.111,29.519,23.314,32.563-11.881,4.644-20.352,2.235-27.535-5.786C7575.414,5230.852,7566.359,5218.859,7574.576,5201.611Z" transform="translate(-7242.348 -4923.524)" fill="#fff"/>
    <path id="Path_430" data-name="Path 430" d="M7696.66,5176.8c-11.545-5.93-23.732-10.821-34.578-17.837-21.357-13.811-32.008-34.552-35.111-59.514,8.861,20.688,27.787,29.155,45.957,38.464,31.922,16.324,59.205,37.905,77.99,66.977C7733.336,5195.807,7715.025,5186.275,7696.66,5176.8Z" transform="translate(-7496.4 -5069.674)" fill="#fff"/>
    <path id="Path_431" data-name="Path 431" d="M7621.219,5097.712c4.08,8.414,6.01,17.223,11.377,22.613,24.516,24.628,27.842,55.545,27.563,87.859C7638.1,5174.669,7602.379,5145.684,7621.219,5097.712Z" transform="translate(-7374.752 -5072.799)" fill="#fff"/>
    <path id="Path_432" data-name="Path 432" d="M7628.036,5228.125c-11.125-31.585-3.1-56.354,22.5-72.9,28.316-18.282,60.268-14.589,86.014,9.927C7676.368,5148.907,7639.526,5169.646,7628.036,5228.125Z" transform="translate(-7471.356 -4990.178)" fill="#fff"/>
    <path id="Path_433" data-name="Path 433" d="M7605.293,5218.129v-.057c.279-4.639.615-9.277.865-13.921,1.428,63.314,27.479,119.39,61.164,133.23,3.074-15.77,4.332-32.678,9.867-48.052,8.387-23.262,32.539-35.841,54.566-31.479a37.476,37.476,0,0,1,29.631,31.447c1.789,13.2-2.77,25.357-15.1,30.051-7.967,3.048-18.924,1.96-27.254-1.006-4.922-1.733-7.324-10.676-10.848-16.354,1.035-.643,2.041-1.286,3.076-1.9,7.379,19.79,23.424,25.381,37.123,12.945,12.158-11.017,10.674-31.255-3.133-43.023-16.967-14.48-43.1-9.616-58.506,11.014-13.025,17.446-14.871,37.737-13.781,58.454.168,3.155,4,7.181,7.184,8.942,9.979,5.479,20.463,10.094,32.371,15.821-15.264,2.293-24.32-5.672-34.887-12.355-37.709-23.844-62.42-57.109-71.143-100.382a107.387,107.387,0,0,1-1.621-24.039C7604.957,5224.362,7605.125,5221.26,7605.293,5218.129Z" transform="translate(-7445.286 -4881.701)" fill="#fff"/>
    <path id="Path_434" data-name="Path 434" d="M7697.9,5140.528c32.678,6.039,56.715,22.951,67.006,55.632,10.816,34.464-.225,81.985-26.137,107.144,5-9.5,8.273-15.907,11.713-22.2,12.074-21.972,15.822-45.369,12.717-70.162a75.906,75.906,0,0,0-67.73-65.664c-36.982-3.55-65.1,14.062-76.033,47.354-6.6,20.13-4.893,39.358,4.947,58,2.236,1.9,4.473,3.8,6.848,5.843,20.715-40.143,54.26-35.307,74.609-16.186,16.715,15.709,16.912,35.7,11.377,54.987-8.666,30.3-20.016,59.845-30.246,89.729-.143-10.036,2.768-19.121,5.563-28.23,7.465-24.348,17.723-48.251,21.582-73.157,4.162-26.752-6.264-42.738-31.729-51.155-20.07-6.626-37.934,5.06-47.045,29.271,4,3.239,8.189,6.677,12.494,10.2-14.145,6.847-14.732,14.257-1.539,33.514-4.639-2.765-7.379-4.359-9.391-5.56-1.564,3.715-2.936,6.93-4.277,10.145.031.279.084.584.111.863l.029.029c-.029,3.1-.168,6.233-.309,9.363v0a6.411,6.411,0,0,1-.027-.723c-.084-2.993-.084-5.985-.029-9a3.671,3.671,0,0,0,.2-.5v-.006l.025-.028c-.668-5.45-1.283-10.9-1.953-16.319-.336-2.852-.7-5.734-1.064-8.584-.391-2.852-.809-5.675-1.256-8.526-1.342-8.274-3.662-16.354-5.535-24.516-15.348-21.688-14.873-54.9,1.115-80C7639.056,5148.3,7669.5,5135.249,7697.9,5140.528Z" transform="translate(-7471.586 -4998.016)" fill="#fff"/>
    <path id="Path_435" data-name="Path 435" d="M7500.321,5190.063c-2.461-6.512-.867-16.66,2.852-22.838,5.758-9.644,17.75-15.765,27.643-9.864,15.209,9.054,28.293,4.273,42.3-.282-8.189,3.664-16.27,7.519-24.572,10.846-6.734,2.683-14.145,3.969-20.434,7.383-2.486,1.366-4.668,7.743-3.494,10.175s7.1,4.557,10.176,3.771c7.406-1.9,14.369-5.56,21.5-8.5-2.293,3.829-4.557,7.656-6.846,11.486.025,0,.08-.029.109-.029v0h0c-.029.087-.084.168-.111.255-.086.081-.2.165-.279.249l0,0h0c.08-.168.191-.3.275-.47-7.994,2.233-15.877,4.665-23.953,6.594C7515.249,5201.276,7504.292,5200.658,7500.321,5190.063Z" transform="translate(-6961.265 -4969.868)" fill="#fff"/>
    <path id="Path_436" data-name="Path 436" d="M7606.469,5131.632c39.471,34.917,57.109,77.264,49.479,129.148-5.09,34.491-25.635,60.629-45.705,87.522C7659.3,5277.745,7677.666,5206.463,7606.469,5131.632Z" transform="translate(-7345.857 -5011.901)" fill="#fff"/>
    <path id="Path_437" data-name="Path 437" d="M7635.628,5209.143c-3.857,5.591-7.937,11.15-12.187,16.741C7627.411,5220.213,7631.519,5214.646,7635.628,5209.143Z" transform="translate(-7371.243 -4872.74)" fill="#fff"/>
    <path id="Path_438" data-name="Path 438" d="M7481.251,5156.881c4.361,15.067,4.918,29.743,22.363,36.843,3.662,1.481,6.176,12.83,4.527,18.226-1.621,5.255-8.721,11.126-14.285,12.188-4.7.895-13.752-3.494-15.486-7.714-7.016-17.249-10.566-35.251,2.881-51.743v-.024h0v-7.774Zm2.348,52.329c.727.812,6.318-.839,6.541-2.013.865-4.165,1.314-8.833.252-12.887-2.572-9.979-6.01-19.706-9.113-29.546h0c-1.566,11.237-3.717,22.446-4.277,33.711C7476.833,5202.025,7480.747,5206.107,7483.6,5209.21Z" transform="translate(-6821.321 -4966.57)" fill="#fff"/>
    <path id="Path_439" data-name="Path 439" d="M7500.17,5155.111c-1.227.308-2.43.618-3.66.954.232-.064.465-.123.7-.187-.232.064-.463.117-.7.182,1.23-.336,2.461-.643,3.691-.979v.027h0v0Z" transform="translate(-6881 -4969.801)" fill="#fff"/>
    <path id="Path_440" data-name="Path 440" d="M7449.465,5198.566c14.061-18.813,44.391-22.584,65.607-6.012,23.2,18.146,25.66,56.131,2.711,85.063,13.977-30.106,20.965-57.249-5.619-78.857-8.162-6.625-21.355-9.811-32.146-9.612C7469.033,5189.341,7458.156,5195.686,7449.465,5198.566Z" transform="translate(-6783.079 -4921.399)" fill="#fff"/>
    <path id="Path_441" data-name="Path 441" d="M7693.349,5137.832c15.318,2.742,29.826,9.784,44.7,14.93-.42,1.256-.867,2.542-1.314,3.827-35.5-15.99-77.936-4.166-107.873-25.577C7647.952,5132.887,7670.931,5133.808,7693.349,5137.832Z" transform="translate(-7488.813 -5013.013)" fill="#fff"/>
    <path id="Path_442" data-name="Path 442" d="M7478.36,5089.7c43.721-5.874,88.557,17.358,108.125,55.513,1.787,3.467,1.369,8.105,1.984,12.187C7564.681,5111.671,7528.284,5090.29,7478.36,5089.7Z" transform="translate(-6918.534 -5088.799)" fill="#fff"/>
    <path id="Path_443" data-name="Path 443" d="M7523.959,5209.368c-8.414,10.229-16.271,20.992-25.324,30.664-24.1,25.718-38.717,54.957-36.537,91.07h0c1.2.923,2.4,1.845,3.914,2.99,4.865-14.145,8-29.49,15.152-42.6,14.395-26.388,31.027-51.546,46.625-77.291,2.852-4.67,5.143-9.645,7.688-14.48,1.117-1.565,2.264-3.1,3.383-4.668,1.117-1.538,2.236-3.048,3.354-4.585v-.054c.025-.024.027-.024.055-.024l0,0c-.227,1.086-.383,2.217-.545,3.331-.037.263-.09.521-.127.779a2.2,2.2,0,0,0-.055.445c-.2,1.342-.363,2.684-.559,4a28.988,28.988,0,0,1-2.238,8.106c-8.133,17.3-17.105,34.214-25.771,51.295-17.527,26.556-28.262,55.6-33.125,87.046-1.734,10.986,1.285,17.7,13.7,20.742-9.309-35.557,3.885-66,18.561-96.217,1.678-3.465,1.594-7.8,2.32-11.712q8.807-11.446,17.639-22.921c-9.252,22.083-18.646,44.11-27.758,66.277-8.051,19.539-13.67,39.555-6.766,60.688,1.426,4.332,5.117,7.882,7.6,11.544,6.066-34.216,11.238-66.418,17.723-98.368,2.432-12.048,8.191-23.4,11.938-35.222,1.256-4.025.949-8.525,1.342-12.8.977.056,1.928.111,2.906.141.7-4.865.838-9.925,2.236-14.593,3.047-10.176,6.709-20.154,10.119-30.218,5.506-13.921,10.734-27.954,16.66-41.707,2.012-4.641,5.842-8.5,10.287-14.787,4.139,18.9,9.141,32.595,26.053,39.164,3.969,1.536,7.883,11.433,6.652,16.156-1.369,5.367-7.91,11.433-13.416,13.054-4.586,1.342-12.469-1.816-16.131-5.618-5.115-5.368-7.658-13.194-12.41-22.028,0,4.446.838,7.381-.141,9.394-8.609,17.247-17.555,34.355-26.527,51.435-.225.392-2.209-.168-3.355-.28-2.291,14.172-2.039,29.38-7.379,42.294-14,33.992-16.576,68.795-14.256,108.768,15.85-3.047,31.057-3.494,43.941-9.168,12.748-5.646,23.174-16.577,36.76-26.78-19.428,30.44-46.766,40.114-78.773,40.7-.895,10.816,3.857,16.884,13.391,20.35,27.506,10.008,53.586,9.028,77.99-8.693,2.936-2.152,6.484-3.467,9.756-5.172-27.424,27.646-59.793,29.322-95.91,16.828,10.736,31.951,32.26,52.328,58.732,68.905a12.3,12.3,0,0,1-6.906-.95c-29.994-13.641-49.42-36.368-60.463-67.424-6.289-17.723-17.275-32.678-35.3-40.394-1.426.672-2.881,1.37-4.3,2.069q10.9,29.811,21.775,59.652a87.959,87.959,0,0,1-30.609-54.006c-2.4-14.5-3.969-29.153-5.926-43.741h0v-.006a5.728,5.728,0,0,1,.473.36c-1.146-4.722-3.436-9.555-3.129-14.2,1.48-21.912,7.6-42.433,20.182-60.823,2.406-3.494,3.551-7.855,5.256-11.881q12.076-10.613,24.125-21.245C7513.645,5218.424,7518.816,5213.9,7523.959,5209.368Zm17.639-14.884v0Zm36.871-21.627c.951,3.689,7.408,5.954,11.35,8.861.586-5,3.1-10.818,1.369-14.816-3.354-7.743-9.084-14.423-15.6-24.207C7576.541,5154.659,7576.205,5164.08,7578.469,5172.857Z" transform="translate(-6896.207 -5021.597)" fill="#fff"/>
    <path id="Path_444" data-name="Path 444" d="M7514.03,5143.342c17.5,1.429,38.773,3.159,59.934,4.867C7562.894,5163.8,7536.618,5160.479,7514.03,5143.342Z" transform="translate(-7003.738 -4990.877)" fill="#fff"/>
    <path id="Path_445" data-name="Path 445" d="M7684.479,5143.894q-15.935-7.17-31.838-14.343c.531-1.451,1.033-2.88,1.564-4.333C7671.845,5123.149,7680.651,5127.289,7684.479,5143.894Z" transform="translate(-7501.72 -5024.3)" fill="#fff"/>
    <path id="Path_446" data-name="Path 446" d="M7603.7,5176.354c-4.082-15.124-3.186-27.672,13.949-36.033C7611.073,5152.649,7619.854,5168.808,7603.7,5176.354Z" transform="translate(-7292.405 -4996.299)" fill="#fff"/>
    <path id="Path_447" data-name="Path 447" d="M7602.208,5245.647c-.895-.811-1.762-1.618-2.656-2.461,9.141-9.728,19.035-18.837,27.143-29.351,8.021-10.4,14.256-22.22,21.5-33.793C7643.466,5209.839,7621.886,5227.058,7602.208,5245.647Z" transform="translate(-7317.025 -4924.986)" fill="#fff"/>
    <path id="Path_448" data-name="Path 448" d="M7689.809,5140.435c-9.338,11.936-18.814,18.84-34.3,12.606C7664.092,5140.881,7674.77,5137.135,7689.809,5140.435Z" transform="translate(-7515.07 -4998.143)" fill="#fff"/>
    <path id="Path_449" data-name="Path 449" d="M7642.851,5106.2c15.291,2.963,24.6,9.419,25.158,27.757C7655.038,5127.445,7645.786,5120.712,7642.851,5106.2Z" transform="translate(-7457.882 -5057.556)" fill="#fff"/>
    <path id="Path_450" data-name="Path 450" d="M7521.021,5105.916a47.788,47.788,0,0,1,.252,13.082c-1.342,8.193-3.383,16.3-5.508,26.165-2.152-9.812-4.92-18.925-5.787-28.206-.363-3.8,3.1-8.162,5.424-11.88C7515.848,5104.378,7520.938,5105.356,7521.021,5105.916Z" transform="translate(-6940.005 -5060.01)" fill="#fff"/>
    <path id="Path_451" data-name="Path 451" d="M7595.252,5165.13q15.22-7.337,30.5-14.648c.559,1.149,1.119,2.292,1.65,3.467C7616.021,5169.745,7611.828,5171.754,7595.252,5165.13Z" transform="translate(-7284.212 -4978.058)" fill="#fff"/>
    <path id="Path_452" data-name="Path 452" d="M7657.912,5209.375c-19.873,3.441-41.062,7.072-61.162,10.539C7615.311,5207.813,7636.361,5202.609,7657.912,5209.375Z" transform="translate(-7318.919 -4877.699)" fill="#fff"/>
    <path id="Path_453" data-name="Path 453" d="M7564.492,5132.021c14.7,3.135,26.834,5.73,38.238,8.163C7588.895,5149.885,7572.709,5148.039,7564.492,5132.021Z" transform="translate(-7173.561 -5011.2)" fill="#fff"/>
    <path id="Path_454" data-name="Path 454" d="M7662.888,5282.264q-8.385-31.736-18.336-69.492C7660.653,5236.028,7664.763,5259.9,7662.888,5282.264Z" transform="translate(-7457.933 -4866.225)" fill="#fff"/>
    <path id="Path_455" data-name="Path 455" d="M7592.694,5204.186c-11.713,4.641-21.16,8.386-30.607,12.131-.9-.7-1.793-1.4-2.656-2.1,7.574-6.034,14.84-12.547,23.033-17.639C7583.778,5195.771,7589.144,5201.473,7592.694,5204.186Z" transform="translate(-7149.38 -4895.432)" fill="#fff"/>
    <path id="Path_456" data-name="Path 456" d="M7536.872,5182.2c-2.6,5.17-4.307,8.581-6.039,12.019q1.128,2.391,2.264,4.78c-4.025-.531-8.357-.36-11.879-1.984-1.2-.56-1.537-7.4-.336-8.135C7525.858,5185.95,7531.56,5184.3,7536.872,5182.2Z" transform="translate(-6983.698 -4921.109)" fill="#fff"/>
  </g>
</svg>
