<svg xmlns="http://www.w3.org/2000/svg" width="669.944" height="368.333" viewBox="0 0 669.944 368.333">
  <g id="Group_1963" data-name="Group 1963" transform="translate(-3817.03 -4347.87)" opacity="0.03">
    <path id="Path_367" data-name="Path 367" d="M4118.97,4649.05c.01,5.46.01,10.9.01,16.47v-16.47Z"/>
    <path id="Path_368" data-name="Path 368" d="M4481.37,4682.31c-9.1.37-18.22.11-27.84.11,0-9.58.19-18.54-.08-27.49-.13-4.39.97-6.2,5.79-5.98,8.93.4,17.89.11,26.85.11a12.4,12.4,0,0,0,.6-2.45c.04-20.32.01-40.64.1-60.96.01-3.16-1.74-3.41-4.17-3.39-7.83.07-15.67-.17-23.48.12-4.24.16-5.94-.91-5.7-5.51.39-7.47-.17-15,.21-22.47.23-4.72-1.44-5.9-5.96-5.87-29.49.18-58.97.09-88.45.1-6.46,0-6.48.03-6.48,6.71q-.015,76.2-.01,152.41c0,1.83-.31,3.73.1,5.47.26,1.12,1.55,2.83,2.41,2.85,10.28.19,20.56.12,31.54.12v-66.74h32.19a6.9,6.9,0,0,1,.41,1.36c.07,8.66.34,17.33.08,25.98-.14,4.45,1,6.42,5.78,6a112.458,112.458,0,0,1,12.99-.05c4.76.15,11.01-1.2,13.82,1.28,2.4,2.11.96,8.71,1.03,13.33.11,6.11.03,12.23.03,18.61h33.64c0-9.71-.22-18.85.09-27.98C4487.01,4683.68,4485.92,4682.13,4481.37,4682.31Zm-28.51-67.26h-66.18c0-10.07.01-20.04,0-30-.01-3.52,2.6-2.85,4.62-2.83,12.99.1,25.98.3,38.96.4,7.33.06,14.65.01,22.6.01Z" fill="#fff"/>
    <path id="Path_369" data-name="Path 369" d="M4319.24,4554.73c-.35,7.48-.28,15-.01,22.49.14,4.03-1.32,5.11-5.21,5.09-29.49-.14-58.98-.08-88.47-.08h-6.44v33.23h66.78v23.78c0,9.8,0,9.81-9.67,9.81-18.8,0-37.61-.01-56.87-.01v33.37h99.51v33.17H4185.05v-5.34c0-51.81.07-103.63-.08-155.45-.01-4.71,1.13-6.25,6.05-6.22q60.99.285,121.97.01C4317.74,4548.56,4319.48,4549.85,4319.24,4554.73Z" fill="#fff"/>
    <path id="Path_370" data-name="Path 370" d="M4486.94,4487.7c-.44,7.64-.23,15.32-.08,22.98.07,3.3-.83,4.79-4.47,4.78q-62.73-.135-125.46.02c-3.47.01-4.21-1.41-4.2-4.47q.06-79.47-.06-158.95c-.01-4.44,2.57-4.16,5.52-4.16q43.485.03,86.97.01h41.58c0,10.67.11,20.78-.19,30.88-.03.94-2.71,2.53-4.19,2.56-9.82.24-19.66.13-29.49.13-20.49,0-40.98.1-61.48-.09-3.93-.03-5.26,1.14-5.14,5.06q.345,11.744-.01,23.49c-.11,3.76,1.2,4.83,4.89,4.8,19.16-.16,38.32-.08,57.48-.06,1.3,0,2.59.21,4.18.34v33.05c-1.96.11-3.88.3-5.8.3-18.66.02-37.32.11-55.98-.07-3.75-.03-4.94,1.06-4.81,4.81.26,7.48.33,15-.01,22.48-.21,4.56,1.18,6,5.85,5.97,29.49-.2,58.99.02,88.47-.22C4485.56,4481.3,4487.24,4482.55,4486.94,4487.7Z" fill="#fff"/>
    <path id="Path_371" data-name="Path 371" d="M4119.02,4386.91c0-1.76-.19-3.52-.31-5.76h-33.36v-33.21h-6.05q-27.225,0-54.46,0c-6.59.01-6.58.03-6.58,6.45v26.87h-33.13v134.12c9.99,0,19.47-.13,28.93.07,3.51.07,4.53-1.08,4.49-4.58-.18-15.82-.08-31.64-.08-47.46v-15h5.36c18.49,0,36.98.13,55.46-.1,4.51-.06,6.03,1.11,5.96,5.82-.26,18.48.04,36.97-.22,55.46-.07,4.71,1.45,6.02,5.97,5.82,7.48-.32,15-.3,22.48.03,4.38.2,5.67-1.17,5.65-5.61C4118.97,4468.86,4119.04,4427.89,4119.02,4386.91Zm-33.89,23.72c.01,2.5-.57,4.09-3.59,4.08-20.46-.1-40.93-.1-61.39-.15-.3,0-.59-.25-1.65-.73,0-9.74-.09-19.83.15-29.92.01-.86,2.13-2.4,3.28-2.41,19.8-.14,39.6-.06,59.4-.13,2.79-.01,3.84,1.03,3.81,3.81C4085.05,4393.66,4085.09,4402.14,4085.13,4410.63Z" fill="#fff"/>
    <path id="Path_372" data-name="Path 372" d="M3951.14,4509.53c.03,4.59-1.27,5.98-5.88,5.95q-44.745-.285-89.5-.01c-4.24.03-5.38-1.35-5.25-5.44.28-9.13.09-18.28.09-28.22-10.25,0-19.73-.06-29.21.04-2.74.03-4.32-.42-4.31-3.75.11-31.66.1-63.33.13-94.99a10.283,10.283,0,0,1,.46-1.73h32.9c0-10.06.16-19.36-.08-28.65-.1-3.74,1.02-4.87,4.78-4.86q45.5.209,91,0c3.7-.01,4.93,1.13,4.84,4.85-.23,9.3-.08,18.6-.08,28.37-2.42.13-4.35.32-6.28.32-29.33.02-58.66.12-87.99-.09-4.88-.04-6.13,1.47-6.09,6.21q.3,44,.01,87.99c-.03,4.43,1.01,6.08,5.79,6.01,18.49-.27,36.99-.23,55.49-.02,4.36.05,5.9-1.2,5.71-5.65-.33-7.66-.24-15.34-.03-23,.1-3.52-1.16-4.63-4.62-4.56-9.46.18-18.92.06-28.72.06v-33.22h66.48c.09,1.67.25,3.29.25,4.9C3951.04,4449.87,3950.95,4479.7,3951.14,4509.53Z" fill="#fff"/>
    <path id="Path_373" data-name="Path 373" d="M3951.05,4595.79c0-13.83,0-13.83-13.68-13.83h-19.59c0-9.87-.25-18.86.1-27.83.17-4.55-1.45-5.61-5.72-5.54-15.49.22-30.99.08-46.49.08h-14.83c-.14,2.29-.34,4.06-.35,5.84-.03,7.5-.23,15,.07,22.49.17,4.06-1.31,5.13-5.15,5-7.66-.25-15.34.13-22.99-.15-4.08-.15-5.42,1.04-5.39,5.28.17,29.66.09,59.32.09,88.98,0,6.56.01,6.57,6.43,6.58h26.98v33.01h67.24v-32.99c9.58,0,18.39-.24,27.18.1,4.7.18,6.25-1.12,6.21-6.05C3950.92,4649.77,3951.05,4622.78,3951.05,4595.79Zm-38.27,86.75q-28.485-.24-56.98-.01c-3.82.03-5.18-.97-5.11-5.04.11-6.77.14-13.53.14-20.3,0-8.23-.05-16.45-.05-24.68q0-5.985.02-11.97.015-8.67.01-17.36,0-3.571-.02-7.14c-.02-3-.04-6.01-.08-9.01-.04-3.69,1.04-4.92,4.8-4.89q28.74.24,57.48.02c3.44-.02,4.62,1.06,4.6,4.58q-.165,45.48.01,90.96C3917.62,4681.43,3916.5,4682.57,3912.78,4682.54Z" fill="#fff"/>
    <path id="Path_374" data-name="Path 374" d="M4219.05,4414.96v.1h-.11Z" fill="#fff"/>
    <path id="Path_375" data-name="Path 375" d="M4319.63,4509.51c.04,4.58-1.2,6.19-5.9,5.96a193.988,193.988,0,0,0-21.97.01c-5.3.33-6.35-1.7-6.31-6.56.2-29.15.1-58.3.09-87.45v-6.26h-32.89v32.89h-33.6v-33.04h33.22c0-5.59-.01-10.32,0-15.06,0-4.66.21-9.34-.06-13.98-.22-3.68.91-4.98,4.73-4.87,9.3.25,18.61.08,28.65.08v-26.28c0-6.99,0-6.99,7.05-6.99,6.83-.01,13.66,0,20.49-.01,6.41,0,6.43-.01,6.43,6.66q.015,42.225,0,84.45C4319.56,4462.54,4319.43,4486.03,4319.63,4509.51Z" fill="#fff"/>
    <path id="Path_376" data-name="Path 376" d="M4218.94,4381.17v33.79h-33.4v100.09h-33.35V4348.34h33.27v32.83Z" fill="#fff"/>
    <path id="Path_377" data-name="Path 377" d="M4218.94,4415.06v-.1h.11Z" fill="#fff"/>
    <path id="Path_378" data-name="Path 378" d="M4118.97,4649.05h.01v33.69h-22.67c-10.84,0-10.84,0-10.84,10.67v22.27h-33.55c0-7.72.08-15.48-.02-23.23-.15-11.01,1.89-9.61-9.83-9.73-6.16-.06-12.34-.23-18.49.06-4.06.2-5.61-.99-5.45-5.26.31-7.99-.05-16,.15-23.99.09-3.53-1.17-4.61-4.63-4.53-9.31.19-18.62.07-28.33.07V4548.69h21.24c11.92,0,11.92,0,11.92,12.04q0,40.74.01,81.48v6.53h33.5v33.62c10.55,0,20.63.09,30.7-.18.85-.02,2.28-2.51,2.32-3.88.23-7.83.12-15.66.12-23.5v-5.75Z" fill="#fff"/>
    <path id="Path_379" data-name="Path 379" d="M4119.07,4649.05h-.09v-.09A.768.768,0,0,1,4119.07,4649.05Z" fill="#fff"/>
    <path id="Path_380" data-name="Path 380" d="M4119.06,4648.95a.345.345,0,0,1,.01.1.768.768,0,0,0-.09-.09l-.01-.01Z" fill="#fff"/>
    <path id="Path_381" data-name="Path 381" d="M4152.33,4644.9c.01,3.31-1.17,4.31-4.38,4.24-9.63-.2-19.26-.14-28.89-.19-.11-1.63-.3-3.24-.3-4.86q-.029-44.475-.02-88.95c.01-6.48.02-6.49,6.69-6.5,7.49,0,14.99.1,22.48-.04,3.19-.05,4.43,1.08,4.42,4.36Q4152.21,4598.92,4152.33,4644.9Z" fill="#fff"/>
  </g>
</svg>
