<svg xmlns="http://www.w3.org/2000/svg" width="337" height="450.083" viewBox="0 0 337 450.083">
  <g id="Group_1999" data-name="Group 1999" transform="translate(-6021 -3846.807)">
    <path id="Path_384" data-name="Path 384" d="M6349.843,4280.355c-1.638-2.492-1.1-3.707,1.772-4.118,4.315-.619,6.431-5.485,4.6-9.587-3.888-8.72-7.134-17.778-11.646-26.156-3.972-7.375-9.3-14.024-14.048-20.984-1.479-2.166-3.01-4.3-4.518-6.442a4.021,4.021,0,0,1,.028-4.945c2.959-4.557,2.588-8.889-1.728-12.118-4.984-3.735-7.725-8.973-9.75-14.369q-14.2-37.841-27.674-75.952c-1.992-5.615-2.492-11.748-4.36-17.412-2.645-8.011-3.117-16.181-2.656-24.412.6-10.61-2.487-20.54-4.754-30.667-1.958-8.743-3.624-17.565-5.266-26.375a19.82,19.82,0,0,1-.062-5.885c1.659-13.615-1.5-26.617-4.929-39.59-1.119-4.253-2.38-8.468-3.443-12.732a18.5,18.5,0,0,1-.759-5.537c1.063-16.816-2.419-32.962-6.909-48.98-.456-1.625-.85-3.268-1.4-4.86a11.732,11.732,0,0,1,.529-9.779,13.093,13.093,0,0,0,1.294-3.7,38.537,38.537,0,0,1,6.948-15.19,20.405,20.405,0,0,0,1.733-3.837c-.343-.247-.687-.49-1.029-.737q-4.11,4.692-8.226,9.374c-.186-.152-.366-.3-.551-.461q1-9.047,2-18.093h-5.063c-1.047,1.333-2.087,2.667-3.4,4.343a7.146,7.146,0,0,0-.63-1.727,17.211,17.211,0,0,0-1.559-1.513,12.906,12.906,0,0,0-1.643,1.935,3.235,3.235,0,0,0-.141,1.66c.36,7.516-2.5,13.6-7.814,18.841a6.027,6.027,0,0,0-1.491,4.945,27.254,27.254,0,0,0,3.927,8.208c3.167,4.507,5.227,9.239,5.1,14.831-.141,6.656-.36,13.311-.275,19.966.084,6.633.3,13.216,2.97,19.579a14.292,14.292,0,0,1-.692,11.989,9.143,9.143,0,0,0-.743,4.86c.821,6.785,1.84,13.542,2.864,20.3.405,2.661.613,5.165-1.356,7.426a17.292,17.292,0,0,0-4.72,11.714c0,2.463-2.268,3.668-4.085,2.064-3.111-2.75-6.476-5.5-5.53-10.583,1.429-7.645-.09-14.88-3.539-21.772-3.358-6.712-9.75-9.16-16.3-9.834-7.375-.76-13.379,3.73-18.662,8.428-2.048,1.822-3.094,4.816-4.434,7.37a3.185,3.185,0,0,0,.208,2.256c.395,1.007,1.171,1.867,1.531,2.88.7,1.992,1.232,4.045,1.823,6.071a8.9,8.9,0,0,1,.72,2.677c-.18,3.8.636,6.611,4.079,9.238,2.678,2.043,4.062,5.952,5.621,9.222,1.2,2.52,2.577,3.9,5.553,3.539,2.526-.315,4.259,1.547,3.646,3.916a6.883,6.883,0,0,1-2.335,3.3c-6.132,4.94-12.4,9.711-18.532,14.639-1.277,1.03-2.858,2.352-3.179,3.786-1.271,5.711-2.268,11.5-3,17.306-.265,2.081-.8,3.269-2.8,2.491-2.486-.967-4.709-2.582-7.167-3.645a28.948,28.948,0,0,0-7.517-2.515c-6.183-.805-11.241,2.132-15.956,5.7-2.914,2.206-5.558,4.827-8.664,6.707-7.218,4.365-15.095,7.066-23.562,5.153a150.421,150.421,0,0,0-34.038-3.483c-6.948.034-13.919,1.406-20.816,2.554-6.262,1.047-12.417,2.752-18.667,3.871-5.722,1.025-5.918-2.132-5.609-6.267.079-1.018.164-2.032.31-3.888-1.525,1.068-2.571,1.463-3.078,2.222-2.166,3.229-5.2,4.068-8.816,3.556a7.49,7.49,0,0,0-6.588,2.284v1.125a18.456,18.456,0,0,0,2.166.512c3.809.439,4.006.765,3.865,4.461-.028.805.9,1.649,1.637,2.881-.281.861-.743,2.3-1.491,4.613,1.946-.619,3.1-1.058,4.287-1.344,2.779-.681,5.6-1.9,8.371-1.817,13.289.388,26.561,1.232,39.85,1.681,3.426.119,6.869-.674,10.313-.933,5.423-.417,10.847-.748,16.271-1.08a9.991,9.991,0,0,1,3.358.073c5.615,1.637,11.19,3.409,16.766,5.125a7.35,7.35,0,0,1-7.544,4.49c-3.59-.568-6.487.2-8.333,3.629-.321.6-1.03.985-.962,1.795-.394.99-.5,2.335-1.226,2.909-5.863,4.635-7.573,10.891-7.382,17.975a11.608,11.608,0,0,0,11,11.37c1.215.073,2.436.085,3.651.051,5.508-.147,8.506,2.992,8.906,8.613.271,3.848,1.227,7.64,1.874,11.455.332-.012.664-.028,1-.04.253-.873.506-1.75.759-2.622.226-.091.45-.187.675-.276.619,1.232,1.238,2.47,1.857,3.7.939,1.88,1.744,3.838,2.847,5.61,1.479,2.4,3.19,4.658,5.058,7.348-.124-2.447-.236-4.687-.354-7.027,2.34,1.294,4.647,2.565,6.954,3.837.225-.27.456-.54.687-.815-.625-1.553-1.244-3.111-2.268-5.677,3.516,2.329,4.157.366,5.041-1.683,2.385-5.508,1.991-10.948-.006-16.422-.22-.608-.428-1.227-.6-1.852-.04-.152.09-.348.264-.95l4.186,2.627c-.883-3.15-1.232-5.912-2.425-8.236-1.57-3.055-3.86-5.738-5.75-8.636-1.727-2.645-3.432-5.311-4.945-8.079a4.071,4.071,0,0,1,.129-2.678c.4-1.429,1.047-2.8,1.547-4.2.935-2.587,3.106-3.167,4.878-1.035a15.636,15.636,0,0,1,2.329,4.7c.821,2.279,1.322,4.675,2.127,6.971a16.738,16.738,0,0,0,6.915,8.557c5.761,3.826,10.5,8.519,13.491,15.05,1.761,3.843,4.928,7.027,7.314,10.611a19.772,19.772,0,0,1,2.908,5.693,19.482,19.482,0,0,0,5.227,9.126,26.545,26.545,0,0,1,2.684,3.246c2.684,3.708,3.673,7.421.681,11.606-1.44,2.025-2.2,4.535-3.257,6.83-1.2,2.594-2,5.068-.642,8.045.579,1.271-.073,3.292-.585,4.838-3.562,10.746-7.393,21.4-10.774,32.2a71.162,71.162,0,0,0-2.386,12.962,12.767,12.767,0,0,1-4.045,8.372c-.889.821-1.592,1.862-2.5,2.661-2.841,2.5-4.276,5.069-1.621,8.732.484.669-.242,3.172-1.1,3.7-3.786,2.312-4.377,5.446-3.493,9.424a16.169,16.169,0,0,1-1.249,10.121c-1.66,3.853-2.881,7.9-4.214,11.881-.816,2.426-1.148,4.856,1.53,6.459,2.458,1.463,6.684.873,8.489-1.479a78.6,78.6,0,0,0,6.622-9.728c3.167-5.739,6.138-11.6,8.833-17.565,2.11-4.669,5.738-6.155,10.391-6.037,7.849.2,9.981-1.316,13.227-8.472,4.27-9.429,5.119-19.488,6.093-29.559a122.669,122.669,0,0,1,1.789-12.951,16.932,16.932,0,0,1,.377,2.11c.669,12.321,2.5,24.4,7.365,35.86a4.977,4.977,0,0,1,.54,2.167,8.537,8.537,0,0,0,3.787,8.433c1.029.731,1.316,3.021,1.3,4.6-.04,3.494.849,5.98,4.309,7.691a11.431,11.431,0,0,1,6.685,9.446,86.052,86.052,0,0,0,1.451,8.866c.3,1.44.619,3.151,1.569,4.113a9.62,9.62,0,0,0,4.8,2.763c2.065.349,3.139-1.5,3.944-3.348,4.084-9.413,3.212-19.056,1.238-28.682-.968-4.714-1.238-4.658,3.145-6.268,2.971-1.091,4.636-5.046,3.7-9.31-.754-3.422-1.975-6.661-5.069-8.789-1.991-1.373-1.727-2.795-.562-4.775a15.457,15.457,0,0,0,2.223-6.477c.309-4.664.017-9.367.028-14.054.011-4.866-.174-9.755.219-14.594a20.027,20.027,0,0,0-3.01-12.023,45.949,45.949,0,0,1-3.826-8.084c-.372-1.1.113-3.279.967-3.871,3.668-2.532,7.269-4.961,7.883-10.053.247.074.5.152.742.225,1.114,3.617,2.082,7.3,3.393,10.842a44.02,44.02,0,0,0,3.888,8.343c4.855,7.68,9.738,15.365,15.033,22.741,5.052,7.032,11,13.187,19.562,16.2a6.339,6.339,0,0,1,3.246,3.786c1.795,6.008,3.207,12.1,2.892,18.5a20.583,20.583,0,0,0,1.339,6.807c1.041,3.394,2.616,6.634,3.455,10.066a15.272,15.272,0,0,1-.017,6.583c-.889,4.293.034,7.718,3.505,10.486a13.926,13.926,0,0,1,2.83,3.083,9.225,9.225,0,0,0,12.923,2.4c3.314-2.431,6.16-2.965,10.841-1.817-.911,1-1.643,1.885-2.459,2.688-1.631,1.6-2.419,3.691-1.378,5.6a8.177,8.177,0,0,0,3.978,2.972,47.823,47.823,0,0,0,6.414,1.783H6358v-5.626C6355.26,4287.642,6352.335,4284.142,6349.843,4280.355Zm-155.229-139.61c-.326.124-.647.242-.974.365-.669-1.536-1.389-3.049-1.985-4.613-.49-1.294-.562-2.819-1.283-3.95-5.659-8.89-10.16-18.555-17.755-26.161-3.072-3.083-2.672-5.659.753-8.214,2.7-2.009,5.469-3.927,8.181-5.918,1.637-1.193,2.56-.805,2.858,1.17.225,1.479.366,2.976.675,4.434,1.147,5.4,4.737,7.128,9.6,4.691.647-.32,1.345-.545,2.915-1.182-1.626,7.027-3.876,13.334-4.343,19.776C6192.78,4127.608,6194.085,4134.207,6194.614,4140.745Zm16.226-76.39c-6.11-3.409-6.048-9.148-6.025-15.624,6.476,5.148,10.678,10.92,10.509,19.455C6213.838,4066.886,6212.522,4065.295,6210.84,4064.355Z" transform="translate(0 0)" fill="#1b3837"/>
  </g>
</svg>
