<svg xmlns="http://www.w3.org/2000/svg" width="282.504" height="141.195" viewBox="0 0 282.504 141.195">
  <g id="Group_2048" data-name="Group 2048" transform="translate(-5477.727 -9930.818)">
    <g id="Group_2011" data-name="Group 2011" transform="translate(5477.727 9930.818)">
      <path id="Path_589" data-name="Path 589" d="M5498.982,10003.582l56.278,56.28a3.756,3.756,0,0,1,0,5.311l-4.741,4.757a3.757,3.757,0,0,1-5.318,0L5486.25,10011l-7.42-7.42a3.754,3.754,0,0,1,0-5.314l7.42-7.42,58.955-58.93a3.76,3.76,0,0,1,5.318,0l4.741,4.758a3.759,3.759,0,0,1,0,5.313l-56.278,56.275A3.754,3.754,0,0,0,5498.982,10003.582Z" transform="translate(-5477.728 -9930.818)" fill="#04040d"/>
    </g>
    <g id="Group_2012" data-name="Group 2012" transform="translate(5681.596 9930.818)">
      <path id="Path_590" data-name="Path 590" d="M5630.929,9998.268a3.756,3.756,0,0,1,0,5.314l-7.42,7.42-58.958,58.93a3.753,3.753,0,0,1-5.315,0l-4.744-4.757a3.758,3.758,0,0,1,.005-5.311l56.279-56.28a3.757,3.757,0,0,0,0-5.314L5554.5,9941.99a3.758,3.758,0,0,1-.005-5.311l4.744-4.758a3.757,3.757,0,0,1,5.315,0l58.958,58.93Z" transform="translate(-5553.396 -9930.818)" fill="#04040d"/>
    </g>
    <rect id="Rectangle_1986" data-name="Rectangle 1986" width="155.037" height="14.25" rx="1.395" transform="matrix(0.52, -0.854, 0.854, 0.52, 5570.48, 10064.598)" fill="#04040d"/>
  </g>
</svg>
