<svg id="Group_2332" data-name="Group 2332" xmlns="http://www.w3.org/2000/svg" width="392.229" height="331.321" viewBox="0 0 392.229 331.321">
  <path id="Path_1424" data-name="Path 1424" d="M2021.887,5413.534H1997.6c-.131,2.859-.253,5.4-.375,7.993h-7.444v-12.665h4.9c10.459,0,20.919.026,31.378-.026,4.611-.026,6.929-2.4,7.017-6.947.1-5.2-2.371-7.583-8.272-7.6-21.782-.062-43.572-.044-65.363-.062h-5.151c-.784-4.384-1.482-8.21-2.162-12.045q-5.7-32.32-11.4-64.631c-.741-4.184-3.077-5.8-7.339-5.692a8.31,8.31,0,0,0-7.391,4.48v5.229c.244.34.645.646.706,1.011q7.073,40.243,14.077,80.494c.645,3.722,2.589,5.718,6.38,5.762,3.635.043,7.261.017,10.9.017h26.21v12.5c-1.456.323-2.685.593-3.7.819-2.3,8.342-3.521,16.456-.819,25.051-7.156,1.429-14.225,2.9-21.329,4.158a4.216,4.216,0,0,1-3.242-1.194c-2.458-2.572-5.509-3.5-8.132-1.4-1.665,1.343-3.077,4.568-2.641,6.5.436,1.909,3.112,4.1,5.212,4.663,3.426.933,5.544-1.5,6.764-4.707a3.606,3.606,0,0,1,2.136-2.048c7.016-1.56,14.068-2.946,21.625-4.48V5460.7h58.878v-39.022h-16.692C2022.166,5418.572,2022.026,5416.053,2021.887,5413.534Zm-1.273,7.958h-21.294v-6.416h21.294Z" transform="translate(-1926 -5142.015)" fill="#611735"/>
  <path id="Path_1425" data-name="Path 1425" d="M2357.719,5314.105c-4.916-3.617-11.2-1.525-12.211,4.132-2.415,13.4-4.716,26.819-7.078,40.225-2.135,12.081-4.3,24.153-6.485,36.478h-4.628q-33.117,0-66.217.009c-5.439,0-7.932,2.433-7.949,7.54-.018,4.829,2.441,7.147,7.714,7.182,5.8.044,11.619.009,17.424.009H2296.5v14.835c-2.406,2.293-5.343,3.757-5.491,5.474-.523,5.866-.061,11.819.026,18.147-5.369,1.063-11.906,2.258-18.4,3.7-2.4.523-4.149.794-6.058-1.49-2.423-2.9-6.912-2.4-9.135.462a6.4,6.4,0,0,0,1.534,9.161c3.129,1.943,7.635.993,8.786-2.537,1.089-3.312,3.173-3.9,6.005-4.253,2.153-.262,4.236-1.012,6.38-1.316,7.557-1.071,15.167-3.076,22.68-2.771,8,.322,15.942,2.755,23.848,4.532,1.307.288,2.231,2.048,3.452,2.964,2.066,1.543,4.21,4.044,6.363,4.088,1.822.035,4.4-2.5,5.378-4.516,1.3-2.685.009-5.534-2.815-6.929-2.868-1.43-5.561-.9-7.888,1.561a4.318,4.318,0,0,1-3.146,1.455c-7.348-1.342-14.643-2.929-22.052-4.463,4.48-8.307,2.266-19.907-3.957-22.27v-15.829h4.541q15.9,0,31.805,0c3.861.009,6.345-1.621,7.034-5.6,2.946-16.988,5.84-33.984,8.873-50.955,1.883-10.521,3.966-21,5.962-31.5V5316.4A31.214,31.214,0,0,0,2357.719,5314.105Z" transform="translate(-1967.999 -5142.073)" fill="#611735"/>
  <path id="Path_1426" data-name="Path 1426" d="M1988.215,5202.471c12.255,9.256,26.41,13.667,41.454,15.471,2.423.288,3.486,1.037,4.062,3.417.863,3.6,2.205,7.086,3.547,11.244,2.3-2.641,4.375-4.672,6.023-7,3.8-5.352,8.716-7.688,15.367-8.725,16.2-2.519,30.916-8.838,42.544-20.937,16.456-17.118,16.108-40.374-.741-57.074a66.1,66.1,0,0,0-27.726-16.587c-7.435-2.231-15.14-3.556-22.723-5.282h-18.3a24.246,24.246,0,0,1-3.26.828c-14.347,1.726-27.7,6.223-39.476,14.721C1962.232,5151.847,1961.9,5182.607,1988.215,5202.471Zm.061-67.333c18.635-13.92,39.92-17.946,62.574-15.977,14.356,1.247,27.831,5.508,39.851,13.719,7.313,4.985,13.4,11.139,17.284,19.193,6.929,14.32,4.114,30.071-7.679,42.457a66.424,66.424,0,0,1-40.007,20.248c-9.213,1.246-15.393,5.238-20.379,12.351a21.5,21.5,0,0,1-1.578,1.751c-.453-.4-.645-.488-.654-.6-1.055-9.318-6.372-12.377-15.585-13.4-12.917-1.438-24.719-7.008-35-15.358C1964.42,5181.116,1964.865,5152.641,1988.276,5135.138Z" transform="translate(-1931.481 -5117)" fill="#611735"/>
  <path id="Path_1427" data-name="Path 1427" d="M2303.955,5381.674c8.951-.035,13.658-4.855,13.667-13.79.018-21.791-.148-43.581.087-65.363.087-7.766-2.754-13.135-9.989-15.942.453-5.857.453-5.857,4.367-9.5a33.826,33.826,0,1,0-56.263-17.642c3.818,18.129,21.582,29.591,40.182,25.939a27.385,27.385,0,0,1,3.408-.218c.157.331.323.662.479.993-7.339,2.7-11.035,7.792-11.166,15.445-.009.8-1.368,1.717-2.275,2.345-12.534,8.664-26.419,11.339-41.411,9.518a26.185,26.185,0,0,0-9.823.532,5.085,5.085,0,0,1-5.361-1.1c-6.633-5.648-13.336-11.218-19.978-16.857-1.8-1.525-3.173-1.979-3.983,1.063,7.452,6.25,14.948,12.438,22.3,18.8a7.977,7.977,0,0,1,2.415,4.209,13.679,13.679,0,0,0,7.452,10.111c6.4,3.295,13.126,4.062,20.265,3.269,10.407-1.168,20.623-2.833,30.507-8.193v32.215c-15.933,0-31.309-.061-46.684.026-8.62.052-11.854,2.737-14.146,11.131-5.683,20.823-11.41,41.628-17.031,62.46-.715,2.667-1.56,4.2-4.855,4.027-4.5-.235-7.095,2.415-7.156,6.337-.061,4.009,2.763,6.633,7.4,6.693,5.23.062,10.459.026,15.689.009,5.9-.018,7.444-1.011,9.012-6.66,3.347-12,6.529-24.048,9.771-36.076q3.19-11.859,6.38-23.761C2266.493,5381.7,2285.224,5381.744,2303.955,5381.674Z" transform="translate(-1961.042 -5130.037)" fill="#611735"/>
  <path id="Path_1428" data-name="Path 1428" d="M2075.368,5430.043a23.245,23.245,0,0,0-4.271-.043c-5.7-20.414-11.331-40.461-16.892-60.534-1.813-6.528-4.969-9.056-11.828-9.056-12.046-.008-24.1.018-36.146-.008-2,0-4.01-.175-6.319-.288v-28.372c10.512,1.352,20.631,3.077,30.829,3.818,7.243.531,13.972-2.022,18.077-8.4,1.438-2.24,2.11-6.18,1.1-8.42-.889-1.961-4.524-3.051-7.147-3.757-1.987-.531-4.314.035-6.468.305a58.9,58.9,0,0,1-33.889-5.255c-1.1-.532-2.65-1.5-2.781-2.441-.837-5.831-4.628-9.082-11.035-12.133,2.476-1.15,3.774-2.17,5.16-2.319,12.569-1.368,23.682-11.13,26.305-23.307,2.824-13.083-2.571-26.167-13.528-32.756-11.505-6.93-25.966-5.927-35.736,2.493-17.7,15.236-13.04,42.893,8.638,51.705,1.307.531,2.938,2.03,3.051,3.207.1,1.116-1.369,2.72-2.537,3.548-3.661,2.615-6.04,5.883-6.049,10.477q-.052,31.365.026,62.748c.035,6.171,4.594,10.555,10.817,10.712,4.21.113,8.42.035,12.639.035h39.711c.523,1.77.985,3.269,1.395,4.785q6.694,24.738,13.371,49.482c.863,3.225,2.519,5.648,6.128,5.727,5.666.122,11.331.174,17-.026a5.527,5.527,0,0,0,5.639-5.535C2080.859,5432.894,2078.793,5430.706,2075.368,5430.043Z" transform="translate(-1930.356 -5131.827)" fill="#611735"/>
  <path id="Path_1429" data-name="Path 1429" d="M2173,5355.882c.253-.436.5-.863.741-1.3h58.913c-.009-.444-.009-.889-.017-1.333h-192c-.009.523-.026,1.037-.044,1.56h59.357c.209.288.418.584.628.88-4.689,3.644-4.5,8.638-4.393,13.571.122,6.38.488,12.76.462,19.132-.087,20.9-.41,41.794-.427,62.688-.009,8.629,5.029,13.371,13.658,13.4q26.567.052,53.134,0c9.832-.026,14.329-4.594,14.338-14.425q.013-28.75.009-57.492c0-7.531-.052-15.062-.009-22.6C2177.374,5364.86,2177.792,5359.683,2173,5355.882Zm1.822,95.355c-.017,6.764-3.853,10.59-10.547,10.617q-27.443.117-54.895,0c-6.9-.026-10.564-3.792-10.607-10.991-.1-14.085-.035-28.171-.035-42.265q-.013-20.892,0-41.794c.017-8.149,3.922-12.063,11.993-11.994q26.972.209,53.936.523c6.895.079,10.181,3.19,10.2,10.1Q2174.955,5408.345,2174.82,5451.237Z" transform="translate(-1940.711 -5147.33)" fill="#611735"/>
  <path id="Path_1430" data-name="Path 1430" d="M2083.375,5496.48a5.25,5.25,0,0,1-.505.558A3.95,3.95,0,0,0,2083.375,5496.48Z" transform="translate(-1946.139 -5165.717)" fill="#611735"/>
  <path id="Path_1431" data-name="Path 1431" d="M2084.27,5494.99a11.248,11.248,0,0,1-.61,1.045A8.371,8.371,0,0,0,2084.27,5494.99Z" transform="translate(-1946.24 -5165.526)" fill="#611735"/>
  <path id="Path_1432" data-name="Path 1432" d="M2084.377,5494.93a.033.033,0,0,0-.009.026.032.032,0,0,0-.009.026l.017.043a.264.264,0,0,0,.044-.061c-.018,0-.026-.009-.044-.009Z" transform="translate(-1946.33 -5165.518)" fill="#611735"/>
  <path id="Path_1433" data-name="Path 1433" d="M2143.69,5490.558a2.39,2.39,0,0,1,.314-.113c-.043-.122-.1-.243-.139-.375C2143.8,5490.235,2143.751,5490.393,2143.69,5490.558Z" transform="translate(-1953.947 -5164.894)" fill="#611735"/>
  <path id="Path_1434" data-name="Path 1434" d="M2147.83,5494.886l.1.131a1.98,1.98,0,0,1,.035-.227c-.035.026-.079.052-.122.087C2147.839,5494.877,2147.839,5494.877,2147.83,5494.886Z" transform="translate(-1954.478 -5165.5)" fill="#611735"/>
  <path id="Path_1435" data-name="Path 1435" d="M2084.43,5494.966c.68.122,1.36.252,2.066.383-.706-.14-1.377-.27-2.049-.41C2084.447,5494.949,2084.439,5494.958,2084.43,5494.966Z" transform="translate(-1946.339 -5165.52)" fill="#611735"/>
</svg>
