<svg xmlns="http://www.w3.org/2000/svg" width="266.95" height="347.271" viewBox="0 0 266.95 347.271">
  <g id="Group_2399" data-name="Group 2399" transform="translate(-3997.079 -4423.017)">
    <path id="Path_1952" data-name="Path 1952" d="M4162.4,4546.906c-.215,3.578-.6,7.143-.928,10.708-.2,2.084-.135,4.162-2.588,5.385-.8.393-1.131,2.3-1.168,3.528-.142,4.187-.055,8.379-.055,12.822H4143.74c0-4.13.012-8.292-.006-12.453-.019-3.9-1.033-4.955-4.862-4.973q-8.142-.037-16.29.006c-3.46.019-4.647,1.168-4.647,4.573q-.027,26.73.006,53.46c0,3.657,1.026,4.622,4.825,4.647,4.592.024,9.184.006,14,.006V4657.4H4030.181a64.76,64.76,0,0,1-1.678-19.947c1.531-26.635,15.706-44.043,42.168-51.542a8.33,8.33,0,0,0,6.344-6.1c4.917-14.746,8.4-29.726,8.28-45.382a7.421,7.421,0,0,1,.1-1c4.567-1.905,9.085-3.56,13.388-5.643a31.5,31.5,0,0,0,12.829-10.7,20.849,20.849,0,0,0,3.565-14.286,5.287,5.287,0,0,0-2.957-4.6c-2.17-1.125-4.167-2.582-7.032-4.4.817,1.887,1.31,2.975,1.758,4.082,3.258,7.991,1.826,14.851-5.157,19.885a67.64,67.64,0,0,1-14.3,7.524c-10.419,4.2-21.072,7.8-31.546,11.864-14.107,5.477-28.141,11.157-42.205,16.744-.553.222-1.131.412-2.281.83-1.961-3.3-3.842-6.664-5.932-9.884a8.379,8.379,0,0,0-3.1-3.031c-3.744-1.776-5.667-4.45-5.3-8.071.381-3.78,2.852-6.061,7.051-6.964a6.51,6.51,0,0,0,3.448-2.078c5.5-6.854,10.813-13.855,16.271-20.734,7.051-8.888,14.488-17.488,21.139-26.666,2.926-4.05,4.4-9.177,6.35-13.885.553-1.346.848-2.317,2.625-2.256,15.822.553,31.159,3.079,45.2,10.935q21.289,11.922,26.666,35.763c.159.7.313,1.4.516,2.09.59,1.937,1.9,2.994,3.916,2.533a2.978,2.978,0,0,0,2.453-3.946c-1.856-5.926-3.473-12-6.091-17.6-2.226-4.745-5.711-8.9-8.84-13.621,6.4-4.789,13.167-9.848,20.021-14.98a78.191,78.191,0,0,1,18.213,29.727C4162.3,4509.871,4163.521,4528.256,4162.4,4546.906Z" transform="translate(0 -14.699)" fill="#611735"/>
    <path id="Path_1953" data-name="Path 1953" d="M4331.3,4848.3c-.068,12.6-.043,25.2-.062,37.8a7.46,7.46,0,0,1-.246,1.3H4171.67v-41.1h3.639q47.007-.01,94.018-.006c1.027,0,2.311.338,3.012-.147,1.125-.781,2.569-2.121,2.563-3.208s-1.494-2.373-2.606-3.19c-.6-.449-1.783-.135-2.7-.135q-37.02-.01-74.053-.006h-3.123c3.762-4.094,7.782-7.788,10.984-12.091,5.342-7.18,7.622-15.521,7.616-24.489q-.028-35.951-.006-71.9v-3.768h80.525v3.615q.01,35.332.006,70.671c.006,23.253,14.433,40.305,37.435,44.2C4330.514,4846.1,4331.313,4846.521,4331.3,4848.3Z" transform="translate(-67.27 -117.261)" fill="#611735"/>
    <path id="Path_1954" data-name="Path 1954" d="M4323.311,4636.339v48.746H4204.92V4636.21h12.134v11.9c.006,4.764.94,5.692,5.766,5.7,5.533.006,11.065.019,16.591,0,3.959-.018,5.059-1.143,5.083-5.163.019-4.069,0-8.133,0-12.355h39.347c0,4.253-.019,8.415.006,12.583.025,3.891,1.033,4.911,4.912,4.93,5.637.03,11.268.019,16.9.006,4.53-.012,5.44-.9,5.446-5.329.013-3.977.006-7.948.006-12.141Z" transform="translate(-80.082 -82.144)" fill="#611735"/>
    <path id="Path_1955" data-name="Path 1955" d="M4145.826,4867.113c-6.958,10.813-16.548,16.6-29.038,17.531-4.875.369-5.379.812-5.416,5.7-.019,2.87-.03,5.735-.062,8.605a3.8,3.8,0,0,1-.252.824h-77.746c0-8.151-.068-16.216.111-24.274.012-.72,1.457-1.74,2.422-2.053,10.3-3.393,19.5-8.593,26.881-16.609,2.963-3.215,5.286-7.008,8.083-10.4a5.13,5.13,0,0,1,3.3-1.906c15.982-.123,31.964-.1,47.946-.03a3.307,3.307,0,0,1,2.514,1.137A61.88,61.88,0,0,0,4145.826,4867.113Z" transform="translate(-13.956 -162.379)" fill="#611735"/>
    <path id="Path_1956" data-name="Path 1956" d="M4098,4945.642v25.971h-3.294q-42.073,0-84.146,0c-7.6,0-10.874-3.658-11.279-11.311-.633-12.067,4.087-14.894,14.722-14.765,26.708.319,53.429.1,80.15.1Z" transform="translate(-0.828 -201.328)" fill="#611735"/>
    <rect id="Rectangle_2033" data-name="Rectangle 2033" width="49.188" height="25.485" transform="translate(4059.404 4649.835)" fill="#611735"/>
    <path id="Path_1957" data-name="Path 1957" d="M4190.425,4445.544c-6.4,4.783-12.762,9.571-19.185,14.279a2.329,2.329,0,0,1-2.078.044c-7.3-4.217-14.562-8.521-22.092-12.958,2.656-5.133,5.667-11.028,8.791-16.861a2.346,2.346,0,0,1,1.905-.891C4166.113,4430.011,4184.179,4439.09,4190.425,4445.544Z" transform="translate(-57.792 -2.364)" fill="#611735"/>
    <path id="Path_1958" data-name="Path 1958" d="M4126.387,4425c-3.117,6.024-6.079,11.814-9.141,17.55a2.144,2.144,0,0,1-1.789.621c-9.073-1.328-18.134-2.723-27.287-4.119q-.654-7.137-1.4-15.2A146.159,146.159,0,0,1,4126.387,4425Z" transform="translate(-34.558)" fill="#611735"/>
  </g>
</svg>
