<svg xmlns="http://www.w3.org/2000/svg" width="233.412" height="189.005" viewBox="0 0 233.412 189.005">
  <g id="Group_2197" data-name="Group 2197" transform="translate(-4697.543 -2035.722)">
    <path id="Path_1086" data-name="Path 1086" d="M2561.776,5380.847c-.333-7.407-2.739-15.9-7.13-21.667-7.008-9.192-7.651-19.116-8.294-29.541-.166-2.76.144-5.8-.932-8.183-1.186-2.606-3.293-5.445-5.755-6.664-3.682-1.83-8.017-2.34-12-3.383-4.591,9.725-20.736,11.177-28.232-.466-4.89,2-11.222,2.85-14.615,6.465-3.183,3.393-3.26,9.691-4.9,15.413-1.83-5.977-2.041-12.364-5.334-15.8-3.4-3.549-9.8-4.214-14.814-6.122-5.167,10.79-21.911,11.167-28.242.056-4.946,1.929-11.333,2.684-14.726,6.265-3.249,3.4-3.382,9.769-4.89,14.836-.388.055-.776.1-1.153.144-.355-2.728-.211-5.666-1.2-8.161-1.264-3.216-2.805-7.807-5.356-8.738-5.4-1.974-11.887-7.319-17.121,1.131-.865,1.386-3.493,2.029-5.422,2.351-7.418,1.22-14.049.123-17.8-7.429-3.371.909-6.365,1.9-9.437,2.517-5.988,1.209-8.66,4.758-8.97,10.823-.366,6.82-1.1,13.628-2.085,20.381a18.579,18.579,0,0,1-3.027,7.961c-6.842,9.381-10.944,19.693-11.21,31.3q-.366,16.068.022,32.146c.621,28.165,24.251,51.816,52.416,51.961,42.68.244,85.36.155,128.04-.033,24.262-.123,46.572-16.933,50.775-40.707C2563.084,5412.46,2562.486,5396.448,2561.776,5380.847Zm-16.622,34.519c-.366,5.9-2.317,11.7-3.637,17.887-6.11-1.686-10.855-2.983-15.59-4.292-9.381,10.624-20.614,10.689-27.622.6-15.036-.078-21.212,7.684-19.028,22.953-.632-.455-1.253-.9-1.885-1.353-1.4-5.478-1.331-12.22-4.635-16.068-3.26-3.8-9.924-4.69-14.881-6.764-8.316,11.288-21.057,11.343-27.677,1.165-14.692-.156-21.113,7.484-19.327,22.754l-2.1-.9a44.768,44.768,0,0,1-.987-5.234c-.943-12.02-1.2-12.363-13.018-15.69q-2.662-.748-5.278-1.485c-6.941,11.188-22.931,9.869-28.032,0-3.493.9-7.03,1.808-11.61,2.982-1.176-4.845-3.027-9.37-3.249-13.982-.532-11.066-.754-22.177-.266-33.244.887-20.1,16.134-35.018,36.337-35.162q63.2-.433,126.4.021c20.792.167,36.027,16.189,36.249,36.992C2545.409,5396.16,2545.764,5405.8,2545.154,5415.365Z" transform="translate(2368.578 -3243.868)" fill="#1e2639"/>
    <path id="Path_1087" data-name="Path 1087" d="M2443.294,5314.025c-4.236,4.369-9.846,4.6-14.459.9-6.742-5.4-8.882-18.441-4.447-25.87,2.639-4.425,6.287-6.575,12.142-6.077,6.908.233,11.155,3.925,12.308,11.554C2449.937,5301.828,2448.595,5308.569,2443.294,5314.025Z" transform="translate(2378.713 -3246.916)" fill="#1e2639"/>
    <path id="Path_1088" data-name="Path 1088" d="M2511.857,5298.771c-1.929,4.668-3.194,9.78-5.955,13.894-4.3,6.42-11.732,6.409-17.054.8-5.267-5.567-6.953-17.221-3.415-23.941,2.739-5.2,7.23-7.074,12.907-6.72a11.882,11.882,0,0,1,11.011,7.907c.931,2.35,1.12,5,1.641,7.517C2511.281,5298.406,2511.569,5298.594,2511.857,5298.771Z" transform="translate(2385.408 -3246.931)" fill="#1e2639"/>
    <path id="Path_1085" data-name="Path 1085" d="M2388.958,5298.838c-2.062,4.779-3.427,10.024-6.332,14.2-4.236,6.087-11.521,5.943-16.633.577-5.289-5.556-7.085-16.977-3.725-23.808,2.717-5.544,8.871-8.228,15.424-6.742C2383.957,5284.5,2387.694,5290.178,2388.958,5298.838Z" transform="translate(2372.018 -3246.942)" fill="#1e2639"/>
    <path id="Path_1089" data-name="Path 1089" d="M2448.2,5404.164c-1.8,4.735-2.839,9.958-5.533,14.116-4.679,7.207-13.927,7.13-18.307-.266a32.319,32.319,0,0,1-4.158-14.548c-.432-9.214,5.278-14.814,13.539-14.725C2441.958,5388.818,2447.059,5394.528,2448.2,5404.164Z" transform="translate(2378.507 -3235.395)" fill="#1e2639"/>
    <path id="Path_1090" data-name="Path 1090" d="M2509.692,5405.166c-1.874,4.5-3.083,9.47-5.788,13.417-4.7,6.864-13.328,6.477-18.13-.333a23.4,23.4,0,0,1-3.437-20.1c1.819-6.975,8.028-10.468,15.513-9.193C2504.814,5390.141,2508.806,5395.963,2509.692,5405.166Z" transform="translate(2385.178 -3235.399)" fill="#1e2639"/>
    <path id="Path_1091" data-name="Path 1091" d="M2386.925,5404.682c-2.04,4.78-3.393,10.036-6.287,14.227-4.413,6.4-12.541,6.143-17.332-.055-5.09-6.587-6.076-14.116-3.437-21.9,2.2-6.5,8.394-9.4,15.657-7.907C2381.847,5390.346,2385.639,5395.978,2386.925,5404.682Z" transform="translate(2371.788 -3235.403)" fill="#1e2639"/>
  </g>
</svg>
