<svg xmlns="http://www.w3.org/2000/svg" width="219.588" height="331.556" viewBox="0 0 219.588 331.556">
  <g id="Group_2003" data-name="Group 2003" transform="translate(-850 -9912.555)">
    <path id="Path_425" data-name="Path 425" d="M7231.441,3570c5.228-6.958,5.541-15.353.238-20.157-7.381-6.7-10.842,1.049-15.039,4.6-9.168,7.768-18.739,13.217-33.116,7.971,8.3-2.448,14.911-4.4,21.022-6.2-.977-3.277-1.823-6.186-2.688-9.075,3.829-.516,7.658-1.031,11.34-1.51-6.737-7.143-6.737-7.143-34.9-2.835,11.248-11.008,22.919-13.641,36.577-5.946-8.688-11.082-19.659-13.677-32.085-9.646-11.248,3.645-22.2,8.155-34.351,12.665,15.095-20.617,33.559-26.637,56.459-18.795,1.9.663,3.773,1.362,5.65,2.117,1.4.552,2.78,1.141,4.161,1.712,4.16,1.767,8.284,3.645,12.443,5.394.02-.037,0-.055,0-.092-.46-14.156-2.927-27.686-10.437-40.075-15.738-25.937-53.108-30.871-72.051-10.2a13.529,13.529,0,0,1-2.632,1.822c-20.065-16.881-39.413-19.311-58.54-7.64-16.917,10.309-29.25,37.259-25.531,53.366,13.843-3.222,27.539-8.155,41.529-9.223,15.665-1.2,26.821,8.892,37.167,22.256-23.582-7.345-45.046-27.392-67.873-3.589,17.433-6.958,25.662-5.781,36.485,5.946-11.781-.958-24.187-8.615-34.976,2.78,4.234.4,7.971.773,11.708,1.123-.681,2.982-1.362,5.983-2.154,9.462,5.854,1.749,12.444,3.718,21.06,6.3-17.064,5.67-27.152-2.393-37.037-11.468-6.5-5.946-13.07-3.995-14.322,4.676-.718,4.915.883,10.162,1.454,15.261.553-.111,1.1-.221,1.656-.35.607-4.713,1.216-9.426,1.951-15.059,6.978,6.259,12.1,10.843,17.011,15.242-5.339,6.664-11.156,13-15.869,20.084-6.037,9.039-6.774,18.905-1.38,28.717,7.031,12.794,14.175,25.533,21.28,38.29a3.8,3.8,0,0,0,1.085,1.417c6.149,4.124,12.335,8.192,20.065,13.309-3.976-8.1-6.773-15.555-11.008-22.053-6.186-9.462-13.456-18.243-20.213-27.355-9.094-12.3-8.817-27.778,3.24-36.707,11.486-8.487,25.109-14.119,37.774-21.022.884,1.215,1.768,2.411,2.632,3.626-3.185,3.148-5.982,6.94-9.664,9.3-7.474,4.786-15.721,8.339-23.12,13.217-13.991,9.223-13.826,21.906-.037,31.847-4.528-18.648.5-26.619,16.512-25.293a76.928,76.928,0,0,1-.515,8.983c-2.78,16.255,3.055,30.116,12.112,42.91,4,5.633,4.4,10.787.441,16.4-.755,1.049-1.6,2.485-1.491,3.645,1.547,15.776,6.13,29.527,23.6,34.46a12.434,12.434,0,0,1,4.933,2.375,66.048,66.048,0,0,1,5.578,6.572c-2.411,1.455-4.657,3.737-7.234,4.2-15.685,2.835-28.552-3.277-36.044-17.543-4.068-7.75-7.051-16.052-10.529-24.1-.755.239-1.51.5-2.265.736,2.927,9.462,4.97,19.311,8.946,28.312,7.677,17.4,21.8,25.883,40.794,26.159,7.05.11,14.1.092,21.15.037,28.423-.239,51.434-26.637,48.176-55.961-3.535,8.357-6.388,16.42-10.217,23.968-7.456,14.671-19.348,20.783-35.565,18.482-2.762-.387-5.246-2.835-7.86-4.326,2.024-2.375,3.626-5.412,6.167-6.977,5.154-3.222,11.118-5.191,16.181-8.542,6.572-4.344,14.193-27,10.512-31.055-5.486-6.057-4.29-11.1.036-17.1,8.634-11.929,14.139-24.925,11.874-40.241-.57-3.848-.093-7.842-.093-14.138,5.837,2.78,12.923,3.866,14.69,7.547,2.945,6.075,2.467,13.825,3.295,19.826,13.089-13.088,11.892-23.4-5.449-33.521-7.142-4.161-14.652-7.731-21.556-12.242-2.964-1.933-4.8-5.56-7.16-8.413.791-.792,1.563-1.583,2.355-2.375,10.7,5.136,21.869,9.5,31.976,15.61,16.881,10.2,19.458,27.3,7.694,43-7.179,9.554-14.579,19-21.1,28.975-3.534,5.412-5.449,11.855-8.137,17.912,6.866-4.4,12.813-8.155,18.685-12a6.134,6.134,0,0,0,1.584-2.154c6.406-11.4,12.389-23.084,19.31-34.148,7.6-12.168,7.438-23.71-.9-35.05-4.621-6.3-9.922-12.095-14.451-17.562,5.634-4.989,10.953-9.7,18.114-16.034C7230.926,3561.241,7231.2,3565.788,7231.441,3570Zm-53.867-68.329c.01-.043.01-.087.019-.129-.008.035-.008.07-.015.106Zm-.309,1.119-.02.048c.09-.267.171-.532.239-.8C7177.412,3502.3,7177.338,3502.539,7177.266,3502.794Zm-66.161,7.989q-1.326-1.408-2.319-2.651c-.35-.423-.645-.828-.92-1.214-.147-.2-.276-.387-.405-.589-3.829-5.8-1.271-8.854,8.266-11.284a23.3,23.3,0,0,0-2.136-1.565c-7.879-5.118-17.139-3.976-27.318,3.9-8.155,6.314-15.905,13.125-22.366,18.592-.442.35-.847.7-1.27,1.049v.019h-.02a22.779,22.779,0,0,1,.792-10.217c.147-.5.294-1.013.461-1.509a37.351,37.351,0,0,1,2.65-6.13v-.018a39.843,39.843,0,0,1,2.816-4.547,42.625,42.625,0,0,1,3.5-4.345v-.019c.424-.46.865-.92,1.326-1.362q.662-.662,1.38-1.325a39.2,39.2,0,0,1,6.278-4.731c7.6-4.658,17.267-7.069,28.717-4.934.993.185,2.007.423,3,.7,1.214.294,2.43.681,3.626,1.086,1.087.368,2.153.792,3.2,1.234a.018.018,0,0,0,.019.018c1.05.424,2.08.9,3.093,1.417a34.868,34.868,0,0,1,8.265,5.541,12.476,12.476,0,0,1,.994.994c5.836,6.2,5.578,13.788-.367,23.619h19.494c-5.964-10.069-6.074-17.783-.074-24.079a23.665,23.665,0,0,1,2.21-2.025,41.528,41.528,0,0,1,7.511-4.657,45.617,45.617,0,0,1,9.83-3.572,41.477,41.477,0,0,1,4.859-.865h.019a39.542,39.542,0,0,1,32.2,10.732c8.413,8.045,13.77,20.047,13.622,34.442-.405-.386-.81-.773-1.2-1.16-2.007-1.988-3.922-4.123-5.8-6.277-.736-.865-1.49-1.749-2.228-2.614a.018.018,0,0,1-.019-.019c-.735-.865-1.491-1.749-2.227-2.614-.387-.442-.756-.884-1.142-1.326-.755-.865-1.51-1.712-2.265-2.559-8.468-9.352-17.911-16.917-33.024-14.211a43.212,43.212,0,0,0-6.664,1.749.018.018,0,0,1,.019.019c3.5,2.283,8.081,4.216,9.683,5.872a1.742,1.742,0,0,1,.368.5l0,.008a2.671,2.671,0,0,0-.372-.5,2.682,2.682,0,0,1,.405.571l.02.041a1.154,1.154,0,0,1,.128.549,9.225,9.225,0,0,1-.548,2.505c-.046.127-.1.252-.148.377-.1.264-.212.527-.333.788-.083.177-.168.355-.258.532-.16.318-.32.635-.5.952.151-.262.283-.527.422-.79-.026.049-.046.1-.072.145-.11.221-.239.442-.35.645-1.215,2.172-2.872,4.344-4.124,6.5a2.53,2.53,0,0,1-.4.5,3.192,3.192,0,0,1-.258.239l-.276.221c-.184.128-.368.276-.552.423h-.019c-.185.128-.369.276-.552.423-.627.552-1.253,1.067-1.878,1.6-.645.534-1.271,1.031-1.915,1.491a64.757,64.757,0,0,1-7.326,4.933C7141.921,3531.548,7127.175,3527.867,7111.1,3510.784Zm66.616-10.368a1.078,1.078,0,0,0-.092-.392l0,.009c.02.018.037.037.02.055a.3.3,0,0,1,.055.166A.672.672,0,0,1,7177.721,3500.416Zm-.855,3.4c-.024.055-.046.111-.07.166C7176.819,3503.925,7176.841,3503.869,7176.865,3503.814Zm-68.1,51.592c-.257-.147-.516-.294-.773-.423-.2-.11-.386-.2-.589-.294-.294-.129-.57-.258-.865-.368-.11-.037-.239-.092-.35-.129a8.119,8.119,0,0,0-.938-.332.427.427,0,0,1-.2-.055c-.312-.092-.644-.166-.976-.239-.091-.018-.165-.037-.238-.055-.387-.092-.792-.166-1.179-.221a.14.14,0,0,1-.074-.019c-.46-.055-.9-.11-1.361-.146-.387-.037-.774-.056-1.179-.092-.479,0-.957-.019-1.437-.019-.423,0-.864.019-1.288.037-.5.018-1.013.037-1.527.074-.461.037-.9.073-1.362.128-.479.037-.957.092-1.437.147-.772.092-1.564.2-2.338.294-.367.037-.718.073-1.085.129q1.352-.58,2.65-1.1c.718-.276,1.417-.552,2.08-.773.772-.294,1.51-.534,2.246-.754s1.454-.423,2.135-.608c.7-.184,1.362-.35,2.025-.479.662-.147,1.289-.257,1.914-.35a23.877,23.877,0,0,1,3.5-.276,17.2,17.2,0,0,1,2.448.184,11.719,11.719,0,0,1,2.1.516,10.009,10.009,0,0,1,1.841.884,7.492,7.492,0,0,1,1.509,1.233,1.326,1.326,0,0,1,.167.185,9.779,9.779,0,0,1,2.227,4.639c.056.258.092.534.147.81.019.166.036.331.056.5a24.074,24.074,0,0,1-.111,6.148,24.45,24.45,0,0,0-3.957-6.056c-.239-.276-.5-.534-.736-.773q-.524-.5-1.05-.938c-.257-.2-.516-.405-.773-.589C7109.577,3555.921,7109.172,3555.645,7108.767,3555.406Zm39.376,143.973a49.386,49.386,0,0,0-12.443.074c-13.053,1.6-27.374-10.88-25.735-22.146,9.866,6.056,21.85,2.393,32.9,7.032,8.044,3.368,20.765-4.382,31.791-7.272C7174.173,3690.083,7160.514,3701.072,7148.143,3699.379Zm-38.879-61.724c7.474-10.971,19.237-13.272,31.516-13.549,13-.294,25.367,1.933,34.461,13.549Zm71.333-.092c-9-15.168-21.851-23.213-38.492-23.14s-29.748,7.75-38.437,23.471c-6.938-25.717-1.472-38.6,15.445-34.663-2.779,5.1-5.485,10.087-8.983,16.531,21.28-16.181,41.566-15.942,63.1-1.031-2.927-5.6-5.356-10.291-7.879-15.113C7182.456,3600.378,7186.966,3610.116,7180.6,3637.563Zm-5.872-46.85c-1.565,4.4-3.663,7.6-9.5,4.731-2.1-1.031-5.377.423-8.119.57-8.892.516-17.8,1.381-26.674,1.2-4.64-.092-8.854-6.038-14.23-.938-.367.331-5.19-2.541-6.276-4.75-5.707-11.652,3.129-23.654,19.126-24.446-1.288,5.707-2.484,11.063-3.7,16.4.663.386,1.345.773,2.007,1.159,2.356-4.123,5.32-8.025,6.866-12.425,1.16-3.314.442-7.253.59-10.917.2-5.062.423-10.529,7.308-10.456,6.922.073,7.124,5.467,6.9,10.585-.387,9.075.275,17.616,9.866,23.083-1.178-6.111-2.245-11.579-3.35-17.285C7170.656,3567.7,7179.032,3578.563,7174.725,3590.713Zm7.179-37.664c-.606.037-1.214.11-1.822.2-.238.037-.479.092-.718.147a12.377,12.377,0,0,0-3.369,1.233,7.791,7.791,0,0,0-.957.608c-.165.11-.312.221-.479.35a9,9,0,0,0-.9.792,16.863,16.863,0,0,0-3.847,6.24c-.11.294-.222.571-.313.865-.2.589-.405,1.214-.588,1.859-1.031-1.325-2.025-2.65-3.057-3.976a22.037,22.037,0,0,0,.534-2.412c.147-.847.275-1.693.479-2.5.056-.221.092-.423.129-.626a7.353,7.353,0,0,1,.331-1.086,4.06,4.06,0,0,1,.442-.994,1.786,1.786,0,0,1,.275-.442,3.009,3.009,0,0,1,.645-.718,16.066,16.066,0,0,1,6.277-3.092c.405-.111.828-.185,1.252-.258,6-.92,12.167,1.675,18.316,4.308-3.885.073-8.008-.663-11.837-.534C7182.438,3553.013,7182.161,3553.031,7181.9,3553.05Z" transform="translate(-6182.363 6512.712)" fill="#1b3837"/>
    <path id="Path_426" data-name="Path 426" d="M7145.98,3501.465l.019-.11c-.019,0-.036-.019-.056-.019a.994.994,0,0,1,.02.24A.419.419,0,0,0,7145.98,3501.465Z" transform="translate(-6101.154 6541.673)" fill="#1b3837"/>
    <path id="Path_427" data-name="Path 427" d="M7250.167,3557.84c-1.8-.865-3.534-3.847-3.663-5.948-1.067-20.321-3.148-40.312-15.757-57.138,17.857-17.691,21.113-40.131,9.387-64.285-1.417,3.849-2.595,7.273-3.92,10.64-8.3,21.3-30.963,33.1-53.329,31.663-24.023-1.562-48.268.167-72.437.407-3.259.037-6.775.46-9.775-.552-19.954-6.685-35.437-18.041-40.021-40.167-.129-.554-1.086-.92-2.338-1.917-6,23.509-11.211,45.931,10.714,64.192-13.512,18.721-15.426,39.983-15.629,61.981-8.522,2.172-12.978,7.418-13.254,16.31-.442,14.6,8.026,34.829,16.457,39.965-2.927-7.161-6.829-14.856-9.258-22.974-4.953-16.66-1.4-22.293,15.406-26.161,0-10.289-.534-20.71.11-31.072,1.051-17.177,7.014-32.344,24.042-39.247,19.31-7.844,39.155-11.247,57.177,3.866,4.4,3.718,7.915,3.387,11.912-.258,10.362-9.5,22.843-10.622,36.115-9.333a52.344,52.344,0,0,1,42.947,73.08l-.007-.007c0,.018,0,.018-.019.037l0,.006-.016-.015a.4.4,0,0,0-.057.147.439.439,0,0,1-.016.108,1.3,1.3,0,0,0,.09-.237c.151.134.293.305.435.457.19.2.38.39.578.611.994,1.178,1.951,2.485,3.222,2.888,15.04,4.807,17.545,8.6,13.383,23.639-2.264,8.153-5.762,15.958-8.707,23.931a58.629,58.629,0,0,0,15.721-37.277C7260.11,3567.576,7257.642,3561.467,7250.167,3557.84Z" transform="translate(-6190.128 6482.085)" fill="#1b3837"/>
  </g>
</svg>
