<svg xmlns="http://www.w3.org/2000/svg" width="222.137" height="251.979" viewBox="0 0 222.137 251.979">
  <g id="Group_2407" data-name="Group 2407" transform="translate(-4568.065 -2470.877)">
    <path id="Path_1968" data-name="Path 1968" d="M4790.2,2570.39c-.438-16.734-4.724-32.447-13.6-46.615-20.913-33.376-51.847-49.9-90.588-52.894a6.766,6.766,0,0,0-1.06.14c.9.359,1.467.581,2.027.807,15.86,6.406,30.365,14.989,42.619,27.039,17.979,17.674,26.866,38.991,25.313,64.374-.113,1.875-.32,3.744-.463,5.354,1.653-1.534,3.312-3.241,5.144-4.742,4.6-3.765,9.779-5.314,15.617-3.433,5.2,1.677,9.049,5.241,12.649,9.264q-48.684,57.327-97.238,114.49a2.982,2.982,0,0,1,.414-1.43q18.512-35.108,37.034-70.208c7.189-13.629,14.356-27.273,21.609-40.866.672-1.263,1.713-2.3,1.583-3.878a6.489,6.489,0,0,1,.11-1.208c2.325-21.862-3.15-41.447-17.309-58.385-12.787-15.3-29.124-25.624-47.358-33.2a1.49,1.49,0,0,0-.487-.036c1.771,2.316,3.585,4.5,5.192,6.833,6.45,9.344,10.464,19.768,13.3,30.676,4.714,18.146,6.248,36.644,5.91,55.338-.009.663,0,1.33,0,1.863,2.515-2.222,4.824-4.6,7.46-6.525,8.154-5.962,16.956-5.853,25.045.192,1.738,1.3,3.241,2.907,4.909,4.307.846.709.73,1.3.259,2.195q-31.564,59.774-63.053,119.584a1.953,1.953,0,0,1-2.77,1.078q13.034-61.1,26.062-122.193c-.131.027-.262.058-.393.085a5.91,5.91,0,0,1-.712-1.768c-.335-7.6-.4-15.215-.956-22.793a160.469,160.469,0,0,0-7.28-38.306c-3.458-10.543-8.169-20.419-15.729-28.728-1.083-1.19-2.112-2.435-3.25-3.753a89.122,89.122,0,0,0-13.538,24.656c-7.375,20.663-7.871,41.788-4.066,63.163.648,3.631,1.872,7.158,2.49,10.79.633,3.743.853,7.554,1.245,11.337q2.652,25.571,5.3,51.141,2.881,27.766,5.774,55.526a9.35,9.35,0,0,1,0,.965c-.143.061-.286.125-.432.189a13.533,13.533,0,0,1-.9-1.485q-26.1-58.194-52.182-116.4c-1.44-3.211-1.446-3.229,1.038-5.731,4.2-4.222,9.012-7.241,15.151-7.539,5.7-.28,10.615,1.881,15.1,5.153,2.04,1.485,3.917,3.186,5.926,4.836a4.459,4.459,0,0,0-.073-.6,136.9,136.9,0,0,1-3.208-46.962,100.5,100.5,0,0,1,13.282-41.213c1.44-2.426,3.019-4.766,4.638-7.314-.475.164-.8.256-1.114.386a98.47,98.47,0,0,0-21.591,12.354c-23.605,17.887-34.608,41.6-32.715,71.2.2,3.174.587,6.337.882,9.49-.618.3-1.19.578-1.823.885q27.579,61.536,55.055,122.853l-.639.4q-51.146-60.92-102.279-121.821c4.349-4.876,13.51-9.551,20.55-10.357,10.768-1.233,19.068,3.661,26.135,10.887-.42-5.427-1.072-10.869-1.217-16.326-.475-17.738,3.887-34.164,14-48.87,10.327-15.008,24.379-25.441,40.856-32.825.527-.234,1.041-.487,1.561-.73a3.281,3.281,0,0,0-1.549-.189c-6.075.81-12.238,1.22-18.2,2.532-27.815,6.13-50.682,20.191-67.491,43.413a93.846,93.846,0,0,0-18.1,53.795c-.015.505,0,1.007,0,1.783.8-.752,1.309-1.229,1.914-1.8q50.78,60.482,101.505,120.9c-.426.234-.681.386-.946.521-4.571,2.359-6.955,6.044-6.879,11.252.034,2.282,0,4.565.006,6.848.006,6.793,4.383,11.888,11.188,12.475a92.537,92.537,0,0,0,12.46.049,12.006,12.006,0,0,0,11.358-12.646,64.689,64.689,0,0,1,0-6.693c.326-6.51-4.349-11.024-9.693-12.29-.362-.085-.718-.2-1.251-.356q50.812-59.824,101.354-119.332c.386.307.672.539,1.111.892C4790.2,2571.482,4790.209,2570.934,4790.2,2570.39ZM4680.6,2689.4a12.136,12.136,0,0,1-.438,1.312c-.152-.012-.3-.021-.457-.03-.085-.506-.2-1.008-.256-1.516q-2.694-25.785-5.375-51.573-2.059-19.813-4.109-39.627c-.961-9.228-1.92-18.453-2.931-27.672a2.661,2.661,0,0,1,.913-2.523c4.727-4.343,9.949-7.7,16.523-8.324,7.043-.66,12.838,2.207,18.045,6.6,3.755,3.168,3.719,3.177,2.69,8q-11.194,52.4-22.367,104.8C4682.087,2682.362,4681.354,2685.883,4680.6,2689.4Z" fill="#5e1822"/>
  </g>
</svg>
