<svg xmlns="http://www.w3.org/2000/svg" width="107.471" height="263.547" viewBox="0 0 107.471 263.547">
  <g id="Group_2201" data-name="Group 2201" transform="translate(-906 -13521.473)">
    <path id="Path_1053" data-name="Path 1053" d="M2741.728,6078.735c-10.232,36.968-18.966,74.158-20.042,112.745,0,.359-.3.718-.606,1.411h-64.644c-2.994-20.958-5.3-41.582-9.068-61.935-3.143-16.949-7.831-33.626-12.286-50.3-1.175-4.43-.606-7.521,1.968-11.3,16.43-23.977,31.437-48.782,40.221-76.743,2.313-7.387,3.192-15.217,4.863-22.826a30.568,30.568,0,0,1,1.831-4.64c.606.148,1.213.285,1.818.434.1,1.93.248,3.872.26,5.8.038,33.6.124,67.192-.049,100.782-.012,2.375-1.534,5.085-3.093,7.053-2.969,3.723-3.848,7.225-.557,11.035a7.372,7.372,0,0,0,10.962.384c3.452-3.539,3.2-7.176.272-11.049-1.361-1.781-2.957-4.046-2.957-6.087-.148-34.84-.062-69.666.013-104.494a49.94,49.94,0,0,1,.853-5.467c1.608,2.7,2.8,3.8,2.882,4.985,1.844,24.483,12.458,45.875,24.039,66.771,6.755,12.211,14.809,23.692,21.973,35.693A11.078,11.078,0,0,1,2741.728,6078.735Z" transform="translate(-1728.498 7557.932)" fill="#1e2639"/>
    <rect id="Rectangle_1994" data-name="Rectangle 1994" width="83.844" height="26.402" transform="translate(917.868 13758.617)" fill="#1e2639"/>
  </g>
</svg>
