<svg xmlns="http://www.w3.org/2000/svg" width="287.236" height="331.773" viewBox="0 0 287.236 331.773">
  <g id="Group_2001" data-name="Group 2001" transform="translate(-6925.298 -3657.965)">
    <path id="Path_385" data-name="Path 385" d="M7005.427,3669.8c-.023.021-.052.041-.075.065.041,0,.083-.01.123-.016,0-.018.011-.035.014-.055C7005.468,3669.8,7005.447,3669.8,7005.427,3669.8Zm-11.985,4.968.029.049.012-.007.146-.075C6993.567,3674.749,6993.5,3674.759,6993.441,3674.772Z" transform="translate(17.082 2.966)" fill="#1b3837"/>
    <path id="Path_386" data-name="Path 386" d="M7042.571,3728.1c-.028.007-.055.017-.083.025l.024.016.007.008c.02-.013.039-.027.061-.045l.015-.01C7042.587,3728.1,7042.577,3728.1,7042.571,3728.1Zm0,0c-.028.007-.055.017-.083.025l.024.016.007.008c.02-.013.039-.027.061-.045l.015-.01C7042.587,3728.1,7042.577,3728.1,7042.571,3728.1Zm0,0c-.028.007-.055.017-.083.025l.024.016.007.008c.02-.013.039-.027.061-.045l.015-.01C7042.587,3728.1,7042.577,3728.1,7042.571,3728.1Zm0,0c-.028.007-.055.017-.083.025l.024.016.007.008c.02-.013.039-.027.061-.045l.015-.01C7042.587,3728.1,7042.577,3728.1,7042.571,3728.1Zm0,0c-.028.007-.055.017-.083.025l.024.016.007.008c.02-.013.039-.027.061-.045l.015-.01C7042.587,3728.1,7042.577,3728.1,7042.571,3728.1Zm0,0c-.028.007-.055.017-.083.025l.024.016.007.008c.02-.013.039-.027.061-.045l.015-.01C7042.587,3728.1,7042.577,3728.1,7042.571,3728.1Zm0,0c-.028.007-.055.017-.083.025l.024.016.007.008c.02-.013.039-.027.061-.045l.015-.01C7042.587,3728.1,7042.577,3728.1,7042.571,3728.1ZM7155.4,3897.827c-5.4-3.981-11.555-6.208-17.973-7.927-5.646-1.51-11.291-3.078-16.809-4.989-3.738-1.291-7.206-3.344-10.886-4.838-4.92-2-9.925-3.786-15.01-5.709.311-.276.768-.659,1.192-1.069,4.537-4.38,9.263-8.59,13.555-13.2,5.74-6.163,9.871-13.479,13.5-21.03a124.768,124.768,0,0,0,4.78-12c1.534-4.285.749-8.783.915-13.195.063-1.613.353-3.215.562-5.016l3.136,1.19a20.638,20.638,0,0,0,8.015-14.21,103.727,103.727,0,0,0-.152-27.563,92.4,92.4,0,0,0-3.75-13.762c-.632-1.979-2.416-2.156-3.915-.683-.523.509-.9,1.168-1.384,1.722-.641.734-1.328,1.431-2.336,2.508-.476-3.957-1.525-7.277,1.144-10.4a8.785,8.785,0,0,0,2.409-7.083,45.242,45.242,0,0,0-2.415-9.509,31.767,31.767,0,0,1-2.581-10.166c-.508-8.931-3.679-16.957-8.412-24.391-2.712-4.261-5.631-8.4-8.678-12.427-2.835-3.744-5.439-7.729-9.413-10.486a12.944,12.944,0,0,1-2.7-2.58,30.343,30.343,0,0,0-11.49-8.886c-9.884-4.474-20.258-5.016-30.747-3.164-6.247,1.1-12.345,3.02-18.547,4.4a83.107,83.107,0,0,1-10.4,1.691,8.613,8.613,0,0,0-5.591,2.154,16.171,16.171,0,0,1-6.187,3.731,4.918,4.918,0,0,0-1.538.714c-.25.208-.246.714-.341,1.107l3.006-.308c-.635,2.873-1.318,5.958-2,9.047.161.042.321.083.483.123,1.167-4.763,3.054-9.146,6.713-12.56a8.394,8.394,0,0,1,6.158-2.412,17.505,17.505,0,0,0,5.992-.892c4.855-1.708,9.748-1.274,14.648-.641,6.427.833,12.788,2.032,18.758,4.731,1.176.533,2.33,1.111,3.5,1.665.076-.154.151-.311.225-.465-3.016-1.414-5.979-2.961-9.071-4.2-2.255-.894-4.7-1.3-7.008-2.077a7.19,7.19,0,0,1-1.869-1.445,8.54,8.54,0,0,1,1.661-1.48,18.6,18.6,0,0,1,7.923-1.651c9.122-.342,16.563,3.059,22.917,9.438,4.772,4.8,9.943,9.245,13.551,15.041a93.9,93.9,0,0,1,7,12.816c1.373,3.26,2.46,6.885,1.386,10.622-.831,2.881-1.828,3.476-4.786,3.9a116.252,116.252,0,0,0-14.06,2.531c-14.842,4.034-29.613,8.337-44.4,12.57a3.7,3.7,0,0,0-1.182.742c-.1.083-.2.161-.3.232.323-.095.649-.187.976-.284h.006q1.072-.317,2.15-.642h0c.717-.212,1.434-.428,2.155-.635,1.081-.315,2.164-.619,3.25-.9,11.809-3.068,23.6-6.207,35.463-9.071,4.9-1.182,9.938-1.776,14.934-2.535,1.083-.164,2.714-.755,3.1.766.184.724-.777,2.04-1.559,2.651a37.945,37.945,0,0,1-14,6.84c-6.362,1.654-12.8,3.038-19.227,4.411-15.483,3.311-30.945,6.7-45.1,14.2-6.922,3.663-13.748,7.507-20.691,11.131a27.932,27.932,0,0,1-6.8,2.608c-4.374.967-7.838-.834-10.661-4.189a51.793,51.793,0,0,1-10.11-20.087c-2.383-8.743-2.627-17.562.243-26.219a72.874,72.874,0,0,1,4.8-10.274c.434-.837,1.547-1.322,2.35-1.971l.479.357q-1.534,5.546-3.068,11.091c.15.045.3.089.458.134a33.744,33.744,0,0,1,5.306-13,53.5,53.5,0,0,1,7.161-7.889,81.54,81.54,0,0,1,6.8-5.416c.551-.424,1-.755.353-1.384l-.041-.042.03.049c-1.083.665-2.223,1.25-3.235,2.009-1.636,1.227-3.146,2.62-4.782,3.847-3.3,2.474-6.8,4.708-9.951,7.36a47.341,47.341,0,0,0-12.526,16c-3.392,7.162-4.372,14.6-1.24,21.966,3.484,8.2,7.49,16.183,11.433,24.177,2.238,4.534,4.77,8.9,6.13,13.842.571,2.073-.017,3.19-1.528,4.6-4.066,3.8-8.009,7.75-11.723,11.89a10.571,10.571,0,0,0-2.965,8.943c.4,2.4,1.941,3.618,4.229,2.88a32.247,32.247,0,0,0,6.787-3.055c3.344-2.036,6.474-4.421,9.741-6.584a15.874,15.874,0,0,1,2.638-1.166c-.185,2.282-.677,4.336-.448,6.3.663,5.63,1.667,11.22,2.444,16.837a69.075,69.075,0,0,1,.6,7.216c.068,2.214.909,3.143,3.257,3.151,2.651.006,3.269.471,3.9,3.05a13.25,13.25,0,0,1,.377,2.352,34.976,34.976,0,0,0,3.239,12.977,74.159,74.159,0,0,0,13.9,19.7c.475.488.892,1.034,1.335,1.551-.1.108-.187.219-.284.331-1.8-.779-3.615-1.541-5.409-2.337-3.892-1.722-7.68-3.679-12.029-4.138a11.418,11.418,0,0,1-4.207-1.278c-6.8-3.748-14.37-5.271-21.638-7.663-3.356-1.1-6.485.13-7.5,2.877a8.246,8.246,0,0,0,.7,7.855,35.969,35.969,0,0,0,16.424,12.87c7.8,3.116,15.848,5.61,23.791,8.36,6.6,2.283,13.2,4.48,19.4,7.832,2.933,1.584,6.408,2.176,9.65,3.17,1.1.338,2.254.527,3.833.885a6.36,6.36,0,0,1-1.12.492c-6.239.919-12.45,2.111-18.721,2.665-8.609.758-17.267.936-25.892,1.537-5.723.4-11.435,1-17.125,1.7-3.2.4-6.351,1.23-9.535,1.8-3.233.58-6.488,1.036-9.714,1.661-.563.109-1.013.805-1.521,1.233.294.318.584.636.879.957,1.883-.373,3.758-.776,5.647-1.1,1.735-.3,3.492-.467,5.228-.765,1.227-.212,2.307-.154,2.89,1.132.592,1.3,1.247,2.637-.069,3.918-.44.434-.894.858-1.377,1.316,3.374-.236,4.448-2.556,3.021-7.073,3.775-.643,7.473-1.578,11.221-1.844,9.078-.643,18.189-.8,27.265-1.48,6.963-.523,13.924-1.323,20.825-2.4,10.21-1.592,20.346-3.635,30.549-5.268,2.347-.376,4.834.136,7.13.236-2.1-1.7-4.437-3.027-7.632-2.4a79.527,79.527,0,0,1-8.963,1.1c-4.543.369-8.856-1.107-13.276-1.736-6.352-.9-11.313-4.927-17.214-6.747-4.5-1.387-8.886-3.141-13.66-3.476a4.966,4.966,0,0,1-2.555-.854c-3.126-2.388-6.779-3.009-10.525-3.567a42.761,42.761,0,0,1-24.948-12.631c-1.7-1.74-3.147-3.687-2.958-6.283.054-.714.692-1.387,1.062-2.082.39.6.824,1.176,1.159,1.8a9.627,9.627,0,0,1,.516,1.4,38.053,38.053,0,0,1,.921-4.261,1.755,1.755,0,0,1,1.553-.7c2.894.817,5.772,1.7,8.6,2.724,1.774.641,1.939,2.3.345,3.354a6.34,6.34,0,0,1-2.846.927c-1.694.146-3.409.042-5.224.042,5.029,1.823,9.7.673,12.137-3.121a35.713,35.713,0,0,1,3.979,1.6,44.5,44.5,0,0,0,11.337,4.028,52.768,52.768,0,0,1,9.836,3.717c8.723,3.991,17.9,6.567,27.118,9.028,6.244,1.663,12.451,3.471,18.721,5.029a13.042,13.042,0,0,0,5.712.274,15.353,15.353,0,0,1,9.044.576,83.332,83.332,0,0,0,16.944,4.293c7.063,1.137,13.513,4.309,19.854,7.533a84.9,84.9,0,0,0,19,6.483c7.513,1.8,14.814,4.01,21.163,8.629a4.37,4.37,0,0,0,.755.37c.4-.431.8-.858,1.2-1.285A8.5,8.5,0,0,0,7155.4,3897.827ZM6985.99,3777.265a71.311,71.311,0,0,0-11.814,11.008,5.8,5.8,0,0,1-1.863,1.654c.493-1.263.722-2.741,1.523-3.755a74.77,74.77,0,0,1,6.868-7.756c5.429-5.173,11.217-9.97,16.527-15.256a78.461,78.461,0,0,1,14.185-11.654c7.292-4.47,15.209-7.3,23.44-9.507,6.625-1.776,13.168-3.9,19.659-6.122a134.746,134.746,0,0,1,29.965-6.228c5.709-.591,11.4-1.336,17.117-1.835,3.907-.341,7.843-.278,11.75-.581,3.285-.257,6.543-.8,9.817-1.182,1-.12,2.006-.126,3.009-.188.154.154.3.308.458.462-.462.771-.738,1.817-1.411,2.271a38.792,38.792,0,0,1-19.127,6.595,221.7,221.7,0,0,0-26.276,3.954c-4.852.939-9.764,1.6-14.566,2.736-8.77,2.081-17.554,4.158-26.191,6.72-12.273,3.643-24.369,7.927-35.07,15.164C6997.784,3767.961,6992,3772.782,6985.99,3777.265Zm16.093,4.062c.044-2.9.188-5.8.211-8.7,0-.6-.434-1.188-.519-1.8a2.038,2.038,0,0,1,.239-1.322,11.9,11.9,0,0,1,5.962-4.36c2.225-.852,4.5-1.578,6.776-2.282,8.354-2.573,16.683-5.246,25.093-7.637,10.577-3.01,21.163-6.017,31.85-8.582a158.6,158.6,0,0,1,26.65-3.735c3.433-.226,6.8-1.316,10.23-1.783,5.531-.752,7.308.413,6.89,5.88-.392,5.183,1.258,10,2.225,14.948.889,4.538.852,4.421-3.345,6.133a30.116,30.116,0,0,1-10.769,1.951,103.116,103.116,0,0,0-14.654,1.977c-5.013.893-10,1.948-14.938,3.192-4.014,1.012-7.875,2.642-11.9,3.561-3.632.83-7.4,1.072-11.1,1.568a2.1,2.1,0,0,1-2.2-1.162,49.8,49.8,0,0,0-3.6-4.524,9.274,9.274,0,0,0-5.889-3.113q-6.894-1.061-13.751-2.33a7.417,7.417,0,0,0-6.54,1.575,19.919,19.919,0,0,1-2.48,1.8c-2.777,1.716-4.21,4.2-4.4,7.992.807-.659,1.529-.994,1.86-1.561,1.51-2.566,3.9-3.471,6.655-3.882,3.6-.533,7.161-1.414,10.772-1.677,5.938-.43,10.923,2,15.215,5.976.144.133.183.373.416.878-3.262,0-6.313-.171-9.344.031-7.085.471-14.176.991-21.239,1.762-2.736.3-5.36,1.657-8.094,1.914-1.911.177-3.933-.645-5.866-1.165C7002.233,3782.773,7002.075,3781.85,7002.083,3781.327Zm89.8,75.6c-3.847,1.913-7.95,3.314-11.979,4.855a9.919,9.919,0,0,1-2.5.284c-.813-2.579-1.561-4.9-2.263-7.229a1.89,1.89,0,0,0-2.125-1.521c-3.177.126-6.358.2-9.819.3,0,2.944,0,5.655,0,8.363,0,2.344-.027,2.46-2.381,2.068-4.073-.687-8.09-1.77-12.184-2.241a24.049,24.049,0,0,1-10.1-3.82,2.006,2.006,0,0,1-1.1-2.358c1.2-6.725,4.373-12.547,7.735-18.406,3.293-5.733,8.012-8.351,14.329-8.876a22.919,22.919,0,0,0,4.125-1.118c-.036-.205-.069-.413-.1-.618-4.18-.267-8.364-.813-12.537-.718-4.282.1-7.085,3.065-9.488,6.273-2.074,2.77-3.908,5.726-6.065,8.428a17.149,17.149,0,0,1-3.786,3.082c-1.339.927-2.795,1.685-4.52,2.707l-6.4-11.4c-.973,2.108-1.858,4.036-2.882,6.256a43.153,43.153,0,0,1-8.786-23.148c-.885,1.261-1.5,2.139-2.111,3.01-3.4-10.957-5.146-22.168-4.1-33.55,2.693.763,5.425,1.534,8.548,2.416.171,1.452.256,3.372.639,5.231.649,3.147,1.052,6.447,2.34,9.335,1.988,4.449,7.021,6.724,11.931,6.154,3.106-.363,6.226-.622,9.321-1.046,6.263-.858,10.588-4.107,12.453-10.312.623-2.066,1.275-4.127,1.938-6.181a3.736,3.736,0,0,1,1.1-1.76l.513,3.229c.061,0,.122-.006.184-.006a18.976,18.976,0,0,1,.065-4.4c.477-1.977.974-4.212,2.228-5.684,2.365-2.775,5.576-1.852,8.552-.841a18.3,18.3,0,0,1,10.318,8.869,25.565,25.565,0,0,0,6.017,7.053c3.021,2.45,6.909,2.4,10.64,1.957,2.877-.338,5.733-.851,8.589-1.342,6.827-1.176,10.729-5.948,10.489-13.114-.1-3.058-.659-6.1-1.016-9.146-.077-.67-.166-1.337-.238-1.9,3.253-1.5,6.353-3.006,9.519-4.356,2.381-1.014,4.7-.079,6.968.639,1.793.571,2.186,1.89,2.282,3.745a66.627,66.627,0,0,1-.769,15.632c-.5,2.667-1.511,5.258-1.794,7.937-.358,3.382-.017,6.84-.345,10.229-.331,3.421-1.073,6.806-1.732,10.188a11.45,11.45,0,0,1-1.329,2.495c-.811-2.422-1.465-4.384-1.917-5.737-.864,4.565-1.817,9.673-2.808,14.771a8.072,8.072,0,0,1-.752,2.073,5.071,5.071,0,0,1-.96,1.038,7.232,7.232,0,0,1-1.028-1.011,19.567,19.567,0,0,1-1-1.882c-1.629,3.058-3.157,5.927-4.871,9.152-1.955-2.681-3.567-5-5.3-7.236-1.81-2.333-3.672-4.636-5.613-6.864-3.725-4.275-8.492-4.7-13.589-3.342a111.583,111.583,0,0,0-11.261,3.649c2.675,0,5.354.006,8.03,0,1.588-.006,3.184-.136,4.766-.031,3.54.233,6.1,2.17,8.268,4.849a41.38,41.38,0,0,1,8.152,17.619,2.434,2.434,0,0,1-.8,2A51.062,51.062,0,0,1,7091.88,3856.928Zm-49.392-128.806.024.016.007.008c.02-.013.039-.027.061-.045l.015-.01c-.008,0-.018,0-.024.006C7042.543,3728.1,7042.517,3728.115,7042.489,3728.123Zm.083-.025c-.028.007-.055.017-.083.025l.024.016.007.008c.02-.013.039-.027.061-.045l.015-.01C7042.587,3728.1,7042.577,3728.1,7042.571,3728.1Zm0,0c-.028.007-.055.017-.083.025l.024.016.007.008c.02-.013.039-.027.061-.045l.015-.01C7042.587,3728.1,7042.577,3728.1,7042.571,3728.1Zm0,0c-.028.007-.055.017-.083.025l.024.016.007.008c.02-.013.039-.027.061-.045l.015-.01C7042.587,3728.1,7042.577,3728.1,7042.571,3728.1Zm0,0c-.028.007-.055.017-.083.025l.024.016.007.008c.02-.013.039-.027.061-.045l.015-.01C7042.587,3728.1,7042.577,3728.1,7042.571,3728.1Zm0,0c-.028.007-.055.017-.083.025l.024.016.007.008c.02-.013.039-.027.061-.045l.015-.01C7042.587,3728.1,7042.577,3728.1,7042.571,3728.1Zm0,0c-.028.007-.055.017-.083.025l.024.016.007.008c.02-.013.039-.027.061-.045l.015-.01C7042.587,3728.1,7042.577,3728.1,7042.571,3728.1Zm0,0c-.028.007-.055.017-.083.025l.024.016.007.008c.02-.013.039-.027.061-.045l.015-.01C7042.587,3728.1,7042.577,3728.1,7042.571,3728.1Zm-29.279-55.327.048.049c0-.018.01-.035.014-.055C7013.333,3672.769,7013.313,3672.769,7013.292,3672.771Z" transform="translate(9.217 0)" fill="#1b3837"/>
    <path id="Path_387" data-name="Path 387" d="M7211.97,3886.859a9.828,9.828,0,0,0-2.853-6.175c-4.859-5.241-11.077-8.675-16.872-12.662a4.306,4.306,0,0,0-4.978.024c-2.115,1.292-3.557.81-5.043-1.274a18.611,18.611,0,0,0-2.546-2.952c-2.976-2.724-6.02-5.375-9.052-8.033-1.646-1.446-3.32-2.853-4.984-4.275-.4.427-.8.854-1.2,1.286,3.293,3.115,6.536,6.286,9.885,9.337,8.077,7.367,10.213,16.308,7.223,26.657a32.31,32.31,0,0,1-6.219,12.4,11.669,11.669,0,0,1-7.92,4.231c-3.14.306-8.723-4.713-8.979-7.91-.144-1.784,1.326-1.687,2.563-2.187-2.822-1.832-5.866-1.849-8.908-2.047a20.413,20.413,0,0,1-6.457-1.048c-1.862-.783-3.386-2.432-4.958-3.817a1.317,1.317,0,0,0-1.868-.208,32.078,32.078,0,0,1-11.235,3.642c-2.914.389-5.8,1.008-8.7,1.47-5.553.88-10.032-.787-12.916-5.778-.936-1.624-1.91-1.753-3.434-.933-5.866,3.168-12.18,2.785-18.5,2.176a5.69,5.69,0,0,1-2.538-.9,2.212,2.212,0,0,0-2.854.051,9.205,9.205,0,0,1-4.105,1.371c-4.537.292-9.1.488-13.641.431a13.4,13.4,0,0,0-8.057,2.213c-3.6,2.46-7.649,3.486-11.93,4.188-5.816.957-11.522,2.556-17.313,3.695-2.989.59-5.929.217-8.221-2.136a5.1,5.1,0,0,1-.7-1.588,5.73,5.73,0,0,1,1.656.095c3.413,1.254,5.621-.994,7.919-2.76,1.966-1.513,2.9-3.5,1.645-5.986a5.174,5.174,0,0,1-.178-.96c8.092-2.521,16.188-5.207,24.386-7.551,8.18-2.337,16.414-4.537,24.709-6.42,8.327-1.886,16.76-3.307,25.208-4.944a15.574,15.574,0,0,0-2.771-.642c-3.235-.161-6.48-.208-9.72-.3-.172,0-.339.031-.509.041-5.4.311-6.675-1-6.254-6.314a30.576,30.576,0,0,0,.075-3.922c-.058-1.239-.291-2.474-.472-3.908,3.827-1.657,7.7-3.332,11.519-4.981-1.712-1.016-3.871-.7-5.737.051a19.345,19.345,0,0,1-13.492.266c-4.479-1.381-8.347-.211-11.2,3.622-3.591,4.828-8.642,6.478-14.274,6.006a33.406,33.406,0,0,0-14.108,1.517c-5.18,1.815-10.524,1.808-15.86,1.313-5.584-.52-10.864.643-16.056,2.412a38.579,38.579,0,0,1-13.236,2.063c-3.464-.061-6.949.267-10.39-.014a7.706,7.706,0,0,1-6.915-8.292,14.659,14.659,0,0,1,.454-2.1c1.746,1.464,3.126,3.437,4.886,3.873,1.738.432,3.865-.687,5.822-1.123-.052-.191-.1-.38-.146-.571-.54.167-1.095.312-1.619.512-4.818,1.839-8.334-.85-7.846-6.009-.294-.321-.585-.639-.879-.957a5.508,5.508,0,0,0-1.841.892,7.059,7.059,0,0,0-1.743,6.331c.957,4.749,5.228,10.3,11.926,9.84.851-.059,1.7-.045,2.559-.055s1.694,0,2.224,0c-2.972,1.535-6.2,2.936-9.149,4.79-2.822,1.777-5.324,4.06-8.03,6.035a2.022,2.022,0,0,1-1.772.257c-3.375-1.993-6.526-1.4-9.32.949-4.931,4.159-10.757,6.759-16.291,9.884a47.242,47.242,0,0,0-8.84,6.007c-3.772,3.468-4.91,8.323-5.449,13.277a45.593,45.593,0,0,0,2.467,20.155,20.824,20.824,0,0,0,11.415,12.615,17.683,17.683,0,0,0,11.706.526,96.209,96.209,0,0,0,14.3-4.923,41.013,41.013,0,0,0,12.545-8.111,4.928,4.928,0,0,0,1.812-4.224,1.645,1.645,0,0,1,.38-1.182c2.316-2.518,4.828-4.062,8.572-2.924,4.517,1.374,8.743.219,12.61-2.45a2.352,2.352,0,0,1,1.9.13c3.175,1.51,6.185,3.478,9.484,4.579,3.247,1.083,6.779,1.284,10.176,1.937a42.851,42.851,0,0,0,13.742.464,3.859,3.859,0,0,1,1.821.25c4.848,1.923,9.676,3.894,14.517,5.838,4.685,1.882,9.321,3.909,14.094,5.545a12.164,12.164,0,0,0,6.315.6,15.989,15.989,0,0,0,11.883-10.316c1.78.431,3.578.854,5.371,1.3,3.461.852,6.956-.529,8-3.528a120.374,120.374,0,0,0,3.949-13.162c1.319-5.927.072-8.4-5.18-11.634-2.416-1.486-4.975-2.74-7.428-4.168a14.325,14.325,0,0,1-1.937-1.62c.074-.231.149-.464.226-.7,2.716,0,5.438.147,8.142-.038a19.89,19.89,0,0,1,9.1,1.7c2.478,1.021,5.213,2.05,7.82,2.016,9.6-.132,19.2-.683,28.8-1.134,2.525-.119,5.114-.006,6.942,1.732,3.734,3.551,7.191,7.4,10.738,11.143.725.766.616,1.418-.134,2.3-3.107,3.688-2.873,8.095.462,11.563a18.558,18.558,0,0,1,1.377,1.518,90.413,90.413,0,0,0,15.409,15.836,7.6,7.6,0,0,0,5.952,1.961,24.92,24.92,0,0,0,15.412-7.633c6.824-7.37,10.727-16.256,13.08-25.888C7213.128,3901.285,7212.513,3894.075,7211.97,3886.859Zm-146.231-37.249a9.783,9.783,0,0,1,1.608-.546c4.374-1.018,5.465-.326,6.44,4.034.411,1.825.927,3.628,1.275,5.467a2.019,2.019,0,0,1-.365,1.653c-2.532,1.938-5.126,3.763-8.5,4.033-1.265.1-2.042-.288-2.316-1.436-.625-2.644-1.157-5.309-1.483-6.832C7062.354,3852.238,7063.395,3850.615,7065.738,3849.61Zm-19.444,14.019a22,22,0,0,1,5.415-3.048c2.514-.96,5.188-1.517,7.971-2.3,1.013,4.3,2.43,7.931,5.587,10.695,1.213,1.062,1.024,1.869-.573,2.255-3.076.745-6.217,1.23-9.338,1.773a39.109,39.109,0,0,1-5.205.707,4.919,4.919,0,0,1-5.162-3.356C7044.053,3868,7044.455,3865.03,7046.294,3863.629Zm-90.32,70.746c-1.606.677-3.394.906-5.065,1.442-6.685,2.149-16.885-3.458-18.613-11.17a103.107,103.107,0,0,1-2.487-14.4c-.325-4.192-.113-8.672,2.524-12.232a22.887,22.887,0,0,1,6.027-5.152c2.941-1.906,6.194-3.317,9.205-5.125,2.275-1.366,4.37-3.033,6.561-4.54a8.331,8.331,0,0,1,5.531-1.805c-4.812,4.06-5.808,9.783-6.656,15.345-1.381,9.061.813,17.7,4.333,26.008,1.205,2.846,3.669,4.691,6.249,6.307.375.236.741.493,1.561,1.039C6961.888,3931.628,6958.976,3933.115,6955.974,3934.375Zm140.55-32.542c3.791,2.181,4.762,4.141,4.1,8.434a55.07,55.07,0,0,1-3.728,13.024,4.208,4.208,0,0,1-3.912,2.78,8.155,8.155,0,0,1-6.1-2.111c-.947-.834-2.047-1.9-1.255-3.164.362-.577,1.773-.5,3.041-.8.69-1.271.239-2.969-1.568-4.94-.1.546-.147,1.755-.345,1.783a4.746,4.746,0,0,1-2.556-.29,36.716,36.716,0,0,1-16.53-15.242,8.213,8.213,0,0,0-6.4-4.295c5.17,4.161,6.779,10.669,11.047,15.29,2.464,2.667,4.947,5.316,7.411,7.984a20.671,20.671,0,0,1,1.414,1.7c2.282,3.064,2.289,5.586-.3,8.237a29.366,29.366,0,0,1-4.834,3.738c-3.677,2.442-7.4,1.011-10.967-.26a56.194,56.194,0,0,1-13.929-7.476c-.323-.232-.737-.454-.884-.786-.252-.563-.645-1.435-.406-1.77a2.39,2.39,0,0,1,1.864-1,5.851,5.851,0,0,1,2.738,1.541c1.485,1.535,3.758,1.412,5.227-.679-3.987-.236-6.029-3.431-8.811-5.488a14.1,14.1,0,0,0-7.927-2.778c.434.493.9,1.05,1.4,1.572,1.193,1.241,1.186,2.283-.259,3.194a8.2,8.2,0,0,1-2.963,1.138c-8.849,1.459-17.562,1.209-25.987-2.269-4.511-1.863-7.221-5.542-9.7-9.744-1.523,1.12-3.069,2.162-4.51,3.328q-8.411,6.785-17.952,1.79c-1.147-.6-1.729-.492-2.651.55a60.385,60.385,0,0,1-5.921,5.65c-4.411,3.8-8.921,3.1-11.777-1.963a33.643,33.643,0,0,1-2.433-29.251,9.7,9.7,0,0,1,4.616-5.5c4.263-2.217,7.978-5.187,11.821-8.023a54.665,54.665,0,0,1,23.374-9.72,195.773,195.773,0,0,1,29.354-2.737c3.451-.088,6.887-.755,10.339-1.118,1.517-.16,3.047-.225,5.083-.369-3.669,4.179-2.326,8.286-.594,12.481a9.47,9.47,0,0,1-1.322.137,88.587,88.587,0,0,0-20.821,1.866c-5.3,1.024-10.843.847-16.273,1.192-.673.045-1.351.007-2.026.083,6.484.734,12.928,1.332,19.479.18,6.256-1.1,12.614-1.594,18.911-2.476,2.174-.3,3.27.618,3.956,2.821-2.419.718-4.81,1.559-7.267,2.129a61.967,61.967,0,0,0-18.546,7.056c-1.66,1.015-3.165,2.283-4.739,3.441a.06.06,0,0,1,.027-.007l.01,0-.006.018c.348-.065.7-.119,1.056-.174.116-.018.235-.038.352-.059a7.689,7.689,0,0,0,1.37-.334c1.322-.479,2.572-1.148,3.861-1.722,1.069-.479,2.053-.4,2.63.721s.8,2.436-.3,3.287a30.776,30.776,0,0,1-5,3.2,3.625,3.625,0,0,1-4.678-1.646c-.219-.455.089-1.193.223-1.788a4.768,4.768,0,0,1,.16-.56l.062-.185c.086-.246.181-.492.264-.738a.215.215,0,0,1-.045.007l-.01,0c.007-.006.017-.01.023-.016a4.712,4.712,0,0,0-3.871,4,6.677,6.677,0,0,0,1.77,4.34,9.3,9.3,0,0,0,8.665,3.034c4.151-.564,8.251-1.525,12.355-2.4q10.49-2.235,20.958-4.583c2.74-.614,5.412-1.8,8.169-2.015,4.684-.363,9.413-.072,14.117-.23,3.94-.133,6.991,1.555,10.053,3.821A88.118,88.118,0,0,0,7096.523,3901.833Zm108.084,17.939c-2.2,3.97-4.3,7.979-7.661,11.2a33.764,33.764,0,0,1-11.036,6.917,6.052,6.052,0,0,1-6.782-1.535q-7.641-7.65-15.1-15.484c-2.14-2.258-2.484-3.9-1.968-6.539,4.409,2.2,8.08.407,11.56-2.2,5.784-4.339,10.884-9.269,14.052-15.949a39.731,39.731,0,0,0,3.581-13.24c.358-3.6.884-7.186,1.373-11.066,3.779,2.7,7.321,5.224,10.854,7.759.644.464,1.217,1.032,1.882,1.458,3.445,2.211,3.838,5.883,4.42,9.389A44.042,44.042,0,0,1,7204.607,3919.772Z" transform="translate(0 47.366)" fill="#1b3837"/>
    <path id="Path_388" data-name="Path 388" d="M6993.629,3673.749l-.146.075-.012.007-.029-.049C6993.5,3673.768,6993.567,3673.758,6993.629,3673.749Z" transform="translate(17.082 3.956)" fill="#1b3837"/>
    <path id="Path_389" data-name="Path 389" d="M7005.314,3669.855a9.856,9.856,0,0,1-1.845,1.483,56.3,56.3,0,0,1-5.886,2.552,26.8,26.8,0,0,1-3.992.833c2.707-1.432,5.378-2.952,8.156-4.233A13.435,13.435,0,0,1,7005.314,3669.855Z" transform="translate(17.12 2.98)" fill="#1b3837"/>
    <path id="Path_390" data-name="Path 390" d="M7003.087,3669.852c-.04.006-.082.013-.123.017.024-.024.052-.044.075-.065Z" transform="translate(19.469 2.967)" fill="#1b3837"/>
    <path id="Path_391" data-name="Path 391" d="M7034.7,3725.139l.009-.007c-.028.007-.056.017-.083.025q-2.943.983-5.905,1.957c-.174.071-.351.14-.524.211.184-.061.371-.119.556-.177l0,0q2.943-.989,5.895-1.979l.007.008c.02-.013.039-.027.061-.045Zm-9.187,3.034c.84-.256,1.7-.536,2.545-.8l.018,0c.041-.017.078-.035.12-.049C7027.3,3727.609,7026.4,3727.893,7025.511,3728.173Zm-20.084-58.368c-.023.021-.052.041-.075.065.041,0,.083-.01.123-.016,0-.018.011-.035.014-.055C7005.468,3669.8,7005.447,3669.8,7005.427,3669.8Zm-11.985,4.968.041.042.146-.075C6993.567,3674.749,6993.5,3674.759,6993.441,3674.772Z" transform="translate(17.082 2.966)" fill="#1b3837"/>
    <path id="Path_392" data-name="Path 392" d="M6997.415,3881.93a.141.141,0,0,1-.023.016l.01,0c.014-.007.031-.014.042-.021A.071.071,0,0,0,6997.415,3881.93Z" transform="translate(18.072 56.142)" fill="#1b3837"/>
    <path id="Path_393" data-name="Path 393" d="M6997.45,3881.919l-.005.018a.215.215,0,0,1-.045.007c.013-.007.031-.014.041-.021Z" transform="translate(18.074 56.142)" fill="#1b3837"/>
    <path id="Path_394" data-name="Path 394" d="M7110.017,3852.833c-.014.042-.023.083-.038.123a63.149,63.149,0,0,0-6.875-.953c-6.988-.225-13.984-.168-20.967-.41a52.646,52.646,0,0,1-14.239-2.859c3.137.434,6.26,1.121,9.407,1.244,5.053.205,10.117.047,15.178.024a64.777,64.777,0,0,1,16.461,2.426A10.278,10.278,0,0,1,7110.017,3852.833Z" transform="translate(35.748 47.823)" fill="#1b3837"/>
    <path id="Path_395" data-name="Path 395" d="M7114.188,3874.339l-11.544-3.537C7106.849,3870.133,7111.02,3870.754,7114.188,3874.339Z" transform="translate(44.457 53.295)" fill="#1b3837"/>
    <path id="Path_396" data-name="Path 396" d="M7027.576,3714.076q-2.952.985-5.894,1.979l0,0-.032-.034q2.959-.974,5.9-1.957Z" transform="translate(24.153 14.062)" fill="#1b3837"/>
    <path id="Path_397" data-name="Path 397" d="M7019.62,3716.642q1.337-.42,2.683-.848c-.042.014-.079.032-.12.049l-.017,0q-2.542,1.026-5.087,2.038c-.045-.13-.092-.26-.138-.395Q7018.278,3717.069,7019.62,3716.642Z" transform="translate(22.973 14.496)" fill="#1b3837"/>
    <path id="Path_398" data-name="Path 398" d="M7021.784,3715.659c-.185.059-.373.116-.557.177.175-.071.352-.14.525-.211Z" transform="translate(24.048 14.454)" fill="#1b3837"/>
    <path id="Path_399" data-name="Path 399" d="M7068.559,3806.363c-.05.168-.1.334-.15.5a24.97,24.97,0,0,1-2.679-1.1c-5.333-2.9-11.108-3.1-16.936-2.669a49.235,49.235,0,0,0-9.574,1.357c-1.972.546-3.649,2.168-5.443,3.338-.728.472-1.414,1.011-2.4,1.719,1.92-4.517,5.651-7.585,9.45-7.883,4.64-.365,9.287-.628,13.931-.945a11.838,11.838,0,0,1,7.885,2.117C7064.531,3804.114,7066.581,3805.184,7068.559,3806.363Z" transform="translate(26.593 35.768)" fill="#1b3837"/>
    <path id="Path_400" data-name="Path 400" d="M7064.61,3784.695c-.558.717-1.2,1.691-1.959,1.865a58.622,58.622,0,0,1-6.915.974,124.127,124.127,0,0,1-12.7,1.09c-4.066-.01-8.128-.748-12.157-1.161-.133-2.618.431-3.065,2.878-2.717,1,.142,2.042.024,3.064.089a1.9,1.9,0,0,1,.836.43c4.623,3.243,9.694,3.431,14.84,1.817a64.022,64.022,0,0,0,7.452-3.339c-.031.107-.1.342-.2.685a18.073,18.073,0,0,1,2.4-.827,7.507,7.507,0,0,1,2.249-.062A1.484,1.484,0,0,1,7064.61,3784.695Z" transform="translate(26.463 31.466)" fill="#1b3837"/>
    <path id="Path_401" data-name="Path 401" d="M7058.952,3787.925c.475-.949,1.6-2.172,1.531-3.32a6.919,6.919,0,0,0-1.989-3.735,42.143,42.143,0,0,0-4.4-3.721c.279-.293.563-.588.842-.882,2.024,1.855,4.3,3.51,6,5.617A3.71,3.71,0,0,1,7058.952,3787.925Z" transform="translate(32.286 29.656)" fill="#1b3837"/>
    <path id="Path_402" data-name="Path 402" d="M7030.012,3781.97c-2.181,2.379-2.2,3.93-.154,6.284a3.47,3.47,0,0,1-2.18-5.063,13.284,13.284,0,0,1,2.417-3,20.83,20.83,0,0,1,2.3-1.738c.707-.54,1.391-1.107,2.087-1.665l.205.278C7033.127,3778.7,7031.538,3780.306,7030.012,3781.97Z" transform="translate(25.554 29.786)" fill="#1b3837"/>
    <path id="Path_403" data-name="Path 403" d="M7082.277,3748.654a10.655,10.655,0,0,1-2.463-1.558,6.4,6.4,0,0,0-5.027-2.439c-3.918-.045-7.844-.213-11.752-.042a36.283,36.283,0,0,0-5.932,1.23c-.519-.509-1.035-1.022-1.555-1.534,1.665-.909,3.287-1.9,5-2.7a29.273,29.273,0,0,1,3.7-1.258c8.164-2.555,6.355-1.865,13.555,1.617C7080.377,3743.207,7081.555,3745.473,7082.277,3748.654Z" transform="translate(32.651 20.267)" fill="#1b3837"/>
    <path id="Path_404" data-name="Path 404" d="M7058.941,3744.743c-3.116,3.9-7.325,6.851-10.612,7.441-.042-.091-.141-.235-.111-.273,2.707-3.271,5.321-6.636,9.168-8.7Q7058.165,3743.977,7058.941,3744.743Z" transform="translate(30.812 21.369)" fill="#1b3837"/>
    <path id="Path_405" data-name="Path 405" d="M6989.078,3887.281c-2.022-.16-4.042-.369-6.065-.471a56.618,56.618,0,0,0-6.129-.133,9.39,9.39,0,0,0-8.249,5.406,8.922,8.922,0,0,1,7.822-7.031,21.251,21.251,0,0,1,5.411.259A52.355,52.355,0,0,1,6989.078,3887.281Z" transform="translate(10.863 56.91)" fill="#1b3837"/>
  </g>
</svg>
