<svg xmlns="http://www.w3.org/2000/svg" width="313.843" height="317.674" viewBox="0 0 313.843 317.674">
  <g id="Group_2242" data-name="Group 2242" transform="translate(-8333.418 -9774.59)">
    <path id="Path_1261" data-name="Path 1261" d="M8532.971,9833.162l-.016-.017c-.006,0-.006-.006-.012-.006.012.011.021.028.033.038C8532.977,9833.172,8532.971,9833.168,8532.971,9833.162Zm0,0-.016-.017c-.006,0-.006-.006-.012-.006.012.011.021.028.033.038C8532.977,9833.172,8532.971,9833.168,8532.971,9833.162Zm113.613,75.1c-1.7-2.646-3-5.54-4.655-8.214-3.569-5.761-7.755-10.857-14.8-12.555-.124-.031-.193-.274-.318-.463.4-1.34.886-2.689,1.2-4.083.8-3.536.718-3.612-3.186-3.64a15.209,15.209,0,0,0,.41-2.8c-.162-3.363,1.479-4.758,4.687-5.615,7.015-1.885,11.891-6.529,14.741-13.192a2.826,2.826,0,0,0-.4-2.241c-2.657-4.109-6.9-5.648-11.384-6.469a3.579,3.579,0,0,1-3.137-2.7c-1.9-5.14-4.022-10.2-5.919-15.346a5.84,5.84,0,0,1-.135-3.488c1.441-4.648,1.512-4.627-3.445-5.492.578-1.8,1.048-3.611,1.733-5.329.562-1.409.356-2.344-.978-3.143-2.154-1.291-4.287-2.641-6.361-4.062a8.3,8.3,0,0,1-4-7.143,27.672,27.672,0,0,0-5.259-15.893,37.6,37.6,0,0,1-3.436-5.783c-1.457-3.019-3.256-3.58-6.068-1.668-2.01,1.36-3.895,3.023-6.086,3.963-4.952,2.128-8.742,5.228-10.627,10.416a7.807,7.807,0,0,1-6.686,5.373,81.192,81.192,0,0,0-8.871,2.29c-1.513.421-2.766.653-4.17-.653-.68-.638-2.419-.589-3.492-.254-2.383.75-4.639,1.879-7.187,2.947a39.855,39.855,0,0,1-2.383-4.395c-.652-1.637-1.689-1.943-3.186-1.507-2.062.6-4.119,1.231-6.1,1.819-.961-7.122-2.052-14.131-2.781-21.172-.285-2.76-1.522-3.3-3.845-2.895-6.021,1.059-12.063,2-18.046,3.224a15.147,15.147,0,0,0-6.129,2.468c-4.32,3.337-8.332,7.074-12.6,10.772-1.135-1.075-2.268-2.09-3.326-3.175-2.705-2.76-5.356-5.573-8.067-8.321-3.013-3.062-6.55-2.425-8.311,1.468-.523,1.146-.935,2.35-1.56,3.436-1.448,2.494-2.992,4.93-4.5,7.393-.3-.082-.61-.168-.918-.248-1.031-5-2.241-9.963-3.029-15-.384-2.451-1.528-2.754-3.256-1.83-6.312,3.369-13.089,3.591-19.969,3.191-5.027-.292-10.05-.768-15.081-1-3.225-.157-6.756-.486-9.234,1.948-1.712,1.685-3.268,1.842-4.984.892-3.8-2.1-6.625-.621-8.937,2.289-3.407,4.287-6.566,8.77-9.94,13.078a3.646,3.646,0,0,1-2.539,1.432,11.071,11.071,0,0,0-9.211,3.45c-1.771,1.739-4.137,2.852-6.156,4.353-3.252,2.408-6.47,4.854-9.6,7.4a2.565,2.565,0,0,0-.637,2.155c1.025,4.093,1.83,8.3,3.424,12.177,1.938,4.709,1.7,8.225-3.257,10.621-1.685.811-1.382,2.015-.346,3.268,1.28,1.55,2.479,3.164,3.8,4.854-.561.271-.787.477-1.015.477-10.373.092-20.249,2.845-30.1,5.643-4.012,1.134-4.142,1.5-2.635,5.248,2.947,7.344,6.01,14.634,8.941,21.982a27.021,27.021,0,0,0,8.084,10.945c3.845,3.191,7.668,6.41,11.718,9.8-.831,1.441-1.7,3.11-2.716,4.677-3.37,5.205-6.8,10.373-10.189,15.567-1.918,2.932-1.744,3.661,1.441,4.93,3.672,1.464,7.42,2.737,11.119,4.147,2.736,1.041,5.031,2.613,5.313,5.826s2.269,4.229,5.082,4.412c1.074.074,2.148.178,3.218.318.222.032.405.3.6.459l-.5,2.575a17.33,17.33,0,0,1,2.717.54,10.626,10.626,0,0,1,3.32,1.6c1.328,1.15,2.284,2.732,3.574,3.937,3.343,3.11,7.068,5.87,10.076,9.267,1.81,2.041,2.824,2.1,5.076.88,5.708-3.094,11.62-5.8,17.609-8.748.977,3.878,1.938,7.528,2.791,11.2.367,1.57.416,3.213.768,4.789a5.672,5.672,0,0,1-1.69,5.519c-4.661,5.136-5.119,9.963-1.917,16.1a24.558,24.558,0,0,0,1.922,3.251c3.92,5.356,6.508,11.334,8.785,17.533a37.027,37.027,0,0,0,5.152,9.687,14.815,14.815,0,0,1,3.467,8.813c.168,6.562.168,13.126.237,19.688.026,2.068-.017,4.137.108,6.2.318,5.185,4.578,8.009,7.2,11.8.378.545,1.389.865,1.458,1.371.892,6.676,5.833,10.066,10.8,13.387,3.439,2.295,7.22,4.12,10.486,6.626,7.846,6,16.572,7.327,26.055,5.875a31.87,31.87,0,0,1,6.129.081c5.108.227,10.248.939,15.313.572a19.446,19.446,0,0,0,9.169-3.311c8.289-5.718,16.222-11.943,24.359-17.879a10.609,10.609,0,0,0,4.32-6.857,9.9,9.9,0,0,1,1.965-4.552,9.608,9.608,0,0,0,2.521-6.61c.205-9.979.389-19.951.7-29.926a3.247,3.247,0,0,1,1.447-2.381,13.691,13.691,0,0,0,7.262-8.629,73.619,73.619,0,0,0,2.4-10.5,17.394,17.394,0,0,1,4.38-9.59,29.758,29.758,0,0,0,7.057-14.363c.924-4.6.184-5.881-3.882-7.533,1.679-11.431,6.317-22.355,4.952-34.8,1.955,1.084,3.391,1.76,4.7,2.64,2.727,1.825,4.114,1.475,5.281-1.561.686-1.782,1.264-3.606,1.766-5.048,2.316,1.074,4.578,3.066,6.258,2.656,1.966-.486,3.424-3.057,5.206-4.822.724.523,1.544,1.064,2.311,1.674,7.614,6.021,16.254,7.635,25.687,6.2,2.2-.34,3.154-1.232,3.084-3.473-.184-5.956-.265-11.918-.378-17.452,2.851-1.085,6.063-2.138,9.109-3.548C8647.264,9911.691,8647.842,9910.229,8646.584,9908.263Zm-7.317-51.109c-3.828,4.336-7.792,8.364-13.56,9.984-2.2.62-4.18.464-5.729-1.657a26.851,26.851,0,0,0-3.591-3.354c3.51-1.6,5.972,1.1,9.31,1.037-1.447-.984-2.543-1.724-3.926-2.657,2.526-.956,4.729-1.788,6.965-2.636-5.453-.939-9.752,3.338-15.3,2.521C8620.265,9850.544,8631.82,9851.662,8639.267,9857.153ZM8583,9899c-1.409-2.4-2.155-5.194-3.4-8.315,6.631,1.414,12.56,2.678,18.705,3.984-.621,1.209-1.171,2.268-1.718,3.332h.012c-1.291,1.555-2.592,3.115-3.889,4.665a6.822,6.822,0,0,1,2.037-.5,10.558,10.558,0,0,0,9.584-4.521,5.941,5.941,0,0,1,5.422-2.521c6.393.021,5.443.189,4.676-5.4-.486-3.554-1.453-7.037-2.187-10.557a17.587,17.587,0,0,1-.459-3.775c.633,3.915,4.137,4.3,6.756,5.6,1.5.74,2.052,1.523,1.729,3.089-1.027,4.925-1.939,9.882-3.111,14.769a4.063,4.063,0,0,1-2.235,2.295c-6.339,2.544-12.728,4.968-19.132,7.365-4.639,1.734-4.979,1.534-6.755-3.266.788-.644,1.593-1.3,2.4-1.955C8587.92,9904.041,8585.29,9902.922,8583,9899Zm-151.753,4.487c4.115-6.259,8.23-12.518,12.566-19.121.977,2.883,1.895,5.583,2.807,8.283l.627-.162c-.535-2.462-.977-4.957-1.646-7.381-.373-1.372-.2-2.129,1.2-2.7,2.646-1.08,5.228-2.316,7.862-3.5l2.862,3.737.432-.211c-.508-1.383-1.015-2.765-1.593-4.331,2.473-1.042,4.854-2.041,7.381-3.1a12.415,12.415,0,0,1,.314,9.066,29.881,29.881,0,0,1-10.871,15.033c-2.84,2.051-5.459,4.455-8.45,6.248a98.719,98.719,0,0,1-10.811,5.361c-2.731,1.209-6.723-1.895-6.858-4.99-.113-2.6-.49-5.178-.857-8.785,4.2-3.375,9.282-7.463,14.363-11.551.172.157.346.309.523.465q-5.3,8.6-10.584,17.193C8430.752,9903.188,8431,9903.332,8431.242,9903.484Zm26.936-28.614c-7.7,3.234-15.2,6.923-22.771,10.448-4.131,1.918-7.862,4.363-10.3,8.359a4.694,4.694,0,0,1-4.99,2.371,3.619,3.619,0,0,1-1.668-1.016c-2.236-2.014-4.18-4.466-6.69-6.016-3.726-2.3-7.928-3.828-11.75-5.988a15.084,15.084,0,0,1-4.585-4.185,57.538,57.538,0,0,1-3.758-6.961c3.655.621,6.971,1.383,10.33,1.712,7.576.729,15.173,1.221,22.749,1.885a6.323,6.323,0,0,1,2.419,1c2.133,1.226,4.4,1.5,6.4.135,6.923-4.73,13.462-10,18.182-17,1.879-2.792,2.6-6.372,4.1-10.255,3.488,5.39,6.811,10.52,10.39,16.06C8464.587,9868.969,8462.875,9872.894,8458.178,9874.87Zm-46.1,52.206c-.026.027-.053.049-.08.075v0c.01-.021.027-.038.037-.06h-.006q-4.98,1.125-9.962,2.257c-.157-.27-.313-.545-.476-.815q2.763-7.167,5.535-14.374c.125.081.248.162.373.248s.259.189.389.291c.049.039.1.082.15.125a7.98,7.98,0,0,1,.74.68c.141.141.275.287.41.438.076.087.151.179.227.266.125.146.244.3.362.447.07.092.14.184.205.275a1.7,1.7,0,0,1,.108.151c.28.389.539.8.783,1.22.129.228.254.46.372.7.092.178.179.361.259.54.065.14.13.281.189.427.086.205.168.4.242.609s.146.406.211.611c.017.059.038.119.055.178a10.73,10.73,0,0,1,.318,1.279c.027.125.049.249.07.373q.041.259.064.519c.011.092.017.188.027.28,0,.061,0,.113.011.168s0,.119,0,.178a4.956,4.956,0,0,1,0,.578,1.55,1.55,0,0,1-.011.156,2.371,2.371,0,0,1-.038.389,2.74,2.74,0,0,1-.049.314,2.2,2.2,0,0,1-.054.258,1.829,1.829,0,0,1-.064.232c-.027.092-.055.178-.087.265a.884.884,0,0,1-.06.151c-.021.055-.043.1-.064.151a2.808,2.808,0,0,1-.232.438C8412.052,9927.082,8412.063,9927.082,8412.078,9927.076ZM8386,9905.784c-2.338,3.483-2.214,8.116-5.7,11.173-1.156,1.015-1.3,3.18-1.928,4.87C8376.234,9915.51,8378.189,9911.324,8386,9905.784Zm-10.3,9.688c-4.373-7.933-3.17-10.114.189-11.286,1.943,1.4,3.6,2.6,5.313,3.846C8379.506,9910.326,8377.59,9912.918,8375.7,9915.472Zm27.378-11.216c-4.827-.842-9.342-.777-13.2,2.668-.384.346-1.539-.162-2.706-.324C8390.236,9903.311,8401.105,9901.886,8403.077,9904.256Zm-15.6-.264c1.631-1.961,3.732-4.493,5.832-7.02,2.77,1.586,5.535,3.168,8.623,4.939C8396.689,9902.663,8391.808,9903.365,8387.477,9903.992Zm16.729,13.029c-2.365-6-7.84-7.246-12.975-9.008,2.008-3.142,7.721-4.2,11.258-2.132C8405.6,9907.7,8406.517,9912.853,8404.205,9917.021Zm-1.063-16.713c5.735,4.18,7.339,10.006,8.786,15.919C8407.11,9912.146,8405.609,9906.26,8403.142,9900.309Zm-10.508,23.787c-.048.259-.216,1.1-.546,2.77-1.7-2.214-4.865-1.938-4.5-5.006.113-.982,1.2-1.852,1.842-2.77.292.232.584.459.875.691-.627.686-1.248,1.365-2.246,2.467C8389.664,9922.9,8390.933,9923.41,8392.634,9924.1Zm-.552-1.966c.238-4.018-1.555-6.685-4.664-8.791.912-1.112,1.684-2.058,2.808-3.429,1.879,3.645,3.58,6.928,5.464,10.578C8394.421,9921.066,8393.443,9921.509,8392.082,9922.13Zm-2.029-4.293-.578.5c-.594-.729-1.193-1.453-2.17-2.646-.622,1.62-1.08,2.813-1.539,4.007l-.422-.1c.346-1.707.7-3.419,1.226-6.011C8388.061,9915.406,8389.054,9916.622,8390.053,9917.837Zm-7.436-1.55c-1.6,5.762,3.094,7.49,5.557,10.529,1.252,1.545,3.029,1.34,4.665.438.929-.513,1.8-1.134,3.44-2.182-.687,1.421-.849,2.371-1.4,2.8-2.246,1.729-9.9,1.723-12.1.125C8379.475,9925.592,8379.139,9920.088,8382.617,9916.287Zm11.825,13.17c-.372.61-.681,1.123-1.052,1.744.345-.049.646,0,.825-.129,3.294-2.273,3.979-5.595,2.884-9.066-1.3-4.077-3.17-7.965-4.763-11.869,4.313.006,9.665,3.839,10.95,8.11a3.289,3.289,0,0,1-.42,1.955,69.145,69.145,0,0,1-3.916,8.542,46.689,46.689,0,0,1-5.426,6.556,1.669,1.669,0,0,1-1.609.179c-2.01-1.426-3.921-2.986-6.318-4.855Zm12.312.043c-1.35,3.024-3.742,4.271-7.467,3.889C8400.906,9929.23,8401.668,9928.831,8406.754,9929.5Zm-3.342-30.617c-.1-.075-.2-.156-.292-.236-.038-.033-.075-.07-.113-.1-.081-.076-.157-.15-.231-.232a1.8,1.8,0,0,1-.136-.15c-.081-.087-.156-.173-.232-.265-.3-.362-.589-.757-.886-1.134-.075-.1-.156-.2-.237-.3a.419.419,0,0,0-.06-.076,1.466,1.466,0,0,0-.119-.151h0l0,0a.02.02,0,0,0-.011-.006c-.491-.1-.983-.2-1.47-.3-.8-.168-1.6-.329-2.408-.492-.054.136-.113.266-.172.395l1.732,1.328c-.1.211-.2.422-.3.633-1.662-.746-3.326-1.5-5.355-2.4-.422.476-1.107,1.253-1.787,2.036-2.29,2.641-4.493,5.361-6.9,7.889a3.461,3.461,0,0,1-6.123-1.555c-.9-3.289-1.582-6.5,2.154-9,2.1-1.4,3.71-3.646,5.243-5.729s2.694-4.433,4.12-6.837c2.635,1.34,5.26,2.646,7.857,4q7.166,3.709,14.314,7.452c3.569,1.857,4.73,3.737,3.855,7.021-.318,1.2-1.414,2.2-2.371,3.6-3.773-3.964-6.911-8-12.463-8.09,4.262,1.707,7.409,4.752,10.605,7.987,5.379,5.448,7.112,12.149,7.749,19.325.118,1.361-.528,3.727-1.394,4.039-2.051.74-2.883-1.382-3.369-2.975a22.693,22.693,0,0,1-.945-5.535C8413.3,9910.725,8410.167,9903.916,8403.412,9898.883Zm11.5,6.675c3.379.913,6.074,1.636,8.969,2.413-1.21,2.264-2.236,4.186-3.358,6.3C8418.727,9911.476,8417.047,9908.873,8414.914,9905.558Zm1.123-.62c1.16-1.729,2.111-3.225,3.147-4.661,1.134-1.565,4.114-.967,4.747,1.14a31.926,31.926,0,0,1,.637,5.713C8421.432,9906.324,8418.764,9905.639,8416.037,9904.938Zm-32.395-78.888c-.906-2.845.217-4.983,2.895-6.782.26,3.041.762,5.73-1.031,8.262-.529.746-1.068,2.111-.734,2.722,1.23,2.257.1,4.045-.863,5.772-3.332,5.962-.4,11.34,1.42,16.815.161.5,1.047.956,1.668,1.075,4.32.847,8.64,1.809,13.009,2.289,2.171.242,4.444-.448,7.36-.8,2.311,1.592,5.415,3.709,8.5,5.869s6.33,3.791,10.5,3.066c-.5,2.313-.863,4.4-1.447,6.427a2.326,2.326,0,0,1-1.469,1.36c-2.511.557-5.179,1.637-7.576,1.242-9.66-1.6-19.261-3.559-28.835-5.633-5.114-1.111-8.364-3.914-9.294-9.714-1.074-6.712-3.229-13.257-5.08-19.828a2.08,2.08,0,0,1,1.084-2.823c2.717-1.588,5.395-3.24,8.106-4.839C8383.621,9829.484,8384.318,9828.15,8383.643,9826.05Zm63.384-1.927.739-.018c.174,1.242.859,2.7.438,3.689-2.872,6.723-5.977,13.354-9.028,20a5.815,5.815,0,0,1-.8,1.048c-.205-.081-.41-.157-.616-.237Q8442.395,9836.365,8447.026,9824.123Zm-2.618-9.8c-5.049-3.182-10.082-6.383-15.164-9.521a5.477,5.477,0,0,0-1.916-.3c-2.053-.342-4.1-.691-6.15-1.043.054-.34.1-.686.15-1.025,6.227-.2,12.453-.416,18.684-.529a2.075,2.075,0,0,1,1.572,1.112c1.23,3.6,2.316,7.252,3.45,10.886C8444.824,9814.041,8444.613,9814.182,8444.408,9814.322Zm21.469,19.477c-.28.713-.562,1.431-.912,2.327,5.189,2.106,11.485.61,15.957,5.216-1.912,2.96-4.25,2.252-6.621,1.464-3.99-1.323-7.953-2.727-11.987-3.894a23.545,23.545,0,0,0-4.8-.442c-2.322-.157-3.926-.8-4.375-3.6a84.072,84.072,0,0,0-2.748-10.944c-.713-2.365-1.82-4.612-2.792-7.009,1.9-1.49,4-3.138,6.248-4.9C8451.951,9816.66,8458.273,9830.624,8465.877,9833.8Zm14.963-21.891c.248.265.892.945,1.9,2-3.17,1.2-5.822,2.2-8.689,3.294-.328-1.053-.551-1.777-.653-2.1C8475.9,9814.029,8478.205,9813.041,8480.84,9811.908Zm-7.625-.676c-.62,1.274-1.122,2.3-1.684,3.451-.389-.168-.924-.4-2.187-.951a28.274,28.274,0,0,1,4.147-2.969c.367-.179,1.372.955,2.079,1.484-.184.222-.367.448-.551.67C8474.527,9812.459,8474.031,9812,8473.215,9811.232Zm14.975,13.43c.113.275.227.545.335.82-3.257,3.408-7.711,4.034-12,5.055-.167-.389-.34-.771-.508-1.16Q8482.1,9827.019,8488.189,9824.662Zm-.518-1.576V9812.6c1.289,1.237,3.082,2.954,4.924,4.714-1.426,1.987-2.861,3.99-4.3,5.988C8488.092,9823.231,8487.881,9823.156,8487.672,9823.086Zm-.152-2.916c-.923-2.949-1.7-5.405-2.467-7.857l.955-.227C8488.006,9814.283,8487.72,9816.983,8487.52,9820.17Zm-2.635,3.661c-1.642,2.105-5.448,2.4-8.92.329,5.086-1.334,6.344-5.584,8.24-9.293A7.266,7.266,0,0,1,8484.885,9823.831Zm-6.82,2.84c.07.286.141.572.205.858-2.937,1.113-5.875,2.23-9.552,3.618-.411-3.645-.718-6.378-1.1-9.753C8471.611,9823.41,8474.842,9825.04,8478.064,9826.671Zm-9.217,5.265a10.109,10.109,0,0,1,4.217-.529c7.188.514,13.289-1.549,17.992-7.2a5.546,5.546,0,0,1,.707-.627c.141.1.275.194.416.292a13.785,13.785,0,0,1-1.544,2.667c-5.789,6.286-12.76,9.834-21.524,8.894a8.368,8.368,0,0,1-2.473-1.193C8467.362,9833.442,8467.945,9832.287,8468.848,9831.936Zm15.41,1.475c-1.047,2.694-1.83,4.714-2.662,6.863-1.662-1.112-3.051-2.047-4.605-3.094C8479.264,9836,8481.38,9834.9,8484.258,9833.41Zm.352,1.037a35.883,35.883,0,0,1,3.5,3c1.042,1.123.173,3.154-1.539,3.478a25.653,25.653,0,0,1-4.331.044C8483.13,9838.513,8483.832,9836.586,8484.609,9834.447Zm1.755-.967a10,10,0,0,1,1.782-2.613c4.271-3.219,5.9-7.582,5.664-12.728a4.522,4.522,0,0,0-1.317-2.4c-1.9-2.149-4.013-4.121-5.778-6.367a3.374,3.374,0,0,1-.107-3.013c1.059-1.955,5.907-2.278,7.408-.7,3.3,3.482,6.6,6.965,10.05,10.594-3.364,5.174-6.966,10.849-10.741,16.4a5.07,5.07,0,0,1-3.186,2.129C8488.939,9834.911,8487.628,9833.961,8486.364,9833.48Zm-1.36-26.562c-1.686-1.527-3.554-3.229-5.406-4.908,5.5-2.549,7.431-2.208,8.673,1.145C8487.109,9804.494,8486.1,9805.654,8485,9806.918Zm1,3.067c-.129.205-.254.411-.383.616-3.607-2.312-7.209-4.623-11.027-7.063C8480.684,9802.091,8483.2,9806.292,8486.008,9809.985Zm-8.391-3.72a54.181,54.181,0,0,0-6.043,3.218c-3.607,2.521-3.617,3.013-1.35,7.446-2.846-.475-2.258-2.625-2.381-4.055-.266-2.992-.2-6.361,2.969-7.711A7.048,7.048,0,0,1,8477.617,9806.266Zm-8.133,11.728a29.906,29.906,0,0,0,7.35-.745,43.8,43.8,0,0,0,5.842-2.111c-1.154,4.061-3.223,6.8-6.992,8.057-.395.13-1.01.318-1.236.13-3.494-2.884-8.445-3.716-11.064-7.83-.378-.594-.756-1.188-1.221-1.911,1.5-1.577,2.927-3.089,4.363-4.6.211.064.422.13.627.2,0,1.835.383,3.779-.087,5.485C8466.385,9817.135,8467.892,9817.924,8469.484,9817.993Zm-3.338,7.015c-.3.113-.6.232-.9.346-.756-1.943-1.508-3.888-2.42-6.248C8466.72,9820.2,8466.963,9820.736,8466.146,9825.008Zm-8.223-10.638c.982.665,1.543,1.08,2.139,1.442a5.414,5.414,0,0,1,2.877,5.264c-.032,1.442.982,2.986,1.771,4.348.934,1.625,2.133,3.1,3.283,4.735-2.587,1.955-4.018,1.771-5.281-.61-2.1-3.957-4.535-7.742-6.646-11.7a3.95,3.95,0,0,1-.044-3.115c1.507-3.138,3.272-6.146,5.017-9.342l6.383.891C8464.656,9808.635,8461.547,9811.287,8457.924,9814.37Zm-6.119,30.438a72.984,72.984,0,0,1-1.857,10.6,16.535,16.535,0,0,1-3.834,7.144c-4.065,3.9-8.715,7.182-13.066,10.788-1.81,1.5-3.235.768-4.807-.355-1.841-1.323-.566-2.668.06-3.736,3.807-6.5,7.829-12.874,11.62-19.381,3.067-5.265,5.913-10.659,8.846-16.006.361-.652.669-1.344,1-2.014.178.027.352.061.529.087.08,1.112.141,2.229.248,3.337.1.977-.113,2.359.443,2.856C8453.317,9840.2,8452.119,9842.558,8451.8,9844.809Zm-4.648-31.15c-.346-1.939-.627-3.527-.907-5.115.151-.086.3-.166.454-.248.814,1.1,1.625,2.209,2.6,3.531C8448.576,9812.447,8448.047,9812.9,8447.156,9813.658Zm-6.993,20.086c-4.065,2.706-8.288,5.168-13.024,8.078v-21.145a25.539,25.539,0,0,1,13.295,9.6C8441.541,9831.747,8441.271,9833.011,8440.163,9833.744Zm-1.614,4.516c-3.2,7.111-2.678,15.82-9.72,21.178-.681.518-.962,1.738-1.669,2.02-1.16.459-2.867,1-3.736.48-5.681-3.381-11.2-7.035-16.9-10.687a17.685,17.685,0,0,1,10.362-4.9C8424.66,9845.539,8431.707,9842.32,8438.549,9838.26Zm-14.839,2.338a2.674,2.674,0,0,1-1.285,2.035c-4.989,1.426-10.028,2.684-15.065,3.947a10.276,10.276,0,0,1-2.079.017c9.52-6.669,12.036-17.123,16.566-26.745.7,3.871,1.636,7.721,2.042,11.625A54.376,54.376,0,0,1,8423.71,9840.6Zm-13.748-19.721c1.128-.3,2.251-.589,4.2-1.1-2.776,4.7-3.839,9.412-7.263,12.77-.33-.21-.658-.426-.988-.637a30.923,30.923,0,0,0,3.17-4.687,37.49,37.49,0,0,0,1.619-5.849C8410.459,9821.211,8410.21,9821.045,8409.962,9820.877Zm6-3.191c3.531,3.938,3.531,3.938,1.183,8.894a3.641,3.641,0,0,0-.228.491c-1.408,4.7-4.844,6.469-8.779,6.486,1.322-2.344,2.926-4.914,4.266-7.62C8413.73,9823.264,8414.789,9820.45,8415.967,9817.686Zm-8.932,8.451a8.662,8.662,0,0,1-2.009-1.091c-.767,2.208-1.642,4.228-2.159,6.329-.8,3.266,3,2.359,4.514,4.676-1.652.475-3,1.269-4.234,1.129-1.743-.2-3.342-.994-3.287-3.408.043-1.862-.486-3.726-.584-5.6s.318-3.952,2.387-4.3a24.423,24.423,0,0,1,6.518.323c.211.022.313,1.059.465,1.626A4.416,4.416,0,0,1,8407.035,9826.137Zm-1.15,11.906c2.327-1.117,2.922-4.984,7.015-3.893-2.106,2.057-3.991,3.9-5.978,5.842-.486-.557-.881-1-1.231-1.4C8405.777,9838.334,8405.788,9838.092,8405.885,9838.043Zm5.476-.3c-.972,4.525-5.583,8.592-9.839,8.737-1.9.065-3.969.032-4.859-3.072C8403.865,9846.742,8407.37,9841.888,8411.36,9837.74Zm-.854-25.514c-.767,3.655-1.479,7.041-2.192,10.471-1.539-.141-2.947-.362-4.363-.379-4.168-.049-6.145,1.863-6.149,6.043a43.873,43.873,0,0,0,.491,4.811,6.993,6.993,0,0,1-.1,2.814,8.307,8.307,0,0,1-2.084-6.551,44.854,44.854,0,0,1,1.576-8.164,12.181,12.181,0,0,1,7.8-8.635c4.314-1.571,7.657-5.508,13.278-5.113.529,3.186,1.069,6.414,1.711,10.248C8416.183,9816.114,8414.412,9811.665,8410.507,9812.227Zm-9.925,2.068c-1.264,1.09-2.775,2.24-3.363,3.693-1.15,2.824-1.928,5.7-4.369,7.873-.557.491-.442,2.813.173,3.326,1.712,1.437,1.981,3.294,2.36,5.184.334,1.68,1.5,2.09,2.877,2.922,2.447,1.475,6.626.1,7.409,4.3-3.3,3.019-5.589,3.029-8.774-.087-6.674-6.522-8.278-14.649-7.291-23.537a2.735,2.735,0,0,1,1.346-1.761c4.152-2.128,8.354-4.169,12.57-6.172a5.861,5.861,0,0,1,1.869-.206c.08.211.156.416.231.627C8403.936,9811.725,8402.176,9812.912,8400.582,9814.295Zm-6.3,27.35a4.193,4.193,0,0,1,.514,2.646c-.243,3.51.864,4.994,4.363,4.854,3.293-.124,6.566-.7,9.908-1.08-5.4,5.173-11.689,6.425-18.592,5.087a3.792,3.792,0,0,1-2.321-2.29,71.8,71.8,0,0,1-1.954-8.667c-.411-2.387-.633-4.85,2.354-7.311C8390.479,9837.119,8392.482,9839.3,8394.285,9841.645Zm62.871-.594c7.57,1.965,14.666,3.807,21.648,5.621-.287,7.992-4.785,12.565-11.465,15.762C8463.787,9855.7,8458.943,9849.594,8457.156,9841.051Zm16.178,22.161c2.895-3.829,5.74-7.694,8.607-11.545,1.227,4.979-1.873,9.714-2.479,15.509,1.48-1.853,2.521-3.148,3.693-4.617.9,3.439,1.762,6.729,2.619,10.017.162-.044.324-.087.492-.13q-.665-12.806-1.318-25.611c.222-.064.443-.124.664-.188,1.21,2.219,2.359,4.476,3.64,6.651,2.052,3.484,4.239,6.885,6.248,10.385a3.164,3.164,0,0,1,.345,2.586c-3.191,5.082-6.538,10.066-10.037,15.374-3.478-1.949-6.647-3.628-9.7-5.5a10.329,10.329,0,0,1-3.143-2.873C8469.954,9868.844,8470.095,9867.483,8473.334,9863.212Zm20.143-10.47c-2.711-3.721-3.656-7.658-1.237-11.789,3.159-5.395,6.556-10.653,9.854-15.967,2.613-4.217,3.2-4.633,8.688-6.026-1.128,5.313-2.225,10.3-3.229,15.3a30.112,30.112,0,0,0-.653,5.34c-.043,2.674.167,5.211-2.771,6.874-.7.4-1.069,3.013-.491,3.807,5.519,7.62,10.135,16.146,19.563,20.817-3.034,1.377-5.907,2.765-8.861,3.941-.546.216-1.556-.27-2.133-.713-4-3.029-8.067-5.945-10.832-10.346C8498.941,9860.112,8496.176,9856.445,8493.477,9852.742Zm39.461-19.607.006,0c.012.011.021.028.033.038,0-.006-.006-.01-.006-.016l-.016-.017h0c-.049-.146-.1-.292-.157-.432-.211-.54-.437-1.08-.637-1.62-.055-.135-.1-.27-.146-.41-.026-.07-.048-.136-.069-.205s-.044-.136-.065-.205c-.031-.092-.059-.179-.081-.271-.016-.049-.026-.092-.037-.141-.038-.14-.076-.28-.1-.421-.422-2.035-.346-4,2.278-5.184-4.126,5.939,1.6,8.493,4.179,12.791-.264-.2-.518-.393-.766-.576s-.486-.368-.719-.547q-.833-.63-1.576-1.187c-.362-.275-.719-.539-1.064-.8s-.686-.523-1.025-.777v.006c3.256,2.672,6.383,5.529,9.822,7.942,2.387,1.669,5.211,2.706,7.787,4.288-5.584.88-11.119,1.732-16.654.037a1.717,1.717,0,0,1-1.036-1.047,109.343,109.343,0,0,1-1.7-13.3c.578.674,1.156,1.359,1.734,2.041v0C8532.934,9833.124,8532.934,9833.129,8532.938,9833.135Zm19.727,8.326c-1.442,1.744-3.138,1.777-5.088-.1a18.4,18.4,0,0,0-3.9-2.829,4.419,4.419,0,0,1-2.629-4.266C8544.785,9836.586,8548.7,9839,8552.664,9841.461Zm-10.455-9.071c3.095,2.565,6.15,4.93,10.936,4.028-1.6,2.932-2.91,2.834-4.568,1.576-1.42-1.074-3.066-1.852-4.5-2.916A5.738,5.738,0,0,1,8542.209,9832.39Zm15.714,5.308c-3.163-1.09-5.669-1.955-8.229-2.834.228-2.857,2.047-6.259-1.426-7.819-2.375-1.069-5.334-.849-8.152-1.706,1.564-.205,3.2-.811,4.682-.557,10.054,1.75,12.549,4.639,14.131,13.742.313,1.814.88,3.586,1.42,5.74-2.673.216-4.979.405-8.008.648C8554.6,9841.985,8556.314,9839.776,8557.923,9837.7Zm-16.522-10.211a10.174,10.174,0,0,1,3.477-.178c4.1.107,5.621,2.457,4.008,6.313-.233.566-1.064.88-1.621,1.312.06-.663.113-1.333.189-2a6.253,6.253,0,0,1,.167-.724c-5.022-3.1-5.022-3.1-8.407,1.106-.227-1.663-.783-2.921-.41-3.764A4.647,4.647,0,0,1,8541.4,9827.486Zm8.1,22.507c-1.49,4.174-4.812,7.3-8.916,9.687a1.7,1.7,0,0,1-1.588-.08,27.436,27.436,0,0,1-5.162-11.416Zm-2.334,15.93c-.161.335-.323.664-.49,1-7.317-1.7-13.494-5.687-19.207-10.644Q8537.318,9861.1,8547.166,9865.923Zm-4.843-4.2c3.132-4.206,6.2-8.468,9.46-12.571.551-.691,1.939-.729,2.948-1.053,1.944-.632,3.894-1.247,5.438-1.744-.141,1.863-.223,3.574-.428,5.271a2.676,2.676,0,0,1-.739,1.345c-2.587,2.742-5.1,5.566-7.841,8.143C8548.22,9863.871,8545.59,9863.919,8542.323,9861.722Zm19.439-8.985c.626-.854.615-2.154.944-3.24a12.8,12.8,0,0,1,1.346-3.2c.523,5.146.664,10.3-.9,15.223-.352,1.112-2.635,1.879-4.163,2.284-1.68.442-3.521.281-6.086.426C8556.217,9859.967,8559.079,9856.419,8561.763,9852.736Zm1.345-9.568c-.064.308-.395.561-.988,1.365-.021-3.293-2.592-5.853-.141-8.785.313-.383.032-1.393-.168-2.052-1.106-3.661-2.273-7.306-3.66-11.745,2.711,2.657,4.914,4.785,7.078,6.955a1.643,1.643,0,0,1,.514,1.188C8564.91,9834.457,8564.02,9838.815,8563.107,9843.168Zm-4.018-10.033a33.207,33.207,0,0,0-2.479-3.959,19.124,19.124,0,0,0-3.338-2.98c-1.334-1.01-2.78-1.867-4.2-2.775s-2.8-2.23-4.373-.248c-.055.07-.141.162-.211.162-4.785-.189-6.346,3.272-7.549,7.457-1.6-2.122-2.273-3.591-.249-5.211a23.042,23.042,0,0,0,2.29-2.635c1.36-1.5,2.7-4.131,4.146-4.2,3.592-.173,7.252.789,10.865,1.415.48.081,1.036.755,1.246,1.285A78.181,78.181,0,0,1,8559.09,9833.135Zm-23.176-10.789a3.677,3.677,0,0,1-2.452.205c-2.182-.361-3.472.379-3.8,2.635-.28,1.934-.6,3.855-.934,5.951-2.625-2.829-3.365-11.334-.945-13.9,1.025-1.091,3.191-1.41,4.871-1.512,3.094-.2,6.409-1.1,9.33,1.565C8539.888,9819.063,8537.981,9820.813,8535.914,9822.346Zm-8.581,8.92c1.884,2.555,3.11,4.893,3.051,8.014-.1,5.541,1.518,10.789,3.8,15.822l1.328,2.927c-7.133-2.532-13.688-5.378-17.971-11.638a3.148,3.148,0,0,1,.216-2.894C8520.794,9839.414,8524.012,9835.467,8527.333,9831.266Zm-7.225,20.175c4.627,5.653,10.367,9.9,16.545,13.661,4.79,2.916,9.493,4.477,14.919,1.377,1.582-.9,3.824-.643,5.762-.918-5.188,4.158-10.756,6.34-17.306,4.536-6.5-1.782-13.067-3.321-19.521-5.243a9.972,9.972,0,0,1-4.811-3.18,119.3,119.3,0,0,1-7.582-11.449,3.511,3.511,0,0,1,.318-3.239,3.919,3.919,0,0,1,3.186-.907A14.224,14.224,0,0,1,8520.108,9851.44Zm7.511,17.581c4.833,1.264,9.568,2.619,14.363,3.727a14.38,14.38,0,0,0,9.931-1.5c3.764-1.906,7.608-3.66,11.317-5.674a4.845,4.845,0,0,0,2.182-2.662,43.481,43.481,0,0,0,1.188-18.431,3.646,3.646,0,0,1,1.469-2.915,4.819,4.819,0,0,1,3.747-.73c2.226.887,4.164,2.474,6.3,3.613,1.922,1.026,2.381,2.441,1.9,4.477-.626,2.619-1.128,5.27-1.582,7.927-1.221,7.2-2.295,14.4.82,22.054-7.592-1.918-14.18,1.365-21.1,2.014-5.346.5-10.2-.68-15.185-2.586-4.1-1.566-8.656-2.1-13.062-2.717-2.775-.383-5.653-.07-9.212-.07C8523.559,9873.057,8527.873,9873.186,8527.619,9869.021Zm65.457-58.334c4.277-1.23,7.652.583,11.141,4.061a14.376,14.376,0,0,0-9.369-.361c-2.408.675-5.287-.486-7.965-.615a7.121,7.121,0,0,0-7.105,4.654q2.413-1.8,4.832-3.6c.291.27.583.545.875.814-.389.745-.594,1.712-1.193,2.192a70.658,70.658,0,0,0-7.273,6.091q.292-1.125.582-2.252c-1.047,1.529-2.094,3.063-3.542,5.168-.221-3.871-.41-7.176-.589-10.249C8580.1,9814.592,8586.564,9812.557,8593.076,9810.688Zm-4.816-7.09c3.105-2.6,5.379-2.4,10.61,5.146-3.164.508-6.464,1.041-9.515,1.533C8589,9808.139,8588.648,9805.979,8588.26,9803.6Zm8.337,94.395c0-.011.017-.021.022-.033a0,0,0,0,1,0,0l.006-.006.012-.012a.011.011,0,0,0,.011-.01l0-.006.017-.016a.6.6,0,0,1-.038.081l.2-.017a.237.237,0,0,0,.063-.006c.081-.01.146-.027.168-.064,1.6-3.364,4.353-3.32,7.354-2.489a8.068,8.068,0,0,1-8.861,5.05c.367-.832.724-1.653,1.08-2.474A.1.1,0,0,1,8596.6,9897.992Zm2.321-5.907c-3.287-.826-6.743-.988-10.086-1.626a3.69,3.69,0,0,1-2.333-1.582c-3.138-6.021-3.2-8.051-.707-16.026,1.853,3.132,3.288,5.918,5.065,8.456a38.314,38.314,0,0,0,5.4,6.3,8.166,8.166,0,0,0,8.58,1.626c-.528-.437-.912-.752-1.253-1.026,2.128-2.457,4.223-4.87,6.906-7.96.265,3.678.529,6.783.643,9.893.012.346-.836.907-1.371,1.053C8606.215,9892.133,8602.715,9893.035,8598.918,9892.085Zm-23.656-10.33c1.982-.448,3.964-.9,6.4-1.452,0-2.285-.048-4.59.018-6.9.053-2.068.107-2.068,2.84-2.392-1.307,6.264-4,12.544.756,18.91C8579.6,9889.449,8576.472,9886.782,8575.262,9881.755Zm4.3,14.817c-3.413-1.912-8.483-9.536-9.547-14.472,1.4.594,2.8.734,3.175,1.426C8575.516,9887.771,8577.611,9892.139,8579.561,9896.572Zm7.2-60.91c-4.152.318-8.564-2.646-9.336-5.951-.869-3.709,2.5-8.888,7.2-10.557C8583.924,9824.986,8582.363,9830.672,8586.764,9835.662Zm.113,12.884a20.557,20.557,0,0,0-4.055-1.155c-.379-.945-.826-2.059-1.377-3.435,3.542,1.718,6.9,3.2,8.369,7.063A17.312,17.312,0,0,0,8586.877,9848.546Zm2.57,12.091c-.523,1.063-2.176,1.7-3.439,2.23a19.694,19.694,0,0,1-3.683.8c0-3.808-.032-7.273.038-10.735.01-.519.377-1.334.767-1.464.415-.135,1.123.275,1.561.621,1.183.951,2.278,2,3.423,2.992A4.457,4.457,0,0,1,8589.447,9860.637Zm6.955,17.328c.9-1.891,2.068-2.452,3.861-1.658,2.225.988,2.673,3.132,1.4,7.6-.961-.352-1.9-.691-2.393-.869.529-2.042.939-3.607,1.49-5.719C8598.918,9877.592,8597.769,9877.76,8596.4,9877.965Zm4.6,7.975c3.9-1.608,4.756-3.31,3.709-7.349-.156-.61-.361-1.2-.518-1.81-1.4-5.529-1.4-5.529-5.277-8.834,2.8-.621,9.137,1.744,10.19,4.379,1.171,2.938,1.269,6.113-1.193,8.781-1.761,1.911-3.294,4.049-5.206,5.783-.777.707-2.277.626-3.449.9q-.13-.552-.26-1.1C8599.664,9886.437,8600.345,9886.21,8601,9885.939Zm-1.016-13.051c-.092.26-.184.518-.27.777a13.938,13.938,0,0,0-2.441-.912,9.41,9.41,0,0,0-2.23.1c.13.653.227,1.313.4,1.954a11.32,11.32,0,0,0,.513,1.3c-.335.119-.67.232-1,.346q-.858-2.666-1.717-5.336l.68-.453Q8596.953,9871.776,8599.988,9872.889Zm-2.106,8.234c-1.307.939-2.225,1.6-3.688,2.656-2.354-4.006-4.627-7.867-7.154-12.166,1.918-.307,3.348-.539,5.2-.836C8592.4,9875.184,8593.595,9878.926,8597.882,9881.123Zm-11.609-10.13c.324-1.22.583-2.2.944-3.569,1.459.664,2.749,1.248,4.547,2.063Zm23.425-2.841a72.252,72.252,0,0,0-5.189-5.707c1.674-.119,2.781-.529,3.559-.2a110.85,110.85,0,0,1,10.064,4.877,3.771,3.771,0,0,1,1.508,2.916c-.1,3.105-.572,6.2-.945,9.67-2.484-.955-4.164-1.678-4.871-4.519C8613.191,9872.656,8611.295,9870.367,8609.7,9868.152Zm-2.613-1.09c-.136.237-.271.48-.406.718-1.8-.546-3.768-1.857-5.373-1.5-4.887,1.068-9.319-.924-13.963-1.259a24.533,24.533,0,0,0-5.135.681c-.065-.227-.125-.453-.189-.681,5.881-.972,11.551-3.915,17.674-2.419C8602.358,9863.25,8604.632,9865.523,8607.084,9867.063Zm-16.627-5.611c.486-2.413,1.961-5.059-1.2-7.6a10.207,10.207,0,0,1,2.723-.21c4.228,1.253,9.076,1.7,9.924,7.122C8598.266,9860.982,8594.459,9861.209,8590.457,9861.451Zm-.74-15.275c-.831.355-2.947-1.118-3.795-2.258-1.475-1.965-2.414-4.325-3.807-6.943l17.025,1.771A23.876,23.876,0,0,1,8589.717,9846.176Zm14.721-7.42c-1.922,3.871-3.758,5.178-7.225,5.3C8598.5,9839.248,8599.514,9838.48,8604.438,9838.756Zm-5.13-2.468a59.236,59.236,0,0,1-8.86-.362,3.57,3.57,0,0,1-2.273-.863c-3.51-4.045-3.667-8.715-2.23-14.218,1.068,1.479,1.8,2.657,2.7,3.688a72.685,72.685,0,0,0,7.068,7.7c3.024,2.582,6.119,2.474,9.245.324h-2.063c1.643-2.393,3.225-4.682,5.244-7.608.588,3.11,1.139,5.638,1.479,8.187a1.934,1.934,0,0,1-1.177,1.463A63.116,63.116,0,0,1,8599.308,9836.288Zm1.884-7.257c-1.279-.287-2.095-.471-2.51-.562.215-1.906.383-3.336.6-5.254-1.565.48-2.511.768-3.666,1.118.626-1.944,1.8-2.44,3.321-1.825C8602.019,9823.761,8600.625,9826.471,8601.191,9829.031Zm-3.082-8.991c-1.3-.184-2.588-.367-4.628-.659.707,1.545,1.112,2.42,1.512,3.3-.237.108-.47.216-.708.323-.69-1.474-1.377-2.947-2.413-5.161l6.334,1.69C8598.174,9819.7,8598.142,9819.873,8598.109,9820.04Zm-.891,6.853c-1.1.95-1.929,1.663-3.1,2.667-2.521-3.482-4.756-6.565-7.24-9.989,1.609-.437,2.781-.75,4.266-1.156C8591.975,9822,8593.125,9825.3,8597.219,9826.893Zm9.088-1.566a52.046,52.046,0,0,1-4.326,6.145c-.594.7-1.922.773-2.91,1.129-.1-.312-.189-.631-.281-.945.783-.42,1.582-.82,2.35-1.273,2.229-1.34,3.045-3.153,2.051-5.708-.68-1.749-.863-3.763-1.83-5.318-1.015-1.636-2.694-2.862-3.975-4.153,1.7-.75,6.993.725,8.743,2.728C8607.316,9819.295,8607.51,9823.4,8606.307,9825.326Zm-27.346,11.194c-.967,1.22-1.9,2.387-2.895,3.65-2.764-1.62-5.447-3.445-9.055-1.614v-11.811C8570.77,9830.09,8576.1,9831.682,8578.961,9836.521Zm-16.924,54.474c-3-.594-4.729-2.77-4.859-6.345,2.635-.292,5.087-.562,7.662-.849.336,1.264.643,2.371.913,3.488C8566.428,9890.06,8564.91,9891.566,8562.037,9890.994Zm-2.629,1.389c1.9.215,3.661.42,5.286.609-1.1,2.813-2.306,5.934-3.51,9.028Q8553.887,9898.084,8559.408,9892.383Zm7.527.576c1.863,4.24,3.369,7.658,4.925,11.2-2.663-.287-5.194-.557-8.116-.87C8564.765,9899.979,8565.748,9896.81,8566.936,9892.959Zm2.975,2.408c-1.619-3.649-2.408-7.667-3.574-11.522.254-.286.514-.572.768-.858.556.475,1.355.842,1.636,1.447,3.121,6.755,6.761,12.965,13.489,16.977,2.067,1.236,3.428,3.791,4.822,5.93.377.582-.049,2.111-.616,2.737a2.661,2.661,0,0,1-2.527.1C8577.957,9906.48,8572.8,9901.864,8569.91,9895.367Zm49.258-57.7.848.161c1.178,3.423,2.36,6.847,3.387,9.8-4.109,3.37-8.208,6.755-12.35,10.1-1.967,1.588-5.848,1.3-7.636-.507-1.134-1.146-2.23-2.328-3.764-3.937,6.863-1.646,12.085-5.491,17.063-9.822C8618.478,9841.932,8620.794,9840.932,8619.168,9837.666Zm-3.461,2.889a2.79,2.79,0,0,1-1.117,1.916c-5.07,2.884-10.174,5.713-15.347,8.4-.713.373-1.88-.054-2.819-.194a22.238,22.238,0,0,1-2.656-.572c-.74-.206-1.458-.5-2.187-.745,0-.416-.01-.832-.016-1.242a68.15,68.15,0,0,0,6.615-2.8c2.078-1.129,4.492-2.268,5.756-4.1a7.026,7.026,0,0,1,6.193-3.315c3.445-.146,3.364-.248,2.436-3.482-1.3-4.547-2.473-9.131-3.705-13.694,1.42,3.92,5.584,3.153,8.078,4.8C8616.539,9830.6,8616.183,9835.581,8615.707,9840.555Zm-2.359-27.9c3.871,2.705,1.129,7.073,2.047,10.87-2.582-.336-3.8-1.156-4.807-3.3-1.161-2.5-3.354-4.542-5.232-6.669a34.773,34.773,0,0,0-3.4-3c.076-.324.156-.648.232-.973C8606.312,9808.754,8610.135,9810.406,8613.348,9812.653Zm-17.41-30.229c3.387,5.795,7.01,11.557,8.656,18.269.3,1.193.572,2.711.086,3.688a4.415,4.415,0,0,1-3.007,2.295c-2.182.064-5.735-4.769-5.713-7.08.032-3.844,0-7.689,0-11.539-.086-.011-.173-.027-.254-.043-.631,3.137-1.258,6.27-1.949,9.715-.627-.816-1.129-1.475-1.637-2.129-.113.044-.221.082-.334.125.352,1.334.7,2.668.978,3.709-3.71,2.637-7.139,1.577-10.347-1.182C8586.207,9792.857,8588.189,9785.428,8595.938,9782.424Zm-15.352,20.018c3.041-1.172,8.144,4.034,7.355,7.247a3.429,3.429,0,0,1-2.031,2.058c-3.687,1.107-7.446,1.971-11.178,2.921-1,.255-2,.513-2.867.739v5.919l-.67.065c-.184-.708-.371-1.416-.7-2.641-.621,1.538-1.069,2.662-1.442,3.585-2.679-5.232-5.362-10.476-8.38-16.378A50.929,50.929,0,0,0,8580.586,9802.441Zm-24.93,3.586c.873-.156,2.358,1.037,2.984,1.992,1.961,2.965,3.689,6.086,5.422,9.2,1.031,1.856,1.9,3.812,3.057,6.154-3.98-.07-6.733-.777-8.834-3.207a57.014,57.014,0,0,0-3.969-4.4c-.939-.881-2.16-1.955-3.3-2.02-3.051-.173-4.606-1.621-5.184-5.146C8549.02,9807.723,8552.291,9806.621,8555.656,9806.027Zm-15.936-.124c1.57-.292,2.338-.044,2.895,1.366.528,1.334,1.182,2.619,1.738,3.941,1.129,2.679,2.311,4.914,6.059,4.287,1.242-.205,2.786,1.389,4.19,2.16-.173.361-.347.719-.519,1.08q-2.795-1.182-5.594-2.37c-.48-.2-1.037-.615-1.459-.513-2.915.7-5.194-.789-7.607-1.977-4.039-1.987-7.895.1-11.8.756-.346.054-.7.789-.832,1.269-1.307,4.731-3.525,9.277-2.942,14.407a2.753,2.753,0,0,1-.47,1.68c-2.83,4.406-5.707,8.78-8.748,13.434a12.49,12.49,0,0,1-3.51-1.312,3.512,3.512,0,0,1-1.187-2.845c.75-5.508,1.5-11.038,2.7-16.459a74.254,74.254,0,0,1,3.613-10.709c1.4-3.6,3.769-5.7,8.057-5.939A121.616,121.616,0,0,0,8539.721,9805.9Zm-9.2-1.788c.1.168.2.341.3.508-3.37.476-6.728,1.172-10.114,1.334-2.133.107-3.363.795-4.027,2.748-.26.762-.729,1.443-1.032,2.193-1.193,2.943-3.094,4.994-6.409,5.5a20.4,20.4,0,0,0-3.17,1.07c1.383-3-.124-4.477-2.895-5.443,1.738-3.43,3.326-6.62,4.963-9.79.891-1.733,2.1-2.2,4.186-1.718C8518.342,9801.907,8524.443,9802.943,8530.519,9804.115Zm-34.181-7.91c3.537-4.763,7.684-8.894,13.4-10.9,6.328-2.219,12.76-4.152,19.461-6.307v22.436c-4.114-.723-8.094-1.43-12.128-2.143.745-5.412,5.211-3.7,8.705-5.2h-6.335c1.377-2.927,2.539-5.4,3.705-7.879-.168-.08-.33-.161-.5-.248-1.782,3.359-3.5,6.75-5.384,10.049-.508.892-1.55,2.166-2.252,2.106-1.555-.13-3.429-.157-4.207-2.229a10.091,10.091,0,0,0-2.779-3.953c.5,1.5,1,3,1.446,4.357-4.541,3.574-5.108,9.353-8.024,14.24a13.587,13.587,0,0,1-2.052-2.642c-1.3-3.147-2.5-6.345-3.58-9.568A2.748,2.748,0,0,1,8496.338,9796.205Zm-19.531-9.174c1.34-2.01,2.927-.529,4.088.523,4.065,3.683,8.153,7.354,12.009,11.254,1.366,1.382,2.085,3.4,3.095,5.123-.222.131-.437.26-.659.39-1.069-1.836-2.462-2.792-4.687-2.333-.514.108-1.578-.653-1.814-1.242-1.14-2.8-3.127-3.143-5.682-2.349a12.815,12.815,0,0,1-1.922.237c.61-1.15,1.074-2.035,1.814-3.439-1,.7-1.539,1.08-2.209,1.55-.5-1.928-.95-3.71-1.4-5.486-.124.021-.249.048-.378.07.275,2,.626,4,.788,6.016a6.683,6.683,0,0,1-.556,2.138c-.562-.312-1.107-.658-1.686-.934-1.885-.9-3.785-1.766-5.8-2.705C8473.3,9793.16,8474.852,9789.957,8476.807,9787.031Zm-8.618,11.685c2.884-.929,6.21.254,8.77,2.274-.038.27-.076.545-.119.82-1.911.334-3.855.561-5.729,1.047-1.35.352-2.586,1.123-3.92,1.577-1.2.415-2.473.653-3.715.967-.238-.368-.476-.735-.707-1.1C8464.543,9802.361,8466.007,9799.424,8468.188,9798.716Zm-49.679-14.974c.6-1.674,1.766-1.506,3.029-1.4,4.925.406,9.844.869,14.773,1.205,8.052.539,16,.253,23.943-4.186-.9,6.664.794,12.3,2.625,17.981.508,1.588-.643,3.71-1.054,5.676-3.683-.583-3.1,2.915-4.677,4.325-3.152-1.389-3.736,2.516-6.873,2.818-1.576-2.656-3.456-5.821-5.541-9.314-5.88,0-12.479-.589-18.915.184-5.142.615-9.153-.087-12.279-4.1C8415.184,9792.6,8416.928,9788.2,8418.51,9783.742Zm-11.977,1.615c2.462,1.408,4.7,2.684,7.047,4.027-.384,1.086-.471,2.333-1.135,3.035-2.387,2.516-4.044,5.156-2.127,9.293-3.229,0-5.8.087-8.381-.027-2.672-.119-5.232-.15-7.047,3.4C8395.841,9800.271,8403.363,9787.971,8406.533,9785.357Zm-8.764,18.574a3.322,3.322,0,0,1,2.456-1.1c5.74.309,11.675-.026,17.155,1.367,9.6,2.435,18.473,6.685,25.239,14.412,2.824,3.219,1.053,6.118-.308,9.692-3.2-2.905-6.053-5.48-9.147-8.288h0c-.022.016-.07.048-.131.092-.031.021-.064.048-.1.069-.189.136-.471.329-.794.557-.675-1.253-1.339-2.483-2.106-3.9-.566.734-1.074,1.4-1.566,2.036-2.24-3.753-4.546-7.479-6.685-11.291a2.253,2.253,0,0,0-3.034-1.29c-1.025.313-2.123.4-3.148.713-2.818.857-5.465,1.6-8.434-.1-1.1-.626-3.338.087-4.747.8-2.624,1.34-4.989,3.181-7.528,4.709a11.39,11.39,0,0,1-4.26,1.527C8392.99,9810.59,8395.3,9807.193,8397.77,9803.932Zm-23.781,10.152a99.7,99.7,0,0,0,10.049-7.479c2.235-1.793,4.293-3.807,7.533-3.71.416,4.4-.437,8.235-3.618,11.378a49.085,49.085,0,0,0-4.558,4.936c-.939,1.226-2.154,2.824-2.052,4.162.318,4.057-1.421,6.286-5.687,7.458-1.5-3.473-3.191-6.933-4.477-10.535C8370.008,9817.006,8371.039,9815.893,8373.988,9814.084Zm-4.51,61.154q1.143-10.425,1.923-20.883a37.258,37.258,0,0,0-.41-5.723c.237-.065.47-.136.707-.2.858,2.63,1.868,5.222,2.538,7.9.632,2.517.724,5.179,1.432,7.674a7.568,7.568,0,0,0,2.4,3.1,5.23,5.23,0,0,0,2.484.972c6.566,1.2,9.434,5.831,11.043,12.14-4.488-2.674-5.12,1.025-6.308,3.925-4.336-1.209-8.5-2.284-12.608-3.548C8369.285,9879.552,8369.091,9878.818,8369.479,9875.238Zm-20.762.279c-2.651-6.273-5.605-12.414-8.408-18.623a6.3,6.3,0,0,1-.236-1.28c9.438-1.08,18.6-2.128,28.316-3.234-.465,5.621-.9,10.832-1.351,16.313-2.915-.881-5.329-1.572-5.5-5.1a11.741,11.741,0,0,0-1.911-5.275c.253,2.435.507,4.87.8,7.688-3.894-1.366-7.545-2.651-11.189-3.931-.075.189-.15.377-.221.572,3.013,1.253,6.025,2.512,9.05,3.753,1.657.686,3.4,1.21,4.979,2.041,1.237.653,3.2,1.663,3.213,2.532.027,2.149.136,4.72-2.8,5.789a14.435,14.435,0,0,0-4.946,3.315l6.853-2.732c-.3,2.419,1.124,3.289,2.991,3.9,3.916,1.285,7.8,2.667,11.7,4.017,1.08.373,2.154.752,3.412,1.193-1.906,2.943-3.24,5.59-7.376,5.443-2.835-.1-5.8,1.07-8.554,2.1a3.771,3.771,0,0,1-3.9-.5A39.792,39.792,0,0,1,8348.717,9875.518Zm22.939,42.783c-.648,1.713-1.395,3.4-1.891,5.146a11.97,11.97,0,0,0-.043,3.04c-4.385-1.879-8.527-3.488-12.506-5.437-2.408-1.177-1.523-3.2-.357-4.806,2.744-3.78,5.514-7.555,8.467-11.167a109.149,109.149,0,0,1,7.458-8.116,10.76,10.76,0,0,1,4.422-2.479,15.894,15.894,0,0,1-1.706,1.76c-1.377,1.054-1.631,2.307-1.441,4.013.129,1.14-.232,3.029-1,3.45-3.722,2.063-3.635,4.887-2.264,8.213.2.48.281,1.016.6,2.2-1.793-.887-3.04-1.508-4.293-2.123-.081.092-.162.189-.243.281.659.729,1.312,1.452,2.095,2.316-2.618.924-5.118,1.8-7.613,2.689.038.135.081.27.124.4,2.895-.67,5.772-1.4,8.688-1.971a7.127,7.127,0,0,1,2.381.377C8372.238,9916.827,8371.941,9917.562,8371.656,9918.3Zm9.443,17.83c-2.538-1.371-5.087-2.705-7.587-4.141a1.722,1.722,0,0,1-.777-1.334c.448-3.678.993-7.344,1.539-11,.032-.216.313-.442.534-.567a4.237,4.237,0,0,1,.994-.237,42.523,42.523,0,0,0,1.625,5.875c1,2.321,2.527,4.417,3.574,6.724a19.4,19.4,0,0,1,.908,4.119Zm1.123,2.339c-.4-2.705,1.977-5.945-.395-8.975q5.9,5.662,11.8,11.329a31.169,31.169,0,0,1,10.309-7.22,9.65,9.65,0,0,0,2.532-1.5c1.885-1.594,3.683-3.289,5.519-4.947-.006.006-.006.012-.011.018,2.046-.53,2.489,1.166,2.823,2.4a3.035,3.035,0,0,1-.874,2.608c-5.157,3.909-10.39,7.728-15.7,11.409a3.924,3.924,0,0,1-3.148.2C8390.83,9942.168,8386.656,9940.327,8382.223,9938.47Zm38.182,6.2c-4.746,1.652-9.5,3.32-14.136,5.26a76.418,76.418,0,0,0-7.565,4.18c-2.246-2.35-4.73-4.952-7.215-7.549,2.221,1.571,4.034.5,6.15-.335,6.389-2.5,12.205-5.74,16.448-11.274,1.4-1.82,2.489-3.867,3.894-6.086.762.156,1.782.361,2.884.582,1.739-6.911-.659-14.52,4.313-20.686,2.642.863,3.506,2.791,3.3,5.205a20.044,20.044,0,0,1-1.069,4.714,54.054,54.054,0,0,0-2.96,20.152C8424.639,9943.3,8424.531,9943.238,8420.4,9944.674Zm5.627,10.465c-.193.087-.389.179-.577.266a8.326,8.326,0,0,1-1.259-1.928c-.485-1.529-.707-3.139-1.166-4.672-.566-1.9.266-2.424,2.355-2.3C8425.611,9949.5,8425.821,9952.314,8426.031,9955.139Zm11.491,58.427c-2.284-4.639-4.38-8.9-6.744-13.694C8437.317,10001.924,8440.082,10007.689,8437.522,10013.565Zm116.961,19.2c-.275,5.751-.367,11.523-.929,17.242-.275,2.818-1.431,5.551-2.187,8.32-.318-.059-.637-.124-.955-.187v-15.449c-.189-.012-.378-.022-.567-.027-.567,5.858-.966,11.744-1.776,17.57-.373,2.652-1.566,5.184-2.387,7.766-.442-.055-.885-.113-1.328-.173q-.422-7.5-.837-15.012c-1.011,10.433-4.407,19.8-12.9,27.183.523-1.285.924-2.268,1.561-3.828-2.812,2.722-5.34,4.887-7.527,7.354-3.25,3.65-7.23,4.692-11.912,4.266-3.941-.362-7.895-.437-11.312-2.894a2.363,2.363,0,0,0-2.176.14c-9.633,7.192-24.846,1.847-30.687-7.592-.184-.286-.389-.562-.972-1.415.129,1.664.205,2.656.275,3.516-10.535-1.475-10.4-9.218-10.422-17.14-.351,3.04-.708,6.08-1.091,9.434-3.311-3.839-5.567-7.657-4.687-12.9a40.255,40.255,0,0,0-.75-17.129,1.668,1.668,0,0,0-.832-1.091c-.308,6.1-.621,12.2-.939,18.473-2.354-1.976-2.359-1.976-2.105-5.95a30.122,30.122,0,0,0-.049-6.566c-.594,2.2-1.187,4.406-1.928,7.139-1.135-15.168-2.219-29.78-3.289-44.149,2.1,6.172,4.326,12.69,6.545,19.213l.448-.048c-.1-1.6-.2-3.2-.3-4.8,3.617,4,4.644,9.386,7.721,13.706-1.36-4-2.98-7.928-4-12.01-1.032-4.1-1.469-8.348-2.16-12.527.383-.087.766-.179,1.149-.266,1.085,3.531,2.5,7,3.181,10.617a54.388,54.388,0,0,0,7.971,20.131c.307.469,1.139.566,1.57.992,1,.983,1.9,2.063,2.852,3.122.081-.222.275-.745.465-1.264.242-.1.485-.2.729-.3.875,1.6,1.75,3.2,2.754,5.055.125-.929.232-1.7.34-2.517,4.266.918,3.3,5.422,5.795,8.051-.244-2.035-.443-3.715-.691-5.842,4.2,1.565,3.2,5.68,5.27,8.434.184-1.879.336-3.461.492-5.141,1.221-.059,2.359-.113,3.726-.184q.778,2.511,1.562,5.033c.129-.017.258-.027.389-.043-.146-1.6-.287-3.207-.481-5.389,1.663.334,3.569.172,4.423,1.041s.67,2.781,1.35,4.234c.26-1.367.519-2.728.837-4.4,4.276-.141,2.425,4.828,5.233,6.006.3-1.912.615-3.873.923-5.811h3.32c.13,1.841.249,3.59.384,5.534,2.684-1.56,1.571-6.6,6.264-6.161.33,1.366.7,2.895,1.074,4.423.1,0,.211.011.314.021.21-1.485.42-2.97.615-4.342h5.355c-.285,1.571-.566,3.1-.918,5.011,2.549-2,1.395-6.981,6.318-6.242.26.9.594,2.047.994,3.43,1.209-2.527-.027-6.285,4.319-6.658.259.557.616,1.313,1.188,2.527.491-2.258.9-4.1,1.3-5.951l.519-.032c.205.767.405,1.533.648,2.446,1.047-1.738,2.062-3.408,3.466-5.729.508,1.518.708,2.111,1.129,3.375,1.982-3.78,3.688-7.021,5.395-10.265-.178-.092-.352-.184-.523-.275q-1.781,3.36-3.559,6.723c-.2-.086-.395-.178-.594-.265.848-3.122.939-6.782,2.694-9.267,5.092-7.225,6.706-15.389,7.97-23.791a21.6,21.6,0,0,1,2.041-6.523c.271,12.441-4.924,23.689-7.494,35.531,6.383-9.59,7-21.156,10.281-31.806.355.044.718.092,1.074.141q-.438,9.437-.869,18.862c.141.043.285.08.432.118q.94-3.872,1.885-7.737c.092,0,.184,0,.275,0Q8554.824,10025.311,8554.483,10032.762Zm-108.089-27.879c.8,4.477,1.49,8.311,2.219,12.371C8445.066,10015.066,8443.976,10009.537,8446.395,10004.883Zm18.927,32.3v4.105c-.3.123-.6.242-.907.366-.676-1.452-1.35-2.91-2.316-4.989C8463.793,10036.936,8464.533,10037.055,8465.321,10037.184Zm-1.351-10.281c.228-.178.768-.285.918-.15a2.652,2.652,0,0,1,.563,1.074c.054.146-.038.346-.07.519-.222,1.274-.443,2.554-.676,3.909C8463.383,10031.223,8462.961,10027.676,8463.971,10026.9Zm-1.506,4.516c-2.4-1-2.6-2.307,0-5.482Zm10.708,5.086c-4.1-.724-4.979-4.287-2.155-8.008C8473.383,10029.608,8473.955,10031.677,8473.173,10036.5Zm.659,4.055c.123,1.777.258,3.7.393,5.687-3.174-.458-4.416-2.532-4.3-6.7C8471.277,10039.9,8472.39,10040.188,8473.832,10040.559Zm-4.369,3.219c-2.5-.551-3.121-1.723-2.895-5.459C8468.967,10038.28,8468.967,10038.28,8469.463,10043.777Zm-.422-9.055c-3.5-1.609-3.844-3.895-1.775-8.154C8471.477,10028.533,8467.752,10031.822,8469.041,10034.723Zm5.573,1.02c-.669-1.426.022-3.677.589-5.41.215-.648,1.8-1.227,2.684-1.135.637.061,1.576,1.237,1.658,2,.227,2.111.08,4.271.08,7.388C8477.563,10037.5,8475.213,10037.027,8474.614,10035.742Zm4.812,11.178c-.033.75-.9,2.1-1.274,2.063-.88-.08-2.229-.686-2.431-1.36a46.672,46.672,0,0,1-1.042-6.323h4.487A52.837,52.837,0,0,1,8479.426,10046.92Zm17.16-7.079a35.882,35.882,0,0,1-6.977-.642c-.361-.055-.875-1.107-.81-1.632a29.3,29.3,0,0,1,1.339-7.079,5.535,5.535,0,0,1,3.488-2.668,3.145,3.145,0,0,1,3.84,2.549c.513,2.246.686,4.574,1.117,7.668C8498.109,10038.49,8497.369,10039.809,8496.586,10039.841Zm.961,10.676c-.092.707-1.289,1.264-1.98,1.89-.52-.648-1.285-1.22-1.512-1.955-.6-1.922-.962-3.92-1.432-5.967,1.76-.1,3.245-.188,5.021-.3A49.136,49.136,0,0,1,8497.547,10050.517Zm-6.182-6.3c.161,2.527,1.117,5.156-1.162,7.512-3.418-1.81-2.3-5.13-3.32-7.879C8488.551,10043.988,8489.853,10044.091,8491.365,10044.215Zm-3.98-4.854c-2.078-.523-4.773-.458-6.031-1.771-.854-.892.265-3.727.615-5.67a5.834,5.834,0,0,1,.9-1.934c1.182-1.836,3.219-1.874,3.85.162a67.806,67.806,0,0,1,1.561,8.461C8487.984,10038.858,8487.688,10039.112,8487.385,10039.36Zm-2.246,3.5c.265,1.734.923,3.543.675,5.223-.179,1.22-1.55,2.268-2.392,3.391-.918-1.021-2.36-1.912-2.641-3.084-.448-1.857-.119-3.893-.119-6.01C8482.012,10042.525,8483.459,10042.682,8485.139,10042.859Zm24.574-3.709a84.4,84.4,0,0,1,2.533-8.451c.686-1.664,2.4-1.572,3.039.037a92.108,92.108,0,0,1,2.576,8.846C8514.957,10039.426,8512.77,10039.313,8509.713,10039.15Zm7.819,3.979c-.362,2.532-.589,4.821-1.058,7.058-.131.631-.956,1.123-1.464,1.68-.653-.648-1.771-1.227-1.879-1.95a39.152,39.152,0,0,1-.093-5.718C8514.443,10043.863,8515.718,10043.562,8517.532,10043.13Zm-5.054.5c-.9,3.165-1.674,5.923-2.582,9.137-3.439-2.565-3.726-5.39-3.6-8.618C8508.115,10044,8509.9,10043.848,8512.479,10043.632Zm-7.949-3.3c-3.563-.1-5.26-1.441-4.9-4.266a19.421,19.421,0,0,1,1.625-6.129,3.465,3.465,0,0,1,6.366.151,38.816,38.816,0,0,1,1.749,6.106C8509.039,10039.221,8507.705,10040.419,8504.529,10040.332Zm1.328,3.559c-.967,2.885-1.842,5.477-2.748,8.164-3.25-1.689-4.018-3.9-3.229-8.164Zm17.814-8.035a3.217,3.217,0,0,1-1.658,2.1,18.442,18.442,0,0,1-3.947,1,62.347,62.347,0,0,1,.119-8.013c.119-.908,1.6-1.643,2.468-2.452.8.875,1.944,1.62,2.333,2.651A12.16,12.16,0,0,1,8523.672,10035.855Zm.081,5.988c-.681,2.68-1.123,4.936-1.88,7.091a2.486,2.486,0,0,1-2.014,1.264c-.523-.038-1.258-1.112-1.387-1.819a42.965,42.965,0,0,1-.411-4.877C8519.951,10042.951,8521.48,10042.509,8523.753,10041.844Zm3.024-1.5c1.117,4.515.566,5.945-2.662,6.885C8523.985,10041.277,8523.985,10041.277,8526.777,10040.349Zm-2.684-2.419c.432-3.613.771-6.426,1.106-9.239a6.816,6.816,0,0,1,2.321,7.226C8527.344,10036.639,8525.74,10037.006,8524.094,10037.93Zm5.275-9.865c2.057,3.18,1.717,7.171-.891,7.84C8529.1,10033.3,8526.874,10030.569,8529.369,10028.064Zm1.27,11.091c.129,2.106.755,4.385-2.533,4.983C8528.143,10042.006,8526.8,10039.387,8530.639,10039.155Zm3.7-1.307c-.686,1.7-1.258,3.094-1.824,4.5-.346-.135-.7-.271-1.042-.41C8531.34,10040.154,8530.687,10038.107,8534.336,10037.849Zm-.464-9.477c.194-.124.39-.255.578-.384a9.554,9.554,0,0,1,1.651,2.684c.179.777-.4,1.729-.646,2.6-.357-.086-.713-.173-1.07-.265C8534.213,10031.461,8534.045,10029.916,8533.872,10028.372Zm-2.2,6.733c-.237-2.171-.491-3.915-.572-5.664-.021-.454.5-.935.772-1.4.421.346,1.166.658,1.2,1.047C8533.295,10031.056,8534.807,10033.346,8531.669,10035.105Zm28.722-19.683c-2.889-6.642-1.23-11.571,4.769-14.487Q8562.77,10008.176,8560.391,10015.423Zm4.623-79.734c.637,5.448,1.463,10.876,2.4,16.28.389,2.252.373,4.224-1.166,6.043a2.823,2.823,0,0,0-.605,1.987c.773-.675,1.539-1.345,2.469-2.149,2.046,4.893-1.836,8.343-2.738,12.723a4.989,4.989,0,0,1,1.377-.416c1.1.032,2.2.178,3.3.275a13.506,13.506,0,0,1-.4,2.948c-.82,2.263-1.82,4.455-2.749,6.674.2.13.395.254.589.378,1.593-2.234,3.186-4.466,4.85-6.8a.108.108,0,0,1-.033,0,.113.113,0,0,1,.107-.011c4.8,1.544,5.061,1.895,3.436,6.781a39.028,39.028,0,0,1-12.226,18.105c-2.122,1.75-5.632,1.82-8.5,2.658-.076-.211-.15-.416-.227-.621q2.834-3.92,5.681-7.836l-.438-.486c-4.384,5.027-10.491,7.242-16.139,10.18a11.258,11.258,0,0,0-6.205,8.6c-.584,3.363-.967,6.76-1.469,10.141-.107.729-.335,1.442-.648,2.732a23.173,23.173,0,0,1,7.025-24.482,10.216,10.216,0,0,0-8.121,7.425c-1.593,5.308-2.451,10.837-3.623,16.27-.13.594-.2,1.2-.3,1.809l-.783.341c-.88-1.713-1.766-3.424-2.8-5.433a26.346,26.346,0,0,1-.049,3.753,5.563,5.563,0,0,1-1.059,1.781c-.485-.4-1.171-.7-1.42-1.22a33.977,33.977,0,0,0-2.721-5.276c.313,1.972.631,3.938.967,6.027-1.9.308-3.791.609-5.865.944-.453-1.01-.912-2.046-1.668-3.736v3.866h-4.893c-.41-1.7-.859-3.553-1.453-6-.561,1.945-.955,3.3-1.354,4.666-2.149.217-4.261.432-6.842.7-.13-2.916-.265-5.865-.395-8.812-.205-.039-.41-.07-.615-.1-.783,2.879-1.562,5.752-2.354,8.673h-7.084c-.082-.95-.174-2.068-.271-3.181-.141-.027-.286-.055-.433-.081-.351,1.49-.707,2.986-1.068,4.52-2.047.13-3.979.259-6.285.405.146-1.512.275-2.8.469-4.812-.8,1.587-1.273,2.522-1.8,3.575-1.328-.346-2.6-.676-4.007-1.049.222-3.72.437-7.365.653-11.01-.194-.026-.383-.055-.572-.081-.48,2.544-.945,5.087-1.453,7.625a5.109,5.109,0,0,1-.68,2.3,15.606,15.606,0,0,1-2.711,2.053,24.412,24.412,0,0,1-.572-2.754c-.049-.5.221-1.025-.006-1.739-.627,1.042-1.252,2.09-1.842,3.072a2.944,2.944,0,0,1-.637.1c-5.519-.551-9.558-2.608-9.676-9.034a18.152,18.152,0,0,0-1.135-4.434c-1.728-6.025-4.434-8.234-10.707-8.748-.979-.08-1.961-.092-3.035-.14,5.178-4.212,10.708-1.307,16.469,8.516.336-6.448-6.479-14.212-13.9-12-1.637.492-3.283.939-4.952,1.318-4.5,1.025-8.288-.3-10.762-4.19-2.937-4.622-5.659-9.391-8.332-14.181-1.577-2.84-.837-4.443,2.878-7.105,3.51,2.684,7.053,5.389,10.59,8.089.1-.087.205-.179.308-.271-2.058-3.525-4.153-7.03-6.146-10.589a4.437,4.437,0,0,1-.519-2.462c.427-4.358,1.243-8.693,1.421-13.057.329-8.154.318-16.324.442-24.2-1.069,3.938-2.252,8.273-3.585,13.192-.881-9.752.891-18.489,4.066-26.962.377-1.015,2.1-1.522,3.51-2.473v13.781c2.623-2.295,5.141-4.4,7.537-6.627,2.522-2.344,5.131-4.141,8.861-3.2a4.611,4.611,0,0,0,3.148-.626q-7.233-2.1-14.472-4.19c0-.249-.011-.5-.021-.745,13.5-7.474,25.287-16.48,29.04-32.168,3.543,1.059,6.955,1.934,10.26,3.105,5.595,1.982,9.666-.578,13.041-4.471,2.387-2.76,4.19-6.032,6.4-9.293.626,1.1,1.242,2.122,1.8,3.169a9.966,9.966,0,0,0,9.24,5.509c6.928.074,13.861-.1,20.778.2a28.708,28.708,0,0,1,8.808,1.879c3.931,1.5,7.65,3.564,11.447,5.4,1.776.858,2.83,5.589,1.857,7.365-1.1,2.009-1.955,4.158-2.862,6.134,2.36,1.47,4.325,2.689,6.286,3.909a1.938,1.938,0,0,1,.837,2.928,21.09,21.09,0,0,0-1.345,3.234c-1.69,4.957-4.553,8.023-10.346,6.847a8.185,8.185,0,0,0-2.836.486c-.01.361-.016.718-.021,1.075a26.468,26.468,0,0,0,5.276.879,4.461,4.461,0,0,1,4.071,2.025c1.717,2.283,3.494,4.515,5.594,7.215,1.07-5.082,2.036-9.687,3-14.289,9.925,2.123,14.438,11.016,15.341,19.272.68,6.2.021,12.55-.07,18.829a4.36,4.36,0,0,1-.432,2.1,7.09,7.09,0,0,1-1.647,1.452,5.85,5.85,0,0,1-.782-1.776c-.514-6-.956-12.015-1.421-18.024-.054-.67-.13-1.335-.194-2l-.658-.049c-.589,3.089-1.178,6.177-1.836,9.644-2.4-3.952-2.868-8.088-3.479-12.176-.609-4.051-1.193-8.105-1.787-12.155l-.739.081C8564.105,9925.234,8564.408,9930.479,8565.014,9935.688Zm24.244-1.608c-4.352-4.736-8.337-9.072-12.316-13.4.135-.184.271-.362.4-.541,4.833,2.182,9.661,4.369,14.7,6.643C8591.089,9929.264,8590.285,9931.385,8589.258,9934.08Zm11.232-9.277c-1.609,1.172-2.7,1.447-4.443.3-8.246-5.384-16.908-9.807-26.605-12.123-5.039-1.2-6.621-3.688-6.016-7.922,9.125-.491,15.271,5.979,23.047,9.326.539-1.312,1.058-2.582,1.555-3.791,7.662,1.836,14.817-.086,21.615-3.229a65.761,65.761,0,0,0,10.924-6.906c.951-.7,1.043-2.576,1.68-4.311.994,4.239,1.944,8.289,2.916,12.447C8615.529,9911.594,8608.5,9918.965,8600.49,9924.8Zm29.181,6.652c-.011.5-1.236,1.453-1.776,1.377-2.809-.41-5.9-.5-8.278-1.8-4.125-2.263-7.8-5.34-12.063-8.358l5.66-4.758c3.191,2.895,6.3,5.713,9.4,8.526.173-.13.346-.253.519-.384-1.308-2.1-2.614-4.2-4.018-6.469l2.425-.453-5.309-2.473c.043-.275.092-.551.141-.832,2.932-1.479,5.869-2.959,9.094-4.579A43.485,43.485,0,0,1,8629.671,9931.455Zm10.028-21.06c-8.608,1.647-11.492-.739-11.664-9.773l7.555,3.8c.069-.13.135-.254.205-.383-2.9-2.187-5.908-4.245-8.619-6.643-.739-.654-.577-2.332-.848-3.635,4.363.832,12.361,8.727,16.184,15.871C8641.545,9909.9,8640.639,9910.217,8639.7,9910.4Zm-106.729-77.233-.016-.017c-.006,0-.006-.006-.012-.006.012.011.021.028.033.038C8532.977,9833.172,8532.971,9833.168,8532.971,9833.162Zm0,0-.016-.017c-.006,0-.006-.006-.012-.006.012.011.021.028.033.038C8532.977,9833.172,8532.971,9833.168,8532.971,9833.162Zm0,0-.016-.017c-.006,0-.006-.006-.012-.006.012.011.021.028.033.038C8532.977,9833.172,8532.971,9833.168,8532.971,9833.162Z" fill="#432a00"/>
    <path id="Path_1262" data-name="Path 1262" d="M8579.1,10073.4a6.412,6.412,0,0,1-.352,1.577c-6.631,12.927-16.016,22.782-30.611,26.3-3.2.772-6.793.389-10.125-.049-4.261-.562-7.284-3.11-9.256-7.042a60.048,60.048,0,0,1-6.544-20.7c-.924-8.629,1.1-12.377,8.958-16.043,7.8-3.645,15.795-6.857,24.64-5.335,4.428.767,8.715,2.366,13.381,3.678.07-6.021-5.735-6.545-9.86-9.05a4.9,4.9,0,0,1,1.318-.481,9.856,9.856,0,0,1,1.29.318c7.258.875,10.6,4.828,11.194,12.258.658,8.251,1.625,16.367-1.718,24.343.254.092.508.189.767.286q3.265-5.111,6.528-10.222C8578.842,10073.3,8578.972,10073.345,8579.1,10073.4Z" transform="translate(-86.754 -124.972)" fill="#432a00"/>
    <path id="Path_1263" data-name="Path 1263" d="M8713.383,10079.316c-.136,8.839-2.381,16.561-9.7,22.22-4.12,3.181-8.5,4.1-13.4,2.3-4.217-1.544-8.445-3.066-12.619-4.719-10.3-4.082-13.937-12.922-15.777-22.8a24.031,24.031,0,0,1,.1-8.79c1.193-6.118,4.784-10.356,11.059-11.912,7.1-1.755,14.2-2.192,21.3-.038,8.468,2.576,14.245,8.251,17.788,16.135C8713.145,10073.975,8713,10076.767,8713.383,10079.316Z" transform="translate(-150.934 -128.588)" fill="#432a00"/>
    <path id="Path_1264" data-name="Path 1264" d="M8639.806,10131.568c-3.175,5.281-8.764,5.039-11.669-.371-.589-1.1-1.015-2.273-1.614-3.646a12.8,12.8,0,0,1-1.237,2.549c-1.29,1.565-2.462,3.483-4.142,4.423-5.955,3.331-11.652-.076-10.875-6.771.594-5.114,2.284-10.137,3.845-15.088a150.018,150.018,0,0,1,5.379-14.385c1.111-2.587,2.91-4.871,4.395-7.3.271-.437.708-.88.735-1.339.248-5.113.545-10.228.588-15.346.021-2.4-.961-3.191-3.229-3.549,1.188-.923,2.431-1.89,3.932-3.061-.912-.508-1.479-.827-2.182-1.216.373-.519.718-1,1.01-1.4,1.479,1.766,2.927,3.488,4.368,5.211-.059.069-.124.135-.184.2a3.659,3.659,0,0,0-.95-.719c-.848-.275-1.733-.432-2.6-.637.1.8.205,1.609.281,2.414.1,1.063.227,2.133.231,3.2.027,4.931.011,9.86.011,14.968,3.926.486,6.609,3.094,8.121,7.016,2.679,6.949,5.406,13.888,7.911,20.908C8643.688,10122.567,8642.387,10127.275,8639.806,10131.568Z" transform="translate(-127.323 -133.625)" fill="#432a00"/>
    <path id="Path_1265" data-name="Path 1265" d="M8700.711,10156.639c-3.234,1.334-6.518,2.565-9.7,4.023a18.162,18.162,0,0,0-10.687,13.295c-.982,4.558-1.8,9.152-2.7,13.731-.082.027-.162.054-.244.087,0-6.464-.215-12.934.07-19.386.211-4.644,3.165-7.766,7.625-8.812A143.124,143.124,0,0,1,8700.711,10156.639Z" transform="translate(-158.193 -175.748)" fill="#432a00"/>
    <path id="Path_1266" data-name="Path 1266" d="M8569.062,10176.5c-.983-2.483-1.771-5.017-2.959-7.349-2.4-4.715-5.027-5.811-10.141-4.424-4.056,1.092-8.078,2.307-12.112,3.468,6.161-3.462,12.171-7.663,19.909-6.562a6.3,6.3,0,0,1,5.729,4.85C8571.151,10171.967,8571.232,10172.318,8569.062,10176.5Z" transform="translate(-96.802 -177.965)" fill="#432a00"/>
    <path id="Path_1267" data-name="Path 1267" d="M8671.846,10128.1a11.115,11.115,0,0,1-2.636-.433c-6.259-2.667-12.026-11.852-11.7-18.721.027-.551.961-1.059,1.669-1.787C8661.191,10115.982,8665.127,10122.749,8671.846,10128.1Z" transform="translate(-149.08 -152.987)" fill="#432a00"/>
    <path id="Path_1268" data-name="Path 1268" d="M8655.825,10066.07c-5.379,5.723-5.93,12.852-6.664,20.119-1.053-4.434-2.105-8.866-3.261-13.715.62.438.972.68,1.484,1.042C8649.091,10069.86,8651.656,10067.123,8655.825,10066.07Z" transform="translate(-143.747 -134.085)" fill="#432a00"/>
    <path id="Path_1269" data-name="Path 1269" d="M8574.356,10187.992c-2.149-6.291-3.817-12.885-10.826-16.1.886.061,1.782.061,2.656.189,7.036,1.021,8.132,2.225,8.343,9.261A58.73,58.73,0,0,1,8574.356,10187.992Z" transform="translate(-105.855 -182.763)" fill="#432a00"/>
    <path id="Path_1270" data-name="Path 1270" d="M8629.129,10041.26c-.156.14-.313.275-.464.415-3.02-3.138-6.021-6.29-9.072-9.4a21.975,21.975,0,0,0-2.4-1.842c5.863-.906,9.757,1.928,10.718,7.452A20.306,20.306,0,0,0,8629.129,10041.26Z" transform="translate(-130.539 -117.616)" fill="#432a00"/>
    <path id="Path_1271" data-name="Path 1271" d="M8655.293,10029.98c-3.58,3.143-7.273,6.387-10.973,9.633-.205-.248-.41-.5-.62-.745C8644.58,10034.181,8649.17,10030.714,8655.293,10029.98Z" transform="translate(-142.734 -117.483)" fill="#432a00"/>
    <path id="Path_1272" data-name="Path 1272" d="M8679.05,10303.289c-1.351,4.271-8.765,10.654-12.89,11.043v-7.117c2.343,3.084,4.363,1.664,6.431.275C8674.708,10306.064,8676.873,10304.7,8679.05,10303.289Z" transform="translate(-153.066 -243.209)" fill="#432a00"/>
    <path id="Path_1273" data-name="Path 1273" d="M8603.6,10306.719c-.5,2.781-.82,4.823-1.236,6.842-.329,1.583-1.29,1.988-2.44.811-2.1-2.154-4.077-4.434-6.1-6.664.178-.178.356-.355.528-.534,1.874,1.161,3.748,2.322,5.682,3.516C8601.082,10309.521,8602.076,10308.415,8603.6,10306.719Z" transform="translate(-119.789 -244.787)" fill="#432a00"/>
    <path id="Path_1274" data-name="Path 1274" d="M8572.572,10282.33c-3.812-1.085-8.774-7-9.422-10.34C8566.228,10275.365,8569.4,10278.848,8572.572,10282.33Z" transform="translate(-105.68 -228.811)" fill="#432a00"/>
  </g>
</svg>
