<svg xmlns="http://www.w3.org/2000/svg" width="262.436" height="315.306" viewBox="0 0 262.436 315.306">
  <g id="Group_2358" data-name="Group 2358" transform="translate(-2987.371 -8855.671)">
    <path id="Path_1644" data-name="Path 1644" d="M3027.54,8994.287c4.489,25.494,17.562,43.258,39.057,55.283-2.7-.6-5.409-1.2-8.69-1.912-1.5,7.941-2.95,15.668-4.446,23.674,2.79.416,4.842.727,7.2,1.092-.674,2.137-1.272,3.975-1.828,5.836-2.747,9.18-5.526,18.361-8.188,27.564-1.015,3.484-.973,6.605,3.1,8.51,1.026.48,1.71,2.426,1.892,3.783a46.1,46.1,0,0,1,.085,6.51c13.136,2.715,25.728,5.3,38.415,7.908.406-1.219.962-2.9,1.657-4.949,2.116.162,4.211.4,6.306.492,9.6.418,19.2,1.166,28.785,1.037,4.532-.064,7.792.021,7.728,4.854,10.924-2.148,21.666-4.4,32.462-6.3,3.559-.631,6.8-.715,6.242-5.707a3.494,3.494,0,0,1,1.978-2.693c4.746-1.477,4.479-4.713,3.527-8.5-3.014-12.035-5.943-24.092-8.733-35.434,1.379-1.283,3.581-2.49,3.452-3.355-1.058-7.289-2.554-14.525-3.912-21.773-3.132.492-5.43.855-7.728,1.209-.181-.418-.363-.834-.545-1.262,1.6-1.133,3.164-2.318,4.821-3.389,6.712-4.307,14.066-7.867,20.073-13.008,16.375-13.98,25.108-31.82,24.969-54.8C3154.768,9011.2,3092.3,9012.918,3027.54,8994.287Zm118.132,103.008c-2.522,11.93-2.565,11.939-14.622,13.447-7.781.961-15.552,1.869-24.306,2.918a10.9,10.9,0,0,1-2.725-2.342c-4.094-6.264-8.177-12.527-11.9-19a8.451,8.451,0,0,1-.4-5.922c2.042-7,4.275-13.949,6.873-20.758.652-1.721,2.758-3.795,4.468-4.072,8.947-1.486,18.01-2.3,26.978-3.654,3.036-.449,4.96.244,6.787,2.7,4.136,5.568,10.732,10.4,12.228,16.525C3150.546,9083.219,3147.1,9090.551,3145.672,9097.295Z" transform="translate(2.766 8.49)" fill="#403347"/>
    <path id="Path_1645" data-name="Path 1645" d="M3215.5,8975.8a159.784,159.784,0,0,0-25.963-51.07c-13.853-18.021-31.66-29.661-54.737-31.4a131.181,131.181,0,0,0-59.077,9.235c-16.236,6.477-29.949,16.278-39.8,30.965-11.651,17.38-13.575,36.619-10.9,56.811.6,4.585,2.5,6.723,7.033,7.846,23.964,5.953,48.238,8.988,72.94,8.048,7.119,0,14.259.321,21.356-.053,30.634-1.593,59.6-9.225,86.536-24.188C3215.684,8980.427,3216.507,8979.091,3215.5,8975.8Zm-100.5-20.479a30.7,30.7,0,0,1-61.375-1.646c.428-17.123,14.4-30.2,31.778-29.726A30.426,30.426,0,0,1,3115.007,8955.318Zm46.015,7.205c-10.517-.043-17.625-7.782-17.615-19.177.011-10.858,8.167-19.773,18.139-19.848,10.421-.075,17.765,7.78,17.829,19.068C3179.449,8953.939,3171.508,8962.565,3161.022,8962.523Z" transform="translate(2.519 2.568)" fill="#403347"/>
    <path id="Path_1646" data-name="Path 1646" d="M3042.8,9041.161c-1.625,8.68-3.228,17.306-4.639,24.852-7.428,1.636-13.98,3.378-20.64,4.489-10.048,1.656-19.422-.075-27.62-6.616-2.6-2.073-3.442-4-1.368-7.13,2.619-3.955,4.714-8.273,6.98-12.324,3.89,1.283,7.322,2.727,10.892,3.517,3.88.855,7.589-.021,9.716-3.772,2.3-4.041,1.571-8.049-1.646-11.223-2.608-2.576-5.729-4.65-8.946-7.215,2.479-5.7,5.013-11.513,7.888-18.118,12.367,7.674,23.013,15.905,24.413,31.777C3039.242,9039.9,3040.707,9040.423,3042.8,9041.161Z" transform="translate(0 10.465)" fill="#403347"/>
    <path id="Path_1647" data-name="Path 1647" d="M3234.127,9066.08c-8.262,6.67-17.572,7.824-27.662,5.814-6.627-1.326-13.307-2.395-20.864-3.74-1.39-7.248-3.025-15.746-4.821-25.086,7.461.49,7.1-5.281,8.722-10.006,3.613-10.486,11.715-16.92,21.517-22.383,2.576,5.857,4.981,11.352,7.685,17.508-1.3.91-2.693,1.818-4,2.822a38.281,38.281,0,0,0-4.9,4.041c-3.121,3.346-4.821,7.354-2.234,11.607s7.011,5.387,11.672,4.457c3.26-.65,6.381-2.072,10.251-3.377,2.127,4.168,4,8.178,6.178,12.014C3237.26,9062.531,3236.4,9064.252,3234.127,9066.08Z" transform="translate(13.32 10.676)" fill="#403347"/>
    <path id="Path_1648" data-name="Path 1648" d="M3226.274,8910.646c-.78,4.478-3.9,6.018-8.209,5.526-.834-.1-1.668-.225-2.939-.406-.834,5.1.833,11.213-6.456,13.04,3.324,6.712,6.413,12.986,9.694,19.624-5.622,2.961-10.763,5.665-14.771,7.771-9.214-14.12-18.16-27.844-27.513-42.189,2.394-2.554,5.644-6.038,9.94-10.635,6.018,6.039,11.768,11.93,17.679,17.657,1.155,1.134,3.538,2.673,4.243,2.234a8.22,8.22,0,0,0,3.175-4.682c.823-3.207.759-6.638,1.486-9.887,1.047-4.692,4.436-6.991,8.433-6C3225.152,8903.731,3226.99,8906.563,3226.274,8910.646Z" transform="translate(12.996 3.224)" fill="#403347"/>
    <path id="Path_1649" data-name="Path 1649" d="M3188.379,9142.259c-20.565,1.721-40.606,3.4-62.529,5.237,2.138-3.763,3.591-6.1,4.821-8.551.833-1.679,2.074-3.581,1.892-5.248-.438-4.266,1.507-6.253,5.27-7.087,10.336-2.309,20.693-4.575,31.628-6.979.192,3.067.3,4.714.406,6.552C3178.032,9128.737,3184.136,9133.739,3188.379,9142.259Z" transform="translate(9.537 18.178)" fill="#403347"/>
    <path id="Path_1650" data-name="Path 1650" d="M3098.091,9145.958c-20.64-1.743-40.574-3.432-61.011-5.151a29.608,29.608,0,0,1,18.93-16.247c-.267-1.775-.5-3.3-.812-5.408,12.367.929,24.188,2.617,35.433,7.289.716.3,1.828,1.219,1.742,1.656-1.144,5.954,3.089,9.846,5.344,14.494C3098.07,9143.328,3097.931,9144.3,3098.091,9145.958Z" transform="translate(3.424 18.145)" fill="#403347"/>
    <path id="Path_1651" data-name="Path 1651" d="M3023.19,8969.275c-6.242-2.576-11.6-4.788-18.246-7.535,2.106-7.215,3.869-14.4,6.328-21.324,2.042-5.761-1.849-12.912-7.856-13.318-1.946-.139-3.9-.268-5.836-.513-4.767-.62-7.45-3.56-6.916-7.761.534-4.232,3.217-6.392,7.322-6.092,4.446.32,6.531,3.152,6.413,7.578-.021.674-.107,1.336-.214,2.65,7.952-2.715,8.69,4.041,11.137,8.444,6.413-6.05,12.527-11.811,18.865-17.786,2.822,2.522,4.906,4.393,7.482,6.691C3028.085,8933.586,3021.854,8949.662,3023.19,8969.275Z" transform="translate(0.222 3.928)" fill="#403347"/>
    <path id="Path_1652" data-name="Path 1652" d="M3144.416,8883.92c-.288,2.727-.288,3.624-.492,4.479-.331,1.369-.8,2.705-1.368,4.521-19.443-1.539-38.992-3.57-57.879,4.383a29.3,29.3,0,0,1-1.464-2.887c-.545-1.475-.941-3-1.432-4.639,8.861-6.723,19.2-8.263,30.933-9.63-1.229-2.181-1.806-4.094-3.078-5.271-4.735-4.393-6.178-8.443-3.88-13.146,2.17-4.425,5.8-6.605,10.839-5.942,5.1.662,7.942,3.783,8.594,8.722.716,5.408-1.571,9.213-6.67,11.405-1,.427-1.614,1.773-2.405,2.7,1.133.589,2.213,1.54,3.4,1.722C3127.667,8881.6,3135.844,8882.7,3144.416,8883.92Z" transform="translate(6.502)" fill="#403347"/>
    <path id="Path_1653" data-name="Path 1653" d="M3190.464,9151.193H3162.47c-10.486,0-20.971.054-31.457-.064-1.315-.021-2.619-.973-3.933-1.5,1.154-.737,2.266-2.021,3.474-2.138q25.733-2.405,51.5-4.5C3189.77,9142.364,3189.78,9142.5,3190.464,9151.193Z" transform="translate(9.622 19.772)" fill="#403347"/>
    <path id="Path_1654" data-name="Path 1654" d="M3098.5,9147.536c-.182.609-.363,1.218-.545,1.838h-62.721c-.171-8.091.5-8.614,7.8-7.909,16.984,1.636,33.99,3.089,50.974,4.7A22.644,22.644,0,0,1,3098.5,9147.536Z" transform="translate(3.294 19.668)" fill="#403347"/>
    <path id="Path_1655" data-name="Path 1655" d="M3054.052,9042.447c-1.6,8.381-3.1,16.141-4.7,24.478l-11.629-1.314c1.657-8.744,3.217-17.006,4.9-25.909C3046.453,9040.619,3049.959,9041.464,3054.052,9042.447Z" transform="translate(3.467 12.673)" fill="#403347"/>
    <path id="Path_1656" data-name="Path 1656" d="M3183.541,9068c-4.5.364-7.963.643-11.758.952-1.561-8.306-3.025-16.076-4.553-24.2,3.784-.993,7.161-1.892,11.266-2.982C3180.153,9050.418,3181.767,9058.8,3183.541,9068Z" transform="translate(12.387 12.817)" fill="#403347"/>
    <path id="Path_1657" data-name="Path 1657" d="M3136.308,9074.876c-1.187-7.781-6.424-10.624-17.818-9.214-.577,10.134-1.144,19.967-1.71,30.036h7.269c.246-1.817.459-3.346.652-4.789C3134.748,9088.922,3137.8,9084.624,3136.308,9074.876Zm-13.468,8.818v-10.5c7.621-1.625,7.749-1.476,8.487,10.5Z" transform="translate(8.913 14.438)" fill="#403347"/>
    <path id="Path_1658" data-name="Path 1658" d="M3105.189,9085.452c.727,3.474,1.443,6.874,2.3,10.936-2.181.663-4.275,1.313-7.14,2.19-1.764-9.673-3.463-18.993-5.238-28.688,4.543-1.293,8.722-2.757,13.019-3.538,1.315-.245,2.971,1.379,4.468,2.149-.256.6-.513,1.2-.78,1.785-3.313,1.111-6.637,2.223-10.314,3.451.363,2.042.684,3.87.962,5.431,3.623,1.688,8.9-3.752,10.817,3.431C3110.566,9083.561,3108.108,9084.427,3105.189,9085.452Z" transform="translate(7.42 14.508)" fill="#403347"/>
  </g>
</svg>
