<svg xmlns="http://www.w3.org/2000/svg" width="303.314" height="170.393" viewBox="0 0 303.314 170.393">
  <g id="Group_2132" data-name="Group 2132" transform="translate(-1555.128 -4878.245)">
    <path id="Path_839" data-name="Path 839" d="M1858.442,4995.963c-.148,2.157-1.079,3.475-2.839,4a3.823,3.823,0,0,1-4.381-1.573c-3.714-4.85-7.124-9.976-11.207-14.491-17.424-19.284-36.11-37.22-58.185-51.19a98.85,98.85,0,0,0-17.451-8.524c-13.213-5.062-26.039-3.6-38.307,3.415-8.511,4.866-15.991,11.106-23.475,17.351-11.306,9.438-22.581,18.911-34.941,26.984-9.395,6.141-19.392,10.851-30.615,12.485-12.788,1.863-24.653-.971-35.8-7.272-11.527-6.513-20.986-15.5-29.874-25.125-4.75-5.144-9.287-10.482-13.9-15.748a14.8,14.8,0,0,1-1.82-2.418,3.9,3.9,0,0,1,6.036-4.779,26.131,26.131,0,0,1,2.028,2.249c8.849,10.3,17.655,20.64,28.155,29.346,8.138,6.747,16.969,12.247,27.4,14.708,13.364,3.155,25.8.264,37.557-6.171,11.133-6.093,20.944-14.075,30.759-22.036,9.755-7.909,19.445-15.908,29.463-23.461a54.871,54.871,0,0,1,24.133-10.69c10.474-1.738,20.38.4,29.953,4.576,11.813,5.148,22.278,12.45,32.211,20.536a346.139,346.139,0,0,1,43.044,41.063c4.013,4.611,7.393,9.772,11.024,14.712A12.25,12.25,0,0,1,1858.442,4995.963Z" transform="translate(0 -19.364)" fill="#293213"/>
    <path id="Path_840" data-name="Path 840" d="M1866.274,5255.344c-.048,2.869-2.21,4.4-6.232,4.4q-131.6,0-263.193-.008a10.107,10.107,0,0,1-2.99-.308,4.044,4.044,0,0,1-3.038-4.234,3.925,3.925,0,0,1,2.994-4.034,13.929,13.929,0,0,1,3.636-.351q65.522-.02,131.052-.013,65.743.007,131.486,0C1864.137,5250.8,1866.326,5252.388,1866.274,5255.344Z" transform="translate(-20.226 -211.109)" fill="#293213"/>
    <path id="Path_841" data-name="Path 841" d="M1992.633,4938.743v132.813h-6.15v-129.6c0-3.025,0-3.038,3.02-3.2C1990.5,4938.7,1991.5,4938.743,1992.633,4938.743Z" transform="translate(-244.429 -34.271)" fill="#293213"/>
    <path id="Path_842" data-name="Path 842" d="M1945.319,4950.938v127.572h-6.179v-2.574q0-59.229-.056-118.468c0-2.162.528-3.523,2.5-4.407C1942.8,4952.52,1943.907,4951.749,1945.319,4950.938Z" transform="translate(-217.57 -41.192)" fill="#293213"/>
    <path id="Path_843" data-name="Path 843" d="M2040.227,4948.085q-.007,61.934,0,123.859v2.4h-6.088V4943.678c1.816.646,3.518,1.174,5.148,1.885.438.195.694.918.919,1.452A2.938,2.938,0,0,1,2040.227,4948.085Z" transform="translate(-271.431 -37.078)" fill="#293213"/>
    <path id="Path_844" data-name="Path 844" d="M2087.577,5085.417c0,.571-.06,1.139-.113,1.971h-5.941v-120.73c1.977,1.322,3.892,2.509,5.682,3.87.372.287.368,1.2.368,1.816Q2087.592,5028.882,2087.577,5085.417Z" transform="translate(-298.284 -50.1)" fill="#293213"/>
    <path id="Path_845" data-name="Path 845" d="M1898.2,4983.988v113.172h-6.241v-2.613q0-51.319-.043-102.638c0-1.985.385-3.423,2.1-4.546A52.424,52.424,0,0,0,1898.2,4983.988Z" transform="translate(-190.841 -59.92)" fill="#293213"/>
    <path id="Path_846" data-name="Path 846" d="M2134.759,5106.334a6.1,6.1,0,0,1-.152.919h-6.023V5001.738c2.054,1.772,4,3.4,5.868,5.109.29.269.308.927.308,1.408Q2134.779,5057.293,2134.759,5106.334Z" transform="translate(-324.951 -69.978)" fill="#293213"/>
    <path id="Path_847" data-name="Path 847" d="M1850.99,5023.288v96.194h-5.958c-.039-.784-.108-1.543-.108-2.3q-.013-43.63-.039-87.255a3.236,3.236,0,0,1,1.473-3.077C1847.882,5025.827,1849.286,5024.614,1850.99,5023.288Z" transform="translate(-164.192 -82.189)" fill="#293213"/>
    <path id="Path_848" data-name="Path 848" d="M1615.126,5119.735c0,.485-.078.971-.126,1.534h-5.967v-94.782c2.058,1.907,3.918,3.549,5.66,5.309a2.815,2.815,0,0,1,.42,1.794Q1615.139,5076.66,1615.126,5119.735Z" transform="translate(-30.546 -84.002)" fill="#293213"/>
    <path id="Path_849" data-name="Path 849" d="M2181.923,5130.422a5.088,5.088,0,0,1-.139.789h-6.071v-86.37c.26-.251.524-.507.784-.763,1.677,1.959,3.389,3.9,5.01,5.9a2.7,2.7,0,0,1,.411,1.595Q2181.946,5091,2181.923,5130.422Z" transform="translate(-351.658 -93.97)" fill="#293213"/>
    <path id="Path_850" data-name="Path 850" d="M1803.681,5057.488v81.343h-6.11v-2.678c0-24.181.026-48.366-.048-72.547,0-1.924.486-3.09,2.262-3.856A36.768,36.768,0,0,0,1803.681,5057.488Z" transform="translate(-137.354 -101.569)" fill="#293213"/>
    <path id="Path_851" data-name="Path 851" d="M1662.291,5138.561v4.333h-6.167v-78.267a59.927,59.927,0,0,1,5.525,2.978c.5.333.615,1.508.615,2.3Q1662.31,5104.23,1662.291,5138.561Z" transform="translate(-57.23 -105.615)" fill="#293213"/>
    <path id="Path_852" data-name="Path 852" d="M1756.614,5079.878v71.593h-6.01v-70.154Z" transform="translate(-110.767 -114.256)" fill="#293213"/>
    <path id="Path_853" data-name="Path 853" d="M1789.352,4961.165a8.708,8.708,0,0,0-8.949-.689c1.529,4.91.8,6.985-3.289,9.759q-8.509,5.76-17.031,11.5c-3.913,2.644-6.322,2.479-9.963-.8-3.653,3.649-3.986,8.8-.906,12.6a8.987,8.987,0,0,0,12.259,1.712c9.3-6.2,18.539-12.484,27.808-18.733a8.857,8.857,0,0,0,4.017-6.162A8.763,8.763,0,0,0,1789.352,4961.165Zm-25.771,31.387a1.868,1.868,0,0,1-1.773-.338,27.154,27.154,0,0,1-3.033-4.446,2.213,2.213,0,0,1,.412-2.1c3.371-2.422,6.851-4.693,10.448-7.106,1.56,2.318,3.033,4.5,4.623,6.868C1770.623,4987.88,1767.139,4990.272,1763.581,4992.552Zm18.521-12.42c-2.123,1.474-4.29,2.891-6.644,4.473-1.6-2.388-3.038-4.528-4.619-6.877,3.575-2.426,7.042-4.836,10.595-7.111.407-.265,1.3.225,1.972.394.1.026.168.221.251.342C1787.87,4977.8,1788.269,4975.851,1782.1,4980.132Z" transform="translate(-108.794 -46.075)" fill="#293213"/>
    <path id="Path_854" data-name="Path 854" d="M1666.38,4988.257c-4.177,3.394-6.01,3.471-10.522.525q-8.067-5.265-16.129-10.531c-4.792-3.125-5.364-4.507-4.1-9.988a8.992,8.992,0,0,0-11.739,3.774,9.145,9.145,0,0,0,3.055,12.207q14.067,9.328,28.255,18.486a9.116,9.116,0,0,0,12.246-2C1670.337,4997.11,1669.925,4991.871,1666.38,4988.257Zm-36.041-3.081c-.407-.281-.3-1.291-.425-1.967-.013-.052.073-.117.108-.178,3.185-5.742,3.185-5.742,8.641-2.21,2.224,1.443,4.442,2.9,6.83,4.455-1.586,2.432-3,4.594-4.537,6.956C1637.341,4989.856,1633.792,4987.581,1630.339,4985.176Zm27.119,10.435c-3.216,5.334-3.216,5.334-8.394,1.958-2.227-1.451-4.45-2.9-6.9-4.5,1.608-2.423,3.076-4.633,4.628-6.969,3.545,2.327,7,4.511,10.34,6.864.48.343.394,1.5.542,2.28C1657.691,4995.351,1657.531,4995.485,1657.458,4995.611Z" transform="translate(-38.296 -50.517)" fill="#293213"/>
    <path id="Path_855" data-name="Path 855" d="M1901.541,4885.978c-.888-6.076-8.1-9.733-12.858-6.569,1.491,4.532.763,6.712-3.176,9.386q-8.509,5.766-17.039,11.5c-4.13,2.786-6.366,2.66-10.119-.65-3.631,3.6-4,8.667-1.018,12.445a8.9,8.9,0,0,0,12.034,2.021q14.345-9.478,28.527-19.22C1900.974,4892.781,1902.078,4889.635,1901.541,4885.978Zm-29.74,25.26a1.882,1.882,0,0,1-1.79-.369,34.529,34.529,0,0,1-3.15-4.628,1.868,1.868,0,0,1,.373-1.781c3.445-2.44,6.969-4.767,10.548-7.181.5.676.9,1.17,1.252,1.695,1.118,1.659,2.215,3.328,3.428,5.152C1878.834,4906.57,1875.358,4908.962,1871.8,4911.237Zm22.352-15.081c-3.38,2.427-6.869,4.711-10.457,7.125-1.568-2.323-3.046-4.515-4.641-6.873,3.619-2.432,7.107-4.832,10.686-7.1a2.036,2.036,0,0,1,1.89.477,24.062,24.062,0,0,1,2.921,4.273A2.217,2.217,0,0,1,1894.153,4896.156Z" transform="translate(-170.113)" fill="#293213"/>
    <path id="Path_856" data-name="Path 856" d="M1709.348,5084.452V5153.7h-5.954v-69.968c.6.035,1.1.035,1.595.1C1706.406,5084.019,1707.823,5084.23,1709.348,5084.452Z" transform="translate(-84.016 -116.438)" fill="#293213"/>
    <path id="Path_857" data-name="Path 857" d="M1803.511,4970.407c-1.555-4.3-4.931-4.944-9.018-4.316,2.8-2.5,5.695-4.563,9.5-4.922,1.885-.174,2.751.649,2.986,2.482C1807.342,4966.485,1806.284,4968.718,1803.511,4970.407Z" transform="translate(-135.637 -46.976)" fill="#293213"/>
    <path id="Path_858" data-name="Path 858" d="M1911.5,4889.007c-1.746-4.381-5.135-4.932-9.174-4.186,2.907-2.5,5.859-4.689,9.815-5.005,1.708-.138,2.488.585,2.808,2.2C1915.506,4884.8,1914.358,4887.348,1911.5,4889.007Z" transform="translate(-196.74 -0.881)" fill="#293213"/>
    <path id="Path_859" data-name="Path 859" d="M1708.588,5002.909c-2.344,1.434-4.893,1.343-7.644-.542,3.462-3.224,2.544-6.617.295-10.118,3.441,1.694,6.63,3.54,8.419,7.085C1710.478,5000.959,1710.065,5002,1708.588,5002.909Z" transform="translate(-82.627 -64.601)" fill="#293213"/>
  </g>
</svg>
