<svg xmlns="http://www.w3.org/2000/svg" width="143.146" height="381.436" viewBox="0 0 143.146 381.436">
  <g id="Group_2420" data-name="Group 2420" transform="translate(-7473.627 -2267.255)">
    <path id="Path_1990" data-name="Path 1990" d="M7558.76,2392.235c1.8,27.447,3.588,54.728,5.378,82,5.981-11.134,14.914-17.834,27.375-18.867,12.563-1.038,22.426,4.349,30.053,15.016,1.5-26.465,2.963-52.266,4.434-78.153Z" transform="translate(-48.94 -71.847)" fill="#403347"/>
    <rect id="Rectangle_2050" data-name="Rectangle 2050" width="99.278" height="28.463" transform="translate(7495.54 2458.051)" fill="#403347"/>
    <path id="Path_1991" data-name="Path 1991" d="M7609.292,2814.657a3.566,3.566,0,0,1,.094-2.373q4.214-8.679,8.613-17.273c.319-.625,1.126-1.556,1.51-1.471a3.1,3.1,0,0,1,1.683,1.556c1.126,2.151,2.113,4.379,3.15,6.577l.719-.064c.688-3.907,1.377-7.814,2.108-11.955H7537.15c.625,3.86,1.216,7.516,1.807,11.168l.586-.038c.88-1.845,1.709-3.72,2.662-5.527a11.359,11.359,0,0,1,1.534-1.841,9.192,9.192,0,0,1,1.812,1.858c2.041,3.877,3.716,7.976,6.011,11.687,2.632,4.247,3.584,8.252.579,12.661a2.144,2.144,0,0,0,.476,2.041,85.253,85.253,0,0,0,9.106,6.169c14.88,8.129,34.946,6.1,48.168-4.6,1.654-1.339,2.465-2.458,1.156-4.5A16.57,16.57,0,0,1,7609.292,2814.657Z" transform="translate(-36.517 -300.309)" fill="#403347"/>
    <rect id="Rectangle_2051" data-name="Rectangle 2051" width="94.282" height="23.71" transform="translate(7495.96 2293.826)" fill="#403347"/>
    <path id="Path_1992" data-name="Path 1992" d="M7588.706,2576.885c9.268.115,18.544.128,27.813-.009,5.156-.072,10.045.421,14.22,4.354a28.478,28.478,0,0,0-10.518-28.22,29.871,29.871,0,0,0-36.481-.268c-8.146,6-13.472,19.556-10.7,28.556C7577.481,2576.906,7583.029,2576.813,7588.706,2576.885Z" transform="translate(-56.723 -160.621)" fill="#403347"/>
    <rect id="Rectangle_2052" data-name="Rectangle 2052" width="130.249" height="10.301" transform="translate(7476.94 2280.613)" fill="#403347"/>
    <rect id="Rectangle_2053" data-name="Rectangle 2053" width="130.168" height="10.352" transform="translate(7476.932 2267.255)" fill="#403347"/>
    <path id="Path_1993" data-name="Path 1993" d="M7567.784,2654.955c0,1.127.149,2.253.255,3.38.14,1.535.919,2.049,2.525,2.037,9.553-.085,19.11-.043,28.667-.038h27.817c3.393,0,3.529-.119,3.771-3.486.051-.706.063-1.416.068-2.121,0-5.382.017-10.76,0-16.142-.034-8.724-5.76-14.506-14.463-14.535q-17.1-.052-34.193,0c-8.613.03-14.387,5.769-14.446,14.34C7567.742,2643.91,7567.759,2649.433,7567.784,2654.955Zm31.753-28.841a16.67,16.67,0,1,1-16.839,16.538A16.54,16.54,0,0,1,7599.537,2626.114Z" transform="translate(-54.112 -205.094)" fill="#403347"/>
    <path id="Path_1994" data-name="Path 1994" d="M7520.395,2832.365a11.244,11.244,0,0,0-.692,1.067c-3.5,7.181-6.977,14.374-10.493,21.546q-10.4,21.242-20.814,42.479a6.808,6.808,0,0,0-.714,2.818q-.089,10.306-.009,20.611a4.387,4.387,0,0,0,.667,2.351q9.337,13.156,18.771,26.244,5.739,8,11.5,15.993c.165-.051.331-.1.5-.149a36.13,36.13,0,0,0-.047-4.8,9.8,9.8,0,0,0-1.275-4.073c-7.389-10.888-14.9-21.695-22.314-32.565a5.568,5.568,0,0,1-.877-2.917c-.08-5.522-.071-11.049-.013-16.572a8.072,8.072,0,0,1,.643-3.048q5.222-11.963,10.556-23.871,8.43-18.889,16.878-37.769a3.192,3.192,0,0,0,.4-2.13C7522.337,2835.834,7521.355,2834.2,7520.395,2832.365Z" transform="translate(-8.053 -324.862)" fill="#403347"/>
    <path id="Path_1995" data-name="Path 1995" d="M7741.738,2909.438c-.276,3.8,0,7.648-.1,11.474a5.307,5.307,0,0,1-.816,2.721c-7.142,10.462-14.169,21.014-21.631,31.243-2.5,3.427-1.866,6.769-1.806,10.339,2.789-3.46,5.382-6.981,7.929-10.535q11.122-15.528,22.188-31.107a5.765,5.765,0,0,0,1.042-3.07c.093-6.8.072-13.6.025-20.4a6.387,6.387,0,0,0-.6-2.636c-2.682-5.607-5.42-11.185-8.158-16.767q-5.287-10.759-10.59-21.508c-4.4-8.94-8.8-17.885-13.345-27.136a25.2,25.2,0,0,1-1.628,3.12c-1.36,1.879-1.148,3.575-.208,5.646,8.29,18.3,16.4,36.685,24.726,54.97C7740.773,2900.191,7742.1,2904.541,7741.738,2909.438Z" transform="translate(-137.772 -324.684)" fill="#403347"/>
    <path id="Path_1996" data-name="Path 1996" d="M7640,2993.862c3.048-.2,5.9-.382,8.58-.557v-97.079l-7.325.6C7638.537,2929.194,7639.141,2961.415,7640,2993.862Z" transform="translate(-95.225 -361.573)" fill="#403347"/>
    <path id="Path_1997" data-name="Path 1997" d="M7758.049,2879.737c-1.467-2.823-2.734-5.744-4.047-8.643q-7.824-17.3-15.632-34.606c-4.106-9.068-8.247-18.124-12.567-27.613-1,1.934-1.67,3.5-2.576,4.91a3.327,3.327,0,0,0-.128,3.7q15.93,32.236,31.715,64.548a13.5,13.5,0,0,1,1.254,5.25c.179,4.315-.247,8.668.132,12.958.569,6.462-.643,12.159-5.37,16.865a18.071,18.071,0,0,0-1.709,2.423c-8.753,12.193-17.533,24.365-26.21,36.608-.692.978-.692,2.453-1.012,3.7.226.073.451.14.677.213q4.03-5.051,8.065-10.1,13.933-17.537,27.821-35.116a5.025,5.025,0,0,0,.952-2.869c.076-8.5-.009-17.006.081-25.508A13.73,13.73,0,0,0,7758.049,2879.737Z" transform="translate(-142.723 -311.359)" fill="#403347"/>
    <path id="Path_1998" data-name="Path 1998" d="M7501.475,2944.122c-7.678-10.688-15.4-21.342-23-32.089a8.5,8.5,0,0,1-1.4-4.468q-.223-9.872-.012-19.756a13.152,13.152,0,0,1,1.164-5.28c4.771-9.94,9.706-19.807,14.574-29.7q8.666-17.6,17.29-35.222a3.09,3.09,0,0,0,.4-2.126c-.842-1.973-1.922-3.847-3.019-5.964a6.973,6.973,0,0,0-.672.893q-4.731,10.312-9.442,20.632-10.605,23.359-21.158,46.748c-1,2.223-2.339,4.57-2.411,6.891-.272,9.272-.136,18.553-.068,27.83a4.674,4.674,0,0,0,.939,2.648q12.8,16.268,25.7,32.455,5.07,6.384,10.166,12.75c.25-.1.5-.208.752-.31-.311-1.165-.34-2.517-.979-3.461C7507.452,2952.373,7504.446,2948.258,7501.475,2944.122Z" transform="translate(0 -311.727)" fill="#403347"/>
    <path id="Path_1999" data-name="Path 1999" d="M7631.061,2967.328c.2-.013.391-.021.586-.03,0-11.674-.229-23.356.068-35.027.293-11.593,1.306-23.17,1.22-34.776A512.017,512.017,0,0,0,7631.061,2967.328Z" transform="translate(-90.244 -362.303)" fill="#403347"/>
    <path id="Path_2000" data-name="Path 2000" d="M7623.081,2663.246a14.142,14.142,0,0,0,13.992-14.089,14.062,14.062,0,0,0-28.123.149A14.14,14.14,0,0,0,7623.081,2663.246Zm-.118-25.708a11.611,11.611,0,1,1-.111,23.221,11.438,11.438,0,0,1-11.376-11.742A11.592,11.592,0,0,1,7622.963,2637.538Z" transform="translate(-77.793 -211.502)" fill="#403347"/>
    <path id="Path_2001" data-name="Path 2001" d="M7622.412,2661.011c.055.085.115.17.174.255.127.179.259.349.4.519.183.216.378.429.583.633s.417.391.638.574c0,0,0,0,0,0a7.294,7.294,0,0,0,.688.515h0q.357.236.739.446a8.7,8.7,0,0,0,1.629.671c.136.043.276.085.421.119.1.026.2.051.314.072.077.017.153.034.234.047.11.021.221.042.34.06.136.021.276.038.417.051a.505.505,0,0,0,.085.009c.135.013.271.025.412.03s.3.013.455.013H7630c.127,0,.251,0,.374-.008l.2-.013a8.311,8.311,0,0,0,1.267-.187c.094-.017.191-.042.285-.068a4.974,4.974,0,0,0,.489-.14,7.92,7.92,0,0,0,.812-.306,8.912,8.912,0,0,0,1.509-.833c.233-.162.463-.336.68-.519a8.225,8.225,0,0,0,.633-.583,8.032,8.032,0,0,0,.574-.633,8.356,8.356,0,0,0,.748-1.054,8.475,8.475,0,0,0,.412-.757,8.073,8.073,0,0,0,.481-1.211,8.159,8.159,0,0,0,.221-.846,8.465,8.465,0,0,0,.183-1.807c0-.174,0-.349-.017-.523q-.007-.172-.025-.344a.791.791,0,0,1-.008-.1c-.017-.136-.034-.272-.055-.408a8.959,8.959,0,0,0-.442-1.726c-.1-.272-.212-.54-.34-.8a8.755,8.755,0,0,0-.9-1.471,7.943,7.943,0,0,0-.548-.659c-.1-.106-.2-.208-.3-.306s-.2-.2-.311-.293-.217-.191-.327-.281c-.132-.106-.268-.212-.408-.311a.724.724,0,0,0-.064-.046c-.124-.085-.247-.17-.374-.247a.408.408,0,0,0-.072-.047c-.094-.06-.191-.119-.289-.17-.068-.042-.141-.081-.208-.119-.136-.072-.272-.14-.413-.208-.264-.123-.531-.234-.807-.336,0,0,0,0,0,0q-.415-.146-.855-.255c-.123-.03-.25-.06-.382-.085l-.119-.025c-.11-.021-.226-.039-.336-.056a.321.321,0,0,0-.085-.012q-.2-.032-.408-.051h-.021c-.141-.017-.285-.025-.43-.034h-.029c-.141-.008-.281-.013-.421-.013h-.094c-.11,0-.221,0-.327.008l-.242.013c-.017,0-.038,0-.055,0a8.766,8.766,0,0,0-1.063.145c-.051.008-.1.017-.153.029a8.815,8.815,0,0,0-2.262.825c-.072.038-.145.076-.217.119a8.915,8.915,0,0,0-2.241,1.794,8.691,8.691,0,0,0-1.02,1.365,7.977,7.977,0,0,0-.408.756c-.124.255-.234.523-.336.795-.047.136-.093.272-.136.413a8.282,8.282,0,0,0-.221.85,8.878,8.878,0,0,0-.178,1.815c0,.153,0,.311.013.463v.017q.012.217.039.434a.081.081,0,0,0,0,.034c.012.14.029.276.051.412a.143.143,0,0,0,.008.034c.013.106.034.217.055.323a2.419,2.419,0,0,0,.051.25.116.116,0,0,0,.013.043,2.856,2.856,0,0,0,.081.327,8.733,8.733,0,0,0,1.042,2.394C7622.319,2660.87,7622.365,2660.938,7622.412,2661.011Z" transform="translate(-84.674 -218.377)" fill="#403347"/>
  </g>
</svg>
