<svg xmlns="http://www.w3.org/2000/svg" width="275.271" height="275.27" viewBox="0 0 275.271 275.27">
  <g id="Group_2203" data-name="Group 2203" transform="translate(-822 -15077.451)">
    <path id="Path_1054" data-name="Path 1054" d="M3637.42,6714.124c-1.433,2.092-2.732,4.29-4.327,6.248-2.292,2.8-4.9,2.808-7.183,0-1.7-2.082-3.114-4.395-4.633-6.629-4.021-5.932-3.238-8.186,3.945-10.058,0-3.754-.458-7.327.181-10.689.344-1.834,2.331-4.366,3.974-4.709,3.038-.65,4.365,1.9,4.413,4.8.057,3.477.01,6.963.01,10.383C3641.384,6706.129,3641.862,6707.59,3637.42,6714.124Z" transform="translate(-2669.864 8630.247)" fill="#1e2639"/>
    <path id="Path_1055" data-name="Path 1055" d="M3731.7,6482.263a77.747,77.747,0,0,1-2.025,10.766c-1.108,4.165-4.126,4.518-9.3.974-2.321,2.484-4.681,5.054-7.1,7.566-2.13,2.225-4.566,3.219-7,.649-2.226-2.351-1.29-4.643.812-6.639,2.522-2.417,5.063-4.814,7.757-7.384-4.375-5.694-3.4-8.226,3.047-9.543,2.8-.563,5.588-1.232,8.416-1.586C3730.189,6476.589,3732.156,6478.433,3731.7,6482.263Z" transform="translate(-2673.721 8639.703)" fill="#1e2639"/>
    <path id="Path_1056" data-name="Path 1056" d="M3551.912,6662.951c-2.6,2.57-5.254,5.072-7.833,7.556,4.213,6.171,3.3,8.32-3.811,9.753-2.646.535-5.282,1.194-7.957,1.481-3.859.42-5.722-1.481-5.254-5.359.334-2.828,1.041-5.617,1.614-8.416,1.309-6.485,3.8-7.47,9.5-3.095,2.675-2.789,4.929-5.808,7.833-7.919,1.471-1.07,4.681-1.395,6.114-.5C3554.758,6658.127,3554.013,6660.859,3551.912,6662.951Z" transform="translate(-2665.751 8631.691)" fill="#1e2639"/>
    <path id="Path_1057" data-name="Path 1057" d="M3726.365,6681.73c-3-.354-5.942-1.07-8.9-1.681-6.027-1.242-6.916-3.831-2.579-9.438-2.8-2.655-5.493-5.129-8.091-7.708-2.1-2.083-2.8-4.853-.134-6.486,1.442-.889,4.652-.506,6.113.583,2.894,2.14,5.13,5.168,7.556,7.756,6.4-4.222,8.435-3.362,9.877,3.716.535,2.646,1.194,5.292,1.49,7.967C3732.125,6680.307,3730.243,6682.2,3726.365,6681.73Z" transform="translate(-2673.718 8631.691)" fill="#1e2639"/>
    <path id="Path_1058" data-name="Path 1058" d="M3770.344,6583.092c-2.216,1.786-4.662,3.286-7.031,4.891-5.569,3.764-8,2.78-9.466-4.2-3.363,0-6.84-.19-10.278.058-3.009.21-5.646-.726-5.34-3.687.191-1.854,2.656-4.49,4.528-4.92,3.448-.8,7.212-.229,11.176-.229,1.328-6.743,3.859-7.756,9.438-3.974,2.359,1.605,4.8,3.1,7.011,4.9C3773.2,6578.211,3773.171,6580.828,3770.344,6583.092Z" transform="translate(-2675.208 8635.59)" fill="#1e2639"/>
    <g id="Group_2188" data-name="Group 2188" transform="translate(822 15077.451)">
      <path id="Path_1059" data-name="Path 1059" d="M3704.776,6523.917a94.51,94.51,0,0,0-129.118-28.676c-43.434,26.957-51.649,79.15-40.654,105.094,6.9-1.872,6.648-6.629,5.674-12.571-1.1-6.782-.831-13.793-1.165-20.767,7.011.182,7.441.774,7.365,6.429-.057,4.193.363,8.4.583,12.877,8.406-3.306,8.4-3.306,8.387-10.728-.01-.955.029-1.91.048-2.866.2-7.9-2.579-11.749-10.125-13.984-1.328-.392-2.675-.716-4.27-1.137a85.312,85.312,0,0,1,26.66-45.86c7.25,6.792,12.647,7.26,20.986,2.6,3.974-2.226,8.282-3.869,12.447-5.76,3.095-1.395,6.811-2.12,9.189-4.3,3.687-3.381,6.438-7.785,9.667-11.683.927-1.117,2.178-2.855,3.229-2.817,6.83.22,13.641.85,19.372,1.27v14.892c-5.865,1.385-11.549,2.168-16.8,4.107-6.734,2.484-3.573,10.651-7.794,14.7,1.585,2.35,2.99,4.422,4.4,6.514,4.509-2.292,6.219-6,6.572-10.278.258-3.209,1.853-4.5,4.786-4.738,2.053-.172,4.107-.535,6.171-.554,9.59-.067,12.618-3.917,11.138-13.545-.382-2.464.583-5.129,1.013-8.31,26.536,10.068,44.179,27.195,53.741,52.489a4.582,4.582,0,0,1-.449,3.392c-1.729,3.124-3.707,6.1-5.521,9.007-9.906-12.169-21.311-15.379-27.644-7.336,4.4,2.961,6.887,6.944,6.486,12.437-.411,5.617-3.983,8.922-8.7,11.415,6.61,5.053,11.864,3.85,14.051-3.056,1.395-4.4,2.474-8.9,4.041-14.634,2.359,3.716,4.136,6.61,6,9.447,4.05,6.151,10.011,5.827,13.278-.716.754-1.529,1.356-3.133,2.168-5.015,7.193,36.289-12.609,79.111-54.18,94.729a83.472,83.472,0,0,1-60.647-.115c-10.383-3.935-19.869-9.342-27.73-17.633-2.226,1.108-5.148,2.569-8.081,4.031,24.673,27.558,77.163,40.711,119.976,11.081A94.427,94.427,0,0,0,3704.776,6523.917Zm-105.81-23.46c-5.11,1.107-9.829,4.174-14.605,6.619-2.827,1.452-5.426,2.78-8.215.134,2.493-5.817,22.687-15.178,34.627-15.675C3607.362,6496.072,3604.448,6499.282,3598.965,6500.457Z" transform="translate(-3487.912 -6437.926)" fill="#1e2639"/>
      <path id="Path_1060" data-name="Path 1060" d="M3654.619,6597.8c-1.146-3.038-3.477-5.636-5.263-8.435q-5.975-9.328-11.9-18.675l1.557.058c.879-2.55,3.133-5.655,2.369-7.537-2.1-5.177-6-1.232-9.294-.392-6.266-9.609-12.236-19.181-18.722-28.39-1.357-1.929-4.719-3.629-6.954-3.4-1.92.191-4.747,3.057-5.13,5.12-3.324,18.016-12.466,32.793-24.759,45.86a26.336,26.336,0,0,1-9.915,6.648c-5.9,2.34-10.871,7.183-15.962,11.3-2.168,1.748-3.286,4.833-5.5,6.467-5.2,3.84-6.629,8.511-3.362,13.965,2.2,3.678,4.547,7.279,7.011,10.785,3.659,5.177,8.779,5.846,14.051,2.082,1.662-1.175,3.315-2.588,5.2-3.171,3.477-1.079,7.126-1.614,12.16-2.693,5.473,3.926,12.026,8.692,18.665,13.325,3.439,2.407,7.307,1.614,7.527-1.681.124-1.748-1.3-4.184-2.78-5.349-5.56-4.384-11.434-8.368-18.264-13.269,2.847-2.207,4.738-4.308,7.1-5.416,17.615-8.224,35.907-11.357,55.231-7.336,2.121.439,5.684-.821,6.858-2.5C3655.727,6603.463,3655.469,6600.015,3654.619,6597.8ZM3556.5,6627.22c-2.732-4.184-5.292-8.1-8.091-12.408,1.853-1.185,3.181-2.025,5.091-3.238,2.551,3.859,5.024,7.623,7.8,11.835C3559.813,6624.593,3558.39,6625.72,3556.5,6627.22Zm13.927-5.655c-4.041-6.247-7.862-12.16-11.845-18.321,3.114-2.178,5.932-4.146,9.208-6.429,3.983,6.085,7.823,11.979,12,18.379C3576.481,6617.439,3573.654,6619.368,3570.426,6621.565Zm15.456-13c-3.1-4.709-6.142-9.294-9.495-14.357,15.226-14.156,26.583-30.453,32.115-51.716,12.37,18.98,24.119,37.024,36.461,55.967C3623.7,6595.774,3604.508,6599.442,3585.881,6608.564Z" transform="translate(-3488.335 -6440.166)" fill="#1e2639"/>
      <path id="Path_1061" data-name="Path 1061" d="M3684.384,6596.027a49.225,49.225,0,0,1-5.512,8.339c-5.024,5.617-7.241,12.065-7.718,19.506-.9,13.917-10.708,21.024-21.769,26.631-4.585,2.321-9.046.563-12.38-3.381-4.748-5.607-6.381-12.313-6.878-19.439-.229-3.42-.726-6.811-1.127-10.488,1.07-.144,2.465-.268,3.85-.516,3.907-.707,5.321,1.137,5.731,4.853.583,5.331.974,10.823,2.627,15.857,2.034,6.161,4.222,6.381,9.485,2.77,7.642-5.234,12.743-11.778,12.619-21.607-.019-1.854,1.347-3.716,2.111-5.56.182-.43.612-.754.812-1.175,2.828-6.066,5.626-12.151,7.986-17.232-3.964-4.8-7.871-9.543-11.778-14.271.4-.392.793-.793,1.194-1.194,4.079.764,8.74-.611,11.807,3.907.64.946,2.436,1.28,3.764,1.557C3685.893,6585.959,3687.842,6590.067,3684.384,6596.027Z" transform="translate(-3492.318 -6442.32)" fill="#1e2639"/>
      <path id="Path_1062" data-name="Path 1062" d="M3520.241,6579.767c-.115,3.305-2.579,4.385-5.693,4.308-3.314-.077-6.629-.019-10.23-.019-1.022,6.39-3.582,7.6-8.635,4.3-2.521-1.643-5.082-3.267-7.45-5.12-3.085-2.426-3.095-5.015-.019-7.47,2.235-1.777,4.68-3.276,7.049-4.872,5.368-3.63,7.909-2.579,9.094,4,3.382,0,6.811.039,10.24-.01C3517.977,6574.829,3520.355,6576.261,3520.241,6579.767Z" transform="translate(-3485.911 -6441.859)" fill="#1e2639"/>
      <path id="Path_1063" data-name="Path 1063" d="M3633.846,6454.489c0,3.334-.019,6.333,0,9.342.019,3.229-.325,6.5-4.48,6.419-3.792-.067-4.251-3.124-4.222-6.209.038-3.152.01-6.314.01-9.38-7.107-1.748-7.928-3.993-3.926-9.906,1.242-1.834,2.455-3.706,3.764-5.492,3.3-4.538,5.8-4.48,9.161.22,1.385,1.929,2.713,3.907,4.031,5.894C3641.708,6450.687,3640.647,6453.1,3633.846,6454.489Z" transform="translate(-3491.863 -6435.908)" fill="#1e2639"/>
      <path id="Path_1064" data-name="Path 1064" d="M3552.3,6502.389c-2.35,2.264-4.633,1.395-6.677-.65-2.465-2.483-4.91-4.977-7.575-7.68-5.56,4.184-8.062,3.257-9.371-3.124-.573-2.8-1.261-5.588-1.6-8.425-.5-4.117,1.433-5.97,5.588-5.435,2.675.354,5.311.965,7.957,1.509,6.744,1.366,7.642,3.649,3.315,9.743,2.579,2.417,5.282,4.862,7.89,7.413C3553.889,6497.766,3554.663,6500.106,3552.3,6502.389Z" transform="translate(-3487.751 -6437.747)" fill="#1e2639"/>
      <path id="Path_1066" data-name="Path 1066" d="M3641.238,6546.088a2.867,2.867,0,0,1-2.528-4.209l7.283-13.731a2.865,2.865,0,1,1,5.063,2.686l-7.283,13.731A2.866,2.866,0,0,1,3641.238,6546.088Z" transform="translate(-3492.738 -6439.97)" fill="#1e2639"/>
      <path id="Path_1067" data-name="Path 1067" d="M3673.237,6571.561c-.053.006-.106.012-.16.015l-15.5,1.1a2.865,2.865,0,1,1-.407-5.716l15.5-1.1a2.866,2.866,0,0,1,.567,5.7Z" transform="translate(-3493.46 -6441.726)" fill="#1e2639"/>
      <path id="Path_1068" data-name="Path 1068" d="M3654.674,6556.121a2.867,2.867,0,0,1-1.823-5.261l13.052-8.44a2.865,2.865,0,1,1,3.111,4.813l-13.052,8.439A2.847,2.847,0,0,1,3654.674,6556.121Z" transform="translate(-3493.328 -6440.656)" fill="#1e2639"/>
    </g>
  </g>
</svg>
