<svg xmlns="http://www.w3.org/2000/svg" width="250.465" height="449.963" viewBox="0 0 250.465 449.963">
  <g id="Group_1998" data-name="Group 1998" transform="translate(-6657.579 -4090.188)">
    <path id="Path_383" data-name="Path 383" d="M6904.462,4321.773c-1.77-1.47-3.08-3.49-4.72-5.15-8.65-8.74-17.36-17.42-26-26.17-5.34-5.41-11.11-10.51-15.75-16.48-7.15-9.18-13.87-18.77-20.09-28.61-6.1-9.64-13.07-17.25-25.52-17.07a2.034,2.034,0,0,1-1.43-.36c-1.46-1.76-3.67-3.45-4.02-5.44-.56-3.2.02-6.62.33-9.94.41-4.34,2.64-6.39,7.11-4.93,3.66,1.19,5.96-.25,6.77-3.75,1.37-5.89,6.14-11.39,2.11-18a6.376,6.376,0,0,1-.4-3.92c1.36-9.26-3.77-13.87-11.66-16.53-2.99-1.01-5.97-2.26-9.05-2.72s-4.93-1.37-6.03-4.63c-1.46-4.33-4.61-7.53-9.66-7.24a10.526,10.526,0,0,0-9.55,6.93c-1.95,4.61.4,7.87,3.12,11.24a6.289,6.289,0,0,1,1.07,4.44c-.11.84-1.85,1.44-2.87,2.15-.85-1.45-2.45-2.91-2.44-4.36.06-7.63-.38-15.44,1.08-22.84,2.09-10.56,5.68-20.82,8.4-30.39h16.11c1.47-6.3-5.94-2.45-6.86-5.91,3.81-4.23,6.28-4.73,11.19-1.79,3.06,1.82,5.66,2.97,7.55-2-3.57-2.2-7.16-4.42-10.91-6.74,1.49-1.84,3.41-4.2,5.33-6.55-.45-.46-.89-.91-1.33-1.37-1.81,1.21-3.59,2.47-5.44,3.6-2.64,1.6-5.17,3.84-8.05,4.51-7.66,1.77-13.82,5.94-16.97,12.7-8.72,18.67-14.9,38.11-14.17,59.13.13,3.7-.58,6.99-4.91,8.2a3.841,3.841,0,0,0-2.23,2.3c-1.92,7.31-3.94,14.62-5.24,22.05-.32,1.85,1.67,5.78,2.96,5.94,7.34.92,7.37,6.63,7.72,11.47.85,11.94,1.08,23.94,1.49,35.92a42.527,42.527,0,0,1-.49,5.37,21.053,21.053,0,0,1-3.88-8.49c-2.47-11.72-8.92-20.47-18.76-27.22-3.75-2.56-6.85-6.3-9.66-9.94-4.96-6.42-9.98-11.98-19.01-7.71-3.81-9.35-7.5-18.25-11.06-27.19-5.54-13.91-10.99-27.85-16.45-41.79-2.3-5.86-2.55-11.46,1.06-17.14,2.42-3.8,1.51-7.91-2.83-9.57-6.09-2.32-8.58-6.85-10.01-12.62a23.734,23.734,0,0,0-2.45-6c-1.74-3.05-3.04-8.02-7.36-6.78-4.61,1.31-2.7,6.34-2.24,9.65,1.49,10.54,2.97,21.14,5.41,31.48,6.31,26.7,13.14,53.28,19.93,80.59-4.21,2.29-8.4,4.97-7.92,11.12.06.78-1.23,1.96-2.16,2.49-7.42,4.22-8.65,10.38-7.07,18.36,1,5.03-.08,10.44.09,15.67.12,3.52.84,7.02,1.19,10.53.2,2.02.83,4.28.19,6.05-3.19,8.85-2.13,16.7,4.66,23.45,2.94,2.91,3.7,6.26,3.77,10.37.04,2.57,1.56,6.37,3.56,7.4,6.13,3.16,7.98,8.05,8.09,14.28.09,4.58,2.51,7.52,6.18,10.17a15.751,15.751,0,0,1,5.66,7.42c2.61,8.43,3.4,9.5,11.93,9.47,3.62-.01,6.14,1.06,7.11,4.8,1.25,4.78,4.62,7.12,9.32,7.81a12.837,12.837,0,0,1,10.15,7.16c2,3.82,5.04,5.94,9.81,5,8.17-1.62,10.5.05,11.82,8.24,2.22,13.81,4.66,27.59,6.39,41.46,2.06,16.55,10.74,30.69,15.93,46.09,2.52,7.49,4.5,14.39-.21,21.91-2.78,4.45-1.46,8.52,3.24,10.32,6.61,2.54,9,7.49,11.04,13.62,1.59,4.79,4.54,9.16,7.21,13.52a4.2,4.2,0,0,0,3.83,1.24,4.559,4.559,0,0,0,2.43-3.3,26.423,26.423,0,0,0-.28-7.94q-6.87-34.215-14.02-68.39c-1.34-6.34-3.48-12.5-4.79-18.84a215.761,215.761,0,0,1-3.6-21.99c-.72-7.28-.59-14.63-.81-21.96-.05-1.6,0-3.21,0-6.31,8,1.77,15.11,3.58,22.32,4.81,3.1.53,8.04,1.11,9.32-.53,3.94-5.06,7.71-3.24,11.79-1.35,5.38,2.48,10.44,2.22,14.88-1.76,4.5-4.03,3.92-9.22,2.49-14.39-4.26-15.34-12.65-28.53-21.79-41.27-7.48-10.41-15.23-20.63-22.92-30.89a9.38,9.38,0,0,1-1.1-10.31q7.845-16.709,15.73-33.39c.07-.13.52-.08,1.67-.22q1.95,14.475,3.9,28.84c7.62,1.05,15.19,2.19,22.78,3.07,1.74.2,3.57-.71,5.36-.71s3.94-.07,5.28.85c6.56,4.53,12.75,9.61,19.37,14.06,8.83,5.93,16.07,12.58,17.87,23.98.7,4.42,3.96,8.44,6.44,13.43,2.86-5.07,4.97-8.58,6.85-12.2C6908.962,4328.963,6908.482,4325.093,6904.462,4321.773Zm-122.74-110.11c-4.03-5.42-.08-7.05,3.26-9.32C6787.892,4207.023,6784.362,4209.023,6781.722,4211.663Z" fill="#1b3837"/>
  </g>
</svg>
