<svg xmlns="http://www.w3.org/2000/svg" width="695.172" height="704.139" viewBox="0 0 695.172 704.139">
  <g id="Group_2326" data-name="Group 2326" transform="translate(-7472.807 -1060.777) rotate(-60)" opacity="0.05">
    <path id="Path_1535" data-name="Path 1535" d="M2869.906,7641.971c-81.487,78.723-203.649,97.3-302.847,45.977-103.07-53.262-157.119-161.5-139.272-279,12.913-85.406,90.111-181.285,154.629-192.164-129.91,81.531-143.791,222.738-93.433,318.113,54.372,102.926,174.967,151.676,284.631,114.688,121.148-40.859,177.181-147.8,153.062-298.238C2971.5,7445.424,2946.275,7568.236,2869.906,7641.971Z" transform="translate(0 12.335)"/>
    <path id="Path_1536" data-name="Path 1536" d="M2773.2,7317.332c6.917,42.332,2.95,71.2-16.187,103.066,23.336-76.875,9.039-139.961-56.078-181.836-64.608-41.551-128.019-29.559-185.435,20.156-1.245-1.477-2.444-3-3.687-4.477,9.452-8.16,18.953-16.324,28.407-24.441-76.969,32.145-108.42,135.168-68.3,215.6,41.458,83.1,146.188,114.5,228.923,68.664C2770.521,7475.418,2807.692,7374.375,2773.2,7317.332Zm-129.542,178.93c-1.706.461-3.412.875-5.164,1.246q-2.353.48-4.7.832c-1.43.227-2.906.414-4.381.6-.23.047-.462.047-.692.094-1.43.137-2.858.227-4.289.32-1.152.047-2.26.094-3.366.094a6.082,6.082,0,0,1-.922.047h-.554c-3-.047-5.949-.184-8.762-.508s-5.626-.691-8.394-1.105c-2.168-.324-4.335-.691-6.456-1.109-1.43-.277-2.859-.551-4.243-.875-1.613-.371-3.229-.738-4.8-1.105a4.774,4.774,0,0,1-.783-.187c-1.661-.414-3.32-.875-4.981-1.336-1.613-.461-3.273-1.016-4.887-1.523-1.246-.367-2.444-.781-3.644-1.246-.785-.273-1.568-.551-2.306-.875-.555-.184-1.107-.414-1.661-.6a119.857,119.857,0,0,1-13.742-6.273c-1.384-.738-2.722-1.477-4.059-2.258-1.521-.832-2.951-1.754-4.382-2.676a4.675,4.675,0,0,1-.691-.414c-1.061-.691-2.074-1.34-3.043-2.078-1.937-1.336-3.781-2.719-5.626-4.148-1.8-1.43-3.6-2.953-5.351-4.52-1.291-1.152-2.582-2.3-3.781-3.508-1.153-1.105-2.26-2.258-3.366-3.41-.093-.094-.184-.23-.276-.32-2.4-2.586-4.7-5.258-6.871-8.07-1.106-1.43-2.214-2.91-3.275-4.383-1.153-1.613-2.26-3.23-3.32-4.934-.922-1.43-1.844-2.953-2.72-4.426-.969-1.617-1.937-3.324-2.813-5.031a.14.14,0,0,0-.047-.09c0-.047,0-.047-.046-.094l-.139-.277c0-.094,0-.137-.046-.184,0-.047,0-.047-.046-.09v-.047c-2.075-5.395-5.026-10.746-7.193-16.141-.369-.879-.692-1.754-1.015-2.676a37.155,37.155,0,0,1-1.062-3.687,12.866,12.866,0,0,1-.368-1.707,23.88,23.88,0,0,1-.416-3.6c-1.844-51.605,35.371-97.859,85.315-108.008,51.375-10.422,101.271,16.141,121.287,64.613,19.184,46.484,2.858,102.285-41.136,128.711A68.439,68.439,0,0,1,2643.655,7496.262Zm100.072-99.656v.047c-.368,2.352-.783,4.656-1.245,6.961a140.59,140.59,0,0,1-8.254,26.75,120.309,120.309,0,0,1-5.949,12.266,117.333,117.333,0,0,1-7.056,11.344c-.83,1.2-1.707,2.352-2.583,3.5a109.019,109.019,0,0,1-8.439,9.824c-9.915,10.1-21.536,17.711-34.449,21.629,54.88-58.289,65.993-109.062,35.465-161.5a118.4,118.4,0,0,0-128.065-55.8c-57.231,13-89.052,55.3-94.446,129.082-20.2-57,22.089-128.758,84.116-149.145,68.9-22.687,143.929,15.223,166.388,84.027a120.472,120.472,0,0,1,4.657,19.645c.231,1.66.462,3.32.646,5.027.092.645.139,1.336.185,2.031a4.92,4.92,0,0,1,.091,1.152c.047.09.047.227.093.32,0,.184.046.414.046.648,0,.273.046.5.046.781.093.969.139,1.891.186,2.859v.461a.281.281,0,0,1,.046.184.175.175,0,0,1-.046.141,106.8,106.8,0,0,1,.046,11.527c-.046,1.246-.093,2.445-.185,3.691-.047,1.105-.139,2.168-.231,3.273l-.275,2.766a1.591,1.591,0,0,1-.093.785c0,.555-.092,1.105-.138,1.66C2744.1,7393.883,2743.912,7395.219,2743.728,7396.605Z" transform="translate(108.377 0.001)"/>
    <path id="Path_1537" data-name="Path 1537" d="M2747.157,7601.627c-109.988,54.051-242.2,4.84-290.949-108.465-45.47-105.648,5.765-237.359,112.847-277.852-94.492,74.109-122.393,164.133-81.025,250.781,40.075,84.07,128.065,127.879,217.023,108.051,100.3-22.316,149-97.215,148.68-228.6C2886.152,7411.811,2862.079,7545.186,2747.157,7601.627Z" transform="translate(54.819 7.022)"/>
    <path id="Path_1538" data-name="Path 1538" d="M2465.574,7260.588c.047.461.139.969.186,1.43a.14.14,0,0,0-.047-.09c0-.047,0-.047-.046-.094-.093-.137-.139-.23-.23-.371,0-.043,0-.043-.047-.09,0-.047,0-.047.047-.09v-.047l.138-.555Z" transform="translate(147.97 170.559)"/>
    <path id="Path_1539" data-name="Path 1539" d="M2465.578,7253.727c.046-.23.092-.508.138-.738l-.276,1.66C2465.485,7254.324,2465.531,7254.051,2465.578,7253.727Z" transform="translate(148.151 143.112)"/>
    <path id="Path_1540" data-name="Path 1540" d="M2468.1,7264.971c2.167,2.813,4.473,5.484,6.871,8.07C2472.572,7270.5,2470.267,7267.783,2468.1,7264.971Z" transform="translate(157.759 186.377)"/>
    <path id="Path_1541" data-name="Path 1541" d="M2480.86,7273.738c.737.324,1.521.6,2.306.875-1.338-.461-2.676-.922-3.967-1.473C2479.753,7273.324,2480.306,7273.555,2480.86,7273.738Z" transform="translate(197.848 215.884)"/>
    <path id="Path_1542" data-name="Path 1542" d="M2517.862,7277.082a89.469,89.469,0,0,1-17.893,0c-5.027-.555-10.008-1.293-14.85-2.262,2.121.418,4.288.785,6.456,1.109,2.768.414,5.58.781,8.394,1.105A86.028,86.028,0,0,0,2517.862,7277.082Z" transform="translate(219.229 221.95)"/>
    <path id="Path_1543" data-name="Path 1543" d="M2509.89,7276.121a109.019,109.019,0,0,0,8.439-9.824A96.026,96.026,0,0,1,2509.89,7276.121Z" transform="translate(308.689 191.182)"/>
    <path id="Path_1544" data-name="Path 1544" d="M2515.1,7281.367a143.889,143.889,0,0,0,8.254-26.75A140.59,140.59,0,0,1,2515.1,7281.367Z" transform="translate(327.506 148.999)"/>
    <path id="Path_1545" data-name="Path 1545" d="M2516.89,7292.5a139.567,139.567,0,0,0,1.384-48.375A138.424,138.424,0,0,1,2516.89,7292.5Z" transform="translate(333.97 111.11)"/>
    <path id="Path_1546" data-name="Path 1546" d="M2466.3,7347.566c-.046.184-.092.324-.138.555v.047c-.047.043-.047.043-.047.09.047.047.047.047.047.09l.092.094.139.277c.046.047.046.047.046.094a.14.14,0,0,1,.047.09C2466.435,7348.441,2466.343,7348.027,2466.3,7347.566Zm145.914-92.047c-31.683-22.781-65.9-25.273-99.705-6.32-1.43.785-2.812,1.613-4.2,2.492-1.245.738-2.444,1.52-3.6,2.3-.046.047-.139.09-.185.141-.922.6-1.8,1.242-2.676,1.887-.553.371-1.014.738-1.521,1.109s-1.015.738-1.522,1.152c-.968.738-1.937,1.523-2.858,2.3-1.661,1.383-3.229,2.813-4.7,4.242l-2.214,2.215q-1.523,1.588-2.905,3.184l-.139.137c-.922,1.063-1.845,2.168-2.674,3.273-.739.879-1.43,1.8-2.076,2.723-.553.781-1.107,1.566-1.613,2.4-.555.828-1.107,1.66-1.615,2.488-.968,1.617-1.937,3.273-2.812,4.934-.092.141-.138.277-.23.418-.369.785-.738,1.566-1.106,2.352-.508,1.059-.969,2.121-1.43,3.18-.323.738-.646,1.523-.923,2.262-.415,1.012-.784,2.027-1.152,3.09-.416,1.246-.831,2.488-1.2,3.781l-.139.414c-.046.094-.046.23-.092.324l-.969,3.734c-.046.23-.092.414-.139.648-.185.734-.369,1.52-.508,2.3-.229.969-.414,1.98-.553,3a4.178,4.178,0,0,0-.139.738c-.046.23-.092.508-.138.738-.047.324-.093.6-.139.922-.093.555-.185,1.152-.231,1.707-.091.645-.184,1.289-.229,1.938,0,.137-.046.23-.046.367a4.509,4.509,0,0,0-.046.785c-.093.785-.185,1.566-.231,2.352-.23,3-.369,6.039-.369,9.129v.094c0,2.723.093,5.535.277,8.348.046.367.046.738.092,1.109.093,1.426.231,2.813.369,4.242.093,1.105.23,2.121.368,3.227,4.06-15.633,8.117-31.176,12.222-46.762.047,1.938.093,3.871.185,5.766.092,1.52.184,3.09.322,4.563a5.3,5.3,0,0,0,.046.875c.093,1.523.231,3.047.416,4.52a7.534,7.534,0,0,0,.092,1.016q.277,2.766.691,5.395.485,3.322,1.107,6.5c.046.137.046.324.092.414.416,2.168.876,4.293,1.43,6.32.461,1.844.969,3.645,1.477,5.395.137.461.275.922.46,1.383.508,1.707,1.107,3.367,1.707,4.98a2.059,2.059,0,0,0,.139.324c.691,1.844,1.475,3.641,2.26,5.395.83,1.8,1.659,3.5,2.581,5.164.878,1.664,1.8,3.23,2.768,4.75.047.094.093.094.139.141.876,1.383,1.8,2.766,2.767,4.059.139.184.276.367.369.508a66.524,66.524,0,0,0,7.01,7.793c1.245,1.2,2.583,2.352,3.92,3.414,1.383,1.105,2.767,2.121,4.243,3.09,1.43.965,2.95,1.887,4.473,2.719q3.182,1.729,6.641,3.184c.923.367,1.846.688,2.813,1.059.83.277,1.706.555,2.537.832.922.277,1.8.555,2.674.781.969.277,1.983.508,2.952.738,1.015.23,2.075.414,3.136.645.922.141,1.845.277,2.813.418s1.982.277,3,.414l3.182.277c1.43.094,2.859.137,4.29.184,1.982.047,3.919.047,5.856,0,3.228-.141,6.363-.414,9.453-.832,1.384-.184,2.721-.414,4.059-.691a68.1,68.1,0,0,0,6.871-1.75c1.107-.324,2.214-.691,3.32-1.109.784-.277,1.615-.6,2.4-.965.507-.187,1.015-.418,1.522-.648.645-.273,1.244-.551,1.844-.828.922-.461,1.845-.969,2.768-1.477a26.148,26.148,0,0,0,2.443-1.477,48.387,48.387,0,0,0,9.73-8.023,43.8,43.8,0,0,0,3.921-4.75,22.74,22.74,0,0,0,1.521-2.168c.6-.922,1.2-1.891,1.754-2.859,10.561-18.676,13.973-41.367,19.414-58.754,17.063,33.668,5.673,67.148-22.09,97.906C2661.277,7370.488,2664,7292.781,2612.21,7255.52Zm-58.246,32.973a24.441,24.441,0,1,1,0,48.883,3.432,3.432,0,0,1-.691-.047l-.046.047-.046-.047a24.424,24.424,0,0,1,.783-48.836Zm-49.621-5.211c2.536,10.238,3.781,17.434,6.041,24.258,10.146,30.527,45.84,41.273,70.882,21.488,18.354-14.527,20.014-30.527,4.888-49.668-5.072-6.41-10.606-12.5-15.587-18.355,27.993,5.672,38.139,20.754,33.111,50.039-4.7,27.254-31.268,45.426-59.721,40.766C2513.889,7346.922,2498.256,7321.6,2504.343,7283.281Zm83.609,84.254c-24.165,15.727-54.464,13.605-76.784-5.395-20.291-17.293-27.07-43.949-15.5-71.711-.922,47.035,16.786,71.617,51.143,75.031,35.557,3.5,56.908-16.512,67.008-62.625C2620.418,7328.242,2610.642,7352.824,2587.952,7367.535Z" transform="translate(147.248 83.671)"/>
  </g>
</svg>
