<svg xmlns="http://www.w3.org/2000/svg" width="454.693" height="431.365" viewBox="0 0 454.693 431.365">
  <g id="Group_2238" data-name="Group 2238" transform="translate(-9244 -6391)">
    <path id="Path_1220" data-name="Path 1220" d="M9687.029,6547.364c-11.092,1.4-22.162,1.583-33.182-.728-19.123-4-34.294-14.547-47.318-28.6-13.9-15-23.968-32.5-33.382-50.514-6.1-11.68-12.377-23.366-19.726-34.266-12.957-19.206-30.268-33.1-53.211-38.8-6.3-1.568-12.8-2.326-19.205-3.455h-19.317a29.967,29.967,0,0,1-3.589.706,88.929,88.929,0,0,0-30.527,8.024c-18.834,8.737-32.609,23.069-43.062,40.528-8.225,13.745-15.217,28.218-23.062,42.193-10.342,18.44-22.52,35.469-39.459,48.575-12.362,9.569-26.166,15.854-41.91,16.687-8.344.438-16.762-.156-25.134-.5-4.369-.178-8.321.2-10.944,4.265v4.458c.676,1.7,1.264,3.448,2.066,5.089.72,1.486,1.671,2.861,2.518,4.287-.936-6.308.223-8.6,6.4-9.525,4.458-.669,9.094-.007,13.641-.223,8.723-.4,17.668.06,26.115-1.723,22.705-4.814,40.209-18.151,54.289-36.168,14.369-18.381,25.52-38.693,34.525-60.135,7.43-17.705,17.482-32.936,33.982-43.642,25.135-16.308,51.77-23.039,80.82-13.083,24.042,8.24,44.273,21.717,55.574,45.708,4.041,8.581,7.7,17.34,11.953,25.818,10.26,20.454,21.4,40.425,37.906,56.651,20.082,19.733,43.946,29.548,72.469,26.427a34.568,34.568,0,0,1,8.886-.089c2.7.408,5.847,1.136,7.667,2.9,1.42,1.382,1.1,4.547,1.619,7.236,1.4-3.121,2.824-6.323,4.258-9.525v-4.458C9695.818,6547.223,9691.666,6546.785,9687.029,6547.364Z" fill="#432a00"/>
    <path id="Path_1221" data-name="Path 1221" d="M9687.053,6559.087c-4.7-.044-9.405.06-14.108.186a102.314,102.314,0,0,1-31.115-3.611c-21.881-6.271-38.2-20.082-51.524-37.921-13.084-17.512-22.832-36.925-31.465-56.881-7.162-16.576-15.914-31.621-31.413-42.037-21.783-14.629-45.135-22.7-71.339-16.368-29.615,7.162-52.854,22.839-65.321,52.089-8.113,19.058-17.11,37.735-28.649,55.046-8.632,12.958-18.515,24.741-31.39,33.723a87.741,87.741,0,0,1-58.048,16,96.825,96.825,0,0,0-16.977.49c-3.388.364-4.621,2.853-3.41,5.988a27,27,0,0,0,4.235,7.72c10.735,12.771,24.034,22.073,39.956,27.036,9.184,2.868,18.775,4.458,28.553,6.709-7.363,8.15-10.885,17.995-13.567,28.144-3.878,14.674-8.276,28.976-22.452,38.783,26.829.631,50.7-6.278,73.9-18.425-6.106,13.529-15.662,22.4-28.536,28.232,5.921.966,11.85,1.932,16.924,2.756.669,9.213,1.315,18.166,1.991,27.46,4.6-2.422,8.217-4.331,12.11-6.382a6.466,6.466,0,0,1,.134,1.679c-2.764,9.621-3.039,19.473-2.853,29.384.066,3.366.014,6.731.014,10.491,7.021-.164,11.2-5.81,15.8-9.985v23.047c.008,8.247-3.536,14.2-11.24,17.5a6.963,6.963,0,0,0-1.338,1.1c15.469,2.6,27.564.119,38.567-8.1.929,3.269,2.385,6.256,2.519,9.3.372,8.128-3.916,14.792-8.091,21.605,14.673,4.666,27.66,1.761,39.688-7.355,2.044,6.627,6.933,9.9,12.237,12.771,8.038,4.339,17.08,7.177,22.608,15.483,4.041-6.486,10.238-9.354,16.293-12.43,7.415-3.759,15.476-6.739,18.5-15.8,12.14,9.257,25.03,11.9,39.332,7.385-9.309-18.841-9.985-23.344-4.636-30.461,9.65,7.623,26,10.8,37.757,7.244-.734-.4-1.352-.773-2-1.078-6.643-3.158-10.275-8.343-10.35-15.758-.089-8.3-.021-16.6-.021-24.369,9.056,8.8,11.723,10.372,15.542,9.547-.066-13.671,1.2-27.333-3.246-41.614,4.747,2.549,8.388,4.5,12.838,6.88.661-9.48,1.292-18.485,1.925-27.5l18.18-3.031c-8.574-3.61-15.587-7.556-20.8-14.146,12.541-7.89,10.988-25.565,2.222-32.8,3.276-8.143,6.6-15.811,9.376-23.664a4.661,4.661,0,0,1,4-3.492c7.6-1.531,15.193-3.158,22.823-4.525,14.8-2.66,29.043-6.687,41.443-15.662,7.853-5.684,15.453-11.672,20.4-20.208C9696.785,6562.75,9694.579,6559.162,9687.053,6559.087Zm-128.9-64.875c.289-.1.58-.2.876-.3,3.827,5.847,7.661,11.7,11.9,18.173-.817-6.33-1.523-11.776-2.236-17.229.29-.082.579-.171.87-.252,8.744,26.969,25.906,46.858,50.395,60.462-5.521.861-16.07-2.333-30.5-8.841,1.664,1.954,3.27,3.953,4.993,5.847,1.738,1.925,3.536,3.8,5.408,5.6,1.954,1.873,4.027,3.619,6.865,6.145-8.418-2.1-14.51-6.642-20.892-10.587-.209.23-.416.461-.624.684,3.944,4.614,7.9,9.22,11.672,13.626-21.643-7.905-44.162-33.136-44.519-66.889,3.6,5.431,7.162,10.84,10.78,16.212a31.977,31.977,0,0,0,2.481,2.9C9563.082,6511.07,9560.616,6502.645,9558.156,6494.212Zm-2.229,171.729c-1.33,3.157-2.512,5.951-3.924,9.309-.713-1.88-1.174-3.113-1.7-4.5-4.7,9.555-11.932,11.776-20.98,6.249-3.448-2.1-6.294-5.171-9.659-7.437-5.482-3.693-11.166-7.088-17.615-11.137.572,3.224.959,5.364,1.448,8.136-5.639-2.764-11.062-5.417-16.479-8.069-.3.119-.587.238-.884.364,1.271,2.578,2.541,5.156,3.736,7.585-5.527-.884-12.073-.327-16.508-6.219-4.316,5.907-10.93,5.32-16.591,6.219,1.218-2.377,2.533-4.948,3.849-7.511-.3-.164-.595-.32-.892-.476-5.379,2.66-10.751,5.327-16.479,8.165.461-2.727.854-5.03,1.249-7.34l-.84-.773c-7.014,4.941-13.923,10.03-21.078,14.763-3.641,2.408-7.5,4.926-11.627,6.055-6.783,1.85-10.915-.958-14.525-8.6-.542,1.449-1.011,2.689-1.679,4.479-1.419-3.261-2.652-6.107-4.124-9.495-1.39,5.914.216,10.81,2.765,16.382-8.908-9.666-7.86-26.813,1.232-32.884,1.026,3.953,1.694,8.083,3.181,11.9,2.637,6.783,7.846,9.859,13.017,7.712a16.373,16.373,0,0,0,5.81-4.881c2.1-2.563,3.589-5.609,5.521-8.321,3.968-5.587,9.547-7.683,16.405-7.422-1.412,2.415-2.683,4.577-3.953,6.738,6.271-5.082,12.266-10.022,20.4-4.473q-3.354,3.589-6.693,7.155c.229.2.46.394.7.594,3.359-1.256,6.665-2.734,10.12-3.648a7.04,7.04,0,0,1,4.732.825c5.854,3.269,11.961,3.752,17.652.527a9.444,9.444,0,0,1,8.656-.75c2.525.914,4.955,2.125,8.187,2.615-2.153-2.407-4.316-4.807-6.463-7.2,4.3-3.678,10.163-4.6,20.2,4.465-1.219-2.162-2.444-4.324-3.641-6.449,5.847-1.211,12.273,1.523,16.241,7.17,1.917,2.719,3.528,5.646,5.438,8.373,5.282,7.534,13.47,7.237,17.615-.974,2.154-4.279,3.113-9.168,4.577-13.692,8.76,4.822,9.993,22.586,1.5,31.843C9555.809,6676.432,9557.732,6671.55,9555.928,6665.941Zm-96.608,59.37c11.212.35,22.46-.2,33.687-.564,6.88-.223,13.105-2.258,17.816-7.764-2.839,6.754-6.962,12.4-13.945,15.246-15.409,6.278-30.981,6.249-46.443.29-6.946-2.675-12.207-8.715-14.889-16.494C9441.928,6724.539,9450.791,6725.051,9459.319,6725.311Zm-24.51-46.709c-.1-.572.728-1.323,1.129-1.984a6.928,6.928,0,0,0,1.278,1.2c1.523.824,3.1,1.56,4.948,2.474-2.229,2.013-3.641,3.276-5.587,5.037C9435.916,6682.925,9435.211,6680.792,9434.81,6678.6Zm20.142,5.861q1.169-4.97,2.341-9.933c.423.1.847.193,1.271.282q-1.16,7.121-2.318,14.258c-9.421-2.058-11.925-4.562-11.07-10.677.669-4.732,2.385-5.765,9.487-5.431v11.59Zm-9.755,20.655c7.28-5.468,19.681-7.727,28.329-.461,7.125-7.214,21.665-5.23,28.8,1.137,2.645,2.362,2.05,5.438-1.368,7.132-15.7,7.8-31.828,9.049-48.374,2.942a63.164,63.164,0,0,1-6.753-2.942C9441.979,6710.986,9441.756,6707.695,9445.2,6705.117Zm19.2-31.123c.959-1.277,3.218-2.823,4.317-2.474,1.537.5,3.463,2.571,3.6,4.109.446,5.089.163,10.246.163,16.152-4.7-.817-8.4-1.471-12.467-2.177C9459.914,6683.876,9460.977,6678.556,9464.394,6673.994Zm9.956,1.962c.156-1.657,2.08-3.723,3.708-4.436.913-.4,3.3,1.241,4.286,2.526,3.433,4.45,4.272,9.755,4.436,15.6-4.286.691-8.105,1.308-12.607,2.043C9474.172,6685.971,9473.867,6680.926,9474.35,6675.956Zm13.827-1.137c.431-.1.861-.186,1.292-.274q1.148,4.992,2.281,9.993c.112.022.223.044.327.074v-11.984c2.5.356,4.889.579,7.222,1.1a2.759,2.759,0,0,1,1.5,1.828c1.939,7.972,1.167,9.532-5.713,12.266-1.248.5-2.549.862-4.6,1.538C9489.678,6684.27,9488.927,6679.544,9488.177,6674.819Zm22.051,10.58c-2.065-1.857-3.418-3.068-5.438-4.889,1.851-1.367,3.618-2.734,5.491-3.916.133-.082,1.672,1.248,1.6,1.791A69.032,69.032,0,0,1,9510.228,6685.4Zm-10.906-88.762a107.544,107.544,0,0,0,10.617-3.952c5.178-2.236,10.356-4.458,15.521-6.717,7.808-3.417,15.758-6.211,24.465-5.869-10.668,1.129-19.8,6.441-29.4,10.558-6.509,2.786-13.263,5.491-20.172,6.716-4.74.847-10.007-.595-14.926-1.575-21.694-4.324-29.659-8.165-50.3-24.117.766.387,1.56.728,2.3,1.159a210.324,210.324,0,0,0,39.778,18.277,5.77,5.77,0,0,1,.951.438c.208.111.408.238.616.356.29.179.587.364.884.527h.008c-.074-.082-.156-.17-.23-.267a11.745,11.745,0,0,0-1.129-1.323,1.459,1.459,0,0,0-.268-.208,1.58,1.58,0,0,0-.282-.164c-2.236-1-4.592-1.73-6.895-2.593-3.8-1.426-7.237-2.853-8.389-7.682-.869-3.648-4.123-5.914-8.068-7.132,1.635,3,3.143,5.78,4.881,8.975-8.818-2.2-34.206-18.842-39.934-26.287,8.017-5.78,19.911-2.89,33.128,8.217-.11-6.285,1.657-11.761,6.991-15.067a24.9,24.9,0,0,1,9.229-3.1,34.359,34.359,0,0,1,9.985.074c9.858,1.449,14.637,7.021,15.706,17.5,3.4-2.466,6.7-5.438,10.5-7.489a24.056,24.056,0,0,1,20.067-1.479,127.06,127.06,0,0,1,14.874,6.538c4.22,2.147,5.632,6.687,4.013,11.085a8.07,8.07,0,0,1-9.021,5.379c-.5-4.19-.988-8.21-1.463-12.222-.416-.06-.832-.126-1.248-.186-5.224,11.025-11.175,21.441-22.475,27.326-4.956,1.419-9.89,2.764-11.621-4.554-1.716,3.054-3.119,5.55-4.657,8.292C9495.518,6596.318,9497.59,6597.1,9499.321,6596.637Zm-2.006,44.318c-1.227.787-2.363,1.708-3.144,2.281-.207-4.124-.416-8.366-.631-12.616-.208.067-.424.141-.64.208-1.938,5.126-3.231,10.632-5.943,15.313-6.107,10.5-20.164,10.944-26.657.729-2.8-4.414-3.737-10.023-5.506-15.09a16,16,0,0,1-.312-1.917c-2.816,4.644-2.051,8.975-1.182,13.945-1.761-1.285-3.031-2.66-4.591-3.217a8.577,8.577,0,0,0-4.9-.067c-.506.141-.476,2.244-.706,3.529-5.312.75-7.794-1.627-7.08-7.021.906-6.887,6.434-12.259,12.392-11.924a6.959,6.959,0,0,1,3.485.944,3.922,3.922,0,0,0,4.613.364c1.138-.55,2.965.319,4.726.594a25.955,25.955,0,0,1-1.59-3.655,29.716,29.716,0,0,1-.469-4.532c2.192,2.622,3.856,4.6,5.514,6.575l1.159-.936c-.224-3.767-.38-7.541-.691-11.3-.237-2.853,1.166-4.77,3.685-5.164a29.766,29.766,0,0,1,9.042-.007c2.512.386,3.886,2.333,3.655,5.156-.312,3.774-.476,7.556-.7,11.331.319.252.64.512.959.765q2.508-2.954,5.022-5.907c.312.134.624.275.936.417-.684,2.429-1.367,4.859-1.887,6.7,1.865.23,3.952.5,6.041.721a2.949,2.949,0,0,0,1.329-.23c8.723-3.536,16.138.773,17.444,10.142.751,5.416-1.73,7.771-7.28,6.9C9503.9,6639.773,9501.245,6638.436,9497.315,6640.955Zm-2.162-33.233a5.389,5.389,0,0,1-.193-1.085,3.619,3.619,0,0,1,.275-.951c3.506,7.89,7.778,15,14.74,20.112a45.144,45.144,0,0,0,19.421,8.588,7.788,7.788,0,0,0,3.291,0c2.854-.788,5.1-.356,6.724,2.846.424-4.8,4.034-6.441,7.274-8.618,3.477-2.333,6.634-5.149,8.945-6.969-5.528,10.171-11.836,21.792-17.929,33-1.285-3.053-2.488-6.627-4.242-9.9-2.459-4.606-5.706-7.875-11.285-9.621C9508.57,6630.865,9498.9,6622.039,9495.153,6607.722Zm11.4,11.769c-.252.245-.5.483-.758.72q-4.859-7.466-9.74-14.978c2.444-1.152,4.25-2,5.877-2.764C9499.856,6608.933,9504.358,6613.9,9506.55,6619.491Zm-.186-21.293c11-4.666,22.3-9.473,33.619-14.272C9528.861,6589.215,9519.648,6599.341,9506.364,6598.2Zm-50.068-8.38c1.159.557,2.876,1.82,2.809,2.637a4.32,4.32,0,0,1-2.489,3.224,4.954,4.954,0,0,1-4.02-1.463c-1.508-1.694-2.437-3.893-3.722-6.084-2.972,5.661-5.208,6.545-11.085,4.279-6.107-2.355-10.654-6.739-14.258-11.991-3.313-4.837-6.151-10-10.082-15.261-.527,4.034-1.048,8.068-1.59,12.289-4.889.55-8.79-2.393-9.65-7.95-.633-4.071,3.4-9.376,7.979-10.246a3.392,3.392,0,0,1,2.451,1.033C9425.381,6572.817,9440.263,6582.157,9456.3,6589.817Zm-34.845,2.771c1.635,1.077,3.269,2.155,5.268,3.47-.943.572-1.449.877-1.486.892.706,1.642,2.162,3.4,1.813,4.651-.409,1.471-2.393,2.5-3.982,3.99.951,2.325,3.269,3.024,6.048,2.63,3.306-.468,4.249-2.9,4.436-5.884.973,3.469-.187,6.055-3.291,7.518-2.444,1.152-4.979.81-6.658-1.448a54.086,54.086,0,0,1-3.484-6.263c-.742,5.743,2.014,9.524,6.992,10.245,4.524.654,7.9-2.57,8.952-8.782,2.11,1.359,4.139,2.66,6.166,3.967-7.971,7.266-20.089,8.938-29.547,3.128-4.71-2.89-8.679-7.125-12.549-11.167-2.014-2.1-1.583-4.376,1.353-6.353C9408.152,6588.695,9414.653,6588.1,9421.451,6592.588Zm-15.773,25.915c-1.211-1.761-2.236-3.254-3.143-4.577,3.552.825,7.2,1.8,10.892,2.481,3.566.661,7.185,1.018,11.464,1.6-9.777,3.158-15.669,9.086-17.7,19,9.183-9.985,18.447-14.228,31-14-16.062,5.5-25.632,16.063-29.132,32.913-6.553-12.4-12.868-24.243-19.034-36.16-.937-1.805-1.182-3.975-2.452-6.189-.81,3.849-1.612,7.7-2.354,11.249-5.149-6.293-5.974-22.17.8-27.1,2.021,4.436,3.6,9.317,6.309,13.462A16.01,16.01,0,0,0,9405.678,6618.5Zm153.452-5.438c.229-4.02,2.422-7.928,3.908-12.371,4.2,8.752,2.348,16.68-1.375,24.912C9560.667,6621.1,9558.906,6617.024,9559.13,6613.064Zm-29.719-111.734a3.6,3.6,0,0,1-2.236,5.483,28.926,28.926,0,0,1-5.053.23c-3.1-.394-6.166-1.107-9.241-1.679.081-.431.17-.855.259-1.286,1.375.268,2.75.528,3.834.743-8.893-5.03-17.973-10.157-27.044-15.283.275-.535.55-1.077.817-1.612,3.626,1.664,7.341,3.143,10.833,5.037,3.447,1.865,6.664,4.153,9.985,6.256l.646-.8c-5.044-3.767-10.082-7.526-15.372-11.479.7-.052,1.353-.3,1.717-.089,4.666,2.742,9.376,5.431,13.894,8.4,3.514,2.3,7,3.819,11.4,3.537C9525.7,6498.663,9528.482,6499.844,9529.411,6501.33Zm-7.519,7.831c-3.574,2.756-8.663,1.538-11.13-2.578Q9516.391,6507.886,9521.893,6509.161Zm-18.418-56.651a32.168,32.168,0,0,1,4.264-3.559c5.127-3.708,9.853-7.571,12.438-13.767,1.769-4.243,5.313-4.777,7.734-1.716a4.632,4.632,0,0,1,.208,4.376c-1.575,2.125-2.979,3.849-2.147,6.82.261.951-1.285,3.4-2.058,3.433-1.582.052-4.213,1.352-4.666-1.092-5.766,5.156-11.791,10.543-17.824,15.937-.5-.505-1.01-1.011-1.515-1.509q8.035-7.02,16.077-14.027c-.192-.3-.394-.594-.587-.892l-13.47,9.2C9502.567,6454.33,9502.806,6453.208,9503.475,6452.51Zm-50.863-16.4c14.063-8.863,28.024-8.693,42.028.342,6.152,3.967,7.684,9.458,6.6,17.11-.861-4.54-1.545-8.2-2.236-11.865.3,3.916-1.106,6.9-3.179,10.1-1.428,2.191-1.375,5.342-1.97,8-.119-.1-.914-.795-2.43-2.117.885,2.258,1.114,4,2.073,5.1,4.324,4.926,4.139,9.622-.646,14.332.46.334.929.668,1.4,1l3.417-4.636c2.868.736,4.287,2.378,3.938,5.379-.386,3.41-2.66,4.889-5.884,6.256,1.144-2.073,2-3.619,2.8-5.082-3.537,1.427-6.694,2.868-9.963,3.975-3.091,1.04-5.23,2.244-3.4,6.033.929,1.91-.037,2.845-2.058,3.039-2.6.245-5.187.631-7.787.951.491,1.494.974,2.987,1.479,4.54.179-1.145.356-2.348.535-3.551l.869-.045c.171,1.561.342,3.121.572,5.32H9468.5v-5.216c.268-.022.535-.044.811-.059.2,1.174.4,2.355.557,3.269.646-1.411,1.39-3.023,2.133-4.628-2.979-.193-5.974-.223-8.916-.624-1.827-.253-2.281-1.739-1.463-3.313,1.663-3.195-.135-4.473-2.771-5.469-3.478-1.315-6.925-2.711-10.7-4.2.817,1.441,1.694,2.979,2.749,4.829-3.291-1.01-5.35-2.727-5.766-6.062-.371-3,1.085-4.629,3.611-5.223,1.255,1.657,2.393,3.15,3.529,4.636.416-.379.832-.765,1.255-1.152a30.182,30.182,0,0,1-1.938-2.749c-1.806-3.232-2.237-6.375.244-9.614a46.855,46.855,0,0,0,3.382-5.929c-.342-.26-.692-.528-1.033-.795-.424.965-.847,1.924-1.263,2.89-.261-.2-.513-.4-.772-.595-.082-.3-.313-.654-.224-.884,1.2-3.173.624-5.788-1.516-8.574-1.546-2.013-2.028-4.836-3.061-7.474-.543,3-1.123,6.174-1.754,9.636C9444.127,6444.828,9446.021,6440.266,9452.611,6436.112Zm-33.6-2.779c1.307-1.59,3.477-2.749,5.476-.892a12.413,12.413,0,0,1,2.912,4.205,22.665,22.665,0,0,0,8.782,10.171,62.883,62.883,0,0,1,6.909,5.565c.772.7,1.1,1.9,2.043,3.641-5.193-3.6-9.547-6.62-13.9-9.629-.216.3-.431.617-.646.921,5.082,4.391,10.171,8.76,15.208,13.2.342.3.23,1.129-.356,2.467-6.069-5.387-12.14-10.766-17.534-15.55-1.716.3-3.484,1.047-5.029.735-.944-.193-2.362-2.214-2.155-3.068.751-3.121-.326-5.193-2.325-7.444C9417.736,6436.907,9418.174,6434.337,9419.007,6433.333Zm-1.687,67.966a7.081,7.081,0,0,1,5.587-2.563c4.732.431,8.269-1.508,11.939-3.989,4.279-2.883,8.849-5.342,13.313-7.935.342-.193.893-.022,1.925-.022-5.543,4.1-10.64,7.868-15.736,11.634.2.29.4.587.6.877,6.888-3.952,12.987-9.517,21.145-10.854.209.372.417.743.624,1.122-9.041,5.126-18.083,10.246-26.813,15.194l3.834-.706c-3.834,5.119-9.555,1.665-14.436,3.492C9417.022,6506.055,9415.908,6503.507,9417.32,6501.3Zm18.3,5.342c-1.062,3.641-6.256,5.208-11.174,2.615C9428.509,6508.306,9432.2,6507.444,9435.619,6506.642Zm24.206,14.48c46.183-5.966,91.146,22.772,103.933,46.666-12.72-15.476-29.466-23.834-48.671-27.832,10,3.648,19.666,7.95,27.786,14.325-46.271-18.6-92.759-18.723-138.466-.193,3.774-3.908,14.087-9.3,27.267-13.856-11.39-.706-32.8,11.442-48.522,27.527C9386.323,6551.331,9430.522,6524.9,9459.825,6521.122Zm-82.818-26.078c.319.074.639.156.958.237-.7,5.327-1.4,10.654-2.2,16.776,4.205-6.412,8.084-12.326,11.97-18.24l.825.223q-3.68,12.738-7.37,25.469c.133.149.26.3.393.454l12.534-18.856c.825,25.55-16.256,55.433-44.481,66.651,4.042-4.688,7.965-9.243,11.88-13.79-.133-.126-.268-.26-.4-.386q-9.964,5.338-19.935,10.668c-.118-.267-.229-.535-.342-.8q8.761-8.079,17.52-16.174c-.334-.148-.669-.3-1.011-.461-9.057,2.831-18.113,5.677-27.192,8.448-.847.26-1.843.038-3.678.038C9351.315,6541.2,9368.329,6521.583,9377.007,6495.044Zm-105.449,84.333c8.4,2.883,16.792,5.766,26.094,8.953-3.351-3.871-6-6.939-8.656-10.008,17.051,8.321,34.43,14.221,53.688,12.965-8.173,4.332-17.015,4.971-26.086,5.788l10.364,3.989C9306.581,6598.74,9287.153,6593.992,9271.558,6579.378Zm59.274,85.872c-.364-.386-.721-.772-1.085-1.159,10.55-7.734,17.541-17.34,17.237-30.714-5.1,6.657-10.128,13.21-15.149,19.755-.364-.245-.729-.49-1.085-.735q1.526-4.425,3.061-8.841c-8.87,14.473-19.978,25.721-37.445,29.072,14.5-9.436,17.6-24.986,21.77-39.957,3.38-12.14,8.6-23.128,19.153-30.8.669-.491,1.411-.892,2.362-1.479.743,3.833,1.517,7.393,2.059,10.981.089.58-.736,1.441-1.33,1.946a39.135,39.135,0,0,0-11.011,15.7c4.42-1.657,8.908-3.4,13.44-5.015,1.493-.535,2.778-.825,3.907,1.241,4.124,7.526,8.545,14.881,13.247,22.979C9350.684,6653.652,9340.758,6659.455,9330.832,6665.25Zm26.152-30.543c-6.828-8.4-12.831-17.393-13.7-28.508-.58-7.385,2.815-13.767,8.306-18.589,3.047-2.675,7.044-3.209,11.183-1.895a23.146,23.146,0,0,1,13.373,10.454c-1.256,1.649-2.4,3.165-3.686,4.852-1.011-2.4-1.769-4.591-2.823-6.635a11.758,11.758,0,0,0-20.714-.839c-3.826,6.308-5.543,13.017-2.525,21.368.728-2.994,1.218-5,1.99-8.158,1.865,11.04,5.587,20.112,12.393,27.771a45.362,45.362,0,0,1-2.764-24.235c.424-2.549,1.657-4.592,4.1-4.22,1.568.237,3.4,2.1,4.154,3.692,1.418,3.009,1.069,6.063-.892,9.094a18.092,18.092,0,0,0-1.895,15.967,27.87,27.87,0,0,1,.639,5.431l-.847.646A76.1,76.1,0,0,1,9356.984,6634.707Zm-3.552,73.011c.564-8.314,1.077-15.833,1.619-23.842h-8.565c7.541-3.729,13.915-8.6,17.89-15.654,3.8-6.753,6.494-14.131,9.443-20.722,2.749,6.88,2.118,14.243-3.655,21.732,3.908-.743,6.843-1.3,9.777-1.865-9.829,6.464-17.318,14.577-21.762,25.275l7.564-.468C9361.531,6697.494,9357.875,6702.116,9353.433,6707.718Zm13.21,36.591c.617-8.648,1.019-17.712,2.014-26.71a38.85,38.85,0,0,1,3.291-11.248c2.815-6.39,7.979-9.465,16-9.049-8.321,5.795-14.384,12.073-13.262,22.8,2.54-2.117,4.837-4.034,7.957-6.642C9380.773,6726.737,9374.585,6736.366,9366.643,6744.309Zm204.441,33.367c-6.278-1.516-16.636-8.923-23.426-23.463v7.63c-9.213-5.958-12.913-16.9-23.522-21.917,6.152,9.413,5.142,19.027,4.547,28.634a38.685,38.685,0,0,0,3.692,19.918c.706-3.031,1.383-5.921,2.059-8.8l.624.223q2.5,10.208,4.985,20.417c-8.782-3.893-15.32-10.617-18.812-21.137-.437,4.948-.81,9.049-1.233,13.812-8.373-7.259-13.12-15.216-10.118-26.9-4.51,5.58-6.412,10.958-4.889,17.4,1.6,6.784-4.651,17.17-11.339,19.064,1.591-3.433,3.768-6.679,4.57-10.238.779-3.492.171-7.289-.26-11.033-2.846,6.858-7.979,11.7-12.839,16.828-4.339,4.584-8.262,9.562-12.3,14.287-2.363-6.761-8.774-11.412-13.894-17.147-3.8-4.257-7.044-9-10.253-13.165-2.059,6.9-.252,13.886,5.5,20.937a19.685,19.685,0,0,1-3.239-1c-6.241-3.67-10.127-12.437-8.931-19.644.988-5.929-.677-11.122-5.171-16.07,3.017,11.486-1.82,19.376-10.09,26.709-.423-4.733-.794-8.841-1.248-13.834a34.122,34.122,0,0,1-18.9,21.227c1.68-6.761,3.389-13.619,5.1-20.476.178-.082.364-.171.542-.252.676,2.831,1.345,5.661,2.08,8.73,3.291-6.546,3.782-13.388,3.715-20.484a176.592,176.592,0,0,1,1.129-20.58c.282-2.556,2.029-4.956,3.2-7.645-5.186,1.263-8.41,5.067-11.554,8.945-3.528,4.369-6.991,8.8-10.482,13.195-.35-.178-.706-.356-1.062-.535v-6.4c-5.223,10.5-12.757,18.329-23.545,23.032,7.029-7.548,7.594-16.441,6.6-26.108-.564-5.52.282-11.308,1.293-16.835.78-4.287,3.855-7.333,8.262-8.856-1.991,4.837-3.952,9.577-5.906,14.317.229.119.452.238.684.356,4.249-3.351,8.6-6.6,12.727-10.1,6.494-5.491,7.846-12.757,6.836-21.152l-13.314,6.078c3.789-11.642,10.506-21.175,24.555-23.128a21.685,21.685,0,0,0-7.229,15.78c2.987-1.642,5.907-3.247,8.835-4.852.289.319.579.639.861.966-5.424,4.22-9.146,9.607-9.74,16.308-.55,6.323-.119,12.735-.119,19.785,7.147-6.219,14.3-10.394,23.545-12.415-7.823,9.191-10.142,18.455-4.814,29.3,3.357-6.4,4.992-13.975,14.16-15.023-7.235,12.237-.884,21.762,4.719,31.413-.424-11.709-3.485-24.235,11.129-30.373-3.143,5.238-7.043,10.3-2.236,17.059a19.947,19.947,0,0,1,11.873-12.452c1.39,6.033,2.757,12,4.131,17.958.534,0,1.07,0,1.6.008q2.029-8.86,4.057-17.7c5.379,1.635,9.058,5.275,11.91,12.11,4.963-6.6.943-11.709-2.727-16.977,9.94,1.983,12.519,9.027,11.359,30.268a28.046,28.046,0,0,0,5.119-31.375c8.879,1.241,10.751,8.426,14.013,15.171,3.395-11.776,3.544-22.69-2.875-33.768,7.733,2.548,12.422,8.083,17.229,14.257,2.438-11.129-1.419-21.1-4.287-32.333,3.337.988,5.78,1.708,8.15,2.407.78-5.445-1.909-10.349-6.583-15.46,13.679,1.887,20.484,11.337,24.332,23.128-4-1.865-8.439-3.923-12.875-5.988-2.689,8.068.937,17.378,9.079,23.448,3.351,2.5,6.68,5.015,10.966,8.247-2.229-5.55-4.139-10.3-6.077-15.1,3.752.958,6.151,3.655,7.7,7.289,2.652,6.248,2.5,12.779,1.693,19.309C9563.224,6762.1,9564.175,6770.661,9571.084,6777.675Zm-7.125-64.133c3.128,2.511,5.468,4.4,7.815,6.285,1.353-8.41-1.471-13.492-12.809-22.542,7.133-.356,12.066,2.177,15.275,7.928s4.22,12.014,4.488,18.5c.289,6.969.839,13.923,1.248,20.491A53.9,53.9,0,0,1,9563.959,6713.542Zm36.271-29.815h-8.552c.527,8.076,1.032,15.7,1.575,23.976-4.354-5.505-7.979-10.082-11.9-15.038h6.679c-.437-6.025-8.617-15.721-22.222-25.447,3.931.728,6.947,1.286,10.662,1.969-5.677-7.363-6.323-14.837-2.876-23.522,1.509,8.6,4.109,16.07,8.693,22.75A44.546,44.546,0,0,0,9600.23,6683.727Zm-13.812-51.257c-.461,1.137-.929,2.273-1.39,3.41-.527-.527-1.062-1.062-1.59-1.6,1.538-5.646.936-11.056-2.341-15.877-2.369-3.492-1.6-6.865-.126-10.126a4.545,4.545,0,0,1,3.655-2.229c1.39.215,3.433,1.657,3.707,2.9A39.146,39.146,0,0,1,9586.419,6632.47Zm.312,14.294c5.164,4.971,5.283,10.305.016,15.149-1.731-3.745-3.382-7.318-5.209-11.278C9583.351,6649.284,9585.052,6648.021,9586.73,6646.765Zm2.7-3.952c4.294,1.233,6.33,4.814,5.535,10.639C9593.18,6650.012,9591.166,6646.148,9589.428,6642.813Zm6.248,22.2c-.334-.067-.676-.141-1.011-.208.632-2.7,1.2-5.409,1.91-8.09,1.8-6.813-.884-13.247-8.068-18.114,1.819.29,2.979.483,4.628.743-.772-1.07-1.277-1.775-2.206-3.076C9600.862,6642.322,9602.823,6655.97,9595.676,6665.012Zm7.386-55.292c-1.865,8.7-6.464,16.189-11.807,23.188-.7.906-2.429,1.025-3.975,1.159a69.832,69.832,0,0,0,11.353-26.086c.446,1.932.892,3.864,1.33,5.773,1.925-2.132,2.749-5.453,1.753-9.7a49.42,49.42,0,0,0-3.291-9.354c-2.132-4.636-5.55-7.266-11.122-6.746-5.186.491-8.886,2.623-10.811,7.541-.668,1.7-1.314,3.411-2.177,5.639-1.359-1.812-2.459-3.284-3.559-4.748,4.555-9.517,17.578-14.6,24.221-8.849C9601.537,6593.2,9604.979,6600.791,9603.062,6609.721Zm13.878-7.147,13.218-5.416c-9-.944-17.936-1.464-26.205-5.84,19.169,1.047,36.584-4.428,53.025-13.656.245.208.49.416.735.617-2.57,3.031-5.148,6.055-8.462,9.956,9.221-3.143,17.594-5.988,26.807-9.131C9659.117,6595.434,9638.679,6600.612,9616.939,6602.573Z" transform="translate(-2.015 -2.384)" fill="#432a00"/>
    <path id="Path_1222" data-name="Path 1222" d="M9558.518,6658.965c0-.008.007-.016.007-.022a.026.026,0,0,0-.022-.008c-.007-.007-.015-.007-.021-.015a.054.054,0,0,0,.029.029A.027.027,0,0,0,9558.518,6658.965Z" transform="translate(-80.833 -68.865)" fill="#432a00"/>
    <path id="Path_1223" data-name="Path 1223" d="M9571.624,6632.49a14.6,14.6,0,0,0-9.778,10.03c-1.04,3.231-2.191,6.419-3.306,9.629,2.541.49,5.081.988,7.942,1.545C9564.2,6645.685,9566.742,6639.169,9571.624,6632.49Z" transform="translate(-80.848 -62.072)" fill="#432a00"/>
    <path id="Path_1224" data-name="Path 1224" d="M9523.222,6489.49c-2.281,3.551-3.113,5.067.489,8.38-.089-1.018-.171-1.932-.216-2.511,2.185,1.687,4.214,4.354,6.665,4.836s5.327-1.233,7.972-1.976c.06,4.183-3.825,4.881-7.169,5.9,1.2,1.352,2.28,2.585,3.344,3.8,2.325-3.5,4.873-7.34,7.013-10.572-3.7-3.774-1.359-6.642-.765-8.448-2.839-.394-5.661-.839-8.507-1.167C9528.979,6487.379,9526.052,6485.106,9523.222,6489.49Z" transform="translate(-71.265 -24.632)" fill="#432a00"/>
    <path id="Path_1225" data-name="Path 1225" d="M9552.53,6489.11c0,.03.007.06.007.089h.022c-.008-.022-.015-.044-.022-.067C9552.537,6489.125,9552.53,6489.118,9552.53,6489.11Z" transform="translate(-79.304 -25.218)" fill="#432a00"/>
    <path id="Path_1226" data-name="Path 1226" d="M9552.488,6488.688a12.3,12.3,0,0,0,.5,1.137c.126.253.253.5.371.75.119.223.224.446.319.668.053.111.1.223.142.334a3.07,3.07,0,0,1,.126.334,2.714,2.714,0,0,1,.1.334,1.659,1.659,0,0,1,.067.267c.015.074.03.149.038.223a1.013,1.013,0,0,1,.029.252,2.752,2.752,0,0,1-.008.6c-.015.089-.029.178-.052.267a1.455,1.455,0,0,1-.037.141c-.03.1-.075.216-.118.327a1.952,1.952,0,0,1-.164.29,1.361,1.361,0,0,1-.164.252,4.088,4.088,0,0,1-.3.357,5.662,5.662,0,0,1-1.1.884c1.2,2.6,2.236,5.3,3.648,7.779a23.235,23.235,0,0,0,3.246,3.722c.893-.981,1.969-2.169,3.068-3.373-6.151-1.961-7.035-2.86-6.9-7,5.914,7.125,10.053,1.969,14.607-2.422-.172,1.308-.29,2.192-.408,3.083.312.067.631.141.95.208.55-1.783,1.6-3.6,1.485-5.35a6.9,6.9,0,0,0-2.443-4.324,7.65,7.65,0,0,0-4.532-1.315c-1.672-.015-3.329.8-5.022,1.01C9557.48,6488.427,9554.992,6488.509,9552.488,6488.688Z" transform="translate(-79.231 -24.707)" fill="#432a00"/>
    <path id="Path_1227" data-name="Path 1227" d="M9549.582,6503.358a9.345,9.345,0,0,0-1.39-1.479,13.278,13.278,0,0,0-1.5,1.8,42.361,42.361,0,0,1-2.533,4.733,9.728,9.728,0,0,0-1,1.538,2.383,2.383,0,0,0-.3,1.56.594.594,0,0,0,.037.126,1.57,1.57,0,0,0,.073.186v.007a1.591,1.591,0,0,0,.1.186,1.1,1.1,0,0,0,.134.186,1.868,1.868,0,0,0,.163.178c.06.06.119.112.186.171a3.394,3.394,0,0,0,.477.334c.089.052.186.111.282.164a2.757,2.757,0,0,0,.289.148c.2.1.417.2.654.3s.5.193.772.29c.661-.973,1.322-1.954,2.244-3.329.869,1.523,1.39,2.437,1.9,3.336,3.522-1.189,4.072-2.4,2.489-4.792C9551.491,6507.214,9550.652,6505.216,9549.582,6503.358Z" transform="translate(-76.808 -28.5)" fill="#432a00"/>
    <path id="Path_1228" data-name="Path 1228" d="M9556.572,6477.78H9538.11A21.259,21.259,0,0,0,9556.572,6477.78Z" transform="translate(-75.597 -22.306)" fill="#432a00"/>
  </g>
</svg>
