<svg xmlns="http://www.w3.org/2000/svg" width="552.369" height="235.265" viewBox="0 0 552.369 235.265">
  <g id="Group_2235" data-name="Group 2235" transform="translate(-7222.778 -5453.059)">
    <path id="Path_1211" data-name="Path 1211" d="M7767.469,5589.387a60.735,60.735,0,0,0-6.92-2.9c-3.4-1.272-5.263-3.132-4.472-7.235.82-4.246.948-8.635,1.362-12.957.211-2.2-.526-3.192-2.815-2.191-1.431.625-2.869,1.265-4.3,1.9a5.689,5.689,0,0,1,2.922-2.725c2.921-1.046,3.485-3.019,3.1-5.865-.443-3.268-.512-6.588-.723-9.667q-2.89,2.541-5.835,5.12l-.715-.67c1.739-2.394,3.2-5.066,5.263-7.145,6.783-6.844,10.239-15.69,14.81-23.859.241-.421.571-1.1.406-1.393-1.671-2.876.015-5.391,1.062-7.755,1.573-3.553.572-6.354-2.289-8.131-5.774-3.592-11.783-6.806-17.783-10-1.559-.828-3.456-1.016-5.165-1.491,1.311-2.687,2.387-4.878,3.719-7.6-4.448-.535-8.2-.979-12.008-1.431,3.523-9.389,3.456-13.4-.227-22.745-1.4-3.554-4.027-6.1-7.664-6.543a63.684,63.684,0,0,0-28.12,2.876,3.992,3.992,0,0,0-2.334,2.905c.053,1.883,1.559,3.773,1.438,5.587a115.776,115.776,0,0,1-2.079,17.083c-.715,3.26-1.957,6.083,1.717,8.756-1.747,0-2.974.308-3.96-.054-3.9-1.415-7.01.325-10.224,2.1q-11.193,6.189-22.475,12.2c-2.831,1.506-6.166,2.386-5.715,5.887-3.6.475-6.821.633-9.915,1.371-3.734.888-7.28,2.7-11.038,3.335-7.536,1.272-15.147,2.093-22.744,2.958-7.506.851-14.937,3.313-22.617,1.039-.994-.293-2.206.2-3.32.271a61.351,61.351,0,0,1-6.437.332c-2.612-.1-5.21-.73-7.808-.73-5.089-.008-6.934,1.483-8.778,6.829a17.284,17.284,0,0,0,2.929-2.153c2.056-2.394,4.284-3.47,7.581-2.477,4.209,1.28,8.576,2.025,12.838,3.162a2.428,2.428,0,0,1,1.393,1.875,2.3,2.3,0,0,1-1.634,1.588c-4.231-.007-8.613.392-12.672-.534-4.9-1.114-5.519-1.31-8.454,2.665-.813,1.092-2.326,1.664-4.314,3.02.407-2.417.6-3.569.873-5.2h-26.983q-40.081.01-80.176.015a7,7,0,0,1-4.812-1.807c-3.094-2.477-6.964-4.811-10.773-5.345-4.027-.573-8.281,1.031-12.648.444-7.28-.986-14.651-1.3-21.977-1.95-.43-.045-.828-.512-1.25-.783-2.168,4.306-4.473,6.113-9.569,5.827-6.6-.369-13.168-1.5-19.764-2.229-2.048-.226-3.44-.82-4.013-3.132-.2-.836-1.845-1.777-2.9-1.868-3.034-.248-6.1-.083-10.06-.083,4.895-5.466,10.842-4.811,16.662-5.21-3.186-1.6-6.354-3.328-9.667-3.667a25.3,25.3,0,0,1-13.161-4.931,20.872,20.872,0,0,0-4.163-2.492c-7.582-3.3-15.359-6.182-22.768-9.825-7.13-3.517-14.312-5.722-22.346-4.924-2.47.24-5.015-.339-8.312-.61,1.393,3.622,1.821,7.739,4.088,10.088,8.433,8.749,12.332,19.267,13.981,30.937.12.851.188,1.709.286,2.568-.331.143-.655.278-.987.421-4.208-5.61-8.447-11.2-12.6-16.858-.407-.542-.286-1.453-.467-2.183-1.189-4.676-2.071-9.464-3.667-14-2.183-6.241-4.435-12.332-1.348-19.56a49.722,49.722,0,0,0-5.194.738c-5.384,1.431-5.369,1.476-7.974-3.4,1.762-2.561,1.642-2.462-.655-5.232a16.094,16.094,0,0,1-3.222-5.437c-1.725-5.82-5.481-9.012-11.385-9.937-1.476-.233-2.9-.851-4.382-1.069-5.5-.821-11.346.361-14.832,3.893-4.646,4.69-8.831,10.412-10.164,17.407-.09.474-.414,1.107-.226,1.415,2.229,3.622,4.532,7.2,7.138,11.293.369-2.2.6-3.576.941-5.571,5.511,6.5,10.54,12.43,15.577,18.355a18.928,18.928,0,0,1-7.281-1.559c-2.25-.956-4.366-2.213-7.483-3.833,1.755,4.322,1.739,4.532-.64,6.957a36.557,36.557,0,0,1-3.576,3.335,8.549,8.549,0,0,0-3.049,10.1c4.269,11.677,9.1,23.129,20.335,30.221,1.792,1.129,3.327,2.657,5.021,3.953,3.381,2.575,5.03,5.9,4.27,10.164-.715,4.035.595,6.874,4.028,9.291,4.321,3.05,3.313,10.413-1.589,12.28a28.065,28.065,0,0,1-9.064,2.266c-8.741.227-16.135,4-23.566,7.914-1.957,1.032-4.193,1.581-6.083,2.718-2.417,1.445-6.083,2.9-6.61,5-1.565,6.2-3.026,12.867,1.859,18.626q12.141,14.309,24.258,28.64c.641.753,1.28,1.513,1.92,2.267-.166.15-.331.3-.5.444q-3.932-2.936-7.86-5.887c-.331.285-.663.579-.994.866,4.239,5.473,8.3,11.1,12.746,16.383,5.2,6.173,13.319,3.877,20.095,6.233-1.3,3.1-2.3,5.677-6.158,6.754-4.382,1.211-7.9,4.322-10.887,8.838,12.648,0,24.438.128,36.229-.045,6.444-.1,7.6-2.514,4.321-8.139-.377-.647-.813-1.265-1.2-1.913-5.218-8.56-10.519-17.068-15.639-25.688-5.9-9.938-9.531-21.367-19.281-28.888a13.707,13.707,0,0,1,3.749.226c10.06,1.807,20.133,3.02,30.177-.038,7.431-2.259,14.741-4.992,22.263-6.874,3.621-.911,7.642-.618,11.43-.279,1.084.105,2.905,2.379,2.808,3.523-.964,11.331,2.221,21.842,5.669,32.375a25.491,25.491,0,0,1-.022,17.354c-2.01,5.307-1.731,5.541,3.645,7.265,3.433,1.106,4.027-1.506,4.825-3.291,4.044-9.072,2.937-18.04-.79-26.983a81.92,81.92,0,0,1-4-12.092c-1.01-4.171-1.311-8.478,1.935-11.558,6.023,1.574,11.91,2.763,17.558,4.668,6.128,2.063,12.039,4.766,18.024,7.235a70.851,70.851,0,0,1,7.77,3.516,15.536,15.536,0,0,1,4.894,3.991c3.02,4.141,5.443,8.718,8.53,12.792,3.788,4.992,8.554,9.306,11.881,14.553,3.313,5.21,6.634,9.494,13.334,9.577.24.007.617.105.686.263.624,1.461,1.565,2.929,1.626,4.427.03.723-1.582,2.093-2.529,2.168-3.336.264-6.7.128-10.052.06-17.686-.331-35.371-.707-53.056-1.023a15.13,15.13,0,0,0-2.952.519c-.016.415-.03.821-.045,1.235q5.748,1.027,11.5,2.063c-21.42-.113-42.81-1.935-64.244-.241a3.9,3.9,0,0,0,2.673,1.227q38.115,2.145,76.245,4.208c2.094.113,4.2-.165,6.31-.263.007-.278.015-.558.022-.836-1.875-.6-3.757-1.211-5.225-1.687,2.808-.911,5.85-2.364,9.026-2.8,3.667-.5,7.454-.12,11.558-.12-.686,1.017-1.017,1.506-1.325,1.965,6.64-.008,13.115-1.882,19.884-.5,3.666.753,7.687-.383,11.55-.421,9.026-.09,18.062-.007,27.1-.045a33.149,33.149,0,0,0,5.609-.437,2.591,2.591,0,0,0,1.747-1.543,2.422,2.422,0,0,0-.889-2.108,72.308,72.308,0,0,0-9.426-5.037c-3.351-1.348-7.131-1.687-10.4-3.17-2.847-1.295-6.482-3-7.635-5.5-4.284-9.291-7.679-19-11.429-28.542a37.737,37.737,0,0,0-2.312-5.5c-5.512-9.374-10.985-18.77-16.8-27.956a22.131,22.131,0,0,0-6.452-6.106c-11.294-7.559-22.73-14.9-34.31-22.443,1.31-1.363,2.981-3.193,4.729-4.947,3.651-3.659,3.712-5.466.165-9.125-4.013-4.141-8.071-8.244-12.054-12.415-2.989-3.14-5.888-6.362-8.62-9.321,9.795.934,19.967,1.83,30.131,2.906,6.475.686,12.5,1.785,19.221-1.279,4.661-2.124,11.414-2.914,16.459,2.19a9.071,9.071,0,0,0,6.105,2.387c6.2-.2,12.393-.933,18.544-1.754.911-.121,2.161-1.77,2.3-2.839.421-3.343,2.423-4.442,5.367-4.532,2.38-.068,4.767-.008,7.152-.008q46.869-.034,93.736-.015c1.377.007,3.658.294,3.982,1.092,1.813,4.374,6.015,5.654,9.517,7.566a10.772,10.772,0,0,0,11.149-.535c4.661-2.883,9.863-3.621,15.172-3.47,1.151.037,3.033,1.167,3.252,2.107.948,4.013,3.614,4.352,6.866,3.848,16.813-2.59,33.624-5.217,50.444-7.747a6.612,6.612,0,0,1,3.727.594c3.862,1.936,7.619,4.088,11.926,6.437-1.89,5.5-3.605,11.632-6.158,17.393-1.107,2.492-3.584,5.24-6.054,6.091-10.367,3.576-19.131,9.78-28.128,15.7-6.475,4.261-13.281,8.026-19.748,12.294-2.967,1.958-6.377,4.073-8.079,7-11.835,20.23-23.385,40.618-32.239,62.407-1.2,2.951-3.463,6.475-6.144,7.626-9.026,3.877-18.476,6.753-27.714,10.164-.775.293-1.137,1.731-2.093,3.29h230.928q-15.63-7.758-35.981-17.844c-1.7,2.116-3.809,4.736-5.917,7.349a9.229,9.229,0,0,1,2.567-4.322c3.365-3.486,7.973-5.978,8.771-11.534.112-.761,2.017-1.566,3.207-1.8,2.9-.572,5.857-.821,8.522-1.167.347-3.418.64-6.339.94-9.268.265.029.528.052.791.083v6.324c.934.354,1.687.617,2.433.926,3.605,1.49,5.556.512,6.761-3.207,3.8-11.678,7.717-23.325,11.451-35.025,1.145-3.568,1.363-7.5,2.854-10.895C7776.947,5600.228,7774.938,5593.271,7767.469,5589.387Zm-424.52,77.759a38.442,38.442,0,0,0-.188-24.966C7346.759,5650.483,7347.286,5658.8,7342.949,5667.146Zm104.84,4.291c.053.324.113.656.166.987-.542.256-1.1.5-1.626.791a6.02,6.02,0,0,0,.285.964,14.3,14.3,0,0,1,13.906,3.471c-.09.346-.181.7-.278,1.046-2.394-.806-4.788-1.6-7.183-2.424-.918-.309-2-1.152-2.7-.9-3.584,1.28-5.661-.949-8.794-3.644C7444.229,5671.6,7446,5671.52,7447.789,5671.437Zm-27.059-40.407h.956v10.058h-.956Zm-14.479-107.574,7.251.573c-1.092,5.646-4.841,4.992-8.682,4.578C7405.267,5527,7405.71,5525.42,7406.252,5523.455Zm-110.419-5.759a69.189,69.189,0,0,0,2.59,7.243c-.309.188-.625.376-.934.557a77.7,77.7,0,0,0-5.707-7.476,95.762,95.762,0,0,0-7.936-6.641c2.981-.572,5.15-1.837,6.754,2C7291.127,5514.639,7295.088,5514.609,7295.833,5517.7Zm-15.262-38.428c3.569,7.958,9.518,14.027,10.135,22.715.09,1.318,1.618,2.545,2.364,3.628-4.653.52-7.816-2.017-8.952-8.327-.5-2.778-.693-5.609-1.031-8.432C7279.607,5487.527,7278.885,5485.262,7280.571,5479.268Zm-2.612,21.91c-1.8-.256-3.057-.437-4.321-.617-.067.248-.136.5-.2.745,2.409.708,4.818,1.408,7.341,2.146-6.5,5.331-7.311,5.315-16.67-.572,5.369-1.965,10.525-3.893,12.416-9.984C7276.98,5495.531,7277.439,5498.166,7277.959,5501.178Zm-11.557-8.154h-3.547c-.044-.263-.1-.527-.15-.8,1.664-.361,3.328-.723,5.12-1.115-.241,5.015-.9,5.662-4.479,4.217,1.228-.655,2.176-1.159,3.117-1.671C7266.447,5493.445,7266.425,5493.234,7266.4,5493.023Zm5.557-24.514a4.27,4.27,0,0,1,3.538,1.664c1.355,2.672,1.814,5.579-.783,7.814-.481-.052-.963-.105-1.453-.157q.294-4,.58-8c-.264-.278-.534-.557-.806-.828-.587,1.13-1.167,2.259-1.754,3.388-.376-.233-.753-.475-1.13-.715C7270.747,5470.557,7271.259,5468.578,7271.959,5468.509Zm-12.687,18.152c-1.37,1.152-3.132,2.628-5.323,4.465-.609-2.139-1.092-3.651-1.46-5.187-.881-3.66-.279-4.247,3.4-3.607,3.779.655,4.992-2.236,6.6-4.562-.188-.414-.384-.829-.579-1.242l-11.543,3.772c-.309-.354-.617-.715-.926-1.077a111.618,111.618,0,0,1,7.581-8.7c.588-.558,2.771.5,4.194.911.294.083.459.564.708.843,5.3,5.82,5.3,5.82,6.813,14.893C7265.589,5487,7262.585,5486.843,7259.272,5486.662Zm23.129,187.4c.029.632-.926,1.671-1.656,1.928-4.653,1.656-9.374,3.146-14.071,4.69-.211-.489-.43-.971-.647-1.453,2.627-1.371,5.314-2.627,7.853-4.141a47.54,47.54,0,0,0,4.721-3.794,6.98,6.98,0,0,1,2.123.738C7281.453,5672.5,7282.371,5673.349,7282.4,5674.064Zm-5.346-29.664h-3.749c2.537,3.116,4.855,5.955,7.183,8.8-.083.309-.166.61-.241.919-1.258-.384-2.823-.422-3.72-1.213-.429-.376-.843-.775-1.241-1.189-.106-.105-.2-.211-.3-.316-.347-.361-.686-.73-1.009-1.1-.271-.3-.542-.61-.806-.919-.43-.5-.851-.994-1.28-1.491-.211-.249-.422-.489-.64-.729h-.008c-1.49-3.441-2.815-7.07-8.628-7.229,3.3,2.846,5.9,5.09,8.5,7.333q1.932,3.806,3.855,7.6c-.423.331-.852.67-1.28,1-1.883-1.626-3.862-3.162-5.632-4.9-2.492-2.447-4.366-6.211-7.311-7.363-7.13-2.8-11.105-8.847-16.263-13.672-2.876-2.688-5.413-5.73-7.4-7.86C7249.809,5629.185,7263.3,5636.721,7277.056,5644.4Zm-22.384-47.034c4.383,2.191,8.041,4.021,11.708,5.851-.113.346-.233.7-.354,1.047-1.175.083-2.35.158-3.893.263.534.7.964,1.272,1.4,1.852-.2.211-.354.557-.513.549-3.613-.083-7.242-.09-10.85-.384a6.223,6.223,0,0,1-3.786-1.438c-4.134-4.329-8.907-4.834-14.351-3.237-.73.218-1.829-.8-3.742-1.709,2.478-2.191,4.405-4.337,6.731-5.865a51.046,51.046,0,0,1,20.968-7.808,3.863,3.863,0,0,1,2.492.227c4.171,2.974,8.252,6.075,12.332,9.17a10.552,10.552,0,0,1,1.325,1.573C7267.69,5597.954,7261.637,5594.68,7254.672,5597.367Zm23.672-57.023c-.136-1.754.368-4.4-.58-5.113-1.1-.835-3.479.031-5.646.188.3-.9.7-2.221,1.182-3.516,2.018-5.368.46-7.529-5.33-7.19-3.374.2-6.754.437-10.1.843-2.756.339-4.472-.557-5.594-3.192-.647-1.521-2.025-2.726-3.253-4.307.844-4.863.573-5.172-6.625-6.587.347-1.875.692-3.757.9-4.834,5.534.783,10.375,1.423,15.194,2.176,3.741.58,7.46,1.3,11.188,1.966,0,.541-.008,1.083-.008,1.618-2.726.564-5.489,1-8.161,1.755-.678.2-1.092,1.37-1.627,2.092.731.5,1.4,1.325,2.2,1.469,7.408,1.317,14.84,2.514,21.668,3.651.588,2.529.956,4.1,1.37,5.873-2.408.391-5.774-.173-6.858,3.237,3.072.257,6.129.513,9.23.776C7282.138,5532.6,7281.852,5538.22,7278.344,5540.343Zm8.831-3.433c.181-1.2.475-3.117.851-5.617,2.657.218,5.346.444,8.108.677-2.8,5.881-5.112,10.736-7.317,15.367C7287.679,5544.386,7291.248,5540.373,7287.175,5536.91Zm18.6,29.091c-.315-2.53-.632-5.067-.948-7.6l1.6-.158q.554,3.783,1.121,7.574Zm16.813-3.154c-.233.038-.467.083-.708.121-1.626-5.061-3.244-10.119-5.036-15.69,1.513-.618,3.335-1.37,5.744-2.364Zm14.861,64.8c-.918-7.235-1.543-15.344,1.272-23.046C7338.289,5612.515,7337.837,5620.6,7337.452,5627.648Zm2.764-33.067h-1.137c0-1.965-.075-3.938.015-5.9a48.7,48.7,0,0,0-5.6-25.327,82.694,82.694,0,0,1-4.148-10.021,13.059,13.059,0,0,1-.241-3.75l1.145-.112c3.5,10.382,7.446,20.652,10.276,31.214C7341.677,5584.981,7340.4,5589.928,7340.216,5594.582Zm3.426-62.573c-.038.421-.075.836-.113,1.25-4.465-.385-8.989-1.4-13.371-.972-3.824.376-7.59,2.168-11.2,3.742-2.575,1.129-4.863,2.937-8.206,5.014.8-1.634,1.151-2.356,1.709-3.5-3.645,1.619-6.829,3.041-10.134,4.51-.068-.58-.143-1.2-.2-1.671-1.974,1.468-3.9,2.905-6.159,4.592-.181-7.891.873-9.246,7.8-10.872,5.232-1.228,10.541-2.222,15.668-3.788,3.4-1.039,6.468-3.079,9.8-4.352,5.119-1.95,9.261,1.174,14.711,2.891-4.7,2.3-9.245-3.832-12.6,1.393C7335.525,5530.849,7339.584,5531.429,7343.642,5532.008Zm-3.012-23.415c-3.982-.113-4.863,1.212-3.042,5.888-1.852-1.3-2.921-2.048-4.358-3.064-.211,1.648-.377,2.929-.535,4.2-1.483-3.493-2.7-7.114-4.487-10.428-2.748-5.1-3.44-5.1-7.8-1.122-3.682-4.525-7.355-9.027-11.617-14.259,1.95.226,3.192.362,4.427.519,10.767,1.4,19.6,7.423,29.017,12.062,3.7,1.822,7.574,3.291,11.2,5.233,2.107,1.137,3.892,2.9,6.406,4.826-2.566,1.423-4.058,2.251-5.428,3.012C7350.4,5511.793,7346.224,5508.759,7340.63,5508.594ZM7397.6,5621.61c.339-.565.67-1.129,1-1.694q4.314,2.461,8.636,4.924c-.278.5-.564.986-.851,1.476Q7401.995,5623.967,7397.6,5621.61Zm16.3,28.12c-.293.324-.587.641-.881.964a15.43,15.43,0,0,1-10.269-11.143Q7408.318,5644.645,7413.9,5649.73Zm-21.292-56.82c4.353,2.71,8.637,5.542,12.988,8.259,4.577,2.861,7.822,6.325,5.7,12.98-.444-2.025-.753-3.449-1.062-4.849-5.7-.452-8.5,1.686-10.45,6.437-1.22-.828-2.387-1.611-3.637-2.454.934-.655,1.642-1.145,2.349-1.641.008-.407.016-.806.022-1.213-8.5-1.656-17-3.335-25.508-4.977-7.958-1.536-15.924-3.034-23.994-4.57-.068-4.021.293-5.736,5.865-4.924,5.1.746,10.4.159,15.682-.249-4.788-.835-8.409-6.286-14.131-3.32-2.011-4.721-4.276-5.406-8.832-2.62-.888-3.788-2.906-7.138-2.657-11.421.24-3.968,2.093-4.209,4.938-4.1a51.286,51.286,0,0,1,22.256,6.173C7379.178,5584.169,7385.819,5588.687,7392.609,5592.91Zm-17.716-27.165c-5.036-.572-7.362-5.3-11.36-7.348-3.848-1.966-8.161-3-12.129-4.8C7361.387,5553.624,7368.156,5559.685,7374.894,5565.746Zm47.516-32.946q-34.581.135-69.168.045a25.817,25.817,0,0,1-4.585-.851c.037-.391.083-.791.128-1.182h78.3c.082.248.173.5.256.746C7425.7,5531.993,7424.058,5532.792,7422.409,5532.8Zm4.352,2.958c1.145-.828,2.108-1.521,3.125-2.259,1.145,1.393,2.168,2.658,3.2,3.922-.015-.007-.03-.007-.045-.015.467.949.934,1.9,1.506,3.065C7429.969,5541.985,7428.756,5538.5,7426.761,5535.758Zm10.48-.361c.73,1.28,1.453,2.56,2.273,4.005-2.2-.678-4.275-1.325-6.354-1.958-.323-2.191-.662-4.382-.985-6.572.361-.158.729-.309,1.091-.467q1.548,1.808,3.079,3.628c.2-.12.407-.233.618-.346-.693-1.272-1.385-2.545-2.327-4.27,1.063-.15,1.936-.278,2.8-.4h.007q4.45,4.088,8.9,8.2C7443.5,5539.74,7442.392,5539.455,7437.241,5535.4Zm7.176-4.548a56.61,56.61,0,0,0-7.115-1.965l.067.068a.119.119,0,0,1,.045.045,6.816,6.816,0,0,1-.768-.526c-.09-.068-.173-.128-.264-.2a.066.066,0,0,1-.038-.022,3.72,3.72,0,0,0-.309-.21,2,2,0,0,0-.232-.144,1.01,1.01,0,0,0-.173-.09c-.03-.016-.068-.031-.1-.046a.97.97,0,0,0-.188-.067.7.7,0,0,0-.165-.045.935.935,0,0,0-.2-.022h-.068c-6.046.4-12.076,1-18.792,1.6.782-2.033,1.242-3.252,1.717-4.487,4.141.527,8.07,1.325,12.023,1.431,2.62.075,5.263-.813,7.89-1.31a13.384,13.384,0,0,1,2.884-.7c3.6.158,9.781,5.706,11.166,10.789A73.812,73.812,0,0,0,7444.417,5530.849Zm8.56.136h109.306C7558.9,5533.454,7455.221,5533.153,7452.977,5530.985Zm293.147-36.576c2.349.956,4.6,2.153,6.889,3.274a41.444,41.444,0,0,1,4.3,2.139c2.786,1.8,5.466,3.742,8.244,5.661-3.275,3.8-10.345,5.527-14.26,3.441,3.026-1.513,5.707-2.846,8.387-4.186-.06-.3-.128-.61-.188-.911-4.532.459-9.064.926-14.56,1.482,1.874-2.7,3.245-4.66,4.743-6.821a27.59,27.59,0,0,1-4.179-1.483c-.686-.369-1.055-1.332-1.566-2.033C7744.67,5494.763,7745.559,5494.175,7746.124,5494.409Zm10.5,21.533c.1.3.2.6.294.9-7.092,2.553-14.185,5.1-21.909,7.891C7740.839,5516.853,7749.806,5519.248,7756.626,5515.942Zm-14.4,11.429c3.554-2.974,8.349-4.547,12.754-6.354,2.078-.851,4.517-.813,7.152-1.234-.459,3.4-1.272,5.8-4.585,6.858-3.885,1.235-7.656,2.838-10.442,3.885-1.333,1.739-2.168,3.787-3.026,3.794a58,58,0,0,1-10.375-.994c-1.213-.2-2.282-1.295-3.411-1.98.054-.332.105-.663.166-.994C7734.846,5531.021,7738.52,5530.458,7742.224,5527.371Zm-31.817-21.156c.467-.075.926-.15,1.393-.218.678,1.415,1.483,2.785,2.019,4.253,2.56,7.069-3.291,12.4-3.825,17.979a36.137,36.137,0,0,1,2.5,4.878c1.731,5.579,3.319,11.2,5.014,17.009-2.552,1.227-4.855,1.769-5.842-2.056-1.461-5.669-2.937-11.323-4.525-17.437-1.664-.279-3.8-.64-6.874-1.159C7707.553,5523.064,7712.01,5515.919,7710.406,5506.214Zm5.075-3.154c1.348-1.2,2.7-2.4,4.035-3.6.406.384.806.768,1.212,1.152.384,2.3-.534,4.081-2.892,4.615C7717.25,5505.363,7716.278,5503.828,7715.481,5503.06Zm-1.168,57.536c3.961-1.234,8.734-4.645,12.543-.369a16.932,16.932,0,0,1,4.578,12.422c-.4.173-.79.339-1.189.512-1.3-1.882-2.612-3.757-4.126-5.948-.181,2.078-.347,4.043-.512,5.963-5.218-.678-10.232-1.326-15.962-2.07C7711.746,5567.373,7709.511,5562.094,7714.313,5560.6Zm10.45,24.206c-.135-.271-.278-.55-.421-.821q6.866-1.6,13.732-3.207c.1.481.2.963.309,1.453Zm.543,8.62c-4.541,3.283-10.353,2.575-15.6,3.667q7.453-2.563,14.915-5.142C7724.847,5592.443,7725.072,5592.933,7725.307,5593.422Zm.782-53.538c.52-.949.994-1.8,1.446-2.62,3.809,1.445,7.431,2.816,11.21,4.254C7735.44,5545.259,7733.354,5544.951,7726.089,5539.884Zm-7.762-12.468c.053-5.044-.053-9.885,4.638-13.108-.9-1.912-1.739-3.689-2.719-5.767,4.631-2.484,9.08-4.863,13.508-7.236C7733.452,5508.977,7723.3,5526.46,7718.327,5527.416Zm4.766-22.722q2.936-10.831,5.873-21.661c.563.173,1.136.346,1.7.52C7729,5490.863,7733.482,5500.079,7723.093,5504.694Zm-23.9-16.632c.941-2.65,1.7-4.773,2.123-5.971,3.186-.309,5.444-.534,7.71-.752a6.941,6.941,0,0,0-.271-1.927c-1.106-2.462-2.56-4.284-5.857-1.725-.256-.264-.512-.534-.768-.8.444-3.364.9-6.73,1.386-10.45,1.581.354,3.095.3,4.11.994a9.136,9.136,0,0,0,9.457,1.063c.91-.384,2.424.67,4.1,1.2a95.359,95.359,0,0,0-3.893,9.1c-.331,1.039.625,2.492.994,3.757a42.034,42.034,0,0,0,3.7-2.176c.437-.316.376-1.393.807-1.626,1.648-.866,3.711-2.492,5.051-2.063,2.561.813,1.725,3.306.6,5.029-1.189,1.815-2.907,3.283-4.134,5.082a31.177,31.177,0,0,0-1.739,4.028c-.633,1.325-1.092,3.185-2.176,3.75a50.436,50.436,0,0,1-10.955,4.6c-6.369,1.574-7.348.324-5.526-6.188h4.314c.075-.309.143-.618.218-.926-1.393-.558-2.785-1.114-4.155-1.657.158-.625.339-1.288.61-2.349Zm-64.839,30.771a107.94,107.94,0,0,0,10.864-1.822l.226,1.062c-3.388.843-6.972,1.265-10.119,2.657-3.012,1.325-5.57,3.667-8.7,5.044C7628.688,5522.831,7629.839,5519.149,7634.356,5518.833Zm-9.163,1.679c-.21,3.109-1.852,4.39-4.751,4.69-5.714.58-11.413,1.34-17.278,2.048-.775-1.167-1.589-2.394-2.718-4.1C7608.932,5522.244,7617.01,5521.385,7625.193,5520.512Zm-42.613,19.281a3.828,3.828,0,0,1-3.095,1.521,60.291,60.291,0,0,1-10.164-1.807c-2-.565-3.764-2-6.1-3.29,2.831-1.22,4.864-2.033,6.844-2.958,3.848-1.807,9.848-.444,12.235,3.086A3.945,3.945,0,0,1,7582.58,5539.793Zm70.629-6.233q-33.825.113-67.64.03a36.517,36.517,0,0,1-4.668-.572c-.038-.316-.068-.64-.105-.956,1.212-.392,2.416-1.122,3.621-1.114q34.367.09,68.724.332c1.95.015,3.9,0,5.851,0,.045.421.09.835.135,1.256A35.184,35.184,0,0,1,7653.209,5533.56Zm4.2-17.106c-1.13-.053-2.3.527-3.877.918-.151-.166-.844-.925-1.536-1.679-.332.128-.67.256-1.009.392q1.173,4.009,2.341,8.018c-.256.128-.52.256-.775.384-1.573-2.907-3.146-5.8-4.735-8.733,2.823-2,6.016-1.9,9.186-.678,2.221.851,3.516.534,3.327-2.041-.181-2.4.956-3.4,3.027-4.39,9.915-4.75,19.718-9.735,29.415-14.561,1.958,4.781,3.878,9.472,5.8,14.162-.324.324-.648.648-.979.971-2.281-2-4.562-4.013-7.069-6.211-3.125,2.943-1.062,9.064-3.779,13.778-2.222-1.754-4.216-3.915-6.679-5.1-2.612-1.265-5.669-1.611-9.486-2.6,1.664,3.14,2.884,5.443,4.442,8.387-1.762,0-3.147.083-4.524-.016C7666.137,5517.139,7661.777,5516.68,7657.41,5516.454Zm13,22.1c-2.334-1.875-4.585-3.855-7.6-6.407,4.231-2.514,7.9-4.7,11.564-6.874-.045-.256-.091-.5-.136-.76l-6.1.768c-.2-.144-.391-.278-.587-.422.926-.648,1.965-1.95,2.771-1.822,4,.64,8.854.512,11.722,2.786a28.477,28.477,0,0,0,18.6,6.49,41.189,41.189,0,0,1,5.413.685v15.261c-4.216-1.528-8.267-3.042-12.355-4.457-3.185-1.106-6.376-2.206-9.629-3.064-1.4-.369-3.222-.647-4.4-.06C7675.841,5542.587,7673.115,5540.742,7670.405,5538.559Zm21.585,23.25c1.784-3.832,3.012-7.853,5.421-10.932.919-1.167,4.578-.188,7.2-.188C7701.085,5560.122,7698.021,5563,7691.99,5561.808Zm6.762,5.33c-1.83,2.838-4.073,5.15-7.861,2.846.506-3.576,3.75-6.257,7-5.481C7698.391,5564.624,7699.083,5566.619,7698.752,5567.138Zm-25.583,30.078c3.26-8.65,6.715-17.263,9.4-26.095a26.146,26.146,0,0,0-3.154-22.723c-.521-.79-.354-2.018-.5-3.042.526-.061,1.062-.113,1.6-.173,6.468,11.354,7.047,23.039,2.146,35.235-3.2,7.98-6.55,15.977-8.733,24.258-2.221,8.447-.5,16.9,2.981,24.943a40.179,40.179,0,0,1,1.476,5.225c-.4.15-.8.293-1.2.444a12.842,12.842,0,0,1-1.408-1.807C7669.577,5621.783,7668.455,5609.729,7673.169,5597.216Zm-63.816,12.393c-.828-.655-1.558-1.234-2.28-1.8,2.19-4.179,37.388-27.255,46.679-29.544-1.265,1.936-2.447,3.923-3.81,5.79-1.175,1.612-2.6,3.042-3.84,4.616-3.93,4.961-8.372,8.854-14.727,10.917-8.26,2.68-15.39,7.28-20.366,15.005-1.528,2.379-5.368,3.267-8.658,5.126C7604.9,5616.047,7607.057,5612.93,7609.353,5609.609Zm35.529,4.826c-1.536.926-2.349,1.777-3.26,1.89-4.781.617-9.585,1.054-14.38,1.5-.211.022-.467-.5-.709-.768q-4.72-.463-9.44-.933c-.03-.52-.061-1.046-.091-1.566,1.536-.339,3.064-.7,4.6-1.031,2.8-.6,5.594-1.257,8.418-1.716.354-.053.872.933,1.324,1.438.723.308,1.453.625,2.176.941-.105.361-.21.723-.323,1.091C7636.788,5615.015,7640.38,5614.759,7644.882,5614.435Zm-10.036-2.62q4.088-3.7,8.177-7.4c.392.437.775.874,1.167,1.317q-4.066,3.7-8.131,7.424C7635.651,5612.7,7635.252,5612.259,7634.846,5611.815Zm-12.919,20.223c.429.278.865.557,1.3.835-.851,1.687-1.295,3.863-2.628,4.97-4.494,3.719-9.268,7.1-14,10.525a15.258,15.258,0,0,1-4.826,2.22Q7611.845,5641.318,7621.927,5632.038ZM7723,5677.287c.429-4.45-.354-6.015-3.727-2.138-.151-.415-.3-.836-.444-1.25,1.363-2.59,2.718-5.172,4.1-7.793,1.333.2,2.387.354,3.6.535-.061,1.121-.12,2.221-.2,3.651,2.3-1.709,4.269-3.169,6.241-4.63.067.166.136.331.2.5C7729.771,5669.585,7726.767,5673,7723,5677.287Zm17.068-20.742c-1.183-.37-2.356-.715-3.531-1.107a7.132,7.132,0,0,1-1.129-.617q1.671-7.272,3.335-14.531c.452,4.367.919,8.568,1.31,12.769C7740.161,5654.21,7740.07,5655.385,7740.07,5656.545Zm.633-43.111c-6.212,5.925-8.944,13.627-11.737,21.5-3.878,10.917-8.471,21.578-12.98,32.254-.836,1.987-2.778,3.485-4.1,5.293a9.722,9.722,0,0,0-1.988,3.576c-.519,2.929-.639,5.933-.971,9.411H7586.487c-.309-.663-.422-.776-.4-.866,1.287-6.233,1.31-6.986,7.649-6.829,7.25.181,10.262-3.44,13.168-9.3,4.261-8.6,9.833-16.534,14.4-25a51.931,51.931,0,0,0,4.3-12.235c.466-1.905.857-2.982,2.8-3.72,11.458-4.366,22.843-8.914,34.286-13.326a16.756,16.756,0,0,1,3.343-.722c2.161,7.814,4.209,15.125,6.2,22.443.775,2.831,2.454,3.14,4.818,1.965a22.252,22.252,0,0,1,2.756-1.2c2.944-.994,3.479-2.424,1.754-5.263a39.055,39.055,0,0,1-5.322-18.213c-.181-2.86,1.009-4.336,3.81-4.3,6.859.1,13.718.272,20.576.474,8.629.264,17.249.512,25.869.912,4.8.226,9.585.745,14.464,1.136C7740.809,5612.734,7740.906,5613.238,7740.7,5613.434Zm9.32,32.849c-.331.022-.654.038-.979.052v-24.792C7753.058,5629.275,7751.74,5637.775,7750.023,5646.283Zm21.54-36.771c-.346.03-.685.068-1.031.1-.316-2.786-.64-5.571-.971-8.47-1.325-.113-2.47-.219-3.614-.317-.008.015-.022.038-.03.053a4.306,4.306,0,0,0,.144.58c.022.06.037.128.061.2.074.256.158.52.232.768.03.1.061.2.091.3.053.2.1.407.128.6a2.165,2.165,0,0,1,.022.3,1.524,1.524,0,0,1-.022.376,1.759,1.759,0,0,1-.09.279c-4.277,9.042-8.742,17.994-13.515,26.825.082-.369.165-.73.263-1.1.113-.482.233-.956.361-1.431.128-.5.271-1,.414-1.5.137-.482.287-.964.43-1.437q.576-1.864,1.242-3.682c.219-.617.452-1.227.692-1.837.316-.844.655-1.679,1.01-2.507.165-.4.338-.792.511-1.182.188-.429.377-.858.572-1.28s.385-.851.588-1.28c.188-.414.384-.821.587-1.234.2-.437.415-.866.633-1.3.294-.6.595-1.205.9-1.8.377-.738.761-1.467,1.152-2.2.256-.482.512-.957.768-1.438q.779-1.423,1.581-2.846c.136-.241.271-.475.406-.715s.271-.49.414-.731.279-.482.422-.722l-.008-.008a.13.13,0,0,0,.03-.045.059.059,0,0,0-.037,0c-.4-.03-.806-.067-1.2-.1a89.51,89.51,0,0,0-9.307-.58c-6.881.143-13.755.61-20.629.949-.226-2.937-.226-2.937-6.249-1.875,2.936-1.574,5.872-3.155,9.027-4.841-3-4.676-7.68-.617-10.631-2.9,1.37-.708,2.529-1.423,3.771-1.92a20.048,20.048,0,0,1,4.9-1.566c5.571-.655,11.181-1.084,16.768-1.6.248-.023.579-.158.729-.045,5.79,4.178,14.207,3.689,18.476,10.631C7774.252,5601.343,7772.385,5605.363,7771.563,5609.511Z" transform="translate(0)" fill="#432a00"/>
    <path id="Path_1212" data-name="Path 1212" d="M7452.59,5537.821l-14.817-1.671c-.03.391-.06.783-.083,1.174q7.409.6,14.832,1.2C7452.545,5538.3,7452.567,5538.055,7452.59,5537.821Z" transform="translate(-53.106 -20.532)" fill="#432a00"/>
    <path id="Path_1213" data-name="Path 1213" d="M7265.44,5544.3c.038.618.075,1.228.105,1.845q7.657-.994,15.313-1.973c-.022-.271-.037-.542-.06-.812Q7273.119,5543.833,7265.44,5544.3Z" transform="translate(-10.542 -22.314)" fill="#432a00"/>
  </g>
</svg>
