<svg xmlns="http://www.w3.org/2000/svg" width="174.46" height="275.939" viewBox="0 0 174.46 275.939">
  <path id="Path_1093" data-name="Path 1093" d="M2844.541,5469h-5.172a23.692,23.692,0,0,1-2.845,1.189c-13.409,3.582-25.784,8.47-29.961,24.115-.323-1.642-.582-2.869-.763-3.813-10.745,4.952-20.805,10.486-31.486,14.262-11.4,4.048-16.176,11.741-16.745,23.069-.013.142-.466.258-.814.439v-15.323c-2.483,3.259-4.1,5.392-5.638,7.409-.659-.557-1.771-1.811-2-1.655-24.568,15.659-48.115,32.094-44.572,67.317-.66-.337-1.319-.659-1.979-1-.634-6.026-1.28-12.039-1.965-18.491-10.409,15.646-9.258,33.671-12.155,50.494-1.423,8.288,2.354,17.456,3.7,25.692-1.448-1.836-3.414-4.356-5.78-7.383.349,9.388,8.509,16.111,7.371,25.758-7.694-6.724-14.314-12.517-20.948-18.322-.284.388-.556.789-.84,1.176q10.183,13.248,20.34,26.5c-.323.155-.659.323-.983.492-6.1-3.246-12.194-6.492-18.8-10.021,6.077,7.318,11.521,13.887,16.965,20.443-.465.634-.918,1.267-1.384,1.888-5.469.725-10.926,1.447-18,2.379,9.439.88,17.159,1.6,24.775,2.3-1.461,18.349-2.935,36.788-4.564,57.023,3.543-9.956,5.327-18.632,9.53-25.913,5.689-9.839,8.767-19.8,7.9-31.046-.026-.22.569-.491.931-.764,1.978.933,3.957,1.863,6.737,3.183-1.474-2.289-2.366-3.673-3.711-5.768h13.72c.039-.221.077-.427.116-.646-3.439-1.125-6.879-2.264-10.991-3.621,3.271-.84,5.728-1.461,9.84-2.508-3.375-.557-4.952-.814-6.517-1.061-.09-.439-.168-.867-.259-1.307,6.659-2.017,13.306-4.034,21.646-6.568h-16.642c13.112-5.6,23.844-12.142,30.478-24.478-5.961,3.129-11.314,5.936-16.667,8.741,9.478-9.543,19.81-17.715,26.21-29.573a75.377,75.377,0,0,0-8.146,3.944c-2.392,1.216-4.9,2.186-7.358,3.271,17.857-13.965,31.952-29.649,34.59-54.05l-15.116,3.375c-.077-.259-.168-.53-.246-.8,2.379-1.617,4.759-3.22,7.9-5.341h-3.594c4.914-5.663,11.586-10.875,14.637-17.715a62.72,62.72,0,0,1,7.616-12.725c4.668-6.168,9.271-12.387,13.551-18.826.983-1.462.492-3.905.763-6.775,3.13-1.914,7.268-4.617,11.573-7.034,6.517-3.659,8.987-8.9,8.651-16.486C2826.761,5478.75,2829.787,5474.741,2844.541,5469Zm-132.113,171.293c-2.987,19.267-5.715,38.623-7.344,58.032-.608,7.307-3.944,11.689-9.245,15.944,1.293-34.655,9.31-67.744,23.172-99.541C2716.772,5623.236,2713.773,5631.642,2712.428,5640.293Zm64.757-115.368c12.478-7.758,24.957-15.5,37.577-23.339C2805.076,5513.508,2790.206,5517.735,2777.185,5524.925Z" transform="translate(-2670.08 -5469)" fill="#1e2639"/>
</svg>
