<svg xmlns="http://www.w3.org/2000/svg" width="294.794" height="320.996" viewBox="0 0 294.794 320.996">
  <g id="Group_2000" data-name="Group 2000" transform="translate(-6550.612 -3673.716)">
    <path id="Path_406" data-name="Path 406" d="M6692.971,3802.413a19.459,19.459,0,0,1-2.84,6.044c3.9-9.02.493-16.762-3.709-24.4-.188-.343.084-.941.136-1.427q2.275,3.316,4.539,6.633C6692.724,3793.5,6694.078,3797.829,6692.971,3802.413Z" transform="translate(19.017 15.259)" fill="#1b3837"/>
    <g id="Group_1986" data-name="Group 1986" transform="translate(6550.612 3679.656)">
      <path id="Path_407" data-name="Path 407" d="M6617.136,3799.737c-.6-5.868-2.866-11.562-4.39-17.339l-6.964-6.342c-4.87-.654-9.732-1.77-14.608-1.815-4.026-.033-8.047,1.4-12.107,1.829-3.2.336-3.455.324-3.6,3,6.31-2.847,13.285-2.1,20.082-2.587-3.028.979-6.174,1.484-9.169,2.457a10.666,10.666,0,0,0-6.736,6.362c.978-.124,1.7-.221,3.378-.435-4.351,3.463-4.292,7.1-2.458,10.945.63-.409,1.492-.979,2.36-1.544.176.118.357.233.532.35-1.187,2.53-2.366,5.064-3.792,8.106,3.385-2.711,6.314-5.064,9.252-7.418a28.344,28.344,0,0,1-3.891,5.564c-1.284,1.64-2.411,3.411-3.612,5.122,8.184-6.334,8.184-6.334,11.082-6.3-5.563,4.553-8.235,10.8-10.3,17.481a5.8,5.8,0,0,0,1.29,5.933,34.765,34.765,0,0,1,4.007,5.7c1.271,2.426.6,5.732,3.708,7.425.617.331.48,2.2.533,3.371a26.864,26.864,0,0,1-.279,3.262c1.5-1.083,2.587-1.874,3.962-2.866-.065.8-.084,1.219-.13,1.628a4.766,4.766,0,0,1-.193,1.271c-2.666,6.322-4.176,12.715-1.271,19.4.026.072-.072.2-.111.3l-.8.311q-4.912-13.686-9.824-27.377l-.291.253c2.054,7.1,4.259,14.168,6.127,21.314,2.374,9.051,4.714,18.2-2.8,26.241a5.364,5.364,0,0,0-.616,1.128c-5.849,10.5-8.372,22.034-10.349,33.725-1.589,9.408-4.456,18.117-11.666,25-1.706,1.62-2.477,4.428-3.177,6.833-1.057,3.6-1.465,7.67-5.045,9.675-6.568,3.689-5.537,12.139-1,16.27,1.485,1.347,2.535,1.413,3.573-.383q1.673-2.917,3.438-5.777c1.8-2.9,4.124-5.584,5.362-8.7,2.9-7.257,5.453-14.667,7.833-22.112a107.752,107.752,0,0,1,18.661-34.289c-4.759,6.907-4.779,14.9-5.843,22.747-.888,6.517-1.938,13.176-7.443,18.1-2.744,2.45-1.9,7.261.979,9.79,3.229,2.84,3.735,4.961,2.27,9.1a28.9,28.9,0,0,0-1.874,6.153,7.783,7.783,0,0,0,.927,5.117c1.99,2.671,10.154,3.417,14.259,1.043a20.818,20.818,0,0,1-3.015-1.834c-4.487-3.942-4.584-5.148-2.867-11.023,1.1-3.774,2.342-7.787,2.121-11.613-.564-9.558,1.479-18.564,3.877-27.668,3.606-13.695,6.861-27.48,10.063-41.279.707-3.061.208-6.4.928-9.455,1.757-7.417,4.4-14.654,5.77-22.13a293.766,293.766,0,0,0,3.884-29.432A123.815,123.815,0,0,0,6617.136,3799.737Zm-20.263,100.136c-.272-.1-.545-.2-.817-.306q2.675-7.265,5.344-14.543c.337.07.673.148,1,.22Q6599.641,3892.559,6596.873,3899.874Z" transform="translate(-6550.612 -3665.573)" fill="#1b3837"/>
      <path id="Path_408" data-name="Path 408" d="M6596.117,3716.352c3.8-4.1,5.2-9.091,6.64-14.129a4.836,4.836,0,0,1,3.722-3.768c4.48-1.368,8.734-3.307,12-6.97-3.67-1.88-7.068-3.683-10.524-5.35-1.692-.817-3.5-1.387-5.161-2.029,1.634-1.894.1-3.619-1.991-4.085a65.061,65.061,0,0,0-10.79-1.09,5.407,5.407,0,0,0-3.644,1.018,101.3,101.3,0,0,0-7.5,8.3c-.558.674-.447,1.906-.687,3.086-2.963.681-9.921,8.365-10.711,12.2h12.307c2.082,4.428,4.066,8.636,6.031,12.858a2.541,2.541,0,0,1,.117.947c.252,8.242-5.9,13.436-14.013,12.158-8.805-1.381-9.479-.493-12.261,7.3a8.827,8.827,0,0,0-.279,1.259c-2.159,11.184-4.118,22.409-6.556,33.536a26.519,26.519,0,0,0,2.043,18.181c2.016,4.046,4.247,8,6.069,12.133a17.952,17.952,0,0,1,1.776,7.074c-.032,4.578-.707,9.143-1.127,13.863-.208-.039-1.077-.2-2.49-.473,1.887,4.974,6.452,5.751,9.9,8.365.3,1.933.661,4.234,1.121,7.191a8.45,8.45,0,0,0,.914-2.218,130.855,130.855,0,0,0-.005-13.455c-1.083-12.126-2.8-24.128-8.423-35.222a19.4,19.4,0,0,1-1.621-13.552c1.627-6.614,3.579-13.15,5.421-19.816,3.987,11.5,6.3,23.539,12.8,34.081,7.281-3.8,14.473-1.595,22.169-1.737v-20.8c-4.831,1.459-1.006,6.426-2.84,9.571a8.467,8.467,0,0,0-.422-2.815c-2.126-3.656.526-5.415,2.606-7.7a101.653,101.653,0,0,0,6.206-8.281,55.641,55.641,0,0,1-2.548,5.81c-.531,1.127-1.369,2.256-1.459,3.429-.37,4.837-.415,9.694-.738,14.538-.253,3.754.642,7.01,3.41,9.648l6.964,6.342c.376-.35,1.115-.765,1.07-1.057a67.02,67.02,0,0,0-1.5-8.235c-1.562-5.636-2.891-11.264-2.126-17.177.434-3.418,1-6.828,1.271-10.259.4-5.051.233-10.167.96-15.16.907-6.251-.875-9.454-7.042-10.9a87.714,87.714,0,0,1-8.753-2.114c-3.125-1.089-4.649-3.774-3.781-6.614C6593.483,3721.489,6594.269,3718.357,6596.117,3716.352Zm10.173,21.295c-8.384,7.282-18.272,6.886-28.361,5.362,4.8-.343,9.686-.253,14.388-1.147C6597.07,3740.96,6601.641,3739.093,6606.29,3737.647Z" transform="translate(-6550.407 -3678.926)" fill="#1b3837"/>
      <path id="Path_409" data-name="Path 409" d="M6580.445,3832.563l-.291.253c-3.283-8.092-6.965-16.055-9.689-24.335-1.322-4.033-.862-8.656-.907-13.065C6570.661,3808.559,6576.444,3820.3,6580.445,3832.563Z" transform="translate(-6547.964 -3662.606)" fill="#1b3837"/>
      <path id="Path_410" data-name="Path 410" d="M6576.71,3934.583c-1.92,4.4-3.794,8.708-5.667,13.014-.078.007-.156.007-.227.007.979-4.89,1.965-9.778,2.99-14.9C6574.992,3933.476,6576.055,3934.156,6576.71,3934.583Z" transform="translate(-6547.781 -3643.371)" fill="#1b3837"/>
    </g>
    <g id="Group_1987" data-name="Group 1987" transform="translate(6732.964 3681.665)">
      <path id="Path_411" data-name="Path 411" d="M6819.485,3758.7c-4.476-2.691-7.6-6.529-10.628-10.653-3.877-5.279-8.216-10.213-12.262-15.375-5.064-6.459-11.146-7.12-18.888-5.11-6.367,1.654-8.358,1.3-10.615-5.816a12.529,12.529,0,0,0-.785-1.706c-1.679-.091-3.105-.169-4.532-.241-.065-.331-.137-.661-.208-.985,4.175.811,5.622-1.621,6.555-4.831.629-2.166,1.673-4.222,2.179-6.406.6-2.574,1.231-5.33-1.3-7.114.558-1.225,1.057-2.314,1.914-4.182.512,3.177.888,5.537,1.335,8.287,1.946-1.174,3.807-2.192,5.571-3.372,2.205-1.479,4.26-3.178,3.32-6.29s-3.424-3.871-6.335-3.871a61.672,61.672,0,0,0-23.55,4.85,27.7,27.7,0,0,0-8.157,5.609c-2.51,2.367-1.31,5.213,2.1,5.764a21.477,21.477,0,0,0,2.6.169c.6-1.894,1.076-3.373,1.549-4.845a74.712,74.712,0,0,1,3.1,8.871c1.252,3.871,2.5,7.761,4.027,11.522.9,2.2.181,3.645-1.207,5.22-3.6,4.117-8.326,5.874-13.494,7-1.783.382-3.378,1.634-5.058,2.49,1.491,2.263,2.51,3.813,3.535,5.362-.169.124-.343.241-.512.364-1-1.174-2-2.347-3.392-3.968a66.759,66.759,0,0,0-1.329,7.612c-.811,15.374-3.366,30.314-10.407,44.216a52.331,52.331,0,0,0-2,5.1c-2.879,7.515-5.239,15.29-8.792,22.474-3.06,6.173-4.747,11.912-1.537,18.383.544,1.1.415,3.061,1.174,3.431,3.177,1.53,6.568,2.6,9.881,3.838.137-.3.272-.59.409-.882-1.251-1.1-2.5-2.2-3.256-2.859.357-1.323.863-2.172.74-2.912-.7-4.1-1.679-8.164-2.282-12.28a11.065,11.065,0,0,1,.389-5.363,50.7,50.7,0,0,1,3.754-6.744c4.487-7.827,9.09-15.594,13.383-23.531,1.245-2.308,1.641-5.084,2.333-7.671.856-3.183,1.493-6.438,2.458-9.589.9-2.931,2.107-5.771,3.177-8.618,3.4,2.516,5.518,7.489,5.434,13.681a4.533,4.533,0,0,1-1.771,3.1c-2.84,2.017-7.437,7.625-8.156,10.446,5.524-6.238,8.585-8.468,11.775-8.955-1.174,4.008-2.458,8.249-3.644,12.521-.875,3.139-1.621,6.323-2.419,9.481,4.188-6.627,4.883-14.915,11.594-21.068.311,2.295.525,3.916.791,5.862.985-1.927,1.816-3.554,2.743-5.37.811,4.15,1.588,8.138,2.373,12.126l.363.02c.389-2.159.772-4.325,1.284-7.217.63,2.062,1.012,3.313,1.395,4.558.195-.045.4-.091.6-.135v-4.792l.337-.04c.376,1.739.758,3.483,1.161,5.344.48-.324.927-.623,1.335-.9.434,1.226.811,2.315,1.193,3.4l.507-.156q-.282-2.529-.564-5.045c.123-.019.246-.032.37-.051q2.178,5.835,4.357,11.659c.174-.045.351-.091.526-.142-1.143-5.947-2.289-11.9-3.489-18.137,1.1.292,1.925.512,2.645.7.058-.946.1-1.673.163-2.859q-12.267-.934-24.556-1.874c1.09-1.187,2.386-2.185,3.689-2.2,6.212-.058,12.438-.02,18.636.357,1.926.117,2.937.084,3.624-1.913,1.53-4.461,3.431-8.8,4.922-13.28,2.225-6.672,4.234-13.421,6.335-20.146,7.191,7.029,14.258,13.934,21.358,20.872.792-.577,1.666-1.219,2.542-1.868-3.917,5.375-8.111,10.415-12.365,15.4-1.207,1.407-2.172,3.074-4.785,2.094-1.076-.408-2.794.921-5.012,1.764,1.984.26,3.015.4,4.04.531.026.318.046.643.072.959l-15.485,3.755c.02.117.039.24.059.363,2.114-.143,4.222-.279,6.335-.421.058.253.116.506.169.759-2.335,2.45-4.676,4.9-7.386,7.741,6.095,1.667,9-3.54,13.182-4.046q-2.78,3.1-5.557,6.206c.162.246.331.493.5.74,3.384-2.323,6.763-4.637,10.582-7.257-1.05,6-2.029,11.588-3.035,17.333-4.843.584-9.486,1.142-14.22,1.711v-4.714l-.953-.135q-2.161,13.655-4.307,27.325c.162.032.331.065.493.09q1.392-6.516,2.789-13.04a120.6,120.6,0,0,1-2.562,17.864c-.758,3.45.045,6.4,2.491,8.436,1.73,1.44,4.291,2.088,6.594,2.607,5.331,1.186,10.726,2.1,16.1,3.086,2.853.525,4.273-1.037,5.3-3.489,3.845-9.11,7.813-18.168,11.691-27.267.61-1.432.979-2.969,1.6-4.882-2.918-.441-5.408-.817-7.8-1.174.13-2.5.246-4.8.364-7.106-.4-.019-.805-.033-1.207-.052v7.535c-2.048-.208-3.612-.37-5.167-.524.42-2.258.836-4.526,1.25-6.79-.376.065-.745.136-1.122.2-.479-1.206-1.309-2.386-1.38-3.612q-.544-9.19-.707-18.408a3.911,3.911,0,0,1,1.3-2.866c2.814-1.978,5.8-3.7,8.741-5.492,4.007-2.451,7.658-5.247,9.564-9.759C6823.783,3763.45,6823.233,3760.947,6819.485,3758.7Zm-75.646-10.465c-.188-1.278-.357-2.386-.558-3.761.792.279,1.31.467,2.1.746v-6.1l.428-.02c.227,1.777.454,3.554.759,5.972.577-.792.791-1.089,1.115-1.537.234,1.076.434,2.036.642,3.008C6747.01,3747.038,6745.583,3747.576,6743.839,3748.231Zm18.182,7.094c-.221-.214-.448-.429-.675-.649q3.911-4.162,7.82-8.319c.195.214.4.428.6.642Q6765.893,3751.162,6762.021,3755.326Zm37.187,31.124c.376.007.752.014,1.134.014.311,3.967.663,7.936.909,11.9.09,1.388-.221,2.808-.1,4.189.306,3.475-1,5.239-4.959,4.733C6797.218,3800.209,6798.216,3793.33,6799.208,3786.449Zm5.194,21.081v6.692c-.034-.007-.072-.007-.1-.014-1.259,11.055-2.523,22.118-3.858,33.828-6.427-12.728-12.638-25.028-18.974-37.582,3.976-.292,7.561-.551,11.166-.817.13,5.117.13,5.117,2.613,5.92.26-2.036.507-4.013.811-6.4Q6800.045,3808.379,6804.4,3807.53Z" transform="translate(-6710.556 -3679.239)" fill="#1b3837"/>
      <path id="Path_412" data-name="Path 412" d="M6769.973,3958.305c-1.277-7.5-2.049-15.134-4.014-22.449-2.23-8.286-1.5-16.463-.914-24.724.939-13.188,1.309-26.1-5.668-38.321-3.741-6.562-1.452-13.514,2.49-19.784a21.779,21.779,0,0,0,1.919-4.636c-1.361,2.633-4.376,3.139-6.828,3.929-1.453.467-3.43-.687-5.855-1.271,1.212-.356,1.634-.487,2.049-.61-.046-.311-.091-.629-.136-.94-5.712.415-11.418.824-17.035,1.226-.991-11.931-1.983-23.8-2.969-35.683-.129,7.347.421,14.643,1,21.93.39,4.934.162,10.038,1.375,14.758a109.621,109.621,0,0,1,3.469,28.737c-.221,18.436,1.51,36.5,7.087,54.189,2.587,8.222,2.087,16.865.758,25.3-1.161,7.392.214,10.666,7.4,14.6,4.065-2.665,4.194-6.686,3.592-10.881-.915-6.361-2.231-12.683-2.835-19.069-1.128-12.075-1.874-24.181-2.774-36.273l.94-.116c3.345,7.612,6.549,15.141,5,23.984-.786,4.48-.351,9.189-.279,13.786a112.171,112.171,0,0,0,.675,11.912,86.562,86.562,0,0,0,2.21,10.925c.512,2,1.984,2.237,3.813,1.226A10.825,10.825,0,0,0,6769.973,3958.305Zm-20.446-56.595c-.667-4.169-1.277-8.345-2.029-12.494-1.031-5.694-2.017-11.406-3.306-17.042-1.628-7.106-.429-14.012,1.192-20.917-.415,4.571-.842,9.143-1.231,13.72a6.573,6.573,0,0,0,.071,2.9c4.254,10,3.858,20.853,5.823,31.273.149.791.376,1.576.564,2.36C6750.248,3901.575,6749.891,3901.646,6749.527,3901.71Zm14.259-53.319a5.761,5.761,0,0,0,.539-1.5C6764.131,3847.38,6763.955,3847.885,6763.786,3848.391Z" transform="translate(-6707.412 -3661.865)" fill="#1b3837"/>
      <path id="Path_413" data-name="Path 413" d="M6765.876,3688.515c-9.512-2.4-20.309,1.829-21.689,8.5a8.822,8.822,0,0,1,.8-9.4c3.32-4.675,7.677-7.5,13.688-6.828C6763.011,3681.272,6763.989,3684.9,6765.876,3688.515Z" transform="translate(-6705.981 -3680.688)" fill="#1b3837"/>
      <path id="Path_414" data-name="Path 414" d="M6735.455,3781.305c-1.426,5.511-2.743,10.641-4.065,15.769C6732,3791.692,6730.591,3785.805,6735.455,3781.305Z" transform="translate(-6707.637 -3666.592)" fill="#1b3837"/>
      <path id="Path_415" data-name="Path 415" d="M6792.883,3799.086v.109l-.1-.123C6792.812,3799.079,6792.85,3799.079,6792.883,3799.086Z" transform="translate(-6699.037 -3664.103)" fill="#1b3837"/>
    </g>
    <g id="Group_1988" data-name="Group 1988" transform="translate(6646.997 3673.716)">
      <path id="Path_416" data-name="Path 416" d="M6706.388,3773.838c-.655-2.8-1.744-5.5-2.321-8.312-1.693-8.2-3.074-16.47-4.883-24.646-.888-3.988-3.424-6.413-7.923-6.79-5.07-.427-10.083-1.452-15.122-2.217.856-6.276,1.79-11.659,4.993-16.56,1.771-2.7,2.562-6.116,3.45-9.305.629-2.244.091-4.954,1.1-6.932,3.028-5.933.181-10.057-3.462-14.2a8.079,8.079,0,0,1-2.037-3.469c-.531-2.847-2.328-3.65-4.656-3a34,34,0,0,0-7.359,3.1c-2.4,1.336-2.944.59-3.086-1.808a51.606,51.606,0,0,0-1.018-5.979c-.486,0-.98.005-1.472.005-.61,3.956-1.226,7.9-1.79,11.555-.109-.958-.259-2.288-.466-4.143-.454,1.628-.752,2.691-1.213,4.338-1.323-1.588-2.256-2.7-3.19-3.826.876,6.309-1.284,10.3-7.605,11.887l5.031,1.614c-1.5,1.147-2.827,2.152-4.155,3.164l.213.272q3.51-1.723,7.016-3.437c-.071-.13-.149-.267-.221-.4-.583.214-1.173.422-1.762.635-.052-.109-.111-.227-.169-.343,1.549-1.064,3.093-2.126,4.856-3.339-2.574,8.377-.986,11.581,4.421,11.094,1.291,4.869,2.555,9.6,3.788,14.336a4.237,4.237,0,0,1,.246,2.179,116.576,116.576,0,0,1-4.266,11.425,5.184,5.184,0,0,1-3.715,2.347,69.362,69.362,0,0,1-10.33-.1c-3.242-.221-4.676,1.4-5.428,4.273-2.114,8.1-4.182,16.2-6.517,24.238-3.443,11.847-3.364,23.174,4.261,33.576,2.6,3.54,5.22,7.055,7.671,10.368-.648,1.569-1.231,2.977-1.81,4.377.286.195.571.389.856.589,9.545-9.162,19.654-17.306,33.55-18.57-5-2.607-9.363-.188-13.973,1.083a14.151,14.151,0,0,1,3.98-2.186c1.815-.726,3.637-1.433,5.454-2.147-.123-.292-.239-.577-.357-.862-1.368-.428-2.736-.85-4.43-1.375,1.337-1.582,2.2-3.307,3.593-4.071a8.331,8.331,0,0,1,5.005-.668c.473.077.591,2.438.883,3.747.251,1.167.193,2.64.9,3.378.416.429,2.186-.084,3.12-.589,2.963-1.6,3.241-1.537,4.091,1.75.149.6.292,1.194.441,1.8.3-.033.6-.058.895-.084-.13-2.147-.253-4.292-.382-6.446-2.5.195-4.987.39-6.757.532q-1.438-3.628-2.891-7.282c1.918.247,2.548-.668,2.555-2.548.044-8.956,2.126-17.514,5.492-26.793,1.141,2.029,2.263,3.411,2.748,4.987,2.037,6.659,4.124,13.312,5.694,20.087a20.831,20.831,0,0,1-.2,8.553c-1.058,5.123-2.634,10.136-3.995,15.193q2.275,3.316,4.539,6.633a6.016,6.016,0,0,0,1.128-1.51c2.6-7.839,5.285-15.66,7.618-23.583C6707.5,3777.769,6706.815,3775.667,6706.388,3773.838Zm-41.136-23.434c-5.025-.9-8.384,2.457-12.489,5.149C6655.642,3750.852,6660.668,3748.815,6665.252,3750.4Zm-10.414,50.791c-1.3-2.392-2.593-4.785-4-7.372,5.938-4.844,7.54-4.967,17.222-2.912C6666.127,3794.8,6666.127,3794.8,6654.838,3801.2Zm25.5-22.889c-.247,0-.486.007-.72.026-.2.012-.4.025-.583.051-.013,0-.025.007-.039.007a1.565,1.565,0,0,0-.194.026c-.195.025-.383.058-.571.1-.162.032-.324.071-.486.116-.11.026-.221.058-.324.091-.162.045-.324.1-.479.162s-.331.13-.493.2c-.051.02-.1.046-.156.065-.156.077-.311.156-.46.24-.014,0-.026.013-.039.02-.175.1-.351.2-.519.312s-.331.227-.494.35c-.116.084-.227.174-.336.266-.13.111-.253.22-.383.337-.182.169-.35.343-.519.524l-.039.039c-.157.175-.3.351-.454.539a4.68,4.68,0,0,0-.311.408c-.22.3-.429.616-.629.946-.078.13-.155.26-.227.4l-.059.1c-.072.123-.143.252-.207.389-.221.421-.429.855-.63,1.316-.11.26-.22.525-.324.8-7.742-1.614-14.81-.123-21.158,6.231-1.776-5.667-3.95-10.815-4.869-16.184-.545-3.151.473-6.789,1.542-9.947,1.355-4,3.476-7.735,5.5-12.093,1.926,7.36,3.793,14.486,5.642,21.619.1.415.046.862.123,1.284,1.511,8.4,2.594,9.11,10.868,6.75a4.884,4.884,0,0,0,2.2-1.979,13.3,13.3,0,0,1,1.53-1.822c.13-.13.266-.253.4-.369a2.064,2.064,0,0,1,.22-.183,3.678,3.678,0,0,1,.3-.239c.1-.078.208-.156.312-.227.143-.1.285-.188.427-.272a6.764,6.764,0,0,1,1.011-.506,2.739,2.739,0,0,1,.306-.117.363.363,0,0,1,.07-.026,3.786,3.786,0,0,1,.383-.116,5.8,5.8,0,0,1,.888-.188c.116-.02.234-.032.35-.045h.039c.1-.013.208-.02.311-.026a8.108,8.108,0,0,1,1.3.033c.143.013.285.032.427.051a3.47,3.47,0,0,1,.35.059c.188.025.369.064.564.109.155.033.312.072.467.118s.318.084.48.136.325.1.487.156C6680.866,3778.313,6680.6,3778.307,6680.34,3778.307ZM6672.469,3753c-.007-.35-.013-.694-.013-1.044q5.9-1.2,11.807-2.38c.079.435.156.869.24,1.3Z" transform="translate(-6635.153 -3673.716)" fill="#1b3837"/>
      <path id="Path_417" data-name="Path 417" d="M6683.15,3854.8c-.343,8.442-.486,16.613-1.057,24.75-.927,13.091-5.149,25.4-9.383,37.707a33.735,33.735,0,0,0-1.277,9.129c-.123,2.276.176,4.513-1.783,6.257a2.52,2.52,0,0,0-.792,1.7c.065,5.252-.434,10.628.526,15.717.915,4.864.408,8.916-2.529,12.71-1.758,2.269-3.7,4.39-5.557,6.575-.461-.02-.921-.033-1.389-.046-1.464-3.469-2.93-6.944-4.635-10.991,2.146,1.745,3.515,3.658,5.214,4.02,1.73.37,3.78-.791,5.686-1.277q-.165-.575-.331-1.148c-.439.162-.881.324-1.322.5-4.273,1.7-7.612-.162-7.275-4.818a133.384,133.384,0,0,1,2.93-19.66c1.667-7.412,4.812-14.551,5.947-22.007,1.323-8.676,1.225-17.572,1.641-26.378.343-7.4.3-14.822.888-22.2.383-4.8,3.477-7.652,8.268-8.657C6678.9,3856.263,6680.8,3855.518,6683.15,3854.8Z" transform="translate(-6632.334 -3648.347)" fill="#1b3837"/>
      <path id="Path_418" data-name="Path 418" d="M6665.608,3857.389c-.376.078-.752.162-1.129.246-3.105-11.348-6.16-22.707-9.4-34.016a6.532,6.532,0,0,0-2.678-2.989,8.954,8.954,0,0,0-3.345-1.064c-4.41-.83-6.679-3.714-7.438-7.878-.959-5.342.253-8.325,4.292-11.244-.182-.907-.356-1.822-.539-2.742a10.665,10.665,0,0,0,7.581,3.54c3.327,0,6.646-.091,9.532-.136-1.7,3.768-4.325,4.125-13.9.974-1.258,1.413-2.651,2.768-3.787,4.312-2.225,3.021-1.829,6.127,1.414,7.975a32.377,32.377,0,0,0,7.788,2.789c5.044,1.335,6.867,2.763,6.561,7.937-.473,7.937,1.836,15.29,3.457,22.825C6664.688,3851.041,6665.089,3854.23,6665.608,3857.389Z" transform="translate(-6634.29 -3656.346)" fill="#1b3837"/>
      <path id="Path_419" data-name="Path 419" d="M6681.978,3822.956a50.852,50.852,0,0,1-7.594,3.464,12.531,12.531,0,0,0-7.224,6.042c-.849-3.346.732-5.362,3.489-6.685,2.794-1.35,5.8-2.361,8.384-4.021,1.316-.843,2.944-3.093,2.619-4.156-.492-1.615-2.379-3.074-4.02-3.976-1.316-.732-3.139-.681-4.74-.746-8.138-.331-10.154-2.347-9.694-10.4.188-3.2.577-6.5,3.566-8.845-.389,2.808-.9,5.609-1.147,8.436-.4,4.617,1.744,7.314,6.348,8.157,2.75.5,5.537.8,8.268,1.375,2.867.6,4.383,2.659,4.831,5.434A5.528,5.528,0,0,1,6681.978,3822.956Z" transform="translate(-6631.231 -3656.916)" fill="#1b3837"/>
      <path id="Path_420" data-name="Path 420" d="M6696.664,3822.158c-3.243,4.649-8.209,6.737-13.13,8.955-3.009,1.362-5.907,2.983-9.058,4.584,1.854-2.982,4.662-4.655,7.755-6.023a77.538,77.538,0,0,0,9.571-4.475,12.775,12.775,0,0,0,4.026-4.856c1.543-2.905.914-5.616-1.764-7.75-1.062-.842-2-1.848-3.007-2.794.81-.876,1.374-1.479,1.938-2.089A9.626,9.626,0,0,1,6696.664,3822.158Z" transform="translate(-6629.643 -3654.943)" fill="#1b3837"/>
      <path id="Path_421" data-name="Path 421" d="M6690,3827.641c-1.816,4.073-3.961,8.04-5.37,12.255-1.361,4.079-1.958,8.41-2.989,13.046-2.153-5.6-3.054-6.387-7.521-7.262,2.36-1.057,4.721-2.107,6.88-3.073l7.326-15.719C6688.886,3827.142,6689.445,3827.388,6690,3827.641Z" transform="translate(-6629.693 -3652.256)" fill="#1b3837"/>
      <path id="Path_422" data-name="Path 422" d="M6686.547,3803.025c-.427,1.653-1.763,3.067-2.677,4.6,4.494-8.889-.862-23.344-9.02-23.914,2.458-2.458,4.435-2.892,6.179-.616C6685.524,3788.934,6688.552,3795.385,6686.547,3803.025Z" transform="translate(-6629.591 -3658.601)" fill="#1b3837"/>
      <path id="Path_423" data-name="Path 423" d="M6674.746,3785.724c-2.963,1.426-6.445,2.813-9.623,4.708s-6.043,4.273-9.059,6.452C6656.862,3791.144,6665.344,3786.2,6674.746,3785.724Z" transform="translate(-6632.223 -3658.024)" fill="#1b3837"/>
      <path id="Path_424" data-name="Path 424" d="M6675.759,3765.49l-.052.059c-.071-.026-.143-.052-.213-.071C6675.577,3765.477,6675.667,3765.483,6675.759,3765.49Z" transform="translate(-6629.5 -3660.86)" fill="#1b3837"/>
    </g>
  </g>
</svg>
